<svg xmlns="http://www.w3.org/2000/svg" viewBox="0 0 149.49 89.5"><defs><style>.cls-1{fill:#ecf3fb;}.cls-2{fill:#243962;}.cls-3{fill:#2b4f97;}.cls-4{fill:#b2c1e3;}.cls-5{fill:#fab17e;}.cls-6{fill:#ec7e2a;}.cls-7{fill:#f89748;}.cls-8{fill:#fff;}.cls-9{fill:#e3915a;}.cls-10{fill:#da6727;}.cls-11{fill:#a1afd9;}.cls-12{fill:#183660;}.cls-13{fill:#ee985e;}.cls-14{fill:#2b488c;}.cls-15{fill:#6db7c0;}.cls-16{fill:#87d0cd;}.cls-17{fill:#f0a350;}.cls-18{fill:#d97827;}.cls-19{fill:#5d84c3;}.cls-20{fill:#7a97cd;}.cls-21{fill:#ab463e;}.cls-22{fill:#2e3652;}</style></defs><g id="Layer_2" data-name="Layer 2"><g id="Layer_1-2" data-name="Layer 1"><path class="cls-1" d="M9.26,89.5l46.13-.24H84.07l56.28,0s12.87-16.66-.88-32.48c-14.26-16.4-21.19-3-25.57-26.13C102.87-27.5-6.18,6.33,22.42,55.78,32.72,73.59,2.15,64.13,9.26,89.5Z"/><path class="cls-2" d="M62.62,86.7s.17,2-.26,2.24l-5.48,0s0-.63.88-.77,2.43-.65,2.69-1.8S62.62,86.7,62.62,86.7Z"/><path class="cls-2" d="M78.35,85.91s.17,2.82-.26,3l-5.49,0s0-.63.88-.77,2.43-.65,2.69-1.8S78.35,85.91,78.35,85.91Z"/><path class="cls-3" d="M78.54,86.26a10.07,10.07,0,0,1-1.56.66,6.53,6.53,0,0,1-1.49,0c-1.86-5-7.65-25.32-7.65-25.32a87.48,87.48,0,0,1-2.32,15.73c0,.12,0,.24-.08.36h0c0,.11,0,.22-.08.32v0C64.08,83.38,62.8,87,62.8,87s-.33.41-1.26.22a2.46,2.46,0,0,1-1.41-.68c.69-21.66,1.07-33.87,1.07-33.87s9.15-4.94,11.64-.72S78.54,86.26,78.54,86.26Z"/><path class="cls-4" d="M74.85,54.88a41.93,41.93,0,0,1-1.37-11.6c0-4.75.43-8.1-1-8.66,0,0-4.42-1.28-7.46-1.85-.48-.26-1-.54-1.43-.71-1-.39-4.7-5.82-5.33-7.13a54.51,54.51,0,0,1-1.68-7l-1.46.46s-.44,6.37-.23,8,4.84,8.79,5.23,9.42h0c1.65,6,0,15.83.75,18,.39,1.12,7.58,3.18,11.51,2.93l.56-.06h0c.94-.13,1.61-.43,1.86-.95A1.32,1.32,0,0,0,74.85,54.88Z"/><path class="cls-5" d="M56.59,18s.82-2.39.22-2.46-2.12-.06-2.3.34.62,2.58.62,2.58Z"/><path class="cls-6" d="M40.91,23.92,36.05,21A1.48,1.48,0,0,1,37,20.3a1.54,1.54,0,0,1,1.14.17.66.66,0,0,0,.91-.22l1.32-2.18,1.14.69-1.32,2.17a.71.71,0,0,0-.08.51.73.73,0,0,0,.31.41,1.48,1.48,0,0,1,.68.93A1.53,1.53,0,0,1,40.91,23.92Z"/><path class="cls-7" d="M40.91,23.92l-3.23-2c-.75-.63-.39-1.16,0-1.25a1.45,1.45,0,0,1,1.14.17.66.66,0,0,0,.91-.23L41,18.49l.45.27-1.32,2.17a.71.71,0,0,0-.08.51.73.73,0,0,0,.31.41,1.48,1.48,0,0,1,.68.93A1.53,1.53,0,0,1,40.91,23.92Z"/><path class="cls-7" d="M55.13,9.75l-3.94,5a7.28,7.28,0,0,1-6,3.44h0A7.45,7.45,0,0,1,43,17.9a1.51,1.51,0,0,0-1.63.76l-.07.13-.42.69L40,19l.42-.7a1.69,1.69,0,0,0-.06-2,7.33,7.33,0,0,1-.79-8.62L42.24,2Z"/><path class="cls-6" d="M38.67,11.71c.32-1.86-.58-2.87-1.53-3.94A5.64,5.64,0,0,1,35.43,4.7,3.85,3.85,0,0,1,37.12,1,2.5,2.5,0,0,1,39.89.93c1.2.78,1.65,2.27,1.3,4.33A11.89,11.89,0,0,1,40.33,8l-.75-.35s2.1-4.61-.14-6a1.68,1.68,0,0,0-1.87.05A3.08,3.08,0,0,0,36.25,4.6a5,5,0,0,0,1.51,2.61c1,1.12,2.12,2.39,1.73,4.64Z"/><path class="cls-7" d="M48.05,17.38c1.5-1.15,2.81-.82,4.2-.48a5.66,5.66,0,0,0,3.51.1,3.88,3.88,0,0,0,2.51-3.23A2.49,2.49,0,0,0,57,11.3c-1.24-.71-2.77-.41-4.43.86a12.71,12.71,0,0,0-2.06,2l.66.51s3.11-4,5.42-2.69a1.7,1.7,0,0,1,.83,1.69,3.07,3.07,0,0,1-2,2.51,5,5,0,0,1-3-.12c-1.45-.36-3.09-.77-4.91.62Z"/><path class="cls-6" d="M45.19,18.15A7.45,7.45,0,0,1,43,17.9a1.51,1.51,0,0,0-1.63.76l-.07.13a1.24,1.24,0,0,0-.61.58L40,19l.42-.7a1.69,1.69,0,0,0-.06-2,7.33,7.33,0,0,1-.79-8.62L42.24,2l2.13,1.28S35.72,15,45.19,18.15Z"/><path class="cls-7" d="M41.36,20l-2.12-1.28a.63.63,0,0,1-.21-.85h0a.61.61,0,0,1,.84-.2L42,18.94a.62.62,0,0,1,.21.84h0A.61.61,0,0,1,41.36,20Z"/><path class="cls-8" d="M42,12.86l.23-.38c1.08.58,1.22.51,1.66-.22l2.23-3.69c.31-.51.15-.67-.23-1l-.28-.24L45.83,7a13.06,13.06,0,0,0,2.56.86l-3.14,5.19c-.45.75-.45.88.56,1.56l-.23.38Z"/><path class="cls-5" d="M54.51,15.84s-.08.82.18,1,.36-1,.36-1,0,.93.22,1,.33-1.07.33-1.07,0,.9.15.87.23-.87.23-.87.07.66.25.54.37-.82.37-.82Z"/><path class="cls-5" d="M56.59,18a2.29,2.29,0,0,0,.68-.85c.13-.4.49-1.08.3-1.16s-.76.79-.76.79Z"/><path class="cls-5" d="M66.35,32.12l-.07.37a1.3,1.3,0,0,0,1,1.58c1.39.45,2.55.65,2.69-.24a20.18,20.18,0,0,1,.09-2.4,4,4,0,0,1,.19-.67l-2.73-.6-.84,0Z"/><path class="cls-9" d="M66.73,30.13l-.25,1.34c2.6.69,3.73-.47,3.82-.71l-2.73-.6Z"/><path class="cls-5" d="M70.7,30.2c-.8,1.64-3,.95-4,.57-.26-.1-.42-.18-.42-.18-.29-.17-.32-.7-.22-1.35a10.16,10.16,0,0,1,1.24-3.48c.52-.62,1.33-1.21,3.42,0S71.73,28.1,70.7,30.2Z"/><path class="cls-2" d="M67.13,23.92a7.7,7.7,0,0,0,2.31,0,3.46,3.46,0,0,1,2.46,1,.5.5,0,0,0,0-.26A.54.54,0,0,1,72,25s0,0,0,0a.72.72,0,0,1,.32.11.15.15,0,0,0-.13,0l0,0a3,3,0,0,1,.13,3.9,17.73,17.73,0,0,0-2,1.83,3.45,3.45,0,0,1,.31-1c.27-.54-.23-.68-.78-1.12s.18-1-.24-1.61-2.5-.89-2.38-1.22C66.5,25.43,67.11,24,67.13,23.92Z"/><path class="cls-8" d="M67.46,29.59s-.14.21-.67,0c0,0-.46-.2-.35-.44A1.58,1.58,0,0,1,67.46,29.59Z"/><path class="cls-6" d="M66.85,35.13s-1.24,8.27-10.57,14l-.87,2.53h3.37s8.35-7,8.91-16.31Z"/><polygon class="cls-10" points="66.85 35.13 66.85 33.88 68.39 34.31 67.69 35.37 66.85 35.13"/><path class="cls-11" d="M66.35,32.12l-.9.77a3.52,3.52,0,0,0,.36,2.24l1.81-1A2.57,2.57,0,0,1,66.35,32.12Z"/><path class="cls-11" d="M67.62,34.09a3.37,3.37,0,0,0,.65,1.46s2-.36,2.61-1.34L70,32.87S69.82,33.79,67.62,34.09Z"/><path class="cls-5" d="M79.86,55.54a11.53,11.53,0,0,1-.17,2.22,7.67,7.67,0,0,1-1.28,1.82c-.36.26.07-1.48,0-1.8s-.25.63-.41.67-.21-.8-.24-1.1.69-1.13.91-1.8S79.86,55.54,79.86,55.54Z"/><path class="cls-4" d="M72.46,34.62s1.79.49,3,3.17,4.69,9.05,4.82,9.91-.23,8.9-.23,8.9-1.49.06-2-.65c0,0-.52-7.06-.75-7.44s-6.12-7.4-5.62-9.18A32.25,32.25,0,0,0,72.46,34.62Z"/><path class="cls-11" d="M74.81,55.81a5,5,0,0,1-1.86.95h0a1.58,1.58,0,0,1-.56.06c-3.29-.34-2.78-13.12-1.19-14.06s2.28.52,2.28.52a41.93,41.93,0,0,0,1.37,11.6A1.32,1.32,0,0,1,74.81,55.81Z"/><path class="cls-2" d="M65.36,78.05c0-.1,0-.2.08-.32C65.41,77.84,65.39,78,65.36,78.05Z"/><path class="cls-2" d="M65.52,77.37c1-4.76-.07-17.52.41-17.76s1.91,2,1.91,2A87.48,87.48,0,0,1,65.52,77.37Z"/><polygon class="cls-5" points="40.93 87.09 40.64 85.01 41.85 83.99 42.24 86.75 40.93 87.09"/><path class="cls-2" d="M45,89H40a2.71,2.71,0,0,1,.14-1.33c.24-.55.63-.89.67-1.31a1.48,1.48,0,0,0,1.42.43,5.42,5.42,0,0,0,.86,1.12C43.42,88.1,44.87,88,45,89Z"/><path class="cls-7" d="M44,58.89q-.48,3.93-.8,7.38A174.37,174.37,0,0,0,42.24,86s-.09.22-.8.22a3.65,3.65,0,0,1-.8-.08s-2.59-8-2.39-12.53a6.87,6.87,0,0,1,.2-1.47c.62-2.33-2.3-11.22.88-14.53S44.12,57.7,44,58.89Z"/><path class="cls-6" d="M44,58.89q-.48,3.93-.8,7.38l-4.92,7.31a6.87,6.87,0,0,1,.2-1.47c.62-2.33-2.3-11.22.88-14.53S44.12,57.7,44,58.89Z"/><path class="cls-5" d="M47.88,34s-.12-.6-.25-1a3.22,3.22,0,0,1,.64-1.69c.29-.17,1,.73.83,1.41-.11.35-.29,1.5-.29,1.5Z"/><path class="cls-5" d="M47.88,34s-.15-.35-.3-.4-.29-.63-.39-.85c0,0,.1-.15.27,0s.35.45.35.45Z"/><path class="cls-5" d="M27.38,36c0,.06-.07.17-.11.28v-.09a3.26,3.26,0,0,0-1.11-1.42c-.32-.08-.78,1-.37,1.59.2.3.71,1.34.71,1.34l.84-.43s0-.37.16-.47.1-.68.13-.93C27.63,35.86,27.5,35.75,27.38,36Z"/><path class="cls-5" d="M32.6,86.47c-.07-.67-.09-2.43-.09-2.43s1.8-.58,1.73-.18A13.18,13.18,0,0,0,34,86.75l-.72.44Z"/><path class="cls-7" d="M42.48,58.77s-6.94,19-8.3,27.25a1.44,1.44,0,0,1-.91.14,1,1,0,0,1-.85-.55s-1.25-9.87,1.24-13.3C35.37,70,32.92,59.6,36.9,58.77S42.48,58.77,42.48,58.77Z"/><path class="cls-12" d="M41.24,40.49h0v0c0-.17-.09-.34-.13-.5h0a11.39,11.39,0,0,0-.51-1.4q-.16-.36-.33-.66l-.05-.09h0a2.09,2.09,0,0,0-.79-.86,2.46,2.46,0,0,0-1.31-.05.61.61,0,0,1,.25-.17,2,2,0,0,0-.67.29c-3.2-.71-3,3.8-2.79,4.83s-.81,1.52-2.26,2.57c-2.77,2-2.72,4.11-2.72,4.11l.08,0c.11-.27.34-.79.59-.9a8.25,8.25,0,0,0-.26,1.07c.42.23,1,.59,1.63,1h0c.85.54,1.79,1.16,2.54,1.67a1.65,1.65,0,0,1,0-.66l.24.73,0,.1,1.05.72,0,0,.08.06a4.11,4.11,0,0,1,.69-1.8,1.62,1.62,0,0,1,.1-.18c.15-.27.32-.56.5-.85l.2-.33h0c.06-.08.11-.17.17-.26h0l.42-.63c.37-.55.76-1.1,1.15-1.59A15.17,15.17,0,0,1,40.75,45l0-.09a4.42,4.42,0,0,0,.17-.55l0-.17a7.32,7.32,0,0,0,.12-1.35,7.25,7.25,0,0,1,0,1.36l0,.2h0a2,2,0,0,1-.08.35,1.84,1.84,0,0,0,.2-.31,1.6,1.6,0,0,0,.1-.23A6.6,6.6,0,0,0,41.24,40.49Z"/><path class="cls-5" d="M40.64,45.07a2.85,2.85,0,0,1-1.66.56,2.24,2.24,0,0,1-1.3-.92c.29-.1.31-.52,0-2.25h.14l2.29.11s.06.71.15,1.37S40.51,45,40.64,45.07Z"/><path class="cls-13" d="M40.16,42.58s.06.71.15,1.37a2.67,2.67,0,0,1-2.44-1.48Z"/><path class="cls-12" d="M37.6,42.26a6.7,6.7,0,0,1-1.1-1.8c-.2-.62-.23-3,2.17-3a3.27,3.27,0,0,1,1.4.31c.56.26,1.41.9.89,3.07l-.11.72Z"/><path class="cls-8" d="M44.26,58.41a9.76,9.76,0,0,1-6.74.86l-3.09-.5c0-.14.44-2.5.49-2.63.67-1.72,1.89-11,2.9-11.51a2.32,2.32,0,0,0,1.64.42c.73-.06,1-.38.92-.72.81.38,1.43.74,1.43.74C42.55,46.18,44.26,58.41,44.26,58.41Z"/><path class="cls-5" d="M40.67,43.14s-2.94.49-3.22-1.35-.84-3,1-3.41,2.34.26,2.58.85S41.43,43,40.67,43.14Z"/><path class="cls-12" d="M39.82,38.13s-.49,2.29-1.68,2.79a2.51,2.51,0,0,1-1.79.25,3.56,3.56,0,0,0,.84-2.25S39.05,37.2,39.82,38.13Z"/><path class="cls-12" d="M39.64,38.34a2.63,2.63,0,0,1,.9.84c.21.45.42,1.4.7,1.33,0,0,.39-1.56-.42-2.29S39.64,38.34,39.64,38.34Z"/><path class="cls-14" d="M48.83,34a2,2,0,0,0-.53-.16,1.55,1.55,0,0,0-.46,0s-.83,5.17-.9,5.44-3.56,4.23-4.51,4.21a4.31,4.31,0,0,0-2,.77,43.91,43.91,0,0,1,2.08,5c.11.85,1.14,14.09,1.14,14.09s-.06.61,1.09.28a4,4,0,0,0,1.44-.6s-1.06-10.42-1.28-13.66a6.24,6.24,0,0,0-.2-1.21,1.21,1.21,0,0,1,.2-1c1.45-2,3.75-5.23,3.88-5.92C48.91,40.26,48.83,34,48.83,34Z"/><path class="cls-2" d="M36.74,89h-5a2.71,2.71,0,0,1,.14-1.33c.25-.55.64-.89.67-1.31a1.5,1.5,0,0,0,1.42.43,5.18,5.18,0,0,0,.87,1.12C35.19,88.1,36.64,88,36.74,89Z"/><path class="cls-14" d="M40.15,49.73a39.43,39.43,0,0,0-2.31-5.16,4.31,4.31,0,0,0-2.24-.08c-.89.32-5.48-2.28-5.63-2.52s-2.61-4.83-2.61-4.83a.56.56,0,0,0-.53.06.58.58,0,0,0-.33.49s1.9,5.78,2.41,6.68c.3.54,2.87,2.41,4.86,3.82a1.28,1.28,0,0,1,.51,1.19c-.27,2-.33,3.09-.64,6.48-.26,2.81-.35,8.26-.35,8.26a18.2,18.2,0,0,0,3.76.87,1.87,1.87,0,0,0,1.87-1.52S40.32,50.79,40.15,49.73Z"/><path class="cls-8" d="M39.71,42.23a1.34,1.34,0,0,0,.78.15c.29-.05.35-.39.35-.39a1.2,1.2,0,0,0-.52,0A2.39,2.39,0,0,0,39.71,42.23Z"/><path class="cls-12" d="M97.15,41.84a1.72,1.72,0,0,1-.81,2.46,4.25,4.25,0,0,0,1.79.3,1.09,1.09,0,0,1-.2.16,4,4,0,0,0,1.86.18c.62-.21,2-6.24-1.72-6.55a2.57,2.57,0,0,0-3.51,2.19c-.61,3.23-1.72,2.92-1.72,2.92a1.67,1.67,0,0,0,.42.27s.24,0,.31-.11a.71.71,0,0,1-.16.2,3.54,3.54,0,0,0,1.89.19A3.48,3.48,0,0,0,97.15,41.84Z"/><path class="cls-2" d="M93.46,89.4h4.69A2.57,2.57,0,0,0,98,88.14c-.23-.52-.6-.84-.63-1.23a1.42,1.42,0,0,1-1.34.41,5.41,5.41,0,0,1-.81,1.05C94.92,88.59,93.56,88.51,93.46,89.4Z"/><path class="cls-14" d="M97.33,87.61a4.38,4.38,0,0,1-.81.17c-.74.06-.85-.16-.85-.16s-.73-6.52-3.11-19a36.29,36.29,0,0,1-.6-4.4c0-.48-.07-1-.11-1.64-.11-1.68.15-4.52,1.41-5.26.57-.34,1.35-.24,2.41.58l.25.21C99,60.77,97.73,68.41,97.86,72a4.93,4.93,0,0,0,.2,1.41A7.88,7.88,0,0,1,98.64,75C99.28,79.66,97.33,87.61,97.33,87.61Z"/><path class="cls-2" d="M97.86,72,92,64.22c0-.48-.07-1-.11-1.64-.11-1.68.15-4.52,1.41-5.26l2.41.58.25.21C99,60.77,97.73,68.41,97.86,72Z"/><path class="cls-2" d="M114.52,79.54l-1.94-4.26a2.65,2.65,0,0,0-1.09.64c-.38.43-.65.36-1.5-.24a4.77,4.77,0,0,1,.56,1.45,8.72,8.72,0,0,0,2,1.12C112.88,78.34,113.68,79.82,114.52,79.54Z"/><path class="cls-14" d="M94.08,59.19s4.2,14.59,5.74,15.53,9.62,2.24,11.27,2.94a1.24,1.24,0,0,0,.08-.9,5.89,5.89,0,0,0-.26-.63s-5-3.77-8.33-4.15c-.82-.1,1.67-12.63-3.87-13.13C93.65,58.4,94.08,59.19,94.08,59.19Z"/><path class="cls-5" d="M88.09,35.25s.12-.57.24-1a3,3,0,0,0-.6-1.59c-.28-.15-1,.69-.78,1.33.1.34.27,1.42.27,1.42Z"/><path class="cls-5" d="M88.09,35.25s.15-.33.28-.38.28-.59.38-.8c0,0-.1-.14-.26,0s-.33.43-.33.43Z"/><path class="cls-5" d="M107.43,37.14c0,.06.07.17.11.27v-.08a3.11,3.11,0,0,1,1-1.35c.31-.07.74.94.36,1.5-.2.29-.67,1.27-.67,1.27l-.79-.41s0-.35-.16-.44-.09-.64-.12-.87C107.2,37,107.33,36.92,107.43,37.14Z"/><path class="cls-5" d="M94.92,45.71a2.65,2.65,0,0,0,1.57.53,2.06,2.06,0,0,0,1.22-.87c-.26-.09-.29-.49,0-2.12h-.13l-2.17.11s-.05.67-.14,1.29S95.05,45.67,94.92,45.71Z"/><path class="cls-13" d="M95.37,43.36s-.05.67-.14,1.29a2.5,2.5,0,0,0,2.31-1.4Z"/><path class="cls-12" d="M97.79,43.06a6.25,6.25,0,0,0,1-1.7,2.15,2.15,0,0,0-2-2.84,3,3,0,0,0-1.32.28c-.53.26-1.33.85-.84,2.9l.11.68Z"/><path class="cls-5" d="M92.2,58.63a7.73,7.73,0,0,0,5.67.48l2-.33c0-.13-2.13-3.56-2.18-3.68-.62-1.62.83-9.37-.13-9.8a2.15,2.15,0,0,1-1.54.4c-.69-.07-.92-.36-.87-.68-.76.36-1.35.69-1.35.69C93.12,46.76,92.2,58.63,92.2,58.63Z"/><path class="cls-5" d="M94.89,43.89s2.78.46,3-1.27.8-2.85-1-3.22-2.21.24-2.43.8S94.18,43.73,94.89,43.89Z"/><path class="cls-12" d="M95.7,39.17s.46,2.15,1.59,2.63A2.33,2.33,0,0,0,99,42a3.33,3.33,0,0,1-.79-2.12S96.42,38.28,95.7,39.17Z"/><path class="cls-12" d="M95.87,39.36a2.54,2.54,0,0,0-.85.79c-.2.43-.4,1.33-.66,1.26,0,0-.37-1.47.39-2.16S95.87,39.36,95.87,39.36Z"/><path class="cls-7" d="M108.09,38.75s-1.8,5.46-2.28,6.3c-.28.51-3.52,2.52-5.39,3.85a.19.19,0,0,0-.07.08h0c-.46.72-1.92,5.2-1.57,6,1.46,3.39,2.46,4.69,2.83,5.64a.9.9,0,0,1-.54,1.17,14.91,14.91,0,0,1-2.53.67l-.62.09a10.06,10.06,0,0,1-5.82-.81,1.32,1.32,0,0,1-.72-1.26c.06-1.06.59-2.12.83-4.7.18-1.95-1.5-4.92-1.43-6a3.43,3.43,0,0,1,.53-1.22h0c.31-.56.48-1.07.27-1.35-1.37-1.89-4.33-4.48-4.45-5.13-.18-1-.1-6.84-.1-6.84a1.72,1.72,0,0,1,.5-.16,1.76,1.76,0,0,1,.43,0s.79,4.88.85,5.14,3.36,4,4.25,4a4.81,4.81,0,0,1,2.12.73,8.57,8.57,0,0,0-.9,3c-.13,1.21.68.67,1.19-.16a27.69,27.69,0,0,1,2.07-2.72,4,4,0,0,1,2,0c.83.31,5.17-2.14,5.31-2.37s2.47-4.56,2.47-4.56a.54.54,0,0,1,.5.05A.59.59,0,0,1,108.09,38.75Z"/><path class="cls-8" d="M95.7,43s-.12.24-.28.24a1.74,1.74,0,0,1-.59-.07,2.08,2.08,0,0,1-.1-.3A2.78,2.78,0,0,1,95.7,43Z"/><path class="cls-6" d="M101.06,61.8a14.91,14.91,0,0,1-2.53.67c-1-1.38-2.68-3.1-2.25-6.27S100,49.46,100.34,49c-.46.72-1.92,5.2-1.57,6,1.46,3.39,2.46,4.69,2.83,5.64A.9.9,0,0,1,101.06,61.8Z"/><path class="cls-6" d="M91.3,48.61c.31-.56.48-1.07.27-1.35-1.37-1.89-4.33-4.48-4.45-5.13.29.7,3.88,2.81,4.89,3.71S91.34,48.57,91.3,48.61Z"/><path class="cls-15" d="M31.07,22.64a3.33,3.33,0,0,1,.6,2,3.06,3.06,0,0,1-.79,1.6l1.1.58a4.46,4.46,0,0,0,.54-2.65,3.29,3.29,0,0,0-.76-1.23A1.08,1.08,0,0,0,31.07,22.64Z"/><path class="cls-16" d="M28.83,22.74l-.69-1.53s3.24.11,4.31,2.75C32.45,24,30.18,22.34,28.83,22.74Z"/><path class="cls-15" d="M16.58,61.82a2.91,2.91,0,0,1-1-1.46,2.61,2.61,0,0,1,.25-1.5l-1-.2A3.76,3.76,0,0,0,15,61a2.55,2.55,0,0,0,.92.8A.91.91,0,0,0,16.58,61.82Z"/><path class="cls-16" d="M18.38,61.18l.94,1.08s-2.66.71-4.18-1.17C15.14,61.09,17.38,61.84,18.38,61.18Z"/><path class="cls-17" d="M135.1,66.83s-.07-1,1.83-1.5c.85-.22,2.75.17,1.55,2s-2.37,1.24-2.37,1.24,2.61-2,1.57-3-1.6,1-1.6,1A2.47,2.47,0,0,0,135.1,66.83Z"/><path class="cls-18" d="M135.77,68.73a1,1,0,0,1-.43-1.24l1,.17s-.4.93.56,1C136.93,68.7,136,68.92,135.77,68.73Z"/><path class="cls-19" d="M69.1,14.41A1.9,1.9,0,0,1,71.79,14l1-1s-.93-.7-3.06.56C68.32,14.4,69.1,14.41,69.1,14.41Z"/><path class="cls-20" d="M68.05,15.91s-.21-1.76,2.73-2.85a3.06,3.06,0,0,0-1.39,2.26Z"/><path class="cls-7" d="M79.86,6.59s.87-.55,1-1.21c0,0,.85,0,1,.32,0,0-.39,1.1-.85,1.31C81,7,80,7.07,79.86,6.59Z"/><path class="cls-7" d="M51.9,69.19s-.92-.58-1-1.29c0,0-.9,0-1.1.34,0,0,.42,1.17.9,1.39C50.68,69.63,51.78,69.71,51.9,69.19Z"/><path class="cls-16" d="M89.94,23.88s.93-.59,1-1.3c0,0,.91.05,1.1.34,0,0-.41,1.18-.9,1.4C91.17,24.32,90.07,24.39,89.94,23.88Z"/><path class="cls-5" d="M108.06,50.83s-.54-.65-.83-.74-.85-.53-.92-.35.38.45.35.66-1.43.53-1.42.75a.83.83,0,0,0,.87.67,9.79,9.79,0,0,1,2.17-.24C108.56,51.72,108.06,50.83,108.06,50.83Z"/><path class="cls-4" d="M122.55,47.65a11.43,11.43,0,0,1-2.68,2.58,14.72,14.72,0,0,1-6.32,2.42c-.79-.25-3.21-.51-4.64-.75h0a2.88,2.88,0,0,1-1.09-.27l0-1.25s5.26-.28,6.13-.68a19.7,19.7,0,0,0,3.37-3.92,5.11,5.11,0,0,1,2.65-2.2C121.78,43,125,44.35,122.55,47.65Z"/><path class="cls-11" d="M120.14,49.44l-.27.79a14.72,14.72,0,0,1-6.32,2.42c-.63,0-3.21-.51-4.64-.75,0,0,3.9.31,4.74.22s4.84-3.54,4.84-3.54Z"/><path class="cls-2" d="M116.71,89h5.81c.42-.28-.11-3-.11-3s-1.59-.6-1.86.62-2,1.61-2.94,1.76A1,1,0,0,0,116.71,89Z"/><path class="cls-2" d="M125.32,89h5.81c.42-.28-.11-3-.11-3s-1.59-.6-1.86.62-2,1.61-2.94,1.76A1,1,0,0,0,125.32,89Z"/><path class="cls-14" d="M118.27,60.82s.27,3.25.57,7.17c.42,5.32,1.54,18.5,1.54,18.5a2.84,2.84,0,0,0,2.37.29A51.85,51.85,0,0,0,124.56,77l0-.26c.39-5.29,1-16.41,1-16.41Z"/><path class="cls-2" d="M118.19,59.69s.35,4.38.65,8.3L124.56,77l0-.26c.39-5.29,1-16.41,1-16.41Z"/><path class="cls-14" d="M119.85,59.69S124,70,125.32,73.93c1,2.79,3.61,12.56,3.61,12.56a2.68,2.68,0,0,0,2.13-.33s1-10-1-12.8c-1.06-1.5-.26-15.54-4.57-15.66S119.85,59.69,119.85,59.69Z"/><path class="cls-5" d="M121.7,44.48a2.65,2.65,0,0,0,1.79.24,3.9,3.9,0,0,0,1.21-.51,3.69,3.69,0,0,0,.49-.37l-.06-.09a5.3,5.3,0,0,1-.5-3.32s-.18,0-.46.07c-.82.2-2.47.67-2.55.69h0s0,.39-.09,1.08a1.5,1.5,0,0,1,0,.2,2.29,2.29,0,0,1,0,.25A5.77,5.77,0,0,0,121.7,44.48Z"/><path class="cls-13" d="M121.53,42.27c1.23.29,3.06-1.53,3.06-1.53a1.76,1.76,0,0,0-.42-.24c-.82.2-2.47.67-2.55.69h0S121.6,41.58,121.53,42.27Z"/><path class="cls-5" d="M121.12,41.09a6.36,6.36,0,0,0,1.14.27c.95.12,2.18,0,2.57-1.09.66-1.92,1.5-3.07-.43-3.85a3.05,3.05,0,0,0-2.14-.28,1.57,1.57,0,0,0-.8.69C121.09,37.41,120.34,40.75,121.12,41.09Z"/><path class="cls-21" d="M120,37c1.11.8,2.66,0,3.14.22s.56,1,.57,1.28,0,.47.69.31a.35.35,0,0,1,.24,0c.27.16-.07.94-.18,1.1,0,0-.15.56.18.83,0,0,.7.32,2.27-2.09a2.21,2.21,0,0,0,.1-2c-.38-.82-2-1.61-3.33-2a1.84,1.84,0,0,0-1.17,0,2.18,2.18,0,0,0-1,1.11A4.26,4.26,0,0,1,120,37Z"/><path class="cls-4" d="M127.13,60.41s-.54.12-1.22.24a13,13,0,0,1-2,.21,18.34,18.34,0,0,1-5.35-.88c-.54,0-.79-.84-.88-2a24.14,24.14,0,0,1,0-2.7c0-.31,0-.62,0-.92,0-.6.09-1.17.13-1.68s.07-.89.09-1.22c0,0-.08-2.26,0-4.26a5.46,5.46,0,0,1,1-2.94,6,6,0,0,1,2.61-1.06h0c1.39.78,3.26-.27,3.26-.27l.12,0a7.07,7.07,0,0,1,1.87.36c.81.44,1.28,5.32,1.28,5.32.13,3.32,0,8.63.22,10.66C128.36,59.92,127.71,60.28,127.13,60.41Z"/><path class="cls-11" d="M124.89,42.92s-2.07,2.13-3.55,1.69c0,0-.19-.29.47-.38A5.13,5.13,0,0,0,124.89,42.92Z"/><path class="cls-8" d="M121.1,39.85s0,.25.54.45c0,0,.48.16.57-.09A1.62,1.62,0,0,0,121.1,39.85Z"/><path class="cls-11" d="M126,51s-3,5-4.71,5.91A13,13,0,0,1,117.63,58a24.14,24.14,0,0,1,0-2.7l3.08-.39Z"/><path class="cls-11" d="M122.07,48.46l-1.6,5.79s-1.89.11-2.8.08c0-.6,0-.62.08-1.12C117.75,53.21,119.92,52.08,122.07,48.46Z"/><path class="cls-5" d="M112.42,54.67s-.53-.65-.82-.74-.85-.53-.93-.35.38.46.36.66-1.43.53-1.42.75a.83.83,0,0,0,.86.68,9.44,9.44,0,0,1,2.18-.25C112.93,55.56,112.42,54.67,112.42,54.67Z"/><path class="cls-4" d="M128.21,46.65s.1,3.06-6.88,9.21l-1.4-2.51c-.26-.15,4.51-10.41,5.88-10.32C128.46,43.18,128.21,46.65,128.21,46.65Z"/><path class="cls-4" d="M120.76,53.05s-7.94.91-8.23,1.06a1.47,1.47,0,0,0-.71,1.55s4.11.51,6.37.5a15.11,15.11,0,0,0,3.21-.32Z"/><rect class="cls-22" y="88.94" width="149.49" height="0.46" rx="0.23"/></g></g></svg>