<svg xmlns="http://www.w3.org/2000/svg" viewBox="0 0 157.8 91.96"><defs><style>.cls-1{fill:#eaf3fb;}.cls-2,.cls-3,.cls-4{fill:#83afdd;}.cls-2{opacity:0.2;}.cls-3{opacity:0.4;}.cls-5{fill:#accbeb;}.cls-6{fill:#b8dba1;}.cls-11,.cls-7{fill:#f7fcfe;}.cls-7{opacity:0.8;}.cls-8{fill:#d4e382;}.cls-9{fill:#ac6d44;}.cls-10{fill:#e0a782;}.cls-12{fill:#2a9e61;}.cls-13{fill:#72b571;}.cls-14{fill:#fff;}.cls-15{fill:#f79134;}.cls-16{fill:#ba5727;}.cls-17{fill:#1a3763;}.cls-18{fill:#19488d;}.cls-19{fill:#f47621;}.cls-20{fill:#faab77;}.cls-21{fill:#f89e63;}.cls-22{fill:#1b58a1;}.cls-23{fill:#f4c49e;}.cls-24{fill:#fedcbb;}</style></defs><g id="Layer_2" data-name="Layer 2"><g id="Layer_1-2" data-name="Layer 1"><path class="cls-1" d="M157.42,82.47A11.23,11.23,0,0,1,146.31,92H114.44l-27.93,0H17.72A11.61,11.61,0,0,1,7.49,85.77c-.87-1.61-1.8-3.5-2.7-5.61A62.94,62.94,0,0,1,1.08,68.52,48.17,48.17,0,0,1,0,57.64c0-.67,0-1.36.09-2s.09-1.19.16-1.79A40.48,40.48,0,0,1,1.36,48a38.45,38.45,0,0,1,2.7-7.08,41,41,0,0,1,5.51-8.27,49.19,49.19,0,0,1,4.16-4.32C41.28,3,68,13.65,71.82,13.65c18.4,0,14-11.62,34.33-13.4,43.11-3.76,36.7,36,36.7,36s-.64,2.18-.84,3c-.26,1.1-.47,2.13-.61,3.11,0,.08,0,.15,0,.23,0,.28-.07.56-.1.83a22,22,0,0,0,0,5.26A15.91,15.91,0,0,0,144,55.86a26.77,26.77,0,0,0,3.12,3.67l1,1,1.27,1.21c.57.54,1.14,1.08,1.7,1.63l.35.36c.21.2.41.41.61.62A27.53,27.53,0,0,1,154.35,67c.16.21.31.43.45.64s.34.52.5.79a16.83,16.83,0,0,1,1.35,2.76A21.57,21.57,0,0,1,157.42,82.47Z"/><path class="cls-2" d="M79.94,67.93,68.41,74.79,20.94,67.66,0,57.64c0-.67,0-1.36.09-2s.09-1.19.16-1.79A40.48,40.48,0,0,1,1.36,48a38.45,38.45,0,0,1,2.7-7.08s14.1-5.85,16.88-4.1S31.65,49.28,35.22,48.75s6.21-5.24,11,1.55S53.6,59.5,58,56.91s6.61-6.3,10.32-4.06S79.94,67.93,79.94,67.93Z"/><path class="cls-3" d="M147.15,59.53c-10.47,3.52-43.72,14.53-51.56,15.2-9.34.79-10.65-6.93-10.65-6.93S95.38,52.72,96.7,53s4.93,6.18,6.32,5.19,7.2-21.15,9.42-21.37,5.13,4.59,6,3.8c.48-.44,2.65-5,4.88-8.9,1.78-3.14,3.61-5.9,4.66-5.9s2.48,2.28,4,5.16h0c2.54,4.87,5.31,11.46,6.84,11.82a4.47,4.47,0,0,0,2.59-.49c0,.08,0,.15,0,.23,0,.28-.07.56-.1.83a22,22,0,0,0,0,5.26A15.91,15.91,0,0,0,144,55.86,26.77,26.77,0,0,0,147.15,59.53Z"/><path class="cls-3" d="M95.59,68.08s3.76-6.82,4.36-5.73,2.28,1.63,3.07.47,10.44-11.61,10.67-9-3.73,9.05-2.14,9.34,10.31-8.43,13.39-6.64,6.54-1.49,9.82-1.39,3.17,7.64,3.17,7.64l-26.48,8.12L99,71.47,93,70.78Z"/><path class="cls-4" d="M149.38,61.7s-43,9-47.52,8.72c0,0,3.18-3.15,7.14-3.29s5.69-3.87,10.32-4.31,7.4.55,9.32-.45,4.1-5.81,8.59-5.68c3.86.11,5.33,0,6.8-.83a31,31,0,0,0,4.08,4.63Z"/><path class="cls-5" d="M63.49,66.42.1,55.6h0c0-.6.09-1.19.16-1.79A40.48,40.48,0,0,1,1.36,48s6.76-1.36,10,0,3,3.55,5.55,3.85,4.91,0,6.85,1.59a11.89,11.89,0,0,0,7.81,2.47c3-.18,9.25-.89,11.72,1.1s7.36,6.3,11.59,6.23,6.58,1.06,7.27,2.05A2.76,2.76,0,0,0,63.49,66.42Z"/><path class="cls-6" d="M157.78,78.94a29,29,0,0,1-.36,3.53A11.23,11.23,0,0,1,146.31,92H114.44l-27.93,0H17.72A11.61,11.61,0,0,1,7.49,85.77,66,66,0,0,1,1.08,68.52c-.3-1.41-.54-2.86-.73-4.34A45.5,45.5,0,0,1,0,56.67c0-1,.11-1.9.22-2.86a138.67,138.67,0,0,1,42.35,6.64c25.07,8,48.2,13.09,65.06,8.92,14-3.46,31.44-7.75,41.71-7.67.57.54,1.14,1.08,1.7,1.63l.35.36c.21.2.41.41.61.62A27.53,27.53,0,0,1,154.35,67c.16.21.31.43.45.64s.34.52.5.79a16.83,16.83,0,0,1,1.35,2.76A19.3,19.3,0,0,1,157.78,78.94Z"/><path class="cls-7" d="M75,28.25a6.83,6.83,0,0,1,6.57-3.17s6.73-5.95,13.9-.79c0,0,7.62-1.28,13.27,1.1,3.76,1.59,5,3.26,5,3.26Z"/><path class="cls-7" d="M49.13,36.54a6.07,6.07,0,0,1,5.56-2.23s5.7-4.19,11.77-.56c0,0,6.46-.9,11.24.78a10.75,10.75,0,0,1,4.24,2.28Z"/><path class="cls-7" d="M28.77,25.14a4.05,4.05,0,0,1,4-2.23s4.06-4.19,8.39-.56c0,0,4.6-.9,8,.78a7.61,7.61,0,0,1,3,2.29Z"/><path class="cls-8" d="M68,69.23s-24.61-2.8-34.57-6.41-10.68-2.56-8.27-.64,16.32,6.44,10.55,6.95-16.13-1-20,3-10,7.6,0,8.38S55,75.77,55,75.77Z"/><path class="cls-9" d="M95.12,64.89s3.57,8.59,4,8.86,1.86.6,2,1,2.38,5.65,2.38,5.65l-8.73,1.69L87.75,78Z"/><path class="cls-10" d="M146.31,92H114.44l-27.93,0H17.72a11.52,11.52,0,0,1-4.84-1.06c7.12-3.31,28.8-13.24,46-19.34,20.89-7.41,32.79-11.37,36.23-6.61S86,79.7,92.87,80s23.4-1.85,29.62-.66,5.56,3.56,7.26,3.7h0c1.72.13,14.94-.79,16.53,1.59S146.31,92,146.31,92Z"/><path class="cls-7" d="M132,31h0s-2.3-1.78-2.83-2.32-1.19.76-1.58,1.31-.44-1.17-.44-1.7-3.8,3.45-3.8,3.45h0c1.78-3.14,3.61-5.9,4.66-5.9S130.46,28.09,132,31Z"/><path class="cls-11" d="M109,43s2.7-7.17,4.12-6.95,3.33,3.47,3.33,3.47-2-1.68-2.32-1.11-.43,1.67-1.06,1.11-1-.63-1.35,0S109,43,109,43Z"/><path class="cls-12" d="M39.38,84.06c-1.71,2.11-12.29,2.78-12,4.3.26,1.22,5.15,2.09,5.46,3.55H17.72A11.61,11.61,0,0,1,7.49,85.77c-.87-1.61-1.8-3.5-2.7-5.61,0,0,4.51-4.55,15.62-2.77S33.06,74.56,38.26,76s6.55.22,8.46,1.4-7.27,3.17-8.26,4.09S41.1,81.94,39.38,84.06Z"/><path class="cls-12" d="M10.58,77.86s-2.27-5.43-.12-6.62-.24,4.67.67,6.84C11.59,79.15,10.58,77.86,10.58,77.86Z"/><path class="cls-12" d="M9.53,79.19S6.74,75.76,8,74.42s.81,3.44,1.94,4.81C10.54,79.9,9.53,79.19,9.53,79.19Z"/><path class="cls-12" d="M11.59,78.88s-.26-5.39,2-5.76-1.68,4-1.56,6.12C12.06,80.3,11.59,78.88,11.59,78.88Z"/><path class="cls-13" d="M19.44,84.32s-.31-3.25.87-3.53-.26,3.39-.26,3.39Z"/><path class="cls-13" d="M20.32,84.4s1.26-2.56,2.4-2.2-1.81,2.39-1.81,2.39Z"/><path class="cls-13" d="M17.88,84.5A4.36,4.36,0,0,1,20.26,84,6.08,6.08,0,0,1,22,84.5c.48.18,1.08.53.81.68s-2.46-.13-3,0S16.54,85,17.88,84.5Z"/><path class="cls-13" d="M42.93,88.91s1.48-6.91,3.55-5.29S44.14,86.84,42.93,88.91Z"/><path class="cls-13" d="M42.32,89.29s-.68-5,.69-5.26S42.34,87.77,42.32,89.29Z"/><path class="cls-13" d="M40.92,88.89a5.31,5.31,0,0,1,2-.52c.86.06,3.18.33,3,.79s-2.54.06-3.12.14S40.29,89.33,40.92,88.89Z"/><path class="cls-12" d="M120.94,84s0-2.38,1.06-2.8S121.06,83.4,120.94,84Z"/><path class="cls-12" d="M121.83,83.68s.84-3,2.39-3.12S122.2,83,121.83,83.68Z"/><path class="cls-12" d="M18.7,73.38a4.36,4.36,0,0,0,2.07-.09,4.41,4.41,0,0,0-1.42-1.51.86.86,0,1,0-.65,1.6Z"/><path class="cls-12" d="M22.69,74.14a4.39,4.39,0,0,0-.24,2.07A4.51,4.51,0,0,0,24.17,75a.87.87,0,0,0-1.48-.9Z"/><path class="cls-12" d="M20.56,77.25A4.5,4.5,0,0,0,22.62,77a4.37,4.37,0,0,0-1.54-1.4.85.85,0,0,0-1.08.56A.86.86,0,0,0,20.56,77.25Z"/><path class="cls-12" d="M22.86,78.78s-.17-3.63-2.14-5.48l0,0c2,1.87,2.16,5.48,2.16,5.52Z"/><path class="cls-12" d="M35.43,70.43a4.78,4.78,0,0,1-2.22.35,4.9,4.9,0,0,1,1.19-1.91.92.92,0,0,1,1.29.26A.94.94,0,0,1,35.43,70.43Z"/><path class="cls-12" d="M31.37,72.09a4.8,4.8,0,0,1,.7,2.14A4.87,4.87,0,0,1,30,73.36a.94.94,0,0,1,1.38-1.27Z"/><path class="cls-12" d="M34.3,74.92a4.82,4.82,0,0,1-2.24.18,4.75,4.75,0,0,1,1.32-1.82.94.94,0,0,1,.92,1.64Z"/><path class="cls-12" d="M32.18,77s-.59-3.88,1.09-6.26l-.05,0c-1.7,2.41-1.11,6.27-1.1,6.31Z"/><path class="cls-12" d="M26.93,79.09l-.13,0A38.59,38.59,0,0,0,24.31,68l.12,0A38.83,38.83,0,0,1,26.93,79.09Z"/><path class="cls-14" d="M23,67.32a3.41,3.41,0,0,0,1.46.64A3.44,3.44,0,0,0,24,66.44a.66.66,0,0,0-.93-.06A.67.67,0,0,0,23,67.32Z"/><path class="cls-14" d="M24.72,66.36a3.28,3.28,0,0,0-.33,1.56,3.39,3.39,0,0,0,1.39-.77.65.65,0,0,0-.13-.92A.67.67,0,0,0,24.72,66.36Z"/><path class="cls-14" d="M26,67.64a3.37,3.37,0,0,0-1.57.26,3.53,3.53,0,0,0,1.22,1,.68.68,0,0,0,.82-.47A.66.66,0,0,0,26,67.64Z"/><path class="cls-14" d="M25.22,69.23a3.48,3.48,0,0,0-.8-1.38,3.52,3.52,0,0,0-.52,1.51.66.66,0,0,0,1.32-.13Z"/><path class="cls-14" d="M23.41,69.15a3.37,3.37,0,0,0,1-1.26A3.45,3.45,0,0,0,22.8,68a.66.66,0,0,0-.28.89A.65.65,0,0,0,23.41,69.15Z"/><path class="cls-15" d="M24.17,67.86a.22.22,0,0,1,.25-.18.21.21,0,0,1,.18.25.22.22,0,0,1-.25.18A.22.22,0,0,1,24.17,67.86Z"/><path class="cls-12" d="M26.89,72.52a5.24,5.24,0,0,0-.62,2.4,5.34,5.34,0,0,0,2.22-1.1,1,1,0,0,0-1.6-1.3Z"/><path class="cls-12" d="M38.47,79.51l.13,0a38.35,38.35,0,0,1,2.49-11.1l-.12,0A39,39,0,0,0,38.47,79.51Z"/><path class="cls-14" d="M42.42,67.74a3.48,3.48,0,0,1-1.45.65,3.31,3.31,0,0,1,.46-1.53.66.66,0,0,1,1,.88Z"/><path class="cls-14" d="M40.68,66.78A3.49,3.49,0,0,1,41,68.34a3.43,3.43,0,0,1-1.4-.76.66.66,0,0,1,1.06-.8Z"/><path class="cls-14" d="M39.38,68.06a3.37,3.37,0,0,1,1.57.26,3.44,3.44,0,0,1-1.22,1,.66.66,0,1,1-.35-1.28Z"/><path class="cls-14" d="M40.18,69.65a3.5,3.5,0,0,1,.8-1.37,3.23,3.23,0,0,1,.52,1.5.66.66,0,0,1-1.32-.13Z"/><path class="cls-14" d="M42,69.57a3.4,3.4,0,0,1-1-1.26,3.45,3.45,0,0,1,1.59.09A.66.66,0,1,1,42,69.57Z"/><path class="cls-15" d="M41.23,68.28a.22.22,0,1,0-.18.25A.22.22,0,0,0,41.23,68.28Z"/><path class="cls-12" d="M38.51,72.94a5.24,5.24,0,0,1,.62,2.4,5.39,5.39,0,0,1-2.22-1.1,1,1,0,0,1,1.6-1.3Z"/><path class="cls-12" d="M110.75,77.54a5.94,5.94,0,0,0,2.76,0,5.93,5.93,0,0,0-1.83-2.07,1.16,1.16,0,0,0-1.52.59A1.15,1.15,0,0,0,110.75,77.54Z"/><path class="cls-12" d="M116,78.71a5.87,5.87,0,0,0-.41,2.73A5.77,5.77,0,0,0,117.94,80,1.15,1.15,0,1,0,116,78.71Z"/><path class="cls-12" d="M113.06,82.74a5.92,5.92,0,0,0,2.75-.25,6,6,0,0,0-2-1.92,1.15,1.15,0,1,0-.77,2.17Z"/><path class="cls-12" d="M116.06,84.87c0-.05-.09-4.82-2.62-7.36l.06-.05c2.55,2.56,2.64,7.36,2.64,7.41Z"/><path class="cls-12" d="M120,85l-.11,0a33.11,33.11,0,0,0-2.18-9.71l.1,0A33.46,33.46,0,0,1,120,85Z"/><path class="cls-14" d="M116.51,74.71a2.82,2.82,0,0,0,1.27.56,3,3,0,0,0-.4-1.33.58.58,0,0,0-.87.77Z"/><path class="cls-14" d="M118,73.87a2.91,2.91,0,0,0-.29,1.36,3,3,0,0,0,1.22-.66.58.58,0,1,0-.93-.7Z"/><path class="cls-14" d="M119.17,75a3,3,0,0,0-1.37.23,3.06,3.06,0,0,0,1.07.89.59.59,0,0,0,.71-.41A.58.58,0,0,0,119.17,75Z"/><path class="cls-14" d="M118.47,76.38a2.94,2.94,0,0,0-.7-1.2,3,3,0,0,0-.46,1.31.58.58,0,0,0,1.16-.11Z"/><path class="cls-14" d="M116.89,76.31a3,3,0,0,0,.85-1.1,3,3,0,0,0-1.39.08.58.58,0,1,0,.54,1Z"/><path class="cls-15" d="M117.55,75.18a.19.19,0,0,1,.38.06.19.19,0,0,1-.22.16A.19.19,0,0,1,117.55,75.18Z"/><path class="cls-12" d="M119.93,79.26a4.44,4.44,0,0,0-.54,2.1,4.56,4.56,0,0,0,1.94-1,.9.9,0,0,0-1.4-1.14Z"/><path class="cls-12" d="M146.31,92H120c.13-1.25,2.52-1.89,2.3-3.13-.29-1.58-12-2.18-7.31-4.2S129.4,83,129.75,83h0c1.72.13,14.94-.79,16.53,1.59S146.31,92,146.31,92Z"/><path class="cls-16" d="M68.25,77.54s.16,2.53.65,2.56c.07,0,2.48,0,2.48,0l3.08,0a1,1,0,0,0-.92-.9,4.16,4.16,0,0,1-3-2C70,76,68.25,77.54,68.25,77.54Z"/><path class="cls-16" d="M83.92,75.41s.47,2.48,1,2.46l2.46-.31,3-.4a1,1,0,0,0-1-.78,4.16,4.16,0,0,1-3.18-1.59C85.47,73.62,83.92,75.41,83.92,75.41Z"/><path class="cls-17" d="M78.46,50.39a100.44,100.44,0,0,1-3.78,14.3c-3,9.15-3.38,13.11-3.38,13.11l-3.23-.08s0-10,1.33-14.59.26-16.58.26-16.58Z"/><path class="cls-18" d="M79.34,45.72s4.38,8.86,5.5,15.87,2,13.43,2,13.43a12.75,12.75,0,0,1-3.09.57S80.32,65.41,80,62.87,69.4,50.2,70.2,47.7,79.34,45.72,79.34,45.72Z"/><path class="cls-19" d="M73,28.62S68.45,33,68.23,34.76s2.2,4.59,2.2,4.59Z"/><path class="cls-20" d="M73.76,28.66l1.71,1.12L78,29.32c0-.2-.2-1-.35-1.78l0-.13-.24-1.19L75,25.2l-.87-.38s.07.71.08.81A5.85,5.85,0,0,1,73.76,28.66Z"/><path class="cls-19" d="M77.31,28.09a21.4,21.4,0,0,0-3.3-.78c-.32.11-.51.73-.51.73l4.8,1.07A2.36,2.36,0,0,0,77.31,28.09Z"/><path class="cls-15" d="M69.45,47.79c.5,2.27,8.78,2.52,10.91.46.24-.24.25-1.33.16-2.8-.19-2.88-.77-7.21-.8-9.42a17.07,17.07,0,0,0-.36-3.15,25.52,25.52,0,0,0-1.06-3.77s-4-1.3-4.8-1.07C69.86,29.12,69,45.53,69.45,47.79Z"/><path class="cls-19" d="M80.52,45.45c-.19-2.88-.29-7.63-.31-9.84,0-1.07-.65-1.74-.85-2.73l-2.43-.42S74.57,42.18,80.52,45.45Z"/><path class="cls-17" d="M76.15,42a29.13,29.13,0,0,0,3.79-3.93l.78.53s-2.17,3.64-4.25,4.59S76.15,42,76.15,42Z"/><path class="cls-21" d="M74.4,25.67c.51.86,2.41,1.6,3.2,1.87l0-.13-.24-1.19L75,25.2C74.5,25.2,74.19,25.31,74.4,25.67Z"/><path class="cls-20" d="M78.12,26s-3.52,1.7-4.54-.51-2.17-3.47,0-4.65,3-.53,3.55.12S79,25.47,78.12,26Z"/><path class="cls-17" d="M77,20.73s.16,2.72-.41,2.68-1.09,0-.89.75,1.11,1.62-.58,2-4.8-3.65-4.46-4.56C71.65,19,78.51,17.5,77,20.73Z"/><path class="cls-17" d="M71.33,38.13a.54.54,0,0,0-.46.45c0,.4-.31,5.21-.07,5.34a3,3,0,0,0,1.3,0,49.94,49.94,0,0,0,.13-5.68A1.89,1.89,0,0,0,71.33,38.13Z"/><path class="cls-20" d="M80.54,43.63a2.18,2.18,0,0,1,.71.89c.19.76.07,1.47-.68,1.75-.27.11-.31-.54-.51-.82s-.93-.44-.76-.86l.49-1.26Z"/><path class="cls-20" d="M79.58,43.88a2.32,2.32,0,0,0-.51.83c0,.32-.06.82-.08,1s.1.39.3,0,.37-.81.5-.81S79.58,43.88,79.58,43.88Z"/><path class="cls-15" d="M76.4,28.54a8.66,8.66,0,0,1,5.1,3.77c2.23,3.26,3,5.35,2.64,6.52a36.86,36.86,0,0,1-2.84,5.33c-.35.42-1.36.39-2,.1,0,0,1.28-5.43.76-6-.22-.25-3.07-2.66-3.52-1.49C75.77,38.68,76.4,28.54,76.4,28.54Z"/><path class="cls-17" d="M78.86,29.65a2.24,2.24,0,0,0-1.59-1c-1.12-.17-1.8,1.13-1.8,1.13l.84.32s.54-1,1-1A2.39,2.39,0,0,1,78.86,29.65Z"/><path class="cls-17" d="M77.05,33.65l-2.66,0A44.53,44.53,0,0,1,68,33.23c-.15-.3,0-3.64.94-3.88l.33-.05a32.21,32.21,0,0,1,6.91.46C77.32,30.12,77.05,33.65,77.05,33.65Z"/><path class="cls-18" d="M74.39,33.6A44.53,44.53,0,0,1,68,33.23c-.15-.3,0-3.64.94-3.88l.33-.05a23.63,23.63,0,0,1,4.24.46C74.58,30.09,74.42,33.16,74.39,33.6Z"/><path class="cls-18" d="M77.05,33.65s-9-.9-10.56-.38S64.93,44.4,65.42,45.14s9.33,1.4,10.58,1S77.05,33.65,77.05,33.65Z"/><path class="cls-17" d="M74.39,33.41s-1.23.11-1.35,1S72.15,46,72.86,46.23a10.72,10.72,0,0,0,3.81,0c.17-.17.8-11.88.38-12.58A7.37,7.37,0,0,0,74.39,33.41Z"/><path class="cls-17" d="M68.81,30.5s-.29,1.48.08,1.71,1.27.29,1.5,0a5.08,5.08,0,0,0,.17-1.71Z"/><path class="cls-22" d="M68.81,30.5a.82.82,0,0,0,.83.61,1,1,0,0,0,.92-.58A2.28,2.28,0,0,0,68.81,30.5Z"/><path class="cls-15" d="M69.51,30.88a.13.13,0,0,1,.13-.13.13.13,0,0,1,.13.14.12.12,0,0,1-.13.12A.13.13,0,0,1,69.51,30.88Z"/><path class="cls-17" d="M71.46,30.68s-.38,1.46,0,1.71,1.25.37,1.49.12a5,5,0,0,0,.29-1.68Z"/><path class="cls-22" d="M71.46,30.68a.83.83,0,0,0,.79.67,1,1,0,0,0,1-.52A2.33,2.33,0,0,0,71.46,30.68Z"/><path class="cls-15" d="M72.13,31.11a.13.13,0,0,1,.15-.12.13.13,0,0,1,.12.14.14.14,0,0,1-.15.12A.14.14,0,0,1,72.13,31.11Z"/><path class="cls-17" d="M66.32,34.52s-.39,1.38-.17,1.74,5.16.6,5.48.31.36-1.88.36-1.88Z"/><path class="cls-22" d="M66.32,34.52a3.13,3.13,0,0,0,2.38.88A8.65,8.65,0,0,0,72,34.69S68,34,66.32,34.52Z"/><circle class="cls-15" cx="68.59" cy="35.08" r="0.15"/><path class="cls-22" d="M70.64,38.08a34.53,34.53,0,0,0-4.32,0,28.51,28.51,0,0,0-.14,6.07c.18.27,4.3.4,4.3.4Z"/><path class="cls-8" d="M157.78,78.94c-2.5-.12-6.26-.31-9.51-.52-5.42-.36-3-2-.53-4.41s-7.8-1.06-15.47-.53-19.17.27-15.07-3,33.88-7.1,33.88-7.1l.35.36c.21.2.41.41.61.62A27.53,27.53,0,0,1,154.35,67c.16.21.31.43.45.64s.34.52.5.79a16.83,16.83,0,0,1,1.35,2.76A19.3,19.3,0,0,1,157.78,78.94Z"/><path class="cls-13" d="M14.27,60.79c-2.52,0-6.59.13-5.35.92s2.3,2-1.93,2.12-6.58.34-6.64.35A45.5,45.5,0,0,1,0,56.67s3.92-1.12,6.3,0,4.09.22,5.94,1.41,5.75,1.32,6.54,2S16.79,60.79,14.27,60.79Z"/><path class="cls-23" d="M111.6,88l.19-3.16S110.2,83.5,110,83.41s-3.65-.61-3.65-.61l.15,3,1.07,2.15Z"/><path class="cls-24" d="M103.8,87.87a16.54,16.54,0,0,1-.1-2.54c.12-.25,2.27-2.6,2.62-2.53A14.37,14.37,0,0,1,109,83.88a8.81,8.81,0,0,1,1.13,2.68c0,.23-.08,1.39-.08,1.39Z"/><path class="cls-23" d="M106.3,88.72l0-1.36a.65.65,0,0,0-.26-.54A13.33,13.33,0,0,0,105,86c-.1,0-1.13-.16-1.89-.25a.66.66,0,0,0-.74.72l.11,1.23a.73.73,0,0,0,.08.25l.6,1.08a.62.62,0,0,0,.59.34l2,0A.67.67,0,0,0,106.3,88.72Z"/><path class="cls-24" d="M101.15,89.49a.66.66,0,0,1-.68-.58,6.83,6.83,0,0,1-.08-1.27,10.35,10.35,0,0,1,2.42-1.83,5.5,5.5,0,0,1,1.43.61,6.63,6.63,0,0,1,.92,1.93v.4a.67.67,0,0,1-.64.65Z"/><path class="cls-23" d="M51.68,80.56l0-1.14a.58.58,0,0,1,.22-.46c.31-.23.84-.62.94-.66s1-.14,1.6-.21a.56.56,0,0,1,.62.61l-.09,1a.57.57,0,0,1-.07.22l-.5.91a.54.54,0,0,1-.5.29l-1.65,0A.57.57,0,0,1,51.68,80.56Z"/><path class="cls-24" d="M56,81.22a.56.56,0,0,0,.57-.5,5.06,5.06,0,0,0,.06-1.07,8.66,8.66,0,0,0-2-1.55,4.86,4.86,0,0,0-1.21.52,5.76,5.76,0,0,0-.78,1.63v.34a.57.57,0,0,0,.55.55Z"/><path class="cls-23" d="M47,81.4v-.62a.3.3,0,0,1,.12-.25c.17-.12.45-.34.51-.36l.87-.11a.31.31,0,0,1,.34.33l0,.56a.56.56,0,0,1,0,.12l-.27.5a.29.29,0,0,1-.28.15l-.89,0A.29.29,0,0,1,47,81.4Z"/><path class="cls-24" d="M49.37,81.76a.31.31,0,0,0,.31-.27,2.11,2.11,0,0,0,0-.58,4.57,4.57,0,0,0-1.11-.84,2.67,2.67,0,0,0-.66.28,3.11,3.11,0,0,0-.42.89v.18a.31.31,0,0,0,.29.3Z"/><path class="cls-23" d="M93.49,83.43V82.8a.29.29,0,0,1,.12-.24,6.05,6.05,0,0,1,.51-.36s.52-.08.87-.12a.3.3,0,0,1,.34.33l0,.57a.21.21,0,0,1,0,.11l-.27.5a.3.3,0,0,1-.27.16l-.9,0A.32.32,0,0,1,93.49,83.43Z"/><path class="cls-24" d="M95.86,83.78a.3.3,0,0,0,.31-.27,2.85,2.85,0,0,0,0-.58,4.78,4.78,0,0,0-1.11-.84,2.67,2.67,0,0,0-.66.28,3.11,3.11,0,0,0-.42.89v.18a.31.31,0,0,0,.3.3Z"/><path class="cls-23" d="M34.49,90v-.63a.32.32,0,0,1,.12-.25,6.11,6.11,0,0,1,.51-.35s.52-.08.87-.12a.31.31,0,0,1,.34.33l0,.56a.34.34,0,0,1,0,.12l-.27.5a.32.32,0,0,1-.28.16l-.89,0A.29.29,0,0,1,34.49,90Z"/><path class="cls-24" d="M36.86,90.34a.3.3,0,0,0,.31-.27,2.11,2.11,0,0,0,0-.58,4.39,4.39,0,0,0-1.11-.84,2.67,2.67,0,0,0-.66.28,3.11,3.11,0,0,0-.42.89V90a.31.31,0,0,0,.29.3Z"/><path class="cls-23" d="M48.84,79.59v-.44a.21.21,0,0,1,.08-.17,3.08,3.08,0,0,1,.36-.25l.6-.08a.21.21,0,0,1,.24.23l0,.39a.29.29,0,0,1,0,.09l-.19.34a.21.21,0,0,1-.19.11l-.63,0A.2.2,0,0,1,48.84,79.59Z"/><path class="cls-24" d="M50.49,79.83a.19.19,0,0,0,.21-.18,2.53,2.53,0,0,0,0-.41,3.17,3.17,0,0,0-.78-.58,2,2,0,0,0-.46.19,2.3,2.3,0,0,0-.29.62v.13a.22.22,0,0,0,.21.2Z"/></g></g></svg>