<svg xmlns="http://www.w3.org/2000/svg" xmlns:xlink="http://www.w3.org/1999/xlink" viewBox="0 0 44.19 37.71"><defs><style>.cls-1{fill:none;}.cls-2{isolation:isolate;}.cls-3{fill:#ac958b;opacity:0.4;mix-blend-mode:multiply;}.cls-4{fill:#2b2c2b;}.cls-5{fill:#1e8548;}.cls-6{fill:#0d2014;}.cls-7{fill:#181717;}.cls-8{fill:#edf0f1;}.cls-12,.cls-9{mix-blend-mode:overlay;}.cls-9{fill:url(#radial-gradient);}.cls-10{fill:#272626;}.cls-11{fill:#95a5a6;}.cls-12{fill:url(#radial-gradient-2);}.cls-13{fill:#186735;}.cls-14{fill:#1a783e;}.cls-15{fill:#13522a;}.cls-16,.cls-17,.cls-21,.cls-23,.cls-31,.cls-37,.cls-39{mix-blend-mode:screen;}.cls-16{fill:url(#linear-gradient);}.cls-17{fill:url(#linear-gradient-2);}.cls-18{fill:#89a1a8;}.cls-19{fill:#6d8d93;}.cls-20{fill:#5f797b;}.cls-21{fill:url(#New_Gradient_Swatch_2);}.cls-22{fill:#37474a;}.cls-23{fill:url(#New_Gradient_Swatch_2-2);}.cls-24{fill:url(#linear-gradient-3);}.cls-25{fill:url(#linear-gradient-4);}.cls-26{fill:#238d4e;}.cls-27{fill:#faa51a;}.cls-28{fill:#bdc3c7;}.cls-29{fill:#feef8f;}.cls-30{fill:#fff;}.cls-31{fill:url(#New_Gradient_Swatch_2-3);}.cls-32{fill:#212121;}.cls-33{fill:#262525;}.cls-34{fill:#181818;}.cls-35{fill:#171717;}.cls-36{clip-path:url(#clip-path);}.cls-37{fill:url(#New_Gradient_Swatch_2-4);}.cls-38{fill:#105028;}.cls-39{fill:url(#New_Gradient_Swatch_2-5);}</style><radialGradient id="radial-gradient" cx="-879.07" cy="308.08" r="3.78" gradientTransform="matrix(1, 0, 0, -1, 883.17, 327.98)" gradientUnits="userSpaceOnUse"><stop offset="0" stop-color="#fff"/><stop offset="0.07" stop-color="#d1d1d1"/><stop offset="0.16" stop-color="#a1a1a1"/><stop offset="0.26" stop-color="#767676"/><stop offset="0.36" stop-color="#525252"/><stop offset="0.46" stop-color="#343434"/><stop offset="0.57" stop-color="#1e1e1e"/><stop offset="0.69" stop-color="#0e0e0e"/><stop offset="0.82" stop-color="#040404"/><stop offset="1" stop-color="#010101"/></radialGradient><radialGradient id="radial-gradient-2" cx="-854.64" cy="294.19" r="3.78" xlink:href="#radial-gradient"/><linearGradient id="linear-gradient" x1="363.81" y1="32.8" x2="361.5" y2="30.15" gradientTransform="matrix(-1, 0, 0, 1, 392.77, 0)" gradientUnits="userSpaceOnUse"><stop offset="0" stop-color="#010101"/><stop offset="1" stop-color="#186735"/></linearGradient><linearGradient id="linear-gradient-2" x1="388.01" y1="18.12" x2="385.99" y2="14.95" xlink:href="#linear-gradient"/><linearGradient id="New_Gradient_Swatch_2" x1="363.67" y1="22.97" x2="359.78" y2="16.62" gradientTransform="matrix(-1, -0.01, -0.01, 1, 394.59, 0.65)" gradientUnits="userSpaceOnUse"><stop offset="0" stop-color="#010101"/><stop offset="1" stop-color="#fff"/></linearGradient><linearGradient id="New_Gradient_Swatch_2-2" x1="380.24" y1="14.89" x2="378.15" y2="10.89" gradientTransform="matrix(-1, 0, 0, 1, 392.77, 0)" xlink:href="#New_Gradient_Swatch_2"/><linearGradient id="linear-gradient-3" x1="358.8" y1="31.08" x2="359.67" y2="31.15" gradientTransform="matrix(-1, 0, 0, 1, 392.77, 0)" gradientUnits="userSpaceOnUse"><stop offset="0" stop-color="#edf0f1"/><stop offset="0.74" stop-color="#cad0d3"/><stop offset="1" stop-color="#bdc3c7"/></linearGradient><linearGradient id="linear-gradient-4" x1="348.84" y1="26.18" x2="351.24" y2="26.18" xlink:href="#linear-gradient-3"/><linearGradient id="New_Gradient_Swatch_2-3" x1="359.26" y1="31.55" x2="358.92" y2="30.73" gradientTransform="matrix(-1, 0, 0, 1, 392.77, 0)" xlink:href="#New_Gradient_Swatch_2"/><clipPath id="clip-path"><path class="cls-1" d="M41.53,27.49c0,.58,1.57.22,2.4-.63a13.94,13.94,0,0,0-.53-1.34,6.56,6.56,0,0,0-.52-.94A11.29,11.29,0,0,0,41.53,27.49Z"/></clipPath><linearGradient id="New_Gradient_Swatch_2-4" x1="349.86" y1="27.41" x2="349.93" y2="25.46" gradientTransform="matrix(-1, 0, 0, 1, 392.77, 0)" xlink:href="#New_Gradient_Swatch_2"/><linearGradient id="New_Gradient_Swatch_2-5" x1="354.36" y1="28.18" x2="354.12" y2="27.52" gradientTransform="matrix(-1, 0, 0, 1, 392.77, 0)" xlink:href="#New_Gradient_Swatch_2"/></defs><g class="cls-2"><g id="Layer_2" data-name="Layer 2"><g id="Layer_1-2" data-name="Layer 1"><path class="cls-3" d="M3.6,22.07,28.93,36.69c3.12,1.8,6.86,1,10-.77L41,34.69c3.11-1.79,4.42-3.95,1.31-5.75l-18.92-11c-3.12-1.8-14.58-5.4-17.7-3.6L3.6,15.55C.49,17.35.49,20.27,3.6,22.07Z"/><path class="cls-4" d="M34.69,16.65s-.26,1,.27,1.06c-.26-.24-.08-1-.08-1s.08-2.5,1.72-2.38a.52.52,0,0,1,.18,0,.81.81,0,0,0-.38-.1C34.77,14.15,34.69,16.65,34.69,16.65Z"/><path class="cls-5" d="M34.88,16.72s-.18.75.08,1a.73.73,0,0,0,.35-.08c.88-.4,2.4-2.73,1.47-3.26h0a.52.52,0,0,0-.18,0C35,14.22,34.88,16.72,34.88,16.72Z"/><polygon class="cls-6" points="25.49 32.45 29.06 30.69 26.25 28.16 24.91 30.69 25.49 32.45"/><polygon class="cls-6" points="1.05 18.37 5.88 17.41 2.6 14.38 0.37 15.78 1.05 18.37"/><path class="cls-7" d="M5.42,22.68l1.28-.83a1.41,1.41,0,0,0,.58-1.08,4.6,4.6,0,0,0-2.44-4.45,1.55,1.55,0,0,0-1.48,0L2.21,17Z"/><path class="cls-4" d="M1.44,18.51a5.13,5.13,0,0,0,2.32,4c1.28.73,2.32.14,2.32-1.34a5.13,5.13,0,0,0-2.32-4C2.48,16.43,1.44,17,1.44,18.51Z"/><path class="cls-8" d="M1.72,18.7a4.3,4.3,0,0,0,.74,2.24c.08.13.18.26.27.38a3.52,3.52,0,0,0,1,.91,1.79,1.79,0,0,0,1,.28.9.9,0,0,0,.27-.07,1.35,1.35,0,0,0,.74-1.39,3.38,3.38,0,0,0,0-.53,2.61,2.61,0,0,0-.08-.36A4.6,4.6,0,0,0,3.89,17.6l-.13-.08-.13-.07c-.82-.41-1.51-.19-1.79.5a1.91,1.91,0,0,0-.07.28A1.7,1.7,0,0,0,1.72,18.7Z"/><path class="cls-9" d="M5.61,20.94a3.89,3.89,0,0,0-.67-2c-.08-.12-.16-.23-.25-.34a3.45,3.45,0,0,0-.93-.83,1.52,1.52,0,0,0-.93-.24.7.7,0,0,0-.25.05,1.22,1.22,0,0,0-.67,1.26,4.23,4.23,0,0,0,0,.48,2,2,0,0,0,.08.33,4.13,4.13,0,0,0,1.61,2.32l.12.07.12.06c.74.38,1.37.18,1.62-.45,0-.08,0-.16.07-.25A1.91,1.91,0,0,0,5.61,20.94Z"/><path class="cls-4" d="M2.15,18.92a3.55,3.55,0,0,0,1.61,2.79c.89.51,1.61.1,1.61-.93A3.55,3.55,0,0,0,3.76,18C2.87,17.48,2.15,17.89,2.15,18.92Z"/><path class="cls-10" d="M2.38,19.05a3.06,3.06,0,0,0,1.38,2.39c.76.44,1.38.08,1.38-.8a3.05,3.05,0,0,0-1.38-2.38C3,17.82,2.38,18.17,2.38,19.05Z"/><g class="cls-2"><path class="cls-11" d="M2.8,20.79,3,20.64l.26-.16a.57.57,0,0,1,.13-.08.57.57,0,0,1,.13-.08l.12-.07-.26.16-.25.16-.23.15-.24.16L2.56,21Z"/><path class="cls-11" d="M2.28,20.46l.12-.07.26-.12.25-.12L3.17,20l.17-.09.12-.06h0l-.12.07h0L3.22,20l-.17.09-.27.13a1.34,1.34,0,0,1-.24.12l0,0-.21.09Z"/><g class="cls-2"><g class="cls-2"><path class="cls-11" d="M3.58,20.29l.12-.07Z"/></g></g><path class="cls-11" d="M4.1,20.35l.12-.07h0l0,.07c.09.14.17.28.25.42l.26.44.25.4a1.66,1.66,0,0,1,.14.5l-.27-.43-.24-.39c-.08-.15-.17-.3-.26-.45a4.23,4.23,0,0,1-.25-.42l0-.06h0Z"/><path class="cls-11" d="M3.88,20.47,4,20.4v0c0,.16,0,.31,0,.46s0,.29,0,.43,0,.26,0,.38a2,2,0,0,1-.1.5c0-.12,0-.27,0-.42s0-.26,0-.39,0-.28,0-.43,0-.3,0-.46Z"/><path class="cls-11" d="M2.36,18.82l.33.2.37.22.39.24,0,0-.12.07,0,0-.4-.24-.37-.22-.32-.2-.36-.23A2,2,0,0,1,2.36,18.82Z"/><g class="cls-2"><g class="cls-2"><path class="cls-11" d="M3.58,19.45l.12-.07a.17.17,0,0,0,0-.05c-.1-.16-.19-.32-.28-.48s-.17-.31-.25-.45L2.93,18a1.54,1.54,0,0,0-.36-.37c.07.12.14.27.24.44l.22.41.25.45.27.48,0,.05Z"/></g></g><path class="cls-11" d="M4.22,19.92l0,0c.13.08.27.14.39.21l.37.21.33.17a.7.7,0,0,1,.23.26l-.35-.18-.33-.18-.37-.2L4.14,20l0,0Z"/><path class="cls-11" d="M3.88,19.58c0-.15,0-.3,0-.45s0-.28,0-.41,0-.26,0-.37,0-.29,0-.4a.65.65,0,0,1,.1.33c0,.11,0,.23,0,.37s0,.27,0,.42,0,.29,0,.44v0l-.13.07Z"/><path class="cls-8" d="M3.36,19.57l0,0-.4-.24-.37-.22-.32-.2-.36-.23v.46l.35.19.33.17.37.2.4.22,0,0,0,0-.29.15-.27.13a1.34,1.34,0,0,1-.24.12l-.26.12a3.53,3.53,0,0,0,.28.5l.24-.17L3,20.64l.26-.16.27-.17,0,0v.05c0,.15,0,.3,0,.44s0,.29,0,.42,0,.26,0,.38,0,.28,0,.39l.2.13.21.11c0-.12,0-.27,0-.42s0-.26,0-.39,0-.28,0-.43,0-.3,0-.46v0l0,0,.27.49.25.45c.08.14.15.28.23.41s.16.32.23.44a.83.83,0,0,0,.29-.16l-.27-.43-.24-.39c-.08-.15-.17-.3-.26-.45s-.19-.31-.29-.48l0,0,0,0,.39.24.37.22.33.2.35.23a1.64,1.64,0,0,0,0-.22,1.94,1.94,0,0,0,0-.24l-.35-.18-.33-.18-.37-.2L4.14,20l0,0,0,0,.28-.15.26-.13.25-.12.27-.12A5,5,0,0,0,4.9,19c-.07.05-.14.11-.24.17l-.22.15-.25.16-.28.17h0v0c0-.15,0-.3,0-.45s0-.28,0-.41,0-.26,0-.37,0-.29,0-.4l-.21-.13-.2-.11c0,.12,0,.27,0,.42s0,.26,0,.39V19c0,.15,0,.3,0,.46v0l0,0-.28-.5L3,18.47l-.22-.41c-.1-.17-.17-.32-.24-.44a.57.57,0,0,0-.29.16c.08.12.17.26.27.43s.15.26.24.39.17.3.26.45l.29.48,0,0Z"/></g><path class="cls-7" d="M29.85,36.58l1.28-.84a1.39,1.39,0,0,0,.57-1.07,4.61,4.61,0,0,0-2.43-4.46,1.52,1.52,0,0,0-1.49,0l-1.15.63Z"/><path class="cls-4" d="M25.87,32.4a5.12,5.12,0,0,0,2.31,4c1.29.74,2.32.14,2.32-1.34a5.11,5.11,0,0,0-2.32-4C26.9,30.32,25.87,30.92,25.87,32.4Z"/><path class="cls-8" d="M26.14,32.59a4.3,4.3,0,0,0,.74,2.24c.09.13.18.26.28.38a3.62,3.62,0,0,0,1,.91,1.73,1.73,0,0,0,1,.27,1.07,1.07,0,0,0,.27-.06,1.34,1.34,0,0,0,.74-1.39,3,3,0,0,0,0-.52c0-.12-.05-.24-.08-.37a4.62,4.62,0,0,0-1.79-2.56l-.08-.06-.18-.09c-.82-.42-1.51-.2-1.78.5a2.76,2.76,0,0,0-.08.27A2.44,2.44,0,0,0,26.14,32.59Z"/><path class="cls-12" d="M30,34.83a3.91,3.91,0,0,0-.68-2,2.7,2.7,0,0,0-.25-.34,3.45,3.45,0,0,0-.93-.83,1.58,1.58,0,0,0-.93-.25.94.94,0,0,0-.24.06,1.22,1.22,0,0,0-.67,1.26,2.67,2.67,0,0,0,0,.48,2.06,2.06,0,0,0,.07.32,4.18,4.18,0,0,0,1.62,2.33l.11.07.12.07c.75.37,1.37.17,1.62-.46a1.82,1.82,0,0,0,.07-.25A1.88,1.88,0,0,0,30,34.83Z"/><path class="cls-4" d="M26.57,32.81a3.59,3.59,0,0,0,1.61,2.79c.89.51,1.62.1,1.62-.93a3.56,3.56,0,0,0-1.62-2.79C27.3,31.36,26.57,31.78,26.57,32.81Z"/><path class="cls-10" d="M26.81,32.94a3,3,0,0,0,1.37,2.39c.77.44,1.38.08,1.38-.79a3,3,0,0,0-1.38-2.39C27.42,31.71,26.81,32.07,26.81,32.94Z"/><g class="cls-2"><path class="cls-11" d="M27.22,34.68l.23-.15.25-.16.13-.08.14-.08.12-.08-.27.17-.25.16-.22.15-.24.16-.13.07Z"/><path class="cls-11" d="M26.7,34.35l.12-.07.27-.12c.08,0,.16-.07.24-.12l.27-.13.17-.09.11-.07h0l-.12.08h0l-.09,0-.17.09-.27.13-.25.12-.07,0-.19.08Z"/><g class="cls-2"><g class="cls-2"><path class="cls-11" d="M28,34.19l.13-.08Z"/></g></g><path class="cls-11" d="M28.52,34.24l.13-.07h0v0l0,.06c.08.14.16.28.25.42l.26.44.25.4a1.78,1.78,0,0,1,.13.5l-.26-.43c-.08-.12-.16-.25-.24-.4s-.18-.28-.27-.44l-.24-.42,0-.06h0Z"/><path class="cls-11" d="M28.31,34.36l.12-.07v0c0,.16,0,.31,0,.46s0,.29,0,.43,0,.26,0,.38a2.42,2.42,0,0,1-.11.5c0-.12,0-.27,0-.43s0-.25,0-.38,0-.28,0-.43v-.5Z"/><path class="cls-11" d="M26.78,32.7l.33.21.37.23.4.23,0,0-.12.07,0,0-.39-.23L27,33l-.33-.2-.36-.23A2.14,2.14,0,0,1,26.78,32.7Z"/><g class="cls-2"><g class="cls-2"><path class="cls-11" d="M28,33.34l.12-.08,0,0-.28-.5-.25-.45c-.08-.15-.15-.28-.23-.41a1.54,1.54,0,0,0-.36-.37l.24.44.22.41c.09.14.17.3.26.45l.27.48,0,.05Z"/></g></g><path class="cls-11" d="M28.65,33.82l0,0,.39.22.37.2.33.17a.73.73,0,0,1,.23.26l-.36-.19-.33-.17-.36-.2-.4-.22,0,0Z"/><path class="cls-11" d="M28.31,33.47c0-.15,0-.3,0-.45s0-.28,0-.41,0-.26,0-.37,0-.29,0-.41a.84.84,0,0,1,.1.34c0,.11,0,.24,0,.37s0,.27,0,.41,0,.3,0,.45v0l-.12.07Z"/><path class="cls-8" d="M27.79,33.46l0,0-.39-.23L27,33l-.33-.2-.36-.23V33l.36.19.33.17.37.2.39.22,0,0,0,0-.28.15-.27.13-.25.12-.26.12a3.9,3.9,0,0,0,.28.49l.24-.16.23-.15.25-.16c.09,0,.18-.12.28-.17h0v0c0,.15,0,.3,0,.45s0,.28,0,.41,0,.26,0,.37,0,.29,0,.4l.2.13.2.11c0-.12,0-.27,0-.43s0-.25,0-.38,0-.28,0-.43v-.5l0,0c.1.16.18.32.28.48s.17.31.25.45l.22.41.24.44A.78.78,0,0,0,29.6,36l-.26-.43c-.08-.12-.16-.25-.24-.4s-.18-.28-.27-.44-.19-.31-.28-.48l0,0,0,0,.39.23.37.23.33.21.36.22a1.55,1.55,0,0,0,0-.22,1.93,1.93,0,0,0,0-.24l-.36-.19-.33-.17-.36-.2-.4-.22,0,0h0l.3-.16.27-.13a1.34,1.34,0,0,1,.24-.12l.26-.12a3.9,3.9,0,0,0-.28-.49l-.24.16-.22.15-.26.16-.27.17h0v0c0-.15,0-.3,0-.45s0-.28,0-.41,0-.26,0-.37,0-.29,0-.41l-.21-.12L28,31.6c0,.12,0,.27,0,.43s0,.25,0,.38,0,.28,0,.43,0,.3,0,.45v.05l0-.05-.27-.48c-.09-.15-.17-.31-.26-.45L27.23,32,27,31.51a.54.54,0,0,0-.28.16l.26.43c.08.12.16.25.24.4s.18.28.27.44l.28.48,0,0Z"/></g><path class="cls-13" d="M.24,16.43a3,3,0,0,0,.1.67h0A2.91,2.91,0,0,0,.76,18a2.54,2.54,0,0,0,.29.36.53.53,0,0,1,0-.13c0-1.76,1.24-2.47,2.77-1.59a6.16,6.16,0,0,1,2.68,4,3.77,3.77,0,0,1,.08.81v.24l.27.15.55.31L24.65,32l.44.26.11.07.29.17v-.07a3,3,0,0,1,.13-.9c.36-1.08,1.4-1.41,2.64-.7A6.21,6.21,0,0,1,30.75,34,5.11,5.11,0,0,1,31,35.57v.2l.13.08.14.08a4.28,4.28,0,0,0,.56.24,3.35,3.35,0,0,0,2.91-.28l8.8-5.18A.93.93,0,0,0,44,30c0-.44.09-1.09.13-1.57,0-.13,0-.24,0-.34a3.29,3.29,0,0,0-.25-1.23q-.07-.22-.15-.42c-.17-.45-.33-.81-.38-.92a4.68,4.68,0,0,0-.28-.54,4.23,4.23,0,0,0-.24-.4A42.09,42.09,0,0,0,39.21,20s-.21-.36-.6-1c-1-1.51-3.34-4.21-5.27-6.71L33.1,12a11.73,11.73,0,0,0-2-1.92C27.32,7.23,14,.32,14,.32a2.45,2.45,0,0,0-2.43,0c-1,.63-7.89,4.27-9.15,4.93h0l-.19.1a.74.74,0,0,0-.47.83c.09.39-.74,1.54-1.64,4.64C-.21,12.12.16,14.06.24,16.43Z"/><path class="cls-14" d="M.49,12.87h0a.6.6,0,0,0,.26.39L7.33,17v.1L.73,13.31a.54.54,0,0,1-.24-.42Z"/><path class="cls-15" d="M.77,13.25a.51.51,0,0,1-.24-.39.15.15,0,0,1,.12,0l6.63,3.82,0,0V17Z"/><path class="cls-5" d="M2,5.64c1.48.44,6.59,3.5,9.57,5.2,11.08,6.32,11.29,6.75,11.29,6.75,6.67,1.34,9.37-3.25,10.29-5.55a11.73,11.73,0,0,0-2-1.92C27.32,7.23,14,.32,14,.32a2.45,2.45,0,0,0-2.43,0c-1,.63-7.89,4.27-9.15,4.93h0A3.12,3.12,0,0,0,2,5.64Z"/><path class="cls-15" d="M6.57,21.44v.24l.27.15.55.31L24.65,32l.44.26.11.07.29.17v-.07a3,3,0,0,1,.13-.9L6.49,20.63A3.77,3.77,0,0,1,6.57,21.44Z"/><path class="cls-10" d="M31,35.57v.2l.13.08.14.08a4.28,4.28,0,0,0,.56.24,3.35,3.35,0,0,0,2.91-.28l8.8-5.18A.93.93,0,0,0,44,30c0-.44.09-1.09.13-1.57L33.86,34.37a2.41,2.41,0,0,1-2,.18c-.2-.06-.11.18-.63.11-.15,0-.32-.54-.46-.64A5.11,5.11,0,0,1,31,35.57Z"/><path class="cls-16" d="M24.65,32l.44.26.11.07.29.17v-.07c0-1.76,1.24-2.48,2.77-1.6A6.13,6.13,0,0,1,31,35.57v.2l.13.08.14.08a4.28,4.28,0,0,0,.56.24l0-.18c0-.14,0-.28,0-.42A7,7,0,0,0,28.69,30a3.24,3.24,0,0,0-1.67-.5A2.41,2.41,0,0,0,24.65,32Z"/><path class="cls-15" d="M25.49,32.45v-.07c0-1.76,1.24-2.48,2.77-1.6A6.13,6.13,0,0,1,31,35.57v.2l.13.08.14.08c0-.12,0-.24,0-.36a6.44,6.44,0,0,0-2.91-5A2.83,2.83,0,0,0,27,30.12c-1.08,0-1.78.84-1.82,2.16Z"/><path class="cls-17" d="M.34,17.1h0A2.91,2.91,0,0,0,.76,18a2.54,2.54,0,0,0,.29.36.53.53,0,0,1,0-.13c0-1.76,1.24-2.47,2.77-1.59a6.11,6.11,0,0,1,2.76,4.79v.24l.27.15.55.31,0-.24a3.55,3.55,0,0,0,0-.46,7,7,0,0,0-3.2-5.54,3.33,3.33,0,0,0-1.67-.49A2.27,2.27,0,0,0,.34,17.1Z"/><path class="cls-5" d="M1.12,10.87C1.5,11,18.3,21,24.91,24.74a4.18,4.18,0,0,0,3.5.39l10.2-6.06c.39.6,3.52,3.8,4.32,5.63-.55,4-8.54,6.76-9.9,6.06a28.88,28.88,0,0,1-3.72-2.68,19,19,0,0,0-3.63-2.33c-.5-.25-1-.53-1.57-.83C16.48,20.51,1.65,12,1.13,11.65S.65,10.77,1.12,10.87Z"/><path class="cls-15" d="M38.11,19.31a21.37,21.37,0,0,1-10.62,6.06Z"/><path class="cls-15" d="M7.68,22.31a22.28,22.28,0,0,1-.24-6.68,1,1,0,0,1,.1-.21l0,0A3.13,3.13,0,0,1,7.88,15c.13-.85.9-4.68,1-5.28a.31.31,0,0,1,0-.07v0l.07,0v.1c-.14.68-.9,4.46-1,5.28h0a1.76,1.76,0,0,0-.42.56,21.67,21.67,0,0,0,.26,6.71Z"/><path class="cls-15" d="M15.52,26.77a31.24,31.24,0,0,1-.09-6.08c0-.27,0-.46,0-.54a.91.91,0,0,1,.42-.74,6,6,0,0,0,.07-.93c0-.24.81-3.58.94-4.09l0-.06H17v.07c-.29,1.13-1,3.84-.94,4a4.88,4.88,0,0,1-.07.94v0h0a.89.89,0,0,0-.4.69c0,.08,0,.26,0,.54a31,31,0,0,0,.1,6.13Z"/><path class="cls-14" d="M34.06,30.37l0-.07c-2-1-5.76-4.71-6.14-5.09,3.64-2.38,9.09-5.83,9.57-5.83h0c4.54,4.54,4.68,7.24,4.68,7.27h.08s-.15-2.76-4.71-7.32c-.06-.06-.2-.2-5,2.81-2.35,1.48-4.7,3-4.72,3l0,0,0,0S31.92,29.33,34.06,30.37Z"/><path class="cls-4" d="M23.37,17.7,27,25.1a.53.53,0,0,0,.63.28,26.81,26.81,0,0,0,7.69-3.86A31.35,31.35,0,0,0,38,19.47a.4.4,0,0,0,.05-.56l-5.3-6.57-5.67,3.25Z"/><path class="cls-4" d="M26.85,24.42l.32.62a.38.38,0,0,0,.34.22l.12,0a29.41,29.41,0,0,0,10.25-5.88.26.26,0,0,0,0-.36l-.49-.61A29.23,29.23,0,0,1,26.85,24.42Z"/><path class="cls-18" d="M23.56,17.76l.11.24,2.67,5.37.31.63a.56.56,0,0,0,.66.28A29.38,29.38,0,0,0,37,18.75a.56.56,0,0,0,.08-.77l-.48-.6-3.67-4.54-.25-.32Z"/><path class="cls-19" d="M23.56,17.76l.11.24c4.24-.91,7.87-3.88,9.27-5.16l-.25-.32Z"/><path class="cls-20" d="M26.34,23.37l.31.63a.56.56,0,0,0,.66.28A29.38,29.38,0,0,0,37,18.75a.56.56,0,0,0,.08-.77l-.48-.6c-2.24,1.09-5.47,2.94-7.86,4.44-.28.19-.56.36-.83.55s-.56.37-.83.55S26.59,23.19,26.34,23.37Z"/><path class="cls-20" d="M26.07,22.44a1.37,1.37,0,0,0,.06.42,1.45,1.45,0,0,0,.09.22h0a.84.84,0,0,0,.18.24,1,1,0,0,0,.22.13.93.93,0,0,0,.34.06,1.13,1.13,0,0,0,.32-.05,1.66,1.66,0,0,0,.33-.16,2.9,2.9,0,0,0,1.13-1.39l0-.1a2.53,2.53,0,0,0,.14-.59h0a1.51,1.51,0,0,0,0-.3c0-.66-.36-1.08-.9-1.07a1.23,1.23,0,0,0-.65.21A3,3,0,0,0,26.07,22.44Zm.69.68c-.21-.09-.33-.33-.33-.69a1,1,0,0,1,0-.17,2.19,2.19,0,0,1,.14-.59,2.66,2.66,0,0,1,1-1.29l0,0a.88.88,0,0,1,.2-.09A.92.92,0,0,1,28,20.2h0c.33,0,.53.27.54.73a.85.85,0,0,1,0,.13,2.63,2.63,0,0,1-.36,1.11l-.11.16a2.28,2.28,0,0,1-.68.67l-.26.12-.19,0h0A.44.44,0,0,1,26.76,23.12Z"/><path class="cls-20" d="M29.87,21.85s-1.32-1-1.8-.88-1.13.73-1.12,1.2a8,8,0,0,0,.49,1.69Z"/><path class="cls-20" d="M28,21v-.73a.18.18,0,0,0-.26-.17l-.16.07a.19.19,0,0,0-.09.21l.13.66a.18.18,0,0,0,.28.11h0A.16.16,0,0,0,28,21Z"/><polygon class="cls-20" points="27.61 21.89 26.54 21.67 26.28 22.26 27.82 22.28 27.61 21.89"/><path class="cls-21" d="M27.05,15.59a39.36,39.36,0,0,0,8.31,5.93A31.35,31.35,0,0,0,38,19.47a.4.4,0,0,0,.05-.56l-5.3-6.57Z"/><path class="cls-15" d="M24.39,31.81a35.16,35.16,0,0,1,.13-6.24c0-.22,0-.37,0-.4,0-.23.33-.55.34-.55A.74.74,0,0,0,25,24l-1.35-4.19A4.85,4.85,0,0,0,21.44,17L17,14.43l-.07,0L9,9.79l-.07,0L3.42,6.57A1,1,0,0,0,3,6.44a1,1,0,0,0-.9.61L.74,10.4a1,1,0,0,0,.45,1.26l6.39,3.7,0,0,0,.06,0,0-6.39-3.7a1.09,1.09,0,0,1-.47-1.35L2,7a1,1,0,0,1,1-.65,1.06,1.06,0,0,1,.51.14L8.92,9.68l.06,0,8,4.62h0l0,0L21.48,17a5,5,0,0,1,2.23,2.76l1.35,4.2a.78.78,0,0,1-.12.72c-.09.09-.32.34-.32.51s0,.17,0,.41a34.76,34.76,0,0,0-.12,6.27Z"/><path class="cls-10" d="M1.39,11.32l6.14,3.55,1.2.7,6.8,3.93,1.21.7L23.25,24l.87.5a.26.26,0,0,0,.17.05.35.35,0,0,0,.28-.14.32.32,0,0,0,0-.3L24,22.28l-.77-2.39a4.49,4.49,0,0,0-2-2.51l-3.9-2.26-1.17-.68-6.81-4L8.21,9.81l-5-2.9A.72.72,0,0,0,3,6.84a.57.57,0,0,0-.53.35L1.11,10.54A.63.63,0,0,0,1.39,11.32Z"/><path class="cls-22" d="M1.46,11.19,24.19,24.35a.19.19,0,0,0,.28-.23L23.4,20.81l-.28-.88a4.33,4.33,0,0,0-1.95-2.42L3.15,7a.41.41,0,0,0-.59.21L2,8.66,1.25,10.6A.47.47,0,0,0,1.46,11.19Z"/><path class="cls-15" d="M1.05,18.37a.53.53,0,0,1,0-.13c0-1.76,1.24-2.47,2.77-1.59a6.11,6.11,0,0,1,2.76,4.79v.24l.27.15c0-.13,0-.25,0-.39A6.46,6.46,0,0,0,4,16.4,2.74,2.74,0,0,0,2.57,16c-1,0-1.73.79-1.81,2A2.54,2.54,0,0,0,1.05,18.37Z"/><path class="cls-23" d="M2,8.66c4,2.45,16.64,10.19,21.4,12.15l-.28-.88a4.33,4.33,0,0,0-1.95-2.42L3.15,7a.41.41,0,0,0-.59.21Z"/><path class="cls-10" d="M15.34,19.32c.29-2.27.63-3.82.83-4.88l1.17.68c-.21,1.33-.69,4-.79,4.9Z"/><path class="cls-10" d="M7.33,14.7l1.21.7c.14-1.33.64-4.05.82-4.92L8.21,9.81A44.58,44.58,0,0,0,7.33,14.7Z"/><path class="cls-10" d="M22.89,23.69l1.23.78a.26.26,0,0,0,.17.05.35.35,0,0,0,.28-.14.32.32,0,0,0,0-.3l-1-2.66A11.41,11.41,0,0,1,22.89,23.69Z"/><path class="cls-24" d="M31.63,30.6c0-.4.5-.7,1.22-.63a10.93,10.93,0,0,1,3,.46c.8.45-2.18,2.84-3.53,1.53A1.92,1.92,0,0,1,31.63,30.6Z"/><path class="cls-25" d="M41.53,27.49c0,.58,1.57.22,2.4-.63a13.94,13.94,0,0,0-.53-1.34,6.56,6.56,0,0,0-.52-.94A11.29,11.29,0,0,0,41.53,27.49Z"/><path class="cls-13" d="M12,1.48,28.15,10.8a.41.41,0,0,0,.23,0,.42.42,0,0,0,.25,0c.14-.08.14-.2,0-.28L12.5,1.2a.57.57,0,0,0-.46,0h0C11.88,1.28,11.88,1.41,12,1.48Z"/><path class="cls-26" d="M12,1.48,28.15,10.8a.41.41,0,0,0,.23,0h0a.16.16,0,0,0,0-.29L12.27,1.25A.41.41,0,0,0,12,1.19h0C11.88,1.28,11.88,1.41,12,1.48Z"/><path class="cls-13" d="M9.85,2.74,26,12.06a.4.4,0,0,0,.22.06.53.53,0,0,0,.26-.06c.14-.08.14-.2,0-.28L10.34,2.47a.5.5,0,0,0-.46,0h0A.14.14,0,0,0,9.85,2.74Z"/><path class="cls-26" d="M9.85,2.74,26,12.06a.4.4,0,0,0,.22.06h0c.14-.08.14-.2,0-.28L10.11,2.51a.59.59,0,0,0-.23,0h0A.14.14,0,0,0,9.85,2.74Z"/><path class="cls-13" d="M7.69,4l16.13,9.32a.44.44,0,0,0,.23.06.58.58,0,0,0,.26-.06.15.15,0,0,0,0-.28L8.17,3.69a.53.53,0,0,0-.46,0h0C7.55,3.77,7.55,3.9,7.69,4Z"/><path class="cls-26" d="M7.69,4l16.13,9.32a.44.44,0,0,0,.23.06h0a.15.15,0,0,0,0-.29L7.94,3.74a.43.43,0,0,0-.23-.05h0C7.55,3.77,7.55,3.9,7.69,4Z"/><path class="cls-13" d="M5.63,5.24l16.13,9.31a.46.46,0,0,0,.23.06.55.55,0,0,0,.26-.06.15.15,0,0,0,0-.28L6.11,5a.53.53,0,0,0-.46,0h0C5.5,5,5.5,5.16,5.63,5.24Z"/><path class="cls-26" d="M5.63,5.24l16.13,9.31a.46.46,0,0,0,.23.06h0c.14-.08.14-.2,0-.28L5.88,5A.41.41,0,0,0,5.65,5h0C5.5,5,5.5,5.16,5.63,5.24Z"/><path class="cls-4" d="M25.28,26.36l.57.33V27l.06,0v-.33l-.56-.32Z"/><path class="cls-27" d="M25.13,26.85l.45.27.06,0,.22-.13v-.32l-.57-.33c-.08.05-.2.13-.21.22S25,26.79,25.13,26.85Z"/><path class="cls-28" d="M34.78,31.72h0l0,0h0a.32.32,0,0,0,.2,0,.81.81,0,0,0,.36-.62.29.29,0,0,0,0-.14l-.11-.07s.05,0,0,0c-.36-.16-.85-.14-1,.08S34.42,31.51,34.78,31.72Z"/><path class="cls-29" d="M34.68,31.5a.28.28,0,0,0,.07.2l.08.05h0a.32.32,0,0,0,.2,0,.81.81,0,0,0,.36-.62.29.29,0,0,0,0-.14.17.17,0,0,0-.21-.11.28.28,0,0,0-.12,0A.79.79,0,0,0,34.68,31.5Z"/><path class="cls-30" d="M34.81,31.27a.15.15,0,0,0,.15.14.14.14,0,0,0,.16-.14.15.15,0,0,0-.16-.15A.15.15,0,0,0,34.81,31.27Z"/><path class="cls-28" d="M34.71,31.48a.69.69,0,0,1,.32-.55.3.3,0,0,1,.15-.05c.11,0,.17.1.17.23a.71.71,0,0,1-.31.56.31.31,0,0,1-.15,0C34.78,31.71,34.71,31.62,34.71,31.48Zm.33-.54a.68.68,0,0,0-.32.54c0,.14.07.23.17.23a.27.27,0,0,0,.14-.05.71.71,0,0,0,.32-.55c0-.13-.07-.22-.17-.22A.24.24,0,0,0,35,30.94Z"/><path class="cls-28" d="M34.79,31.44A.54.54,0,0,1,35,31l.07,0a.15.15,0,0,1,.17.17.53.53,0,0,1-.23.42l-.11,0C34.84,31.61,34.79,31.54,34.79,31.44ZM35,31a.54.54,0,0,0-.24.41c0,.1.05.16.13.16l.1,0a.54.54,0,0,0,.24-.41c0-.1-.06-.16-.13-.16A.33.33,0,0,0,35,31Z"/><path class="cls-28" d="M34.89,31.38a.29.29,0,0,1,.14-.24.07.07,0,0,1,.06,0,.09.09,0,0,1,.09.1.35.35,0,0,1-.14.25H35S34.89,31.44,34.89,31.38Zm.15-.24a.3.3,0,0,0-.14.24c0,.06,0,.09.07.09H35a.33.33,0,0,0,.14-.24.18.18,0,0,0,0-.1A.16.16,0,0,0,35,31.14Z"/><path class="cls-28" d="M33.32,32.12l.06,0,.06,0h0a.59.59,0,0,0,.4-.1,1.57,1.57,0,0,0,.72-1.24.57.57,0,0,0-.05-.27l-.22-.14c-.07,0,.11,0,.05-.07-.74-.32-1.72-.27-2,.16S32.6,31.69,33.32,32.12Z"/><path class="cls-8" d="M33.12,31.67a.52.52,0,0,0,.14.4.31.31,0,0,0,.18.11h0a.59.59,0,0,0,.4-.1,1.57,1.57,0,0,0,.72-1.24.57.57,0,0,0-.05-.27.37.37,0,0,0-.43-.24l-.24.09A1.59,1.59,0,0,0,33.12,31.67Z"/><ellipse class="cls-30" cx="33.7" cy="31.2" rx="0.32" ry="0.29"/><path class="cls-28" d="M33.18,31.64a1.43,1.43,0,0,1,.65-1.12.63.63,0,0,1,.29-.08c.22,0,.36.18.36.46A1.42,1.42,0,0,1,33.84,32a.61.61,0,0,1-.3.09C33.32,32.1,33.18,31.93,33.18,31.64Zm.66-1.1a1.37,1.37,0,0,0-.64,1.1c0,.28.13.45.34.45a.55.55,0,0,0,.29-.09,1.39,1.39,0,0,0,.63-1.1c0-.27-.13-.45-.34-.45A.51.51,0,0,0,33.84,30.54Z"/><path class="cls-28" d="M33.36,31.86a.34.34,0,0,1,0-.32,1.33,1.33,0,0,1,.48-.82.37.37,0,0,1,.21-.07c.17,0,.27.13.27.35a1.12,1.12,0,0,1-.47.83.68.68,0,0,1-.32.11A.18.18,0,0,1,33.36,31.86Zm.48-1.13a1.38,1.38,0,0,0-.48.82c0,.14,0,.24,0,.3a.16.16,0,0,0,.15.07.61.61,0,0,0,.31-.11A1.06,1.06,0,0,0,34.3,31c0-.21-.1-.34-.26-.34A.35.35,0,0,0,33.84,30.73Z"/><path class="cls-28" d="M33.54,31.43a.62.62,0,0,1,.29-.49.28.28,0,0,1,.13,0c.09,0,.16.09.16.21a.64.64,0,0,1-.28.49l-.09,0A.19.19,0,0,1,33.54,31.43Zm.3-.47a.56.56,0,0,0-.28.47c0,.12.06.19.15.19l.12,0a.63.63,0,0,0,.27-.48c0-.12-.05-.19-.14-.19A.19.19,0,0,0,33.84,31Z"/><path class="cls-31" d="M36,30.65a8.89,8.89,0,0,0-3.62-.53c-1.81.19,1.28,1.79,1.9,1.62S35.62,30.86,36,30.65Z"/><g class="cls-2"><polygon class="cls-32" points="40.61 32.24 40.47 32.16 40.47 32.2 40.61 32.28 40.61 32.24"/><path class="cls-33" d="M40.47,32.16l.06,0,.08,0,.54-.31h.09l0,0h0l0,0v0h0l0,0,0,0,.08-.12,0,0v0h0v-.06h0a.1.1,0,0,0,0,0V31.4h0l.07-.22v0h0v0h0v0h0l0,0L41.47,31l0,0h0a.12.12,0,0,1,0,.05v.07l-.07.22a.44.44,0,0,1-.06.16h0a.84.84,0,0,1-.2.28h0a.51.51,0,0,1-.13.09l-.4.23-.08,0Z"/><polygon class="cls-33" points="40.61 32.28 40.47 32.2 40.39 32.25 40.53 32.33 40.61 32.28"/><polygon class="cls-32" points="40.53 32.28 40.39 32.2 40.39 32.25 40.53 32.33 40.53 32.28"/><polygon class="cls-32" points="40.61 31.52 40.47 31.44 40.47 31.48 40.61 31.56 40.61 31.52"/><polygon class="cls-33" points="39.41 32.77 39.47 32.8 39.55 32.85 40.49 32.3 40.53 32.28 40.43 32.22 40.39 32.2 39.55 32.69 39.47 32.73 39.41 32.77"/><polygon class="cls-32" points="40.39 31.52 40.39 31.68 40.39 32.2 40.43 32.22 40.53 32.28 40.53 32.12 40.53 31.6 40.45 31.56 40.39 31.52"/><polygon class="cls-32" points="40.53 31.57 40.39 31.49 40.39 31.52 40.53 31.6 40.53 31.57"/><polygon class="cls-33" points="40.61 31.52 40.47 31.44 40.39 31.49 40.53 31.57 40.61 31.52"/><polygon class="cls-32" points="39.55 32.85 39.41 32.77 39.41 32.81 39.55 32.9 39.55 32.85"/><polygon class="cls-33" points="39.55 32.9 39.41 32.81 39.33 32.86 39.47 32.94 39.55 32.9"/><polygon class="cls-32" points="39.47 32.9 39.33 32.81 39.33 32.86 39.47 32.94 39.47 32.9"/><polygon class="cls-32" points="39.55 32.13 39.41 32.06 39.41 32.09 39.55 32.17 39.55 32.13"/><polygon class="cls-33" points="38.35 33.38 38.41 33.41 38.49 33.46 39.43 32.92 39.47 32.9 39.37 32.84 39.33 32.81 38.49 33.3 38.41 33.35 38.35 33.38"/><polygon class="cls-32" points="39.33 32.13 39.33 32.3 39.33 32.81 39.37 32.84 39.47 32.9 39.47 32.73 39.47 32.21 39.39 32.17 39.33 32.13"/><polygon class="cls-33" points="39.55 32.13 39.41 32.06 39.33 32.1 39.47 32.18 39.55 32.13"/><polygon class="cls-34" points="39.47 32.18 39.47 32.21 39.47 32.73 39.47 32.94 39.55 32.9 39.55 32.69 39.55 32.17 39.55 32.14 39.52 32.15 39.47 32.18"/><polygon class="cls-32" points="39.47 32.18 39.33 32.1 39.33 32.13 39.47 32.21 39.47 32.18"/><polygon class="cls-32" points="38.49 33.46 38.35 33.38 38.35 33.43 38.49 33.51 38.49 33.46"/><polygon class="cls-33" points="38.49 33.51 38.35 33.43 38.27 33.47 38.41 33.55 38.49 33.51"/><polygon class="cls-32" points="38.41 33.51 38.27 33.43 38.27 33.47 38.41 33.55 38.41 33.51"/><polygon class="cls-32" points="38.49 32.75 38.35 32.66 38.35 32.7 38.49 32.78 38.49 32.75"/><polygon class="cls-32" points="38.27 32.75 38.27 32.91 38.27 33.43 38.31 33.45 38.41 33.51 38.41 33.35 38.41 32.83 38.32 32.78 38.27 32.75"/><polygon class="cls-34" points="38.41 32.8 38.41 32.83 38.41 33.35 38.41 33.51 38.41 33.55 38.49 33.51 38.49 33.3 38.49 32.78 38.49 32.75 38.46 32.76 38.41 32.8"/><polygon class="cls-32" points="38.41 32.8 38.27 32.71 38.27 32.75 38.41 32.83 38.41 32.8"/><polygon class="cls-33" points="38.49 32.75 38.35 32.66 38.27 32.71 38.41 32.8 38.49 32.75"/><path class="cls-32" d="M37.6,33.67l.13.07h0l0,0H38l.09,0,.32-.19,0,0-.1-.06,0,0-.36.21-.09,0-.08,0h-.07Z"/><path class="cls-34" d="M37.49,33.5h0v0a0,0,0,0,1,0,0v0l.07.14h0v0h0l0,0,0,0h0a.39.39,0,0,0,.37,0L41.15,32a1.13,1.13,0,0,0,.47-.63l.06-.23a.19.19,0,0,0,0-.2l0,0h-.07l-.07,0h0l0,0h0l-.31.18-.59.34h-.05l0,0h0l0,0h0l0,0-.89.51h0l0,0h0l0,0,0,0h0l-.05,0-.89.52h0l0,0h0l0,0-.58.33,0,0-.06.06s0,0,0,0h0l0,.06s0,0,0,.06h0v.09Zm.1-.14a.24.24,0,0,1,.1-.12l.58-.34.14-.07v0h0l.05,0h0v0l.84-.48.14-.09v0l.05,0h0v0l.84-.49.14-.08v0l0,0,0,0v0l.87-.51h0a.06.06,0,0,1,.07,0l0,0h0v0h0v0h0v0l-.07.22v.12l0,0h0l0,0v0l-.08.12,0,0h0l0,0,0,0h0l0,0h0l0,0h0l0,0h0l-.54.31v.05l-.08,0v0h0l0,0h0l-.94.54h0v0l-.08,0v0h0l-.94.55v0h0l-.05,0,0,0h0v0l0,0h0l-.32.19-.09,0h-.23a.12.12,0,0,1,0-.05l0,0-.07-.14A.37.37,0,0,1,37.59,33.36Z"/><path class="cls-34" d="M37.58,33.5l.07.14,0,0a.11.11,0,0,0,.07,0h0l.12,0,.36-.21V32.9l-.58.34a.24.24,0,0,0-.1.12A.23.23,0,0,0,37.58,33.5Z"/><polygon class="cls-34" points="38.49 32.78 38.49 33.3 39.33 32.81 39.33 32.3 38.49 32.78"/><polygon class="cls-34" points="39.55 32.17 39.55 32.69 40.39 32.2 40.39 31.68 39.55 32.17"/><path class="cls-34" d="M40.61,31.56v.51l.4-.23a.51.51,0,0,0,.13-.09h0a.84.84,0,0,0,.2-.28h0a.44.44,0,0,0,.06-.16l.07-.22v0Z"/><polygon class="cls-34" points="40.53 31.57 40.53 31.6 40.53 32.12 40.53 32.33 40.61 32.28 40.61 32.08 40.61 31.56 40.61 31.52 40.58 31.54 40.53 31.57"/><g class="cls-2"><path class="cls-34" d="M37.58,33.73l-.14-.09,0,0,.13.08v0Z"/><path class="cls-35" d="M37.59,33.76l-.13-.08a.2.2,0,0,0,.08.08l.14.09a.38.38,0,0,1-.09-.09Z"/></g><path class="cls-10" d="M37.35,33.4h0v0h0v0h0v0h0v0h.12l3.8-2.2h.14l.14.08-.06,0h-.06l-3.83,2.21,0,0h0l0,0h0l0,0v0l0,.06a.14.14,0,0,1,0,.06h0a.35.35,0,0,0,0,.06h0v.06h0v0l.08.16a.27.27,0,0,0,.1.13l-.14-.09a.2.2,0,0,1-.1-.12l-.07-.14h0v0h0Z"/></g><polygon class="cls-8" points="37.85 32.66 41.02 30.83 41.02 29.76 37.85 31.59 37.85 32.66"/><path class="cls-28" d="M37.81,31.57,41,29.73l.06,0v1.17L37.87,32.7l-.06,0ZM41,29.83l-3.09,1.79v1L41,30.81Z"/><g class="cls-36"><path class="cls-28" d="M42.88,27.14l.06,0,0,0h0a.55.55,0,0,0,.41-.09,1.6,1.6,0,0,0,.72-1.24.68.68,0,0,0-.05-.27l-.23-.14c-.07,0,.12,0,0-.07-.73-.32-1.71-.27-1.94.16S42.16,26.71,42.88,27.14Z"/><path class="cls-8" d="M42.69,26.69a.56.56,0,0,0,.13.4.27.27,0,0,0,.18.1h0a.55.55,0,0,0,.41-.09,1.6,1.6,0,0,0,.72-1.24.68.68,0,0,0-.05-.27.37.37,0,0,0-.43-.24.78.78,0,0,0-.24.09A1.59,1.59,0,0,0,42.69,26.69Z"/><path class="cls-30" d="M42.94,26.22a.31.31,0,0,0,.32.29.29.29,0,1,0,0-.58A.31.31,0,0,0,42.94,26.22Z"/><path class="cls-28" d="M42.75,26.66a1.45,1.45,0,0,1,.64-1.12.67.67,0,0,1,.29-.08c.22,0,.36.17.36.46A1.39,1.39,0,0,1,43.4,27a.57.57,0,0,1-.29.09C42.89,27.12,42.75,26.94,42.75,26.66Zm.65-1.1a1.4,1.4,0,0,0-.64,1.1c0,.28.14.45.35.45a.51.51,0,0,0,.28-.09,1.4,1.4,0,0,0,.64-1.1c0-.28-.14-.45-.35-.45A.54.54,0,0,0,43.4,25.56Z"/><path class="cls-28" d="M42.92,26.88a.35.35,0,0,1,0-.32,1.37,1.37,0,0,1,.47-.82.4.4,0,0,1,.22-.07c.16,0,.27.13.27.34a1.07,1.07,0,0,1-.48.83.54.54,0,0,1-.32.11A.19.19,0,0,1,42.92,26.88Zm.48-1.13a1.37,1.37,0,0,0-.47.82.33.33,0,0,0,0,.3.15.15,0,0,0,.14.07.61.61,0,0,0,.31-.11,1,1,0,0,0,.47-.82c0-.2-.09-.33-.25-.33A.35.35,0,0,0,43.4,25.75Z"/><path class="cls-28" d="M43.11,26.45a.64.64,0,0,1,.28-.49.38.38,0,0,1,.13,0c.1,0,.16.08.16.21a.64.64,0,0,1-.28.49.38.38,0,0,1-.13,0C43.18,26.66,43.11,26.58,43.11,26.45ZM43.4,26a.59.59,0,0,0-.28.47c0,.12.06.19.15.19h.08a.64.64,0,0,0,.32-.5c0-.12-.06-.19-.15-.19A.19.19,0,0,0,43.4,26Z"/><path class="cls-28" d="M42,27.7l0,0h0a.26.26,0,0,0,.2,0,.79.79,0,0,0,.36-.62.44.44,0,0,0,0-.13l-.12-.07s.06,0,0,0c-.36-.16-.85-.13-1,.08S41.62,27.49,42,27.7Z"/><path class="cls-29" d="M41.88,27.48a.28.28,0,0,0,.07.2.11.11,0,0,0,.09.05h0a.26.26,0,0,0,.2,0,.79.79,0,0,0,.36-.62.44.44,0,0,0,0-.13.18.18,0,0,0-.22-.12.28.28,0,0,0-.12,0A.78.78,0,0,0,41.88,27.48Z"/><path class="cls-30" d="M42,27.25a.16.16,0,0,0,.16.15.15.15,0,1,0,0-.3A.16.16,0,0,0,42,27.25Z"/><path class="cls-28" d="M41.91,27.47a.72.72,0,0,1,.32-.56.27.27,0,0,1,.14,0c.11,0,.19.09.19.23a.7.7,0,0,1-.33.55.24.24,0,0,1-.14.05C42,27.7,41.91,27.61,41.91,27.47Zm.32-.55a.71.71,0,0,0-.31.55c0,.13.07.22.17.22a.43.43,0,0,0,.14,0,.71.71,0,0,0,.32-.55c0-.14-.07-.22-.18-.22A.27.27,0,0,0,42.23,26.92Z"/><path class="cls-28" d="M42,27.42a.52.52,0,0,1,.24-.41l.08,0c.11,0,.16.07.16.18a.54.54,0,0,1-.24.41l-.1,0C42,27.59,42,27.53,42,27.42Zm.24-.41a.56.56,0,0,0-.23.41c0,.1,0,.16.13.16a.19.19,0,0,0,.1,0,.49.49,0,0,0,.23-.4c0-.1,0-.17-.12-.17Z"/><path class="cls-28" d="M42.09,27.36a.3.3,0,0,1,.14-.24l.07,0s.07,0,.07.1a.29.29,0,0,1-.14.24.06.06,0,0,1,0,0A.09.09,0,0,1,42.09,27.36Zm.14-.23a.3.3,0,0,0-.13.23c0,.06,0,.1.07.1l.06,0a.29.29,0,0,0,.14-.24.13.13,0,0,0,0-.09C42.28,27.11,42.26,27.11,42.23,27.13Z"/></g><path class="cls-37" d="M42,27.25c0,.58,1.12.05,1.77-.81-.17-.45-.33-.81-.38-.92a4.68,4.68,0,0,0-.28-.54A4.5,4.5,0,0,0,42,27.25Z"/><path class="cls-38" d="M35.68,29.69l.48.82.06.09,0,0,0,0,0,0,0,0,.1.11v0l0,0,0,0,0,0a.71.71,0,0,0,.14.1l0,0,0,0,0,0,.2.07h.13a1.16,1.16,0,0,0,.32,0h.07a.5.5,0,0,0,.13,0h0a8.23,8.23,0,0,0,2.69-1.32A2.38,2.38,0,0,0,41.1,29v0c.06-.12.11-.24.16-.37a2.34,2.34,0,0,0,.12-.7,0,0,0,0,0,0,0h0a2.44,2.44,0,0,0,0-.27l-.08-1-.15.11A24.56,24.56,0,0,1,35.68,29.69Z"/><path class="cls-34" d="M35.65,29.68l.06.09.08.13,0,0,0,0,0,.05.08.13,0,0,0,0,0,0,.07.14,0,0,0,0,0,0,.06.09,0,0,0,0,0,0,0,0,.1.11,0,0,0,0h0l0,0h0l0,0h0a.67.67,0,0,0,.18.07l.05,0,.06,0h0l.28,0h.18l.06,0h.06c.25-.07.49-.15.76-.25h0l.16-.06h0l.36-.16h0a7.46,7.46,0,0,0,1-.56h0l.3-.21h0l0,0h0l0,0a3.15,3.15,0,0,0,.46-.42l.07-.1h0l0,0v0h0a2,2,0,0,0,.17-.29h0l0-.06a.41.41,0,0,1,0-.09h0a2.18,2.18,0,0,0,.09-.23h0l0-.1h0a.2.2,0,0,0,0-.05h0c0-.07,0-.14,0-.21h0V28a.45.45,0,0,0,0-.06v0c0-.06,0-.13,0-.19v-.14a1.09,1.09,0,0,0,0-.18h0v-.12h0V27h0v-.17l0-.13C40.46,27.12,38.13,28.38,35.65,29.68Z"/><polygon class="cls-34" points="35.95 30.16 35.98 30.2 36 30.24 41.22 27.35 41.37 27.27 41.36 27.24 41.21 27.31 35.95 30.16"/><polygon class="cls-33" points="35.87 30.03 35.95 30.16 35.98 30.2 41.21 27.32 41.21 27.31 41.36 27.24 41.2 27.14 41.19 27.14 35.87 30.03"/><polygon class="cls-34" points="35.8 29.9 35.82 29.94 35.84 29.98 41.19 27.02 41.34 26.94 41.34 26.9 41.19 26.98 35.8 29.9"/><polygon class="cls-33" points="35.71 29.77 35.8 29.9 35.82 29.94 41.19 26.98 41.34 26.9 41.18 26.81 41.17 26.81 35.71 29.77"/><polygon class="cls-34" points="36.09 30.39 36.12 30.43 36.14 30.47 41.23 27.66 41.38 27.57 41.38 27.54 41.23 27.62 36.09 30.39"/><polygon class="cls-33" points="36.02 30.26 36.09 30.39 36.12 30.43 41.23 27.62 41.38 27.54 41.22 27.44 41.21 27.43 36.02 30.26"/><path class="cls-34" d="M36.25,30.64l0,0,0,0L41.2,28l.19-.11h0v0h0l-.18.1Z"/><path class="cls-33" d="M36.16,30.51l.06.09,0,0,0,0L41.21,28l.19-.1-.17-.1h0Z"/><path class="cls-34" d="M36.42,30.86l0,0,0,0,4.87-2.69v0Z"/><path class="cls-33" d="M36.32,30.74l.09.1v0l0,0,4.91-2.69-.17-.09Z"/><polygon class="cls-34" points="36.66 31.04 36.7 31.07 36.74 31.09 41.27 28.59 41.27 28.55 36.66 31.04"/><path class="cls-33" d="M36.52,30.94a.71.71,0,0,0,.14.1l0,0,4.57-2.52-.17-.09Z"/><path class="cls-34" d="M37,31.18h.11l4-2.22h0v0Z"/><path class="cls-33" d="M36.78,31.11l.2.07H37l4.08-2.25-.17-.09Z"/><path class="cls-34" d="M37.43,31.22h.07a.5.5,0,0,0,.13,0l3.16-1.74v0Z"/><path class="cls-33" d="M37.11,31.21a1.16,1.16,0,0,0,.32,0h.07l3.29-1.81-.17-.09Z"/><path class="cls-34" d="M38.18,28.49a1,1,0,0,0,.74-.39c.14-.22,0-.41-.22-.43a.93.93,0,0,0-.74.39C37.82,28.28,37.92,28.47,38.18,28.49Z"/><path class="cls-28" d="M38.22,28.45a.9.9,0,0,0,.73-.39c.15-.22,0-.41-.22-.42A.92.92,0,0,0,38,28C37.85,28.25,38,28.43,38.22,28.45Z"/><path class="cls-39" d="M39,27.8s-.11-.33-.8.08S39.06,28,39,27.8Z"/><path class="cls-15" d="M16.05,20.86a1.3,1.3,0,0,0,.59,1c.32.18.59,0,.59-.34s-.32-.36-.65-.55S16.05,20.49,16.05,20.86Z"/><path class="cls-10" d="M15.69,21.05c.1.12,1.28,1.07,1.7.88.19-.1.19-.15.15-.19a.48.48,0,0,0-.18,0,4.44,4.44,0,0,1-1.44-.86c-.08-.13-.14-.16-.19-.15S15.62,21,15.69,21.05Z"/><path class="cls-4" d="M15.77,20.9c.11.12,1.29,1.07,1.7.88l.07,0a.48.48,0,0,0-.18,0,4.44,4.44,0,0,1-1.44-.86c-.08-.13-.14-.16-.19-.15A.36.36,0,0,0,15.77,20.9Z"/><path class="cls-15" d="M13.73,19.49a1.28,1.28,0,0,0,.6,1c.33.19.59,0,.59-.34s-.33-.36-.65-.54S13.73,19.11,13.73,19.49Z"/><path class="cls-10" d="M13.38,19.68c.1.11,1.28,1.07,1.69.87.2-.09.21-.15.16-.18a.52.52,0,0,0-.19-.05,4.32,4.32,0,0,1-1.43-.86c-.08-.13-.14-.16-.19-.15S13.31,19.6,13.38,19.68Z"/><path class="cls-4" d="M13.46,19.53c.11.12,1.29,1.07,1.7.87l.05,0c0-.05-.17-.06-.17-.06a4.32,4.32,0,0,1-1.43-.86c-.08-.13-.14-.16-.19-.15A.3.3,0,0,0,13.46,19.53Z"/><path class="cls-4" d="M24,22.86c-.22-.41-1.64-.38-1.64-.38s-.37.65,0,.87,1.26.93,1.58.68S24.13,23,24,22.86Z"/><path class="cls-4" d="M22,22.25c.25.1,1,.35.72.83-.08-.35-.59-.46-.82-.55s-2.24-1.11-2.92.38l-.06.17A1,1,0,0,1,19,22.7C19.7,21.21,21.68,22.1,22,22.25Z"/><path class="cls-15" d="M18.94,23.08h0c0,1.07,2.8.85,3.57.26a.75.75,0,0,0,.23-.26.35.35,0,0,0-.13-.2,1.82,1.82,0,0,0-.69-.35s-2-1-2.81.18a1.28,1.28,0,0,0-.11.2Z"/><path class="cls-13" d="M19.11,22.71a6,6,0,0,0,3.5.17,2.33,2.33,0,0,0-.68-.4S19.89,21.52,19.11,22.71Z"/></g></g></g></svg>