<svg xmlns="http://www.w3.org/2000/svg" viewBox="0 0 180.78 124.82"><defs><style>.cls-1{fill:#d1ecee;}.cls-2{fill:#fff;}.cls-3{fill:#5d8c64;}.cls-4{fill:#85c16c;}.cls-5{fill:#5bb7ba;}.cls-6{fill:#4395a3;}.cls-7{fill:#f8c06d;}.cls-8{fill:#403868;}.cls-9{fill:#f6977d;}.cls-10{fill:#1e1b35;}.cls-11{fill:#db6358;}.cls-12{fill:#b2764b;}.cls-13{fill:#f89a44;}.cls-14{fill:#fdba44;}.cls-15{fill:#fbe683;}.cls-16{fill:#b36b39;}</style></defs><g id="Layer_2" data-name="Layer 2"><g id="Layer_1-2" data-name="Layer 1"><rect class="cls-1" width="180.78" height="124.82"/><path class="cls-2" d="M72.5,17.77A4.46,4.46,0,0,0,68,15.24a4.77,4.77,0,0,0-.69-3.7,3.18,3.18,0,0,0-5.4.13C61.43,9,59.28,7,57,7s-4.4,1.92-5.09,4.5c.3-1.12-1.76-3.67-2.37-4.3a5.73,5.73,0,0,0-4-2c-3,.06-5.81,3.27-6.14,6.82a8.19,8.19,0,0,0-3.16-2.1,4,4,0,0,0-3.53.42c-1.6,1.11-2.35,3.6-2,5.78a4.77,4.77,0,0,0-5.14,1.32.87.87,0,0,0-.3.6.79.79,0,0,0,.53.61c2.21.93,5.19.52,7.5.52h29.8c1.36,0,2.71.2,4.06.23s3.58.34,5-.23a.85.85,0,0,0,.46-.38A1.15,1.15,0,0,0,72.5,17.77Z"/><path class="cls-2" d="M163.08,31.22A4.37,4.37,0,0,0,159,29.37a2.92,2.92,0,0,0-.63-2.7,3.34,3.34,0,0,0-5,.1,4.67,4.67,0,0,0-4.48-3.42,5,5,0,0,0-4.65,3.28c.28-.82-1.61-2.67-2.16-3.14A5.77,5.77,0,0,0,138.46,22a6,6,0,0,0-5.62,5A7.75,7.75,0,0,0,130,25.45a4.45,4.45,0,0,0-3.23.31A3.91,3.91,0,0,0,124.91,30a5.16,5.16,0,0,0-4.71,1,.6.6,0,0,0-.27.44c0,.22.27.36.49.44,2,.68,4.75.38,6.86.38h27.27c1.24,0,2.47.14,3.71.16a15.54,15.54,0,0,0,4.53-.16.81.81,0,0,0,.42-.27A.7.7,0,0,0,163.08,31.22Z"/><path class="cls-3" d="M125.16,91.5c-1.4,2.06-.1,4.24-1.23,6.46-.94,1.88-3.24,2.61-5.32,2.94-11.29,1.82-22.65-2.39-34.08-2.82-9.87-.37-19.59,2.1-29.3,3.87a253.88,253.88,0,0,1-39.81,4.12c-5.38.12-9.82,2.53-15-.32L0,105.5V73.91c1.67-3.08,4.8-5.94,8-4.8,1.91.69,3.26,2.68,5.28,3a44,44,0,0,1,3.18-17.73,7.46,7.46,0,0,1,1.65-2.75c2-1.87,5.41-1.25,7.44.6s3,4.55,3.85,7.13c.06-7.62.62-16.05,6-22A14.08,14.08,0,0,1,46.8,32.47c4.13.37,7.81,3,10.39,6.25s4.22,7.13,5.83,11A12.14,12.14,0,0,1,82.4,44.51c2.58,2.23,4.09,5.41,5.54,8.5.79,1.66,1.56,3.32,2.34,5,.51-2.22,1.11-4.6,2.88-6,2.67-2.14,6.81-1,9.32,1.3s3.9,5.56,5.77,8.43c.58-2.11,3.11-3.22,5.27-2.83a9.61,9.61,0,0,1,5.36,3.58c3.61,4.26,5.53,9.67,7.39,15a20.86,20.86,0,0,1,1.61,7.46C127.79,87.53,126.6,89.39,125.16,91.5Z"/><path class="cls-3" d="M180.78,96.85v5.33a3.86,3.86,0,0,1-1.34,2c-1.88,1.43-4.57.55-6.74-.37-9.5-4.07-19.07-8.38-29.31-9.74a8.64,8.64,0,0,1-2.8-.68,5.92,5.92,0,0,1-1.81-1.54c-6.29-7.38-2-17.24,5.36-21.91,1.82-1.17,4.32-1.93,6-.62,1.26.94,1.61,2.65,1.85,4.2a17.53,17.53,0,0,1,8.23-5.9,5.44,5.44,0,0,1,3.37-.3c1.77.57,2.71,2.54,3,4.39s0,3.74.37,5.56c.58-1.87,3.29-2.3,4.91-1.2s2.34,3.12,2.71,5a23.35,23.35,0,0,1-.09,9.42,3.25,3.25,0,0,1,4.34.3A5.83,5.83,0,0,1,180,93.18,34.79,34.79,0,0,1,180.78,96.85Z"/><path class="cls-4" d="M180.78,98.16v26.66H0V97.46l1.47-1.34C28.26,71.64,60.23,72.52,90,71.91c2.34,0,4.66-.09,7-.11,16.71-.12,33.58.71,50,6.32a85.86,85.86,0,0,1,23.65,12.33C174,92.9,177.5,95.22,180.78,98.16Z"/><path class="cls-3" d="M131.94,109.18c-.06-.12-.44-.08-.37,0a6.51,6.51,0,0,1,.63,2c0,.14.41.13.39,0A6.57,6.57,0,0,0,131.94,109.18Z"/><path class="cls-3" d="M104.78,120.24c-.06-.12-.45-.08-.38.06a6.18,6.18,0,0,1,.63,2c0,.14.41.13.39,0A6.61,6.61,0,0,0,104.78,120.24Z"/><path class="cls-3" d="M141,109.51c0-.12-.37-.14-.39,0a7.28,7.28,0,0,0-.13,1.68c0,.14.4.14.39,0A7.88,7.88,0,0,1,141,109.51Z"/><path class="cls-3" d="M144,118.23c-.06-.12-.45-.08-.38,0a6.31,6.31,0,0,1,.63,2c0,.14.41.13.39,0A6.29,6.29,0,0,0,144,118.23Z"/><path class="cls-3" d="M153,118.57c0-.13-.36-.15-.39,0a8.53,8.53,0,0,0-.13,1.68c0,.14.4.13.4,0A7.83,7.83,0,0,1,153,118.57Z"/><path class="cls-3" d="M154,103.63v1.74c0,.14.39.14.39,0v-1.74C154.39,103.49,154,103.49,154,103.63Z"/><path class="cls-3" d="M159.73,110.5c0-.12-.43-.09-.38.06a15.65,15.65,0,0,1,.59,2.43c0,.15.41.13.39,0A18,18,0,0,0,159.73,110.5Z"/><path class="cls-3" d="M166.28,113.05c0-.14-.4-.13-.39,0,.09.8.17,1.6.26,2.4,0,.14.41.13.39,0C166.46,114.65,166.37,113.85,166.28,113.05Z"/><path class="cls-3" d="M179.8,105.67c0-.13-.38-.15-.4,0a14.56,14.56,0,0,0-.06,2c0,.14.39.14.39,0A14.56,14.56,0,0,1,179.8,105.67Z"/><path class="cls-3" d="M169.72,104.46c-.13-.62-.25-1.24-.38-1.86,0-.14-.41-.12-.39,0,.13.62.25,1.24.38,1.86C169.36,104.61,169.75,104.59,169.72,104.46Z"/><path class="cls-3" d="M173.62,119c-.09.66-.19,1.32-.28,2,0,.13.37.15.39,0,.1-.66.19-1.32.29-2C174,118.91,173.64,118.9,173.62,119Z"/><path class="cls-3" d="M172.44,94.74c0,.5-.05,1-.08,1.5,0,.14.38.14.39,0l.08-1.5C172.83,94.61,172.44,94.6,172.44,94.74Z"/><path class="cls-3" d="M103.67,91.08c0-.15-.41-.13-.39,0l.28,2c0,.14.41.13.39,0Z"/><path class="cls-3" d="M118.83,115c-.14-.66-.25-1.32-.34-2,0-.14-.41-.13-.39,0,.09.67.2,1.33.34,2C118.47,115.18,118.86,115.16,118.83,115Z"/><path class="cls-3" d="M132.92,123.09c-.14-.66-.26-1.32-.34-2,0-.14-.41-.13-.39,0,.08.67.2,1.33.34,2C132.56,123.23,132.94,123.21,132.92,123.09Z"/><path class="cls-3" d="M125.19,106.23s-.22,0-.24.07a6.26,6.26,0,0,0-.19,1.83c0,.14.4.13.39,0a5.83,5.83,0,0,1,.18-1.77C125.35,106.27,125.26,106.24,125.19,106.23Z"/><path class="cls-3" d="M125.19,121.32s-.22,0-.24.07a6.26,6.26,0,0,0-.19,1.83c0,.14.4.14.39,0a5.86,5.86,0,0,1,.18-1.77C125.35,121.37,125.26,121.33,125.19,121.32Z"/><path class="cls-3" d="M77.28,96c-.23-.84-.46-1.69-.7-2.53,0-.12-.42-.1-.37,0l.69,2.53C76.93,96.21,77.32,96.19,77.28,96Z"/><path class="cls-3" d="M82,89.18c-.07,0-.18,0-.19.1a11.5,11.5,0,0,0-.23,1.56c0,.13.38.14.39,0a11.5,11.5,0,0,1,.23-1.56C82.24,89.2,82.08,89.18,82,89.18Z"/><path class="cls-3" d="M11.64,123l-1-2c-.06-.11-.45-.07-.38.06l1,2C11.32,123.2,11.71,123.16,11.64,123Z"/><path class="cls-3" d="M3.77,114c0-.14-.41-.13-.39,0l.24,2.16c0,.14.41.13.4,0C3.93,115.45,3.85,114.73,3.77,114Z"/><path class="cls-3" d="M3.39,104.53c-.19-.82-.4-1.63-.63-2.44,0-.12-.42-.1-.38,0,.23.79.43,1.59.62,2.39C3,104.67,3.42,104.65,3.39,104.53Z"/><path class="cls-3" d="M24.08,121.73c.1-.83.18-1.67.24-2.5,0-.13-.36-.24-.38-.08-.06.82-.13,1.63-.23,2.45C23.69,121.75,24.06,121.86,24.08,121.73Z"/><path class="cls-3" d="M18.6,101.49a8.69,8.69,0,0,0-.4,3c0,.14.4.13.39,0a8.41,8.41,0,0,1,.39-3C19,101.4,18.64,101.37,18.6,101.49Z"/><path class="cls-3" d="M12.54,95.31c-.17-.6-.33-1.2-.5-1.8,0-.12-.42-.1-.38.06l.5,1.79C12.2,95.48,12.58,95.46,12.54,95.31Z"/><path class="cls-3" d="M12.34,112.42a6.34,6.34,0,0,1-.48-1.59c0-.08-.12-.1-.19-.1s-.21,0-.2.1a6.81,6.81,0,0,0,.49,1.65C12,112.6,12.4,112.56,12.34,112.42Z"/><path class="cls-3" d="M29.94,115.48c-.32-1-.63-1.92-.94-2.88,0-.13-.43-.1-.38.05.31,1,.63,1.92.94,2.89C29.6,115.66,30,115.63,29.94,115.48Z"/><path class="cls-3" d="M41.68,114.31c0,.7-.07,1.4-.07,2.1,0,.14.39.14.39,0,0-.7,0-1.4.07-2.1C42.08,114.18,41.69,114.17,41.68,114.31Z"/><path class="cls-3" d="M37.08,106.39c0-.14-.4-.14-.39,0,.05.78.11,1.56.16,2.34,0,.14.4.13.39,0C37.19,108,37.14,107.17,37.08,106.39Z"/><path class="cls-3" d="M53.54,109.66l-.75-2.58c0-.12-.42-.1-.37.06.24.85.49,1.71.74,2.57C53.2,109.83,53.58,109.81,53.54,109.66Z"/><path class="cls-3" d="M76.68,121.73c-.25-.86-.5-1.71-.74-2.57,0-.12-.43-.1-.38,0,.25.86.5,1.72.74,2.58C76.34,121.91,76.73,121.89,76.68,121.73Z"/><path class="cls-3" d="M63.71,113.41a12.6,12.6,0,0,0-.32,2.52c0,.14.39.14.4,0a11.9,11.9,0,0,1,.31-2.52C64.13,113.29,63.74,113.27,63.71,113.41Z"/><path class="cls-3" d="M95.13,116.23l-.36-1.38c0-.08-.12-.1-.2-.1s-.21,0-.19.1l.36,1.38c0,.09.12.1.19.1S95.15,116.31,95.13,116.23Z"/><path class="cls-3" d="M24.15,86.75a9.25,9.25,0,0,0-1.22-3c-.08-.12-.46-.07-.38,0a9.19,9.19,0,0,1,1.21,3C23.79,86.89,24.18,86.87,24.15,86.75Z"/><path class="cls-3" d="M29.5,81.61v1.76c0,.14.4.14.4,0V81.61C29.9,81.47,29.5,81.47,29.5,81.61Z"/><path class="cls-3" d="M48.3,123a9.15,9.15,0,0,0-1.23-3c-.07-.12-.45-.07-.37,0a9.38,9.38,0,0,1,1.21,3C47.94,123.11,48.33,123.09,48.3,123Z"/><path class="cls-3" d="M53.65,117.83v1.77c0,.13.39.14.39,0v-1.77C54,117.7,53.65,117.7,53.65,117.83Z"/><path class="cls-3" d="M23.7,93.2c-.59.5-1.26.79-1.42,1.65a3.79,3.79,0,0,0,.19,1.76,1.56,1.56,0,0,0,.57,1c.24.15.55.16.8.29s.54.65.86.94a2.48,2.48,0,0,0,1.7.43,39,39,0,0,1,6.92.11,16.27,16.27,0,0,0,4,.58,8.7,8.7,0,0,1,2.32-.16c.47.09.89.33,1.36.44a7.19,7.19,0,0,0,2.31-.07c2-.19,3.95.19,5.92.06,1.29-.09,2.56-.41,3.85-.49,1.84-.1,3.68.27,5.53.27a26.35,26.35,0,0,0,4.75-.58l4.76-.87a4.76,4.76,0,0,0,2.61-1.05c2.39-2.38-.29-5.66-2.68-6.6a12.11,12.11,0,0,0-4.14-.67c-3.2-.08-6.38.37-9.58.53-5.48.28-11-.28-16.45-.26a43.64,43.64,0,0,0-9.29.7A12.3,12.3,0,0,0,23.7,93.2Z"/><path class="cls-2" d="M23.7,92.15a2.39,2.39,0,0,0-1,2.37,4.3,4.3,0,0,0,2.66,2.72,14.81,14.81,0,0,0,4.29,1c3.54.37,7.11.41,10.67.44,8.08.07,16.17.13,24.21-.52a16.58,16.58,0,0,0,4-.68c2.2-.76,3.31-2.3,2.81-4.19A5.37,5.37,0,0,0,68,89.82a11.87,11.87,0,0,0-4.14-.68c-3.2-.07-6.38.38-9.58.54-5.48.27-11-.28-16.45-.27a43,43,0,0,0-9.29.71A12.43,12.43,0,0,0,23.7,92.15Z"/><path class="cls-5" d="M70.43,93.52a3.88,3.88,0,0,1-2.73,2.27,19.89,19.89,0,0,1-4.72.77c-1.67.11-3.34.11-5,.11l-5.19,0-10.38,0c-3.43,0-6.86,0-10.28-.15-.87,0-1.74-.12-2.62-.21A13.76,13.76,0,0,1,27.2,96a3.79,3.79,0,0,1-3-2.75,2.24,2.24,0,0,1,0-.93c0-.06-.18-.08-.2,0A3.11,3.11,0,0,0,25.7,95.5a10.5,10.5,0,0,0,4.53,1c3.5.31,7,.29,10.55.29l10.79,0H57c1.74,0,3.48,0,5.22-.08a25.91,25.91,0,0,0,5-.64,5.21,5.21,0,0,0,3.07-1.72,2.7,2.7,0,0,0,.41-.79C70.64,93.47,70.45,93.46,70.43,93.52Z"/><path class="cls-2" d="M26.26,97.43c0-.25-.33-.39-.55-.42a.8.8,0,0,0-.66.22.81.81,0,0,0-.27.62s0,0,0,.05a4.79,4.79,0,0,0-2.41,1.67c-.05.07.12.1.16.08.38-.19.76-.39,1.13-.6l-.15.14a2.71,2.71,0,0,0-.79,1c0,.06.13.09.17.07a11.53,11.53,0,0,0,1.31-1,6.74,6.74,0,0,0-.61,1c0,.06.14.08.18.07a3,3,0,0,0,.83-.77,10.56,10.56,0,0,0-.34,1.09c0,.06.15.1.18.06a5.3,5.3,0,0,0,.95-2.43.61.61,0,0,0,.56-.23,1.19,1.19,0,0,0,.22-.33A.66.66,0,0,0,26.26,97.43Z"/><path class="cls-2" d="M23.29,94.1a.59.59,0,0,0-.15-.66.84.84,0,0,0-.65-.27.85.85,0,0,0-.6.3l0,0a4.81,4.81,0,0,0-2.92-.28c-.08,0,0,.16.08.17.41.1.83.18,1.24.26l-.2,0a2.78,2.78,0,0,0-1.27.26c-.05,0,.05.16.09.17a15.16,15.16,0,0,0,1.64.09,6.92,6.92,0,0,0-1.13.4c-.06,0,.05.16.09.16a2.81,2.81,0,0,0,1.12,0,10.26,10.26,0,0,0-1,.61c-.06,0,0,.17.1.16A5.3,5.3,0,0,0,22,94.26a.61.61,0,0,0,.58.18,1,1,0,0,0,.37-.11A.62.62,0,0,0,23.29,94.1Z"/><path class="cls-2" d="M33.51,98.3a.6.6,0,0,0-.68-.06.8.8,0,0,0-.45.53.83.83,0,0,0,.1.67l0,0a4.81,4.81,0,0,0-1.17,2.69c0,.08.16,0,.18,0,.22-.36.44-.73.64-1.11,0,.07,0,.13-.05.2a2.83,2.83,0,0,0-.14,1.29c0,.06.17,0,.19,0a11.93,11.93,0,0,0,.59-1.54,6.88,6.88,0,0,0,0,1.2c0,.07.16,0,.18,0a3,3,0,0,0,.31-1.08,10.25,10.25,0,0,0,.28,1.09c0,.07.18,0,.19,0a5.3,5.3,0,0,0-.48-2.56.62.62,0,0,0,.36-.5,1.7,1.7,0,0,0,0-.39A.75.75,0,0,0,33.51,98.3Z"/><path class="cls-2" d="M43.29,98a.61.61,0,0,0-.67.15.85.85,0,0,0-.26.65.83.83,0,0,0,.31.6l0,0a4.8,4.8,0,0,0-.26,2.92c0,.08.16,0,.17-.08.09-.41.18-.83.25-1.25,0,.07,0,.14,0,.2a2.63,2.63,0,0,0,.28,1.27c0,.06.16,0,.16-.09a11.19,11.19,0,0,0,.07-1.64,7,7,0,0,0,.42,1.13c0,.06.15,0,.16-.09a3.07,3.07,0,0,0-.05-1.13c.19.33.39.65.61,1,0,0,.18-.05.17-.11a5.39,5.39,0,0,0-1.27-2.27.64.64,0,0,0,.18-.59,1,1,0,0,0-.11-.37A.6.6,0,0,0,43.29,98Z"/><path class="cls-2" d="M53.41,98a.59.59,0,0,0-.68,0,.84.84,0,0,0-.31,1.21l0,0A4.78,4.78,0,0,0,51.41,102c0,.08.16,0,.18,0,.21-.37.4-.75.59-1.13,0,.07,0,.13,0,.2a2.7,2.7,0,0,0-.08,1.29c0,.07.16,0,.18,0a12.07,12.07,0,0,0,.53-1.57,6.11,6.11,0,0,0,.08,1.21c0,.06.16,0,.18,0a2.81,2.81,0,0,0,.26-1.1,10.51,10.51,0,0,0,.33,1.09c0,.06.18,0,.18-.06a5.26,5.26,0,0,0-.58-2.54.63.63,0,0,0,.34-.51,1.28,1.28,0,0,0,0-.39A.61.61,0,0,0,53.41,98Z"/><path class="cls-2" d="M63,98.08a.59.59,0,0,0-.65.21.81.81,0,0,0-.21.66.85.85,0,0,0,.35.58l.06,0a4.73,4.73,0,0,0,0,2.93c0,.08.16,0,.16-.09.06-.42.12-.84.16-1.26l0,.2a2.69,2.69,0,0,0,.38,1.24c0,.05.15-.06.15-.1a13,13,0,0,0,0-1.65,5.73,5.73,0,0,0,.5,1.1c0,.06.15-.06.15-.1a3,3,0,0,0-.14-1.12,9.77,9.77,0,0,0,.69.9c0,.05.17-.06.15-.12a5.34,5.34,0,0,0-1.44-2.17.6.6,0,0,0,.14-.59,1.31,1.31,0,0,0-.15-.37A.65.65,0,0,0,63,98.08Z"/><path class="cls-2" d="M70.44,95.06c-.25,0-.41.29-.46.51a.83.83,0,0,0,.16.68.85.85,0,0,0,.59.32h.06a4.7,4.7,0,0,0,1.44,2.55c.07,0,.11-.11.1-.16-.16-.39-.33-.78-.5-1.17l.12.16a2.76,2.76,0,0,0,1,.88c.06,0,.11-.12.09-.16-.26-.48-.56-.9-.79-1.4l1.27,1a1,1,0,0,0-.26-.68c-.16-.2-.34-.38-.48-.59a5,5,0,0,0,1.14.2s.1,0,.13,0,0-.13-.08-.17a7.62,7.62,0,0,0-1.06-.55,3.34,3.34,0,0,0-.87-.31,3.51,3.51,0,0,1-.7-.12.65.65,0,0,0-.18-.59,1.43,1.43,0,0,0-.31-.24A.66.66,0,0,0,70.44,95.06Z"/><path class="cls-6" d="M56.39,79.38l-.06.81h0c0,.18,0,.36,0,.54s0,.64-.07,1c0,.55-.12,1.1-.22,1.64a4.64,4.64,0,0,1-.11.51,1,1,0,0,1,0,.17,3.71,3.71,0,0,1-.94,1.73,9.08,9.08,0,0,1-4.08,1.67,51.06,51.06,0,0,1-5.61,1l-1.41.13-.42,0a8.85,8.85,0,0,0-1.85.41,5.62,5.62,0,0,0-.89.43l-.22.14a6.36,6.36,0,0,0-.57.46c-.42.36-.8.77-1.22,1.13a6,6,0,0,1-.47.38,11.12,11.12,0,0,1-5.12,1.59c-.7.09-1.41.19-2.11.23l-.79,0a7,7,0,0,1-2.58-.44,1.14,1.14,0,0,1-.6-.43.78.78,0,0,1-.09-.4,1.76,1.76,0,0,1,0-.23c0-.11,0-.22,0-.33a6.86,6.86,0,0,1,1.58-3.26l.55-.66c1.44-1.64,3.17-3.19,3.85-5.23a8,8,0,0,0,.36-1.94q0-.58.06-1.17c0-.17,0-.33,0-.5,0-.58,0-1.15.07-1.72s.07-1.15.11-1.72c.07-1,.17-2,.28-3s.23-1.93.37-2.89c.08-.55.17-1.11.27-1.67A19.86,19.86,0,0,1,37.06,60c.16-.23.32-.45.49-.67a9.29,9.29,0,0,1,1.18-1.25,6.8,6.8,0,0,0,1-.93,7.16,7.16,0,0,0,.6-1,8.33,8.33,0,0,1,2.11-2.47c.18-.14.36-.28.56-.41a7.69,7.69,0,0,1,1.35-.74,6,6,0,0,1,3.52-.2c.26,0,.5.09.75.15l.42.1a4.53,4.53,0,0,1,3.45,2.56c.66,1.31,1.27,2.68,1.81,4.07.08.2.15.39.22.59a33.39,33.39,0,0,1,1.73,6.39c.16,1,.28,2,.35,3.07,0,.24,0,.47,0,.71A73.37,73.37,0,0,1,56.39,79.38Z"/><path class="cls-5" d="M53,73l.1-.09c1.13-1,2.33-1.93,3.53-2.87,0-.24,0-.47,0-.71-1.08.84-2.17,1.67-3.21,2.55l-.64.55L51.4,69.5l-.15-.34c-.76-1.6-1.52-3.2-2.3-4.8.6-.49,1.21-1,1.82-1.44l.63-.49c1.06-.83,2.13-1.68,3.12-2.59-.07-.2-.14-.39-.22-.59a39.65,39.65,0,0,1-3.12,2.65c-.82.65-1.66,1.29-2.48,2-1.32-2.69-2.7-5.34-4.17-7.94.34-.27.68-.55,1-.85l.35-.31a30.63,30.63,0,0,1,2.4-2l.33-.23c-.25-.06-.49-.11-.75-.15a26.25,26.25,0,0,0-2.48,2h0c-.38.35-.77.68-1.16,1-.29-.52-.6-1-.91-1.54-.11-.18-.22-.36-.32-.54-.2.13-.38.27-.56.41l.27.45.47.8.49.87c-.36.28-.74.56-1.13.82a27.84,27.84,0,0,0-2.74,2,9,9,0,0,0-1,1,8.9,8.9,0,0,0-.65.92c-.2-.4-.4-.8-.59-1.21-.17.22-.33.44-.49.67.21.43.44.86.66,1.29v0c-.61,1.22-1.13,2.49-1.68,3.75S35,67.62,34.41,68.89l-.24.56c-.14,1-.26,1.92-.37,2.89.31-.79.63-1.58,1-2.36s.59-1.39.88-2.09c.79-1.85,1.61-3.7,2.42-5.54l.1-.21a32.74,32.74,0,0,1,1.49,3.18c.8,2.05,1.06,4.27,1.79,6.35,0,.09.07.18.1.28a12,12,0,0,1-1.87,1.68,39,39,0,0,0-4.74,3.86l-.23.24-.13.13c-.14-.3-.27-.61-.4-.92-.22-.53-.44-1.06-.64-1.6,0,.57-.08,1.15-.11,1.72.2.47.4.94.61,1.4-.24.27-.47.54-.7.82q0,.59-.06,1.17.51-.69,1.05-1.35c.11.22.21.45.32.67,1,2.11,2.09,4.19,3.16,6.26.36.72.73,1.43,1.1,2.14a11.64,11.64,0,0,1-6.34,2.75h0a17.79,17.79,0,0,1-2.31,0c-.11-.38-.23-.75-.36-1.12q-.39-1.08-.81-2.16l-.55.66c.21.53.41,1.07.6,1.61.12.33.23.66.33,1a6.6,6.6,0,0,0-2.35.58l-.16.07c0,.11,0,.22,0,.33a1.76,1.76,0,0,0,0,.23l.1,0a6.34,6.34,0,0,1,2.54-.76h0c.2.69.38,1.39.61,2.08l.79,0c-.23-.67-.41-1.36-.61-2a17.24,17.24,0,0,0,1.76,0l.38,0a12.61,12.61,0,0,0,6.7-2.63c.22.44.46.88.69,1.32l.13.25c.2-.14.39-.29.58-.44l-.14-.27-.69-1.32q.38-.31.72-.66a53.4,53.4,0,0,0,5.19-6.52l.59,1.25,1.07,2.28c-.21.21-.4.46-.59.69s-.61.69-.93,1c-.63.67-1.29,1.32-2,1.93l-.41.35.42,0c.68-.58,1.32-1.19,1.94-1.82.33-.34.65-.69,1-1s.46-.57.7-.84l.2.41c.11.24.88.17.75-.11L48,84.36a4.57,4.57,0,0,1,1.21-.3c.53-.11,1.05-.2,1.58-.28l.42-.06a.58.58,0,0,0,.32,0,12.39,12.39,0,0,1,2.51-.05,7.85,7.85,0,0,1,1.59.31l.21.07a1,1,0,0,0,0-.17,7.74,7.74,0,0,0-.86-.23,8.59,8.59,0,0,0-1.43-.17,11.37,11.37,0,0,0-1.75,0q2-1.35,3.89-2.84l.48,1c0-.32.05-.64.07-1s0-.36,0-.54h0l.06-.81-.31.26C55.06,77.42,54,75.19,53,73ZM41.5,69.23c-.25-1.07-.47-2.14-.8-3.18a30.35,30.35,0,0,0-2.16-4.71A7.72,7.72,0,0,1,40,59.24a17.48,17.48,0,0,1,2.66-2c.43-.28.85-.57,1.27-.87,1,1.8,2,3.62,2.91,5.46.42.83.84,1.67,1.25,2.51a23.52,23.52,0,0,0-4.44,4.53c-.56.79-1,1.63-1.6,2.41C41.86,70.58,41.67,69.91,41.5,69.23Zm-.85,17.24a15.23,15.23,0,0,1-1.2,1.21q-1.55-3-3.05-6c-.53-1.07-1.06-2.14-1.56-3.22a28.05,28.05,0,0,1,4.49-3.94,20.24,20.24,0,0,0,2.42-1.9l0,0c.7,1.81,1.56,3.55,2.39,5.3l1.16,2.48C43.79,82.44,42.37,84.58,40.65,86.47Zm4.67-7.82c-1-2.05-2-4.08-2.8-6.2L42.34,72a16.94,16.94,0,0,0,1.25-1.76A21.4,21.4,0,0,1,47,66.09c.45-.43.93-.85,1.41-1.25q1.29,2.66,2.53,5.33l1.27,2.74c-1.28,1.16-2.5,2.39-3.67,3.67-.73.8-1.43,1.62-2.12,2.46l-.56.7ZM51,83.42a.1.1,0,0,0,0,.17l-.44.07c-.51.08-1,.17-1.54.27a5.46,5.46,0,0,0-1,.26l-1.29-2.75c-.17-.34-.33-.69-.49-1,.57-.74,1.15-1.46,1.76-2.17a54.92,54.92,0,0,1,4.53-4.75l1.05,2.27c.67,1.45,1.33,2.9,2,4.36Q53.3,81.86,51,83.42Z"/><path class="cls-7" d="M65.77,83.49a15.46,15.46,0,0,1,3.56,2.29,3.83,3.83,0,0,1,1.42,2.36,3.08,3.08,0,0,1-1.54,2.72,7.21,7.21,0,0,1-3.13.89,17.66,17.66,0,0,1-3.17.06,28.24,28.24,0,0,1-4.17-.74l-6.36-1.44a13.1,13.1,0,0,1-3.26-1.06,5.37,5.37,0,0,1-2.87-5.48c.43-2.23,2.21-4.43,4.61-4.1a55.44,55.44,0,0,1,9.64,2.39A38.62,38.62,0,0,1,65.77,83.49Z"/><path class="cls-8" d="M51.53,81.77a1.37,1.37,0,0,0,.32-.4,4.22,4.22,0,0,0,.23-2,19.12,19.12,0,0,1,.19-3.3c.53-3.67,1.56-7,.72-10.7a37.75,37.75,0,0,0-1.9-5.67c-.68-1.75-1.28-4.32-3.18-5a6,6,0,0,0-5.29.65c-2.33,1.54-3.19,4.52-3.72,7.27-.66,3.48-1.07,7-1.48,10.53A39.25,39.25,0,0,0,37,80a3.39,3.39,0,0,0,.63,2c.74.83,2,.8,3.13.7l6.07-.53c1-.09,2.09-.22,3.14-.28C50.65,81.89,51.14,82.08,51.53,81.77Z"/><path class="cls-2" d="M61,70.41H65.8a0,0,0,0,1,0,0v3.38A1.81,1.81,0,0,1,64,75.61H62.85A1.81,1.81,0,0,1,61,73.79V70.41A0,0,0,0,1,61,70.41Z"/><path class="cls-2" d="M61.55,74.52H60.36a1,1,0,0,1-1-1V71.94a1,1,0,0,1,1-1h1.19a1,1,0,0,1,1.05,1v1.54A1,1,0,0,1,61.55,74.52Zm-1.19-3.23a.66.66,0,0,0-.66.65v1.54a.66.66,0,0,0,.66.65h1.19a.65.65,0,0,0,.65-.65V71.94a.65.65,0,0,0-.65-.65Z"/><path class="cls-9" d="M45.55,71.57l-.28,0a3.56,3.56,0,0,0-1.61.41,1.81,1.81,0,0,0-.42,2.51,2.33,2.33,0,0,0,1.4.71,17.43,17.43,0,0,0,6.13-.42c1.87-.33,3.74-.57,5.63-.74a12.54,12.54,0,0,0,1.83-.23.5.5,0,0,0,.27-.14.43.43,0,0,0,.06-.27c0-1-.27-1.65-1.45-1.65-2.11-.08-4.22,0-6.33-.06C49,71.65,47.29,71.47,45.55,71.57Z"/><path class="cls-8" d="M45.55,71.54a5.72,5.72,0,0,0-1.24.11,2.08,2.08,0,0,0-.8.36,2.34,2.34,0,0,0-.76,2,3,3,0,0,0,.47,1.17,2,2,0,0,0,.58.65,3,3,0,0,0,2.05.14c2.88-.45,5.83-.34,8.75-.52a.84.84,0,0,0,.54-.16.65.65,0,0,0,.16-.4,12.79,12.79,0,0,0,.13-1.85c0-.26,0-.52,0-.78s.08-.5-.09-.69a.94.94,0,0,0-.68-.2c-2.8,0-5.59.21-8.38.15Z"/><path class="cls-9" d="M45.87,58.66a13.27,13.27,0,0,1,.67,4.87,30.35,30.35,0,0,0,.15,6,12.24,12.24,0,0,1,.46,3,3.15,3.15,0,0,1-1.09,2.14,2.15,2.15,0,0,1-2.5,0,3,3,0,0,1-.88-1.3,30.93,30.93,0,0,1-2-10.73,11.34,11.34,0,0,1,.28-3.29c.37-1.34,1.76-3.81,3.49-2.88a2.57,2.57,0,0,1,1,1.09A7.46,7.46,0,0,1,45.87,58.66Z"/><path class="cls-9" d="M60.39,71.86v-.08a.33.33,0,0,0-.22-.27.37.37,0,0,0-.32.14c-.08.09-.14.19-.22.29a.26.26,0,0,1-.29.11c-.31-.14.34-.58,0-.77a.36.36,0,0,0-.23,0,5.82,5.82,0,0,0-1.37.26,5.73,5.73,0,0,1-1.35.36.39.39,0,0,0-.26.06.42.42,0,0,0-.09.14c0,.11,0,.24-.09.36a1.4,1.4,0,0,0-.09.31,1.55,1.55,0,0,0,.08.67.47.47,0,0,0,.06.15.75.75,0,0,0,.15.16,5,5,0,0,0,1.8,1c.54.16,1.37.48,1.84,0a.37.37,0,0,0,.06-.45.74.74,0,0,0,.37-.37.32.32,0,0,0-.18-.43.85.85,0,0,0,.34-.51.44.44,0,0,0-.3-.49,1.07,1.07,0,0,0,.19-.28A.58.58,0,0,0,60.39,71.86Z"/><path class="cls-10" d="M44.88,53.55c-.2-.1-.3-.27-.45-.58a17.94,17.94,0,0,0-1.37-2,6.58,6.58,0,0,1-.81-1.69,4.21,4.21,0,0,1,.32-3.73,4.16,4.16,0,0,1,2-1.39,7.49,7.49,0,0,1,3.11-.48,5.34,5.34,0,0,1,1.44.22,2.76,2.76,0,0,1,1,.92c.42.61,0,1.48-.21,2.11a27.53,27.53,0,0,1-.87,3,12.89,12.89,0,0,1-1.65,2.79,3.18,3.18,0,0,1-.76.75,2,2,0,0,1-1.32.23A1.2,1.2,0,0,1,44.88,53.55Z"/><path class="cls-9" d="M49.52,56.48a2.94,2.94,0,0,1-.09-1.33c0-.15,0-.31.07-.46l.15-.8a1.42,1.42,0,0,0-.8-1.48l-.34-.21a3.09,3.09,0,0,0-1.62-.47,1.86,1.86,0,0,0-1.37.39A4.43,4.43,0,0,0,44.75,54a5.42,5.42,0,0,0-.45,1.34,1.68,1.68,0,0,0,.55,1.23,4.71,4.71,0,0,0,1.44.83l2,.84a6.54,6.54,0,0,0,1.77.57,1.94,1.94,0,0,0-.21-1.48A6.46,6.46,0,0,1,49.52,56.48Z"/><path class="cls-11" d="M49.65,53.89l-.15.8c0,.15,0,.31-.07.46l-.06,0a2.9,2.9,0,0,1-1.53-1.22.78.78,0,0,1,.1-.85,1.5,1.5,0,0,1,.91-.65A1.42,1.42,0,0,1,49.65,53.89Z"/><path class="cls-9" d="M52.65,49.82a.8.8,0,0,1-.31.55,1.22,1.22,0,0,0-.25.89c0,.38,0,.77.06,1.15a2.49,2.49,0,0,1-.06.82c-.23.76-1.33.83-2,.9a3,3,0,0,1-.79,0,3.8,3.8,0,0,1-.82-.21,4.48,4.48,0,0,1-1.13-.58,3.11,3.11,0,0,1-.89-.84c-.26-.43-.57-.23-.93-.17s-.74-.29-.94-.58a3.32,3.32,0,0,1-.46-1.19,5.92,5.92,0,0,1,.28-3.51,5.12,5.12,0,0,1,4.32-2.9,1.7,1.7,0,0,1,1,.46,3.58,3.58,0,0,1,.26.29l.3.37c1,1.17.15,3.06,1.46,3.63C52.06,49.15,52.57,49.38,52.65,49.82Z"/><path class="cls-10" d="M43.41,50.58a5.91,5.91,0,0,1,2-5.64A5,5,0,0,1,47.7,43.8a3.66,3.66,0,0,1,2,.07,1.19,1.19,0,0,1,.66.91,1.59,1.59,0,0,1-.27,1.11c-.51.77-1.52,1.09-2,1.89a4.57,4.57,0,0,0-.41,1.28,8.56,8.56,0,0,1-2.67,4.26.53.53,0,0,1-.38.17c-.19,0-.3-.21-.38-.38A11.36,11.36,0,0,1,43.41,50.58Z"/><path class="cls-9" d="M47.62,49.28a.82.82,0,0,0-.7-.17,1.16,1.16,0,0,0-.51,1.77,2.3,2.3,0,0,0,1,.92.92.92,0,0,0,.32.1c.46,0,.61-.52.62-.88a2.52,2.52,0,0,0-.27-1.14A1.51,1.51,0,0,0,47.62,49.28Z"/><path class="cls-10" d="M49,48l-.09,0c.07-.64.7-1,1.26-1.09h.15c.31,0,.31.32.06.42a5.76,5.76,0,0,1-.59.18,2.2,2.2,0,0,0-.54.25.86.86,0,0,0-.14.13Z"/><path class="cls-10" d="M50.43,48.74a.27.27,0,0,0-.35-.18c-.2.09-.15.44-.08.6a.22.22,0,0,0,.38.13A.54.54,0,0,0,50.43,48.74Z"/><path class="cls-10" d="M41.94,44.56a3,3,0,0,0-1.17-.84.77.77,0,0,0-.45,0c-.28.1-.35.47-.38.77a1.11,1.11,0,0,0-1.53.27,1.62,1.62,0,0,0-.08,1.65,3.09,3.09,0,0,0,1.22,1.21.35.35,0,0,0-.3.35.74.74,0,0,0,.22.45A2.22,2.22,0,0,0,41,49a2,2,0,0,0,2-2.43A5.52,5.52,0,0,0,41.94,44.56Z"/><path class="cls-11" d="M51.24,51.7a.17.17,0,0,0-.14,0,.72.72,0,0,1-.72-.25s-.23,0-.17,0a1,1,0,0,0,1,.29S51.27,51.73,51.24,51.7Z"/><path class="cls-8" d="M49.47,44.33c0-.06-.21,0-.19,0a2,2,0,0,1-1,2.27s0,0,0,.07a.14.14,0,0,0,.14,0A2,2,0,0,0,49.47,44.33Z"/><path class="cls-8" d="M48.23,44.79A2.14,2.14,0,0,1,47,46.32c-.12,0,0,.11.1.08a2.2,2.2,0,0,0,1.36-1.61C48.43,44.73,48.24,44.71,48.23,44.79Z"/><path class="cls-8" d="M44.06,50.66A3.32,3.32,0,0,1,42.71,48c0-.07-.19-.08-.2,0a3.36,3.36,0,0,0,1.39,2.68S44.13,50.71,44.06,50.66Z"/><path class="cls-8" d="M45,49.55a2.56,2.56,0,0,1-1-1c0-.06-.22,0-.19,0a2.81,2.81,0,0,0,1,1.09.17.17,0,0,0,.14,0S45,49.58,45,49.55Z"/><path class="cls-8" d="M42,45.79a1.85,1.85,0,0,0-.94-1.06.64.64,0,0,0-.64,0,.61.61,0,0,0-.18.56,1.08,1.08,0,0,0-.76-.18.6.6,0,0,0-.53.6c0,.07.21.06.2,0a.47.47,0,0,1,.38-.5,1,1,0,0,1,.74.26s.19.05.18,0a.74.74,0,0,1,.1-.63c.16-.19.41-.06.57,0a1.84,1.84,0,0,1,.69.91C41.84,45.88,42,45.86,42,45.79Z"/><path class="cls-8" d="M41,47.37s-.09,0-.12,0a.54.54,0,0,1-.49-.21,1.08,1.08,0,0,1-.27-.53c0-.08-.21-.07-.2,0a1.07,1.07,0,0,0,.34.61.73.73,0,0,0,.67.23S41,47.41,41,47.37Z"/><path class="cls-7" d="M37.8,86a7.14,7.14,0,0,0,4.57,5.32,14.94,14.94,0,0,0,4.07.42c5.68.17,11.24,1.74,16.91,2.11,2,.13,4.62-.19,5.64-2.2a2.72,2.72,0,0,0,.07-2.25,4.13,4.13,0,0,0-1-1.32,18.12,18.12,0,0,0-3.49-2.26,34.4,34.4,0,0,0-3.93-2c-1.69-.73-3.38-1.45-5.12-2A13.31,13.31,0,0,0,52.26,81a19.15,19.15,0,0,0-3.55.08c-1.77.15-3.52.21-5.29.27a20.64,20.64,0,0,0-4.57.57,2.2,2.2,0,0,0-.82.34c-.63.44-.54,1.06-.51,1.73A12.71,12.71,0,0,0,37.8,86Z"/><path class="cls-9" d="M42.56,95.32a2,2,0,0,0,1.52-.61,1.46,1.46,0,0,0,.21-.67A1.23,1.23,0,0,0,44,93a1.39,1.39,0,0,0-.39-.28,3.61,3.61,0,0,0-3-.15,2.32,2.32,0,0,0-1.29,1.13c-.25.56-.2,1.43.5,1.52A12.93,12.93,0,0,0,42.56,95.32Z"/><path class="cls-6" d="M34.4,95v0l7.17-4.63.13.17.28.41a4.28,4.28,0,0,1,.61,1.72.44.44,0,0,1-.06.36c-.09.1-.24.08-.38.08a1.64,1.64,0,0,0-1.4.61,2,2,0,0,0-.3,1,1.7,1.7,0,0,1-.08.46.5.5,0,0,1-.33.29,5.07,5.07,0,0,1-1.4,0,9.67,9.67,0,0,0-1.53.12,10.64,10.64,0,0,1-1.26.19,2.45,2.45,0,0,1-1.07-.15A.6.6,0,0,1,34.4,95Z"/><path class="cls-10" d="M34.4,95v0l7.17-4.63.13.17.28.41-7.2,4.64A.6.6,0,0,1,34.4,95Z"/><path class="cls-10" d="M36.84,95.21a.42.42,0,0,0,.31,0,10,10,0,0,1,1.65-.07c.31,0,.62,0,.94.08a.13.13,0,0,0,.12-.06s0-.08,0-.09A10.66,10.66,0,0,0,38.07,95c-.29,0-.58,0-.86.07a.46.46,0,0,1-.2,0c-.07,0-.08-.13-.08-.19s0-.54-.09-.6-.15.29-.13.37a.76.76,0,0,1,0,.21C36.75,95,36.75,95.14,36.84,95.21Z"/><path class="cls-10" d="M40.7,91.89a2.52,2.52,0,0,0,1.7.93.15.15,0,0,0,.12-.08s0-.07-.05-.08a2.41,2.41,0,0,1-1.6-.87C40.81,91.72,40.65,91.84,40.7,91.89Z"/><path class="cls-2" d="M39.12,95.56l.07,0a.1.1,0,0,0,0,0c0-.17,0-.34.05-.5a.05.05,0,0,0-.07-.06l-.07,0a.09.09,0,0,0,0,.06c0,.16,0,.33-.05.5S39.09,95.57,39.12,95.56Z"/><path class="cls-2" d="M38.58,95.54a.14.14,0,0,0,.1-.1,2.32,2.32,0,0,0,0-.46.06.06,0,0,0,0,0h-.06l-.07,0,0,0a2.32,2.32,0,0,1,0,.46S38.54,95.55,38.58,95.54Z"/><path class="cls-2" d="M38,95.56H38a.11.11,0,0,0,.06,0s0,0,0-.06v-.41s0,0,0,0,0,0-.06,0l-.07,0a.09.09,0,0,0,0,0c0,.14,0,.27,0,.41A.06.06,0,0,0,38,95.56Z"/><path class="cls-2" d="M37.4,95.66c.05,0,.1,0,.11-.1a2.07,2.07,0,0,0,0-.5s0,0,0,0a.06.06,0,0,0-.06,0s-.09.06-.08.11v.18h0v0a1.64,1.64,0,0,1,0,.23C37.32,95.65,37.37,95.66,37.4,95.66Z"/><path class="cls-7" d="M60.74,89.92a23.86,23.86,0,0,0-3.78.26c-2.23.55-4.63.77-6.9,1.17s-4.41.61-6.66.78c-.65.05-1,.09-1.39.64a3.52,3.52,0,0,0-.42,2.16.72.72,0,0,0,.24.55.82.82,0,0,0,.51.11c4.14,0,8.28-.06,12.41-.34,2.55-.17,5.11-.32,7.63-.74.89-.15,6.68-1,5.11-2.83A5.41,5.41,0,0,0,65,90.6,15.65,15.65,0,0,0,60.74,89.92Z"/><path class="cls-12" d="M65.81,91a9,9,0,0,0-5.92-1.35,33.82,33.82,0,0,0-3.46.47l-3.51.61-4,.68c-.13,0,0,.11,0,.09l6.91-1.19a20.58,20.58,0,0,1,6.63-.47,7.34,7.34,0,0,1,3.09,1.21.14.14,0,0,0,.14,0S65.85,91.07,65.81,91Z"/><path class="cls-12" d="M67.7,87.79a31,31,0,0,0-3.26-2.08c-1.13-.64-2.29-1.22-3.45-1.79s-2.43-1.2-3.69-1.7a18.68,18.68,0,0,0-3.8-1.07L53,81.07s-.11,0-.12,0,0,.06.07.06a19.21,19.21,0,0,1,3.81,1c1.25.46,2.44,1.06,3.64,1.64s2.29,1.12,3.4,1.73a31.14,31.14,0,0,1,3.27,2,11.59,11.59,0,0,1,1.41,1.1A2.63,2.63,0,0,1,69.34,90a1.76,1.76,0,0,1,0,.4c0,.06.19.07.2,0C69.62,89.21,68.53,88.4,67.7,87.79Z"/><path class="cls-6" d="M51.25,69.16c-.11.34-.22.68-.34,1-.28.78-.58,1.55-.88,2.29-.53,1.36-1,2.74-1.52,4.12l-.6,1.66c-.31.82-.62,1.64-.95,2.44-.11.26-.21.51-.32.76s-.26.58-.4.87A22.22,22.22,0,0,1,41.54,89a12.67,12.67,0,0,1-1,.84c-.19.15-.38.3-.58.44a13.59,13.59,0,0,1-1.35.88A14.81,14.81,0,0,1,33,93a.77.77,0,0,1-.5,0c-.31-.17-.28-.62-.21-1l.14-.66c0-.14.05-.28.08-.41.35-1.65.69-3.3,1-5a31,31,0,0,0,1-4.86c0-.45,0-.89.07-1.34l.06-2a55.08,55.08,0,0,1,.62-8.22c.09-.54.2-1.08.32-1.62a31.73,31.73,0,0,1,3-8c0-.08.09-.16.13-.25.75-1.41,2.26-4.39,3.92-5.49a2.38,2.38,0,0,1,.61-.32,1.64,1.64,0,0,1,1.43.12c.22.13.43.26.64.41a5.86,5.86,0,0,1,.5.37,17.71,17.71,0,0,1,3.2,3.64l.47.67a18.22,18.22,0,0,1,1.62,2.84c.08.18.15.36.22.53s.09.24.13.35A10.18,10.18,0,0,1,51.25,69.16Z"/><path class="cls-6" d="M51.25,69.16c-.11.34-.22.68-.34,1-.28.78-.58,1.55-.88,2.29-.53,1.36-1,2.74-1.52,4.12l-.6,1.66c-.31.82-.62,1.64-.95,2.44-.11.26-.21.51-.32.76s-.26.58-.4.87A22.22,22.22,0,0,1,41.54,89a12.67,12.67,0,0,1-1,.84c-.19.15-.38.3-.58.44a13.59,13.59,0,0,1-1.35.88A14.81,14.81,0,0,1,33,93a.77.77,0,0,1-.5,0c-.31-.17-.28-.62-.21-1l.14-.66c0-.14.05-.28.08-.41.35-1.65.69-3.3,1-5a31,31,0,0,0,1-4.86c0-.45,0-.89.07-1.34l.06-2a55.08,55.08,0,0,1,.62-8.22c.09-.54.2-1.08.32-1.62a31.73,31.73,0,0,1,3-8c0-.08.09-.16.13-.25.75-1.41,2.26-4.39,3.92-5.49a2.38,2.38,0,0,1,.61-.32,1.64,1.64,0,0,1,1.43.12c.22.13.43.26.64.41a5.86,5.86,0,0,1,.5.37,17.71,17.71,0,0,1,3.2,3.64l.47.67a18.22,18.22,0,0,1,1.62,2.84c.08.18.15.36.22.53s.09.24.13.35A10.18,10.18,0,0,1,51.25,69.16Z"/><path class="cls-5" d="M50.77,62.92l.63-.49c-.07-.17-.14-.35-.22-.53-.82.65-1.66,1.29-2.48,2-1.32-2.69-2.7-5.34-4.17-7.94.34-.27.68-.55,1-.85l.35-.31a5.86,5.86,0,0,0-.5-.37h0c-.38.35-.77.68-1.16,1-.29-.52-.6-1-.91-1.54a2.38,2.38,0,0,0-.61.32l.47.8.49.87c-.36.28-.74.56-1.13.82a27.84,27.84,0,0,0-2.74,2,9,9,0,0,0-1,1c0,.09-.09.17-.13.25a31.73,31.73,0,0,0-3,8c.79-1.85,1.61-3.7,2.42-5.54l.1-.21a32.74,32.74,0,0,1,1.49,3.18c.8,2.05,1.06,4.27,1.79,6.35,0,.09.07.18.1.28a12,12,0,0,1-1.87,1.68,39,39,0,0,0-4.74,3.86l-.23.24-.06,2c1,2.11,2.09,4.19,3.16,6.26.36.72.73,1.43,1.1,2.14a11.64,11.64,0,0,1-6.34,2.75h0a17.79,17.79,0,0,1-2.31,0c-.11-.38-.23-.75-.36-1.12q-.39-1.08-.81-2.16l-.55.66c.21.53.41,1.07.6,1.61.12.33.23.66.33,1a6.6,6.6,0,0,0-2.35.58l-.16.07c0,.11,0,.22,0,.33a1.76,1.76,0,0,0,0,.23l.1,0a6.34,6.34,0,0,1,2.54-.76h0c.2.69.38,1.39.61,2.08l.79,0c-.23-.67-.41-1.36-.61-2a17.24,17.24,0,0,0,1.76,0l.38,0a12.61,12.61,0,0,0,6.7-2.63c.22.44.46.88.69,1.32l.13.25c.2-.14.39-.29.58-.44l-.14-.27-.69-1.32q.38-.31.72-.66a53.4,53.4,0,0,0,5.19-6.52l.59,1.25c.14-.29.27-.57.4-.87-.17-.34-.33-.69-.49-1,.57-.74,1.15-1.46,1.76-2.17l.6-1.66c-.73.8-1.43,1.62-2.12,2.46l-.56.7-.51-1.09c-1-2.05-2-4.08-2.8-6.2L42.34,72a16.94,16.94,0,0,0,1.25-1.76A21.4,21.4,0,0,1,47,66.09c.45-.43.93-.85,1.41-1.25q1.29,2.66,2.53,5.33c.12-.33.23-.67.34-1-.76-1.6-1.52-3.2-2.3-4.8C49.55,63.87,50.16,63.4,50.77,62.92Zm-6.6,15,1.16,2.48c-1.54,2-3,4.19-4.68,6.08a15.23,15.23,0,0,1-1.2,1.21q-1.55-3-3.05-6c-.53-1.07-1.06-2.14-1.56-3.22a28.05,28.05,0,0,1,4.49-3.94,20.24,20.24,0,0,0,2.42-1.9l0,0C42.48,74.42,43.34,76.16,44.17,77.91Zm-.49-9.07c-.56.79-1,1.63-1.6,2.41-.22-.67-.41-1.34-.58-2-.25-1.07-.47-2.14-.8-3.18a30.35,30.35,0,0,0-2.16-4.71A7.72,7.72,0,0,1,40,59.24a17.48,17.48,0,0,1,2.66-2c.43-.28.85-.57,1.27-.87,1,1.8,2,3.62,2.91,5.46.42.83.84,1.67,1.25,2.51A23.52,23.52,0,0,0,43.68,68.84Z"/><path class="cls-9" d="M51.31,63.37A2.91,2.91,0,0,0,51,63a2.35,2.35,0,0,0-.52-.37,3.28,3.28,0,0,0-.74-.33,1.43,1.43,0,0,0-.73-.12.36.36,0,0,0-.23.22.3.3,0,0,0,.06.3,1.05,1.05,0,0,0-.21-.06h-.17c-.17,0-.44.07-.44.3a.41.41,0,0,0,.11.25l.22.16c-.15,0-.46.13-.36.34a.38.38,0,0,0,.14.14,2.19,2.19,0,0,0,.64.34.61.61,0,0,0-.27.08.22.22,0,0,0-.11.25.35.35,0,0,0,.1.11c.38.31.93.35,1.3.66a2.55,2.55,0,0,1,.56.81c.13.24.29.46.44.69a1,1,0,0,0,.57.44,2.49,2.49,0,0,1,.66.13,3.28,3.28,0,0,1,.56.42c.3.27.62.53.95.78a.17.17,0,0,0,.13,0,.16.16,0,0,0,.08-.06,3.31,3.31,0,0,0,.26-.27.87.87,0,0,0,.15-.24c0-.08,0-.16.09-.23s.14-.2.19-.31a.7.7,0,0,0,.05-.71,1,1,0,0,0-.22-.18c-.29-.17-.57-.34-.85-.53l-.4-.3a2.35,2.35,0,0,1-.32-.23,4.2,4.2,0,0,1-.74-1.09A8,8,0,0,0,51.31,63.37Z"/><path class="cls-11" d="M50.52,63.4a3,3,0,0,0-1.59-.73c-.06,0-.11,0,0,0a2.93,2.93,0,0,1,1.52.71S50.56,63.44,50.52,63.4Z"/><path class="cls-11" d="M50.28,64.68a2.31,2.31,0,0,0-1.42-.58c-.07,0-.07.06,0,.06a2.09,2.09,0,0,1,1.32.55S50.32,64.72,50.28,64.68Z"/><path class="cls-11" d="M50.46,64a3.08,3.08,0,0,0-2-.7c-.07,0-.07.06,0,.06a2.87,2.87,0,0,1,1.88.67S50.5,64,50.46,64Z"/><path class="cls-6" d="M56.67,70.75l-.72-.2-.7-.2-1.44-.48-.56-.19A14.28,14.28,0,0,0,53,65.34c0-.21-.09-.41-.15-.62a13.5,13.5,0,0,1,2,.79,14.13,14.13,0,0,1,1.46.84c.15,1,.26,2,.33,3l0,.52a1.21,1.21,0,0,1,0,.19C56.65,70.26,56.67,70.5,56.67,70.75Z"/><path class="cls-5" d="M56.63,69.82l0-.52h0l-1.35,1,.7.2.69-.54A1.21,1.21,0,0,0,56.63,69.82Z"/><path class="cls-10" d="M51.93,75.58c-.13,0-.27,0-.4,0H49.15c-.12,0-.12.1,0,.1h2.73c0,.07.19.07.2,0S52,75.59,51.93,75.58Z"/><path class="cls-10" d="M52.86,71.22a18.57,18.57,0,0,0-2.11,0s-.1,0-.1,0,.07.06.1,0c.7,0,1.41,0,2.11,0,0,0,.1,0,.1,0S52.89,71.22,52.86,71.22Z"/><path class="cls-2" d="M75.74,112.29A6.58,6.58,0,0,0,79.52,114a8.49,8.49,0,0,0,3.53-.84c1.63-.67,1.59-2.18.42-2.92A7.31,7.31,0,0,0,82,109.5c-1.77-.69-4-.13-5.84.83C75.23,110.82,75,111.64,75.74,112.29Z"/><path class="cls-2" d="M76.26,109.2a.55.55,0,0,0,0-.18,1,1,0,0,0-.27-.43,11.94,11.94,0,0,0-3.67-2.48,3.19,3.19,0,0,0-3.06,0c-1.14.71-.81,1.77-.51,2.58a3.66,3.66,0,0,0,1.06,1.73c.94.74,2.48.65,3.81.83a2,2,0,0,0,.69,0,1.75,1.75,0,0,0,.48-.18,3,3,0,0,0,1.4-1.51A1.16,1.16,0,0,0,76.26,109.2Z"/><path class="cls-2" d="M93.33,110.7c-2.09-.76-4.79-1.29-6.94-.42a2.68,2.68,0,0,0-1.63,1.54,1.62,1.62,0,0,0,.36,2,5.58,5.58,0,0,0,3.08,1,6.1,6.1,0,0,0,3.6-.52c.51-.26,1-.55,1.5-.82a3.72,3.72,0,0,0,1.25-.87C95.11,111.75,94.19,111,93.33,110.7Z"/><path class="cls-2" d="M103,109.43l-.15,0a7.36,7.36,0,0,0-3.52.2,9.06,9.06,0,0,1-2.35.26c-1.72.08-2.69,1.75-1.55,3a4.57,4.57,0,0,0,2.81,1,4.86,4.86,0,0,0,3.29-.56c.47-.28.91-.58,1.37-.88.85-.55,2.27-1.46,1.26-2.46A2.52,2.52,0,0,0,103,109.43Z"/><path class="cls-2" d="M110.66,108.61c-.56.11-1.09.32-1.64.48-1.48.44-3.6.56-4.17,2.15a1.71,1.71,0,0,0,.52,1.82c1,.92,3.08.68,4.24.37a5.4,5.4,0,0,0,3.32-2.33,1.71,1.71,0,0,0,.18-1.69,2.08,2.08,0,0,0-2-.86A4.1,4.1,0,0,0,110.66,108.61Z"/><path class="cls-2" d="M79,103.8a10.13,10.13,0,0,0-3.72-.61,6.16,6.16,0,0,0-2.26.33,9.35,9.35,0,0,0-2.61,1.08c-.83.69.17,1.32,1.36,1.4,1.54.1,3-.33,4.56-.3.55,0,1.11.08,1.65,0C79.42,105.63,80.41,104.5,79,103.8Z"/><path class="cls-2" d="M85.08,101.53a6.8,6.8,0,0,0-2.41-.62,12,12,0,0,0-3.43.12,3.18,3.18,0,0,0-1.38.56h0c-.88.34-.86,1,0,1.36a3.61,3.61,0,0,0,1.82.2,3.86,3.86,0,0,0,.49-.09,4.67,4.67,0,0,0,2.41.53,6.14,6.14,0,0,0,2.75-.52C86.07,102.63,85.77,101.9,85.08,101.53Z"/><path class="cls-2" d="M93.63,98.84a11.08,11.08,0,0,0-3-.33,5.83,5.83,0,0,0-2.94.7c-.67.42-1.45,1.32-.73,2a2,2,0,0,0,1.14.55,3.94,3.94,0,0,0,3.09.1,1.8,1.8,0,0,1,.7-.06,7.32,7.32,0,0,0,1.75,0c.83-.12,2-.61,2-1.51S94.36,99,93.63,98.84Z"/><path class="cls-2" d="M104,101.27a6.9,6.9,0,0,0-5.56-.89,3,3,0,0,0-2,.78c-.64.79.68,1.28,1.44,1.6a9.57,9.57,0,0,0,3,.81,6.39,6.39,0,0,0,3.52-.52C105.22,102.52,104.56,101.77,104,101.27Z"/><path class="cls-2" d="M112.53,104.22c0-.21-.14-.37-.36-.51a1.52,1.52,0,0,0-.74-.72,6.37,6.37,0,0,0-2.1-.56,8,8,0,0,0-1.24-.06,5.07,5.07,0,0,0-.79,0,2.42,2.42,0,0,0-.37,0c-.65,0-1.18.12-1.35.54a1,1,0,0,0,0,.85,2.1,2.1,0,0,0,1.33.75l.51.08.43.12c.28.07.58.13.89.18a4.71,4.71,0,0,0,1,.34,3.37,3.37,0,0,0,2.32-.26A1.15,1.15,0,0,0,112.53,104.22Z"/><path class="cls-2" d="M117.16,106.68a1.06,1.06,0,0,0-.12-.2c-.09-.44-.61-.82-1.16-1.07l-.22-.1a2.13,2.13,0,0,0-1.34-.34h-.2c-.57,0-1.33.1-1.54.47a2.6,2.6,0,0,0-1.42.5.37.37,0,0,0-.06.1.94.94,0,0,0-.31.28c-.18.28,0,.56.37.74s.62.25.9.41a4,4,0,0,1,.74.59,3.8,3.8,0,0,0,3.41.41,1.63,1.63,0,0,0,1.18-1.5A.37.37,0,0,0,117.16,106.68Z"/><path class="cls-12" d="M104.8,107.18c0,.59-.64.89-1.31,1l-.35,0a3.37,3.37,0,0,1-.64,0,1.75,1.75,0,0,1-.41-.08l-.25-.08a5.24,5.24,0,0,1-1.31-.89,13.87,13.87,0,0,1-2-1.42A6.12,6.12,0,0,1,99,108h0a.87.87,0,0,1-.15.32.5.5,0,0,1-.15.14.94.94,0,0,1-.22.12,6.45,6.45,0,0,1-.81.16,11.92,11.92,0,0,1-3.18.67l-.29,0a1.15,1.15,0,0,1-.48-.3,1.1,1.1,0,0,1-.2-.31.75.75,0,0,1-.07-.18c-.15-.52-1-2.32-.85-2.78a9.82,9.82,0,0,1-.92,2.46,1.79,1.79,0,0,1-.22.24,1,1,0,0,1-.22.15,2.45,2.45,0,0,1-1.13,0l-.1,0-.36,0c-1.3-.15-2.59-.31-3.89-.48l-.32,0-.15,0a.58.58,0,0,1-.39-.16l0-.06a.61.61,0,0,1,0-.33s0-.06,0-.09a14.32,14.32,0,0,1,.76-2.38,17.41,17.41,0,0,1-2.73,2.66,2.53,2.53,0,0,1-.23.12,2,2,0,0,1-.58.2,1.09,1.09,0,0,1-.31,0,1.17,1.17,0,0,1-.78-.39.41.41,0,0,1-.1-.21.44.44,0,0,1,0-.2,1.23,1.23,0,0,1,.23-.54l0,0,.08-.13a19.73,19.73,0,0,1,2.26-2.62c1-1,2.1-2,3.08-2.94q2.94-2.88,6-5.63A1.07,1.07,0,0,1,93,95a.93.93,0,0,1,.59.18c2.35,1.35,3.84,3.77,5.75,5.7,1.74,1.74,3.9,3.16,5.11,5.29l.09.16a.56.56,0,0,1,0,.08,1.77,1.77,0,0,1,.19.58A.6.6,0,0,1,104.8,107.18Z"/><path class="cls-13" d="M97.7,103.27a7.4,7.4,0,0,1-2,.69,14.19,14.19,0,0,1-3.32,0,11.76,11.76,0,0,1-3.48-.64,8.92,8.92,0,0,1-2.36-1.4,3.48,3.48,0,0,1-1.22-2.17,7.51,7.51,0,0,1,.27-3.19,22.89,22.89,0,0,0,.71-3.16c0-.32,0-.66.09-1,0-.15.23-.58.17-.73a7.47,7.47,0,0,0,1,2.2c.38.44,1,.78,1.43.19a1,1,0,0,0,.12-.83,6.28,6.28,0,0,0-.57-1.43,2.27,2.27,0,0,1-.25-1.5,2.87,2.87,0,0,1,.55-.94c.24-.33.46-.69.7-1a16.4,16.4,0,0,1,1.65-2c.15-.15.34-.3.54-.24a4.72,4.72,0,0,0,.13,1.19,4.33,4.33,0,0,0,.93,1.82,3.13,3.13,0,0,1,.94,1.34,4.72,4.72,0,0,1,0,.84.93.93,0,0,0,.29.75c.51.39,1.1-.16,1.27-.62a3.61,3.61,0,0,0,.07-1.76,2,2,0,0,1,1.49,1.93,6.21,6.21,0,0,1-.24,1.92A1.81,1.81,0,0,0,96.79,95a1.27,1.27,0,0,0,.27.25.69.69,0,0,0,.25.14.57.57,0,0,0,.26,0,1.07,1.07,0,0,0,.94-.76,2.71,2.71,0,0,0,0-1.52,2.79,2.79,0,0,1,.46.23,1.44,1.44,0,0,1,.3.49,5.09,5.09,0,0,1,.19,1.23c.13,1.23.78,2.36,1,3.58a5,5,0,0,1-.17,2.28,3.54,3.54,0,0,1-2.14,2.09Z"/><path class="cls-14" d="M99.16,100.2a3.87,3.87,0,0,1-1.11,1.69,15.84,15.84,0,0,1-1.75,1.53c-2.33,1.52-5.73.47-7.69-1.06-.74-.59-1.63-1-2-1.92a3.08,3.08,0,0,1,0-1.9,15.7,15.7,0,0,0,.48-1.88,9,9,0,0,0,0-1.37,6.25,6.25,0,0,0,1.4,1.26,1.73,1.73,0,0,0,.65.29,1.24,1.24,0,0,0,.93-.23,1.46,1.46,0,0,0,.35-1.84c-.13-.3-.32-.57-.45-.87a2.64,2.64,0,0,1-.16-1.18,2.38,2.38,0,0,1,.16-1,5,5,0,0,1,.56-.82,8.31,8.31,0,0,0,.68-1.06c-.11.5.3,1,.68,1.3l.85.79a1.59,1.59,0,0,1,.46.61,1.43,1.43,0,0,1-.1.86,1.56,1.56,0,0,0-.05,1.3.71.71,0,0,0,.78.26,2.17,2.17,0,0,0,1.78-1.42,3.05,3.05,0,0,1,.17-.51.52.52,0,0,1,.45-.29c-.35.59-.07,1.34-.18,2-.14.83-.85,1.67-.12,2.46a1.33,1.33,0,0,0,1.08.39,2.08,2.08,0,0,0,1.45-1.23,1.33,1.33,0,0,0,.29.76,3.72,3.72,0,0,1,.52,2.49A3.5,3.5,0,0,1,99.16,100.2Z"/><path class="cls-15" d="M90.37,102.64c-.28-.15-.57-.31-.85-.49a4.22,4.22,0,0,1-.79-.6,2.48,2.48,0,0,1-.62-2.46,2.28,2.28,0,0,0,.19-.85c0-.32-.27-.6-.3-.93,0,.16.55.54.68.64a2.79,2.79,0,0,0,.83.53,1.67,1.67,0,0,0,1.62-.67,1.87,1.87,0,0,0,.36-1.41c-.08-.48-.34-.91-.46-1.38a3.53,3.53,0,0,1,.18-2c.68,1,1,2.23,1.58,3.3.17.32.54.71.94.64s.56-.45.7-.79.35-.72.71-.79a9.64,9.64,0,0,0-.26,2.21c0,.64.66,1.16,1.24,1.27a2.24,2.24,0,0,0,1.81-.54,8.48,8.48,0,0,1,.29,1.22,3.13,3.13,0,0,1-.28,1.32,4.53,4.53,0,0,1-1.9,2,9,9,0,0,1-2.05.77,3.44,3.44,0,0,1-2.43-.35C91.17,103,90.77,102.85,90.37,102.64Z"/><path class="cls-13" d="M84.48,93.1s0,0,0-.08a1.93,1.93,0,0,1,.49-.71,3.89,3.89,0,0,1,.3.89c0,.19.07,1.09-.22,1.15s-.42-.35-.5-.49A1,1,0,0,1,84.48,93.1Z"/><path class="cls-13" d="M98.88,88.69c-.2.24-.47-.69-.49-.89a3.9,3.9,0,0,0-.16-.77,1.29,1.29,0,0,1,.68.26.84.84,0,0,1,.35.71A1.25,1.25,0,0,1,98.88,88.69Z"/><path class="cls-7" d="M81.73,107.61a2.83,2.83,0,0,0-.89-.43.44.44,0,0,0,0,.2l.21.08a1.47,1.47,0,0,1,.42.24,1.67,1.67,0,0,1,.25.28,1.09,1.09,0,0,0,.31,0A1.49,1.49,0,0,0,81.73,107.61Zm.37-.71a2.31,2.31,0,0,0-.93-.42l-.08.13,0,0a1.58,1.58,0,0,1,.58.22,3.65,3.65,0,0,1,1,.91,2.53,2.53,0,0,0,.23-.12A4.43,4.43,0,0,0,82.1,106.9ZM90,108.54a4.47,4.47,0,0,0-1.09-.55,9.17,9.17,0,0,0-1.25-.32,3.67,3.67,0,0,0-1.32,0,2.21,2.21,0,0,0-.92.39l.32,0a2.54,2.54,0,0,1,1.8-.25,5.73,5.73,0,0,1,2.09.73l.36,0,.1,0Zm.74-.59a5.52,5.52,0,0,0-.77-.29l-.89-.29-.88-.29a5.31,5.31,0,0,0-.87-.23,3.53,3.53,0,0,0-1.76.21,3.21,3.21,0,0,0-.75.4.61.61,0,0,0,0,.33,1.86,1.86,0,0,1,.8-.55A3.06,3.06,0,0,1,87.2,107a3.75,3.75,0,0,1,.75.19l.82.27c.51.16,1,.31,1.53.51a1.69,1.69,0,0,1,.9.67,1,1,0,0,0,.22-.15A1.81,1.81,0,0,0,90.72,108Zm7.52.28a3.07,3.07,0,0,0-1.19-.3,3.16,3.16,0,0,0-2.89,1.44l.29,0a2.92,2.92,0,0,1,1.4-1.15,2.79,2.79,0,0,1,2.14.06,2.51,2.51,0,0,1,.45.26.94.94,0,0,0,.22-.12A2.86,2.86,0,0,0,98.24,108.23Zm.7-.24a1.85,1.85,0,0,0-.28-.28,1.49,1.49,0,0,0-.72-.36,5.17,5.17,0,0,0-.88,0,9.86,9.86,0,0,0-1.78.29,3.75,3.75,0,0,0-1.4.58,1.39,1.39,0,0,0-.4.54,1.1,1.1,0,0,0,.2.31,1.44,1.44,0,0,1,.34-.66,2.66,2.66,0,0,1,1.21-.57,8.91,8.91,0,0,1,1.62-.31,7.49,7.49,0,0,1,.82,0,1.21,1.21,0,0,1,.34,0,1.08,1.08,0,0,1,.34.21,1.29,1.29,0,0,1,.3.27,1.73,1.73,0,0,1,.16.3A.87.87,0,0,0,99,108h0Zm5.53-1.82a1,1,0,0,0-.46.15,5.38,5.38,0,0,0-.76.57l-.83.67-.58.47.25.08,1.14-.91.73-.59a1.15,1.15,0,0,1,.6-.28Zm.33.82-.29.1a2.64,2.64,0,0,0-.81.47,3.49,3.49,0,0,0-.56.65l.35,0a3.21,3.21,0,0,1,.34-.41,2.29,2.29,0,0,1,.69-.47,1.62,1.62,0,0,1,.28-.11A.6.6,0,0,0,104.8,107Z"/><path class="cls-3" d="M68.77,77.4c-1.19.79-1.91,1.81-1.22,3a3.81,3.81,0,0,0,1.29,1.2,10.24,10.24,0,0,0,1.92,1.12,10.82,10.82,0,0,0,3.26.61l2.8.24,3.12.26a164.73,164.73,0,0,0,19.37.3c1.59-.07,3.17-.17,4.74-.32,3.17-.3,6.32-.82,9.46-1.34a5.55,5.55,0,0,0,2-.61,2.85,2.85,0,0,0,1-3.27,5.37,5.37,0,0,0-3.34-3.43,11.87,11.87,0,0,0-4.14-.68c-3.21-.07-6.39.37-9.58.54-5.49.27-11-.28-16.45-.27a43.64,43.64,0,0,0-9.29.7A17,17,0,0,0,68.77,77.4Z"/><path class="cls-2" d="M68.85,76.48a2.37,2.37,0,0,0-1,2.36,4.3,4.3,0,0,0,2.67,2.72,14.49,14.49,0,0,0,4.29,1c3.53.38,7.11.41,10.67.44,8.08.07,16.17.14,24.21-.52a16.58,16.58,0,0,0,4-.68c2.2-.75,3.31-2.3,2.81-4.19a5.42,5.42,0,0,0-3.34-3.43,12.36,12.36,0,0,0-4.14-.68c-3.21-.07-6.39.38-9.58.54-5.49.28-11-.28-16.45-.26a43,43,0,0,0-9.29.7A12.3,12.3,0,0,0,68.85,76.48Z"/><path class="cls-5" d="M115.58,77.84a3.88,3.88,0,0,1-2.73,2.27,19.4,19.4,0,0,1-4.73.77c-1.66.11-3.34.11-5,.12H97.92L87.55,81c-3.43,0-6.86,0-10.28-.15-.87,0-1.75-.11-2.62-.2a13.78,13.78,0,0,1-2.3-.37,3.79,3.79,0,0,1-3-2.74,2.48,2.48,0,0,1,0-.94c0-.06-.18-.07-.2,0a3.11,3.11,0,0,0,1.65,3.2,10.63,10.63,0,0,0,4.52,1c3.51.3,7,.28,10.56.28H96.72l5.37,0c1.75,0,3.49,0,5.23-.07a25.91,25.91,0,0,0,5-.64,5.26,5.26,0,0,0,3.07-1.72,2.88,2.88,0,0,0,.41-.8C115.79,77.79,115.6,77.78,115.58,77.84Z"/><path class="cls-2" d="M71.4,81.75c0-.25-.32-.38-.54-.41a.76.76,0,0,0-.66.21.79.79,0,0,0-.27.62.13.13,0,0,0,0,.06,4.71,4.71,0,0,0-2.41,1.66c0,.07.12.1.16.08.38-.19.76-.39,1.13-.6l-.15.14a2.84,2.84,0,0,0-.8,1c0,.07.14.1.18.07a12.5,12.5,0,0,0,1.31-1,6.74,6.74,0,0,0-.61,1c0,.06.14.09.17.07a3.05,3.05,0,0,0,.84-.76A9.69,9.69,0,0,0,69.42,85c0,.07.15.1.18.06a5.38,5.38,0,0,0,1-2.42.64.64,0,0,0,.56-.24,1.66,1.66,0,0,0,.22-.32A.68.68,0,0,0,71.4,81.75Z"/><path class="cls-2" d="M68.43,78.43a.59.59,0,0,0-.15-.67.78.78,0,0,0-.64-.26.82.82,0,0,0-.61.3.08.08,0,0,0,0,0,4.81,4.81,0,0,0-2.92-.29c-.08,0,0,.16.07.17.42.1.83.19,1.25.27h-.2a2.77,2.77,0,0,0-1.27.27c-.06,0,0,.16.09.16a11.2,11.2,0,0,0,1.64.09,7.21,7.21,0,0,0-1.13.4c-.06,0,0,.16.08.17a3.07,3.07,0,0,0,1.13,0c-.33.19-.65.39-1,.61-.05,0,0,.18.1.17a5.36,5.36,0,0,0,2.29-1.25.64.64,0,0,0,.59.19,1.58,1.58,0,0,0,.37-.11A.6.6,0,0,0,68.43,78.43Z"/><path class="cls-2" d="M78.66,82.62a.6.6,0,0,0-.68-.06.83.83,0,0,0-.35,1.2l0,0a4.8,4.8,0,0,0-1.16,2.69c0,.08.16,0,.18,0,.22-.36.43-.73.64-1.1a1.33,1.33,0,0,0,0,.19,2.86,2.86,0,0,0-.14,1.29c0,.07.17,0,.18,0a12,12,0,0,0,.6-1.54,6.1,6.1,0,0,0,0,1.21c0,.07.16,0,.18,0a3,3,0,0,0,.31-1.09,10.42,10.42,0,0,0,.28,1.1c0,.06.18,0,.19,0a5.41,5.41,0,0,0-.48-2.56.62.62,0,0,0,.36-.49,1.71,1.71,0,0,0,0-.39A.75.75,0,0,0,78.66,82.62Z"/><path class="cls-2" d="M88.44,82.34a.59.59,0,0,0-.67.16.78.78,0,0,0-.26.64.81.81,0,0,0,.31.6s0,0,.05,0a4.73,4.73,0,0,0-.26,2.92c0,.08.16,0,.17-.07.09-.42.18-.83.25-1.25,0,.06,0,.13,0,.2a2.87,2.87,0,0,0,.28,1.26c0,.06.16,0,.17-.08a13,13,0,0,0,.07-1.65A7.24,7.24,0,0,0,89,86.23c0,.06.16,0,.17-.09A2.82,2.82,0,0,0,89.08,85c.19.32.4.64.62,1,0,.06.17,0,.16-.1a5.25,5.25,0,0,0-1.26-2.28.62.62,0,0,0,.18-.58,1.66,1.66,0,0,0-.11-.38A.82.82,0,0,0,88.44,82.34Z"/><path class="cls-2" d="M98.56,82.35a.62.62,0,0,0-.69,0,.79.79,0,0,0-.42.55.82.82,0,0,0,.12.66l0,0a4.77,4.77,0,0,0-1,2.73c0,.08.16,0,.18,0,.2-.38.4-.75.59-1.13a1.29,1.29,0,0,0,0,.19,2.61,2.61,0,0,0-.08,1.3c0,.06.16,0,.18,0A12.41,12.41,0,0,0,97.91,85a6.93,6.93,0,0,0,.09,1.2c0,.07.16,0,.18,0a3.22,3.22,0,0,0,.26-1.1,10.51,10.51,0,0,0,.33,1.09c0,.06.18,0,.18,0a5.23,5.23,0,0,0-.58-2.54.63.63,0,0,0,.33-.51,1.27,1.27,0,0,0,0-.39A.68.68,0,0,0,98.56,82.35Z"/><path class="cls-2" d="M108.16,82.4a.63.63,0,0,0-.66.21.82.82,0,0,0-.2.67.81.81,0,0,0,.35.57l0,0a4.81,4.81,0,0,0,0,2.93c0,.07.15,0,.16-.09.06-.42.11-.84.15-1.27l0,.2a2.81,2.81,0,0,0,.38,1.24c0,.06.16,0,.16-.1a11.19,11.19,0,0,0-.06-1.64,7.64,7.64,0,0,0,.5,1.09c0,.06.16-.06.16-.1A3,3,0,0,0,109,85a9.77,9.77,0,0,0,.69.9s.17-.06.15-.11a5.27,5.27,0,0,0-1.44-2.17.62.62,0,0,0,.13-.6.93.93,0,0,0-.14-.36A.68.68,0,0,0,108.16,82.4Z"/><path class="cls-2" d="M115.59,79.38c-.25,0-.41.29-.46.51a.82.82,0,0,0,.15.68.84.84,0,0,0,.6.32h.05a4.85,4.85,0,0,0,1.45,2.55c.06,0,.11-.12.09-.16-.15-.4-.32-.79-.5-1.17l.13.15a2.79,2.79,0,0,0,1,.89c.06,0,.1-.13.08-.17-.25-.48-.56-.9-.78-1.39l1.27,1a1.07,1.07,0,0,0-.27-.69c-.15-.2-.33-.38-.47-.59a4.87,4.87,0,0,0,1.14.2s.1,0,.13,0,0-.13-.09-.17a8.06,8.06,0,0,0-1-.55,4.51,4.51,0,0,0-.87-.31s-.72-.06-.7-.12a.64.64,0,0,0-.19-.58,1.42,1.42,0,0,0-.3-.25A.76.76,0,0,0,115.59,79.38Z"/><path class="cls-7" d="M102.91,50a12,12,0,0,1,1,2.22,35.32,35.32,0,0,0,1.92,5c.93,1.8,2.28,3.45,2.62,5.45a5.8,5.8,0,0,1,0,1.86c-.23,1.48-2.69,1.32-3.75.91A6.76,6.76,0,0,1,102,63.33,14,14,0,0,1,98.62,52a5.73,5.73,0,0,1,.82-2.3c.71-1.07,1.89-1.58,2.88-.51A4.89,4.89,0,0,1,102.91,50Z"/><path class="cls-7" d="M77.14,55.57c-.31.47-.63.94-.94,1.42s-.83,1.25-1.23,1.88a7.83,7.83,0,0,0-.85,1.62,4,4,0,0,0,0,2.74,3.13,3.13,0,0,0,3.38,1.62,4.18,4.18,0,0,0,3.34-2.64c.35-.69.68-1.4,1-2.09A18,18,0,0,1,83,58.34a45.12,45.12,0,0,0,2.36-4c.72-1.4,1.62-3.28.57-4.74a2.63,2.63,0,0,0-1.25-1,1.88,1.88,0,0,0-1.37-.22,2.73,2.73,0,0,0-.93.66A37.42,37.42,0,0,0,77.14,55.57Z"/><path class="cls-7" d="M82.87,48.69A2.64,2.64,0,0,0,82,50.05c-.45,1.41-.58,3,.52,4.14a1.81,1.81,0,0,0,.3.25,1.67,1.67,0,0,1,.38.25.92.92,0,0,1,.19.49,66.74,66.74,0,0,1,1.08,9.57c0,1,.07,2.09.09,3.14,0,1.3-.17,3.48,1.09,4.31,1,.64,3.09.36,4.21.4a33.45,33.45,0,0,0,9.62-.74,2.7,2.7,0,0,0,1.25-.57,2.37,2.37,0,0,0,.53-.82c.61-1.46.4-3,.66-4.5a77.3,77.3,0,0,0,.63-14.19,14.06,14.06,0,0,0,0-1.59,2.79,2.79,0,0,0-.33-1.33,2.13,2.13,0,0,0-.84-.57,25.2,25.2,0,0,0-6.7-2.3,13.28,13.28,0,0,0-6.87.72c-.47.18-.93.4-1.4.58-.89.34-1.83.54-2.69.93A3.59,3.59,0,0,0,82.87,48.69Z"/><path class="cls-6" d="M106.36,73a25.57,25.57,0,0,1-4.14,3.2,20.62,20.62,0,0,1-5,2,17.06,17.06,0,0,1-6.38.66A15.46,15.46,0,0,1,86,77.33,27.47,27.47,0,0,1,80.65,74c-1.25-1-2.4-2.12-3.7-3.06a12.27,12.27,0,0,0-2.15-1.27,7.16,7.16,0,0,1-2-1c-1-.89-.27-2.28.81-2.72a4.66,4.66,0,0,1,2.29-.18c.75.08,1.49.24,2.24.35a21.18,21.18,0,0,1,3.56.49A15.51,15.51,0,0,1,85,68.25q2.6,1.57,5.33,2.93A6.12,6.12,0,0,0,93,72a6.56,6.56,0,0,0,3.27-1.31,44.38,44.38,0,0,1,5.62-3.08c1.71-.75,3.92-1.74,5.82-1.5a4.49,4.49,0,0,1,2.45,1c0,.1.06.1.13.19a.81.81,0,0,1,.07.7c-.35,1-1.21,1.66-1.69,2.57A9.92,9.92,0,0,1,106.36,73Z"/><rect class="cls-16" x="117.89" y="41.38" width="2.61" height="1.94" rx="0.74" transform="translate(78.07 -77.27) rotate(51.47)"/><rect class="cls-12" x="113.71" y="42.32" width="6.48" height="3.62" rx="0.58" transform="translate(-2.02 82.48) rotate(-38.54)"/><rect class="cls-8" x="119.12" y="44.36" width="0.42" height="0.93" rx="0.16" transform="translate(80.09 -76.46) rotate(51.48)"/><rect class="cls-8" x="118" y="45.25" width="0.42" height="0.93" rx="0.16" transform="translate(80.17 -75.19) rotate(51.39)"/><rect class="cls-8" x="116.88" y="46.14" width="0.42" height="0.93" rx="0.16" transform="translate(80.47 -73.98) rotate(51.4)"/><rect class="cls-8" x="116.35" y="41.45" width="0.93" height="0.42" rx="0.18" transform="translate(-0.47 81.99) rotate(-38.61)"/><rect class="cls-8" x="115.49" y="42.09" width="0.42" height="0.93" rx="0.16" transform="translate(76.85 -74.44) rotate(51.44)"/><rect class="cls-8" x="114.11" y="43.23" width="0.93" height="0.42" rx="0.18" transform="translate(-2.14 80.77) rotate(-38.5)"/><path class="cls-10" d="M94.43,74.31a19,19,0,0,0,2-4.09c.67-1.67,1.33-3.26,3.11-4,.41-.17.85-.25,1.28-.38,1.55-.49,3.23-2.05,3.33-3.76a9.38,9.38,0,0,0-1.6-4.94s-.07-.06-.09,0a3.79,3.79,0,0,0-.3-.4s0-.08,0-.1a1.64,1.64,0,0,0-.25-.21l-.15-.13-.09-.17c0-.1-.1-.2-.15-.3s-.06-.07-.09-.06-.21-.26-.32-.38a.11.11,0,0,0,0-.1,9.36,9.36,0,0,0-4.46-2.66c-1.69-.29-3.59,1-4.41,2.4-.22.39-.4.8-.65,1.16-1.12,1.58-2.82,1.86-4.6,2.13a19.69,19.69,0,0,0-4.44,1.06,6.45,6.45,0,0,0-3.39,2.94A7.38,7.38,0,0,0,78.44,67a12.65,12.65,0,0,0,2.82,5.58,12.53,12.53,0,0,0,4.81,4,7.42,7.42,0,0,0,4.74.4A6.41,6.41,0,0,0,94.43,74.31Z"/><polygon class="cls-12" points="98.11 61.46 95.85 58.63 113.66 45.2 115.18 47.11 98.11 61.46"/><path class="cls-8" d="M97.31,62.89a2.44,2.44,0,1,1,.39-3.43A2.42,2.42,0,0,1,97.31,62.89Z"/><rect class="cls-16" x="87.29" y="63.9" width="1.35" height="6.65" rx="0.57" transform="translate(-22.72 69.44) rotate(-38.53)"/><rect class="cls-2" x="83.73" y="55.02" width="38.96" height="0.17" transform="translate(-11.85 76.29) rotate(-38.53)"/><rect class="cls-2" x="83.09" y="54.21" width="38.96" height="0.17" transform="translate(-11.81 73.94) rotate(-37.64)"/><rect class="cls-2" x="84.32" y="55.76" width="38.96" height="0.17" transform="translate(-11.81 78.82) rotate(-39.52)"/><path class="cls-9" d="M92.62,62.85a1.06,1.06,0,0,0-.48-.22c-.56-.14-1.13-.18-1.7-.27-.35,0-1.27-.11-1.38-.54,0-.17.11-.32.24-.44l.76-.65c.1-.09.22-.2.2-.33a.24.24,0,0,0-.32-.22c-.48.19-.88.52-1.35.74a10.64,10.64,0,0,1-1.34.47c-.84.27-2.58,1.2-1.87,2.35a2.46,2.46,0,0,0,.73.59q.47.33.93.63c.41.26.92.41,1.36.63s.93.49,1.38.76a2.47,2.47,0,0,0,1,.41.29.29,0,0,0,.16,0,.17.17,0,0,0,.1-.18c0-.17-.3-.32-.43-.4s-.47-.35-.7-.54a2.13,2.13,0,0,1-.31-.29.31.31,0,0,1,0-.1c.09,0,.23.08.31.12l1.39.69a.9.9,0,0,0,.69.14.18.18,0,0,0,.14-.15.22.22,0,0,0-.06-.13,3.78,3.78,0,0,0-1-.76c-.18-.11-.35-.24-.53-.37s-.33-.17-.36-.31a2.64,2.64,0,0,1,.6.2,5.83,5.83,0,0,0,1.77.53.28.28,0,0,0,.2,0,.23.23,0,0,0,0-.28c-.18-.33-.61-.47-.93-.62s-.83-.39-1.25-.57a.38.38,0,0,1-.19-.14c-.1-.2.26-.22.37-.24a3.16,3.16,0,0,1,.69-.06c.25,0,.49,0,.73,0s.78-.06.52-.37Z"/><path class="cls-7" d="M77,60a33.16,33.16,0,0,1,4.11.75,36.9,36.9,0,0,0,4.9.63.82.82,0,0,1,.46.13c.24.19.19.56.14.86a4.81,4.81,0,0,0,.1,1.89.79.79,0,0,1,0,.4c-.06.34-1.85.38-2.22.44A28.15,28.15,0,0,1,78,65.4a5.22,5.22,0,0,1-3-1c-.93-.79-1.77-3.4-.24-4A5.08,5.08,0,0,1,77,60Z"/><path class="cls-8" d="M96.63,83a7,7,0,0,0,1.64,1.19,16.86,16.86,0,0,0,1.77,1,12.75,12.75,0,0,0,2,.79,2.93,2.93,0,0,0,1.28.17,1,1,0,0,0,.47-.24,1.31,1.31,0,0,0,.32-.63,2.79,2.79,0,0,0-.16-1.87,2.38,2.38,0,0,0-1.4-1.24c-.4-.13-.88-.17-1.1-.53s-.12-.67-.34-.9a1,1,0,0,0-.79-.19l-.91.06c-.32,0-.64,0-1,0a5.23,5.23,0,0,0-1.12,0A1.55,1.55,0,0,0,96.63,83Z"/><path class="cls-10" d="M97.65,81.91a26.14,26.14,0,0,0,3.49,2.18l.26.14.13.06c.06,0,.06,0,.11,0l.46-.44a.17.17,0,0,1,.12,0s.07,0,0,.06l-.45.43a.31.31,0,0,1-.36.11,3.23,3.23,0,0,1-.49-.25l-.49-.26c-.66-.36-1.3-.75-1.93-1.17-.35-.24-.7-.48-1-.74C97.43,81.93,97.6,81.87,97.65,81.91Z"/><path class="cls-10" d="M97.14,83a.13.13,0,0,1,.12,0c.6.36,1.21.69,1.83,1s1.26.58,1.89.85a.93.93,0,0,1,.61.69c0,.06-.16.09-.18,0a.73.73,0,0,0-.18-.4,1.08,1.08,0,0,0-.39-.25l-.92-.4c-.61-.27-1.21-.57-1.8-.89-.33-.18-.67-.38-1-.58C97.08,83.08,97.12,83.05,97.14,83Z"/><path class="cls-7" d="M99.37,80.6c.13.06.3.09.4.15a1.82,1.82,0,0,1,.52.39c.24.26.41.57.65.82a4.58,4.58,0,0,0,1.63.79,1.75,1.75,0,0,1,.75.56,1.65,1.65,0,0,1,.3.91,3.39,3.39,0,0,1-.26,1,2.43,2.43,0,0,0-.08.89,1,1,0,0,0,.47-.24,1.31,1.31,0,0,0,.32-.63,2.79,2.79,0,0,0-.16-1.87,2.38,2.38,0,0,0-1.4-1.24c-.4-.13-.88-.17-1.1-.53s-.12-.67-.34-.9a1,1,0,0,0-.79-.19Z"/><path class="cls-10" d="M97.17,83.34v0l0,0a.08.08,0,0,1,.07,0h0a3.57,3.57,0,0,1,.55-.41A4.28,4.28,0,0,1,98,82s.07-.05.12,0h0l.06,0s0,0,0,0a.3.3,0,0,1,.09.13h0l0,0h0a0,0,0,0,1,0,0h0a3.05,3.05,0,0,0-.06.6,3.76,3.76,0,0,1,.62-.27h0l0,0s0,0,0,0l.06,0h.09s0,0,0,0v0h0l.07,0,0,0a.18.18,0,0,1,0,.09,0,0,0,0,1,0,0l0,0h-.09a.31.31,0,0,1-.1,0,2.92,2.92,0,0,0-.72.32,4.22,4.22,0,0,0,.07.79.05.05,0,0,1,0,0l0,0v0s0,0,0,0,0,0-.07,0H98a.25.25,0,0,1-.09,0s0,0,0,0a.05.05,0,0,1,0,0s0,0,0,0a.05.05,0,0,1,0,0,4.93,4.93,0,0,1-.07-.66,3.37,3.37,0,0,0-.43.34l0,0a0,0,0,0,1,0,0s0,0,0,0l0,0h0s0,0,0,0h-.09l-.06,0-.06,0a.18.18,0,0,1,0-.07S97.16,83.34,97.17,83.34Z"/><path class="cls-10" d="M98.67,84.09l.06,0h0a1.08,1.08,0,0,1,.24-.18,1.64,1.64,0,0,1,.22-.14,5.51,5.51,0,0,1-.1-.91h0a.14.14,0,0,1,0-.06s0,0,0,0l.06,0h.06a.07.07,0,0,1,.06,0,.26.26,0,0,1,.11.14s0,0,0,0l0,0-.06,0a6.2,6.2,0,0,0,.08.74,2,2,0,0,1,.66-.25.12.12,0,0,1,0,0,0,0,0,0,1,0,0h0s0,0,0,0a.11.11,0,0,1,.08,0h.08l.05,0h0a.6.6,0,0,1,.08.08s0,0,0,.05a0,0,0,0,1,0,0,.08.08,0,0,1,0,0s0,0-.06,0h-.07s-.05,0-.08,0h0a1.67,1.67,0,0,0-.69.24l-.06,0a6.61,6.61,0,0,0,.2.73v0l0,0,0,0s0,0,0,0a.05.05,0,0,1,0,0,.14.14,0,0,1-.11,0l-.07,0a.16.16,0,0,1-.07-.09s0,0,0,0l0,0a5.25,5.25,0,0,1-.16-.6l-.1.07a.78.78,0,0,0-.26.22s0,0,0,0h0v0h0l0,0H98.8l-.09,0,0,0s0,0,0,0v0S98.66,84.1,98.67,84.09Z"/><path class="cls-10" d="M100.08,84.88l0,0h.06a1.87,1.87,0,0,1,.55-.42h0c-.07-.25-.13-.51-.18-.76l0,0a.31.31,0,0,1,0-.1s0,0,0,0l.06,0h.07a0,0,0,0,1,0,0h.06a.22.22,0,0,1,.09.07.08.08,0,0,1,0,0,0,0,0,0,1,0,0v0l0,0-.06,0c0,.21.09.42.14.62.19-.1.37-.19.56-.27a.09.09,0,0,1,0,0v0h0s0,0,.06,0h.08s0,0,0,0h0a.21.21,0,0,1,.13.07h0s0,0,0,0,0,0,0,0h-.17c-.21.09-.42.2-.62.31.08.26.16.52.26.77a.2.2,0,0,1,.08,0,.11.11,0,0,1,0,.07v0l0,0a.15.15,0,0,1-.09,0,.31.31,0,0,1-.13-.06l0,0a.09.09,0,0,1,0-.06s0,0,0,0h0a5.53,5.53,0,0,1-.22-.65,1.46,1.46,0,0,0-.45.37h0l.06.07s0,0,0,0h0s0,0,0,0l-.1,0-.06,0,0,0,0,0,0,0Z"/><path class="cls-6" d="M70.7,69.59c.17,3.86,4.69,5.81,7.7,7.14l3.11,1.38c2.3,1,4.6,2,7,2.91q2.61.95,5.29,1.64c.9.23,1.8.44,2.71.63.46.1.6.15.91-.18a2.32,2.32,0,0,0,.54-.91C98.25,81.1,99,80,98.12,79a4.23,4.23,0,0,0-1.2-.88c-5.11-2.84-10.47-5.46-15.39-8.62-1.18-.76-2.29-1.63-3.44-2.43a5.32,5.32,0,0,0-5.21-1A3.57,3.57,0,0,0,70.7,69.59Z"/><path class="cls-8" d="M85.6,83A7.11,7.11,0,0,1,84,84.21a17.93,17.93,0,0,1-1.77,1,13.28,13.28,0,0,1-2,.79,2.91,2.91,0,0,1-1.28.17.93.93,0,0,1-.46-.24,1.24,1.24,0,0,1-.33-.63,2.74,2.74,0,0,1,.17-1.87,2.33,2.33,0,0,1,1.39-1.24c.4-.13.88-.17,1.1-.53s.12-.67.35-.9a1,1,0,0,1,.79-.19l.9.06c.32,0,.64,0,1,0a5.14,5.14,0,0,1,1.11,0A1.55,1.55,0,0,1,85.6,83Z"/><path class="cls-10" d="M84.59,81.91a26.8,26.8,0,0,1-3.49,2.18l-.26.14-.14.06c-.06,0-.06,0-.11,0l-.46-.44a.17.17,0,0,0-.12,0s-.07,0,0,.06l.45.43a.33.33,0,0,0,.37.11,3.67,3.67,0,0,0,.48-.25c.17-.08.33-.17.49-.26.66-.36,1.3-.75,1.93-1.17.35-.24.7-.48,1-.74C84.8,81.93,84.63,81.87,84.59,81.91Z"/><path class="cls-10" d="M85.09,83A.13.13,0,0,0,85,83c-.6.36-1.21.69-1.83,1s-1.25.58-1.89.85a.93.93,0,0,0-.61.69c0,.06.17.09.18,0a.75.75,0,0,1,.19-.4,1,1,0,0,1,.38-.25l.92-.4c.61-.27,1.21-.57,1.8-.89.34-.18.67-.38,1-.58C85.15,83.08,85.12,83.05,85.09,83Z"/><path class="cls-7" d="M82.86,80.6c-.13.06-.3.09-.4.15a2,2,0,0,0-.52.39c-.23.26-.4.57-.64.82a4.71,4.71,0,0,1-1.64.79,1.81,1.81,0,0,0-.75.56,1.73,1.73,0,0,0-.3.91,3.71,3.71,0,0,0,.26,1,2.43,2.43,0,0,1,.08.89.93.93,0,0,1-.46-.24,1.24,1.24,0,0,1-.33-.63,2.74,2.74,0,0,1,.17-1.87,2.33,2.33,0,0,1,1.39-1.24c.4-.13.88-.17,1.1-.53s.12-.67.35-.9a1,1,0,0,1,.79-.19Z"/><path class="cls-10" d="M85.07,83.34a0,0,0,0,0,0,0,.05.05,0,0,0,0,0,.09.09,0,0,0-.07,0h0a3.15,3.15,0,0,0-.55-.41,4.28,4.28,0,0,0-.09-.87s-.07-.05-.12,0h0l-.06,0s0,0,0,0a.24.24,0,0,0-.09.13h0l0,0h0a0,0,0,0,0,0,0h0a4,4,0,0,1,0,.6,3.14,3.14,0,0,0-.62-.27h0s0,0,0,0,0,0,0,0a.1.1,0,0,0,0,0h-.1l0,0s0,0,0,0h0l-.07,0,0,0a.2.2,0,0,0,0,.09,0,0,0,0,0,0,0l0,0h.1l.1,0a3.3,3.3,0,0,1,.72.32,4.23,4.23,0,0,1-.08.79s0,0-.05,0,0,0,0,0a0,0,0,0,0,0,0s0,0,0,0,0,0,.07,0h.09l.08,0a.08.08,0,0,0,0,0l0,0s0,0,0,0l0,0a3.7,3.7,0,0,0,.07-.66,2.79,2.79,0,0,1,.43.34l0,0s0,0,0,0v0a0,0,0,0,0,0,0h0l0,0h.08l.06,0,.07,0a.43.43,0,0,0,0-.07Z"/><path class="cls-10" d="M83.56,84.09l-.06,0h0a1.3,1.3,0,0,0-.23-.18L83,83.75a5.5,5.5,0,0,0,.09-.91h0l0-.06a.08.08,0,0,0,0,0l-.06,0H83s0,0,0,0a.19.19,0,0,0-.11.14,0,0,0,0,0,0,0l0,0,.06,0a6.17,6.17,0,0,1-.07.74,2,2,0,0,0-.67-.25l.06,0s0,0,0,0h0s0,0,0,0a.09.09,0,0,0-.07,0H82l-.06,0h0l-.07.08,0,.05v0a.08.08,0,0,0,0,0s0,0,.07,0H82l.07,0h0a1.78,1.78,0,0,1,.69.24l0,0a5,5,0,0,1-.2.73s0,0,0,0l0,0s0,0,0,0v0a.07.07,0,0,0,.06,0,.12.12,0,0,0,.1,0l.08,0a.15.15,0,0,0,.06-.09s0,0,0,0l0,0a3.77,3.77,0,0,0,.16-.6l.1.07a.82.82,0,0,1,.27.22l0,0h0v0h0l0,0h.05a.19.19,0,0,0,.09,0s0,0,0,0a.05.05,0,0,0,0,0s0,0,0,0S83.57,84.1,83.56,84.09Z"/><path class="cls-10" d="M82.15,84.88s0,0,0,0h-.07a1.71,1.71,0,0,0-.54-.42h0a6.91,6.91,0,0,0,.17-.76l0,0a.31.31,0,0,0,0-.1s0,0,0,0l-.06,0h-.06s0,0,0,0h-.06l-.09.07,0,0s0,0,0,0,0,0,0,0l0,0,.06,0c0,.21-.09.42-.14.62a5.77,5.77,0,0,0-.56-.27s0,0,0,0,0,0,0,0h0s0,0-.07,0h-.07a0,0,0,0,0,0,0h0a.21.21,0,0,0-.13.07h0a0,0,0,0,0,0,0l0,0h.18c.21.09.41.2.61.31a7,7,0,0,1-.26.77l-.08,0a.19.19,0,0,0,0,.07s0,0,0,0l0,0a.13.13,0,0,0,.09,0,.27.27,0,0,0,.12-.06l0,0,0-.06s0,0,0,0h0c.08-.22.15-.43.22-.65a1.43,1.43,0,0,1,.44.37h0a.23.23,0,0,0-.07.07v0h0s0,0,0,0L82,85,82,85l0,0,0,0,0,0S82.16,84.88,82.15,84.88Z"/><path class="cls-6" d="M107.24,66.54a10,10,0,0,0-2.38,1.09l-5.25,3c-.87.49-1.73,1-2.56,1.55s-1.78,1.32-2.69,2c-3.12,2.18-6.75,3.58-9.77,5.9a1.81,1.81,0,0,0-.59.64,2.61,2.61,0,0,0,.46,2.17,1.7,1.7,0,0,0,2.14.62,95.23,95.23,0,0,0,12.26-3.85A37.3,37.3,0,0,0,109.8,73a5.47,5.47,0,0,0,1.27-1.49A3.39,3.39,0,0,0,107.24,66.54Z"/><path class="cls-9" d="M109.49,52a6.07,6.07,0,0,0-.27-1.32,9.34,9.34,0,0,0-.27-1.19c-.1-.27-.22-.68,0-.93a.3.3,0,0,1,.34-.1,1.34,1.34,0,0,1-.11-.39.39.39,0,0,1,.25-.47.37.37,0,0,1,.37.13,1.23,1.23,0,0,1-.07-.42.42.42,0,0,1,.17-.33.4.4,0,0,1,.38,0,1.22,1.22,0,0,1,.27.24,2.49,2.49,0,0,1-.14-.72c0-.23.12-.43.37-.4a.87.87,0,0,1,.5.3,3.21,3.21,0,0,1,.85,1.75c0,.2.11.39.14.59a4.74,4.74,0,0,1,.06.75,7,7,0,0,1-.12,1.51,22.74,22.74,0,0,1-.75,2.92.4.4,0,0,1-.12.23.51.51,0,0,1-.21.06l-1.72.15a.28.28,0,0,1-.18,0c-.09-.06-.08-.2,0-.3A5.5,5.5,0,0,0,109.49,52Z"/><path class="cls-11" d="M110.68,47.27a.08.08,0,0,0-.08,0s0,0,0,0a1.85,1.85,0,0,1,.54.83s.13,0,.11,0A1.85,1.85,0,0,0,110.68,47.27Z"/><path class="cls-11" d="M110.44,48.53a1.83,1.83,0,0,0-.47-.63.12.12,0,0,0-.08,0s0,0,0,0a1.89,1.89,0,0,1,.46.62S110.46,48.57,110.44,48.53Z"/><path class="cls-11" d="M109.8,49.14a3,3,0,0,0-.32-.47s-.14,0-.11,0a2.26,2.26,0,0,1,.31.45S109.82,49.17,109.8,49.14Z"/><path class="cls-7" d="M105.25,61.74a19.2,19.2,0,0,1,1-2.45c.8-1.7,1.55-3.41,2.27-5.14a7.24,7.24,0,0,0,.54-1.75.32.32,0,0,1,.07-.22.34.34,0,0,1,.28,0l2.42.3a.41.41,0,0,1,.29.13.41.41,0,0,1,0,.29c-.11.53-.21,1.06-.32,1.6-.39,2-.73,3.95-1.26,5.89a21.55,21.55,0,0,1-1,2.84,4,4,0,0,1-1.36,2.08,2.88,2.88,0,0,1-1.38.34,1.92,1.92,0,0,1-1.8-1.49A4.39,4.39,0,0,1,105.25,61.74Z"/><path class="cls-10" d="M93.79,45.15a1.68,1.68,0,0,1,.39-.16,1.92,1.92,0,0,1,.53.06.55.55,0,0,0,.5-.12.74.74,0,0,0,.12-.27,4,4,0,0,0,.09-1.19.24.24,0,0,0,.34-.06.63.63,0,0,0,.1-.36c0-.7.15-2-.47-2.5a1.63,1.63,0,0,0-1.23-.19,11.21,11.21,0,0,0-1.62.38c-1,.3-2.05.63-3.05,1-.28.1-.53.27-.8.35s-.42.1-.56.36A1.31,1.31,0,0,0,88,43a3.5,3.5,0,0,0,.26,1.54l0,.07a.7.7,0,0,0,.27.34.34.34,0,0,0,.46-.08c-.06.1.27.46.33.52a1.75,1.75,0,0,0,.59.34,4,4,0,0,0,1.88,0A5.86,5.86,0,0,0,93.79,45.15Z"/><path class="cls-9" d="M94.65,47.06a3.4,3.4,0,0,1-1.87.72l-.23,0-.23,0a3.39,3.39,0,0,1-2-.23.82.82,0,0,1-.54-.77,1.15,1.15,0,0,1,0-.37,2.81,2.81,0,0,0,0-.29,1,1,0,0,1,0-.16c0-.14,0-.28,0-.42a12,12,0,0,1,0-1.34.62.62,0,0,1,.12-.36,1,1,0,0,1,.18-.28,1.51,1.51,0,0,1,.57-.31,4.86,4.86,0,0,1,1.36-.24A4.93,4.93,0,0,1,93.32,43a1.38,1.38,0,0,1,.63.17.88.88,0,0,1,.25.22.77.77,0,0,1,.21.31,12.31,12.31,0,0,1,.32,1.3c0,.18.06.35.09.52v.05a2.06,2.06,0,0,0,.07.29,1.33,1.33,0,0,1,.09.37A.82.82,0,0,1,94.65,47.06Z"/><path class="cls-11" d="M94.1,44.2a2.24,2.24,0,0,0-1.2-.32,3.57,3.57,0,0,0-.8,0h0a3.45,3.45,0,0,0-.77.18,2.34,2.34,0,0,0-1.08.61.67.67,0,0,0-.08.69,1.53,1.53,0,0,0,.14.21,2,2,0,0,0,.93.61,2.75,2.75,0,0,0,2.3-.3,2.08,2.08,0,0,0,.74-.82,1.13,1.13,0,0,0,.08-.24A.62.62,0,0,0,94.1,44.2Z"/><path class="cls-9" d="M95.53,39.09c-.06-.42-.12-.85-.2-1.27s-.09-.54-.15-.81c-.14-.59-.62-.89-1.11-1.2a5.84,5.84,0,0,0-.65-.35,4.28,4.28,0,0,0-1.5-.31,3.63,3.63,0,0,0-1.47.17A6,6,0,0,0,88.07,37c-.95,1.24-.63,2.89-.28,4.26.45,1.72,1.24,3.76,3.06,4.53a2.73,2.73,0,0,0,1.87.07,3.65,3.65,0,0,0,1.5-.81,2.3,2.3,0,0,0,.35-.47,5.47,5.47,0,0,0,.6-1.27,10.29,10.29,0,0,0,.33-1.46c.07-.41.11-.82.15-1.24a5.19,5.19,0,0,0-.08-1.11C95.56,39.34,95.54,39.21,95.53,39.09Z"/><path class="cls-10" d="M87.92,41.69a.4.4,0,0,0,.16-.19,2.16,2.16,0,0,0,.14-.43,2.56,2.56,0,0,1,.68-1.15A2.42,2.42,0,0,1,90,39.27c.46-.06.94.17,1.36,0s.61-.72,1-.92.72-.08,1-.24a1.07,1.07,0,0,0,.55-.89c0-.07,0-.16.1-.16a.12.12,0,0,1,.08,0c.32.33.11.91.22,1.31s.52.75.63,1.18a4,4,0,0,0,.12.6.42.42,0,0,0,.46.27c.16-.05.21-.26.23-.41a5.19,5.19,0,0,0,0-1.18A5.44,5.44,0,0,0,95.36,37v0a4.22,4.22,0,0,0-1-1.29A2.84,2.84,0,0,0,93,35a4.75,4.75,0,0,0-5.09,1.61,5.23,5.23,0,0,0-.46,1,5.4,5.4,0,0,0-.3.94,4.1,4.1,0,0,0,0,1,6.25,6.25,0,0,0,.24,1.29C87.44,41,87.65,41.79,87.92,41.69Z"/><path class="cls-9" d="M88.3,40.93c-.9-.4-1.27.5-1.09,1a2.54,2.54,0,0,0,.62.87.89.89,0,0,0,1,.31.48.48,0,0,0,.26-.37,1.75,1.75,0,0,0-.44-1.56A1.36,1.36,0,0,0,88.3,40.93Z"/><path class="cls-9" d="M95,40.07c.77-.62,1.35.16,1.31.71a2.38,2.38,0,0,1-.38,1,.89.89,0,0,1-.92.57.56.56,0,0,1-.35-.3,1.75,1.75,0,0,1,0-1.62A1.13,1.13,0,0,1,95,40.07Z"/><path class="cls-10" d="M89.82,40a1.91,1.91,0,0,0-.38.18,1.87,1.87,0,0,0-.46.38c0,.06-.33.37-.15.41s.26-.17.33-.23a2.3,2.3,0,0,1,.37-.23,2.27,2.27,0,0,1,.88-.21,1.51,1.51,0,0,0,.3,0c.22,0,.28-.23.06-.33A1.31,1.31,0,0,0,89.82,40Z"/><path class="cls-10" d="M93.35,39.47a2.37,2.37,0,0,1,.41.06,1.62,1.62,0,0,1,.56.23c.07,0,.43.26.26.34S94.29,40,94.2,40a2.09,2.09,0,0,0-.43-.11,2,2,0,0,0-.9.06,1.38,1.38,0,0,1-.29.08c-.22,0-.33-.14-.16-.3A1.36,1.36,0,0,1,93.35,39.47Z"/><path class="cls-2" d="M93.13,43.56a.19.19,0,0,0-.15-.22.51.51,0,0,0-.4,0,2.62,2.62,0,0,1-.39.15,1.28,1.28,0,0,1-.39,0c-.21,0-.7,0-.54.36a.52.52,0,0,0,.29.23,1.54,1.54,0,0,0,1.39-.24A.58.58,0,0,0,93.13,43.56Z"/><path class="cls-10" d="M90.4,41a.12.12,0,0,0-.05,0,.31.31,0,0,0-.43.07.63.63,0,0,0,0,.43.3.3,0,0,0,.58,0A.75.75,0,0,0,90.4,41Z"/><path class="cls-10" d="M93.12,40.66a.09.09,0,0,1,0-.06.3.3,0,0,1,.43,0,.61.61,0,0,1,.11.42.28.28,0,0,1-.21.29.3.3,0,0,1-.36-.15A.8.8,0,0,1,93.12,40.66Z"/><path class="cls-11" d="M91.9,43.06a.06.06,0,0,1-.06-.05.07.07,0,0,1,0-.06c.35-.05.58-.14.58-.41a1,1,0,0,0-.07-.31,6.5,6.5,0,0,0-.25-.61c-.1-.25-.21-.5-.29-.76,0,0,0-.06,0-.06a.05.05,0,0,1,.07,0,5.28,5.28,0,0,0,.29.75c.08.2.17.4.25.61a1.36,1.36,0,0,1,.07.35c0,.41-.44.48-.66.52Z"/><path class="cls-7" d="M94.65,47.06a3.4,3.4,0,0,1-1.87.72l-.23,0-.23,0a3.39,3.39,0,0,1-2-.23.82.82,0,0,1-.54-.77,1.15,1.15,0,0,1,0-.37,2.81,2.81,0,0,0,0-.29,1,1,0,0,1,0-.16l.27.21a3.23,3.23,0,0,0,1.93.46h.27a3.54,3.54,0,0,0,1.43-.35,7.41,7.41,0,0,0,1.16-.86v.05a2.06,2.06,0,0,0,.07.29,1.33,1.33,0,0,1,.09.37A.82.82,0,0,1,94.65,47.06Z"/><path class="cls-8" d="M88.43,40.56A7.33,7.33,0,0,1,89.7,40a8.71,8.71,0,0,1,3.35-.56,9.07,9.07,0,0,1,1.63.26c.42.1.79.3,1.21.41a.24.24,0,0,0,.12,0c.06,0,.07-.1.08-.17A4.39,4.39,0,0,0,96,38.22a.56.56,0,0,0-.31-.36,7.51,7.51,0,0,0-5.24-.43,8.29,8.29,0,0,0-3.25,1.31,1.52,1.52,0,0,0-.65,1.53,5.35,5.35,0,0,0,.29,1,.35.35,0,0,0,.13.2c.13.08.29,0,.4-.15A5.37,5.37,0,0,1,88.43,40.56Z"/><path class="cls-8" d="M94.41,38.93c-.54.08-1.08.11-1.62.17-1,.11-1.92.32-2.87.48a8.63,8.63,0,0,0-1.35.21,2.37,2.37,0,0,1-1.29.11.69.69,0,0,1-.44-.26.89.89,0,0,1-.08-.43,5.53,5.53,0,0,1,.59-2.59,3.81,3.81,0,0,1,2.46-1.87,7.43,7.43,0,0,1,1.86-.34,3.51,3.51,0,0,1,1.83.4,5.36,5.36,0,0,1,2.06,2.63,2,2,0,0,1,.25.84c0,.06,0,.18,0,.23C95.57,38.92,94.82,38.87,94.41,38.93Z"/><path class="cls-10" d="M95.74,37.91a9.2,9.2,0,0,0-1.8-.64,8.53,8.53,0,0,0-2-.09,9.19,9.19,0,0,0-3.45.83,9.51,9.51,0,0,0-1.7,1s0,.06,0,.07a.15.15,0,0,0,.13,0,9.07,9.07,0,0,1,3-1.51,8.67,8.67,0,0,1,1.68-.28c.32,0,.65,0,1,0a7.78,7.78,0,0,1,1,0,7.53,7.53,0,0,1,2,.66.14.14,0,0,0,.14,0S95.78,37.93,95.74,37.91Z"/><path class="cls-12" d="M95,46.85a3.27,3.27,0,0,1-1.93.92,6.07,6.07,0,0,1-1.28,0,5.45,5.45,0,0,1-1.06-.11,1.33,1.33,0,0,1-.86-.53c0-.06-.23,0-.19,0,.39.6,1.2.66,1.84.71a6,6,0,0,0,2.56-.29,3.1,3.1,0,0,0,1.09-.72C95.25,46.84,95.07,46.81,95,46.85Z"/><path class="cls-12" d="M84.07,58.27a33.05,33.05,0,0,1-.54-4c0-.08-.2-.09-.19,0a33.55,33.55,0,0,0,.54,4C83.89,58.34,84.08,58.35,84.07,58.27Z"/><path class="cls-12" d="M79.86,60.3a5.18,5.18,0,0,0-3.61.3s0,0,0,.07a.22.22,0,0,0,.14,0,4.79,4.79,0,0,1,3.37-.28.15.15,0,0,0,.13,0S79.89,60.31,79.86,60.3Z"/><path class="cls-12" d="M106.37,58.92c-.37,1.22-1.16,2.29-1.39,3.57a3.32,3.32,0,0,0,0,1.09c0,.07.21.06.2,0-.22-1.3.48-2.49,1-3.62a9.56,9.56,0,0,0,.39-1C106.58,58.87,106.39,58.86,106.37,58.92Z"/><path class="cls-5" d="M91.35,82l-4.89-1.76a7.23,7.23,0,0,1-1.23-.56c-.06,0-.23,0-.14.07a12.49,12.49,0,0,0,2.27.94l2.48.89,1.41.5C91.32,82.14,91.47,82.07,91.35,82Z"/><path class="cls-5" d="M98.75,79.44c-.12-.18-.15-.4-.27-.58a1.34,1.34,0,0,0-.43-.39,6.55,6.55,0,0,0-.58-.32l-.69-.36L94,76.32l-1.59-.83a.17.17,0,0,0-.14,0s0,.05,0,.07L95,77c.89.47,1.8.92,2.68,1.41a1.52,1.52,0,0,1,.54.4,4.9,4.9,0,0,1,.32.65S98.79,79.5,98.75,79.44Z"/><path class="cls-5" d="M107,67a4.32,4.32,0,0,0-2.3.68c-.78.44-1.55.9-2.32,1.35-1.55.89-3.11,1.76-4.63,2.7a27.78,27.78,0,0,0-2.38,1.63s0,.06,0,.07a.14.14,0,0,0,.14,0,37.08,37.08,0,0,1,4.25-2.74l4.65-2.69a4.7,4.7,0,0,1,2.56-.88s.1,0,.1,0S107,67,107,67Z"/><path class="cls-5" d="M78.16,67.06a10,10,0,0,0-1.2-.54,4,4,0,0,0-1.29-.14c-.11,0-.11.1,0,.1a3.64,3.64,0,0,1,1.23.14c.39.14.75.33,1.13.51a.15.15,0,0,0,.13,0S78.2,67.08,78.16,67.06Z"/><path class="cls-3" d="M115.57,92.33c-1.23,1-2.26,3.59-.61,4.74a5,5,0,0,0,2.39.58,18.09,18.09,0,0,1,3.42.64,9.74,9.74,0,0,0,1.92.45,15.8,15.8,0,0,0,2.56-.22c2.76-.26,5.48.92,8.24.84,1.23,0,2.43-.32,3.66-.36,1.62-.06,3.22.29,4.84.25s2.93-.77,4.45-.6a11.36,11.36,0,0,0,2.32.19c.4,0,.78-.14,1.18-.15a9.54,9.54,0,0,1,1.31.14c1.78.23,3.23-.45,4.93-.7,1.41-.22,2.81,0,4.23-.51,2.19-.75,3.31-2.3,2.81-4.19A5.44,5.44,0,0,0,159.88,90a12.46,12.46,0,0,0-4.15-.68c-3.2-.07-6.38.38-9.58.54-5.48.28-11-.28-16.44-.27a43.09,43.09,0,0,0-9.3.71A12.38,12.38,0,0,0,115.57,92.33Z"/><path class="cls-2" d="M115.57,91.29a2.38,2.38,0,0,0-1,2.37,4.34,4.34,0,0,0,2.67,2.72,14.81,14.81,0,0,0,4.29,1c3.53.37,7.1.4,10.67.43,8.07.07,16.17.14,24.2-.51a16.66,16.66,0,0,0,4-.68c2.19-.76,3.31-2.3,2.81-4.19A5.4,5.4,0,0,0,159.88,89a12,12,0,0,0-4.15-.68c-3.2-.07-6.38.37-9.58.53-5.48.28-11-.28-16.44-.26a43.73,43.73,0,0,0-9.3.7A12.26,12.26,0,0,0,115.57,91.29Z"/><path class="cls-5" d="M162.29,92.66a3.91,3.91,0,0,1-2.72,2.27,20,20,0,0,1-4.73.77c-1.67.11-3.34.11-5,.11l-5.19,0H134.26c-3.42,0-6.85,0-10.28-.14q-1.31-.08-2.61-.21a15,15,0,0,1-2.31-.36,3.8,3.8,0,0,1-3-2.75,2.29,2.29,0,0,1,0-.94c0-.06-.18-.07-.19,0a3.12,3.12,0,0,0,1.64,3.2,10.53,10.53,0,0,0,4.53,1c3.51.31,7,.28,10.55.28h16.17c1.74,0,3.49,0,5.23-.08a25.91,25.91,0,0,0,5-.64,5.32,5.32,0,0,0,3.08-1.72,2.61,2.61,0,0,0,.4-.8C162.5,92.61,162.31,92.6,162.29,92.66Z"/><path class="cls-2" d="M118.12,96.56c0-.24-.32-.38-.55-.41a.81.81,0,0,0-.66.22.84.84,0,0,0-.27.61s0,0,0,.06a4.83,4.83,0,0,0-2.41,1.67c0,.07.13.1.17.08l1.12-.61-.14.14a2.77,2.77,0,0,0-.8,1c0,.06.13.09.17.07a11.62,11.62,0,0,0,1.31-1,7.19,7.19,0,0,0-.6,1c0,.07.13.09.17.07a2.87,2.87,0,0,0,.83-.76c-.13.36-.24.72-.34,1.09,0,.06.15.1.19.06a5.33,5.33,0,0,0,.94-2.43.63.63,0,0,0,.57-.23,1.15,1.15,0,0,0,.21-.33A.59.59,0,0,0,118.12,96.56Z"/><path class="cls-2" d="M115.15,93.24a.61.61,0,0,0-.15-.67.83.83,0,0,0-.65-.26.82.82,0,0,0-.6.3l0,0a4.71,4.71,0,0,0-2.91-.28c-.08,0,0,.16.07.17l1.25.26h-.2a2.87,2.87,0,0,0-1.27.27c-.06,0,0,.16.08.17a13,13,0,0,0,1.65.08,6.75,6.75,0,0,0-1.14.41c-.06,0,0,.15.09.16a2.86,2.86,0,0,0,1.13,0,9.7,9.7,0,0,0-1,.61c-.06,0,0,.17.1.16a5.3,5.3,0,0,0,2.29-1.24.62.62,0,0,0,.58.18,1.27,1.27,0,0,0,.38-.11A.65.65,0,0,0,115.15,93.24Z"/><path class="cls-2" d="M125.37,97.44a.58.58,0,0,0-.68-.06.8.8,0,0,0-.45.53.88.88,0,0,0,.1.67s0,0,0,0a4.75,4.75,0,0,0-1.17,2.68c0,.09.16,0,.19,0,.22-.37.43-.73.63-1.11l0,.2a2.7,2.7,0,0,0-.13,1.29c0,.06.16,0,.18,0a12.51,12.51,0,0,0,.59-1.54,6.88,6.88,0,0,0,0,1.2c0,.07.17,0,.19,0a3,3,0,0,0,.3-1.09,10.47,10.47,0,0,0,.29,1.1c0,.07.18,0,.18,0a5.24,5.24,0,0,0-.47-2.56.66.66,0,0,0,.35-.5,1.28,1.28,0,0,0,0-.39A.58.58,0,0,0,125.37,97.44Z"/><path class="cls-2" d="M135.15,97.15a.61.61,0,0,0-.67.16.79.79,0,0,0-.25.65.82.82,0,0,0,.3.6l.05,0a4.78,4.78,0,0,0-.26,2.91c0,.08.16,0,.17-.07.1-.41.18-.83.25-1.25,0,.07,0,.13,0,.2a2.75,2.75,0,0,0,.28,1.27s.16-.05.16-.09a13,13,0,0,0,.08-1.65,6,6,0,0,0,.41,1.14c0,.06.16,0,.16-.09a3.07,3.07,0,0,0,0-1.13,8.61,8.61,0,0,0,.62,1c0,.06.17,0,.16-.1a5.35,5.35,0,0,0-1.26-2.28.62.62,0,0,0,.18-.58,1.15,1.15,0,0,0-.12-.37A.62.62,0,0,0,135.15,97.15Z"/><path class="cls-2" d="M145.27,97.16a.6.6,0,0,0-.68,0,.8.8,0,0,0-.43.55.81.81,0,0,0,.13.66.08.08,0,0,0,0,0,4.78,4.78,0,0,0-1.06,2.74c0,.08.16,0,.18,0,.21-.37.41-.75.59-1.13a1.42,1.42,0,0,1,0,.2,2.83,2.83,0,0,0-.08,1.29c0,.07.16,0,.18,0a12.46,12.46,0,0,0,.53-1.56,6,6,0,0,0,.08,1.2c0,.07.16,0,.18,0a2.77,2.77,0,0,0,.26-1.09,10.33,10.33,0,0,0,.33,1.08c0,.07.18,0,.19,0a5.5,5.5,0,0,0-.58-2.54.63.63,0,0,0,.33-.51,1,1,0,0,0,0-.39A.67.67,0,0,0,145.27,97.16Z"/><path class="cls-2" d="M154.87,97.22a.59.59,0,0,0-.65.21.81.81,0,0,0-.21.66.86.86,0,0,0,.36.58l0,0a4.81,4.81,0,0,0,0,2.93c0,.08.16,0,.17-.09q.09-.63.15-1.26l0,.2a2.72,2.72,0,0,0,.38,1.24c0,.05.15-.06.15-.1a13,13,0,0,0-.05-1.65,6.74,6.74,0,0,0,.5,1.09c0,.06.15-.06.15-.1a2.86,2.86,0,0,0-.14-1.12c.22.32.45.62.69.91.05.05.17-.07.16-.12a5.27,5.27,0,0,0-1.44-2.17.64.64,0,0,0,.13-.6,1.58,1.58,0,0,0-.14-.36A.57.57,0,0,0,154.87,97.22Z"/><path class="cls-2" d="M162.3,94.2c-.25,0-.41.29-.46.51a.81.81,0,0,0,.16.67.83.83,0,0,0,.59.33h.06a4.76,4.76,0,0,0,1.44,2.55c.07,0,.12-.11.1-.16-.16-.39-.32-.78-.5-1.17l.13.16a2.73,2.73,0,0,0,.94.88c.07,0,.11-.13.09-.16-.26-.48-.56-.9-.78-1.4l1.27,1a1.13,1.13,0,0,0-.27-.69c-.15-.2-.34-.37-.47-.58a4.86,4.86,0,0,0,1.13.19.12.12,0,0,0,.13,0c0-.06,0-.13-.08-.16a7.1,7.1,0,0,0-1.06-.55,3.41,3.41,0,0,0-.86-.31s-.72-.07-.71-.13a.64.64,0,0,0-.18-.58,1,1,0,0,0-.31-.24A.59.59,0,0,0,162.3,94.2Z"/><path class="cls-8" d="M145.12,56.81c.79.71,1.88,1,2.67,1.72,2.65,2.53,3.67,6.29,4.3,9.9a76.79,76.79,0,0,1,1,8.15c.17,2.63,0,5.3.15,8a3.57,3.57,0,0,0,.29,1.33,3.94,3.94,0,0,0,.9,1.06A17.38,17.38,0,0,1,158,91.8a1.41,1.41,0,0,1,.2.89c-.12.58-.84.77-1.43.82a35.13,35.13,0,0,1-6.56-.29,8.3,8.3,0,0,1-2.79-.65,16.73,16.73,0,0,1-2.13-1.51c-2.4-1.69-5.52-1.87-8.25-2.92a26.24,26.24,0,0,1-4.35-2.3L125.1,81.2A6.86,6.86,0,0,1,123,79.63a3.74,3.74,0,0,1-.1-2.62,24.12,24.12,0,0,1,1.64-4.83c.35-.8.72-1.59,1.1-2.37.31-.62.47-1.29.74-1.93l2.42-5.69a15.64,15.64,0,0,1,1.35-2.68,6.76,6.76,0,0,1,2.69-2.31,9.21,9.21,0,0,0,2.95-1.62A6.18,6.18,0,0,1,137.43,54a5.28,5.28,0,0,1,2.4-.35,6.8,6.8,0,0,1,2.54.4,5.32,5.32,0,0,1,2.13,2A4,4,0,0,0,145.12,56.81Z"/><path class="cls-6" d="M144.16,57.42c-.85-1.68-2.07-3.07-3.95-3a5.7,5.7,0,0,0-3,.64,9.77,9.77,0,0,0-2.1,2.11c-.63.8-1.27,1.59-1.83,2.45-3.45,5.27-3,11.7-3.23,17.72-.09,2.36-.11,4.94,1.32,6.82a6.54,6.54,0,0,0,3.92,2.3,13.78,13.78,0,0,0,4.62,0,32,32,0,0,0,4.25-.88,5,5,0,0,0,2.67-1.46,5.42,5.42,0,0,0,.78-3.31,75.51,75.51,0,0,0-.05-10,59.86,59.86,0,0,0-2.07-9.83A21.59,21.59,0,0,0,144.16,57.42Z"/><path class="cls-9" d="M132.28,74.62a2,2,0,0,0,1-.06,1.67,1.67,0,0,0,.55-.39c.08-.08.38-.39.29-.52l-.07-.07a.28.28,0,0,1-.06-.15.49.49,0,0,0-.61-.3.29.29,0,0,0-.23-.25.52.52,0,0,0-.4.07.06.06,0,0,1-.06,0l0,0v0c0-.18-.21-.37-.35-.44s-.33-.2-.5-.28a2,2,0,0,0-.6-.18,1.72,1.72,0,0,0-1,.08.76.76,0,0,0-.44.78,1.2,1.2,0,0,0,.43.76,3.16,3.16,0,0,0,.87.67A3.79,3.79,0,0,0,132.28,74.62Z"/><path class="cls-11" d="M134.13,73.6a.1.1,0,0,0,0,0l-.05,0a.31.31,0,0,0-.13-.37.61.61,0,0,0-.48,0,.17.17,0,0,0,0-.12.31.31,0,0,0-.19-.16.71.71,0,0,0-.51.09.23.23,0,0,0-.09-.24s-.05,0-.07-.06,0,0,0,0a3.11,3.11,0,0,1-1-.57.08.08,0,0,0-.08,0s0,0,0,0a3.9,3.9,0,0,0,.94.56l-.08,0a.88.88,0,0,0-.29.18.34.34,0,0,0-.14-.3c-.13-.11-.29-.15-.43-.25a.06.06,0,0,0-.07,0s0,0,0,0,.28.14.41.24a.31.31,0,0,1,.13.37,0,0,0,0,0,0,0l0,0a1.47,1.47,0,0,1-.56.24h0a1.33,1.33,0,0,0-.35-.19.11.11,0,0,0-.08,0,0,0,0,0,0,0,0,1.17,1.17,0,0,1,.31.17,1.41,1.41,0,0,1-.41,0c-.05,0-.1,0,0,.05a1.77,1.77,0,0,0,.91-.12,2,2,0,0,0,.39-.25l.2-.16.13,0c.17,0,.25.17.22.31a1.06,1.06,0,0,1-.46.5,1.66,1.66,0,0,1-1,.33c-.06,0-.06.06,0,.06a1.91,1.91,0,0,0,1.07-.38,1.24,1.24,0,0,0,.4-.39l0-.07a.52.52,0,0,1,.5-.13.2.2,0,0,1,.14.21.57.57,0,0,1-.14.28,2.35,2.35,0,0,1-.91.68,2,2,0,0,1-.62.17c-.07,0,0,.06,0,.06a2.51,2.51,0,0,0,1.22-.52,2.1,2.1,0,0,0,.46-.48l0-.1h0a.34.34,0,0,1,.31,0,.24.24,0,0,1,.2.23c0,.21-.18.4-.32.54a3.23,3.23,0,0,1-1.1.62c-.06,0,0,.06.06,0a3.21,3.21,0,0,0,1-.55,1.49,1.49,0,0,0,.39-.44v0h0a0,0,0,0,1,0,0s0,0,0,0a.31.31,0,0,0,0,.08,0,0,0,0,0,0,0s0,0,0,0A.15.15,0,0,0,134.13,73.6Z"/><path class="cls-7" d="M132.22,90.43a10.15,10.15,0,0,0,3.14,1.43h6.17l.29-.09a3.26,3.26,0,0,0,1.57-1c.77-.95.71-2.74.51-3.88-.26-1.43-1.59-2.65-2.65-3.52a39.16,39.16,0,0,0-5.71-3.68l-4-2.27c-3.09-1.75-10.41-6.08-11.27.28a5.1,5.1,0,0,0,1.22,3.93,11.15,11.15,0,0,0,1.94,1.68c1.47,1.09,3.15,2,4.56,3.15S130.58,89.33,132.22,90.43Z"/><path class="cls-7" d="M120.66,75.63c-1.69,1.9-2.6,4.85-3.56,7.18-1.33,3.2-2.88,6.66-3.28,10.13a2.3,2.3,0,0,0,.1,1.25,2,2,0,0,0,1,.87,3.92,3.92,0,0,0,4.08-.18,7.32,7.32,0,0,0,2.18-3.16c.78-1.62,1.35-3.33,2.16-4.93s1.7-2.83,2.39-4.33a7.39,7.39,0,0,0,.72-4.8C125.79,75.15,122.65,73.4,120.66,75.63Z"/><path class="cls-8" d="M109.53,100a4.64,4.64,0,0,0,1.74.11l2.08-.2A5.7,5.7,0,0,1,115,99.4a3,3,0,0,1,1.12.25l2-.19a3.21,3.21,0,0,0,.72-.35.5.5,0,0,0,.19-.19.42.42,0,0,0,0-.22A3,3,0,0,0,119,98a15.84,15.84,0,0,1-.56-1.64c0-.07,0-.15,0-.23-.07-.49-.08-1-.18-1.49a.3.3,0,0,0-.08-.18.25.25,0,0,0-.14-.06,8.89,8.89,0,0,0-2.85-.32,8.14,8.14,0,0,0-.85.08,5.17,5.17,0,0,0-.26-.69.37.37,0,0,0-.13-.17.25.25,0,0,0-.19,0c-.47.08-.54.53-.57.89a6.7,6.7,0,0,1-.28,1.47,3.59,3.59,0,0,1-1.29,1.4,5.19,5.19,0,0,1-1.78,1,2.46,2.46,0,0,0-.66.23.92.92,0,0,0-.4.44C108.51,99.25,109,99.83,109.53,100Z"/><path class="cls-10" d="M115.11,94.12a2.34,2.34,0,0,0,.26.89c.54,1,1.89,1.19,3,1.16-.07-.49-.08-1-.18-1.49a.3.3,0,0,0-.08-.18.25.25,0,0,0-.14-.06A8.89,8.89,0,0,0,115.11,94.12Z"/><path class="cls-10" d="M109.53,100a4.64,4.64,0,0,0,1.74.11l2.08-.2A5.7,5.7,0,0,1,115,99.4a3,3,0,0,1,1.12.25l2-.19a3.21,3.21,0,0,0,.72-.35.5.5,0,0,0,.19-.19.42.42,0,0,0,0-.22A3,3,0,0,0,119,98l-.29.2a4.14,4.14,0,0,1-2.62.57,7.83,7.83,0,0,0-.83-.1,5,5,0,0,0-1.31.25,10.85,10.85,0,0,1-2.66.35,4.34,4.34,0,0,1-1.48-.2,5,5,0,0,0-1.07-.36C108.51,99.25,109,99.83,109.53,100Z"/><path class="cls-10" d="M112.82,95.18s.09,0,.13,0l.54-.17a2,2,0,0,1,.26.08.71.71,0,0,0,.2,0H114l.07,0a.33.33,0,0,0,.15-.36.07.07,0,0,0-.07,0h-.08l-.57.17-.47-.2a.17.17,0,0,0-.14,0s0,.05,0,.07.26.13.4.18l-.44.13S112.8,95.15,112.82,95.18Zm.88-.2.24-.07a.22.22,0,0,0,0,.14h0l-.12,0Z"/><path class="cls-10" d="M112.23,96.43c.2,0,.41,0,.61-.05l.14,0-.06,0-.17-.14-.16-.12a.05.05,0,0,1,0,0c-.05-.05.09-.08.12-.08a.19.19,0,0,1,.13.07l.22.18.15.11.26-.11h0a.26.26,0,0,1,.15,0l0,0h0s0,0,0,0v0s0,0,0,0,0,0,0,.07l0,0a.6.6,0,0,1-.2.22h0s-.11,0-.14,0l-.22-.18-.15,0a5.05,5.05,0,0,1-.68.07s-.1,0-.1,0S112.21,96.44,112.23,96.43Z"/><path class="cls-10" d="M111.3,97.19a3.52,3.52,0,0,1,.56,0l-.18-.27c0-.07.16-.1.2,0s.13.22.2.33h.11a1.09,1.09,0,0,1,.26,0h0l0,0h0a.05.05,0,0,1,0,0,.6.6,0,0,1-.09.13.57.57,0,0,1-.13.08s-.16.07-.19,0l-.2-.28h-.09l-.52,0s-.1,0-.1,0S111.28,97.19,111.3,97.19Z"/><path class="cls-10" d="M110.4,97.67a.23.23,0,0,1,.14,0l.17,0h0a.39.39,0,0,0,0-.15s.07-.06.09-.06.1,0,.11,0a.36.36,0,0,1,0,.14s0,.07,0,.11a1.59,1.59,0,0,1,.29.15h0l.06,0h0s0,0,0,0h0a.17.17,0,0,1,0,0s0,0,0,0a.27.27,0,0,1-.08.07.43.43,0,0,1-.27.06h0s-.08,0-.09,0a1,1,0,0,1-.08-.3v0l-.29-.1S110.37,97.69,110.4,97.67Z"/><path class="cls-7" d="M125.35,77.75a5.18,5.18,0,0,0,1.22,3.93,11.53,11.53,0,0,0,1.94,1.68l6.87,5.09c3.3,2.44,7.3,4.71,11.54,3.32a3.26,3.26,0,0,0,1.57-1c.77-.95.71-2.74.5-3.88-.26-1.43-1.58-2.65-2.65-3.52a39.6,39.6,0,0,0-5.7-3.68l-4-2.27C133.54,75.72,126.21,71.39,125.35,77.75Z"/><path class="cls-7" d="M125.76,75.63c-1.69,1.9-2.61,4.85-3.57,7.18a34,34,0,0,0-1.51,3.89,25.45,25.45,0,0,1-1.41,3.59,15.66,15.66,0,0,0-1.48,4.82,1.32,1.32,0,0,0,1.33,1.65c.44.1.89.17,1.33.23,1.4.18,2.38-1.29,3.18-2.24a31.47,31.47,0,0,0,4-6.1c.52-1,.88-2.07,1.46-3.07s1.23-2,1.73-3.12a7.45,7.45,0,0,0,.72-4.8C130.89,75.15,127.74,73.4,125.76,75.63Z"/><path class="cls-8" d="M113.77,101.34a4.38,4.38,0,0,0,1.73.11l2.08-.2a6.32,6.32,0,0,1,1.7-.52,3.21,3.21,0,0,1,1.11.25l2-.19a3.2,3.2,0,0,0,.72-.35.47.47,0,0,0,.18-.19.56.56,0,0,0,0-.22,3.69,3.69,0,0,0-.14-.66,13.69,13.69,0,0,1-.57-1.63c0-.08,0-.16,0-.23-.07-.49-.08-1-.18-1.49a.3.3,0,0,0-.08-.19.35.35,0,0,0-.14-.06,8.89,8.89,0,0,0-2.85-.32,8.4,8.4,0,0,0-.85.08,4.43,4.43,0,0,0-.26-.69.29.29,0,0,0-.13-.16.3.3,0,0,0-.19,0c-.46.09-.54.54-.57.89a6.7,6.7,0,0,1-.28,1.47c-.18.59-.81,1-1.29,1.4a5.1,5.1,0,0,1-1.78,1,2.39,2.39,0,0,0-.65.23.91.91,0,0,0-.4.44C112.74,100.58,113.19,101.16,113.77,101.34Z"/><path class="cls-10" d="M119.34,95.45a2.76,2.76,0,0,0,.26.89c.54,1,1.89,1.19,3,1.17-.07-.49-.08-1-.18-1.49a.3.3,0,0,0-.08-.19.35.35,0,0,0-.14-.06A8.89,8.89,0,0,0,119.34,95.45Z"/><path class="cls-10" d="M113.77,101.34a4.38,4.38,0,0,0,1.73.11l2.08-.2a6.32,6.32,0,0,1,1.7-.52,3.21,3.21,0,0,1,1.11.25l2-.19a3.2,3.2,0,0,0,.72-.35.47.47,0,0,0,.18-.19.56.56,0,0,0,0-.22,3.69,3.69,0,0,0-.14-.66l-.29.2a4.17,4.17,0,0,1-2.63.57c-.28,0-.55-.09-.82-.1a5.4,5.4,0,0,0-1.32.25,10.39,10.39,0,0,1-2.66.35,4.25,4.25,0,0,1-1.47-.2,5.39,5.39,0,0,0-1.07-.36C112.74,100.58,113.19,101.16,113.77,101.34Z"/><path class="cls-10" d="M117.05,96.52s.1,0,.13,0l.54-.17.26.08a.71.71,0,0,0,.2,0h.08l.06,0a.32.32,0,0,0,.15-.36s0,0-.06,0h-.09l-.57.17a4.73,4.73,0,0,1-.47-.2.15.15,0,0,0-.14,0s0,0,0,.06a2.87,2.87,0,0,0,.4.18l-.43.13S117,96.48,117.05,96.52Zm.88-.21.25-.07a.22.22,0,0,0,0,.14h0l-.12,0Z"/><path class="cls-10" d="M116.47,97.77c.2,0,.4,0,.6-.06l.14,0,0,0-.18-.15-.15-.12a.08.08,0,0,1-.06,0c0-.06.09-.09.12-.08a.2.2,0,0,1,.13.06l.23.18.14.11a1.45,1.45,0,0,0,.26-.11h0a.22.22,0,0,1,.16,0l0,0h0a0,0,0,0,1,0,0v0s0,0,0,0a.07.07,0,0,1,0,.07l0,0a.47.47,0,0,1-.2.22h0a.14.14,0,0,1-.14,0,1.84,1.84,0,0,0-.22-.17l-.14,0a5.38,5.38,0,0,1-.69.07s-.1,0-.1,0S116.44,97.77,116.47,97.77Z"/><path class="cls-10" d="M115.54,98.52a4.91,4.91,0,0,1,.55,0c-.06-.09-.12-.18-.17-.27s.15-.1.19,0,.13.21.2.32h.11a.76.76,0,0,1,.26.06h0l0,0h0a0,0,0,0,1,0,0,.38.38,0,0,1-.09.13.94.94,0,0,1-.12.09s-.17.06-.2,0l-.2-.28h-.08a3,3,0,0,0-.52,0s-.1,0-.11,0S115.51,98.52,115.54,98.52Z"/><path class="cls-10" d="M114.63,99a.2.2,0,0,1,.15,0l.16.05h0a.39.39,0,0,0,0-.15s.07-.06.1-.06.09,0,.1,0a.34.34,0,0,1,0,.14v.11a1.51,1.51,0,0,1,.28.15h.1a0,0,0,0,1,0,0h0a.07.07,0,0,1,0,0s0,0,0,0a.31.31,0,0,1-.09.07.37.37,0,0,1-.27.06h0s-.07,0-.08,0a.61.61,0,0,1-.08-.3s0,0,0,0l-.3-.1S114.6,99,114.63,99Z"/><path class="cls-12" d="M126.11,75a15.06,15.06,0,0,0-2.06,3.12c-.59,1.17-1.09,2.38-1.58,3.59s-1,2.61-1.54,3.92-1,2.64-1.49,4l-1.51,4-.18.5c0,.07.17.09.19,0,.5-1.33,1-2.67,1.49-4l1.49-4c.5-1.32,1-2.63,1.53-3.93s1-2.45,1.56-3.64A17,17,0,0,1,126,75.4l.31-.37C126.33,75,126.15,74.93,126.11,75Z"/><path class="cls-12" d="M140.81,91.57c-1.54-.79-3-1.68-4.49-2.62s-2.89-2-4.31-3l-2.33-1.71.3-.62a30.29,30.29,0,0,0,1.27-2.92,6.06,6.06,0,0,0,.35-1.68c0-.07-.19-.07-.2,0a8.55,8.55,0,0,1-.86,3c-.34.74-.69,1.49-1,2.23,0,0,0,0,0,.05-.1.23-.21.46-.32.69-.27.58-.54,1.15-.8,1.72,0,.07.16.09.19,0l1.08-2.33c1.36,1,2.72,2,4.1,3s2.89,2,4.38,2.85c.85.5,1.7,1,2.57,1.43a.17.17,0,0,0,.14,0S140.85,91.59,140.81,91.57Z"/><path class="cls-8" d="M135,60l-.07.27a4.55,4.55,0,0,1-.75,1.59c-.35.49-.72,1-1.09,1.42a8.4,8.4,0,0,0-.87,1.21,7.32,7.32,0,0,0-.65,2c-.53,2.46-1.05,4.94-1.46,7.42a.79.79,0,0,1-.13.4.53.53,0,0,1-.51.14,1.46,1.46,0,0,1-1.07-1.4,18.06,18.06,0,0,1,0-2.08,21.19,21.19,0,0,1,.19-3.09,22,22,0,0,1,1.19-4c.24-.65.48-1.3.76-1.93A14.83,14.83,0,0,1,132.9,58a6.26,6.26,0,0,1,1.3-1.22,6.13,6.13,0,0,1,.8-.33c.3-.15.42-.46.76-.57.06,0,.14,0,.18,0a.2.2,0,0,1,0,.15C135.6,57.37,135.28,58.66,135,60Z"/><path class="cls-2" d="M135.14,71.21l.58-4.2h-4.94l.59,4.2a1,1,0,0,0,1,.77h1.74A1,1,0,0,0,135.14,71.21Z"/><path class="cls-9" d="M133.77,70a3.39,3.39,0,0,0,.45,0,1.56,1.56,0,0,0,.56-.12,1.27,1.27,0,0,0,.65-.92.65.65,0,0,1,0-.2.17.17,0,0,1,.18-.1.28.28,0,0,1,.1.09c.42.55.28,1.36.59,2a7.59,7.59,0,0,1,.33.78.4.4,0,0,1,0,.24.42.42,0,0,1-.15.22l-.85.83a.66.66,0,0,1-.39.23.65.65,0,0,1-.2,0,4.6,4.6,0,0,0-1.56-.18,3.16,3.16,0,0,1-1.51-.38,1.3,1.3,0,0,1-.76-.69.17.17,0,0,1,0-.14.09.09,0,0,1,.11-.07,1.9,1.9,0,0,1-.44-.78.26.26,0,0,1,.16-.27,1.33,1.33,0,0,1-.2-.51c0-.1,0-.34.09-.39a.14.14,0,0,1,.09,0,2.65,2.65,0,0,1,.37.12,2.29,2.29,0,0,0-.1-.23.23.23,0,0,1,0-.25c.08-.1.25-.06.37,0a6.58,6.58,0,0,0,1.76.78Z"/><path class="cls-9" d="M141.69,78.85a2.25,2.25,0,0,0,.76.34,1.51,1.51,0,0,0,.73-.07,2.17,2.17,0,0,0,1.42-1.52,2.2,2.2,0,0,0-.54-2,4.44,4.44,0,0,0-1.07-.74l-5.76-3.15a5.24,5.24,0,0,0-1.4-.6,1.15,1.15,0,0,0-.91.13,1.12,1.12,0,0,0-.15,1.49c.52.54,1.15,1,1.69,1.5,1.08,1,2.11,2.14,3.24,3.13A14.6,14.6,0,0,0,141.69,78.85Z"/><path class="cls-6" d="M144.06,75.59a4.44,4.44,0,0,0-1.07-.74l-5.3-2.9a7.37,7.37,0,0,1-.53,1,8.85,8.85,0,0,1-.81,1.12.52.52,0,0,1,.11.1c1.08,1,2.11,2.14,3.24,3.13a14.6,14.6,0,0,0,2,1.5,2.25,2.25,0,0,0,.76.34,1.51,1.51,0,0,0,.73-.07,2.17,2.17,0,0,0,1.42-1.52A2.2,2.2,0,0,0,144.06,75.59Z"/><path class="cls-11" d="M133.3,70.75a3.46,3.46,0,0,1-1.69-1s-.14,0-.1,0a3.51,3.51,0,0,0,1.76,1S133.38,70.76,133.3,70.75Z"/><path class="cls-11" d="M132.77,71.44a3.11,3.11,0,0,1-1.58-.9s-.14,0-.1,0a3.25,3.25,0,0,0,1.65.93S132.84,71.45,132.77,71.44Z"/><path class="cls-11" d="M132.63,72.14A1,1,0,0,1,132,72a1.73,1.73,0,0,1-.48-.36s-.14,0-.11,0a2.2,2.2,0,0,0,.56.4,1,1,0,0,0,.67.18s.05,0,0,0S132.64,72.14,132.63,72.14Z"/><path class="cls-5" d="M140,77.64l-3.61-3.44s-.23,0-.17,0l3.61,3.44S140.06,77.7,140,77.64Z"/><path class="cls-5" d="M139.5,72.84a13.62,13.62,0,0,1-1.6-1,.22.22,0,0,0-.14,0s-.07.05,0,.07a13.62,13.62,0,0,0,1.63,1,.14.14,0,0,0,.14,0S139.54,72.86,139.5,72.84Z"/><path class="cls-8" d="M139.83,62.23c-.87,3.45-.46,7.07-.13,10.62q.84,9,1,18.1c0,.72.12,1.6.78,1.89a2.12,2.12,0,0,0,.79.1q5.1-.06,10.2-.31a.74.74,0,0,0,.46-.14.65.65,0,0,0,.11-.48,12.09,12.09,0,0,0-.57-2.64c-2.23-7.81-3-16-4.7-23.89a21.35,21.35,0,0,0-1.1-3.82c-.42-1-1.07-1.81-1.45-2.87-.58-1.59-1.24-3.27-2.63-4.23a2.21,2.21,0,0,0-1.67-.47C141.56,57,140.54,59.41,139.83,62.23Z"/><path class="cls-9" d="M140.87,54.66a1.64,1.64,0,0,1-.71.62,9.54,9.54,0,0,1-1.11.55,6.08,6.08,0,0,1-.6.21,2.8,2.8,0,0,0-.31.09l-.2.11a.68.68,0,0,0-.26.34c-.26.6-.32,1.28-.54,1.9-.08,0-.13-.09-.17-.17a11,11,0,0,1-.51-1.39A13.29,13.29,0,0,1,136,55.6c-.06-.26-.1-.51-.15-.77s-.11-.79-.14-1.19,0-.66,0-1h0a1.94,1.94,0,0,1,.23-.73,6.25,6.25,0,0,1,2-2.8,1.28,1.28,0,0,1,1.14-.29c.53.22.63.76.86,1.27a5.81,5.81,0,0,1,.31,1.68c.09.67.23,1.33.36,2a1.89,1.89,0,0,0,.21.53C140.83,54.42,140.93,54.51,140.87,54.66Z"/><path class="cls-11" d="M137,54.34a2.45,2.45,0,0,1-1.21.49c-.06-.39-.11-.79-.14-1.19s0-.66,0-1a4.33,4.33,0,0,1,1-.37c.5-.16,1.3-.39,1.57.13S137.51,54,137,54.34Z"/><path class="cls-9" d="M134.84,45.31a3.79,3.79,0,0,0-.3.75c-.21.73-.15,1.67-.71,2.26-.36.38-.82.64-1.21,1a1,1,0,0,0-.28.5c0,.13.12.22.23.28l.44.24a.76.76,0,0,1,.25.18.4.4,0,0,1,.1.24,1.65,1.65,0,0,1-.06.73,9,9,0,0,0-.14,1,1.24,1.24,0,0,0,.14.87,2,2,0,0,0,.82.52,5,5,0,0,0,4-.39,5.67,5.67,0,0,0,1.3-1.19c.36-.37.92-.18,1.36-.3a2.9,2.9,0,0,0,1.85-2.22,5.47,5.47,0,0,0,0-1.46,4.59,4.59,0,0,0-.16-1.17,4.21,4.21,0,0,0-.55-1,5.46,5.46,0,0,0-1.05-1.33,5.12,5.12,0,0,0-2.56-1,3.79,3.79,0,0,0-2.71.63,2.41,2.41,0,0,0-.68.67A.6.6,0,0,0,134.84,45.31Z"/><path class="cls-10" d="M136.7,47.1a1.93,1.93,0,0,0,.18-.84,1,1,0,0,0-.39-.67c-.42-.31-1.08-.26-1.39-.68a.93.93,0,0,1,.05-1,2.19,2.19,0,0,1,1.16-1,.78.78,0,0,1,.39-.08.79.79,0,0,1,.37.2,1.3,1.3,0,0,0,.73.32,1.92,1.92,0,0,0,.61-.17,3.8,3.8,0,0,1,1.06-.24,1.77,1.77,0,0,1,1.11.21c.41.26.64.75,1.09.93a4.07,4.07,0,0,0,.78.11,1.66,1.66,0,0,1,1.34,1.45,2.66,2.66,0,0,0,.08.8c.16.36.57.53.92.73a1.68,1.68,0,0,1,1,1.49c0,.37-.25.7-.32,1.06-.12.71.33,1.42.23,2.13a1.44,1.44,0,0,1-1,1.14,7.58,7.58,0,0,0-.95.18c-.47.19-.36.69-.9.82a1.66,1.66,0,0,1-1.45-.24,2.5,2.5,0,0,0-.47-.39,1.05,1.05,0,0,0-.93.15,2.15,2.15,0,0,1-.88.38,1.22,1.22,0,0,1-.85-.34,2.27,2.27,0,0,1-.73-2.23c.06-.24.17-.48.21-.72a.85.85,0,0,0-.13-.71,2.24,2.24,0,0,0-.56-.39,1.47,1.47,0,0,1-.54-1,2.49,2.49,0,0,1,.16-1.14Z"/><path class="cls-10" d="M134.6,47.29a.22.22,0,0,1,.17-.12.8.8,0,0,1,.48.09,2,2,0,0,1,.51.36,1.41,1.41,0,0,1,.21.31s.13.36.14.36c-.17,0-.29-.2-.43-.33a2,2,0,0,0-.68-.33.79.79,0,0,1-.35-.13A.17.17,0,0,1,134.6,47.29Z"/><path class="cls-10" d="M134.72,48.47a.24.24,0,0,1,.19-.06c.17,0,.21.18.21.31h0a.43.43,0,0,1,0,.16.62.62,0,0,1-.09.29.22.22,0,0,1-.1.09.2.2,0,0,1-.17,0h0l-.07,0a.36.36,0,0,1-.09-.38.53.53,0,0,1,0-.13.14.14,0,0,1,0-.06.15.15,0,0,1,0-.11Z"/><path class="cls-2" d="M134.88,51.55l.06-.1c0-.14-.09-.24-.21-.27a.29.29,0,0,0-.16,0l-.18.06a.78.78,0,0,1-.34,0,.38.38,0,0,0-.15,0c-.33,0-.33.46-.08.59a.64.64,0,0,0,.34,0,.85.85,0,0,0,.44-.11,1.73,1.73,0,0,0,.21-.17Z"/><path class="cls-8" d="M138,48.74a.89.89,0,0,1-.67-.69,1.9,1.9,0,0,1,.19-1.22c0-.07-.16-.09-.18,0a1.88,1.88,0,0,0-.19,1.33,1,1,0,0,0,.8.7s.11,0,.12,0S138,48.74,138,48.74Z"/><path class="cls-8" d="M138.94,48.47a.85.85,0,0,1-.72-1c0-.06-.19-.07-.2,0a.93.93,0,0,0,.19.75,1.06,1.06,0,0,0,.68.36s.1,0,.12,0S139,48.48,138.94,48.47Z"/><path class="cls-8" d="M139.73,52.09a.14.14,0,0,0-.14,0,.66.66,0,0,1-.65-.12.75.75,0,0,1-.26-.64c0-.07-.19-.08-.19,0a.8.8,0,0,0,.34.74,1,1,0,0,0,.9.09A0,0,0,0,0,139.73,52.09Z"/><path class="cls-8" d="M140.46,51.62a1.27,1.27,0,0,1-.58-.06.48.48,0,0,1-.29-.37c0-.07-.2-.06-.19,0a.57.57,0,0,0,.34.44,1.61,1.61,0,0,0,.72.09s.1,0,.1,0S140.49,51.62,140.46,51.62Z"/><path class="cls-8" d="M144.51,47.82a.15.15,0,0,0-.13,0s-.07,0,0,.07a1.2,1.2,0,0,1,.41,1.11c0,.06.19.07.2,0A1.31,1.31,0,0,0,144.51,47.82Z"/><path class="cls-8" d="M141.93,44.64s-.11,0-.13,0,0,0,.07.06h0l.05,0,.1,0a.8.8,0,0,1,.17.15.7.7,0,0,1,.18.42s.07,0,.1,0,.1,0,.1,0A.84.84,0,0,0,141.93,44.64Z"/><path class="cls-8" d="M143.43,51.52a.17.17,0,0,0-.14,0,.27.27,0,0,1-.17.06H143a.56.56,0,0,1-.31-.23c0-.06-.22,0-.19,0a.74.74,0,0,0,1,.23S143.47,51.54,143.43,51.52Z"/><path class="cls-6" d="M141,53.75c0,1,0,1.87-.07,2.82a1.92,1.92,0,0,1-.19.85,2,2,0,0,1-.59.57,8.58,8.58,0,0,1-1.27.82,9.3,9.3,0,0,1-2,.63,22.49,22.49,0,0,0,.46-3.65.38.38,0,0,1,.24-.41,11.78,11.78,0,0,0,3-1.87s.08-.1.15-.11a.2.2,0,0,1,.2.11A.69.69,0,0,1,141,53.75Z"/><path class="cls-6" d="M137,58.11a.37.37,0,0,1-.07.34.35.35,0,0,1-.2,0,1.2,1.2,0,0,1-1-.79,2.52,2.52,0,0,1-.06-.48l0-1.2a2.55,2.55,0,0,1,0-1c0-.06.23.17.25.18s.22.19.33.28a2.06,2.06,0,0,1,.29.3,1.45,1.45,0,0,1,.18.53c.07.31.13.62.17.93S136.92,57.81,137,58.11Z"/><path class="cls-10" d="M137.52,55.49c0-.07-.19-.07-.19,0a14,14,0,0,1-.32,2.82,13.11,13.11,0,0,0-.45-2.65c0-.06-.22,0-.19,0a14.92,14.92,0,0,1,.47,2.75v0a7,7,0,0,1-.3,2.12,8,8,0,0,0-.25,2.18c0,.1.28.09.27,0a8,8,0,0,1,.26-2.18,7.56,7.56,0,0,0,.3-2A11.91,11.91,0,0,0,137.52,55.49Z"/><path class="cls-5" d="M140.59,57.44a7.42,7.42,0,0,1-2.47,1.66s0,0,0,.07a.14.14,0,0,0,.14,0,7.72,7.72,0,0,0,2.5-1.67C140.83,57.43,140.64,57.4,140.59,57.44Z"/><path class="cls-5" d="M136.28,58.84a1.39,1.39,0,0,1-.47-.55c0-.06-.22,0-.19,0a1.56,1.56,0,0,0,.52.59.17.17,0,0,0,.14,0S136.31,58.86,136.28,58.84Z"/><path class="cls-10" d="M144.49,92.42c-1.67-1.13-1.81-3.41-1.88-5.24-.09-2.64-.06-5.28-.06-7.92s0-5.3-.2-7.94c-.1-1.31-.26-2.61-.42-3.91a10.89,10.89,0,0,1,0-3.82c.54-2.37,2.08-4.53,1.91-7a5.32,5.32,0,0,0-.14-.89c0-.14-.42-.12-.39,0,.63,2.5-.84,4.83-1.56,7.13a8.32,8.32,0,0,0-.37,1.77,9.88,9.88,0,0,0,0,2c.11,1.31.33,2.62.44,3.93.24,2.65.28,5.32.28,8s0,5.33,0,8a18.9,18.9,0,0,0,.26,3.19,4.85,4.85,0,0,0,1.17,2.48,4.24,4.24,0,0,0,.52.43.32.32,0,0,0,.27,0C144.47,92.54,144.57,92.47,144.49,92.42Z"/><path class="cls-10" d="M152.9,85.76a2.62,2.62,0,0,0-.9-.85c-.42-.3-.85-.59-1.28-.87-.86-.58-1.72-1.14-2.58-1.69l-1.47-.93a.32.32,0,0,0-.27,0c-.08,0-.07.1,0,.15q2.57,1.59,5.06,3.3a3,3,0,0,1,1.06.95C152.58,85.93,153,85.89,152.9,85.76Z"/><path class="cls-10" d="M133.18,57.45c-.08,0-.21,0-.27,0a5.28,5.28,0,0,0-1.18,2.94,11.11,11.11,0,0,1-.39,1.61,7,7,0,0,1-.84,1.6,13.78,13.78,0,0,0-1.82,3.1,17,17,0,0,0-.62,3.48,9.07,9.07,0,0,1-.86,3.36c-.06.13-.14.25-.21.38s.3.16.37.05a7.74,7.74,0,0,0,1-3.28,27.36,27.36,0,0,1,.53-3.5,7.49,7.49,0,0,1,.68-1.63c.31-.52.66-1,1-1.51a10.1,10.1,0,0,0,.93-1.55,7.38,7.38,0,0,0,.48-1.6,7.43,7.43,0,0,1,1-3.06,3.58,3.58,0,0,1,.26-.29C133.31,57.52,133.24,57.47,133.18,57.45Z"/></g></g></svg>