<svg xmlns="http://www.w3.org/2000/svg" viewBox="0 0 180.78 124.82"><defs><style>.cls-1{fill:#d1ecee;}.cls-2{fill:#fff;}.cls-3{fill:#517c55;}.cls-4{fill:#5d8c64;}.cls-5{fill:#85c16c;}.cls-6{fill:#f8c06d;}.cls-7{fill:#b2764b;}.cls-8{fill:#ec8161;}.cls-9{fill:#403868;}.cls-10{fill:#f89a44;}.cls-11{fill:#fdba44;}.cls-12{fill:#fbe683;}.cls-13{fill:#d89060;}.cls-14{fill:#f6977d;}.cls-15{fill:#4395a3;}.cls-16{fill:#5bb7ba;}.cls-17{fill:#1e1b35;}.cls-18{fill:#414983;}.cls-19{fill:#db6358;}</style></defs><g id="Layer_2" data-name="Layer 2"><g id="Layer_1-2" data-name="Layer 1"><rect class="cls-1" width="180.78" height="124.82"/><path class="cls-2" d="M44.63,14.83a3.38,3.38,0,0,1,2.57-.18,5.41,5.41,0,0,1,3.14,4.5,2,2,0,0,1,2-.15,1.64,1.64,0,0,1,.88,1.92,1.38,1.38,0,0,1-1.27.74,78.59,78.59,0,0,1-9.33.49l-3.09,0-8.61,0-11.61.07c-1.76,0-3.52,0-5.26.17s-3.69-.31-5.54,0a1.13,1.13,0,0,1-1.34-.89,1.73,1.73,0,0,1,.45-1.32,2.83,2.83,0,0,1,3.72-.74A6.2,6.2,0,0,1,13.67,14a3.62,3.62,0,0,1,4.8.94c1.59-3.64,5.26-5.68,8.38-4.54a7.34,7.34,0,0,1,4.07,4.42c1.32-2.72,3.88-4.32,6.34-3.95S42,13.5,42.77,16.54A4.52,4.52,0,0,1,44.63,14.83Z"/><path class="cls-2" d="M123.8,37.39a3,3,0,0,1,2.33-.11,5,5,0,0,1,2.76,4.13,1.84,1.84,0,0,1,1.79-.09,1.5,1.5,0,0,1,.76,1.76,1.28,1.28,0,0,1-1.16.65,70.49,70.49,0,0,1-8.47.25l-2.8,0-7.81-.13-10.52-.18c-1.59,0-3.19-.07-4.77.05s-3.33-.35-5-.14a1,1,0,0,1-1.19-.83,1.55,1.55,0,0,1,.44-1.19,2.55,2.55,0,0,1,3.38-.59,5.61,5.61,0,0,1,2.24-5,3.28,3.28,0,0,1,4.33.95c1.52-3.26,4.89-5,7.69-3.94a6.63,6.63,0,0,1,3.59,4.09c1.25-2.44,3.61-3.84,5.83-3.46s4.19,2.53,4.88,5.3A4.05,4.05,0,0,1,123.8,37.39Z"/><path class="cls-2" d="M159.87,10.19A4.77,4.77,0,0,1,163.5,10c2.24.82,4,3.46,4.32,6.46a2.88,2.88,0,0,1,2.8-.14,2.34,2.34,0,0,1,1.18,2.75,2,2,0,0,1-1.81,1,110.27,110.27,0,0,1-13.23.39l-4.38-.07-12.2-.21-16.45-.27c-2.49,0-5-.11-7.46.08s-5.21-.56-7.84-.23a1.59,1.59,0,0,1-1.87-1.3,2.42,2.42,0,0,1,.69-1.86,4,4,0,0,1,5.29-.92c-.17-3.17,1.28-6.4,3.5-7.75a5.12,5.12,0,0,1,6.76,1.48c2.37-5.09,7.64-7.88,12-6.16a10.38,10.38,0,0,1,5.62,6.39c2-3.81,5.64-6,9.11-5.39s6.55,3.94,7.63,8.27A6.36,6.36,0,0,1,159.87,10.19Z"/><path class="cls-3" d="M78,110.05a103.52,103.52,0,0,1-17,1.11,34.62,34.62,0,0,0-7.82.41c-2.57.58-5,1.56-7.7,1.8-1.31.13-2.84,0-3.57-1a3.47,3.47,0,0,1-.06-3.1c-2.43,2.06-5.58,3.93-8.85,3.44a4.1,4.1,0,0,1-2.44-1.14,4.46,4.46,0,0,1-.66-3.61,15.78,15.78,0,0,1,3.69-8.51c.38-.48,1.73-1.6,1.8-2.18s-1-.42-1.64-.8a2.75,2.75,0,0,1-1-1,2.93,2.93,0,0,1-.27-.75,6,6,0,0,1,.41-3.24,21.86,21.86,0,0,1,6-8.84,21.12,21.12,0,0,1,1.65-1.35,14,14,0,0,1-4.86.29,2.11,2.11,0,0,1-2-2.38c.21-4.69,2.75-8.32,5.74-11.87.32-.37.72-.68,1-1,.14-.16.39-.68.62-1,.12-.19.23-.34.33-.37a2.69,2.69,0,0,1-3.09-2.1,4.34,4.34,0,0,1,.33-2.6,8.39,8.39,0,0,1,.66-1.26,20.85,20.85,0,0,1,3.57-4.12l.76-.68c-.89-.13-1.92.2-2.63-.33a1.64,1.64,0,0,1-.54-.76c-.57-1.55.43-3.2,1.43-4.55l0,0c1.36-1.82,2.78-3.6,4.28-5.32.92-1.05,1.86-2.09,2.83-3.1l-2-.23a2,2,0,0,1-1-.31c-.8-.62-.37-1.9.31-3.08a21.89,21.89,0,0,1,1.54-2.24,18.64,18.64,0,0,1,4.53-4.28,6.36,6.36,0,0,1,1.72-.88c3.92-1.19,8.2,3,9.58,6.27A2,2,0,0,1,63.8,37a2.2,2.2,0,0,1-1,.72l-1.85.81a19.06,19.06,0,0,1,5.24,5.67c.66,1,1.53,1.66,2.16,2.66A19.8,19.8,0,0,1,70,50.37a2.46,2.46,0,0,1,.15,1.91,2,2,0,0,1-1.3,1,6,6,0,0,1-1.7.13,3.45,3.45,0,0,0,.64,1.23l.08.11L69,56.27a20.35,20.35,0,0,1,2,3.32,10.63,10.63,0,0,1,.78,2.35,3.25,3.25,0,0,1,.05,1.35,1.4,1.4,0,0,1-.86,1c-.76.27-1.61-.32-2.41-.15-.1.16.07.34.22.45.32.24.62.49.92.75a18.34,18.34,0,0,1,3.57,4.43A34.15,34.15,0,0,1,75.29,74c.26.64.51,1.29.76,1.94.62,1.62,1.47,5.27-.73,6.22A4.09,4.09,0,0,1,72.44,82c-.18-.06-.91-.4-1.1-.17s.18.34.44.5l.33.19a17.47,17.47,0,0,1,4.31,4,32,32,0,0,1,2.16,3.48A10.41,10.41,0,0,1,80,93.49a4.8,4.8,0,0,1,0,.85,1.52,1.52,0,0,1-.52,1.07,8.29,8.29,0,0,1-2.15,1.06.79.79,0,0,0-.41,1.13,3.05,3.05,0,0,0,.61.78A19.28,19.28,0,0,1,82,106.11a7.21,7.21,0,0,1,.29,1.38C82.48,109.25,79.36,109.83,78,110.05Z"/><path class="cls-4" d="M43.78,108.67c-.79,2-4.5,1.68-6.89,2-3.07.43-6.14.75-9.23.94-1.94.12-4.32-.24-6.19.18-2,.46-3.59,1.41-5.82,1.3a4.35,4.35,0,0,1-1.14-.15c-.42-.13-.47-.31-.95-.34a17.9,17.9,0,0,0-2.74,0,19,19,0,0,1-3.28.19c-.78-.08-1.54.09-2.32,0a4.39,4.39,0,0,1-3.57-2.25,5.34,5.34,0,0,1-.35-2.83A18.07,18.07,0,0,1,3.68,101c.54-1,2.48-4.14,3.64-4.37a8.53,8.53,0,0,1-2.94.07,2.49,2.49,0,0,1-1.16-.41c-.9-.65-.84-2-.59-3.08C4,87.48,8.25,83.43,12,79.12c.2-.24.74-1.26,1.06-1.31-1.71.08-3.69,1.5-4.67-.87a5.28,5.28,0,0,1,0-3.24,21.1,21.1,0,0,1,3.36-7.24c1.13-1.56,2.88-2.66,3.85-4.35.74-1.29,0-1.15-1.18-.73-1.71.62-2.69-.41-2.53-2.24a7.94,7.94,0,0,1,1-2.8c1.69-3.35,3.67-6.71,6.56-9.18,1.3-1.11,2.8-2.24,4.6-2.12s3.45,1.46,4.71,2.71a31.92,31.92,0,0,1,4.5,5.65,7.21,7.21,0,0,1,1.34,5.17c-.38,1.78-2.38,3.27-4,2.54a8.6,8.6,0,0,1,2.58,2.19c.67.69,1.45,1.29,2.12,2a13.51,13.51,0,0,1,3.19,5.58,6.23,6.23,0,0,1-.09,4.42A3.11,3.11,0,0,1,34.58,77l1.82,2.28c3.17,4,6.45,8.18,7.23,13.19a5.88,5.88,0,0,1-.1,2.8c-1,3.14-5.4,1.74-7.56.68a21.57,21.57,0,0,1,7.66,10.31A3.36,3.36,0,0,1,43.78,108.67Z"/><path class="cls-5" d="M19.27,75.86a2.31,2.31,0,0,1-.73-.11,1,1,0,0,1-.55-.33,1.17,1.17,0,0,1-.19-.58,4.63,4.63,0,0,1,.07-1.34A12.91,12.91,0,0,1,15.82,75a1.63,1.63,0,0,1-.79.28,1.5,1.5,0,0,1-1.3-.92,4.68,4.68,0,0,1-.34-2.86,10.65,10.65,0,0,1,1.76-4.63.21.21,0,0,1,.3-.06.22.22,0,0,1,.06.31,10.34,10.34,0,0,0-1.69,4.44,4.39,4.39,0,0,0,.3,2.6c.18.33.49.69.87.69h0a1.4,1.4,0,0,0,.59-.23,12.25,12.25,0,0,0,2.54-1.93.23.23,0,0,1,.27,0,.22.22,0,0,1,.09.27,4.27,4.27,0,0,0-.26,1.91.65.65,0,0,0,.1.35.6.6,0,0,0,.32.18,2.89,2.89,0,0,0,2.69-.83A8.9,8.9,0,0,0,23,71.91a.22.22,0,1,1,.39.19,9.17,9.17,0,0,1-1.75,2.72A3.64,3.64,0,0,1,19.27,75.86Z"/><path class="cls-5" d="M30.88,93.09a5.11,5.11,0,0,1-2.62-1,.22.22,0,0,1-.07-.3.21.21,0,0,1,.3-.07,4.08,4.08,0,0,0,2.77.86,2.91,2.91,0,0,0,2.12-2.21,7.78,7.78,0,0,0-.1-3.37.21.21,0,0,1,.17-.25.21.21,0,0,1,.26.17,8,8,0,0,1,.09,3.56,3.35,3.35,0,0,1-2.46,2.54A3.73,3.73,0,0,1,30.88,93.09Z"/><path class="cls-5" d="M22.5,60.1a2.79,2.79,0,0,1-1.39-.35.22.22,0,0,1-.09-.3.23.23,0,0,1,.3-.08,2.43,2.43,0,0,0,3.58-1.78.22.22,0,0,1,.22-.19h0a.22.22,0,0,1,.21.2,1.33,1.33,0,0,0,.58.93,1.3,1.3,0,0,0,1.06.25,2.26,2.26,0,0,0,1.33-1.16,5,5,0,0,0,.44-3.76.22.22,0,0,1,.15-.27.22.22,0,0,1,.27.15,5.35,5.35,0,0,1-.48,4.09,2.7,2.7,0,0,1-1.61,1.38,1.79,1.79,0,0,1-1.42-.32,1.9,1.9,0,0,1-.51-.55,2.93,2.93,0,0,1-1.37,1.47A2.78,2.78,0,0,1,22.5,60.1Z"/><path class="cls-5" d="M13,103.18a2,2,0,0,1-1.88-1.05,2.51,2.51,0,0,1-.18-1.22,6.89,6.89,0,0,1,.41-2.16.22.22,0,0,1,.28-.14.22.22,0,0,1,.13.28,7.09,7.09,0,0,0-.39,2,2.27,2.27,0,0,0,.15,1,1.79,1.79,0,0,0,2.22.67,5.73,5.73,0,0,0,2.11-1.74.24.24,0,0,1,.19-.07.23.23,0,0,1,.16.11,7.44,7.44,0,0,0,.8,1.13,1.07,1.07,0,0,0,.34.3c.31.14.73-.06,1.23-.6a.2.2,0,0,1,.3,0,.22.22,0,0,1,0,.31c-.64.7-1.22.94-1.73.7a1.41,1.41,0,0,1-.49-.41,6.22,6.22,0,0,1-.69-.93A5.44,5.44,0,0,1,13.92,103,2.64,2.64,0,0,1,13,103.18Z"/><path class="cls-4" d="M180.78,102.7v16a9.57,9.57,0,0,1-2-.07c-14.12-1.64-28-5.1-42.11-6.58-8-.84-16.19-1-24.15-2.5a55.88,55.88,0,0,1-7.32-1.81c-1.53-.48-3.28-1.37-3.4-3a3.83,3.83,0,0,1,.47-1.85c1.08-2.32,2.27-4.49,5-4.65,2-.12,4.27.83,5,2.83a34.15,34.15,0,0,1,1.36-3.44,13.88,13.88,0,0,1,1-1.72,7.3,7.3,0,0,1,4.5-3.22A4.46,4.46,0,0,1,124,94.88c.74-2.63,1.55-5.4,3.54-7.27s5.6-2.31,7.3-.17c2.5-5.34,9.88-10,15.81-7.54A7,7,0,0,1,155,86.26c.19-5.35,6.32-5.12,9.6-2.58a11,11,0,0,1,4,10.47c2.1-2.62,6.22-1.57,7.87,1a8.92,8.92,0,0,1,.59,7.43,2.37,2.37,0,0,1,2.8-.5A3.4,3.4,0,0,1,180.78,102.7Z"/><path class="cls-5" d="M180.78,117.55v7.27H0V114.65c26.55-10.92,57.87-10.53,87.11-10.81l7,0c16.84-.05,33.84.34,50.38,3.06a137.08,137.08,0,0,1,23.81,5.94,120,120,0,0,1,12,4.54Z"/><path class="cls-4" d="M61.89,114.25c-.2.11-.4.22-.6.35s-.42.3-.44.52.31.49.61.63c3.78,1.72,8.35,1.06,12.63,1.27,1.47.07,2.94.26,4.42.31,2.12.07,4.24-.12,6.35-.23,10.84-.6,21.84.75,32.51-1a1.79,1.79,0,0,0,1.19-.51c.35-.51-.16-1-.61-1.32a10.76,10.76,0,0,0-1.39-1,5.48,5.48,0,0,0-2.91-.24c-10.23,1-20.57,0-30.85.21a59.58,59.58,0,0,1-8-.09c-1.35-.15-2.69-.42-4-.47C67.64,112.66,64.53,112.8,61.89,114.25Z"/><path class="cls-4" d="M41.3,116.37a14,14,0,0,0-2.47,1.1c-.32.17-.67.49-.55.83a.76.76,0,0,0,.52.38c2.52.85,5.27-.19,7.92,0,1.25.07,2.46.41,3.71.51,3.44.26,6.8-1.38,10.25-1.3a13.89,13.89,0,0,0,3.47,0c.82-.19,2.47-.75,1.23-1.71a3.81,3.81,0,0,0-2-.63c-3.42-.36-6.85.2-10.28.15-2,0-3.74-.67-5.7-.47A28.92,28.92,0,0,0,41.3,116.37Z"/><path class="cls-4" d="M145.76,114.56a13.89,13.89,0,0,1,2.46,1.1c.32.18.67.49.55.83a.72.72,0,0,1-.51.38c-2.52.86-5.28-.19-7.93,0-1.25.07-2.46.42-3.71.51-3.44.26-6.79-1.37-10.25-1.3a13.89,13.89,0,0,1-3.47,0c-.82-.19-2.47-.75-1.22-1.71a3.83,3.83,0,0,1,2-.63c3.42-.36,6.85.2,10.28.15,2,0,3.74-.67,5.7-.47A29,29,0,0,1,145.76,114.56Z"/><path class="cls-4" d="M14.34,115.88c-.2-.56-.39-1.13-.59-1.69,0-.12-.43-.1-.38,0l.59,1.7C14,116.06,14.39,116,14.34,115.88Z"/><path class="cls-4" d="M22.7,120.28c0-.15-.4-.14-.39,0,0,.66.09,1.32.14,2,0,.14.4.14.39,0C22.79,121.6,22.75,120.94,22.7,120.28Z"/><path class="cls-4" d="M32.69,113.84l-.51-1.34c0-.12-.43-.09-.38,0,.17.45.34.9.52,1.34C32.36,114,32.75,114,32.69,113.84Z"/><path class="cls-4" d="M34.93,111.75v1.38c0,.14.39.14.39,0v-1.38C35.32,111.61,34.93,111.61,34.93,111.75Z"/><path class="cls-4" d="M4.52,121.89,4,120.55c0-.12-.44-.09-.38,0l.51,1.34C4.19,122.06,4.58,122,4.52,121.89Z"/><path class="cls-4" d="M6.75,119.79v1.39c0,.14.4.14.4,0v-1.39C7.15,119.66,6.75,119.65,6.75,119.79Z"/><path class="cls-4" d="M33.6,119.87c-.06,0-.22,0-.24.07a4.36,4.36,0,0,0-.17,1.72c0,.14.4.13.39,0a4,4,0,0,1,.16-1.66C33.76,119.92,33.66,119.88,33.6,119.87Z"/><path class="cls-4" d="M69.53,107.56l-.55-.9c0-.07-.17-.08-.24-.07s-.19,0-.14.13l.55.89a.23.23,0,0,0,.25.07S69.58,107.63,69.53,107.56Z"/><path class="cls-4" d="M59.19,123.19a2.4,2.4,0,0,1-.46-1c0-.08-.12-.1-.2-.1a.61.61,0,0,0-.13,0s-.07,0-.06.07a2.43,2.43,0,0,0,.47,1,.25.25,0,0,0,.25.07S59.25,123.26,59.19,123.19Z"/><path class="cls-4" d="M67.38,120.61c-.06,0-.2,0-.2.1v1.09c0,.08.14.1.2.1s.19,0,.19-.1v-1.09C67.57,120.63,67.43,120.61,67.38,120.61Z"/><path class="cls-4" d="M85.27,119.57a.35.35,0,0,0-.14,0c-.07,0-.18,0-.2.1l-.18,1.08s0,.06.06.07a.32.32,0,0,0,.14,0c.07,0,.18,0,.2-.1l.18-1.08S85.29,119.58,85.27,119.57Z"/><path class="cls-4" d="M96,123.13a7.12,7.12,0,0,0-.58-1.66c-.06-.12-.45-.08-.38.06a6.65,6.65,0,0,1,.57,1.6C95.6,123.28,96,123.26,96,123.13Z"/><path class="cls-4" d="M105.07,120.41c0-.14-.4-.13-.39,0,0,.65.13,1.29.23,1.93,0,.15.41.13.39,0C105.2,121.7,105.13,121.06,105.07,120.41Z"/><path class="cls-4" d="M116.86,119.25a4.14,4.14,0,0,0-.44,1.41c0,.08.15.1.2.1s.19,0,.2-.1a3.65,3.65,0,0,1,.42-1.36C117.3,119.17,116.92,119.13,116.86,119.25Z"/><path class="cls-4" d="M108.26,107.41a7.44,7.44,0,0,0-.48-1.47c0-.13-.44-.09-.38,0a7.88,7.88,0,0,1,.47,1.42c0,.08.12.1.2.1S108.28,107.49,108.26,107.41Z"/><path class="cls-4" d="M124,107.38a5.18,5.18,0,0,0-.42,1.54c0,.13.38.14.4,0a4.84,4.84,0,0,1,.4-1.49C124.41,107.3,124,107.26,124,107.38Z"/><path class="cls-4" d="M133,123.46a7.86,7.86,0,0,1-.54-1.47c0-.09-.12-.11-.2-.11s-.21,0-.19.11a8,8,0,0,0,.55,1.53C132.65,123.64,133,123.6,133,123.46Z"/><path class="cls-4" d="M139.33,120.94c0-.08-.14-.1-.2-.1s-.2,0-.2.1c0,.46,0,.92.07,1.38,0,.09.14.1.2.1s.2,0,.2-.1Z"/><path class="cls-4" d="M158.91,118.29c-.16-.63-.31-1.25-.46-1.88,0-.14-.42-.11-.39,0l.45,1.88C158.55,118.43,158.93,118.41,158.91,118.29Z"/><path class="cls-4" d="M168.17,119.83a7.44,7.44,0,0,0-.68,1.71c0,.08.15.1.2.1s.17,0,.19-.1a7.22,7.22,0,0,1,.67-1.66C168.62,119.76,168.24,119.71,168.17,119.83Z"/><path class="cls-4" d="M149.4,122c-.06,0-.2,0-.2.1v.9c0,.08.14.1.2.1s.19,0,.19-.1v-.9C149.59,122,149.46,122,149.4,122Z"/><path class="cls-6" d="M98,88.54c.26-.07.53-.2.59-.45s-.35-.64-.7-.78a9,9,0,0,0-4.65-.93,8.28,8.28,0,0,1-2.4.37c-.58-.08-1.11-.4-1.7-.48-1-.13-1.9.42-2.87.49s-2.18-.44-3.29-.49c-1.71-.06-3.36,1-5,.72-.64-.11-1.24-.43-1.89-.52A2.89,2.89,0,0,0,74,87a1.36,1.36,0,0,0-.54.72c-.14.53.43,1.17.89,1.34a2.76,2.76,0,0,0,.85.15l.84.06,2.38.19a45.35,45.35,0,0,0,5.71.11c1.92-.07,3.84-.2,5.75-.32s3.88-.25,5.82-.42a10.94,10.94,0,0,0,2.2-.27Z"/><path class="cls-7" d="M112.74,80.69a25.83,25.83,0,0,1,.25,3c0,1.43,0,2.95.13,4.49.09,1.24.21,2.5.33,3.72.13,1.44.27,2.92.38,4.39,0,.63.08,1.21.11,1.76.24,4.52.49,10.42.35,16.46H116c.14-6.08-.11-12-.35-16.56q0-.84-.12-1.8c-.1-1.49-.24-3-.38-4.43-.12-1.21-.23-2.46-.33-3.69-.12-1.47-.12-3-.12-4.34a26.54,26.54,0,0,0-.26-3.22c-.07-.55-.13-1.07-.18-1.58-.27-3.18-.48-6.4-.6-9.59a.88.88,0,0,0-.9-.87.9.9,0,0,0-.83,1c.12,3.21.33,6.47.61,9.67C112.61,79.59,112.68,80.15,112.74,80.69Z"/><path class="cls-8" d="M58.35,114.5c-.14-6,.11-11.94.35-16.46,0-.55.07-1.13.11-1.76.11-1.47.25-3,.38-4.39.12-1.22.24-2.48.34-3.72.12-1.54.13-3.06.12-4.49a25.83,25.83,0,0,1,.25-3c.06-.54.13-1.1.18-1.65.28-3.2.49-6.45.61-9.67a.89.89,0,0,0-.82-1,.88.88,0,0,0-.9.87c-.13,3.19-.33,6.41-.61,9.59,0,.51-.11,1-.18,1.58a26.54,26.54,0,0,0-.26,3.22c0,1.39,0,2.87-.12,4.34-.1,1.23-.21,2.48-.33,3.69-.13,1.45-.27,2.94-.38,4.43q-.08,1-.12,1.8c-.24,4.55-.49,10.48-.35,16.56Z"/><path class="cls-7" d="M84.26,75.8c-3.81,0-7.69-.08-11.79-.18-5.61-.13-12.09-.41-18-2a.85.85,0,0,1-.6-1.06A.87.87,0,0,1,55,71.92c5.68,1.57,12,1.84,17.54,2,7,.17,13.33.28,19.79,0a234.82,234.82,0,0,0,24.63-2.56.86.86,0,0,1,.25,1.71,237,237,0,0,1-24.82,2.58C89.65,75.76,87,75.8,84.26,75.8Z"/><path class="cls-9" d="M73,89.59c.17,7.39,5.9,13.34,12.94,13.34s12.76-6,12.94-13.34Z"/><path class="cls-9" d="M99.15,88.44c0-.3,0-.61,0-.92h0a16.68,16.68,0,0,0-3.93-9.8,13.84,13.84,0,0,0-2.26-2.09,12.35,12.35,0,0,0-3-1.63,11.42,11.42,0,0,0-8.19.06,12.13,12.13,0,0,0-3,1.69,13.87,13.87,0,0,0-2.1,2,16.68,16.68,0,0,0-3.93,9.8c0,.31,0,.62,0,.92v.33H99.16Zm-25.87-.3c0-.27,0-.53,0-.79a15.39,15.39,0,0,1,6.5-11.58A11.26,11.26,0,0,1,84,74.07a10.38,10.38,0,0,1,1.86-.17,11.11,11.11,0,0,1,1.73.14,11.27,11.27,0,0,1,4.19,1.63,15.33,15.33,0,0,1,6.64,11.68c0,.26,0,.52.05.79Z"/><path class="cls-9" d="M99.7,88.57a1.24,1.24,0,0,1-.87,1.17,1.34,1.34,0,0,1-.35.05H73.32a1.36,1.36,0,0,1-.36-.05,1.22,1.22,0,0,1-.86-1.17,1.2,1.2,0,0,1,.35-.86,1.55,1.55,0,0,1,.24-.19,1.21,1.21,0,0,1,.63-.17H98.48a1.21,1.21,0,0,1,.63.17h0A1.25,1.25,0,0,1,99.7,88.57Z"/><path class="cls-10" d="M99.06,105.52a9.09,9.09,0,0,1-.4-2.74,8.2,8.2,0,0,1,.32-1.25,3.09,3.09,0,0,0-.71-2.93,5.62,5.62,0,0,0-1.55-1.19,4.13,4.13,0,0,1-1.16-.75,1.9,1.9,0,0,0-.23,1.49,3.69,3.69,0,0,1,.4,1.2,1.73,1.73,0,0,1-.4,1.14,1.26,1.26,0,0,1-2,.07,2.28,2.28,0,0,1-.2-2c.34-1.07,1.21-2.1.7-3.27-.34-.8-1.16-1.39-1.27-2.26a.49.49,0,0,0-.42.26,1.69,1.69,0,0,0-.14.5,1.25,1.25,0,0,1-.37.76c-.64.52-1.53-1-2-1.22a19.92,19.92,0,0,0-2.83-1.25A2.45,2.45,0,0,1,85.31,91a1.16,1.16,0,0,0-.38,1.34,9,9,0,0,1,.46,1.42,2.77,2.77,0,0,1-1.57,2.45c-1.1.69-3,.21-3.5,1.78-.21.67,0,1.43-.49,2a1.62,1.62,0,0,1-1.75.68.83.83,0,0,1-.42-.23,1.07,1.07,0,0,1-.18-.39,5,5,0,0,0-.64-1.78,2.35,2.35,0,0,0-1.3-.79A5.28,5.28,0,0,0,74,97.37c.28.83.93,1.87.48,2.77-.39,1.39-1.8,2.41-2.35,3.76a4.14,4.14,0,0,0,.15,3.18A6.81,6.81,0,0,0,76.51,111a13.5,13.5,0,0,0,1.81.37c.41.06.91.21,1.32.23s.78-.26,1.2-.26a21.62,21.62,0,0,1,3.86.18c1,.11,2,.29,3,.37,1.56.11,3.13,0,4.69-.07a16,16,0,0,1,2.19,0,2.54,2.54,0,0,0,1.67-.16c1.55-.7,2.88-1.77,3-3.34A9.69,9.69,0,0,0,99.06,105.52Z"/><path class="cls-11" d="M96.91,107.66a3.59,3.59,0,0,1-1.34.93,4.11,4.11,0,0,1-2.09.13c-1.09,0-2.22-.18-3.3-.12s-2,.17-3,.2-2.17,0-3.26,0c-.67,0-1.35.08-2,.1a12.93,12.93,0,0,1-4-.24,3.68,3.68,0,0,1-2.47-3.37c0-.42.21-.83.3-1.24a1.55,1.55,0,0,0-.17-1.23,1.37,1.37,0,0,1,.74,1c.13.39.48,1.26,1.14,1,.45-.17.56-1,.81-1.34a4.41,4.41,0,0,1,2.92-1.53,4.19,4.19,0,0,0,1-.28A2.72,2.72,0,0,0,83.42,100a6,6,0,0,1,.81-1.91c.68-.88,2.57-1,2.59-2.26a2.78,2.78,0,0,0-.37-1.43,5.44,5.44,0,0,1,1.51,0,1.88,1.88,0,0,1,1.2.76c.42.68,0,1.55.3,2.28a.34.34,0,0,0,.1.16.47.47,0,0,0,.21.06,1.51,1.51,0,0,0,1.09-.37c.21-.19.27-.59.49-.74.58-.4.56.9.48,1.19s-.35.79-.5,1.2c-.24.67-.16,2.08.77,2.34.26.07.53.06.79.11a5,5,0,0,1,1.18.53,1.76,1.76,0,0,0,1.26.24,1.83,1.83,0,0,0,.8-.59,2.18,2.18,0,0,0,.7-1.17c.89.19.74,1.61.62,2.17a8.66,8.66,0,0,0-.45,2.16c0,.53.2,1,.26,1.58A1.75,1.75,0,0,1,96.91,107.66Z"/><path class="cls-12" d="M82.75,103.11a3.08,3.08,0,0,1,.41-.3,6.43,6.43,0,0,0,1.49-.79,5.42,5.42,0,0,0,.77-1.54,2.72,2.72,0,0,1,1.66-1.32,1.51,1.51,0,0,0,1,1.86,9.81,9.81,0,0,0,1.09.09,2,2,0,0,1,1.39.77c.29.39.38.88.67,1.28a2,2,0,0,0,1.27.76c.44.08.89,0,1.34.1a2,2,0,0,1,1.41.88c.62,1-.31,1.85-1.32,2.27A8.51,8.51,0,0,1,90,108c-1.09-.09-2.07-.61-3.15-.69s-2.24.06-3.34-.09a7.5,7.5,0,0,1-1.48-.39,3.09,3.09,0,0,1-1.32-.69,2.37,2.37,0,0,1-.31-2.08.2.2,0,0,1,.06-.12c.09,0,.19,0,.27.11a1,1,0,0,0,1.24-.19C82.25,103.61,82.48,103.34,82.75,103.11Z"/><path class="cls-10" d="M83,93.81a3,3,0,0,0-.26-.62,1,1,0,0,0-.57-.49c-.09.34.08.66,0,1s-.42.87-.25,1.37a.57.57,0,0,0,.53.41C83.28,95.44,83.22,94.51,83,93.81Z"/><path class="cls-13" d="M97.52,108.48a4.22,4.22,0,0,0-1.16-1.06,9.81,9.81,0,0,0-2.61-.68,21,21,0,0,1-3.6-1.34,6.38,6.38,0,0,0-2.2-.61,8,8,0,0,0-1.38.08l-2.51.31a7.6,7.6,0,0,0-1.36.26,7.3,7.3,0,0,0-1.31.66,24.63,24.63,0,0,1-4.45,2c-1.39.48-2.84.85-4.16,1.43a6.75,6.75,0,0,0-2.32,1.67,1.36,1.36,0,0,0,.93,2.49c2,.26,4-.35,5.94-.45,3.09-.17,6.11.85,9.19,1.1a34.19,34.19,0,0,0,6.23-.23l4.66-.52,2.18-.25c.49-.06,1.08-.2,1.21-.67a1,1,0,0,0-.41-1A27.1,27.1,0,0,1,97.52,108.48Z"/><path class="cls-7" d="M95.05,111.4c.29,0,.58-.09.61-.28a.33.33,0,0,0-.06-.2,3.35,3.35,0,0,0-.9-.9,25.42,25.42,0,0,1-4.06-3.72.73.73,0,0,0-.49-.32l-.28,0c-.54.06-.94-.38-1.46-.51a2,2,0,0,0-1.24.12,11.94,11.94,0,0,1-1.37.57.27.27,0,0,0-.12.06c-.06.06,0,.15,0,.22a6,6,0,0,0,.89,1.2,8.74,8.74,0,0,1,1,1,.2.2,0,0,1,.06.16c0,.11-.18.18-.2.29s.09.18.19.24l2.47,1.6a3.33,3.33,0,0,0,1.89.67,9.37,9.37,0,0,0,2.12-.23c.19,0,.25,0,.4,0A4.72,4.72,0,0,0,95.05,111.4Z"/><path class="cls-7" d="M83.25,105.44a1.39,1.39,0,0,0-.64-.1,2.77,2.77,0,0,0-.49.15,4.93,4.93,0,0,1-1.68.11,1.31,1.31,0,0,0-.34,0,1,1,0,0,0-.24.14,40,40,0,0,0-3.7,3.25,6.41,6.41,0,0,0-1.24,1.44c0,.07-.08.15,0,.21a.48.48,0,0,0,.11.09,5.52,5.52,0,0,0,1.48.59.83.83,0,0,0,.27,0,.57.57,0,0,0,.27-.13,6.76,6.76,0,0,0,1.2-1.19,21.12,21.12,0,0,1,2.33-2.3c.9-.75,1.9-1.38,2.87-2.07,0,0,.11-.1.07-.15a.16.16,0,0,0-.08-.05Z"/><path class="cls-7" d="M87.78,111.5c-.84-1.36-1.67-2.73-2.51-4.1a.2.2,0,0,0-.08-.08c-.11,0-.23.06-.36.08a.37.37,0,0,1-.33-.15c-.07-.09-.1-.2-.18-.29a.94.94,0,0,0-.81-.21,2.72,2.72,0,0,0-1.44.77.75.75,0,0,0,.11.67l2.1,4.18a24.54,24.54,0,0,1,2.45-.19,2,2,0,0,0,1.22-.41Z"/><path class="cls-7" d="M97.48,108.41a4.69,4.69,0,0,0-.7-.71,6.55,6.55,0,0,0-.81-.51l-1-.59a.78.78,0,0,0,.18.49l1.82,2.75c.24.36.48.73.74,1.08a.56.56,0,0,0,.2.17.65.65,0,0,0,.34,0l1.21-.2a6.89,6.89,0,0,0-.88-1.17C98.19,109.28,97.84,108.84,97.48,108.41Z"/><path class="cls-2" d="M74.79,112.79a7.66,7.66,0,0,0-5.42-2.35,6.59,6.59,0,0,0-4.09,1.65c-.87.78-1.33,2.11-.11,2.83a3.17,3.17,0,0,0,1.86.26c1.64-.1,3.23,0,4.87,0,.5,0,1,0,1.52-.09a2.15,2.15,0,0,0,.66-.13,1.31,1.31,0,0,0,.4-.26,1.23,1.23,0,0,0,.56-.15C75.71,114.16,75.2,113.17,74.79,112.79Z"/><path class="cls-2" d="M91.88,115.3c-1.06-.1-2.13-.32-3.2-.34s-5.1.24-3.3-2.16A6.51,6.51,0,0,1,89.85,110a10.67,10.67,0,0,1,3.18.26,9.84,9.84,0,0,1,2.43.72,5.81,5.81,0,0,1,1.73,1.28,1.4,1.4,0,0,1,.22.32c.6,1.36-1.27,2.15-2.14,2.38a11.82,11.82,0,0,1-1.75.36A8.17,8.17,0,0,1,91.88,115.3Z"/><path class="cls-2" d="M77.3,110.07a6.34,6.34,0,0,1,3.75.15,8.82,8.82,0,0,1,3,1.65c.83.61,1.71,1.06,1.84,2.27a.44.44,0,0,1-.31.54c-1.3.58-2.78.25-4.19.23-2.12,0-4.31.65-6.33,0a1.32,1.32,0,0,1-.52-.28c-.74-.67-.08-1.38.28-2a5.85,5.85,0,0,1,1.78-2.15A3.42,3.42,0,0,1,77.3,110.07Z"/><path class="cls-2" d="M104.12,114.94l1.43,0a2.47,2.47,0,0,0,1.08-.19,1,1,0,0,0,.58-.92,1.59,1.59,0,0,0-.64-.92,16.22,16.22,0,0,0-1.79-1.73,5.12,5.12,0,0,0-4.28-.43,10,10,0,0,0-4.38,2.61c-.36.36,0,.91.26,1.24a1.66,1.66,0,0,0,1.48.52Z"/><path class="cls-7" d="M117.18,73.07a243.48,243.48,0,0,1-24.26,2.56l-.56,0-.54,0A11.27,11.27,0,0,0,87.63,74l2.29,0,2.38-.08a234.82,234.82,0,0,0,24.63-2.56.86.86,0,0,1,.25,1.71Z"/><path class="cls-14" d="M83.76,60.9c-1.91-.19-3.82-.34-5.7-.69-1.67-.31-3.33-1-5-.81a3.71,3.71,0,0,0-3.32,3.74,1.73,1.73,0,0,0,.56,1.15,2.12,2.12,0,0,0,.74.36A9.75,9.75,0,0,0,74,65a50.16,50.16,0,0,0,6.59-.63L83.34,64c.79-.11,1.52-.4,1.55-1.28a9.1,9.1,0,0,0,0-1.17c0-.37-.1-.51-.52-.56Z"/><path class="cls-15" d="M63.8,116.45l0,0-8.61,0a1.1,1.1,0,0,0,0-.18c0-.14,0-.28,0-.42a3.22,3.22,0,0,1,.41-1.54.38.38,0,0,1,.25-.23.49.49,0,0,1,.36.12,1.92,1.92,0,0,0,1.53.2,2.06,2.06,0,0,0,.79-.57,1.76,1.76,0,0,1,.31-.3.61.61,0,0,1,.44-.06,5.19,5.19,0,0,1,1.19.67,10.47,10.47,0,0,0,1.36.62,9.74,9.74,0,0,1,1.17.45,2.31,2.31,0,0,1,.83.6A.46.46,0,0,1,63.8,116.45Z"/><path class="cls-2" d="M63.8,116.45l0,0-8.61,0a1.1,1.1,0,0,0,0-.18c0-.14,0-.28,0-.42l8.64,0A.46.46,0,0,1,63.8,116.45Z"/><path class="cls-16" d="M61.85,115.15c0-.1-.17-.13-.25-.16a10.69,10.69,0,0,1-1.44-.71c-.26-.15-.51-.32-.76-.49a.12.12,0,0,0-.13,0s-.08,0,0,.07a10.84,10.84,0,0,0,1.47.89c.25.12.51.24.77.34a.53.53,0,0,1,.17.08s0,.13,0,.18-.32.37-.25.48.28-.15.31-.22l.09-.17C61.81,115.35,61.89,115.25,61.85,115.15Z"/><path class="cls-16" d="M56.77,115.77a2.12,2.12,0,0,0-1-1.46.17.17,0,0,0-.14,0,0,0,0,0,0,0,.08,2,2,0,0,1,.88,1.38C56.58,115.85,56.78,115.84,56.77,115.77Z"/><path class="cls-2" d="M60.1,113.84H60l-.06,0-.32.34s0,.06,0,.07a.09.09,0,0,0,.07,0,.08.08,0,0,0,.06,0l.33-.34S60.13,113.85,60.1,113.84Z"/><path class="cls-2" d="M60.55,114.11a.18.18,0,0,0-.14,0,2.7,2.7,0,0,0-.28.31s0,0,0,0,0,0,0,0h.08l.06,0a2.21,2.21,0,0,1,.29-.32S60.58,114.12,60.55,114.11Z"/><path class="cls-2" d="M61.09,114.38a.09.09,0,0,0-.05,0H61s0,0-.07,0l-.22.29s0,0,0,0,0,0,0,0h.08a.07.07,0,0,0,.06,0c.08-.09.15-.19.23-.29S61.1,114.4,61.09,114.38Z"/><path class="cls-2" d="M61.61,114.57a.11.11,0,0,0-.13,0,1.43,1.43,0,0,0-.3.35,0,0,0,0,0,0,0s0,0,.06,0,.1,0,.12,0l.06-.09,0,0h0l0,0,.15-.16S61.65,114.58,61.61,114.57Z"/><path class="cls-9" d="M61.51,66.66a8.4,8.4,0,0,0-6.44-4c-1.67-.1-2.25.27-2.66,1.91a12,12,0,0,0,0,4.67A42.88,42.88,0,0,0,54,75.64c.6,1.89.94,3.9,1.41,5.84A71.61,71.61,0,0,1,57,92a43.07,43.07,0,0,1-.79,9.72q-.84,6-1.7,12a1.72,1.72,0,0,0,0,.75c.22.65,2.14.34,2.78.36,1.27,0,2.77-.1,3-1.62a35.94,35.94,0,0,1,1.72-5.71c1.39-4.22,3.07-8.93,3.4-13.37A70,70,0,0,0,64.85,80c-.33-2.49-.78-5-1.34-7.43C63,70.53,62.74,68.45,61.51,66.66Z"/><path class="cls-15" d="M54.76,116.45l0,0-8.61,0a1.1,1.1,0,0,1,0-.18,3,3,0,0,1,0-.42,3.33,3.33,0,0,1,.4-1.54c.06-.1.14-.21.25-.23a.52.52,0,0,1,.37.12,1.91,1.91,0,0,0,1.53.2,2.14,2.14,0,0,0,.79-.57,1.27,1.27,0,0,1,.31-.3.6.6,0,0,1,.44-.06,5.34,5.34,0,0,1,1.18.67,11.12,11.12,0,0,0,1.36.62,9.88,9.88,0,0,1,1.18.45,2.28,2.28,0,0,1,.82.6A.47.47,0,0,1,54.76,116.45Z"/><path class="cls-2" d="M54.76,116.45l0,0-8.61,0a1.1,1.1,0,0,1,0-.18,3,3,0,0,1,0-.42l8.63,0A.47.47,0,0,1,54.76,116.45Z"/><path class="cls-16" d="M52.81,115.15c0-.1-.17-.13-.26-.16a11.19,11.19,0,0,1-1.43-.71c-.26-.15-.51-.32-.76-.49a.14.14,0,0,0-.14,0s-.07,0,0,.07a11.38,11.38,0,0,0,1.46.89c.25.12.51.24.77.34a.58.58,0,0,1,.18.08s0,.13,0,.18-.32.37-.25.48.28-.15.31-.22a1,1,0,0,1,.09-.17C52.77,115.35,52.85,115.25,52.81,115.15Z"/><path class="cls-16" d="M47.72,115.77a2.14,2.14,0,0,0-.94-1.46.19.19,0,0,0-.15,0,0,0,0,0,0,0,.08,2,2,0,0,1,.89,1.38C47.54,115.85,47.74,115.84,47.72,115.77Z"/><path class="cls-2" d="M51.06,113.84H51s0,0-.06,0-.22.22-.32.34,0,.06,0,.07a.11.11,0,0,0,.08,0l.06,0c.11-.11.22-.22.32-.34S51.09,113.85,51.06,113.84Z"/><path class="cls-2" d="M51.51,114.11a.16.16,0,0,0-.14,0,2.81,2.81,0,0,0-.29.31s0,0,0,0a.1.1,0,0,0,0,0h.08l.06,0a2.14,2.14,0,0,1,.28-.32S51.54,114.12,51.51,114.11Z"/><path class="cls-2" d="M52.05,114.38a.09.09,0,0,0,0,0h-.08s-.05,0-.06,0l-.23.29s0,0,0,0a.05.05,0,0,0,.05,0h.08a.09.09,0,0,0,.06,0l.23-.29S52.05,114.4,52.05,114.38Z"/><path class="cls-2" d="M52.57,114.57a.12.12,0,0,0-.14,0,1.64,1.64,0,0,0-.29.35s0,0,0,0l.06,0a.16.16,0,0,0,.13,0,.41.41,0,0,1,0-.09l0,0h0l0,0a.75.75,0,0,1,.15-.16S52.6,114.58,52.57,114.57Z"/><path class="cls-9" d="M54.92,101.94c.12-.43.24-.86.33-1.31.29-1.41.57-2.82.83-4.24a57.11,57.11,0,0,0,.44-9,113.76,113.76,0,0,0-.78-11.93c-.28-3.35-.51-6.32-2-9.42l0,0a8.74,8.74,0,0,0-1.61-2.45,8.08,8.08,0,0,0-2.9-1.69c-1.3-.52-2.48-2.31-3.93-1.1s-1.49,3.39-1.55,5C43.6,70,44.44,74,45.13,78.13c.36,2.14,1.25,4.25,1.73,6.38a54.65,54.65,0,0,1,.57,17.31L46.17,115c.12.22,2.92-.23,3.21-.26a6,6,0,0,0,1.53-.17c.84-.32,1.17-1.38,1.4-2.16q1.21-4.12,2-8.34C54.5,103.34,54.72,102.65,54.92,101.94Z"/><path class="cls-17" d="M56.46,80.44q-.26-2.86-.49-5.71c-.09-1.08-.18-2.16-.28-3.23,0-.11-.24-.1-.23,0q.24,2.86.49,5.73l.48,5.71c.1,1.08.19,2.15.28,3.23,0,.11.24.1.24,0Q56.7,83.31,56.46,80.44Z"/><path class="cls-2" d="M58.69,65.78a19.19,19.19,0,0,0-2.34-1.21c-.8-.46-1.52-1-2.31-1.53-1.07-.66-2.17-1.28-3.3-1.85a11.14,11.14,0,0,0-4.52-1.43,1.94,1.94,0,0,0-.93.15c-.66.32-1.08,1.48-1.37,2.11a1.67,1.67,0,0,0-.2,1,1.5,1.5,0,0,0,.51.76,12.5,12.5,0,0,0,4.47,2.41c4,1.46,8.16,2.77,12.36,2.33a.38.38,0,0,0,.26-.1c.11-.15-.06-.35-.22-.45a5,5,0,0,1-1.26-1.06A6,6,0,0,0,58.69,65.78Z"/><path class="cls-14" d="M83.76,60.9c-1.91-.19-3.82-.34-5.7-.69-1.67-.31-3.33-1-5-.81a3.71,3.71,0,0,0-3.32,3.74,1.73,1.73,0,0,0,.56,1.15,2.12,2.12,0,0,0,.74.36A9.75,9.75,0,0,0,74,65a50.16,50.16,0,0,0,6.59-.63L83.34,64c.79-.11,1.52-.4,1.55-1.28a9.1,9.1,0,0,0,0-1.17c0-.37-.1-.51-.52-.56Z"/><path class="cls-6" d="M77.72,60.84c0-.56.13-1-.51-1.17a19.32,19.32,0,0,0-3.92-.57,4.21,4.21,0,0,0-3.81,2.1A2.49,2.49,0,0,0,69,62.79c.09.82,1,1.5,1.59,2a2.77,2.77,0,0,0,.64.38,3.5,3.5,0,0,0,1.12.18,20.11,20.11,0,0,0,2.33,0,10.09,10.09,0,0,1,1.9-.1,1.17,1.17,0,0,0,.79-.07c.4-.28.29-1.14.3-1.55Z"/><path class="cls-18" d="M75.38,44.64h.29l-.06-.08Z"/><path class="cls-6" d="M68.85,52.25c-.39,3.57-.67,7.29.23,10.81a1.2,1.2,0,0,0,.19.45c.69.84,1.72-.29,2.2-.78a10.7,10.7,0,0,1,2-1.89c.52-.31,1.19-.56,1.33-1.14s-.2-.9-.18-1.37a10,10,0,0,1,.24-1.64,17.36,17.36,0,0,1,1-3c.68-1.58,1.6-3,2.33-4.57.64-1.35,1.21-2.59.74-4.13a2.08,2.08,0,0,0-.32-.69,2.67,2.67,0,0,0-.74-.64,6.85,6.85,0,0,0-2.33-1,4.14,4.14,0,0,0-2.51.2A4.76,4.76,0,0,0,70.89,45,19.37,19.37,0,0,0,68.85,52.25Z"/><path class="cls-14" d="M89.13,60.72a3.49,3.49,0,0,0-.74-.33,3.07,3.07,0,0,0-.88-.22,3.25,3.25,0,0,0-1.11.16c-.63.17-1.26.38-1.87.61a1.46,1.46,0,0,0-.57.25,1.59,1.59,0,0,0-.39.63,3.69,3.69,0,0,0-.14,1,1,1,0,0,0,.23.81.88.88,0,0,0,.61.18,9.89,9.89,0,0,0,2.87-.66c.34-.09.67-.18,1-.24a2.36,2.36,0,0,0,1.18-.47,1.12,1.12,0,0,0,.35-1.06,1.2,1.2,0,0,0-.51-.68Z"/><path class="cls-18" d="M98.48,58.41,83.35,71.75a.54.54,0,0,1-.76,0h0a.51.51,0,0,1,0-.66l6.25-8.34,9.06-5.16a.53.53,0,0,1,.65.1h0A.54.54,0,0,1,98.48,58.41Z"/><path class="cls-18" d="M89.13,62a.64.64,0,1,1-1,.84.67.67,0,0,1,0-1A.69.69,0,0,1,89.13,62Z"/><path class="cls-2" d="M84.81,66.51a7.91,7.91,0,0,0-.14.94,1.09,1.09,0,0,0,1.53-.18,4.31,4.31,0,0,1,.94-.92,2.43,2.43,0,0,1,.64-.22l.43-.11A.4.4,0,0,0,88.4,66a.43.43,0,0,0,.14-.21c.45-1,.9-1.95,1.34-2.93a1.27,1.27,0,0,1,.27-.41.91.91,0,0,1,.42-.17c.57-.11,1.16,0,1.73-.09a6.56,6.56,0,0,0,2-.68.53.53,0,0,0,.2-.13.61.61,0,0,0,.09-.18,5.72,5.72,0,0,0,.29-1.78,21.28,21.28,0,0,0-3.17.39c-.41.08-.82.09-1.22.16a6.07,6.07,0,0,0-1.41.55,5.14,5.14,0,0,0-1.18.69,2,2,0,0,0-.74,1.13,2.33,2.33,0,0,1-.17.69,1.86,1.86,0,0,1-.48.49A5.46,5.46,0,0,0,84.81,66.51Z"/><path class="cls-16" d="M91.35,62A14.72,14.72,0,0,0,88.74,61c-.06,0-.18,0-.08.07a15.53,15.53,0,0,1,2.57,1S91.42,62.07,91.35,62Z"/><path class="cls-16" d="M88.16,63.24c0-.06-.16-.05-.15,0A24.64,24.64,0,0,1,88.1,66c0,.05.15.05.15,0A20.55,20.55,0,0,0,88.16,63.24Z"/><path class="cls-16" d="M86,64.68a6.5,6.5,0,0,0-.71,1.8s.15.06.16,0a6.23,6.23,0,0,1,.7-1.78S86,64.63,86,64.68Z"/><path class="cls-14" d="M87.15,62.05l.16,0a1.78,1.78,0,0,1,.46,0,.48.48,0,0,1,.37.24c.14.33-.14.52-.41.59s-.44.08-.64.15c-.39.14-.69.48-1.08.62a1.92,1.92,0,0,1-1,0,1.61,1.61,0,0,1-.6-.22.77.77,0,0,1-.34-.52c0-.59.69-.85,1.17-.84s.67.09,1,.11A3.49,3.49,0,0,0,87.15,62.05Z"/><path class="cls-19" d="M87.16,62.06s-.08,0-.1,0a3.61,3.61,0,0,1-1.35,0s-.08,0-.09,0,0,.05,0,.05a4,4,0,0,0,1.43,0S87.17,62.09,87.16,62.06Z"/><path class="cls-19" d="M85.06,63.71a1.67,1.67,0,0,1-.49-.12.15.15,0,0,0-.11,0s0,0,0,0a1.63,1.63,0,0,0,.53.12s.08,0,.1,0S85.08,63.71,85.06,63.71Z"/><path class="cls-6" d="M69.57,38.16c-.78.15-1.55.33-2.33.47A23.43,23.43,0,0,0,55.35,45a26.6,26.6,0,0,0-4.58,5.41l-4.66,7.56-.74,1.21c-.48.79-.95,1.67-.4,2.52a7.06,7.06,0,0,0,2.56,1.92,57.18,57.18,0,0,0,10.39,4.56c1.53.5,3.34.9,4.64-.05,1.14-.83,1.56-2.47,1.94-3.75a26.21,26.21,0,0,1,2-3.91,30.33,30.33,0,0,1,1.43-2.85,16.55,16.55,0,0,1,2.89-3.2c3-2.73,6.34-5.27,7.28-9.42A6.38,6.38,0,0,0,78.27,42,5.85,5.85,0,0,0,77,40.11,6.74,6.74,0,0,0,73.15,38,10.25,10.25,0,0,0,69.57,38.16Z"/><path class="cls-2" d="M71.69,39.38a4.9,4.9,0,0,0-.34,1.82,17.73,17.73,0,0,0,.18,3.49,2.47,2.47,0,0,0,1.17,2.07,1.64,1.64,0,0,0,1.38-.13,3.14,3.14,0,0,0,1-1,3.3,3.3,0,0,0,.66-1.55,4.07,4.07,0,0,0-.18-1.38A14.29,14.29,0,0,0,75,40.94C74.48,39.79,72.71,37.09,71.69,39.38Z"/><path class="cls-14" d="M76.13,42.41a1.94,1.94,0,0,1-.41,1.38c-.31.39-.66.74-1,1.15a2.67,2.67,0,0,1-1,.94,1,1,0,0,1-1.23-.24,1.53,1.53,0,0,1-.18-.63,21.15,21.15,0,0,1-.28-5.61c.1-.82.57-.88,1.24-1.1s1.15-.63,1.73-.44.74,1,.67,1.42a1.94,1.94,0,0,0,.06.77c.07.24.15.48.21.78L76,41c0,.13,0,.25,0,.38A5.47,5.47,0,0,1,76.13,42.41Z"/><path class="cls-14" d="M74.82,35.06c.3-.52.67-1,1-1.46a5.49,5.49,0,0,1,2.55-1.87l.26-.09a4,4,0,0,1,2.16-.05,5.26,5.26,0,0,1,2.1,1.52,7,7,0,0,1,1.2,1.56,2.45,2.45,0,0,1,.26,1.55,3.86,3.86,0,0,1-.4,1.34c-.27.43-.5.89-.77,1.32-.56.91-1.19,1.76-1.82,2.61a16.26,16.26,0,0,1-1.52,1.8,6.23,6.23,0,0,1-2.07,1.35,3.66,3.66,0,0,1-2.47-.31,3.6,3.6,0,0,1-1.67-2.48,9.1,9.1,0,0,1,.2-4.8,5.36,5.36,0,0,1,.41-.79c.19-.36.34-.75.54-1.11A.41.41,0,0,0,74.82,35.06Z"/><path class="cls-17" d="M76.35,35.92l.16,0a1.45,1.45,0,0,1,.62,0,7.63,7.63,0,0,1,.73.42,1.51,1.51,0,0,0,.94,0,1.36,1.36,0,0,1,.6-.1c.45.06.74.59,1.2.66a1.28,1.28,0,0,0,1-.58,3,3,0,0,0,.8-1.32,2.13,2.13,0,0,1,.16,1.47,2.69,2.69,0,0,1-.43,1,1.09,1.09,0,0,0-.13.9.59.59,0,0,0,.14.31,1.62,1.62,0,0,0,.37.19c.46.25.52,1,1,1.18a.18.18,0,0,0,.12,0,.27.27,0,0,0,.13-.07,2.85,2.85,0,0,0,.57-.77,5.66,5.66,0,0,0,.69-2.44,5,5,0,0,0-.11-1.28,4.14,4.14,0,0,0-.18-.6c-.07-.15-.21-.26-.27-.42a4.45,4.45,0,0,0-.32-.93,2.64,2.64,0,0,0-.46-.55,8.54,8.54,0,0,0-7.85-1.71,3.68,3.68,0,0,0-.44.23,3.51,3.51,0,0,0-.55.54,5.28,5.28,0,0,0-1.3,2.51,12.18,12.18,0,0,0-.19,1.35c0,.33,0,.87.43,1,.28.05.51-.19.75-.27l.92-.33C75.77,36.09,76.06,36,76.35,35.92Z"/><path class="cls-14" d="M75,35.69a1,1,0,0,0-.58-.31,1.23,1.23,0,0,0-.94.27c-.63.5-.55,1.29-.56,2,0,.45.06,1.12.64,1.16a.74.74,0,0,0,.57-.27,3.07,3.07,0,0,0,.61-.83c.09-.19.23-.33.31-.51a2,2,0,0,0,.18-.8,1.42,1.42,0,0,0-.06-.46A1.17,1.17,0,0,0,75,35.69Z"/><path class="cls-17" d="M75.11,38.1A3.57,3.57,0,0,0,76,40.56a6.31,6.31,0,0,0,1.69,1.24,5.15,5.15,0,0,1,.74.47,3.1,3.1,0,0,0,.71.59A1.82,1.82,0,0,0,80,43a.27.27,0,0,1,.16,0c.14.13-.56.93-.65,1.05a4.84,4.84,0,0,1-1,1c-1.77,1.27-4.17.21-5.33-1.37a4.33,4.33,0,0,1-.36-4.29c.31-.68.79-1.28,1.14-2,.18-.33.32-.69.51-1a6.23,6.23,0,0,1,.75-1c.14-.16.58-.44.74-.13a.36.36,0,0,1,0,.27c-.22.61-.55,1.18-.72,1.8A3,3,0,0,0,75.11,38.1Z"/><path class="cls-14" d="M76.62,41.6c.15.14.25.33.4.48a1.79,1.79,0,0,0,.71.37.51.51,0,0,1,.24.13c.09.1,0,.21,0,.31-.2.3-.75.32-1.07.23l-.26-.1a1.51,1.51,0,0,1-.43-.32,1.18,1.18,0,0,1-.34-.84.48.48,0,0,1,.24-.43.53.53,0,0,1,.54.16Z"/><path class="cls-17" d="M81.49,39.19a1.34,1.34,0,0,1,.37.74c0,.13,0,.28,0,.42s-.1.09-.14,0-.12-.28-.2-.4a1.88,1.88,0,0,0-.28-.34,2.11,2.11,0,0,0-.77-.47s-.11-.07-.06-.12a.46.46,0,0,1,.49-.15,1.11,1.11,0,0,1,.47.24A.46.46,0,0,0,81.49,39.19Z"/><path class="cls-17" d="M78.16,37.09a2,2,0,0,0-1-.12,4,4,0,0,0-.48.09c-.21.06,0,.13.07.15a4.87,4.87,0,0,1,.55.06,3.33,3.33,0,0,1,1.49.78s.14.09.16,0a.46.46,0,0,0-.14-.54,1.66,1.66,0,0,0-.53-.38Z"/><path class="cls-17" d="M79.87,40.66c.1-.17.26-.35.47-.32a.28.28,0,0,1,.23.19s0,.06,0,.09a.13.13,0,0,0,0,.06.6.6,0,0,1-.11.39.42.42,0,0,1-.24.23.32.32,0,0,1-.32-.08.25.25,0,0,1,0-.07.33.33,0,0,1-.09-.2A.5.5,0,0,1,79.87,40.66Z"/><path class="cls-17" d="M76.93,38.55c.1-.17.26-.37.49-.33a.27.27,0,0,1,.23.19.29.29,0,0,1,0,.09.13.13,0,0,1,0,.06.54.54,0,0,1-.11.41.41.41,0,0,1-.24.24.35.35,0,0,1-.34-.08.25.25,0,0,1,0-.07.35.35,0,0,1-.1-.21A.52.52,0,0,1,76.93,38.55Z"/><path class="cls-19" d="M80.17,38.76a2.46,2.46,0,0,0-1.28,1.6,9.92,9.92,0,0,1-.42,1.15,1.25,1.25,0,0,1-.15.28c-.08.05-.23,0-.31,0a1,1,0,0,1-.48-.35c0-.08-.32,0-.26,0a1.18,1.18,0,0,0,1,.49.42.42,0,0,0,.39-.24,5.44,5.44,0,0,0,.28-.66c.28-.78.51-1.83,1.37-2.17C80.47,38.82,80.27,38.72,80.17,38.76Z"/><path class="cls-19" d="M77.64,42.71a1.07,1.07,0,0,1-.76-.28,1.58,1.58,0,0,1-.28-.3.77.77,0,0,1-.18-.4c0-.1-.28-.1-.27,0a.83.83,0,0,0,.19.45,2.31,2.31,0,0,0,.34.36,1.45,1.45,0,0,0,1,.32s.13,0,.13-.07S77.68,42.71,77.64,42.71Z"/><path class="cls-9" d="M81.85,34.71a2.19,2.19,0,0,1-1.77,1.15s-.11,0-.11.06.08.06.11.06a2.44,2.44,0,0,0,2-1.23C82.12,34.67,81.89,34.64,81.85,34.71Z"/><path class="cls-9" d="M80.84,34.81a.14.14,0,0,0-.14,0,1.88,1.88,0,0,1-1.38.69s-.12,0-.12.06.09.07.12.06a2.15,2.15,0,0,0,1.6-.78S80.86,34.81,80.84,34.81Z"/><path class="cls-9" d="M77,31.33s-.11,0-.16,0a2.93,2.93,0,0,0-1.63,1.2c0,.07.18.1.23,0A2.71,2.71,0,0,1,77,31.41S77.07,31.37,77,31.33Z"/><path class="cls-9" d="M76.79,32.22a.18.18,0,0,0-.16,0,3.34,3.34,0,0,0-.77.73s.06.07.08.07a.17.17,0,0,0,.15,0,3.28,3.28,0,0,1,.74-.7S76.82,32.23,76.79,32.22Z"/><path class="cls-9" d="M84.58,35.87c0-.07-.27,0-.23,0a2.52,2.52,0,0,1-.29,2.1c0,.08.19.1.23,0A2.59,2.59,0,0,0,84.58,35.87Z"/><path class="cls-9" d="M73.48,41.28s0,0,0,0a.14.14,0,0,0-.09,0l-.08,0-.15.15-.09.06,0,0h0a.09.09,0,0,0,0,0s0,0,0,0l.09,0,.08,0a2,2,0,0,0,.36-.29S73.49,41.3,73.48,41.28Z"/><path class="cls-9" d="M73.72,42.2a.11.11,0,0,0-.07,0,.14.14,0,0,0-.14,0l-.08.11-.14.14s0,0,0,0a.07.07,0,0,0,.06,0,.14.14,0,0,0,.09,0,.11.11,0,0,0,.07,0,1.31,1.31,0,0,0,.24-.28S73.73,42.21,73.72,42.2Z"/><path class="cls-9" d="M76.22,43.39s0,0-.07,0h-.09a.05.05,0,0,0,0,0,1.88,1.88,0,0,1-.16.23,0,0,0,0,0,0,0l.07,0h.12l0,0a1.82,1.82,0,0,0,.15-.23A0,0,0,0,0,76.22,43.39Z"/><path class="cls-9" d="M74.59,43.44s0,0-.07,0h-.09l-.06,0a.91.91,0,0,1-.11.16l-.06.06s0,0,0,0,0,0,.06,0a.27.27,0,0,0,.09,0,.11.11,0,0,0,.07,0,2.23,2.23,0,0,0,.19-.24A0,0,0,0,0,74.59,43.44Z"/><path class="cls-9" d="M75.08,41.88a0,0,0,0,0,0,0l0,0h-.09s0,0-.07,0l-.12.11s0,0,0,.05l0,0h.12s.05,0,.07,0l.12-.11A0,0,0,0,0,75.08,41.88Z"/><path class="cls-9" d="M77.55,45s0,0-.06,0a.22.22,0,0,0-.16,0l-.16.12-.07,0s0,0,0,0,0,0,0,0l.08,0a.11.11,0,0,0,.08,0,1.85,1.85,0,0,0,.27-.19A0,0,0,0,0,77.55,45Z"/><path class="cls-9" d="M76,44.67l-.07,0h-.09s0,0-.06,0l-.13.24s0,0,0,0a.11.11,0,0,0,.07,0h.09a.1.1,0,0,0,0,0l.14-.24S76,44.69,76,44.67Z"/><path class="cls-9" d="M78.12,43.78H78s0,0-.06,0a1.13,1.13,0,0,1-.12.21l0,0s0,0,0,.05,0,0,.06,0H78l.07,0a1,1,0,0,0,.17-.27C78.22,43.8,78.15,43.78,78.12,43.78Z"/><path class="cls-9" d="M79.38,43.51a.05.05,0,0,0,0,0,.14.14,0,0,0-.09,0h0l0,0-.16.18,0,0v0s0,0,.06,0h.12l0,0,.16-.18,0,0A0,0,0,0,0,79.38,43.51Z"/><path class="cls-9" d="M75,40.46s0,0-.06,0a.14.14,0,0,0-.09,0l-.07,0-.24.25s0,0,0,0,0,0,0,0h.09l.08,0L75,40.5S75,40.48,75,40.46Z"/><path class="cls-9" d="M74.58,37l-.21.44c0,.08.2.1.23,0l.2-.44C74.84,36.93,74.61,36.9,74.58,37Z"/><path class="cls-9" d="M74.11,39.88a.07.07,0,0,0-.06,0,.14.14,0,0,0-.09,0,.11.11,0,0,0-.07,0,3.34,3.34,0,0,0-.32.33s0,0,0,0,0,0,0,0h.09a.11.11,0,0,0,.08,0,3.19,3.19,0,0,1,.31-.33S74.11,39.9,74.11,39.88Z"/><path class="cls-9" d="M74.68,38.64a.08.08,0,0,0-.07,0h-.09a.1.1,0,0,0,0,0l-.15.2-.07.08a0,0,0,0,0,0,0,.07.07,0,0,0,.05,0h.1s0,0,.07,0a2.55,2.55,0,0,0,.24-.31S74.7,38.65,74.68,38.64Z"/><path class="cls-9" d="M73.6,39a.07.07,0,0,0,0,0h-.1s0,0-.07,0l-.21.24a0,0,0,0,0,0,0,.09.09,0,0,0,0,0h.09s.06,0,.07,0l.22-.24A0,0,0,0,0,73.6,39Z"/><path class="cls-7" d="M77,47.66a12.19,12.19,0,0,1-2.84,3.59L72.4,52.82c-.65.6-1.28,1.21-1.88,1.84s-1.36,1.45-2,2.2c-.07.08.16.12.21.06a44,44,0,0,1,3.65-3.83,41.9,41.9,0,0,0,3.39-3.27,9.53,9.53,0,0,0,1.42-2.13C77.23,47.61,77,47.59,77,47.66Z"/><path class="cls-7" d="M74.24,59.19a4.12,4.12,0,0,0-3.18,1.6c0,.07.18.1.23,0a3.82,3.82,0,0,1,2.95-1.52s.12,0,.12-.06S74.27,59.19,74.24,59.19Z"/><path class="cls-7" d="M74.06,59.8a.22.22,0,0,0-.16,0,7.66,7.66,0,0,0-1,1.09s.06.07.09.07a.14.14,0,0,0,.14,0,7.24,7.24,0,0,1,1-1.06S74.09,59.81,74.06,59.8Z"/><path class="cls-14" d="M74.76,74.88a4.65,4.65,0,0,0-.83-1.38,7.13,7.13,0,0,1-.79-1q-.89-1.53-1.8-3c-1.24-2-2.54-4-3.91-5.88a3.56,3.56,0,0,0-.63-.71,2.68,2.68,0,0,0-1.12-.42,2.79,2.79,0,0,0-1.83.13,3,3,0,0,0-1.32,2.38,4.05,4.05,0,0,0,.07,1.8c.18.52.48.68.84,1,.94.93,1.77,2,2.67,3S68,72.6,69,73.53a29.86,29.86,0,0,0,3.5,2.83,2,2,0,0,0,.64.33,1.55,1.55,0,0,0,1.63-1.21A1.13,1.13,0,0,0,74.76,74.88Z"/><path class="cls-6" d="M65.76,69.51c-.44.46-1,.92-1.56.66a1.4,1.4,0,0,1-.4-.37,26.77,26.77,0,0,1-3.46-5.27c-1.56-3.45-1.66-7.36-1.57-11.14a23.05,23.05,0,0,1,.92-6.07c.51-1.72.48-3.46,1.77-4.88a4.67,4.67,0,0,1,7.21.36,5.53,5.53,0,0,1,.66,3.58C69.08,49.32,67.7,52,67,54.87c-.28,1.06-.47,2.13-.66,3.2a5.15,5.15,0,0,0,0,2.34,5.1,5.1,0,0,0,.54,1.1c.68,1.13,1.4,2.24,2.1,3.37a3.54,3.54,0,0,1,.68,1.32c.09.68-.25.78-.76,1A8.74,8.74,0,0,0,66.24,69C66.11,69.13,66,69.32,65.76,69.51Z"/><path class="cls-14" d="M74.64,73a3.84,3.84,0,0,1,1,.39,2,2,0,0,1,.68.5.76.76,0,0,1,.12.79,1,1,0,0,1-.66.43,2.15,2.15,0,0,1-.75.09,2.52,2.52,0,0,1-.92-.28,2.23,2.23,0,0,1-.73-.49c-.25-.28-.57-.93-.27-1.28S74.27,72.87,74.64,73Z"/><path class="cls-17" d="M79.5,88.85a.4.4,0,0,1-.32-.17A25,25,0,0,1,75.26,78.6a68.94,68.94,0,0,1-.79-10.75.38.38,0,0,1,.38-.4h0a.4.4,0,0,1,.4.38A68.34,68.34,0,0,0,76,78.46a24.14,24.14,0,0,0,3.78,9.77.39.39,0,0,1-.09.54A.4.4,0,0,1,79.5,88.85Z"/><path class="cls-17" d="M79.12,86.33H84.3a.48.48,0,0,1,.48.48v.88a2.27,2.27,0,0,1-2.27,2.27h-1.6a2.27,2.27,0,0,1-2.27-2.27V86.8a.48.48,0,0,1,.48-.48Z" transform="translate(-12.57 13.59) rotate(-8.83)"/><path class="cls-14" d="M76.41,76.59a.62.62,0,0,0,.59-.42.46.46,0,0,0-.37-.58.65.65,0,0,0,.45-.46.68.68,0,0,0-.18-.62,1.49,1.49,0,0,0-.63-.31,7,7,0,0,1-1.42-.47c-.3-.15-.55-.34-.86-.47a2.2,2.2,0,0,1-.28-.18,2.26,2.26,0,0,0-.35-.17,1.26,1.26,0,0,0-.54-.13c-.43,0-.57.45-.77.75a2.62,2.62,0,0,0-.11,2.7,4.69,4.69,0,0,0,1.23,1.63,3.8,3.8,0,0,0,2.26.83c.48,0,1.33,0,1.22-.72a.34.34,0,0,0-.37-.3.66.66,0,0,0,.46-.8A.51.51,0,0,0,76.41,76.59Z"/><path class="cls-19" d="M76.41,74.19a3.79,3.79,0,0,1-2-.75s-.19,0-.14,0a4,4,0,0,0,2.07.79C76.44,74.29,76.51,74.21,76.41,74.19Z"/><path class="cls-19" d="M76.47,75.56s-.07,0-.1,0a2.77,2.77,0,0,1-.49,0,1.94,1.94,0,0,1-.48-.09.11.11,0,0,0-.11,0s0,0,0,0a3.22,3.22,0,0,0,.54.1,3.48,3.48,0,0,0,.55,0S76.48,75.59,76.47,75.56Z"/><path class="cls-19" d="M76.21,76.6a3.15,3.15,0,0,1-1.06-.13.14.14,0,0,0-.11,0s0,0,0,.06a3.37,3.37,0,0,0,1.14.14s.07,0,.07,0S76.23,76.6,76.21,76.6Z"/><path class="cls-19" d="M76.23,77.63s-.07,0-.1,0A2.07,2.07,0,0,1,75,77.52s-.09,0-.11,0,0,0,0,0a2.25,2.25,0,0,0,1.26.09S76.24,77.66,76.23,77.63Z"/><path class="cls-7" d="M62.13,67.81a21.81,21.81,0,0,1-1.84-3,14.06,14.06,0,0,1-1.15-3.4A27.53,27.53,0,0,1,58.73,54c.09-1.4.26-2.8.47-4.19,0-.08-.22-.09-.23,0a39.94,39.94,0,0,0-.54,7.49,24.6,24.6,0,0,0,.4,3.72,14.33,14.33,0,0,0,1.05,3.45,20.24,20.24,0,0,0,2,3.37C62,67.91,62.18,67.87,62.13,67.81Z"/><path class="cls-7" d="M68.82,42.82c0-.07-.27,0-.23,0,1.06,2.18.34,4.66-.35,6.83L67.1,53.29c-.36,1.14-.75,2.28-1,3.46a8.42,8.42,0,0,0,0,3.93c0,.07.26.06.23,0-.63-2.37.26-4.82,1-7.07.38-1.2.76-2.41,1.15-3.61a20.79,20.79,0,0,0,.89-3.47A6.44,6.44,0,0,0,68.82,42.82Z"/><path class="cls-7" d="M64.63,60.6a2.52,2.52,0,0,0-1.09.09s-.08,0,0,.08.11,0,.16,0a2.14,2.14,0,0,1,.91-.08s.12,0,.14,0S64.66,60.6,64.63,60.6Z"/><path class="cls-9" d="M125.74,51.91c-.17,1,0,1.82-.9,2.63a4.55,4.55,0,0,1-2.2,1,2.48,2.48,0,0,1-1,0,2,2,0,0,1-1.39-1.51,6.39,6.39,0,0,1-.06-2.14,32.54,32.54,0,0,0,.16-3.27c0-3.8-1-7.58-.66-11.36a6.22,6.22,0,0,1,1.66-4c1.19-1.1,2.71-.13,3.46,1a10.92,10.92,0,0,1,1.36,5.38c.12,2.1.12,4.21.07,6.31A39.7,39.7,0,0,1,125.74,51.91Z"/><path class="cls-16" d="M135.29,92.6c-.22,4.94.33,9.85.16,14.81,0,.91-.21,2.3-1.15,2.77a.76.76,0,0,1-.33.08,12.74,12.74,0,0,1-3.83-.39,3.21,3.21,0,0,1-2.11-1,3.14,3.14,0,0,1-.42-1.35c-.67-4.61-.62-9.23-1-13.87-.11-1.58-.25-3.17-.41-4.75-.11-1.16.09-2.17.07-3.31-.09-6.3-.83-12.62-1-18.93,0-.15,0-.29,0-.43a12,12,0,0,1,.34-4,4.48,4.48,0,0,1,2.62-2.95,6.59,6.59,0,0,1,1.93-.3,37.64,37.64,0,0,1,4.25.08c1.56.11,2.17.54,2,1.92a33.8,33.8,0,0,0,0,4.72c.07,3.79-.15,7.58-.37,11.36C135.78,82.23,135.53,87.42,135.29,92.6Z"/><path class="cls-9" d="M125.42,114.92a4.13,4.13,0,0,0,1.63.26h2a5.91,5.91,0,0,1,1.66-.34,3.07,3.07,0,0,1,1,.35h1.93a2.89,2.89,0,0,0,.71-.27.46.46,0,0,0,.2-.16.49.49,0,0,0,0-.21,3.38,3.38,0,0,0-.07-.63,13,13,0,0,1-.39-1.61,1.55,1.55,0,0,1,0-.22c0-.47,0-1,0-1.43a.3.3,0,0,0-.06-.18.27.27,0,0,0-.13-.07,8.49,8.49,0,0,0-2.67-.56,5.48,5.48,0,0,0-.81,0,4.43,4.43,0,0,0-.19-.69.34.34,0,0,0-.1-.16.28.28,0,0,0-.18,0c-.45,0-.56.45-.62.79a6,6,0,0,1-.41,1.37,3.29,3.29,0,0,1-1.34,1.21,5,5,0,0,1-1.78.77,2.23,2.23,0,0,0-.64.16.83.83,0,0,0-.42.38A1,1,0,0,0,125.42,114.92Z"/><path class="cls-17" d="M131.24,109.85a2.31,2.31,0,0,0,.17.86c.42,1,1.68,1.3,2.73,1.38,0-.47,0-1,0-1.43a.3.3,0,0,0-.06-.18.27.27,0,0,0-.13-.07A8.49,8.49,0,0,0,131.24,109.85Z"/><path class="cls-17" d="M125.42,114.92a4.13,4.13,0,0,0,1.63.26h2a5.91,5.91,0,0,1,1.66-.34,3.07,3.07,0,0,1,1,.35h1.93a2.89,2.89,0,0,0,.71-.27.46.46,0,0,0,.2-.16.49.49,0,0,0,0-.21,3.38,3.38,0,0,0-.07-.63l-.3.16a4,4,0,0,1-2.54.3,7.08,7.08,0,0,0-.77-.17,4.56,4.56,0,0,0-1.27.12,10.36,10.36,0,0,1-2.55.08,4,4,0,0,1-1.38-.32,4.75,4.75,0,0,0-1-.44A1,1,0,0,0,125.42,114.92Z"/><path class="cls-17" d="M129,110.65a.13.13,0,0,0,.12,0l.53-.11a1.73,1.73,0,0,1,.24.1.6.6,0,0,0,.19.06h.13a.32.32,0,0,0,.18-.33.08.08,0,0,0-.06,0h-.08l-.56.11a4.16,4.16,0,0,1-.42-.23.17.17,0,0,0-.14,0s0,0,0,.06.24.15.37.21l-.43.08S129,110.61,129,110.65Zm.86-.12.23,0a.28.28,0,0,0,0,.13h0l-.11,0Z"/><path class="cls-17" d="M128.3,111.78a5.61,5.61,0,0,0,.58,0l.14,0-.05,0-.16-.15-.13-.13s0,0-.05,0,.09-.07.12-.07.08,0,.12.08l.2.19.12.12.26-.08h0a.26.26,0,0,1,.15,0l0,0h0s0,0,0,0v0s0,0,0,0a.11.11,0,0,1,0,.07h0a.51.51,0,0,1-.21.2h0a.15.15,0,0,1-.13,0l-.19-.18-.14,0h-.66s-.09,0-.09-.05S128.28,111.78,128.3,111.78Z"/><path class="cls-17" d="M127.35,112.41a4.64,4.64,0,0,1,.53,0l-.14-.27c0-.07.16-.08.19,0s.1.22.16.33h.1a1,1,0,0,1,.25.08h0s0,0,0,0h0s0,0,0,0a.27.27,0,0,1-.09.12l-.13.07s-.16,0-.18,0l-.17-.28h-.08a4.13,4.13,0,0,0-.5,0s-.09,0-.09,0S127.33,112.41,127.35,112.41Z"/><path class="cls-17" d="M126.46,112.79a.15.15,0,0,1,.13,0l.15.06h0a.4.4,0,0,0,0-.15s.07,0,.1,0,.09,0,.1,0a.7.7,0,0,1,0,.14.36.36,0,0,0,0,.1l.26.17h0l.06,0h0v0h0a.08.08,0,0,1,0,0l0,0-.09.06a.39.39,0,0,1-.26,0l0,0s-.07,0-.08,0a.93.93,0,0,1,0-.29v0l-.28-.12S126.42,112.8,126.46,112.79Z"/><path class="cls-16" d="M143,92.6q-.19,3.93-.37,7.85c-.1,2.17,0,4.34-.09,6.51,0,1.06-.36,3.41-1.56,3.75a2.06,2.06,0,0,1-.82,0,10.42,10.42,0,0,1-4-1.1c-1.25-.81-1.64-2.45-1.87-3.92a113.74,113.74,0,0,1-1-12.91c-.32-8.74-.73-17.46-1-26.19,0-.15,0-.29,0-.43a11.3,11.3,0,0,1,.37-4,4.62,4.62,0,0,1,2.79-2.95,7.58,7.58,0,0,1,2.08-.3,42.8,42.8,0,0,1,4.53.08c1.67.11,2.33.54,2.14,1.92a32.34,32.34,0,0,0,0,4.72c.07,3.79-.16,7.58-.4,11.36C143.49,82.23,143.23,87.42,143,92.6Z"/><path class="cls-9" d="M132.57,114.92a4.08,4.08,0,0,0,1.63.26h2a5.84,5.84,0,0,1,1.65-.34,3.12,3.12,0,0,1,1,.35h1.92a3,3,0,0,0,.72-.27.49.49,0,0,0,.19-.16.38.38,0,0,0,0-.21,2.26,2.26,0,0,0-.07-.63,15,15,0,0,1-.38-1.61c0-.07,0-.14,0-.22,0-.47,0-1,0-1.43a.31.31,0,0,0-.07-.18.24.24,0,0,0-.12-.07,8.55,8.55,0,0,0-2.67-.56,5.61,5.61,0,0,0-.82,0,4.39,4.39,0,0,0-.18-.69.29.29,0,0,0-.11-.16.25.25,0,0,0-.17,0c-.45,0-.57.45-.62.79a6.55,6.55,0,0,1-.41,1.37,3.42,3.42,0,0,1-1.34,1.21,4.94,4.94,0,0,1-1.79.77,2.4,2.4,0,0,0-.64.16.88.88,0,0,0-.42.38C131.66,114.11,132,114.7,132.57,114.92Z"/><path class="cls-17" d="M138.39,109.85a2.13,2.13,0,0,0,.17.86c.41,1,1.68,1.3,2.72,1.38,0-.47,0-1,0-1.43a.31.31,0,0,0-.07-.18.24.24,0,0,0-.12-.07A8.55,8.55,0,0,0,138.39,109.85Z"/><path class="cls-17" d="M132.57,114.92a4.08,4.08,0,0,0,1.63.26h2a5.84,5.84,0,0,1,1.65-.34,3.12,3.12,0,0,1,1,.35h1.92a3,3,0,0,0,.72-.27.49.49,0,0,0,.19-.16.38.38,0,0,0,0-.21,2.26,2.26,0,0,0-.07-.63l-.29.16a4,4,0,0,1-2.54.3,7.08,7.08,0,0,0-.77-.17,4.53,4.53,0,0,0-1.27.12,10.44,10.44,0,0,1-2.56.08,4.09,4.09,0,0,1-1.38-.32,4.32,4.32,0,0,0-1-.44C131.66,114.11,132,114.7,132.57,114.92Z"/><path class="cls-17" d="M136.12,110.65a.13.13,0,0,0,.12,0l.53-.11.24.1a.64.64,0,0,0,.18.06h.14a.32.32,0,0,0,.17-.33s0,0-.06,0h-.08l-.55.11c-.15-.07-.29-.15-.43-.23a.15.15,0,0,0-.13,0s0,0,0,.06.24.15.36.21l-.42.08S136.1,110.61,136.12,110.65Zm.85-.12.24,0a.28.28,0,0,0,0,.13h0l-.1,0Z"/><path class="cls-17" d="M135.45,111.78a5.61,5.61,0,0,0,.58,0l.13,0,0,0-.16-.15-.13-.13s0,0-.05,0,.09-.07.12-.07a.23.23,0,0,1,.12.08l.19.19.13.12.26-.08h0a.23.23,0,0,1,.14,0s0,0,0,0h0l0,0a0,0,0,0,1,0,0,0,0,0,0,1,0,0s0,0,0,.07h0a.43.43,0,0,1-.2.2h0a.15.15,0,0,1-.13,0l-.19-.18-.15,0h-.65s-.1,0-.1-.05S135.42,111.78,135.45,111.78Z"/><path class="cls-17" d="M134.5,112.41a4.69,4.69,0,0,1,.53,0c-.05-.09-.1-.18-.14-.27s.16-.08.18,0l.17.33h.1a1,1,0,0,1,.24.08h0s0,0,0,0h0s0,0,0,0a.29.29,0,0,1-.1.12.47.47,0,0,1-.12.07s-.16,0-.19,0a2.54,2.54,0,0,1-.16-.28H135a4.17,4.17,0,0,0-.5,0s-.09,0-.1,0S134.47,112.41,134.5,112.41Z"/><path class="cls-17" d="M133.6,112.79a.17.17,0,0,1,.14,0l.15.06h0a.8.8,0,0,0,0-.15s.07,0,.1,0,.09,0,.09,0a.24.24,0,0,1,0,.14.34.34,0,0,0,0,.1l.26.17h0l.06,0h0v0h0a.08.08,0,0,1,0,0s0,0,0,0l-.08.06a.42.42,0,0,1-.27,0l0,0s-.07,0-.08,0a.71.71,0,0,1,0-.29v0l-.27-.12S133.57,112.8,133.6,112.79Z"/><path class="cls-15" d="M135.54,108.62a27.06,27.06,0,0,1-1.6-7.19c-.28-2.61-.51-5.24-.76-7.86s-.51-5.35-.77-8-.51-5.34-.76-8l-.78-8.06-.09-1c0-.12-.33-.11-.32,0l.78,8.06q.38,4,.77,8.06c.25,2.68.51,5.37.77,8.05s.49,5.32.76,8a31.31,31.31,0,0,0,1.38,7.19c.09.28.2.57.32.85C135.28,108.77,135.59,108.74,135.54,108.62Z"/><path class="cls-15" d="M140.63,67a1.62,1.62,0,0,1-1-.6,5.83,5.83,0,0,1-.72-1,9.16,9.16,0,0,1-1-2.41,9,9,0,0,1-.24-1.47c0-.11-.32-.1-.31,0A9.34,9.34,0,0,0,138,64.1a11.56,11.56,0,0,0,.59,1.23,7.84,7.84,0,0,0,.74,1.07,2,2,0,0,0,1.17.71c.06,0,.17,0,.2-.06S140.67,67,140.63,67Z"/><path class="cls-14" d="M114.23,60.61c-.22.31-.43.73-.22,1a.82.82,0,0,0,.51.31,3.17,3.17,0,0,0,2.47-.52,9.38,9.38,0,0,0,1.89-1.78l3.33-3.78a6.13,6.13,0,0,0,1.12-1.61,2,2,0,0,0-.12-1.87,2.55,2.55,0,0,0-3.15-.5,3.09,3.09,0,0,0-.69.87C117.73,55.44,116,58.06,114.23,60.61Z"/><path class="cls-9" d="M119.08,52c.61-.79,1.21-1.59,1.77-2.42a1.61,1.61,0,0,1,.75-.69c.85-.26,1.85,1,2.38,1.47a12.56,12.56,0,0,1,1.3,1.52,2,2,0,0,1,.52,1.21,2.09,2.09,0,0,1-.52,1.14c-.4.53-1.83,3.24-2.69,2a6.51,6.51,0,0,0-1.89-1.77,2.59,2.59,0,0,0-.72-.32c-.53-.11-1.25,0-1.48-.63a1.18,1.18,0,0,1,0-.67A2.59,2.59,0,0,1,119.08,52Z"/><path class="cls-9" d="M141,62c-3.17.32-6.34.63-9.52.89q-2.43.2-4.86.33c-.53,0-1.58.31-2-.06s-.27-1.12-.27-1.6,0-1.24.06-1.85c.06-1.24.15-2.48.11-3.72a28.29,28.29,0,0,0-1.18-7.7c-.07-.22-.14-.44-.22-.66a16.45,16.45,0,0,1-1.38-5.36c0-1.34.41-2.75-.13-4-.33-.74-1-1.3-1.24-2.06-.55-1.51.54-3.1,1.67-4.25a22.51,22.51,0,0,1,3.94-3.4,9.22,9.22,0,0,1,1-.54,9.87,9.87,0,0,1,2.76-.77,9.76,9.76,0,0,1,3.49.17,14,14,0,0,1,2,.65c1.89.74,2.66,1.41,3.17,3.25.62,2.25,1.64,4.42,2.38,6.64,1,3.15,1.64,6.71,2.39,10a72.13,72.13,0,0,1,1.8,11.4C145.11,62,142.9,61.85,141,62Z"/><path class="cls-17" d="M128.17,53.16c-.21-1.54-.58-3-.75-4.59a41.32,41.32,0,0,1-.11-4.59,21.46,21.46,0,0,0-.46-5.12c-.06-.23-.68-.19-.63,0,.74,3,.3,6.08.52,9.12.12,1.54.49,3.05.72,4.57s.39,3.14.5,4.71c.12,1.78.19,3.57.25,5.35,0,.22.64.22.63,0A93.17,93.17,0,0,0,128.17,53.16Z"/><path class="cls-6" d="M111.25,58.36c.81,2.54,4.66,3.74,8.74,2.67s6.84-4,6.29-6.61Z"/><rect class="cls-6" x="110.01" y="55.85" width="17.21" height="0.99" rx="0.37" transform="translate(-10.41 31.94) rotate(-14.7)"/><path class="cls-6" d="M112,61c.8,2.55,4.66,3.74,8.73,2.67s6.85-4,6.3-6.61Z"/><rect class="cls-6" x="110.71" y="58.51" width="17.21" height="0.99" rx="0.37" transform="translate(-11.07 32.2) rotate(-14.7)"/><path class="cls-7" d="M124.58,57.12s-.08,0-.11,0L120,58.33c-1.51.41-3,.82-4.55,1.19-.85.21-1.71.41-2.57.6,0,0,0,0,0,.06s.08,0,.11,0c1.53-.34,3-.71,4.57-1.1s3-.82,4.54-1.23l2.51-.69S124.6,57.14,124.58,57.12Z"/><path class="cls-2" d="M116.06,63.14s-.11,0-.15,0a2.47,2.47,0,0,1-2.32-.92s-.09,0-.14,0-.11,0-.08.08a2.77,2.77,0,0,0,2.61,1S116.08,63.19,116.06,63.14Z"/><path class="cls-2" d="M113,59.33a1.31,1.31,0,0,1-.81-.59s-.1-.05-.14,0-.11,0-.09.07a1.47,1.47,0,0,0,1,.67s.13,0,.15,0S113,59.33,113,59.33Z"/><path class="cls-2" d="M124.94,60.48a3.32,3.32,0,0,1-1.11,1.3s0,.07,0,.08a.18.18,0,0,0,.16,0,3.41,3.41,0,0,0,1.14-1.33C125.21,60.43,125,60.41,124.94,60.48Z"/><path class="cls-9" d="M143.81,46.15a19,19,0,0,1,.15,3.37,2.62,2.62,0,0,1-.78,2,10.55,10.55,0,0,1-1.81,1.17,1.57,1.57,0,0,1-.67.16c-.69,0-1.16-.69-1.44-1.31a24.67,24.67,0,0,1-1.35-4.86,68.31,68.31,0,0,0-3.57-10.77,12.7,12.7,0,0,1-.86-2.66c-.24-1.44.23-4.38,2.09-4.48a3.21,3.21,0,0,1,2.14.86,11,11,0,0,1,2.88,4.74c.73,2,1.35,4,1.92,6A41,41,0,0,1,143.81,46.15Z"/><path class="cls-6" d="M129.71,27.32l-.2.38a18.69,18.69,0,0,1-2,2.86,4.38,4.38,0,0,0-.85,1.29s0,0,0,.06a3.68,3.68,0,0,0-.11,1.1c0,1.43.08,2.86.22,4.29.07.72.25,1.49.26,2.21,0,.4-.27,1.09-.07,1.44A20.19,20.19,0,0,1,125,34.3a6.92,6.92,0,0,1-.28-3.06,9.69,9.69,0,0,1,1.16-2.61,9.22,9.22,0,0,1,1-.54A9.87,9.87,0,0,1,129.71,27.32Z"/><path class="cls-14" d="M128.39,59.6a5.7,5.7,0,0,1-.76.43,1.28,1.28,0,0,1-.9.08c-.06,0-.13-.06-.13-.12a2.54,2.54,0,0,1-1.1,0l-.09-.05a.06.06,0,0,1,0-.09,2.29,2.29,0,0,1-.78-.1c-.1,0-.54-.18-.38-.37a1.09,1.09,0,0,0-.22,0,1,1,0,0,1-.24,0c-.13,0-.3-.16-.28-.31a.25.25,0,0,1,.14-.18,1.39,1.39,0,0,1,.53-.18,5,5,0,0,0,2-1.06c.17-.15.25-.31.11-.5a.62.62,0,0,0-.53-.21,2.84,2.84,0,0,0-.57.16,1.26,1.26,0,0,1-.57.11.11.11,0,0,1-.08,0,.13.13,0,0,1,0-.1.41.41,0,0,1,.2-.3,2.67,2.67,0,0,1,.34-.14c.61-.24,1.06-.8,1.68-1,.79-.28,1.66,0,2.46-.2l.08,0a11.13,11.13,0,0,0,2.3-1.51,36.44,36.44,0,0,0,4.12-3.52c.7-.7,1.58-1.5,2.55-1.26a2.76,2.76,0,0,1,1.35,1.07,2.44,2.44,0,0,1,.59,1c.21.92-.64,1.72-1.42,2.25a31.45,31.45,0,0,1-4.52,2.56,21,21,0,0,1-2.41,1,3.31,3.31,0,0,0-1.69.74c-.44.45-.72,1-1.15,1.47A4.45,4.45,0,0,1,128.39,59.6Z"/><path class="cls-9" d="M137.18,48.13a15.61,15.61,0,0,0,1.81-.82c.53-.3,1-1,1.67-1,.9,0,1.48,1.48,1.83,2.12a11,11,0,0,1,.78,1.84,2.06,2.06,0,0,1,.14,1.31,2.11,2.11,0,0,1-.85.93c-1.26.91-2.43,2.13-3.91,2.69a1.91,1.91,0,0,0-.85.46c-.11.12-.2.29-.36.33s-.48-.3-.56-.59a10.12,10.12,0,0,0-2-3.86c-.22-.27-.47-.62-.31-.92.26-.47,1.16-.16,1.39-.64.15-.32-.14-.69,0-1s.34-.39.59-.5Z"/><path class="cls-17" d="M129.39,27.84c-.45.7-.92,1.38-1.42,2-.25.34-.51.67-.77,1s-.54.48-.62.79a1.8,1.8,0,0,0,0,.4l0,.66c0,.89,0,1.77,0,2.66a14.16,14.16,0,0,0,.08,1.84c.08.6.2,1.2.26,1.8a8.62,8.62,0,0,1,0,1.76,24.92,24.92,0,0,1-1.76-6.36c-.1-.58-.19-1.17-.28-1.75a0,0,0,0,0,0,0,6.9,6.9,0,0,1,.21-1.92c0-.12-.36-.15-.4,0a6.86,6.86,0,0,0-.21,1.69.09.09,0,0,0,0,.07,38.41,38.41,0,0,0,1.48,6.87,16.82,16.82,0,0,0,.75,1.81c0,.09.3.09.37,0s.2,0,.21-.1a9.22,9.22,0,0,0,.09-1.82c0-.61-.16-1.2-.24-1.8a12.54,12.54,0,0,1-.11-1.84c0-.63,0-1.25,0-1.88l.06-2.11h0a34.66,34.66,0,0,0,2.16-2.83c.21-.3.4-.6.6-.9C129.84,27.78,129.46,27.73,129.39,27.84Z"/><path class="cls-17" d="M130.76,29.08a18.71,18.71,0,0,1-2.68,3.83c-.27.35-.53.7-.77,1.07,0,.07.19.1.23,0,.85-1.31,2-2.42,2.82-3.74a7.52,7.52,0,0,0,.62-1.15C131,29,130.79,29,130.76,29.08Z"/><path class="cls-17" d="M124.42,34.4a3.45,3.45,0,0,1-.62-2.2c0-.08-.23-.09-.24,0a3.49,3.49,0,0,0,.64,2.23C124.24,34.49,124.47,34.46,124.42,34.4Z"/><path class="cls-17" d="M140.62,46.37a2.92,2.92,0,0,0-1.79.33,3.1,3.1,0,0,0-.64.71,1.8,1.8,0,0,1-.2.19,38.9,38.9,0,0,0-1.74-6.25c-.36-1.05-.74-2.09-1.11-3.14-.19-.53-.37-1.05-.58-1.57s-.43-1-.67-1.5a5,5,0,0,1-.53-1.7,4.28,4.28,0,0,1,.17-1.74c0-.09-.21-.11-.23,0a4.45,4.45,0,0,0,.15,3c.21.51.48,1,.69,1.48s.4,1,.59,1.55c.74,2.09,1.53,4.17,2.17,6.3a32,32,0,0,1,.87,3.63s0,.05.07.06a1.69,1.69,0,0,1-.45.21,3.94,3.94,0,0,0-1.64.66,1,1,0,0,0-.34.68c0,.2.13.59-.08.72a.53.53,0,0,1-.28,0,1.07,1.07,0,0,0-.25,0,.94.94,0,0,0-.44.23.59.59,0,0,0,0,.8c.05.06.27,0,.2-.06a.53.53,0,0,1,.1-.73.79.79,0,0,1,.42-.15,1,1,0,0,0,.45-.06c.21-.11.19-.38.17-.59a1,1,0,0,1,.17-.72,2.73,2.73,0,0,1,1.52-.69,2.09,2.09,0,0,0,.8-.37,5.77,5.77,0,0,0,.61-.7,2.23,2.23,0,0,1,1.86-.52s.12,0,.12-.06S140.65,46.37,140.62,46.37Z"/><path class="cls-17" d="M143.34,51.41c-1.18,1.72-3.32,2.29-5,3.32-.39.24-1,.6-1.38.16-.05,0-.27,0-.2.06a1.11,1.11,0,0,0,1.28.13c.26-.12.48-.28.72-.41s.52-.29.78-.42a17.85,17.85,0,0,0,2.86-1.6,5.47,5.47,0,0,0,1.19-1.21C143.61,51.37,143.38,51.34,143.34,51.41Z"/><path class="cls-17" d="M123.74,50.54c-.09-.59-.18-1.18-.31-1.77a16.84,16.84,0,0,0-.48-1.72,20.19,20.19,0,0,1-1-3.29,25.59,25.59,0,0,1,0-3.61,4.54,4.54,0,0,0-1-3.08s-.28,0-.21.06a4.26,4.26,0,0,1,.93,2.77c0,1.18-.17,2.36,0,3.53a13.77,13.77,0,0,0,.92,3.26,16.85,16.85,0,0,1,.52,1.71,17.63,17.63,0,0,1,.34,1.76c.21,1.37.41,2.73.62,4.09,0,.09.24.08.23,0C124.11,53,123.92,51.78,123.74,50.54Z"/><path class="cls-17" d="M122.45,51a1.43,1.43,0,0,0-.72-.65,1.59,1.59,0,0,0-.58,0l-.65,0s-.12,0-.12.06.09.06.12.06l.54,0a2,2,0,0,1,.54,0,1.29,1.29,0,0,1,.65.59C122.27,51.08,122.5,51.05,122.45,51Z"/><path class="cls-19" d="M126.5,58.85a.11.11,0,0,0-.11,0,5.18,5.18,0,0,1-.94.31l-.48.09a1.18,1.18,0,0,1-.56,0s-.09,0-.11,0a0,0,0,0,0,0,0,2.37,2.37,0,0,0,1.09-.11,5,5,0,0,0,1.08-.35S126.52,58.87,126.5,58.85Z"/><path class="cls-19" d="M127.22,59.19a.14.14,0,0,0-.11,0,3.94,3.94,0,0,1-1.6.5c-.1,0-.1.08,0,.08a4.15,4.15,0,0,0,1.71-.52S127.25,59.21,127.22,59.19Z"/><path class="cls-19" d="M128.11,59.37a.11.11,0,0,0-.11,0,2.51,2.51,0,0,1-1.16.5s-.07,0-.06,0a.1.1,0,0,0,.1,0,2.57,2.57,0,0,0,1.26-.53S128.13,59.37,128.11,59.37Z"/><path class="cls-14" d="M124.66,30.2c.28.35,1.41,1.69,1.59,1.39l.57-.95c.15-.24,2.29-3.45,2.49-3.3-.77-.57-1.42-1.3-2.21-1.83a1.61,1.61,0,0,0-2.07.23,3.24,3.24,0,0,0-1,1.42,2.25,2.25,0,0,1-.08.24c0,.05,0,.1,0,.15a3,3,0,0,0,.66,2.58Z"/><path class="cls-19" d="M124.66,30.2a1.2,1.2,0,0,0,.23-.22c.49-.59,1.13-2,.09-2.44a1.79,1.79,0,0,0-1-.14c0,.05,0,.1,0,.15A2.94,2.94,0,0,0,124.66,30.2Z"/><path class="cls-14" d="M118.14,23c0,1.56,1.92,2.46,1.29,3.77-.1.41-.34.93-.1,1.32a.82.82,0,0,0,.6.22c.44,0,.78.48,1,.82s.6,1.11,1.17,1.34a.55.55,0,0,0,.24.07.61.61,0,0,0,.23,0,4.74,4.74,0,0,0,1.57-.79,3,3,0,0,0,.61-.51,4.33,4.33,0,0,0,.5-.71,4.81,4.81,0,0,0,.49-1.2,3.32,3.32,0,0,0,.13-1.25c-.09-.47.31-.7.72-.82,2.1-.74,1.41-3.07.46-4.49-.77-1-1.54-2.14-2.9-2.37a5.32,5.32,0,0,0-1.06-.16,2.48,2.48,0,0,0-1.07.23,11.91,11.91,0,0,0-1.94,1,3.67,3.67,0,0,0-.72.7l-.72.85a1.87,1.87,0,0,0-.53,1.12C118.11,22.44,118.14,22.73,118.14,23Z"/><path class="cls-17" d="M135.35,28.18l-.12-.06a9.17,9.17,0,0,1-3.63-3.06c-1-1.27-1.78-2.66-2.76-3.93a14.6,14.6,0,0,0-1.09-1.27,6.11,6.11,0,0,0-3.38-2.09,5.46,5.46,0,0,0-3.92.78A6.42,6.42,0,0,0,118.84,20c-.37.48-1,1.28-.56,1.88a1.88,1.88,0,0,0,.7.58,6.51,6.51,0,0,0,2.47.75,11.64,11.64,0,0,1,2.13.2A5,5,0,0,1,125.87,25a21.38,21.38,0,0,0,1.91,2.12A8.08,8.08,0,0,0,133,28.86a6.39,6.39,0,0,0,1.74-.17C135,28.64,135.76,28.43,135.35,28.18Z"/><path class="cls-17" d="M120.94,24.39l.22,0a.66.66,0,0,0-.17-.12,1.76,1.76,0,0,0-1.74.17.26.26,0,0,0-.14.21c0,.13.22.13.31.12a3.44,3.44,0,0,0,.75-.24A2.53,2.53,0,0,1,120.94,24.39Z"/><path class="cls-17" d="M120.32,25.8a.26.26,0,0,1,.15-.36c.21-.07.41.23.47.4a.23.23,0,0,1-.22.36A.56.56,0,0,1,120.32,25.8Z"/><path class="cls-2" d="M121.41,28.58s0,0,0-.06a.56.56,0,0,1,.16-.21,1.8,1.8,0,0,0,.33-.45,1,1,0,0,1,.1-.17.25.25,0,0,1,.16-.08c.12,0,.18.14.21.25a.83.83,0,0,1-.37.95C121.83,28.91,121.39,28.84,121.41,28.58Z"/><path class="cls-14" d="M123.39,23.79a1.84,1.84,0,0,1,.19-.74.84.84,0,0,1,.59-.45.87.87,0,0,1,.71.26,2.32,2.32,0,0,1,.53,1.87,2.43,2.43,0,0,1-.17.85,1,1,0,0,1-.63.57,1,1,0,0,1-.92-.41A3.41,3.41,0,0,1,123.39,23.79Z"/><path class="cls-9" d="M123.43,22.49s-.11,0-.15,0a4.84,4.84,0,0,1-4.07-1.06c0-.05-.28,0-.2.06a4.51,4.51,0,0,0,3.22,1.17,8.26,8.26,0,0,0,1.11-.06S123.45,22.54,123.43,22.49Z"/><path class="cls-9" d="M123.64,21.44s-.12,0-.17,0A3.29,3.29,0,0,1,121,21c-.07,0-.28,0-.17.09a3.64,3.64,0,0,0,2.75.48S123.67,21.48,123.64,21.44Z"/><path class="cls-9" d="M126.36,19.3a4.22,4.22,0,0,0-2.59-1.15s-.13,0-.15,0,0,.07.08.07a4,4,0,0,1,2.46,1.1C126.21,19.41,126.44,19.37,126.36,19.3Z"/><path class="cls-9" d="M131.21,27.2a5.22,5.22,0,0,1-1.84-.34,5.13,5.13,0,0,1-1.41-1c-.24-.22-.46-.46-.69-.69,0-.05-.28,0-.2.06a10.48,10.48,0,0,0,1.34,1.24,4.11,4.11,0,0,0,1.67.73,8.48,8.48,0,0,0,1.13.11s.11,0,.11-.06S131.24,27.2,131.21,27.2Z"/><path class="cls-9" d="M130.82,25.65a3.37,3.37,0,0,1-1.6-.71.15.15,0,0,0-.16,0s-.09,0,0,.08a3.72,3.72,0,0,0,1.73.77s.13,0,.15,0S130.85,25.66,130.82,25.65Z"/></g></g></svg>