<svg xmlns="http://www.w3.org/2000/svg" xmlns:xlink="http://www.w3.org/1999/xlink" viewBox="0 0 228.74 124.82"><defs><style>.cls-1{fill:none;}.cls-2{fill:#d1ecee;}.cls-3{fill:#fff;}.cls-4{clip-path:url(#clip-path);}.cls-5{fill:#77c8f0;}.cls-6{fill:#59b1cb;}.cls-7{fill:#7abde8;}.cls-8{fill:#57a4ce;}.cls-9{fill:#85c16c;}.cls-10{fill:#b2764b;}.cls-11{fill:#d89060;}.cls-12{fill:#5d8c64;}.cls-13{fill:#6a8ab8;}.cls-14{fill:#f6977d;}.cls-15{fill:#db6358;}.cls-16{fill:#c9644e;}.cls-17{fill:#f8c06d;}.cls-18{fill:#4395a3;}.cls-19{fill:#1e1b35;}.cls-20{fill:#d68b66;}.cls-21{fill:#5bb7ba;}.cls-22{fill:#f89a44;}.cls-23{fill:#403868;}.cls-24{fill:#c97551;}</style><clipPath id="clip-path" transform="translate(24.99)"><rect id="SVGID" class="cls-1" width="180.79" height="124.82"/></clipPath></defs><g id="Layer_2" data-name="Layer 2"><g id="Layer_1-2" data-name="Layer 1"><rect class="cls-2" x="24.99" width="180.79" height="124.82"/><path class="cls-3" d="M86.87,21.73a8.76,8.76,0,0,0-7.41-2.68,3.65,3.65,0,0,0-1.13-3.9c-2.26-2-6.82-2.06-8.92.14-.79-2.79-4.35-4.93-8.06-4.94s-7.24,2-8.39,4.75c.5-1.18-2.9-3.87-3.9-4.54a11.93,11.93,0,0,0-6.55-2.15c-5,.06-9.58,3.44-10.13,7.19a15.65,15.65,0,0,0-5.2-2.22,10,10,0,0,0-5.82.45,5.32,5.32,0,0,0-3.27,6.1,11.08,11.08,0,0,0-8.48,1.39c-.25.17-.5.38-.48.63s.47.53.87.64c3.64,1,8.55.55,12.37.55H71.5c2.23,0,4.46.21,6.69.24,2.41,0,5.9.36,8.16-.24a1.29,1.29,0,0,0,.75-.39C87.33,22.44,87.13,22.05,86.87,21.73Z" transform="translate(24.99)"/><path class="cls-3" d="M180.79,26.67V37.23H123.54c-4.48,0-10.24.51-14.51-.65-.47-.13-1-.36-1-.75s.28-.54.57-.73a12.87,12.87,0,0,1,10-1.64,6.24,6.24,0,0,1,3.83-7.16,11.72,11.72,0,0,1,6.83-.52,18.09,18.09,0,0,1,6.11,2.6c.65-4.4,6.06-8.37,11.88-8.44a13.92,13.92,0,0,1,7.69,2.52c1.18.78,5.17,3.94,4.58,5.33,1.35-3.19,5.49-5.59,9.84-5.58s8.53,2.52,9.47,5.8A5.84,5.84,0,0,1,180.79,26.67Z" transform="translate(24.99)"/><path class="cls-3" d="M46.58,58.57a.71.71,0,0,0,.08-.15.83.83,0,0,0-.26-.77,7,7,0,0,0-4.33-2,4.08,4.08,0,0,0-2.74.19c.38-.22-.92-2.41-1.1-2.64a3.55,3.55,0,0,0-2.1-1.38,5.36,5.36,0,0,0-3.86.28c-.35.16-2.49,1.26-2.06,1.94a10.85,10.85,0,0,0-3.64-3.82,5.26,5.26,0,0,0-6.43,1,10.7,10.7,0,0,0-1.26,2.27,3.8,3.8,0,0,0-6.6,2.58,6.37,6.37,0,0,0-5.2-.19C6.33,56.19,4,57.15,5,58.2c.63.67,2.34.37,3.2.37h38S46.55,58.61,46.58,58.57Z" transform="translate(24.99)"/><path class="cls-3" d="M173.8,62.22A5.59,5.59,0,0,0,169,60.45a2.42,2.42,0,0,0-.74-2.57,4.46,4.46,0,0,0-5.76.09c-.51-1.85-2.82-3.26-5.21-3.27a5.9,5.9,0,0,0-5.43,3.14c.33-.78-1.87-2.56-2.52-3a7.63,7.63,0,0,0-4.23-1.42c-3.21,0-6.19,2.28-6.55,4.75a9.92,9.92,0,0,0-3.37-1.46,6.32,6.32,0,0,0-3.76.29,3.53,3.53,0,0,0-2.11,4,7,7,0,0,0-5.48.92c-.16.11-.33.25-.31.42s.3.35.56.42c2.35.65,5.53.36,8,.36h31.77c1.44,0,2.88.14,4.32.16a22.07,22.07,0,0,0,5.28-.16.86.86,0,0,0,.49-.26C174.1,62.69,174,62.43,173.8,62.22Z" transform="translate(24.99)"/><g class="cls-4"><path class="cls-5" d="M203.74,116.72c-1.21,0-2.43,0-3.64,0H104.81a4.93,4.93,0,0,1,.83-2c.2-.32.41-.64.63-1a12.08,12.08,0,0,1,3.66-3.52c1-.62,2.23-1,3.32-1.61l.34-.2a19.69,19.69,0,0,0,4.85-4.08l.23-.25a15.59,15.59,0,0,1,1.69-1.66,15.24,15.24,0,0,1,2-1.28l.74-.45a37.42,37.42,0,0,0,5-3.54c1.57-1.32,4-1.53,5.8-2.65.94-.6,1.85-1.49,3-1.46l.25,0c.74.12,1.35.67,2.1.66a2.39,2.39,0,0,0,1.48-.67,32.55,32.55,0,0,0,2.71-2.67,9.55,9.55,0,0,1,1.4-1.37,5,5,0,0,1,1-.46,2.21,2.21,0,0,0,.63-.41c.36-.37.65-.85,1-1.24,1-1,1.78-2.16,2.76-3.18a22.08,22.08,0,0,1,3.66-2.87,2.07,2.07,0,0,1,.57-.3,3,3,0,0,1,1.19.05,4.05,4.05,0,0,0,1.1,0,6.15,6.15,0,0,0,3.48-1.71c1.13-1.11,2.17-2.26,3.37-3.31a2.14,2.14,0,0,1,.67-.43l.1,0a5.77,5.77,0,0,1,1,0h.15l.49,0a4.08,4.08,0,0,0,.86-.26,4,4,0,0,1,.64-.27,1,1,0,0,1,.24,0c.57,0,.95.51,1.36.77a6,6,0,0,1,1.4,1.24c.46.55.34,1.23,1.3,1.42.31.06.65,0,1,0a2.57,2.57,0,0,1,1.52,1,18.48,18.48,0,0,1,2,2.71,9.23,9.23,0,0,0,1,1.52,22.49,22.49,0,0,0,2,1.61,13,13,0,0,1,2.28,2.88,14.85,14.85,0,0,0,1.12,1.52,3.22,3.22,0,0,0,.68.7,10.12,10.12,0,0,0,1,.27,3.25,3.25,0,0,1,1.43,1.48c.78,1.29,1.5,2.61,2.28,3.91a7,7,0,0,0,2.42,2.82c.69.38,1.52.56,2.19,1a5.42,5.42,0,0,1,1.56,1.53,24.23,24.23,0,0,1,1.68,2.62,6.92,6.92,0,0,0,1.29,1.94c.32.31.7.56,1,.85a8.3,8.3,0,0,1,1.85,2.79l2,4.19c.33.67.66,1.34,1,2C203.21,115.75,203.7,116.21,203.74,116.72Z" transform="translate(24.99)"/><path class="cls-6" d="M168.29,78.69l-.48,1.54a4.32,4.32,0,0,1-.37.92,4.73,4.73,0,0,1-.32.46,13.9,13.9,0,0,0-.81,1.76,8.71,8.71,0,0,1-1.19,1.56c-1,1.09-2.15,2-2.65,3.37a7.12,7.12,0,0,1-1.1,2.33l.09-1.74-1.32.86a2.33,2.33,0,0,0-.61.51,2.12,2.12,0,0,0-.28.66,5.5,5.5,0,0,1-1,1.8,5.42,5.42,0,0,0-.65.8,3.61,3.61,0,0,0-.39,1.1c-.14.63-.27,1.27-.43,1.9a11.32,11.32,0,0,1-.7,1.33c-.41,1-.18,2.11-.73,3a1.68,1.68,0,0,1-.12-1.11c.09-.87.23-1.73.39-2.59-.05.26-1.08,1.11-1.36,1.34a15.32,15.32,0,0,1-1.68.81c-.77.48-1.08,1.35-1.83,1.86a12.62,12.62,0,0,1-1.22.61c-1.13.61-1.81,1.73-3,2.29,0-1,.78-1.93,1-2.93.2-.79.08-1.62.25-2.41.24-1.13.8-2,.28-3.16-.19-.4-.46-.78-.66-1.17a8.43,8.43,0,0,1-.59-1.66l-1.14-4.19a2.21,2.21,0,0,0,.63-.41c.36-.37.65-.85,1-1.24,1-1,1.78-2.16,2.76-3.18a22.08,22.08,0,0,1,3.66-2.87,2.07,2.07,0,0,1,.57-.3,3,3,0,0,1,1.19.05,4.05,4.05,0,0,0,1.1,0,6.15,6.15,0,0,0,3.48-1.71c1.13-1.11,2.17-2.26,3.37-3.31a2.14,2.14,0,0,1,.67-.43l.1,0a10.3,10.3,0,0,1-.18,1.26,1.66,1.66,0,0,0,.92,1.79,1.6,1.6,0,0,1,.58.25.69.69,0,0,1,.12.64c-.13.86-.27,1.71-.4,2.57-.09.59-.37,1.14-.12,1.73,0-.46.58-.75.88-1.14.43-.55.28-1.31.64-1.89a3.76,3.76,0,0,1,1-.92A2.17,2.17,0,0,0,168.29,78.69Z" transform="translate(24.99)"/><path class="cls-7" d="M131.24,98.33c-.4-.06-1.6,2.54-1.81,2.77-1,1.08-3.11,1.27-4.1,2.34-.59.64-.66,1.47-1.09,2.17a5.14,5.14,0,0,1-3.35,1.94,21.7,21.7,0,0,1-2.55.18c-1.58.11-3.16.76-4.75.69a19.69,19.69,0,0,0,4.85-4.08l.23-.25a15.59,15.59,0,0,1,1.69-1.66,15.24,15.24,0,0,1,2-1.28l.74-.45c1.59-.52,3.42-.61,5-1.3C129.05,98.93,130.15,98.16,131.24,98.33Z" transform="translate(24.99)"/><path class="cls-6" d="M172.1,90.9a3.85,3.85,0,0,1-.14,1.51,2.34,2.34,0,0,0-.12,1.66c.11.22.3.4.43.62a2.29,2.29,0,0,1,.24,1.06,11.14,11.14,0,0,1-.18,3.55,21.87,21.87,0,0,1-1.63,3.1,9.85,9.85,0,0,0-.5,2,8.51,8.51,0,0,1-1.36,3q.51-2.61,1-5.2c-.71.6-1.71,1-2.25,1.67a4.65,4.65,0,0,0-.46.92,8.62,8.62,0,0,1-1.42,2.25,9.51,9.51,0,0,1-1.94,1.37c.46-1.11.93-2.21,1.39-3.31a5,5,0,0,1,.74-1.36c.61-.72,1.62-1.17,2.11-2a11.13,11.13,0,0,0,.61-1.67,11.73,11.73,0,0,1,1.63-2.34,2.51,2.51,0,0,0,.44-.88c.1-.44-.21-2.24-.89-2.16-.86.11-1.38,1.86-1.67,2.41a9.13,9.13,0,0,1-2.55,3c.22-1.59,2-2.72,2.47-4.27a4.64,4.64,0,0,1,.32-1,4.18,4.18,0,0,1,1.11-1,4.4,4.4,0,0,0,1.35-3.38,12,12,0,0,0-1-3.32,5.45,5.45,0,0,1-.24-3.09c.18,1,1.17,1.83,1.37,2.85.1.53,0,1.08.11,1.6a8.34,8.34,0,0,0,.74,1.38A3,3,0,0,1,172.1,90.9Z" transform="translate(24.99)"/><path class="cls-8" d="M184.34,100.11c-.8.63-.64,1.72-.75,2.65a4.42,4.42,0,0,1-1.73,2.94,2.21,2.21,0,0,0-.66.63,2,2,0,0,0-.17.64,8.81,8.81,0,0,1-.84,1.89,8.34,8.34,0,0,0-.54,1.52,4.68,4.68,0,0,1-.23.56c0,.12,0,.48-.08.55a9.85,9.85,0,0,0,1.14-2,3.94,3.94,0,0,1,1.53-1.76,4.77,4.77,0,0,0,.63-.34c.53-.4.52-1.07,1-1.53s1.08-.92,1.55-1.43a1.15,1.15,0,0,0,.26-.4,1.28,1.28,0,0,0-.07-.79,5.12,5.12,0,0,1-.28-2.08,2.53,2.53,0,0,1,1.1-1.82,7.24,7.24,0,0,0,1-.64.61.61,0,0,0,0-1,18.14,18.14,0,0,0-1.54,1.35A11.07,11.07,0,0,1,184.34,100.11Z" transform="translate(24.99)"/><path class="cls-8" d="M192.27,105.26c-.62.42-1.59.16-2.24.54a2,2,0,0,0-.62.66c-.32.46-.64.92-1,1.38a3,3,0,0,1-.89.92c-.27.16-.59.25-.86.41-.69.41-1,1.17-1.51,1.7l1.07.17a.82.82,0,0,0,.27,0,.49.49,0,0,0,.27-.38,1.72,1.72,0,0,1,1.22-1.4c.34-.06.76,0,1-.21a.72.72,0,0,0,.19-.38c.09-.3.17-.59.25-.89a2.68,2.68,0,0,1,.35-.84,1.19,1.19,0,0,1,.81-.53c.39,0,.84.12,1.17-.08s.3-.41.44-.62c.3-.44.62-.39,1.08-.37a3.29,3.29,0,0,1-.42,1c.6-.31.78-1,1.36-1.37a1.79,1.79,0,0,0,.46-.4c.09-.1.27-.45.38-.5a3.35,3.35,0,0,1-.69.25c-.43.09-.91-.07-1.3.11S192.59,105,192.27,105.26Z" transform="translate(24.99)"/><path class="cls-8" d="M198.16,110.44c0,.06,0,.14,0,.15a.08.08,0,0,1-.08,0,6,6,0,0,0-.64-.49,2.37,2.37,0,0,0-.4-.15,2,2,0,0,1-1.33-1.77c.42.11.77.56,1.12.78A2.83,2.83,0,0,1,198.16,110.44Z" transform="translate(24.99)"/><path class="cls-6" d="M181.31,89.53a2,2,0,0,1,.73,1.85c-.19.54-.79.9-1.07,1.41s-.18,1.22-.49,1.77a4.77,4.77,0,0,1-.62.74,4.69,4.69,0,0,0-1,1.8c-.06.22,0,.45-.07.67s-.43.61-.4.75c-.13-.66-.27-1.32-.4-2a2.42,2.42,0,0,0-.28-.82c-.27-.4-.77-.66-1-1.07a1.75,1.75,0,0,1-.2-.9,10.13,10.13,0,0,1,.4-3.09,2.63,2.63,0,0,0,.15-1.8,6.07,6.07,0,0,0-.63-.9,4.6,4.6,0,0,1-.46-2.48A10.76,10.76,0,0,0,175,81.4,9.25,9.25,0,0,1,176.52,83a17.58,17.58,0,0,1,1.3,2.65,5.48,5.48,0,0,0,1.73,2A21.29,21.29,0,0,1,181.31,89.53Z" transform="translate(24.99)"/><path class="cls-6" d="M175.54,105.87a1.6,1.6,0,0,1-.14.42,2.63,2.63,0,0,1-.29.37c-.44.57-.25,1.33-.43,2a8.88,8.88,0,0,0,.71-1.27,3.83,3.83,0,0,1,.3-.65,2.9,2.9,0,0,1,.52-.53,4.8,4.8,0,0,0,1.07-1.28,3.62,3.62,0,0,0,.33-1.33,6.9,6.9,0,0,1-.73,1.19,2.77,2.77,0,0,1-.52.38c-.18.12-.43.17-.6.31A.67.67,0,0,0,175.54,105.87Z" transform="translate(24.99)"/><path class="cls-7" d="M138.55,101.56a10.33,10.33,0,0,1-1.68,1.28,7.47,7.47,0,0,0-2.41,4,6.83,6.83,0,0,1,3.85-2.84,2,2,0,0,0,1.07-.54,1.45,1.45,0,0,0,.19-.61,9.91,9.91,0,0,1,.8-2.25l1.71-3.79c-.35.77-1.58,1.39-2.11,2.13S139.21,100.79,138.55,101.56Z" transform="translate(24.99)"/><path class="cls-6" d="M166.6,75.41a4.55,4.55,0,0,1-.66.34,2.39,2.39,0,0,0-.85.35.91.91,0,0,1,.31-.56l.14-.14a2.11,2.11,0,0,0,.32-.35h0a4.08,4.08,0,0,0,.86-.26,4,4,0,0,1,.64-.27.14.14,0,0,1,0,.06C167.52,75,166.92,75.21,166.6,75.41Z" transform="translate(24.99)"/><path class="cls-5" d="M74,113.71c-1.22,0-2.43,0-3.65,0H-25a4.93,4.93,0,0,1,.83-2c.2-.32.41-.64.63-1a12,12,0,0,1,3.67-3.52c1-.62,2.22-1,3.31-1.61l.34-.2a19.3,19.3,0,0,0,4.85-4.08l.24-.25a15.5,15.5,0,0,1,1.68-1.66,17.24,17.24,0,0,1,1.95-1.28l.74-.45a39.1,39.1,0,0,0,5-3.53c1.56-1.33,4-1.53,5.8-2.66C5,90.89,5.87,90,7,90l.25,0c.74.12,1.35.67,2.1.67a2.51,2.51,0,0,0,1.49-.68,32.42,32.42,0,0,0,2.7-2.67A9.55,9.55,0,0,1,14.92,86a6,6,0,0,1,1-.46,2.21,2.21,0,0,0,.63-.41c.36-.36.65-.85,1-1.24.95-1,1.78-2.16,2.75-3.18a21.76,21.76,0,0,1,3.67-2.87,1.89,1.89,0,0,1,.56-.3,3,3,0,0,1,1.19,0,4.58,4.58,0,0,0,1.11,0,6.23,6.23,0,0,0,3.48-1.72c1.13-1.11,2.16-2.26,3.37-3.31a2,2,0,0,1,.66-.43.35.35,0,0,1,.11,0,4.23,4.23,0,0,1,1,0h.15a4.07,4.07,0,0,0,.49,0,3.57,3.57,0,0,0,.86-.26,3.71,3.71,0,0,1,.65-.27,1.6,1.6,0,0,1,.23,0c.57,0,.95.51,1.36.77a6,6,0,0,1,1.41,1.24c.45.55.33,1.24,1.29,1.42.32.06.65,0,1,0a2.58,2.58,0,0,1,1.51,1,18.84,18.84,0,0,1,2,2.72,8.47,8.47,0,0,0,1,1.52,24.67,24.67,0,0,0,2,1.61,13,13,0,0,1,2.28,2.87,14.85,14.85,0,0,0,1.12,1.52,3.22,3.22,0,0,0,.68.7,8.48,8.48,0,0,0,1,.27,3.2,3.2,0,0,1,1.43,1.48c.78,1.3,1.5,2.61,2.28,3.91a7.07,7.07,0,0,0,2.43,2.82c.68.38,1.51.56,2.18,1a5.55,5.55,0,0,1,1.56,1.53,21.63,21.63,0,0,1,1.68,2.63,7.72,7.72,0,0,0,1.29,1.94c.32.3.7.55,1,.84A8.15,8.15,0,0,1,70.23,106l2,4.19c.33.67.66,1.34,1,2C73.42,112.73,73.9,113.19,74,113.71Z" transform="translate(24.99)"/><path class="cls-6" d="M38.5,75.67,38,77.21a3.48,3.48,0,0,1-.37.92c-.09.16-.21.31-.31.46a14,14,0,0,0-.82,1.76,8.37,8.37,0,0,1-1.19,1.56c-1,1.09-2.15,2.06-2.64,3.37a7.35,7.35,0,0,1-1.11,2.33c0-.58.06-1.16.1-1.74l-1.32.86a2.38,2.38,0,0,0-.62.51,2.32,2.32,0,0,0-.28.67,5.56,5.56,0,0,1-1,1.79,6.9,6.9,0,0,0-.65.8,3.35,3.35,0,0,0-.38,1.1c-.15.63-.28,1.27-.44,1.9a8.84,8.84,0,0,1-.69,1.33c-.42,1-.19,2.11-.74,3a1.68,1.68,0,0,1-.12-1.11c.1-.86.23-1.73.39-2.59-.05.26-1.08,1.11-1.36,1.34a14.49,14.49,0,0,1-1.68.81c-.77.48-1.08,1.36-1.83,1.86a11.45,11.45,0,0,1-1.21.62c-1.14.6-1.82,1.72-3,2.28,0-1,.78-1.93,1-2.93.19-.79.07-1.62.24-2.41.24-1.13.8-2,.28-3.16-.19-.4-.46-.77-.66-1.17A8.39,8.39,0,0,1,17,89.74c-.38-1.4-.77-2.8-1.15-4.19a2.21,2.21,0,0,0,.63-.41c.36-.36.65-.85,1-1.24.95-1,1.78-2.16,2.75-3.18a21.76,21.76,0,0,1,3.67-2.87,1.89,1.89,0,0,1,.56-.3,3,3,0,0,1,1.19,0,4.58,4.58,0,0,0,1.11,0,6.23,6.23,0,0,0,3.48-1.72c1.13-1.11,2.16-2.26,3.37-3.31a2,2,0,0,1,.66-.43.35.35,0,0,1,.11,0c0,.43-.15.9-.18,1.25a1.65,1.65,0,0,0,.91,1.79,1.7,1.7,0,0,1,.58.25.71.71,0,0,1,.12.65c-.13.85-.26,1.71-.4,2.56-.09.6-.37,1.14-.12,1.73,0-.46.58-.75.88-1.14.43-.55.28-1.3.64-1.89a3.73,3.73,0,0,1,1-.91A2.45,2.45,0,0,0,38.5,75.67Z" transform="translate(24.99)"/><path class="cls-8" d="M1.44,95.31c-.39-.06-1.6,2.54-1.81,2.78-1,1.07-3.11,1.26-4.1,2.34-.58.63-.65,1.46-1.09,2.16a5.12,5.12,0,0,1-3.35,1.94,21.7,21.7,0,0,1-2.55.18c-1.57.12-3.16.76-4.75.69a19.3,19.3,0,0,0,4.85-4.08l.24-.25a15.5,15.5,0,0,1,1.68-1.66,17.24,17.24,0,0,1,1.95-1.28l.74-.45c1.6-.52,3.42-.61,5-1.3C-.75,95.91.35,95.14,1.44,95.31Z" transform="translate(24.99)"/><path class="cls-6" d="M42.3,87.88a4,4,0,0,1-.13,1.51A2.35,2.35,0,0,0,42,91.05c.11.22.31.4.43.62a2.29,2.29,0,0,1,.24,1.06,11.14,11.14,0,0,1-.17,3.55,22.44,22.44,0,0,1-1.64,3.1,10.75,10.75,0,0,0-.5,2,8.43,8.43,0,0,1-1.36,3c.34-1.73.69-3.46,1-5.2-.71.6-1.71,1-2.24,1.67a5,5,0,0,0-.47.92,8.62,8.62,0,0,1-1.42,2.25A9.72,9.72,0,0,1,34,105.43l1.38-3.31a4.9,4.9,0,0,1,.75-1.36c.6-.72,1.61-1.17,2.1-2a9.81,9.81,0,0,0,.61-1.67,12.47,12.47,0,0,1,1.63-2.34,2.38,2.38,0,0,0,.45-.88c.09-.44-.22-2.24-.9-2.16-.85.11-1.38,1.86-1.67,2.41a9.14,9.14,0,0,1-2.55,3c.22-1.59,2-2.72,2.47-4.28a4.34,4.34,0,0,1,.33-1,4,4,0,0,1,1.1-1,4.43,4.43,0,0,0,1.36-3.38,11.91,11.91,0,0,0-1-3.31,5.4,5.4,0,0,1-.23-3.1c.17,1,1.16,1.84,1.36,2.85.1.53,0,1.08.12,1.61A7.7,7.7,0,0,0,42,86.86,3.06,3.06,0,0,1,42.3,87.88Z" transform="translate(24.99)"/><path class="cls-7" d="M54.55,97.09c-.81.63-.65,1.72-.75,2.65a4.4,4.4,0,0,1-1.74,2.94,2.34,2.34,0,0,0-.66.63,2,2,0,0,0-.17.64,8.59,8.59,0,0,1-.84,1.89,9.5,9.5,0,0,0-.54,1.52,3.46,3.46,0,0,1-.23.56c0,.12,0,.48-.08.55a9.4,9.4,0,0,0,1.14-2,3.94,3.94,0,0,1,1.53-1.76,4.77,4.77,0,0,0,.63-.34c.53-.4.52-1.07,1-1.53s1.07-.92,1.54-1.43a1.18,1.18,0,0,0,.27-.4,1.24,1.24,0,0,0-.08-.78,5,5,0,0,1-.27-2.09,2.47,2.47,0,0,1,1.1-1.82,6,6,0,0,0,1-.64.61.61,0,0,0,0-1,18.14,18.14,0,0,0-1.54,1.35A10.73,10.73,0,0,1,54.55,97.09Z" transform="translate(24.99)"/><path class="cls-7" d="M62.47,102.24c-.61.42-1.59.16-2.24.54a2.16,2.16,0,0,0-.62.66l-1,1.38a3.15,3.15,0,0,1-.9.92c-.27.16-.59.25-.86.41-.69.41-1,1.17-1.51,1.7l1.07.17a.66.66,0,0,0,.28,0c.16,0,.22-.23.26-.38a1.72,1.72,0,0,1,1.22-1.4c.34-.06.76,0,1-.21a.7.7,0,0,0,.2-.38l.24-.88a2.88,2.88,0,0,1,.35-.85,1.17,1.17,0,0,1,.81-.52c.39-.06.85.11,1.17-.09s.3-.41.44-.62c.3-.44.62-.39,1.08-.36a3.24,3.24,0,0,1-.42,1c.61-.3.78-1,1.36-1.37a1.79,1.79,0,0,0,.46-.39c.09-.11.27-.46.39-.51a3.43,3.43,0,0,1-.7.25c-.43.1-.91-.07-1.29.11S62.79,102,62.47,102.24Z" transform="translate(24.99)"/><path class="cls-7" d="M68.36,107.42c0,.06,0,.14,0,.15a.08.08,0,0,1-.08,0,6,6,0,0,0-.64-.49c-.12-.06-.26-.1-.39-.15a2,2,0,0,1-1.34-1.77c.42.11.77.56,1.12.78A2.79,2.79,0,0,1,68.36,107.42Z" transform="translate(24.99)"/><path class="cls-6" d="M51.51,86.51a1.92,1.92,0,0,1,.73,1.85c-.19.54-.79.9-1.06,1.41S51,91,50.68,91.54a4.29,4.29,0,0,1-.61.74,4.71,4.71,0,0,0-1,1.8c-.05.23,0,.45-.06.67s-.44.61-.41.76l-.4-2a2.05,2.05,0,0,0-.28-.82c-.26-.4-.77-.65-1-1.07a1.86,1.86,0,0,1-.2-.9,10.17,10.17,0,0,1,.4-3.09,2.57,2.57,0,0,0,.15-1.8,6.65,6.65,0,0,0-.63-.9,4.6,4.6,0,0,1-.46-2.48,10.75,10.75,0,0,0-.94-4.07A9.64,9.64,0,0,1,46.73,80,17.53,17.53,0,0,1,48,82.61a5.59,5.59,0,0,0,1.73,2A19.89,19.89,0,0,1,51.51,86.51Z" transform="translate(24.99)"/><path class="cls-7" d="M45.74,102.85a1.36,1.36,0,0,1-.14.43,2.41,2.41,0,0,1-.29.36c-.44.57-.25,1.33-.43,2a8.88,8.88,0,0,0,.71-1.27,4.8,4.8,0,0,1,.3-.65,2.9,2.9,0,0,1,.52-.53,5.17,5.17,0,0,0,1.08-1.27,3.92,3.92,0,0,0,.32-1.34,5.85,5.85,0,0,1-.73,1.19,3.07,3.07,0,0,1-.51.38,5.65,5.65,0,0,0-.6.31A.68.68,0,0,0,45.74,102.85Z" transform="translate(24.99)"/><path class="cls-7" d="M8.76,98.54a10.41,10.41,0,0,1-1.69,1.28,7.45,7.45,0,0,0-2.4,4.05A6.79,6.79,0,0,1,8.51,101a2,2,0,0,0,1.07-.54,1.45,1.45,0,0,0,.19-.6,9.85,9.85,0,0,1,.81-2.26c.57-1.26,1.13-2.53,1.7-3.79-.35.78-1.58,1.4-2.11,2.13S9.41,97.77,8.76,98.54Z" transform="translate(24.99)"/><path class="cls-6" d="M36.8,72.39a3.74,3.74,0,0,1-.66.34,2.6,2.6,0,0,0-.85.36.93.93,0,0,1,.31-.57l.14-.13a2.12,2.12,0,0,0,.32-.36h0a3.57,3.57,0,0,0,.86-.26,3.71,3.71,0,0,1,.65-.27.14.14,0,0,0,0,.06C37.72,72,37.12,72.2,36.8,72.39Z" transform="translate(24.99)"/><path class="cls-5" d="M177.44,118.28c-2,0-4.05,0-6.08,0h-159a8.23,8.23,0,0,1,1.39-3.37c.33-.53.68-1.06,1-1.58a20.24,20.24,0,0,1,6.12-5.88c1.75-1,3.72-1.75,5.54-2.69l.57-.32a32.74,32.74,0,0,0,8.09-6.82q.19-.19.39-.42a26.19,26.19,0,0,1,2.81-2.76,29,29,0,0,1,3.25-2.14c.42-.24.83-.49,1.23-.74a64.65,64.65,0,0,0,8.29-5.9c2.61-2.22,6.73-2.55,9.68-4.43,1.55-1,3.08-2.49,4.94-2.43l.42,0c1.24.21,2.25,1.13,3.5,1.11a4.13,4.13,0,0,0,2.48-1.13,54.05,54.05,0,0,0,4.51-4.44A16.43,16.43,0,0,1,79,72.07a11.77,11.77,0,0,1,1.6-.77,3.3,3.3,0,0,0,1.05-.67c.6-.61,1.08-1.43,1.68-2.08,1.58-1.73,3-3.6,4.59-5.3A36.69,36.69,0,0,1,94,58.46,3.27,3.27,0,0,1,95,58a5.32,5.32,0,0,1,2,.09,7.63,7.63,0,0,0,1.85,0,10.36,10.36,0,0,0,5.81-2.87c1.88-1.84,3.61-3.76,5.62-5.51a3.31,3.31,0,0,1,1.1-.73l.18-.05a6.8,6.8,0,0,1,1.69-.07h.25a5.56,5.56,0,0,0,.82-.09,6.31,6.31,0,0,0,1.44-.43,6.18,6.18,0,0,1,1.07-.44,1.75,1.75,0,0,1,.4,0c1,0,1.58.85,2.26,1.28a9.73,9.73,0,0,1,2.35,2.06c.76.92.55,2.07,2.15,2.37.54.1,1.1,0,1.63.08a4.26,4.26,0,0,1,2.53,1.65,31.46,31.46,0,0,1,3.33,4.54,14.85,14.85,0,0,0,1.72,2.53A35.51,35.51,0,0,0,136.48,65a21.71,21.71,0,0,1,3.8,4.8,26.49,26.49,0,0,0,1.86,2.53,5.27,5.27,0,0,0,1.14,1.17A17.07,17.07,0,0,0,145,74a5.27,5.27,0,0,1,2.37,2.46c1.3,2.16,2.52,4.36,3.82,6.52,1,1.72,2.07,3.62,4,4.71,1.15.63,2.52.93,3.65,1.6a9,9,0,0,1,2.59,2.56,36.31,36.31,0,0,1,2.8,4.37,12.39,12.39,0,0,0,2.16,3.24c.53.51,1.17.93,1.73,1.42a13.66,13.66,0,0,1,3.1,4.64l3.35,7c.54,1.12,1.1,2.25,1.6,3.38C176.56,116.65,177.36,117.42,177.44,118.28Z" transform="translate(24.99)"/><path class="cls-6" d="M118.3,54.82l-.81,2.58a7,7,0,0,1-.62,1.54c-.15.26-.35.51-.52.76A23.42,23.42,0,0,0,115,62.63a14.54,14.54,0,0,1-2,2.61c-1.59,1.81-3.58,3.42-4.41,5.62a12.3,12.3,0,0,1-1.84,3.89l.15-2.9-2.2,1.43a3.7,3.7,0,0,0-1,.85,3.77,3.77,0,0,0-.48,1.11,9,9,0,0,1-1.71,3,11.22,11.22,0,0,0-1.09,1.32,6.39,6.39,0,0,0-.64,1.84c-.24,1-.46,2.12-.73,3.17a16.25,16.25,0,0,1-1.15,2.23c-.69,1.62-.31,3.51-1.23,5a2.86,2.86,0,0,1-.2-1.85c.16-1.45.38-2.89.65-4.33-.08.43-1.8,1.86-2.26,2.23-.78.64-1.94.82-2.81,1.36-1.28.8-1.81,2.26-3,3.11a21.37,21.37,0,0,1-2,1c-1.9,1-3,2.88-5,3.82,0-1.71,1.29-3.22,1.7-4.9.33-1.31.12-2.69.41-4,.4-1.89,1.34-3.36.46-5.26-.31-.68-.76-1.3-1.1-2a14.11,14.11,0,0,1-1-2.78c-.64-2.33-1.27-4.66-1.91-7a3.3,3.3,0,0,0,1.05-.67c.6-.61,1.08-1.43,1.68-2.08,1.58-1.73,3-3.6,4.59-5.3A36.69,36.69,0,0,1,94,58.46,3.27,3.27,0,0,1,95,58a5.32,5.32,0,0,1,2,.09,7.63,7.63,0,0,0,1.85,0,10.36,10.36,0,0,0,5.81-2.87c1.88-1.84,3.61-3.76,5.61-5.51a3.45,3.45,0,0,1,1.11-.73l.18-.05c0,.72-.25,1.5-.3,2.09a2.76,2.76,0,0,0,1.53,3,2.73,2.73,0,0,1,1,.41,1.18,1.18,0,0,1,.19,1.08l-.66,4.28c-.15,1-.62,1.9-.2,2.89,0-.78,1-1.26,1.47-1.9.71-.92.47-2.19,1.06-3.17a6.65,6.65,0,0,1,1.64-1.52A3.81,3.81,0,0,0,118.3,54.82Z" transform="translate(24.99)"/><path class="cls-8" d="M56.48,87.6c-.66-.11-2.67,4.23-3,4.62-1.64,1.79-5.19,2.12-6.84,3.91-1,1.06-1.1,2.44-1.82,3.61-1,1.66-3.25,2.77-5.59,3.23a35.71,35.71,0,0,1-4.25.3c-2.63.2-5.28,1.28-7.92,1.16a32.74,32.74,0,0,0,8.09-6.82q.19-.19.39-.42a26.19,26.19,0,0,1,2.81-2.76,29,29,0,0,1,3.25-2.14c.42-.24.83-.49,1.23-.74,2.67-.87,5.71-1,8.27-2.17C52.83,88.59,54.66,87.31,56.48,87.6Z" transform="translate(24.99)"/><path class="cls-6" d="M124.65,75.2a6.93,6.93,0,0,1-.23,2.52c-.25.92-.65,1.9-.21,2.76.18.37.51.68.72,1a3.86,3.86,0,0,1,.4,1.77,18.47,18.47,0,0,1-.29,5.93c-.51,1.9-1.93,3.37-2.73,5.17a16.66,16.66,0,0,0-.83,3.34,14.26,14.26,0,0,1-2.27,5l1.71-8.66c-1.18,1-2.85,1.58-3.74,2.78a8,8,0,0,0-.78,1.54A14.3,14.3,0,0,1,114,102.2a16.52,16.52,0,0,1-3.23,2.27L113.12,99a8.52,8.52,0,0,1,1.24-2.27c1-1.2,2.7-1.94,3.52-3.25a17.21,17.21,0,0,0,1-2.79,20.14,20.14,0,0,1,2.72-3.9,4.12,4.12,0,0,0,.74-1.46c.17-.75-.35-3.75-1.49-3.6-1.43.18-2.3,3.09-2.79,4a15.29,15.29,0,0,1-4.25,5c.37-2.65,3.34-4.54,4.12-7.12a7.48,7.48,0,0,1,.54-1.74,7,7,0,0,1,1.84-1.71c1.66-1.31,2.28-3.77,2.27-5.63s-1.17-3.77-1.74-5.54a9,9,0,0,1-.4-5.15c.29,1.7,2,3.05,2.27,4.75.17.89,0,1.8.2,2.67a13.89,13.89,0,0,0,1.23,2.31A5,5,0,0,1,124.65,75.2Z" transform="translate(24.99)"/><path class="cls-6" d="M145.08,90.56c-1.35,1.06-1.08,2.88-1.26,4.43a7.32,7.32,0,0,1-2.89,4.9,4,4,0,0,0-1.11,1,3.54,3.54,0,0,0-.28,1.06,14.27,14.27,0,0,1-1.39,3.16,14.52,14.52,0,0,0-.91,2.54,6.83,6.83,0,0,1-.38.92c-.09.21,0,.81-.14.92a15.46,15.46,0,0,0,1.91-3.32,6.42,6.42,0,0,1,2.55-2.92,8.78,8.78,0,0,0,1-.57c.88-.67.86-1.78,1.59-2.56s1.79-1.53,2.58-2.38a2,2,0,0,0,.44-.67,2.13,2.13,0,0,0-.12-1.31,8.48,8.48,0,0,1-.46-3.48,4.22,4.22,0,0,1,1.84-3,11,11,0,0,0,1.72-1.06,1,1,0,0,0,0-1.61,29.44,29.44,0,0,0-2.57,2.26A19.07,19.07,0,0,1,145.08,90.56Z" transform="translate(24.99)"/><path class="cls-6" d="M158.29,99.16c-1,.69-2.65.26-3.73.89a3.55,3.55,0,0,0-1,1.11c-.53.77-1.07,1.54-1.62,2.3a5.17,5.17,0,0,1-1.49,1.53c-.46.27-1,.42-1.44.69-1.15.67-1.58,1.94-2.52,2.83l1.78.28a.9.9,0,0,0,.46,0c.28-.08.38-.37.45-.62a2.88,2.88,0,0,1,2-2.34c.57-.1,1.27,0,1.68-.35a1.39,1.39,0,0,0,.32-.64c.13-.49.27-1,.41-1.47a4.8,4.8,0,0,1,.57-1.41,2,2,0,0,1,1.36-.88c.66-.09,1.41.19,2-.14.39-.23.49-.68.73-1,.5-.75,1-.65,1.79-.61a5,5,0,0,1-.7,1.71c1-.51,1.31-1.71,2.27-2.29a2.77,2.77,0,0,0,.77-.66c.15-.17.45-.75.65-.84a6.69,6.69,0,0,1-1.16.42c-.72.15-1.53-.12-2.16.18S158.83,98.79,158.29,99.16Z" transform="translate(24.99)"/><path class="cls-8" d="M168.13,107.8c0,.09,0,.23-.07.25a.19.19,0,0,1-.14,0,12.1,12.1,0,0,0-1.06-.83,6.61,6.61,0,0,0-.67-.24,3.4,3.4,0,0,1-2.23-3c.7.19,1.29.93,1.88,1.3A4.67,4.67,0,0,1,168.13,107.8Z" transform="translate(24.99)"/><path class="cls-6" d="M140,72.91c.85.87,1.6,2,1.22,3.08-.31.91-1.32,1.51-1.78,2.36s-.31,2-.83,3a7.26,7.26,0,0,1-1,1.22,7.78,7.78,0,0,0-1.74,3c-.1.38,0,.75-.11,1.12s-.72,1-.67,1.26c-.23-1.11-.45-2.22-.67-3.33a4,4,0,0,0-.47-1.37c-.44-.67-1.29-1.09-1.69-1.78a3,3,0,0,1-.33-1.5,16.69,16.69,0,0,1,.67-5.15,4.45,4.45,0,0,0,.25-3,10.84,10.84,0,0,0-1.06-1.51c-.81-1.23-.71-2.73-.76-4.14a17.91,17.91,0,0,0-1.58-6.78A15,15,0,0,1,132,62a28.51,28.51,0,0,1,2.15,4.41,9.29,9.29,0,0,0,2.89,3.33A34.07,34.07,0,0,1,140,72.91Z" transform="translate(24.99)"/><path class="cls-6" d="M130.39,100.17a3,3,0,0,1-.23.71,7,7,0,0,1-.49.62c-.74,1-.42,2.21-.72,3.32a14.32,14.32,0,0,0,1.19-2.12,6.58,6.58,0,0,1,.5-1.08,5.55,5.55,0,0,1,.86-.89,8,8,0,0,0,1.8-2.12,6.13,6.13,0,0,0,.54-2.22,10.2,10.2,0,0,1-1.23,2,5,5,0,0,1-.85.64,10.42,10.42,0,0,0-1,.51A1.19,1.19,0,0,0,130.39,100.17Z" transform="translate(24.99)"/><path class="cls-6" d="M68.68,93a17.92,17.92,0,0,1-2.81,2.14c-2.23,1.71-3.28,4.26-4,6.74a11.34,11.34,0,0,1,6.41-4.74,3.25,3.25,0,0,0,1.79-.9,2.4,2.4,0,0,0,.32-1,16.48,16.48,0,0,1,1.34-3.77l2.85-6.32c-.59,1.3-2.64,2.33-3.53,3.56S69.77,91.7,68.68,93Z" transform="translate(24.99)"/><path class="cls-7" d="M115.47,49.35a7,7,0,0,1-1.09.57,4.18,4.18,0,0,0-1.43.59,1.62,1.62,0,0,1,.52-.94l.23-.23a3,3,0,0,0,.54-.59v0a6.31,6.31,0,0,0,1.44-.43,6.18,6.18,0,0,1,1.07-.44.36.36,0,0,1,0,.09C117,48.66,116,49,115.47,49.35Z" transform="translate(24.99)"/></g><path class="cls-9" d="M180.79,106.42v15.47a50.28,50.28,0,0,1-6.58-.79,6.49,6.49,0,0,1-3.46-1.42c-2.47-2.4-5.14-1.94-8.47-2.33-4.34-.5-8.64-1.25-12.95-1.87-15.1-2.16-30.55-2.85-45.52,0-1.63.32-3.25.67-4.9.85a6.27,6.27,0,0,1-2.16,0c-.58-.17-1-.63-1.67-.72-1.87-.25-3.54.08-5.41-.58-1.36-.49-2.89-1.46-2.06-3.15A4.61,4.61,0,0,1,90,110a29.51,29.51,0,0,1,8.52-2.5,36.45,36.45,0,0,0,4.2-.46,7.77,7.77,0,0,1,3-.57c2.41.17,4.83.25,7.24.27,10.48.11,20.92-.82,31.4-.85s20.72.87,31.14.42A26.69,26.69,0,0,1,180.79,106.42Z" transform="translate(24.99)"/><path class="cls-10" d="M167.72,116.75a.44.44,0,0,0-.21-.13h0a1.9,1.9,0,0,0-.57-.14,2.13,2.13,0,0,0-.91.1c-.23.09-.33.25-.31.4s.12.22.25.27h0a1.93,1.93,0,0,0,1.36,0c.15-.06.37-.14.42-.31A.2.2,0,0,0,167.72,116.75Z" transform="translate(24.99)"/><path class="cls-11" d="M180.79,119v5.82H0v-6.91c1.38-1,2.93-1.6,4.35-2.57s1.9-1.52,4-1.93c.63-.13,1.26-.24,1.89-.35a2.39,2.39,0,0,1,.1-.52,5.72,5.72,0,0,1,1.58-2.18q5.58-5.6,11.16-11.19c2.67-2.68,5.15-6.15,8.68-7.72H50.1c4.9,0,10,.27,15,.28,1.58,0,3.15,0,4.71-.09a63.91,63.91,0,0,0,7.88-.77,15.83,15.83,0,0,1,4.41-.08c.73.08,1.45.21,2.19.36,6.56,1.41,13.48,5.62,18.45,8.56,3.37,2,6.71,4.12,10.48,5.2,2.39.7,4.92,1,7.24,1.87a28.1,28.1,0,0,1,4.74,2.62l5.21,3.36a59.08,59.08,0,0,1,10.46-.55c6.64.34,13.22,2.5,19.87,2.34,1.06,0,7.31-.85,12.19-.45l1,.1a9,9,0,0,1,5.32,3A15,15,0,0,1,180.79,119Z" transform="translate(24.99)"/><path class="cls-10" d="M70.19,95.48a1.35,1.35,0,0,1,.55.48.37.37,0,0,1,0,.15c0,.16-.22.21-.38.22a25,25,0,0,1-3.46,0,13.87,13.87,0,0,1-1.83-.23c-.76-.18-.65-.34,0-.7A5.53,5.53,0,0,1,70.19,95.48Z" transform="translate(24.99)"/><path class="cls-10" d="M109.26,107.36l.55,0a3.36,3.36,0,0,1,.84,0,4.06,4.06,0,0,1,1.93.64.62.62,0,0,1,.24.58.55.55,0,0,1-.26.3,2.16,2.16,0,0,1-1.38.18c-1.45-.24-3-.35-4.41-.45a.52.52,0,0,1-.44-.17.36.36,0,0,1,0-.44,1,1,0,0,1,.42-.24A9.74,9.74,0,0,1,109.26,107.36Z" transform="translate(24.99)"/><path class="cls-10" d="M143,114.53a6.17,6.17,0,0,1,1.12.3,5.49,5.49,0,0,0,1.89.24,1.15,1.15,0,0,1,.49,0,.41.41,0,0,1,.29.35.52.52,0,0,1-.12.26,1.68,1.68,0,0,1-1.28.51,13.38,13.38,0,0,1-1.42-.14c-.63,0-2.55.42-2.9-.22C140.57,115,142.44,114.49,143,114.53Z" transform="translate(24.99)"/><path class="cls-10" d="M163.12,118.67a1.92,1.92,0,0,1,.47,0,6.21,6.21,0,0,1,1.84.73c.14.08.29.16.33.31a.41.41,0,0,1-.16.42,1.19,1.19,0,0,1-.44.17,3.32,3.32,0,0,1-1.79.09,1.88,1.88,0,0,0-.53-.14c-.52,0-2.25,0-1.64-1,.2-.34.52-.31.86-.4A4.52,4.52,0,0,1,163.12,118.67Z" transform="translate(24.99)"/><path class="cls-10" d="M97.09,100a.94.94,0,0,0-.62-.08h0a2.8,2.8,0,0,0-1.69.27c-.18.11-.29.3-.11.46a.75.75,0,0,0,.41.15,1.05,1.05,0,0,0,.38.12,2.46,2.46,0,0,0,1.68-.3.52.52,0,0,0,.18-.21C97.35,100.28,97.33,100.13,97.09,100Z" transform="translate(24.99)"/><path class="cls-10" d="M92,100.92a.31.31,0,0,0-.13-.08,2.44,2.44,0,0,0-.46-.07,2.09,2.09,0,0,0-.75.09c-.21.07-.54.27-.38.53a.32.32,0,0,0,.15.13c.16.15.51.12.68.1a1.46,1.46,0,0,0,1-.33A.22.22,0,0,0,92,100.92Z" transform="translate(24.99)"/><path class="cls-10" d="M113.07,105.79a.67.67,0,0,0-.35-.17,1.36,1.36,0,0,0-.29-.06,2,2,0,0,0-1,.11c-.16.07-.43.18-.49.35s.11.34.26.42a1.61,1.61,0,0,0,1.29.08,1.43,1.43,0,0,0,.47-.28.44.44,0,0,0,.24-.2A.23.23,0,0,0,113.07,105.79Zm-.95.08h0l.14,0h-.21Z" transform="translate(24.99)"/><path class="cls-10" d="M77.33,93.43c-.11-.41-.94-.41-1.27-.39s-1,.15-1.16.56.59.67.94.67a1.74,1.74,0,0,0,.81-.21l.17-.1C77.12,93.87,77.41,93.72,77.33,93.43Z" transform="translate(24.99)"/><path class="cls-10" d="M111.65,115.79l-.68-.1c-.22,0-.62,0-.74.22s.27.35.42.37l.68.1c.22,0,.62,0,.74-.21S111.8,115.81,111.65,115.79Z" transform="translate(24.99)"/><path class="cls-10" d="M77.69,104.53a3.58,3.58,0,0,0-2.68.29c-.21.12-.21.31,0,.43a1,1,0,0,0,.85,0l.06,0a.56.56,0,0,0,.16.07A1.87,1.87,0,0,0,77.9,105C78.1,104.77,77.88,104.58,77.69,104.53Z" transform="translate(24.99)"/><path class="cls-10" d="M51.52,109.09a4,4,0,0,1-1.32.51c-.51.06-1.19,0-1.37.49a.81.81,0,0,0,.46.89,3,3,0,0,0,1.39.29c3.36.17,6.69-.13,10-.1q5.34,0,10.67.47a3,3,0,0,0,1.16,0,1.08,1.08,0,0,0,.78-.79,1.06,1.06,0,0,0-.09-.58,3.17,3.17,0,0,0-3.07-1.65c-1.23,0-2.45.37-3.69.34a14.49,14.49,0,0,1-2.35-.35,10.68,10.68,0,0,0-4.76-.27,8.81,8.81,0,0,1-1.78.52,6.46,6.46,0,0,1-1.88-.33,6,6,0,0,0-3.88.44Z" transform="translate(24.99)"/><path class="cls-10" d="M81.75,113.22a2.28,2.28,0,0,0-.79.58.92.92,0,0,0-.16.91,1.24,1.24,0,0,0,1.19.52,25.55,25.55,0,0,0,3.35-.5,18.45,18.45,0,0,1,3.64,0c1.77.11,3.54.22,5.29.48,3.51.53,7,.88,10.46-.33.21-.07.45-.2.44-.42s-.25-.32-.45-.38a42.54,42.54,0,0,0-6.45-1.7,30.92,30.92,0,0,0-5.77-.27,17.15,17.15,0,0,1-2.86.11,6.75,6.75,0,0,0-1.9-.32A17.23,17.23,0,0,0,81.75,113.22Z" transform="translate(24.99)"/><path class="cls-10" d="M126.82,115.69a1.27,1.27,0,0,0-.92,0h-.17c-.18,0-.6.06-.6.3s.21.26.39.29l0,0,.2.14a1.53,1.53,0,0,0,.41.14c.31,0,.82,0,1-.29S127.06,115.78,126.82,115.69Z" transform="translate(24.99)"/><path class="cls-12" d="M92.84,124.82H0V103.66a.3.3,0,0,1,.11.06c0-.25-.08-.52-.11-.77V94.41c.63-1.62,2.4-2.94,4.08-1.91a4.34,4.34,0,0,1,1.59,2,34.9,34.9,0,0,1,.77-5.79A6.33,6.33,0,0,1,10,84.29c1.83-.69,4.27.24,4.72,2.13.94-3.81.59-10.16,6.15-10A8.13,8.13,0,0,1,27,80.18a24.26,24.26,0,0,1,2.86,6.91c0-1.91,2.43-3.06,4.26-2.51s3.08,2.21,4.05,3.85c.21.32.39.64.57,1a33.23,33.23,0,0,1,3.69,10.49,2.34,2.34,0,0,1,2.12-2.37,3.73,3.73,0,0,1,3.2,1.61,10.79,10.79,0,0,1,1.54,3.4q1.88,5.76,3.74,11.52c.44-1.5,2.48-2.28,3.87-2.66a6.88,6.88,0,0,1,5.16.48C64,112.93,65,115,65.85,117a3.36,3.36,0,0,0,.9,1.44,11.8,11.8,0,0,1,4.09-4.27,4.86,4.86,0,0,1,4.93,0,7.6,7.6,0,0,1,2.1,2.68c.8,1.44,1.61,2.87,2.41,4.3.44-2.3,3.41-3.33,5.63-2.56a13.17,13.17,0,0,1,5.34,4A19.67,19.67,0,0,1,92.84,124.82Z" transform="translate(24.99)"/><path class="cls-9" d="M72,124.82H0v-5.31a4.94,4.94,0,0,1,2-1.59,4.28,4.28,0,0,1,4.36.74,9,9,0,0,1-.26-4.58A4.74,4.74,0,0,1,9,110.68a3.25,3.25,0,0,1,3.94,1.53c0-3,1.45-7.14,4.35-8.56,1.4-.7,3.11-.08,4.43.75a14.64,14.64,0,0,1,6.48,9.34,4.2,4.2,0,0,1,4-3.66,6.86,6.86,0,0,1,5.22,2.4,20.53,20.53,0,0,1,3.1,5c.72-1.32,1.59-2.77,3.06-3.16a4.4,4.4,0,0,1,2.48.21,11.13,11.13,0,0,1,6.72,6.11,5,5,0,0,1,9.81,1.26c.65-1.55,2.35-1.7,4.07-1.27a9.43,9.43,0,0,1,4.11,2.22A7.15,7.15,0,0,1,72,124.82Z" transform="translate(24.99)"/><path class="cls-13" d="M117.36,44.29a2.18,2.18,0,0,1-.15.57Z" transform="translate(24.99)"/><path class="cls-14" d="M79.76,49.1a3.87,3.87,0,0,1,.25.55,1.44,1.44,0,0,1,.09.58,1.54,1.54,0,0,1-.16.47c-.16.33-.33.66-.52,1a3.7,3.7,0,0,1-.37.42c-.15.19-.49.74-.79.51a.45.45,0,0,1-.1-.13,2.92,2.92,0,0,1-.19-2,8,8,0,0,1,.81-1.91c0-.1.13-.28.24-.33s.4.4.49.52A2.59,2.59,0,0,1,79.76,49.1Z" transform="translate(24.99)"/><path class="cls-14" d="M63.91,41.47v0h0a4.71,4.71,0,0,1,0,.53c0,.14,0,.28-.05.42s-.08.52-.13.78-.06.38-.1.57a8.57,8.57,0,0,0-.08,1.68s0,.12-.05.15-.14,0-.2,0L59.55,44.1a.39.39,0,0,1-.21-.14.38.38,0,0,1,0-.33,8.19,8.19,0,0,0,.53-1.26c.1-.54.21-1.07.29-1.62a5.11,5.11,0,0,1,.25-1.37c.19-.41.27-.86.7-1a1,1,0,0,1,.93.24,5,5,0,0,1,1.66,2.27A2.18,2.18,0,0,1,63.91,41.47Z" transform="translate(24.99)"/><path class="cls-15" d="M63.91,41.47v0h0a4.71,4.71,0,0,1,0,.53c0,.14,0,.28-.05.42s-.08.52-.13.78a2.31,2.31,0,0,1-.94-.41c-.41-.29-1.17-1.09-.92-1.57s.86-.24,1.27-.1A4.25,4.25,0,0,1,63.91,41.47Z" transform="translate(24.99)"/><path class="cls-14" d="M64.6,35.44a4.85,4.85,0,0,1,.32,1.3,2,2,0,0,0,.43,1.2c.29.31.67.52,1,.81a.8.8,0,0,1,.23.41c0,.1-.09.18-.19.23l-.35.19a.62.62,0,0,0-.21.15.41.41,0,0,0-.08.19,1.35,1.35,0,0,0,0,.6,8,8,0,0,1,.11.84,1,1,0,0,1-.11.71,1.68,1.68,0,0,1-.66.43,4.09,4.09,0,0,1-3.23-.32,4.68,4.68,0,0,1-1.06-1c-.29-.3-.75-.15-1.11-.24a2.38,2.38,0,0,1-1.5-1.81,4.31,4.31,0,0,1,0-1.19,3.91,3.91,0,0,1,.14-1,3.62,3.62,0,0,1,.44-.85,3.4,3.4,0,0,1,2.32-1.79,4.77,4.77,0,0,1,2.07-.3,1.59,1.59,0,0,1,.75.3,2,2,0,0,1,.43.52A3.55,3.55,0,0,1,64.6,35.44Z" transform="translate(24.99)"/><path class="cls-16" d="M62.3,37.21a1.88,1.88,0,0,1,.72-.5,5.29,5.29,0,0,0,1.7-.74.69.69,0,0,0,.2-.25.48.48,0,0,0,0-.37c-.18-.49-.65-.52-1-.84a1.76,1.76,0,0,0-1.08-.65,2.78,2.78,0,0,0-.86.06,5.9,5.9,0,0,0-2.78,1A3.74,3.74,0,0,0,57.8,37,3,3,0,0,0,58,38.58a8.42,8.42,0,0,0,1,1.94c.2.31.41.61.62.91s.3.52.6.57.34-.16.43-.33A3.44,3.44,0,0,0,61,40.5c.06-.36,0-.73.11-1.09a3.85,3.85,0,0,1,.72-1.61A4.43,4.43,0,0,1,62.3,37.21Z" transform="translate(24.99)"/><path class="cls-5" d="M79.69,45.9a13.28,13.28,0,0,1-.49,2.4l0,.11c0,.08,0,.17-.07.26A34.27,34.27,0,0,0,78.3,53v.11C78.12,54.57,78,56,78,57.46c0,.2,0,.4,0,.6v.11c0,1.73,0,3.47.06,5.21v.11c0,1.47.11,2.95.15,4.42V68c0,1.22,0,2.44,0,3.66l-3.14.26H75l-3.25.27c-1,.08-1.9.11-2.83.1h-.14c-.85,0-1.68,0-2.52-.1l-1.91-.14h0l-.15,0-1.89-.15a1.11,1.11,0,0,1-.57-.16.93.93,0,0,1-.28-.49,8.49,8.49,0,0,1-.23-2.66c0-.22,0-.44,0-.67v-.11c0-1.45.07-2.91.12-4.36v-.11c.06-1.7.13-3.4.2-5.1a.37.37,0,0,0,0-.11c0-.79.07-1.58.11-2.37,0-.4,0-.79.07-1.18s0-.86.07-1.28v-.11c.09-1.57.19-3.13.3-4.7v-.11c.07-1,.15-2.05.22-3.07l1.44-.17,1.5,0h.14l4.85-.1h.65l2.84-.06,2.33,0h.29l2.3-.05a1.15,1.15,0,0,1,.82.19A1.08,1.08,0,0,1,79.69,45.9Z" transform="translate(24.99)"/><path class="cls-9" d="M78,57.46c-.18.26-.32.49-.39.61-.66,1.22-.8,2.73-1.94,3.63-.68.55-1.51.9-2.22,1.41s-.86,1.24-1.53,1.72a1.53,1.53,0,0,1-.9.33c-.59,0-.85-.5-.85-1,0-1.44,1-2.85,1.47-4.2a27.15,27.15,0,0,0,1-4.45,10.73,10.73,0,0,1,.72-3c.67-1.39,2-2.4,2.56-3.82a9.46,9.46,0,0,0,.46-3.51,2.09,2.09,0,0,1,0-.25L70.88,45c-.12.77-.17,1.58-.35,2.33a6.25,6.25,0,0,1-3.32,4.07c-.77.37-1.62.58-2.41.91a8.09,8.09,0,0,0-3.09,2.28c-.26,4.66-.43,9.34-.53,14a8.49,8.49,0,0,0,.23,2.66.93.93,0,0,0,.28.49,1.11,1.11,0,0,0,.57.16l2,.17a.23.23,0,0,1,.21-.27c.66,0,1.32-.08,2-.14a2.81,2.81,0,0,0-.27.55,37.23,37.23,0,0,0,5.49,0l6.53-.54C78.27,67,77.87,62.17,78,57.46Z" transform="translate(24.99)"/><path class="cls-10" d="M72.88,45.86a6.55,6.55,0,0,0-.67,3.93,2.67,2.67,0,0,1,0,1.16,2,2,0,0,1-.36.59c-.8,1-1.63,2-2.5,2.91a2,2,0,0,1-.67.54,1.73,1.73,0,0,1-.72.12c-1,0-1.9-.3-2.86-.39a3.87,3.87,0,0,0-2.42.53,7.28,7.28,0,0,1-1,.51c0-.4,0-.79.07-1.18q.24-4.65.59-9.27l1.44-.17L70.88,45l2.84-.06A10.52,10.52,0,0,0,72.88,45.86Z" transform="translate(24.99)"/><path class="cls-13" d="M75.9,48.48l1.16,0,2.11-.05,0-.11-3.3.07c.1-1.16.19-2.33.29-3.49h-.14c-.1,1.17-.19,2.33-.29,3.5l-2.44,0c-1,0-2.06,0-3.1,0L70.37,45h-.14l-.15,3.44c-1.67,0-3.35,0-5,0,.11-1.1.21-2.21.32-3.32h-.14l-.33,3.32h-.06l-2.77,0v.11l2.82,0-.09.94c-.12,1.19-.23,2.39-.33,3.59l-.48,0-2.22.11v.11l1.67-.08,1,0c-.07.91-.13,1.83-.18,2.75,0,.75-.06,1.51-.08,2.26-.89,0-1.79,0-2.68,0a.37.37,0,0,1,0,.11c.9,0,1.79,0,2.69,0q-.06,2.57-.06,5.13c-.94,0-1.88-.07-2.83-.08v.11c.94,0,1.89,0,2.83.08,0,1.44,0,2.88,0,4.32H64l-2.79,0v.11l3,0v4.09l.15,0V68l3.45,0H69c-.09,1.43-.18,2.87-.28,4.3h.14c.1-1.44.2-2.88.29-4.31h6c0,1.31-.13,2.63-.26,3.93h.14c.13-1.3.21-2.61.26-3.92h2.84v-.11H75.35c.06-1.44.07-2.89.08-4.34l2.11-.06.5,0v-.11l-2.61.08V62.05c0-1.27,0-2.54,0-3.81l1.33,0,1.22,0v-.11l-2.55.07c0-.78,0-1.57,0-2.36s.05-1.66.09-2.49l1.31-.07,1.43-.08V53l-.89,0-1.85.11c.07-1.23.15-2.46.25-3.68Zm-11,1.78c.05-.58.11-1.15.17-1.73l3.54,0h1.48c-.06,1.51-.14,3-.21,4.55L68.47,53c-1.28-.05-2.56,0-3.84,0C64.7,52.12,64.78,51.19,64.88,50.26Zm-.48,6.46c0-1.19.12-2.38.22-3.56,1.1,0,2.2-.07,3.3,0,.65,0,1.29.06,1.93.1,0,.71-.07,1.43-.1,2.14,0,1-.1,1.91-.16,2.86-1.64,0-3.29,0-4.94,0h-.29C64.37,57.7,64.39,57.21,64.4,56.72Zm-.09,6.5c0-1.64,0-3.28,0-4.92l4,0h1.23l-.3,5.19c-1.48,0-3,0-4.44-.07l-.54,0Zm4.74,4.19,0,.49-4.72,0c0-1.44,0-2.88,0-4.32h0c1.47,0,2.94.07,4.41.08h.57Zm6.17.14c0,.12,0,.24,0,.36-.89,0-1.79,0-2.69,0H69.17c.09-1.43.17-2.85.26-4.28,1.95,0,3.9,0,5.85,0C75.28,64.9,75.27,66.23,75.22,67.55Zm-1.55-4.06c-1.41,0-2.82,0-4.24,0l.09-1.39.21-3.8c1.85,0,3.7,0,5.55-.08,0,1.74,0,3.48,0,5.22ZM75.33,55c0,1,0,2.09,0,3.13l-2.23,0-3.31,0c.09-1.66.17-3.33.26-5,.78.05,1.57.11,2.36.13,1,0,2,0,3-.06C75.38,53.86,75.35,54.44,75.33,55Zm.4-6.28c-.12,1.49-.24,3-.32,4.45-.83,0-1.67.08-2.5.07S71,53.17,70,53.11l.15-3c0-.5,0-1,.07-1.51,1.84,0,3.69,0,5.53-.06A1.94,1.94,0,0,1,75.73,48.73Z" transform="translate(24.99)"/><path class="cls-17" d="M68.19,69c-.06-.85.09-2.43-.39-3.21H60.5a4.8,4.8,0,0,0-.38,2.59c0,.29,0,.57.05.85q.3,5.39.69,10.77a160.32,160.32,0,0,1,.09,23.4,5.17,5.17,0,0,0,.12,2c.42,1.27,1.71,1.5,2.87,1.2a8,8,0,0,0,1-.29,3,3,0,0,0,1.52-1.19,4.66,4.66,0,0,0,.42-1.15,32.26,32.26,0,0,0,.54-5.28c.23-3.41.48-6.81.68-10.22.29-5.2.41-10.42.31-15.63C68.34,71.57,68.28,70.27,68.19,69Z" transform="translate(24.99)"/><path class="cls-17" d="M62.06,65.77H54.69a11.18,11.18,0,0,0,0,1.83l.06,1.46c0,1.07.08,2.14.1,3.2v.19c0,1.55,0,3.09,0,4.63a130.59,130.59,0,0,1-1,14.92c-.22,1.92-.51,3.83-.8,5.75-.14,1-.28,1.91-.4,2.87a23.27,23.27,0,0,0-.31,2.66,4.39,4.39,0,0,0,.24,1.69c.52,1.22,1.7,1.17,2.81.88a3.82,3.82,0,0,0,2.34-2.29A14.35,14.35,0,0,0,59,99.45c.95-5.07,1.82-10.16,2.52-15.26l0-.18a85.3,85.3,0,0,0,1-15A11.89,11.89,0,0,0,62.06,65.77Z" transform="translate(24.99)"/><path class="cls-18" d="M68.6,109.89a3.05,3.05,0,0,1-1.2.19H65.93a4,4,0,0,0-1.22-.25,2.2,2.2,0,0,0-.76.25H62.53a2.41,2.41,0,0,1-.53-.2.41.41,0,0,1-.14-.12.27.27,0,0,1,0-.15,2.42,2.42,0,0,1,.05-.47,10.14,10.14,0,0,0,.29-1.18c0-.06,0-.11,0-.17,0-.34,0-.7,0-1.05a.19.19,0,0,1,0-.14l.09,0a6.35,6.35,0,0,1,2-.41q.29,0,.6,0a3.07,3.07,0,0,1,.13-.5.32.32,0,0,1,.08-.12.31.31,0,0,1,.13,0c.33,0,.42.34.46.59a4.51,4.51,0,0,0,.3,1c.16.4.63.66,1,.89a3.58,3.58,0,0,0,1.31.57,1.91,1.91,0,0,1,.47.12.72.72,0,0,1,.31.28A.75.75,0,0,1,68.6,109.89Z" transform="translate(24.99)"/><path class="cls-19" d="M64.32,106.14a1.74,1.74,0,0,1-.13.64c-.31.74-1.24,1-2,1,0-.34,0-.7,0-1.05a.19.19,0,0,1,0-.14l.09,0A6.35,6.35,0,0,1,64.32,106.14Z" transform="translate(24.99)"/><path class="cls-19" d="M68.6,109.89a3.05,3.05,0,0,1-1.2.19H65.93a4,4,0,0,0-1.22-.25,2.2,2.2,0,0,0-.76.25H62.53a2.41,2.41,0,0,1-.53-.2.41.41,0,0,1-.14-.12.27.27,0,0,1,0-.15,2.42,2.42,0,0,1,.05-.47l.22.12a2.94,2.94,0,0,0,1.87.22,5.78,5.78,0,0,1,.57-.12,3,3,0,0,1,.94.09,7.39,7.39,0,0,0,1.88.06,3.22,3.22,0,0,0,1-.23,3.9,3.9,0,0,1,.72-.33A.75.75,0,0,1,68.6,109.89Z" transform="translate(24.99)"/><path class="cls-19" d="M65.94,106.69l-.32-.06a1.73,1.73,0,0,0,.27-.15s0,0,0,0a.17.17,0,0,0-.1,0,3.07,3.07,0,0,1-.31.17l-.41-.08H65s0,0,0,0a.22.22,0,0,0,.13.24h.1a.33.33,0,0,0,.13,0l.18-.07.39.08s.08,0,.09,0S66,106.7,65.94,106.69Zm-.64,0-.07,0h0a.16.16,0,0,0,0-.09l.18,0Z" transform="translate(24.99)"/><path class="cls-19" d="M66.48,107.57a3.08,3.08,0,0,1-.43,0H66l0,0,.11-.12.1-.09,0,0s-.07-.06-.09,0-.06,0-.09,0l-.14.14-.09.09a.6.6,0,0,1-.19-.06H65.5l0,0h0l0,0h0v0a0,0,0,0,0,0,0s0,0,0,0a.4.4,0,0,0,.15.14h0s.08,0,.1,0l.14-.13H66a3.85,3.85,0,0,0,.48,0s.07,0,.07,0S66.5,107.57,66.48,107.57Z" transform="translate(24.99)"/><path class="cls-19" d="M67.18,108a1.7,1.7,0,0,0-.39,0,2,2,0,0,0,.1-.21s-.11-.06-.13,0-.08.16-.13.24h-.07a.61.61,0,0,0-.18,0h0s0,0,0,0h0a0,0,0,0,0,0,0,.27.27,0,0,0,.07.08l.09,0s.12,0,.14,0l.12-.21h.43s.07,0,.07,0S67.2,108,67.18,108Z" transform="translate(24.99)"/><path class="cls-19" d="M67.84,108.32a.09.09,0,0,0-.1,0l-.11,0h0a.2.2,0,0,1,0-.11s-.06,0-.07,0-.07,0-.08,0a.29.29,0,0,0,0,.1s0,.05,0,.08a1.22,1.22,0,0,0-.19.12h0l0,0h0v0h0s0,0,0,0,0,0,0,0l.06,0a.28.28,0,0,0,.2,0h0s0,0,.06,0a.53.53,0,0,0,0-.22h0l.2-.09S67.86,108.33,67.84,108.32Z" transform="translate(24.99)"/><path class="cls-18" d="M58.52,110A3.14,3.14,0,0,1,57.3,110l-1.43-.28a4.15,4.15,0,0,0-1.15-.49,2.38,2.38,0,0,0-.8.1l-1.39-.27a2.15,2.15,0,0,1-.48-.3.39.39,0,0,1-.12-.14.43.43,0,0,1,0-.16,1.83,1.83,0,0,1,.15-.45,9.06,9.06,0,0,0,.5-1.1,1,1,0,0,0,.05-.16c.08-.34.13-.69.23-1a.16.16,0,0,1,.07-.12l.1,0a6.46,6.46,0,0,1,2,0c.2,0,.39.07.59.12a4.09,4.09,0,0,1,.23-.47.32.32,0,0,1,.1-.1.22.22,0,0,1,.14,0c.32.09.34.41.33.66a4.16,4.16,0,0,0,.1,1.05,2.42,2.42,0,0,0,.8,1.07,3.67,3.67,0,0,0,1.17.81,1.78,1.78,0,0,1,.44.21.62.62,0,0,1,.25.33C59.29,109.58,58.94,110,58.52,110Z" transform="translate(24.99)"/><path class="cls-19" d="M55,105.53a1.65,1.65,0,0,1-.24.6,2.22,2.22,0,0,1-2.17.61c.08-.34.13-.69.23-1a.16.16,0,0,1,.07-.12l.1,0A6.46,6.46,0,0,1,55,105.53Z" transform="translate(24.99)"/><path class="cls-19" d="M58.52,110A3.14,3.14,0,0,1,57.3,110l-1.43-.28a4.15,4.15,0,0,0-1.15-.49,2.38,2.38,0,0,0-.8.1l-1.39-.27a2.15,2.15,0,0,1-.48-.3.39.39,0,0,1-.12-.14.43.43,0,0,1,0-.16,1.83,1.83,0,0,1,.15-.45l.19.16a2.86,2.86,0,0,0,1.79.58,5.61,5.61,0,0,1,.58,0,3.59,3.59,0,0,1,.9.27,7.73,7.73,0,0,0,1.83.43,3.36,3.36,0,0,0,1.05,0,4.1,4.1,0,0,1,.77-.18C59.29,109.58,58.94,110,58.52,110Z" transform="translate(24.99)"/><path class="cls-19" d="M56.53,106.39l-.3-.13.3-.09s0,0,0,0a.12.12,0,0,0-.1,0l-.34.11-.39-.16h-.06s0,0,0,0a.22.22,0,0,0,.08.26l0,0h.05a.34.34,0,0,0,.14,0l.19,0,.37.15s.07,0,.09,0S56.54,106.39,56.53,106.39Zm-.62-.15-.08,0h0a.18.18,0,0,0,0-.1l.17.07Z" transform="translate(24.99)"/><path class="cls-19" d="M56.89,107.35a3.1,3.1,0,0,1-.42-.08l-.09,0,0,0,.13-.09.12-.07h0s-.06-.07-.08-.07a.18.18,0,0,0-.1,0l-.17.11-.11.07-.17-.1h0a.2.2,0,0,0-.11,0l0,0h0l0,0v0h0a0,0,0,0,0,0,.05s0,0,0,0a.3.3,0,0,0,.12.17h0a.09.09,0,0,0,.1,0l.16-.11.11,0,.47.1s.07,0,.07,0S56.91,107.35,56.89,107.35Z" transform="translate(24.99)"/><path class="cls-19" d="M57.49,107.94a2.63,2.63,0,0,0-.39-.06l.14-.18s-.1-.08-.13,0-.11.15-.16.22h-.08a.62.62,0,0,0-.19,0h0l0,0h0s0,0,0,0a.2.2,0,0,0,0,.09.27.27,0,0,0,.08.07s.11.06.13,0l.16-.18h.06a2.25,2.25,0,0,1,.36.06s.07,0,.08,0S57.5,108,57.49,107.94Z" transform="translate(24.99)"/><path class="cls-19" d="M58.08,108.35a.09.09,0,0,0-.1,0l-.12,0h0a.4.4,0,0,1,0-.11s0,0-.06,0-.07,0-.08,0a.33.33,0,0,0,0,.1.11.11,0,0,1,0,.08l-.21.08h-.07v0h0a.08.08,0,0,0,0,0h0l0,.06a.25.25,0,0,0,.19,0h.08a.54.54,0,0,0,.08-.21h0l.21,0S58.1,108.36,58.08,108.35Z" transform="translate(24.99)"/><path class="cls-20" d="M60.89,81c-.08-1.43-.19-2.86-.31-4.29-.07-.81-.14-1.62-.23-2.43,0-.06-.21-.06-.2,0,.14,1.44.27,2.87.37,4.3s.2,2.86.27,4.29c0,.81.08,1.62.11,2.44,0,.06.2.06.2,0C61.05,83.82,61,82.38,60.89,81Z" transform="translate(24.99)"/><path class="cls-20" d="M66.47,101.76a8.1,8.1,0,0,1-1.06,2.83c0,.07.17.1.21,0a8.39,8.39,0,0,0,1.07-2.86C66.7,101.68,66.48,101.68,66.47,101.76Z" transform="translate(24.99)"/><path class="cls-20" d="M63.13,105.37a4,4,0,0,1-.52-1.78c0-.08-.22-.08-.21,0a3.83,3.83,0,0,0,.52,1.81C63,105.47,63.17,105.44,63.13,105.37Z" transform="translate(24.99)"/><path class="cls-20" d="M57.37,101a6.55,6.55,0,0,1-1.57,2.86c-.07.07.14.11.19.06a6.71,6.71,0,0,0,1.6-2.92C57.6,100.92,57.39,100.91,57.37,101Z" transform="translate(24.99)"/><path class="cls-20" d="M53.7,102.34v.81c0,.07.21.07.21,0v-.81C53.91,102.27,53.7,102.27,53.7,102.34Z" transform="translate(24.99)"/><path class="cls-16" d="M64.72,37.1a.17.17,0,0,0-.14-.1.63.63,0,0,0-.38.08,1.5,1.5,0,0,0-.42.29.94.94,0,0,0-.18.25s-.1.29-.11.3.24-.17.36-.27a1.45,1.45,0,0,1,.54-.27.73.73,0,0,0,.29-.11A.13.13,0,0,0,64.72,37.1Z" transform="translate(24.99)"/><path class="cls-19" d="M64.63,38.06a.25.25,0,0,0-.16-.05.23.23,0,0,0-.17.25h0a.29.29,0,0,0,0,.13.67.67,0,0,0,.07.24.18.18,0,0,0,.08.07.17.17,0,0,0,.14,0h0l.06,0a.26.26,0,0,0,.09-.22s0-.06,0-.09a.34.34,0,0,0,0-.1.43.43,0,0,1,0-.05.36.36,0,0,0,0-.09Z" transform="translate(24.99)"/><path class="cls-3" d="M64.49,40.57a.3.3,0,0,1,0-.08c0-.12.07-.2.17-.23h.13a.74.74,0,0,1,.14,0,.55.55,0,0,0,.28,0h.12c.27,0,.27.38.07.48a.54.54,0,0,1-.28,0,.78.78,0,0,1-.36-.1,1,1,0,0,1-.17-.13Z" transform="translate(24.99)"/><path class="cls-14" d="M79.42,50.85a3.23,3.23,0,0,0-.06-1.24c0-.09-.07-.19-.16-.2s-.15.06-.19.13a4.25,4.25,0,0,0-.14.51.86.86,0,0,1-.2.33c-.16.17-.38.19-.35-.07a1.34,1.34,0,0,1,.19-.44,2.86,2.86,0,0,0,.3-.8.44.44,0,0,0,0-.2.2.2,0,0,0-.16-.12.22.22,0,0,0-.13.06,3,3,0,0,0-.28.34,6.88,6.88,0,0,1-.7.73,2.54,2.54,0,0,0-.44.71l0,.08a4.16,4.16,0,0,0-.25.7,1.4,1.4,0,0,0,.42,1.4,1.86,1.86,0,0,0,.78.33.66.66,0,0,0,.62-.33A3.79,3.79,0,0,0,79.42,50.85Z" transform="translate(24.99)"/><path class="cls-18" d="M78.25,52a3,3,0,0,0-.41-.38,1.45,1.45,0,0,0-1.59-.21,1.67,1.67,0,0,0-.33.32l-3,3.55c-.69.8-1.37,1.6-2,2.46a3.43,3.43,0,0,0-.73,2.64,1.23,1.23,0,0,0,.56.93,2.36,2.36,0,0,0,1.42.29,3.47,3.47,0,0,0,1.8-.83,7.22,7.22,0,0,0,1.29-1.52,36.65,36.65,0,0,0,2-3.44c.32-.6.64-1.2,1-1.78a1.73,1.73,0,0,0,.34-1.61A1.88,1.88,0,0,0,78.25,52Z" transform="translate(24.99)"/><path class="cls-18" d="M68.76,48.75c.5,1.23.86,2.51,1.31,3.76a14.8,14.8,0,0,0,1.25,2.71c.54.9,1.2,1.7,1.75,2.6s1.25,2,.57,2.81a2.45,2.45,0,0,1-1.53.9,2.53,2.53,0,0,1-.91,0,2.34,2.34,0,0,1-.89-.48c-2.73-1.94-4.48-4.94-6-7.93A15.11,15.11,0,0,0,63,50.8a6.49,6.49,0,0,1-.87-1.29A3,3,0,0,1,63.31,46a3.26,3.26,0,0,1,1.93-.78,3.19,3.19,0,0,1,1.92.9,6.49,6.49,0,0,1,1.39,2.13Z" transform="translate(24.99)"/><path class="cls-15" d="M79.13,48.91s-.08,0-.07,0a1.1,1.1,0,0,1-.36,1.44s0,0,0,0,0,0,0,0a1.11,1.11,0,0,0,.47-.63A1.14,1.14,0,0,0,79.13,48.91Z" transform="translate(24.99)"/><path class="cls-15" d="M80,49.81s-.08,0-.07,0a1.14,1.14,0,0,1,0,.45s.07,0,.07,0A1.19,1.19,0,0,0,80,49.81Z" transform="translate(24.99)"/><path class="cls-18" d="M68.71,51.55c0-.18.07-.36.11-.54a4.72,4.72,0,0,0,.07-2,5.48,5.48,0,0,0-.7-1.84A5.67,5.67,0,0,0,65.8,45a2.7,2.7,0,0,1-.87-.51,4.75,4.75,0,0,1-.42-.58c-.32-.46-1-.53-1.5-.66a16.07,16.07,0,0,0-2.85-.34,3.35,3.35,0,0,0-1.48.14c-.48.21-.8.62-1.25.85a15.74,15.74,0,0,0-1.64.83c-1.42,1-1.61,2.74-2.1,4.24a8.42,8.42,0,0,0-.36,3.56c.16,1.22.64,2.36.88,3.56a15.12,15.12,0,0,1,0,3.86c-.13,2.79-.27,5.57-.41,8.36a1.59,1.59,0,0,0,.14.89,1.54,1.54,0,0,0,1.23.53,76.79,76.79,0,0,0,11.65,0,2,2,0,0,0,1.33-.31,2,2,0,0,0,.37-1.35c0-1.29-.08-2.58-.17-3.88,0-.64-.09-1.29-.14-1.93a8.91,8.91,0,0,1-.08-1.71,8.83,8.83,0,0,0,.06-1.16,46.88,46.88,0,0,1,.23-5.92C68.47,52.84,68.58,52.19,68.71,51.55Z" transform="translate(24.99)"/><path class="cls-18" d="M52.45,52A26.88,26.88,0,0,0,52,55.54a8.33,8.33,0,0,0,.38,3.61,3.28,3.28,0,0,0,2.91,1.78,2.6,2.6,0,0,0,1,0,2.72,2.72,0,0,0,1.47-1.31,15.57,15.57,0,0,0,2-7.28c.13-1.92.06-4-1.07-5.55-.27-.36-.68-.52-1-.83s-.31-.56-.79-.63c-.88-.13-1.38-.39-2.1.41a8.71,8.71,0,0,0-1.68,3.34A28.19,28.19,0,0,0,52.45,52Z" transform="translate(24.99)"/><path class="cls-21" d="M68.4,59.22a34.75,34.75,0,0,1-3.08-4.87c-.25-.48-.5-1-.73-1.47,0-.05-.16,0-.14,0a34.3,34.3,0,0,0,2.85,5c.31.46.63.9,1,1.34C68.29,59.28,68.43,59.26,68.4,59.22Z" transform="translate(24.99)"/><path class="cls-21" d="M73,57.39a2.3,2.3,0,0,0-.26-.4c-.09-.12-.18-.25-.34-.25s-.09.07,0,.07.12.1.15.14l.13.17a2.54,2.54,0,0,1,.47,1.18c0,.06.15.05.14,0A2.62,2.62,0,0,0,73,57.39Z" transform="translate(24.99)"/><path class="cls-21" d="M65.2,44.65c-1.91-.53-3.9-.11-5.83-.36a6.15,6.15,0,0,1-1.58-.42.14.14,0,0,0-.11,0s0,0,0,.06c1.83.77,3.84.42,5.75.53a7.52,7.52,0,0,1,1.7.26C65.18,44.73,65.29,44.68,65.2,44.65Z" transform="translate(24.99)"/><path class="cls-17" d="M64.29,36c-.85,1-1.6,2.13-2.36,3.22a5.51,5.51,0,0,1-2.39,2,.37.37,0,0,1-.23,0,.34.34,0,0,1-.16-.1,4.26,4.26,0,0,1-1-1.31.74.74,0,0,0-.6-.47c-.34-.09-1.82-.1-1.82-.52a4.13,4.13,0,0,1,.46-1.56A10.53,10.53,0,0,1,57,35.78a4,4,0,0,1,5-2.3,10.47,10.47,0,0,1,2.52,1,.65.65,0,0,1,.26.23c.18.38-.18.79-.41,1.06Z" transform="translate(24.99)"/><path class="cls-22" d="M63.55,34.27a4.87,4.87,0,0,0-.81,1.2l-.81,1.47a5.2,5.2,0,0,1-.86,1.26c-.34.34-.71.64-1.07,1a9.29,9.29,0,0,0-1.18,1.25s0,.06.07.07.11,0,.13,0a9.72,9.72,0,0,1,1.07-1.15c.35-.31.73-.61,1.07-.94A5.24,5.24,0,0,0,62,37.18c.27-.48.53-1,.8-1.46a5.56,5.56,0,0,1,.91-1.39C63.81,34.26,63.6,34.22,63.55,34.27Z" transform="translate(24.99)"/><path class="cls-22" d="M60.17,40.58q-.29-.22-.57-.48a.17.17,0,0,0-.14,0s-.08.05,0,.08a6.57,6.57,0,0,0,.57.48.17.17,0,0,0,.14,0S60.21,40.61,60.17,40.58Z" transform="translate(24.99)"/><path class="cls-22" d="M60.85,39.88l-.55-.47a.16.16,0,0,0-.15,0s-.08,0,0,.07l.56.48a.19.19,0,0,0,.15,0S60.89,39.91,60.85,39.88Z" transform="translate(24.99)"/><path class="cls-22" d="M61.61,39.2a4.12,4.12,0,0,1-.62-.33.16.16,0,0,0-.15,0s0,.05,0,.08c.2.12.41.23.62.33a.16.16,0,0,0,.15,0A0,0,0,0,0,61.61,39.2Z" transform="translate(24.99)"/><path class="cls-22" d="M62.1,38.47l-.45-.32a.19.19,0,0,0-.15,0l0,0a0,0,0,0,0,0,.05l.46.31a.14.14,0,0,0,.14,0,.05.05,0,0,0,0,0A0,0,0,0,0,62.1,38.47Z" transform="translate(24.99)"/><path class="cls-22" d="M62.76,37.62a1.45,1.45,0,0,0-.56-.3.14.14,0,0,0-.15,0s0,.06,0,.07l.07,0,0,0h0l.14.07a1.06,1.06,0,0,1,.23.16.17.17,0,0,0,.14,0S62.8,37.66,62.76,37.62Z" transform="translate(24.99)"/><path class="cls-22" d="M63.12,36.76l-.47-.28a.19.19,0,0,0-.15,0s0,0,0,0,0,0,0,0l.47.28a.19.19,0,0,0,.15,0s0,0,0,0S63.13,36.77,63.12,36.76Z" transform="translate(24.99)"/><path class="cls-22" d="M63.68,36l-.58-.28a.16.16,0,0,0-.15,0s-.05.06,0,.08l.58.28a.2.2,0,0,0,.15,0A0,0,0,0,0,63.68,36Z" transform="translate(24.99)"/><path class="cls-22" d="M64.19,35.38,63.68,35a.17.17,0,0,0-.14,0s-.08,0,0,.08a5.17,5.17,0,0,0,.51.42.16.16,0,0,0,.15,0S64.24,35.42,64.19,35.38Z" transform="translate(24.99)"/><path class="cls-22" d="M64.67,34.8a1.62,1.62,0,0,0-.69-.32s-.11,0-.13,0,0,.06.08.07l.15,0,.13,0a2.61,2.61,0,0,1,.28.17.14.14,0,0,0,.14,0S64.71,34.83,64.67,34.8Z" transform="translate(24.99)"/><path class="cls-22" d="M59.52,40.91l-.25-.23-.07,0h-.08l0,0s0,0,0,.05l.25.22s0,0,.07,0h.08a.05.05,0,0,0,.05,0S59.53,40.92,59.52,40.91Z" transform="translate(24.99)"/><rect class="cls-3" x="75.63" y="68.25" width="18.72" height="6.82"/><path class="cls-3" d="M71.73,71.66c0,1.88-1.11,3.41-2.47,3.41s-2.48-1.53-2.48-3.41,1.11-3.41,2.48-3.41S71.73,69.78,71.73,71.66Z" transform="translate(24.99)"/><path class="cls-3" d="M53.15,71.66c0,1.88-1.11,3.41-2.47,3.41s-2.48-1.53-2.48-3.41,1.11-3.41,2.48-3.41S53.15,69.78,53.15,71.66Z" transform="translate(24.99)"/><path class="cls-7" d="M71.23,71.91A4.8,4.8,0,0,0,71,70.36a2.72,2.72,0,0,0-.74-1.17A1.88,1.88,0,0,0,69,68.72a1.71,1.71,0,0,0-1.13.56,2.8,2.8,0,0,0-.62,1.24c-.06.23-.1.46-.14.69H48.59s-.11,0-.11.06.08,0,.11,0H67.08c.06,0,.17,0,.18,0A3.05,3.05,0,0,1,68.36,69a1.28,1.28,0,0,1,1.14-.12,1.94,1.94,0,0,1,.94.8A4.5,4.5,0,0,1,71,72.34a2.87,2.87,0,0,1-.29,1.29,1.83,1.83,0,0,1-.81.77A1.46,1.46,0,0,1,68,73.77a2.73,2.73,0,0,1-.24-1.32A3.63,3.63,0,0,1,68,71.11a1.88,1.88,0,0,1,.68-.94.81.81,0,0,1,1,.17,1.76,1.76,0,0,1,.48,1.16,3.67,3.67,0,0,1-.09,1.4,1.13,1.13,0,0,1-.76.82.61.61,0,0,1-.51-.1.85.85,0,0,1-.31-.55,2.9,2.9,0,0,1,.19-1.39,1.32,1.32,0,0,1,.24-.51s.15-.17.23-.15.13.17.15.24a2.14,2.14,0,0,1,0,.71c0,.07.21.08.22,0,0-.34,0-1.2-.53-1s-.57.73-.67,1.11a1.82,1.82,0,0,0,.08,1.48,1,1,0,0,0,1.12.26,1.35,1.35,0,0,0,.76-1,2.68,2.68,0,0,0,.07-.8,4.65,4.65,0,0,0,0-.75,1.6,1.6,0,0,0-.7-1.11,1.09,1.09,0,0,0-1.19,0,2.14,2.14,0,0,0-.72,1.09,4,4,0,0,0-.22,1.49A2.33,2.33,0,0,0,68,74.07a1.64,1.64,0,0,0,1.07.57,1.91,1.91,0,0,0,2-1.26A4.07,4.07,0,0,0,71.23,71.91Z" transform="translate(24.99)"/><path class="cls-18" d="M64.45,75.51a.3.3,0,0,1-.18-.06A3.79,3.79,0,0,1,63,73.14a6.7,6.7,0,0,1,1.29-5.49.29.29,0,0,1,.45.37,6,6,0,0,0-1.17,5,3.19,3.19,0,0,0,1.06,2,.29.29,0,0,1,0,.4A.28.28,0,0,1,64.45,75.51Z" transform="translate(24.99)"/><path class="cls-18" d="M53.69,75.51a.28.28,0,0,1-.18-.06,3.79,3.79,0,0,1-1.27-2.31,6.7,6.7,0,0,1,1.29-5.49.29.29,0,0,1,.41,0,.28.28,0,0,1,0,.4,6.07,6.07,0,0,0-1.16,5,3.19,3.19,0,0,0,1.06,2,.29.29,0,0,1,0,.4A.28.28,0,0,1,53.69,75.51Z" transform="translate(24.99)"/><path class="cls-23" d="M64.38,44.53a1.8,1.8,0,0,1,1.56.29l.38.25a1.13,1.13,0,0,1,.46.4c.13.23-.76.53-.94.63L64.3,47a1.71,1.71,0,0,1-1.52.29A1.23,1.23,0,0,1,62.13,46c.15-.51,1.09-.91,1.54-1.15A3.5,3.5,0,0,1,64.38,44.53Z" transform="translate(24.99)"/><path class="cls-23" d="M56.92,45.45l-.06.26a.63.63,0,0,1-.19.38.56.56,0,0,1-.24.1l-.75.18a1.82,1.82,0,0,1-.61.07c-.49,0,.09-1.13.21-1.3a2,2,0,0,1,.37-.4,4.59,4.59,0,0,1,1.2-.63c.22-.09.4-.17.39.11A2.39,2.39,0,0,1,57,45C57,45.12,57,45.28,56.92,45.45Z" transform="translate(24.99)"/><path class="cls-23" d="M66,61.74c0,1.5,0,3,0,4.5v.15a2.27,2.27,0,0,1-.33,1.34,1.47,1.47,0,0,1-.66.46,4,4,0,0,1-1,.18l-.46,0c-1.33.12-2.67.17-4,.17a44.24,44.24,0,0,1-4.46-.21,1.71,1.71,0,0,1-2-2v-.15c0-.95,0-1.91,0-2.87V63c0-.41,0-.83,0-1.24h0c0-.64,0-1.28,0-1.92,0-1.8,0-3.6.13-5.4,0-.14,0-.28,0-.42,0-1.35.09-2.7.26-4l0-.22c.08-.53.18-1.07.3-1.59a8.24,8.24,0,0,1,.42-1.33,3.6,3.6,0,0,1,.29-.55,2.68,2.68,0,0,1,.18-.28A5,5,0,0,1,59,44.3a4.35,4.35,0,0,1,.51,0h0c.21,0,.42,0,.62,0a8.86,8.86,0,0,1,1.25.23,4.81,4.81,0,0,1,1.84.87A4.69,4.69,0,0,1,64.52,47a10,10,0,0,1,.81,2.69,1.43,1.43,0,0,0,0,.22s0,.07,0,.1a40,40,0,0,1,.46,4.36c.11,1.8.13,3.6.13,5.4C66,60.44,66,61.09,66,61.74Z" transform="translate(24.99)"/><path class="cls-17" d="M57.32,49.87V60.32a6.12,6.12,0,0,0,1.71,0V49.87A6.53,6.53,0,0,0,57.32,49.87Z" transform="translate(24.99)"/><path class="cls-19" d="M65.37,49.93H53.49l0-.22H65.33A1.43,1.43,0,0,0,65.37,49.93Z" transform="translate(24.99)"/><path class="cls-19" d="M61.44,49.93h-.22c0-.07,0-.14-.07-.22a6.61,6.61,0,0,0-.39-.94,2.85,2.85,0,0,0-1.3-1.27,3,3,0,0,0-2.34-.11,3.09,3.09,0,0,0-1.92,2.32,2.07,2.07,0,0,0,0,.22h-.22a1.7,1.7,0,0,1,0-.22A3.36,3.36,0,0,1,57,47.19a3.26,3.26,0,0,1,2.51.11A3.07,3.07,0,0,1,61,48.68a6.92,6.92,0,0,1,.43,1Z" transform="translate(24.99)"/><path class="cls-19" d="M64.52,67.15l-.21,0a14,14,0,0,0-1.23-3.72A5.53,5.53,0,0,0,60.57,61a5.84,5.84,0,0,0-4.51-.21,5.67,5.67,0,0,0-3,2.57V63l0-.07A5.9,5.9,0,0,1,56,60.6a6,6,0,0,1,4.68.22,5.75,5.75,0,0,1,2.61,2.55A14.11,14.11,0,0,1,64.52,67.15Z" transform="translate(24.99)"/><path class="cls-17" d="M54.59,62.69c0,.5-.13.9-.29.9s-.29-.4-.29-.9.13-.89.29-.89S54.59,62.2,54.59,62.69Z" transform="translate(24.99)"/><path class="cls-17" d="M55.52,50.14c0,.49-.13.9-.29.9s-.29-.41-.29-.9.13-.9.29-.9S55.52,49.64,55.52,50.14Z" transform="translate(24.99)"/><path class="cls-19" d="M65.52,58.53a.1.1,0,0,1-.1.11h0a.11.11,0,0,1-.11-.11,68.75,68.75,0,0,0-.47-7l0-.25a11.29,11.29,0,0,0-.94-3.8,4.28,4.28,0,0,0-1.49-1.67A5,5,0,0,0,60,45.16a11.23,11.23,0,0,0-3.33.2,5.6,5.6,0,0,0-2,1.09,2.31,2.31,0,0,0-.36.34,3.6,3.6,0,0,1,.29-.55,5.53,5.53,0,0,1,2.07-1.09,11.33,11.33,0,0,1,3.4-.21,5.38,5.38,0,0,1,2.48.67,4.51,4.51,0,0,1,1.57,1.76,11.54,11.54,0,0,1,1,3.87l0,.25A69.13,69.13,0,0,1,65.52,58.53Z" transform="translate(24.99)"/><path class="cls-17" d="M53.57,53.19V61c0,.08.21.08.21,0V53.19C53.78,53.12,53.57,53.12,53.57,53.19Z" transform="translate(24.99)"/><path class="cls-17" d="M66,66.24v.15a2.27,2.27,0,0,1-.33,1.34,1.47,1.47,0,0,1-.66.46,4,4,0,0,1-1,.18l-.46,0c-1.33.12-2.67.17-4,.17a44.24,44.24,0,0,1-4.46-.21,1.71,1.71,0,0,1-2-2v-.15Z" transform="translate(24.99)"/><path class="cls-17" d="M55,47.2c0,.49-.13.89-.29.89s-.29-.4-.29-.89.13-.9.29-.9S55,46.7,55,47.2Z" transform="translate(24.99)"/><path class="cls-23" d="M68.33,63.8a.26.26,0,0,1,.1.07.5.5,0,0,1,.09.23,6.7,6.7,0,0,1,.15,1,2.42,2.42,0,0,1-.13,1c-.11.28-.57.2-.81.21s-.74,0-1.11,0-.55-.05-.82-.06c-.08,0-.85,0-.85,0a6.11,6.11,0,0,1-.44-1.61c-.08-.77.34-.89,1-.89H67l.77,0A1.68,1.68,0,0,1,68.33,63.8Z" transform="translate(24.99)"/><path class="cls-19" d="M65.92,63.84v2.3c0,.07.22.07.22,0v-2.3C66.14,63.76,65.92,63.76,65.92,63.84Z" transform="translate(24.99)"/><path class="cls-19" d="M64.45,46.51a8,8,0,0,0-1.14-1.18.12.12,0,0,0-.14,0s-.08,0,0,.07a7.62,7.62,0,0,1,1.11,1.16.16.16,0,0,0,.13,0S64.48,46.55,64.45,46.51Z" transform="translate(24.99)"/><path class="cls-19" d="M57.05,44.42s-.1-.05-.13,0a4,4,0,0,0-1.61.74s0,.07,0,.08a.16.16,0,0,0,.15,0,3.82,3.82,0,0,1,1.48-.7S57.07,44.46,57.05,44.42Z" transform="translate(24.99)"/><path class="cls-18" d="M89,64.51a20.9,20.9,0,0,1,2.74.07,13,13,0,0,1,2.61.61c.27,1.34.5,2.7.74,4.06l.18,1.07a2.43,2.43,0,0,1-.14,1.8,1.27,1.27,0,0,1-.8.41,14.84,14.84,0,0,1-3.94,0c-1.35-.06-2.7,0-4,0-.68,0-1.36,0-2-.08-.35,0-.69-.06-1-.11s-.4-.23-.47-.59a2,2,0,0,1,.12-1.25c.21-.54.34-1.12.51-1.68.33-1.1.68-2.2,1-3.29a1.34,1.34,0,0,1,.37-.67,2,2,0,0,1,1-.22C86.89,64.54,88,64.52,89,64.51Z" transform="translate(24.99)"/><path class="cls-14" d="M107,49.69l-.08,0a3.53,3.53,0,0,0-.56-.05,2.26,2.26,0,0,0-1.26.46,4.51,4.51,0,0,0-.94,1,6.87,6.87,0,0,0-.77,1.16,6.15,6.15,0,0,0-.44,1.22c-.09.3-.26.59-.38.88a.12.12,0,0,0,0,.13s.08,0,.13.07a1.26,1.26,0,0,1,.31.26c.12.1.23.2.36.29a.86.86,0,0,0,.43.2.32.32,0,0,0,.22,0,.67.67,0,0,0,.17-.2,1.56,1.56,0,0,1,.42-.5c.17-.11.35-.22.52-.35a3.82,3.82,0,0,0,.93-.95s.13,0,.15,0,.13-.1.18-.16a.53.53,0,0,0,.11-.21.4.4,0,0,0,0-.38.28.28,0,0,0-.25-.17.44.44,0,0,0,.14-.49.45.45,0,0,0-.32-.26.62.62,0,0,0,.13-.53.47.47,0,0,0-.21-.23.57.57,0,0,0-.31,0,5.19,5.19,0,0,1,.62-.42,3.55,3.55,0,0,0,.63-.28C107,50,107.15,49.76,107,49.69Z" transform="translate(24.99)"/><path class="cls-15" d="M105.6,50.75a1,1,0,0,0-.72.18s0,0,0,0a.14.14,0,0,0,.09,0,.88.88,0,0,1,.61-.17s.06,0,.06,0S105.62,50.75,105.6,50.75Z" transform="translate(24.99)"/><path class="cls-15" d="M105.91,51.49a1.21,1.21,0,0,0-.8.25s0,0,0,0h.09a1.11,1.11,0,0,1,.69-.24s.07,0,.07,0S105.93,51.49,105.91,51.49Z" transform="translate(24.99)"/><path class="cls-15" d="M106.23,52.2c0-.06-.15-.06-.2-.06l-.23,0a1.1,1.1,0,0,0-.37.23s.07.07.11,0a.9.9,0,0,1,.28-.18.43.43,0,0,1,.16-.05h.13a.1.1,0,0,0,.07,0S106.24,52.22,106.23,52.2Z" transform="translate(24.99)"/><path class="cls-15" d="M106.17,52.86s0,0-.06,0h0s0,0,0,0a.46.46,0,0,1-.06.23s.09.07.12,0A.51.51,0,0,0,106.17,52.86Z" transform="translate(24.99)"/><path class="cls-23" d="M102.6,53.62c.25-.33.55-.21.93,0l1,.56c.16.1.49.33.5.53a.57.57,0,0,1,0,.26c-.07.24-.17.51-.4.58a.58.58,0,0,1-.19,0l-.62,0c-.13,0-.13-.08-.21-.11a3,3,0,0,0-.43-.06,1.32,1.32,0,0,1-.74-.33.79.79,0,0,1-.18-.74c.11-.23.22-.45.34-.66Z" transform="translate(24.99)"/><path class="cls-17" d="M101.06,55.21a56.73,56.73,0,0,1-3.89,6,3.73,3.73,0,0,0-.84,1.52A1.74,1.74,0,0,0,97,64.35a2.3,2.3,0,0,0,2.21.27c.91-.36,1.52-1.46,2-2.24l2-3.24a14.48,14.48,0,0,0,1-1.84,4,4,0,0,0,.56-1.94.36.36,0,0,0-.09-.22.42.42,0,0,0-.15-.11L103,54.1a1.35,1.35,0,0,0-.6-.21c-.47,0-.86.61-1.08,1Z" transform="translate(24.99)"/><path class="cls-17" d="M95.52,52a7.79,7.79,0,0,1,.34.72c1.13,2.6,1.71,5.41,2.86,8a10.39,10.39,0,0,1,.79,2.07c.11.56.17,1.47-.32,1.88a1.23,1.23,0,0,1-.86.21,3.78,3.78,0,0,1-2.18-1c-1.34-1.16-2-3.07-2.76-4.66-.28-.59-.56-1.19-.82-1.79a10.38,10.38,0,0,1-.75-1.94,6.51,6.51,0,0,1,.65-3.65c.31-.69,1.25-1.89,2.07-1.18A4.17,4.17,0,0,1,95.52,52Z" transform="translate(24.99)"/><path class="cls-23" d="M95.11,91.22l-.17,7.2c0,2.17,0,4.36-.29,6.51s-.31,3.73-1.66,5.42a2.6,2.6,0,0,1-3.47.27,2.83,2.83,0,0,1-.62-1.32,9.55,9.55,0,0,1-.26-3.15,22.44,22.44,0,0,0-.08-3.57q-.16-2.85-.35-5.68c-.31-5.06-.59-10.12-.89-15.18a27,27,0,0,0-.38-3.6c-.2-1-.51-1.94-.66-2.94a8,8,0,0,1,1-5.33,6.52,6.52,0,0,1,.84-1.06c1.91-1.91,5.67-2.49,6.87.5A8,8,0,0,1,95.48,72a125.83,125.83,0,0,1-.4,13C95,87.08,95.16,89.12,95.11,91.22Z" transform="translate(24.99)"/><path class="cls-23" d="M81.88,83.94c.21,2.69.42,5.38.5,8.09.06,1.63,0,3.24.14,4.87.23,3.73.35,7.49.4,11.25a2.42,2.42,0,0,0,2.93,3c1.16,0,2-1,2.42-2a11.37,11.37,0,0,0,.84-4.67c0-2,.09-4,.14-6l.17-7.2c0-2.1-.14-4.14,0-6.23.21-4.17.59-8.28.43-12.45l0-.57a8,8,0,0,0-.46-2.68,3.28,3.28,0,0,0-3-2.09c-1.38,0-3.6.79-4.27,2a7,7,0,0,0-.6,3A107.73,107.73,0,0,0,81.88,83.94Z" transform="translate(24.99)"/><path class="cls-17" d="M96.65,114a3.1,3.1,0,0,1-1.21.19H94a4.65,4.65,0,0,0-1.22-.25,2.25,2.25,0,0,0-.77.25H90.57a1.93,1.93,0,0,1-.52-.2.3.3,0,0,1-.15-.12.37.37,0,0,1,0-.15,1.89,1.89,0,0,1,.06-.47,9.21,9.21,0,0,0,.28-1.18c0-.05,0-.11,0-.16,0-.35,0-.71,0-1,0,0,0-.11,0-.14a.16.16,0,0,1,.09,0,5.88,5.88,0,0,1,2-.41q.3,0,.6,0a3.23,3.23,0,0,1,.14-.51.18.18,0,0,1,.08-.12.18.18,0,0,1,.13,0c.33,0,.41.34.45.58a4.36,4.36,0,0,0,.3,1,2.47,2.47,0,0,0,1,.9,3.66,3.66,0,0,0,1.31.57,1.79,1.79,0,0,1,.47.11.63.63,0,0,1,.31.29C97.31,113.37,97,113.81,96.65,114Z" transform="translate(24.99)"/><path class="cls-22" d="M92.36,110.23a1.72,1.72,0,0,1-.12.63c-.31.74-1.24,1-2,1,0-.35,0-.71,0-1,0,0,0-.11,0-.14a.16.16,0,0,1,.09,0A5.88,5.88,0,0,1,92.36,110.23Z" transform="translate(24.99)"/><path class="cls-22" d="M96.65,114a3.1,3.1,0,0,1-1.21.19H94a4.65,4.65,0,0,0-1.22-.25,2.25,2.25,0,0,0-.77.25H90.57a1.93,1.93,0,0,1-.52-.2.3.3,0,0,1-.15-.12.37.37,0,0,1,0-.15,1.89,1.89,0,0,1,.06-.47,2.25,2.25,0,0,0,.21.12,3,3,0,0,0,1.88.23,3.63,3.63,0,0,1,.57-.13,3.67,3.67,0,0,1,.93.09,7.9,7.9,0,0,0,1.88.07,3.23,3.23,0,0,0,1-.24,3.3,3.3,0,0,1,.72-.32C97.31,113.37,97,113.81,96.65,114Z" transform="translate(24.99)"/><path class="cls-19" d="M94,110.78l-.31-.07a1.82,1.82,0,0,0,.27-.15s0,0,0,0a.09.09,0,0,0-.1,0l-.31.17-.41-.09h-.06a.05.05,0,0,0,0,0,.24.24,0,0,0,.13.24h.1l.14,0,.17-.07.39.08s.08,0,.09,0S94,110.78,94,110.78Zm-.63,0-.08,0h0a.12.12,0,0,0,0-.1l.17,0Z" transform="translate(24.99)"/><path class="cls-19" d="M94.52,111.65H94l0,0,.12-.11a.94.94,0,0,1,.1-.1s0,0,0,0-.06,0-.09,0a.12.12,0,0,0-.08.06l-.15.14-.09.08-.19,0h0a.14.14,0,0,0-.11,0h0l0,0v0a0,0,0,0,0,0,0s0,0,0,0h0a.29.29,0,0,0,.15.14h0a.12.12,0,0,0,.1,0l.14-.14.1,0a3.84,3.84,0,0,0,.48,0s.07,0,.07,0S94.54,111.65,94.52,111.65Z" transform="translate(24.99)"/><path class="cls-19" d="M95.22,112.12a2.54,2.54,0,0,0-.39,0l.11-.2c0-.05-.12-.06-.14,0l-.12.24H94.6a.48.48,0,0,0-.17,0h-.05s0,0,0,0a.18.18,0,0,0,.07.08s.06,0,.09.06.12,0,.14,0l.12-.21h.42s.07,0,.07,0S95.24,112.12,95.22,112.12Z" transform="translate(24.99)"/><path class="cls-19" d="M95.89,112.4a.12.12,0,0,0-.1,0l-.12,0h0a.36.36,0,0,1,0-.1s-.05,0-.07,0-.07,0-.07,0a.44.44,0,0,0,0,.1.17.17,0,0,1,0,.07l-.19.12h0l0,0h0v0h0a.06.06,0,0,0,0,0h0a.1.1,0,0,0,.06,0,.34.34,0,0,0,.2,0h0a.06.06,0,0,0,.06,0,.52.52,0,0,0,0-.21h0a.72.72,0,0,1,.2-.09A0,0,0,0,0,95.89,112.4Z" transform="translate(24.99)"/><path class="cls-17" d="M88.86,113.7a1.55,1.55,0,0,1-1.21.32c-.45,0-.89-.18-1.35-.21a5.65,5.65,0,0,0-1.53.16,2.33,2.33,0,0,1-.91,0c-.13,0-.33-.12-.37-.27a1.34,1.34,0,0,1,.05-.52,9.24,9.24,0,0,0,.29-1.18c0-.05,0-.11,0-.16,0-.35,0-.71,0-1,0-.19.22-.24.37-.24l1.72,0a.65.65,0,0,1,.39.06,1.44,1.44,0,0,1,.27.28l.73.86a4.08,4.08,0,0,0,.84.82c.16.1.33.19.48.3a.72.72,0,0,1,.29.47A.5.5,0,0,1,88.86,113.7Z" transform="translate(24.99)"/><path class="cls-22" d="M86,110.46l0,0c.17.13,0,.54-.07.68a1.22,1.22,0,0,1-.5.53,1,1,0,0,1-1.11-.08A1.46,1.46,0,0,1,84,111a.33.33,0,0,1,.05-.42.76.76,0,0,1,.36-.14,4.26,4.26,0,0,1,.8,0l.71,0Z" transform="translate(24.99)"/><path class="cls-22" d="M88.59,113.91h0a.15.15,0,0,1-.06,0,1.56,1.56,0,0,1-.6.11,11.83,11.83,0,0,1-1.33,0,3.42,3.42,0,0,0-.45,0,4,4,0,0,0-.5.07,6.7,6.7,0,0,1-1,.17,1.64,1.64,0,0,1-1-.2.4.4,0,0,1-.2-.24.39.39,0,0,1,.07-.23,1.45,1.45,0,0,1,.93-.63,2,2,0,0,1,1.22.14,3.74,3.74,0,0,0,1.36.47c.28,0,.57,0,.85,0a1.16,1.16,0,0,1,.42,0C88.45,113.63,88.64,113.8,88.59,113.91Z" transform="translate(24.99)"/><path class="cls-19" d="M87.08,111.32l-.06,0-.06,0-.07,0h0l-.05,0h-.07l0,0v0a0,0,0,0,0,0,0,.94.94,0,0,0,.14.19l0,0H87s0,0,0,0a.29.29,0,0,0-.05-.13l.12-.06a0,0,0,1,0,0-.06Z" transform="translate(24.99)"/><path class="cls-19" d="M87.39,111.79s0,0,0,0,0,0,0,0l0,0h-.07l-.05,0,0,0h0l0,0h-.07s0,0,0,0v0a.19.19,0,0,0,0,.1.16.16,0,0,0,.09.07l0,0h.06l0,0a0,0,0,0,0,0,0,0,0,0,0,0,0,0l0-.07h0Z" transform="translate(24.99)"/><path class="cls-19" d="M87.73,112.14l-.06,0h0l0,0-.06,0h-.12l0,0h0s0,0,0,0,0,0,0,0l0,0a.19.19,0,0,0,.09,0,.14.14,0,0,0,.09,0l0,0s0,0,0,0a.43.43,0,0,0,0,0l.08-.06s0,0,0,0A0,0,0,0,0,87.73,112.14Z" transform="translate(24.99)"/><path class="cls-19" d="M88.27,112.54a0,0,0,0,0,0,0l0,0h-.09l0,0a.18.18,0,0,1-.07,0l0,0,0,0h0a.05.05,0,0,0,0,0s0,0,0,0l.06,0,.07,0h.09a.1.1,0,0,0,0,0h0l0,0h0l.06,0v0S88.27,112.55,88.27,112.54Z" transform="translate(24.99)"/><path class="cls-19" d="M85.92,75.15A26.6,26.6,0,0,1,87.2,81.4c.21,2.21.3,4.43.43,6.64L88,95l.39,6.92c0,.27,0,.54,0,.81l.15,2.65c0,.48.06,1,.08,1.45,0,.22,0,.43,0,.65a1.53,1.53,0,0,1,0,.64c-.26-.11-.17-1-.18-1.2,0-.45,0-.91-.08-1.37l-.15-2.74c-.14-2.29-.27-4.59-.4-6.88L87.53,89c-.12-2.22-.22-4.45-.4-6.67A30.56,30.56,0,0,0,86,75.93c-.08-.26-.16-.51-.25-.76C85.76,75.11,85.91,75.1,85.92,75.15Z" transform="translate(24.99)"/><path class="cls-19" d="M87.53,107.8a2.8,2.8,0,0,1-.69,1.29c-.06.06.12.09.16,0a3,3,0,0,0,.71-1.34C87.72,107.74,87.54,107.73,87.53,107.8Z" transform="translate(24.99)"/><path class="cls-19" d="M84.66,108c0-.07-.18-.06-.18,0,0,.27.07.54.1.81,0,.06.18.06.18,0C84.73,108.56,84.7,108.29,84.66,108Z" transform="translate(24.99)"/><path class="cls-19" d="M93.79,104.89a7.66,7.66,0,0,1-1.15,3.74c0,.06.14.08.17,0A7.82,7.82,0,0,0,94,104.89C94,104.83,93.79,104.82,93.79,104.89Z" transform="translate(24.99)"/><path class="cls-19" d="M90.59,108.41a6.15,6.15,0,0,1-.37-1.4c0-.06-.19-.06-.18,0a6.42,6.42,0,0,0,.38,1.43S90.62,108.48,90.59,108.41Z" transform="translate(24.99)"/><path class="cls-14" d="M87.58,49.2a.23.23,0,0,1-.07-.07c-.08-.11.15-.44.19-.57A4.81,4.81,0,0,0,88,46.88a1.26,1.26,0,0,1,.27-1.06,2.21,2.21,0,0,1,1.23-.23,2.51,2.51,0,0,1,1.29.31l.26.15c.39.24.73.56.63,1.05,0,.19-.07.39-.1.58s0,.23,0,.34,0,.28-.06.42c0,.31.15.85-.17,1.08a.76.76,0,0,1-.42.11,9.48,9.48,0,0,1-2.6-.24A2.62,2.62,0,0,1,87.58,49.2Z" transform="translate(24.99)"/><path class="cls-15" d="M91.65,47.1c0,.19-.07.39-.1.58s0,.23,0,.34h0a2.2,2.2,0,0,1-1.18-.86.54.54,0,0,1,.06-.62,1.17,1.17,0,0,1,.69-.48C91.41,46.29,91.75,46.61,91.65,47.1Z" transform="translate(24.99)"/><path class="cls-14" d="M92.7,41.29c.61.92-.16,2.21.73,2.74.23.19.57.4.59.73,0,.15-.15.27-.27.37a1.16,1.16,0,0,0-.27.89,2.52,2.52,0,0,1-.12,1.19,1,1,0,0,1-1,.42,4.17,4.17,0,0,1-2.18-.72,2.83,2.83,0,0,1-.82-.71c-.21-.32-.41-.32-.77-.23-1.53.4-2-1.25-2-2.46A3.45,3.45,0,0,1,87.3,41a3.92,3.92,0,0,1,.56-.52,1.74,1.74,0,0,1,.72-.29A9,9,0,0,1,90.13,40a2.79,2.79,0,0,1,.7.13l.76.21a1.38,1.38,0,0,1,.76.45C92.48,40.93,92.58,41.11,92.7,41.29Z" transform="translate(24.99)"/><path class="cls-17" d="M96,56a18.51,18.51,0,0,0-.53-3.8,3.21,3.21,0,0,0-1.19-1.81,4.74,4.74,0,0,0-1.61-.6,34.12,34.12,0,0,0-4.59-1,6.17,6.17,0,0,0-2.38.51,11.6,11.6,0,0,0-2.49,1.11,3.61,3.61,0,0,0-1,.84,4.17,4.17,0,0,0-.5.93c-.4.91-.75,1.84-1.06,2.78s-.38,1.59-.59,2.4c-.39,1.58-.76,3.16-1,4.76a7,7,0,0,0,0,2.78A3,3,0,0,0,80.3,66.7c.48.31,1.16.46,1.16,1.1,0,1.76-.24,3.47-.32,5.23S81,76.78,81,78.66c0,1,1.25.87,2,.82a88.16,88.16,0,0,1,11.14-.24,2.35,2.35,0,0,0,1.12-.1c1.14-.48.54-3.37.5-4.34-.07-1.75-.15-3.5-.08-5.25.11-2.86.31-5.75.33-8.63C96,59.3,96.07,57.62,96,56Z" transform="translate(24.99)"/><path class="cls-19" d="M91.59,43.2l-.14.07c0-.05,0-.08,0-.13a1.25,1.25,0,0,1,1.09-.59.21.21,0,0,1,.17.06c.06.08-.08.17-.13.2a2.55,2.55,0,0,1-.54.15A2.1,2.1,0,0,0,91.59,43.2Z" transform="translate(24.99)"/><path class="cls-19" d="M92.51,43.79a.19.19,0,0,0-.23-.16c-.15,0-.15.31-.11.43a.15.15,0,0,0,.26.12A.37.37,0,0,0,92.51,43.79Z" transform="translate(24.99)"/><path class="cls-3" d="M93.05,45.86s0,0,0,0a.28.28,0,0,0-.16-.06,1.17,1.17,0,0,1-.35-.14l-.11-.05a.13.13,0,0,0-.12,0,.21.21,0,0,0,0,.23.54.54,0,0,0,.55.41C93,46.22,93.16,46,93.05,45.86Z" transform="translate(24.99)"/><path class="cls-17" d="M87,47.56l.17,0a7.07,7.07,0,0,1,4.91.79,1.71,1.71,0,0,1,.87.91,1,1,0,0,1-.27,1c-.58.53-1.83,0-2.51-.05a17.83,17.83,0,0,0-3.1,0c-.76.06-2.71.46-2.11-1.07A2.74,2.74,0,0,1,87,47.56Z" transform="translate(24.99)"/><path class="cls-24" d="M83.19,57.85c.21,1,.42,2,.62,3a19.28,19.28,0,0,1,.36,3c0,.57,0,1.15,0,1.73,0,0-.15,0-.15,0a26.52,26.52,0,0,0-.12-3.09c-.11-1-.33-2-.53-3-.11-.57-.23-1.14-.35-1.71C83,57.8,83.18,57.8,83.19,57.85Z" transform="translate(24.99)"/><path class="cls-24" d="M92.52,57a21.82,21.82,0,0,0,1.87,4.46q.33.6.69,1.17c0,.05-.11.07-.14,0a21.8,21.8,0,0,1-2.14-4.33c-.15-.43-.29-.86-.42-1.3C92.36,56.92,92.51,56.91,92.52,57Z" transform="translate(24.99)"/><path class="cls-24" d="M98.6,60.1a3.65,3.65,0,0,1,.82,2.1s-.15,0-.15,0a3.68,3.68,0,0,0-.81-2.08S98.57,60.06,98.6,60.1Z" transform="translate(24.99)"/><rect class="cls-20" x="104.25" y="70.97" width="18.72" height="6.82"/><path class="cls-20" d="M100.35,74.38c0,1.88-1.11,3.41-2.48,3.41s-2.47-1.53-2.47-3.41S96.51,71,97.87,71,100.35,72.5,100.35,74.38Z" transform="translate(24.99)"/><path class="cls-20" d="M81.77,74.38c0,1.88-1.11,3.41-2.48,3.41s-2.47-1.53-2.47-3.41S77.93,71,79.29,71,81.77,72.5,81.77,74.38Z" transform="translate(24.99)"/><path class="cls-17" d="M99.85,74.63a5.41,5.41,0,0,0-.26-1.55,2.72,2.72,0,0,0-.74-1.17,1.82,1.82,0,0,0-1.28-.46,1.63,1.63,0,0,0-1.13.55,2.93,2.93,0,0,0-.63,1.24c0,.23-.1.46-.13.69H77.21s-.11,0-.11.06.08.05.11.05H95.7c.06,0,.17,0,.18,0A3,3,0,0,1,97,71.76a1.28,1.28,0,0,1,1.14-.12,1.94,1.94,0,0,1,.94.8,4.57,4.57,0,0,1,.57,2.62,2.87,2.87,0,0,1-.29,1.29,1.83,1.83,0,0,1-.81.77,1.47,1.47,0,0,1-1.92-.63,2.85,2.85,0,0,1-.24-1.32,3.86,3.86,0,0,1,.27-1.34,1.88,1.88,0,0,1,.68-.94.81.81,0,0,1,1,.17,1.78,1.78,0,0,1,.48,1.16,3.67,3.67,0,0,1-.09,1.4,1.13,1.13,0,0,1-.76.82.64.64,0,0,1-.52-.1.89.89,0,0,1-.3-.55,3,3,0,0,1,.18-1.39,1.51,1.51,0,0,1,.25-.51s.15-.17.23-.15.13.17.15.24a2.44,2.44,0,0,1,0,.71c0,.08.21.08.21,0,0-.34,0-1.2-.53-1s-.56.73-.66,1.11a1.81,1.81,0,0,0,.08,1.48,1,1,0,0,0,1.12.26,1.37,1.37,0,0,0,.76-1,3.56,3.56,0,0,0,.07-.8,3.8,3.8,0,0,0-.06-.75,1.56,1.56,0,0,0-.69-1.11,1.09,1.09,0,0,0-1.19,0A2.14,2.14,0,0,0,96.38,74a4,4,0,0,0-.22,1.49,2.39,2.39,0,0,0,.42,1.35,1.69,1.69,0,0,0,1.08.57,1.91,1.91,0,0,0,2-1.26A4.07,4.07,0,0,0,99.85,74.63Z" transform="translate(24.99)"/><path class="cls-18" d="M93.07,78.23a.28.28,0,0,1-.18-.06,3.79,3.79,0,0,1-1.27-2.31,6.7,6.7,0,0,1,1.29-5.49.3.3,0,0,1,.41,0,.28.28,0,0,1,0,.4,6.07,6.07,0,0,0-1.16,5,3.19,3.19,0,0,0,1.06,2,.29.29,0,0,1,0,.4A.29.29,0,0,1,93.07,78.23Z" transform="translate(24.99)"/><path class="cls-18" d="M82.31,78.23a.28.28,0,0,1-.18-.06,3.79,3.79,0,0,1-1.27-2.31,6.7,6.7,0,0,1,1.29-5.49.3.3,0,0,1,.41,0,.28.28,0,0,1,0,.4,6.11,6.11,0,0,0-1.17,5,3.24,3.24,0,0,0,1.07,2,.29.29,0,0,1,0,.4A.29.29,0,0,1,82.31,78.23Z" transform="translate(24.99)"/><path class="cls-18" d="M93.72,69.64a1.69,1.69,0,0,1-.31,1.14,1.51,1.51,0,0,1-.77.43l-.36.07-.45,0c-1.44.12-2.88.18-4.32.17s-2.89,0-4.32-.17a2.32,2.32,0,0,1-1.58-.55,1.7,1.7,0,0,1-.32-1.14c0-.8,0-1.6,0-2.41v-.77c0-.26,0-.52,0-.78h0c0-.55,0-1.09,0-1.63,0-1.53,0-3.06.12-4.59,0-.11,0-.23,0-.35a21.85,21.85,0,0,1,.58-5,4.56,4.56,0,0,1,.86-1.82A5.15,5.15,0,0,1,87,50.91a3.93,3.93,0,0,1,.49,0h0q.3,0,.6,0a6.45,6.45,0,0,1,3,.93,5.74,5.74,0,0,1,2.06,3.92,32.86,32.86,0,0,1,.44,3.69c.11,1.53.13,3.06.13,4.59,0,.55,0,1.1,0,1.65C93.75,67,93.76,68.33,93.72,69.64Z" transform="translate(24.99)"/><path class="cls-23" d="M91.22,65.24v.48a5.9,5.9,0,0,0-2-1.17,6.91,6.91,0,0,0-1.9-.41h0l-.54,0h-.19a4.92,4.92,0,0,0-.67,0,6.64,6.64,0,0,0-1.57.34,5.9,5.9,0,0,0-2,1.2v-.48c0-.35,0-.71,0-1.07h0c0-.35,0-.69,0-1V63c0-.82,0-1.64,0-2.46h0a2.17,2.17,0,0,1,0-.26l0-.46V59.6a16.78,16.78,0,0,1,.32-3.09,1.16,1.16,0,0,0,0-.18h0c0-.06,0-.12.05-.17a3.37,3.37,0,0,1,.46-1.07l.13-.17,0,0a3.73,3.73,0,0,1,3-1h.37a3.11,3.11,0,0,1,.43,0,4.5,4.5,0,0,1,2.12.64,2.6,2.6,0,0,1,.4.33,1.14,1.14,0,0,1,.15.17,4.74,4.74,0,0,1,.91,2.21,20.32,20.32,0,0,1,.31,2.56c0,.2,0,.4,0,.59v.06c0,.84,0,1.69,0,2.53,0,.38,0,.76,0,1.15S91.22,64.88,91.22,65.24Z" transform="translate(24.99)"/><path class="cls-18" d="M91.17,60.43h0a.18.18,0,0,0-.1-.11,6.43,6.43,0,0,0-2-.55l-.57-.1a10.3,10.3,0,0,0-1.1-.13h0l-.8-.08h0c-.55-.08-1.08-.19-1.52-.28l-.5-.1c-.31-.05-.63-.11-.94-.19l-.32-.11L83,58.68l-.11,0-.15,0,0,0q.69-.2,1.38-.36l1.3-.28,1.1-.24h0l.41-.1h.07l.76-.19c.66-.16,1.34-.33,2-.47a1.4,1.4,0,0,0,.52-.18c.18-.12.25-.25.22-.38s-.44-.32-.62-.34a24.65,24.65,0,0,1-2.73-.44l-.06,0h0l-.59-.11h0l-.14,0c-.35-.07-.72-.11-1.07-.15a6.76,6.76,0,0,1-1.92-.39l-.13.17a6.51,6.51,0,0,0,2,.44l.62.07.42.07.19,0h0l.61.13a24.64,24.64,0,0,0,2.75.45.58.58,0,0,1,.43.17s0,.09-.13.15a1.26,1.26,0,0,1-.45.15c-.68.14-1.36.31-2,.47l-.83.21-.35.08h0l-.48.11h0l-.67.14c-.43.09-.87.18-1.3.29s-.93.22-1.39.35a.41.41,0,0,0-.21.16.16.16,0,0,0,0,.15c0,.11.2.14.34.16l.08,0,.23.07.34.11c.31.09.64.15.95.21l.49.09.79.16.74.12h.09c.26,0,.52.06.78.08a10,10,0,0,1,1.1.13l.57.1a6.75,6.75,0,0,1,1.85.5l-.31.07c-.55.11-1.09.26-1.62.4l-.7.19-1.14.29-.54.13h0l-.43.11-.35.09c-1,.25-1.7.46-2.38.66-.89.28-1,.5-1.06.65v.06c0,.2.3.31.39.34a11.44,11.44,0,0,0,2.07.53l.88.13h.06l.17,0a4.92,4.92,0,0,1,.67,0,5.25,5.25,0,0,1,.56,0V64.1L86.6,64h0l-.85-.12-.33,0a12,12,0,0,1-2.57-.6c-.21-.08-.26-.14-.26-.17s0-.19.92-.47c.67-.21,1.4-.41,2.36-.66l.73-.19h0l.43-.11.15,0,1.14-.28.71-.19c.52-.15,1.06-.29,1.6-.4a2.49,2.49,0,0,0,.37-.09.23.23,0,0,0,.15-.12.08.08,0,0,0,0,0Z" transform="translate(24.99)"/><path class="cls-18" d="M91.2,63c0-.18-.29-.24-.46-.29l-.08,0-1.08-.34c-.75-.22-1.48-.43-2.2-.62L87,61.66l-.44-.11h0l-.53-.13c-.83-.21-1.68-.43-2.51-.66l-.16,0a2.68,2.68,0,0,1-.8-.28.55.55,0,0,1,.22-.12,10,10,0,0,1,1.61-.39l.29-.06a10,10,0,0,1,1.1-.13c.26,0,.52,0,.78-.08h.09l.74-.12c.44-.08.88-.18,1.32-.27.25-.07.51-.12.77-.17a7,7,0,0,0,1.18-.29.4.4,0,0,0,.23-.17.18.18,0,0,0,0-.19c-.06-.13-.25-.16-.45-.18h-.06l-.37-.08-.39-.08-.89-.15-.39-.07c-.43-.07-.87-.16-1.31-.25h0l-.47-.11h0l-.89-.22L84.4,57a5,5,0,0,1-.86-.32l-.4-.18h0l-.09,0,.07,0a5.58,5.58,0,0,1,1.22-.3l2.3-.42h0l.2,0,.39-.07h0l.65-.07a6.5,6.5,0,0,0,2.08-.46,1.14,1.14,0,0,0-.15-.17,6.28,6.28,0,0,1-2,.41c-.35,0-.72.08-1.06.15l-.16,0h0L86,55.6l-1.73.3a6.13,6.13,0,0,0-1.26.32.48.48,0,0,0-.17.11h0l0,.05a.2.2,0,0,0,0,.13s0,0,0,0a.35.35,0,0,0,.23.15h0l.39.17a5.18,5.18,0,0,0,.9.34l1.3.29.46.12h0l.48.11h0c.58.13,1.17.26,1.76.36l.38.06c.29.05.59.09.88.15l.39.08.37.08h.09a.89.89,0,0,1,.27.06s-.06,0-.11.07a7.71,7.71,0,0,1-1.15.28c-.26,0-.53.1-.78.17-.67.14-1.36.29-2,.39h0l-.81.08h0a10.3,10.3,0,0,0-1.1.13l-.29.05a10.76,10.76,0,0,0-1.65.41.83.83,0,0,0-.3.18.21.21,0,0,0,0,.26h0a1.88,1.88,0,0,0,.92.37l.16,0c.83.23,1.68.45,2.51.65l.15,0,.43.11h0l.73.19c.71.19,1.45.39,2.18.61l1.09.34.08,0c.08,0,.29.08.31.13s0,0-.07.11a.56.56,0,0,1-.19.09,20.13,20.13,0,0,1-2.94.59l-.34,0L86.6,64h0l-.46.06v0l.48,0c.22,0,.44,0,.65,0h.22l.91-.13a17.35,17.35,0,0,0,2.4-.52.61.61,0,0,0,.29-.14A.36.36,0,0,0,91.2,63Z" transform="translate(24.99)"/><path class="cls-19" d="M92.64,68.79a4.5,4.5,0,0,0-1.42-3.23c-.11-.11-.22-.22-.34-.32a6.78,6.78,0,0,0-.92-.63l-.53-.26a5.8,5.8,0,0,0-1-.36l-.6-.13a7.51,7.51,0,0,0-1.18-.1,7.88,7.88,0,0,0-1.2.1l-.58.13a6.93,6.93,0,0,0-1,.35,5.28,5.28,0,0,0-.53.27,6.45,6.45,0,0,0-.9.61l0,0a5.62,5.62,0,0,0-1.07,1.22v.77a4.63,4.63,0,0,1,1.07-1.51l0,0a5.9,5.9,0,0,1,2-1.2,6.64,6.64,0,0,1,1.57-.34,4.92,4.92,0,0,1,.67,0h.1l.55,0a6.79,6.79,0,0,1,1.6.36,5.76,5.76,0,0,1,2,1.21,4.21,4.21,0,0,1,1.4,3.07.92.92,0,0,1,0,.16v.19h0v2.14l.36-.07V68.79Z" transform="translate(24.99)"/><path class="cls-19" d="M83.63,65.88c0,.63-.14,1.15-.32,1.15S83,66.51,83,65.88s.14-1.15.32-1.15S83.63,65.25,83.63,65.88Z" transform="translate(24.99)"/><path class="cls-18" d="M92.63,49.66a.78.78,0,0,1,.4,0c.37.09.74.24,1.11.36.09,0,.18.07.2.16s0,.15-.1.21c-.37.35-.84.61-1.22,1a8.54,8.54,0,0,0-1.14,1.26c-.2.26-.36.49-.72.45a1.74,1.74,0,0,1-1-.57c-.41-.35.28-.95.54-1.22a8.29,8.29,0,0,1,1.53-1.37A2,2,0,0,1,92.63,49.66Z" transform="translate(24.99)"/><path class="cls-18" d="M83.37,52.4a.28.28,0,0,0,.14.16.58.58,0,0,0,.39,0c.29-.06.56-.2.85-.23a.26.26,0,0,0,.19-.08.31.31,0,0,0,0-.19,4.8,4.8,0,0,1,.19-2.25c.08-.29-.11-.5-.39-.39a3.76,3.76,0,0,0-.87.55,1.12,1.12,0,0,0-.28.25,1.22,1.22,0,0,0-.19.49,5.24,5.24,0,0,0-.09,1.37A.94.94,0,0,0,83.37,52.4Z" transform="translate(24.99)"/><path class="cls-18" d="M95.76,68.15a.29.29,0,0,1,.16.11.38.38,0,0,1,0,.19,5.44,5.44,0,0,1-.21,1.88L94,70.39c-.23,0-.77.08-.93-.16a2.73,2.73,0,0,1,0-1.21c0-.25,0-.72.24-.88a.71.71,0,0,1,.43-.1,13.2,13.2,0,0,1,1.88.08Z" transform="translate(24.99)"/><path class="cls-19" d="M91.79,52.34l-1.07-.81a.15.15,0,0,0-.13,0s-.06,0,0,.06l1.07.82a.13.13,0,0,0,.12,0S91.82,52.37,91.79,52.34Z" transform="translate(24.99)"/><path class="cls-19" d="M84.62,51.16s-.09,0-.13,0a3,3,0,0,0-1.15.55s0,.05,0,.06a.17.17,0,0,0,.12,0,2.62,2.62,0,0,1,1.09-.52A0,0,0,0,0,84.62,51.16Z" transform="translate(24.99)"/><path class="cls-19" d="M93.85,68.22c0-.07-.19-.07-.18,0,0,.66,0,1.32,0,2,0,.06.17.06.17,0A18.69,18.69,0,0,0,93.85,68.22Z" transform="translate(24.99)"/><path class="cls-18" d="M88.21,52.27l-.35-.39a1.54,1.54,0,0,0,.46-1.36.67.67,0,0,0-.08-.23.52.52,0,0,0-.18-.13,1,1,0,0,0-1.44.79,1.72,1.72,0,0,0,.13.61,2.93,2.93,0,0,1,.15.6l-.52.06a3.24,3.24,0,0,0-.13-.49,2.1,2.1,0,0,1-.16-.79,1.52,1.52,0,0,1,2.19-1.26.86.86,0,0,1,.37.29.92.92,0,0,1,.19.46A2.06,2.06,0,0,1,88.21,52.27Z" transform="translate(24.99)"/><path class="cls-19" d="M86.47,45l-.16-.23a4.13,4.13,0,0,1-.47-.94,2,2,0,0,1-.16-1.05,5.07,5.07,0,0,1,.8-1.9,3.94,3.94,0,0,1,2.27-1.46,6,6,0,0,1,1.2-.13,4,4,0,0,1,1,.06,1.5,1.5,0,0,1,.72.31c.09.08.16.19.25.27a1.77,1.77,0,0,0,.39.26,3,3,0,0,1,.39.22.46.46,0,0,1,.18.39.47.47,0,0,1-.27.3,4,4,0,0,0-.9.57,2.56,2.56,0,0,0-.57,1,4.58,4.58,0,0,0-.18.91,3.81,3.81,0,0,1-.27.93,1.8,1.8,0,0,0-.11,1.14,4,4,0,0,0,.31.58.94.94,0,0,1,.16.62c-.07.3-.35.51-.39.8a1.72,1.72,0,0,0,.2.75,1.3,1.3,0,0,1-.09,1A1.33,1.33,0,0,1,90,50a.94.94,0,0,1-.47,0,3.59,3.59,0,0,0-.43-.14.74.74,0,0,0-.5.2c-.14.12-.26.26-.41.37a1.18,1.18,0,0,1-.77.22,1.93,1.93,0,0,0-.58,0,1.48,1.48,0,0,1-.51.09,2.11,2.11,0,0,1-1-.15,2.11,2.11,0,0,0-.44-.24c-.29-.07-.57.12-.87.13a.72.72,0,0,1-.68-1,2.08,2.08,0,0,0,.25-.55c0-.25-.17-.48-.18-.74a.64.64,0,0,1,.34-.53,1.41,1.41,0,0,1,.64-.16.53.53,0,0,0,.28-.07.44.44,0,0,0,.13-.24c.1-.28.19-.62.47-.74s.81.17,1.19,0a.7.7,0,0,0,.28-.82A1.83,1.83,0,0,0,86.47,45Z" transform="translate(24.99)"/><path class="cls-3" d="M93,40.79a6,6,0,0,1-1.35,1.75,20.78,20.78,0,0,1-3,2.77h0l-.32.23a3,3,0,0,1-.71.42h0l-.18.06c-.18,0-.58.16-.73,0a.76.76,0,0,1-.18-.25c0-.09-.09-.18-.13-.28a9.56,9.56,0,0,1-.39-1c-.09-.24-.17-.49-.25-.74s-.07-.21-.1-.32a12.1,12.1,0,0,1-.35-1.41,6.29,6.29,0,0,1-.11-1.37,4.32,4.32,0,0,1,.22-1.18.81.81,0,0,1,.17-.3.54.54,0,0,1,.2-.1,4.59,4.59,0,0,1,1-.25,9.36,9.36,0,0,1,1.59-.08h0l.84,0,.93,0a5.69,5.69,0,0,1,1.37.23h0a3.28,3.28,0,0,1,1.07.63A1.13,1.13,0,0,1,93,40.79Z" transform="translate(24.99)"/><path class="cls-23" d="M92.49,39.69a18.15,18.15,0,0,1-6.16,5.85c0,.1.09.19.13.28a.76.76,0,0,0,.18.25c.15.12.55,0,.73,0l.18-.06h0c.35-.2.7-.42,1-.65h0a20.78,20.78,0,0,0,3-2.77A6,6,0,0,0,93,40.79,1.13,1.13,0,0,0,92.49,39.69ZM88.93,42c.89-.94,1.7-1.94,2.49-3h0A5.69,5.69,0,0,0,90,38.82a28.91,28.91,0,0,1-2.42,2.87,17.87,17.87,0,0,1-2,1.78c0,.11.07.22.1.32s.16.5.25.74A21,21,0,0,0,88.93,42Zm-.67-3.24a9.36,9.36,0,0,0-1.59.08,11.23,11.23,0,0,1-1.54,1.83,6.29,6.29,0,0,0,.11,1.37A12.1,12.1,0,0,0,88.26,38.78Z" transform="translate(24.99)"/><path class="cls-17" d="M86.11,39a1.72,1.72,0,0,0,.22-.84,1,1,0,0,0-.27-.73.48.48,0,0,0-.71.08.89.89,0,0,0-.72-.72.36.36,0,0,0-.23,0,.53.53,0,0,0-.26.39,2.1,2.1,0,0,0,0,.79.42.42,0,0,0-.66-.17.63.63,0,0,0-.1.76,1.45,1.45,0,0,0,.59.56.42.42,0,0,0-.41.46.6.6,0,0,0,.44.49,2,2,0,0,0,1.6-.46A1.88,1.88,0,0,0,86.11,39Z" transform="translate(24.99)"/><path class="cls-18" d="M88.64,45.83a.87.87,0,0,1-.35.58,1.58,1.58,0,0,1-.77.2,1.5,1.5,0,0,0-1.11.62c0,.06.14.08.17,0a1.54,1.54,0,0,1,1.25-.59,1.19,1.19,0,0,0,.68-.26.92.92,0,0,0,.31-.58S88.65,45.77,88.64,45.83Z" transform="translate(24.99)"/><path class="cls-18" d="M88,47a.15.15,0,0,0-.13,0,.9.9,0,0,0-.54.68s.07,0,.09,0,.09,0,.09,0a.84.84,0,0,1,.49-.62S88.06,47,88,47Z" transform="translate(24.99)"/><path class="cls-18" d="M84.69,48.58a.17.17,0,0,0-.12,0,.86.86,0,0,0-.12,1.07.15.15,0,0,0,.11,0s.09,0,.07-.06a.79.79,0,0,1,.09-1S84.72,48.59,84.69,48.58Z" transform="translate(24.99)"/><path class="cls-18" d="M85.83,50.16a.69.69,0,0,1-.23-.85c0-.06-.15-.08-.17,0a.76.76,0,0,0,.27.94.19.19,0,0,0,.13,0A0,0,0,0,0,85.83,50.16Z" transform="translate(24.99)"/><path class="cls-18" d="M90.23,48.45a.81.81,0,0,1-.35.69s0,.06,0,.07a.17.17,0,0,0,.12,0,.9.9,0,0,0,.37-.74C90.41,48.39,90.23,48.39,90.23,48.45Z" transform="translate(24.99)"/></g></g></svg>