<svg xmlns="http://www.w3.org/2000/svg" viewBox="0 0 145.59 74.63"><defs><style>.cls-1{fill:#faebdb;}.cls-2{fill:#a8d29f;}.cls-3{fill:#5074b9;}.cls-4{fill:#729ad1;}.cls-5{fill:#d76927;}.cls-6{fill:#f0a350;}.cls-7{fill:#c95f28;}.cls-8{fill:#82b379;}.cls-9{fill:#fcb874;}.cls-10{fill:#ee985e;}.cls-11{fill:#2b488c;}.cls-12{fill:#243962;}.cls-13{fill:#1e3e70;}.cls-14{fill:#fab17e;}.cls-15{fill:#2e3b65;}.cls-16{fill:#5280c1;}.cls-17{fill:#ab463e;}.cls-18{fill:#ee994b;}.cls-19{fill:#e48638;}.cls-20{fill:#2b4f97;}.cls-21{fill:#35498c;}.cls-22{fill:#2e3652;}.cls-23{fill:#4572b8;}</style></defs><g id="Layer_2" data-name="Layer 2"><g id="Layer_1-2" data-name="Layer 1"><path class="cls-1" d="M7.27,74.61s-15.64-33.3,15.19-33.3c16.28,0,9.57-9.14,20.65-19.72s49.79-19,58,1.4S89,58.92,108.7,56.26c23.65-3.2,33,18.35,33,18.35Z"/><path class="cls-2" d="M133.94,70.39c-1.46-1.07-4.44-.35-6.64.42a10.06,10.06,0,0,0-1.21-1.4c4.74-3.06,11.29-9.57,7.82-10.12-3-.48-7.09,5.38-9.27,8.95-2.26-1.52-5.72-2.64-11-2.25-13.72,1-24.44-7.85-32.34-4.89-6.28,2.34-12,3.66-17.59,3.21.24-4.06.29-12-2.9-12.85s-.06,8.21,1.7,12.72c-.41-.05-.82-.11-1.23-.19-1.15-2.25-3-5.19-5.09-5.29s.45,2.55,2.82,4.79c-6.79-1.42-14.85,4.1-15,10.62h84.77a7.73,7.73,0,0,0-.82-2.2C131.25,71.84,135.53,71.54,133.94,70.39Z"/><rect class="cls-3" x="40.17" y="69.07" width="22.34" height="5.05"/><rect class="cls-4" x="33.28" y="69.07" width="22.34" height="5.05"/><rect class="cls-5" x="71.3" y="50.86" width="16.64" height="23.25" transform="translate(159.23 124.97) rotate(180)"/><rect class="cls-6" x="66.17" y="50.86" width="16.64" height="23.25" transform="translate(148.97 124.97) rotate(180)"/><polygon class="cls-7" points="82.81 50.86 87.94 54.35 87.94 50.86 82.81 50.86"/><path class="cls-8" d="M31.45,56s-3.11,2.32-3.72,2.17S30,55.69,30,55.69c-1.09-.52-4.46-.2-4.46-.2s-1.12,3.62-1.67,3.34S25,55.67,25,55.67a5.75,5.75,0,0,0-2.68.83c-2,1.6.13,4.12.13,4.12A6.24,6.24,0,0,1,20.78,63a5.32,5.32,0,0,0-2,3.77l.33,0a9.48,9.48,0,0,1,1.48-3.32l.16-.16.34-.33a4.78,4.78,0,0,1,1.45-1.1.55.55,0,0,1,0-.16l0,.16c.11,1.28,2.58,2.39,4.1,2.62s1-.4.52-1.33S25,61.84,24.65,61.42s.41-.43,1.32,0,1,1.53,2.51,2.23,3.68-1.73,3.68-1.73c-1.17-.06-2.84-1.33-2.78-1.72s2.84.67,3.32.72,1.55-.54,1.72-2.45S31.45,56,31.45,56Z"/><path class="cls-2" d="M14.93,57.45s3.43-1.93,1.83-4.54a6.78,6.78,0,0,0-2.66-2s.73,3.89,0,4-.5-4.4-.5-4.4-3.62-1.74-5-1.6c0,0,2.24,3.8,1.51,3.71s-3.25-3.94-3.25-3.94S3.1,48,2.51,50.16s.37,3.3.91,3.44,4.08.09,4,.55-2.47,1.19-3.8.78c0,0,1.46,3.62,3.39,3.43S9.52,57,10.71,56.9s2.06.23,1.47.55-2.62.1-3.58.92-1.74,1.32.05,1.69,5,.14,5.63-1.24Z"/><path class="cls-8" d="M15.84,60.79a7.25,7.25,0,0,1-.91-3.34C13.83,54,4.2,50.85,4.2,50.85c12.24,4.95,10.08,8,10.08,8a5.64,5.64,0,0,1,1.17,1.82c.05.12.13.28.24.51h0a2.15,2.15,0,0,1,.11.24,11.11,11.11,0,0,1,.3,4.3l.38.1A6.34,6.34,0,0,0,15.84,60.79Z"/><path class="cls-2" d="M20.39,54.79s-4.53-2.53-2.41-6a9,9,0,0,1,3.5-2.65s-1,5.13,0,5.25.66-5.8.66-5.8,4.78-2.29,6.65-2.11c0,0-3,5-2,4.89s4.29-5.19,4.29-5.19,4.9-.91,5.68,2-.48,4.35-1.21,4.53-5.37.12-5.25.73,3.26,1.57,5,1c0,0-1.93,4.77-4.47,4.53S27.52,54.19,26,54.07s-2.72.3-1.93.72,3.44.14,4.71,1.22,2.29,1.74-.06,2.23-6.59.18-7.43-1.63Z"/><path class="cls-8" d="M34.53,46.1s-12.69,4.1-14.14,8.69a9.62,9.62,0,0,1-1.21,4.41,8.4,8.4,0,0,0-.84,6.59l.51-.14s-.44-3.58.39-5.66c0-.08.08-.19.14-.32h0c.15-.3.26-.52.32-.67a7.38,7.38,0,0,1,1.54-2.39S18.4,52.62,34.53,46.1Z"/><path class="cls-6" d="M20.24,73.63a8.87,8.87,0,0,0,8.87-8.87H11.37A8.87,8.87,0,0,0,20.24,73.63Z"/><path class="cls-9" d="M22.42,73.56a8,8,0,0,1-1.1.07,8.87,8.87,0,0,1-8.87-8.87h2.2A8.87,8.87,0,0,0,22.42,73.56Z"/><path class="cls-6" d="M28.14,73H12.34a1.09,1.09,0,0,0-1.1,1.09h18A1.09,1.09,0,0,0,28.14,73Z"/><path class="cls-5" d="M29.18,64.76h-18a.14.14,0,0,0-.14.13.14.14,0,0,0,.14.14h18a.14.14,0,0,0,.14-.14A.14.14,0,0,0,29.18,64.76Z"/><path class="cls-10" d="M97.65,18c-.26,0-1,.68-1,.68h0c-1.66.19-4.08.63-5,.8a11.2,11.2,0,0,1-3.9-1.1c-1.93-.77-3.8-1.67-3.8-1.67-1.07,0-2.29,1.9-.12,3.14a16,16,0,0,0,3,.81h0a22.69,22.69,0,0,0,5.11.64,29.09,29.09,0,0,0,5.1-1.83h0a1.69,1.69,0,0,1,.73-.2,1.68,1.68,0,0,0,1-.66C98.8,18.49,97.91,18.07,97.65,18Z"/><path class="cls-11" d="M95.63,42.63l-.91.19s-4.17-4.69-4.82-6.66c-.34-1-2.54-1.51-4.84-2.1-2-.52-4.08-1.14-5.07-2.36-2.14-2.62,1.34-5.83,1.34-5.83s3.69,2.2,6.87,4.46c2.23,1.59,4.21,3.21,4.5,4.14C93.43,36.73,95,41,95.63,42.63Z"/><path class="cls-12" d="M94.41,44.18h.51c.17,0,.3-.08.48-.1a.44.44,0,0,1,.41.1H98c.06-.07,0-.26,0-.39a.28.28,0,0,0-.2-.18,2.35,2.35,0,0,1-1.1-.51c-.24-.21-1.13-.78-1.13-.78h0s-.11,0-.52.38c-.21.17-.57-.26-.57-.26a.56.56,0,0,0-.12.16.6.6,0,0,0-.05.34,2.12,2.12,0,0,1-.15.81c0,.14-.1.25-.1.25S94,44.12,94.41,44.18Z"/><path class="cls-13" d="M88.2,30.33l-3.14,3.73c-2-.52-4.08-1.14-5.07-2.36-2.14-2.62,1.34-5.83,1.34-5.83S85,28.07,88.2,30.33Z"/><path class="cls-11" d="M85.35,28.39s-.26.8-.67,2c-.52,1.52-1.3,3.68-2.14,5.69L82,37.37a14.11,14.11,0,0,1-2,3.54c-1.13,1.21-3.89,9-3.89,9l-.69-.19s-1-6.64,2.44-10.42a.27.27,0,0,0,.07-.14h0c0-.56.21-3.07.56-5.6.08-.63.18-1.25.29-1.85a.52.52,0,0,0,0-.11c.52-2.77,1-4,1.65-4.62l4.7,1.34Z"/><path class="cls-12" d="M75.27,50.86h.51c.17,0,.3-.08.47-.1a.46.46,0,0,1,.42.1h2.18c.05-.08,0-.26,0-.39a.31.31,0,0,0-.2-.19,2.37,2.37,0,0,1-1.11-.5c-.23-.21-1.13-.78-1.13-.78h0s-.12,0-.53.37c-.21.18-.57-.25-.57-.25a.67.67,0,0,0-.11.16.56.56,0,0,0-.05.33,2.08,2.08,0,0,1-.16.81l-.09.26S74.83,50.8,75.27,50.86Z"/><path class="cls-14" d="M76.27,19.35s-.78,1.93-1.69,3.8a11.21,11.21,0,0,1-2.14,3.43c-.76.47-2.85,1.77-4.2,2.74,0,0-1,0-1.22.2s-.54,1.11-.43,1.2a1.62,1.62,0,0,0,1.15-.16,1.94,1.94,0,0,1,.68-.34h0a28.51,28.51,0,0,0,5-2.08,22.22,22.22,0,0,0,3.35-3.91h0a16.71,16.71,0,0,0,1.68-2.62C79.24,19.22,77,18.59,76.27,19.35Z"/><path class="cls-15" d="M80.38,11.82a2.82,2.82,0,0,0-.28-.36.83.83,0,0,0,.35-.06c.27-.11.4-1,.36-1.25s-.43-1-.9-1.08-1,.45-1,.45c.09-.38.89-.6.89-.6-1.65.3-1.57,1.4-1.55,1.5-1.51-.53-2.4,2.3-2.4,2.3L79.8,15s0-.62.38-.58C80.76,14.5,81.24,13.08,80.38,11.82Z"/><path class="cls-14" d="M80.63,17.77a2.7,2.7,0,0,1-2.08-.19c.08-.08,0-.31,0-.61A4.31,4.31,0,0,0,78,15.72c-.07-.11-.13-.22-.21-.33l.11,0,1.74-.7s.28.51.57,1,.51.73.63.71S82,17.12,80.63,17.77Z"/><path class="cls-10" d="M79.63,14.82A2.58,2.58,0,0,1,78.53,17,4.31,4.31,0,0,0,78,15.72Z"/><path class="cls-14" d="M77.89,16.43s2.26-.9,1.68-2.3-.67-2.46-2.14-2S75.9,13.34,76,13.86,77.28,16.62,77.89,16.43Z"/><path class="cls-15" d="M78.73,13.81a2,2,0,0,0,1.35-.57A2.93,2.93,0,0,1,78.55,12a2.39,2.39,0,0,0-2,.27.53.53,0,0,0-.11.24c-.2-.06-.5,0-.68.52-.26.85.67,1.77.67,1.77.22-.06,0-.82-.07-1.22a2.09,2.09,0,0,1,.22-.86,4.1,4.1,0,0,0,2.57,1.59,5.66,5.66,0,0,1-1.36-.73A1.67,1.67,0,0,0,78.73,13.81Z"/><path class="cls-4" d="M84.94,20.66l-.06-.21a5.18,5.18,0,0,0,.57-1.71,3.35,3.35,0,0,0-.11-1.68,11.72,11.72,0,0,0-2.26-.94h0a9.41,9.41,0,0,0-2.21.21,1.1,1.1,0,0,1-.54,1.3,1.61,1.61,0,0,1-1.7-.13l-.09.05h0a20.08,20.08,0,0,0-2.36,1.76c-.2.33-1,2-1,2s.26,1.36,3.19,1.48a6.31,6.31,0,0,1,.49,1.63c.23,1.84,0,3.3.23,4.38s5.17.46,6.06.26.68-1.16.75-2.08A34,34,0,0,0,84.94,20.66Z"/><path class="cls-16" d="M85.45,18.74a5.3,5.3,0,0,1-.57,1.72,5.75,5.75,0,0,0-.9-2.14A4.19,4.19,0,0,1,85.45,18.74Z"/><path class="cls-10" d="M65.53,30.84a14.76,14.76,0,0,1,1.11-1.23,3.2,3.2,0,0,1,1.1-.31c.05,0,.05.11,0,.2s-.52.33-.46.36,1.29-.58,1.47-.38-.11,1.06-.58,1.46a6.57,6.57,0,0,1-2,.64C65.39,32.06,65.53,30.84,65.53,30.84Z"/><path class="cls-14" d="M49.48,28.29a2.83,2.83,0,0,0,3,.91,5.17,5.17,0,0,0,.37-1.51v-.23c0-.72,0-1.12,0-1.12h0c-.07,0-2.55-1.05-2.55-1A4.36,4.36,0,0,1,49.48,28.29Z"/><path class="cls-10" d="M50.55,25.84a3.87,3.87,0,0,0,2.27,1.62c0-.72,0-1.12,0-1.12h0A15.78,15.78,0,0,0,50.55,25.84Z"/><path class="cls-14" d="M53.37,26.26s-2.78.66-3.16-1.08-1-2.83.76-3.32,2.25.1,2.52.65S54.09,26.05,53.37,26.26Z"/><path class="cls-17" d="M50.3,25.65s-.63.21-1.77-2a2,2,0,0,1,.12-1.8c.41-.68,1.89-1.21,3.11-1.44s1.51.46,1.8,1.15a3.74,3.74,0,0,0,1.18,1.32c-1.06.59-2.33-.25-2.77-.12s-.59.84-.63,1.06-.08.4-.63.21-.25.78-.16,1C50.55,25,50.62,25.45,50.3,25.65Z"/><path class="cls-15" d="M43.14,69.07H41.45c-.35,0-.74-.36-.84-1s-.83-1-1-1.56.65-1.29.65-1.29l.13-.17.14-.19,1.33.32s0,.32.06.73,0,.64,0,.94c0,.72.2,1.49.83,1.63S43.14,69.07,43.14,69.07Z"/><path class="cls-15" d="M54.86,69.09H50.4l-.1,0c-.29-.16-.2-1.33-.16-1.69a.5.5,0,0,1,0-.11S51.72,66,51.93,67l0,.09h0c.27.92,1.49,1.35,2.19,1.46A.76.76,0,0,1,54.86,69.09Z"/><path class="cls-18" d="M54,43.26s-.23,3-.51,6.56c-.38,4.85-.84,10.82-.89,12-.08,2-.39,5.11-.39,5.11a2.5,2.5,0,0,1-2.24.43,51.52,51.52,0,0,1-1.71-9.23l0-.23c-.35-4.83-.9-15-.9-15Z"/><path class="cls-19" d="M54,43.26s-.23,3-.51,6.56l-5.23,8.26,0-.23c-.35-4.83-.9-15-.9-15Z"/><path class="cls-18" d="M52.88,43.62s-4.3,10.77-7.13,15.84S42,65.93,42,65.93s-1.62-.64-1.76-1.09c0,0,1.08-9.77,3-12.16a17.83,17.83,0,0,0,2.38-6.8c.06-1.41.39-4.21.39-4.21Z"/><path class="cls-10" d="M43,41.82a14.62,14.62,0,0,1-.19,1.55,3,3,0,0,1-.69.84c-.06,0-.1-.06-.07-.19s.22-.53.16-.52-.68,1.14-.92,1.08-.49-.87-.35-1.44,1.15-1.46,1.19-1.56C42.48,40.81,43,41.82,43,41.82Z"/><path class="cls-13" d="M42.57,42.16c.48.16.56.12.56.12s2.31-4.21,2.55-4.6S50.59,33,50.59,33l-1.2-4.48s-5.33,6.89-5.9,7.88A21,21,0,0,0,42,41.78,1.41,1.41,0,0,0,42.57,42.16Z"/><path class="cls-20" d="M54.87,34.71c0,.93-.07,2-.14,3v.19c0,.65-.1,1.31-.16,1.94,0,.26,0,.51-.07.76v0l0,.29c-.23,2.38-.48,4.27-.52,4.3a.31.31,0,0,1-.19,0,26.5,26.5,0,0,1-4-.27,11.46,11.46,0,0,1-3.58-1.48c-.15-.09-.51-.34-.48-.52s.08-.49.15-.85a47.45,47.45,0,0,0,.77-6c0-.48.06-1,.11-1.41a20.27,20.27,0,0,1,.63-3.36c.52-1.89,1.29-3.34,2.26-3.9.12-.07.8.36,1.43.76a2.74,2.74,0,0,0,1.77.42l.52.58a5.75,5.75,0,0,1,1.48,3.08q0,.15,0,.33A18.81,18.81,0,0,1,54.87,34.71Z"/><path class="cls-13" d="M54.87,34.71c0,.93-.07,2-.14,3v.19a9.62,9.62,0,0,1-4.13-6.33,9.75,9.75,0,0,1,4.23,1.06A18.81,18.81,0,0,1,54.87,34.71Z"/><path class="cls-20" d="M66.07,31c-.18-.49-.47-.46-.47-.46s-5.31,1.32-5.79,1.38a56.23,56.23,0,0,1-5.72-2.05s-2.07-.92-3-.08a2.44,2.44,0,0,0,1.3,4.19,61.64,61.64,0,0,0,7.3.66c2-.27,6.51-2.88,6.51-2.88A1.8,1.8,0,0,0,66.07,31Z"/><g id="man"><path class="cls-15" d="M118.47,40.7s.74.68.59,1.17-.81.81-.9,1.4-.45.92-.77.92h-1.55s-.23-.42.34-.55.8-.82.76-1.47a11.11,11.11,0,0,1,0-1.51l1.23-.29Z"/><path class="cls-15" d="M109.27,44.11a2.94,2.94,0,0,1-.7.08h-3.5a.7.7,0,0,1,.67-.57c.65-.1,1.76-.48,2-1.3a.31.31,0,0,0,0-.08c.2-.89,1.64.27,1.64.27a.31.31,0,0,1,0,.09C109.46,42.92,109.54,44,109.27,44.11Z"/><path class="cls-21" d="M105.91,20.51s.22,2.73.48,6c.35,4.46.77,9.93.81,11,.07,1.8.36,4.68.36,4.68a2.28,2.28,0,0,0,2,.4,47.37,47.37,0,0,0,1.57-8.47l0-.21c.32-4.43.82-13.76.82-13.76Z"/><path class="cls-15" d="M105.91,20.51s.22,2.73.48,6l4.79,7.58,0-.21c.32-4.43.82-13.76.82-13.76Z"/><path class="cls-21" d="M106.91,20.83s3.94,9.89,6.54,14.53,3.4,6,3.4,6,1.49-.6,1.62-1c0,0-1-9-2.73-11.16a16.51,16.51,0,0,1-2.19-6.24c0-1.3-.35-3.86-.35-3.86Z"/><path class="cls-14" d="M94.75,15.47a12.57,12.57,0,0,0-1.25-.23,2.59,2.59,0,0,0-.82.32c0,.06,0,.1.13.1s.47,0,.44,0-1,.25-1.06.45.55.6,1,.62a5.21,5.21,0,0,0,1.5-.53C95.4,16.15,94.75,15.47,94.75,15.47Z"/><path class="cls-19" d="M94.29,15.74c-.16-.49-.12-.57-.12-.57s4.34-2.34,4.73-2.58,4.88-5,4.88-5l4.59,1.26s-7.1,5.41-8.12,6c-1.68,1-5.58,1.51-5.58,1.51A1.4,1.4,0,0,1,94.29,15.74Z"/><path class="cls-14" d="M105.17,5.27S103.56,8.1,102,8.47a4.37,4.37,0,0,1,.45-1.6c-.16-.19-.3-.36-.41-.51a9.76,9.76,0,0,1-.59-.82L102,4.11l.36-1a4.36,4.36,0,0,0,.56.82A3.89,3.89,0,0,0,105.17,5.27Z"/><path class="cls-10" d="M102.9,4A3,3,0,0,1,102,6.36a9.76,9.76,0,0,1-.59-.82L102,4.11A2.85,2.85,0,0,1,102.9,4Z"/><path class="cls-14" d="M101,5.75s2.4-.94,1.79-2.42-.7-2.62-2.26-2.08S98.92,2.47,99,3,100.38,6,101,5.75Z"/><path class="cls-18" d="M113.44,19.8c-1,1.39-8.22,3.25-8.14,2.29a10.62,10.62,0,0,0,0-1.91c0-.2,0-.42-.08-.65a15.18,15.18,0,0,0-1.59-4.79l-.23-.43a14.61,14.61,0,0,1-1-2.26,7,7,0,0,1-.45-3.75h0c1.52-.7,2.11-3.42,2.11-3.42s5.17.93,8.07,7.82C112.12,12.69,114.28,18.58,113.44,19.8Z"/><path class="cls-19" d="M105.3,20.18c0-.2,0-.42-.08-.65a15.18,15.18,0,0,0-1.59-4.79,6.43,6.43,0,0,1,.65-2.24c1-1.55,1.63-1.79,1.63-1.79S107.46,17.24,105.3,20.18Z"/><path class="cls-14" d="M97.15,18.63a15.53,15.53,0,0,0-1.65.16,3.3,3.3,0,0,0-.91.7c0,.07.06.11.2.08s.57-.22.56-.15-1.24.68-1.18.95.91.54,1.52.41,1.59-1.17,1.68-1.21C98.21,19.25,97.15,18.63,97.15,18.63Z"/><path class="cls-18" d="M96.88,19.18c-.29-.47-.08-.68-.08-.68s4.42-3.46,4.76-3.81a58.08,58.08,0,0,0,2-5.91s.55-2.26,1.84-2.5a2.36,2.36,0,0,1,2.41,1,2.37,2.37,0,0,1,.16,2.69,62.72,62.72,0,0,1-4.07,6.32c-1.48,1.44-6.43,3.44-6.43,3.44A1.65,1.65,0,0,1,96.88,19.18Z"/><path class="cls-11" d="M103.16.56a.31.31,0,0,1,.18-.1.46.46,0,0,0-.24,0,.62.62,0,0,0-.54-.45.41.41,0,0,1,.25.22c-.43-.26-1.21-.34-3.16.31-2.57.85-1.29,2.35-.9,2.47s1.11-.65,1.76-.76,1,.8,1.24.87.1-.13.36-.33.41.27.4.61.5.66.5.66l.29-.54a4.66,4.66,0,0,0-.07-2.85A.61.61,0,0,0,103.16.56Z"/></g><rect class="cls-22" y="74.11" width="145.59" height="0.52" rx="0.26"/><polygon class="cls-23" points="62.51 69.01 62.51 71.92 55.62 69.01 62.51 69.01"/><rect class="cls-3" x="98.68" y="44.19" width="22.78" height="29.93"/><rect class="cls-4" x="91.66" y="44.19" width="22.78" height="29.93"/><polygon class="cls-23" points="121.47 44.19 121.47 48.66 114.44 44.19 121.47 44.19"/></g></g></svg>