<svg xmlns="http://www.w3.org/2000/svg" viewBox="0 0 249.17 115.6"><defs><style>.cls-1{fill:#cec395;}.cls-2{fill:#647659;}.cls-3{fill:#7b8e6d;}.cls-4{fill:#b6ad85;}</style></defs><g id="Layer_2" data-name="Layer 2"><g id="Layer_1-2" data-name="Layer 1"><path class="cls-1" d="M237,85.24c-5.33-5-12.1-8.5-16.33-14.43-4-5.64-5.28-12.83-8.87-18.76a27.37,27.37,0,0,0-15-11.8c-4.75-1.51-9.95-1.72-14.35-4.06-7.74-4.12-10.82-13.4-15.94-20.52C157,2.43,138.33-3.41,122.94,2c-6.74,2.38-12.67,6.61-19.26,9.39-10.89,4.61-23,5.09-34.53,7.8S45.69,27.86,41.21,38.8c-2.29,5.6-2.62,12.4-7.11,16.46C30.36,58.64,24.78,59,20.49,61.7c-6.78,4.21-8.92,12.94-10.24,20.81C8.58,92.44,6.33,115.6,6.33,115.6H249.17S245.2,92.93,237,85.24Z"/><path class="cls-2" d="M62.78,107.16a11.72,11.72,0,0,0-10.88-1c-2.66-5-10.22-6.47-14.55-2.83a15.73,15.73,0,0,0-14.46-6.37,15.76,15.76,0,0,0-12.48,9.7,7.79,7.79,0,0,0-8,1.19C.2,109.69,0,115.6,0,115.6H67.87S65.93,109.28,62.78,107.16Z"/><path class="cls-3" d="M3,112.8a7.8,7.8,0,0,1,8-1.19,15.75,15.75,0,0,1,12.47-9.7A15.76,15.76,0,0,1,38,108.28c4.33-3.64,11.89-2.17,14.54,2.83a11.71,11.71,0,0,1,10.88,1,10.43,10.43,0,0,1,2.92,3.46h1.57s-1.94-6.32-5.09-8.44a11.72,11.72,0,0,0-10.88-1c-2.66-5-10.22-6.47-14.55-2.83a15.73,15.73,0,0,0-14.46-6.37,15.76,15.76,0,0,0-12.48,9.7,7.79,7.79,0,0,0-8,1.19C.2,109.69,0,115.6,0,115.6H1.41A6.17,6.17,0,0,1,3,112.8Z"/><path class="cls-4" d="M142,17.27a65.71,65.71,0,0,1-14.36,2.84,24.08,24.08,0,0,0,9.75.17c2.11-.41,4.63-1,6.15.53a6,6,0,0,1,.89,1.24,42.67,42.67,0,0,0,4.28,5.88,9.28,9.28,0,0,1,3.63.61,3.16,3.16,0,0,1,2,2.86c-.08,1.48-1.5,2.5-2.86,3.09s-2.89,1.06-3.76,2.26L151,39.83a2.22,2.22,0,0,1,.74,1,2,2,0,0,1-.26,1.27,40.46,40.46,0,0,0-2.34,4.59c-.53,1.64-.36,3.7,1,4.72s3.16.64,4.69.07c5.31-2,9.48-6.08,14.31-9A35.41,35.41,0,0,1,181,37.87,9.48,9.48,0,0,0,184,37c-.54-.22-1.07-.47-1.59-.74-7.74-4.12-10.82-13.4-15.94-20.52A37.88,37.88,0,0,0,148.76,2.5c.1,1.6,1.1,3.59-.8,5.22-1.25,1.07-3,1.44-4.3,2.39s-2.19,3.06-1,4.19c.34.33.83.54,1,1C144.08,16.19,142.91,17,142,17.27Z"/><path class="cls-2" d="M160.15,53.1a12.29,12.29,0,0,1,7.56-7.53,18.46,18.46,0,0,1,5.11-.5A11.75,11.75,0,0,1,177,42.39a38.54,38.54,0,0,1,20.89-1.77c1.41-2.3-.21-6.13-2.26-7.88A11,11,0,0,0,188,30.55a9.85,9.85,0,0,1-3.68-.23,12.62,12.62,0,0,1-2.69-1.74,10.81,10.81,0,0,0-17,9.35,6.33,6.33,0,0,0-10,6.46,18.93,18.93,0,0,0-10,1.63c-1.11.51-2.43,1.08-2.83,2.23C137.64,60.34,160.15,53.1,160.15,53.1Z"/><path class="cls-3" d="M143.12,51.74c.4-1.15,1.72-1.72,2.83-2.23a18.9,18.9,0,0,1,10-1.63,6.33,6.33,0,0,1,10-6.46,10.81,10.81,0,0,1,17-9.35,12.25,12.25,0,0,0,2.69,1.74,9.85,9.85,0,0,0,3.68.23,11,11,0,0,1,7.59,2.19,7.6,7.6,0,0,1,1.45,1.7,8.53,8.53,0,0,0-2.75-5.19A11,11,0,0,0,188,30.55a9.85,9.85,0,0,1-3.68-.23,12.62,12.62,0,0,1-2.69-1.74,10.81,10.81,0,0,0-17,9.35,6.33,6.33,0,0,0-10.05,6.46A18.91,18.91,0,0,0,144.65,46c-1.11.51-2.43,1.08-2.83,2.23-1,2.82-.49,4.58.81,5.64A9,9,0,0,1,143.12,51.74Z"/><path class="cls-4" d="M237,85.24c-5.33-5-12.1-8.5-16.33-14.43-4-5.64-5.28-12.83-8.87-18.76a27.35,27.35,0,0,0-3.19-4.24A3.81,3.81,0,0,1,207,49.48c-1.8.86-3.89.73-5.88.7a52,52,0,0,0-13.33,1.53,8.47,8.47,0,0,0-3.5,1.52,3.23,3.23,0,0,0-1.13,3.42c.63,1.68,3,2.32,3.39,4.06a180.9,180.9,0,0,1-27,3.31c.15,1.19,1.78,1.37,3,1.24a137.76,137.76,0,0,1,16.25-.84c1.29,0,2.93.31,3.19,1.57-.57-.34-1,.75-.59,1.26s1.14.7,1.54,1.22c1,1.28-.63,3.33.25,4.68.74,1.12,2.59.79,3.57,1.7s.59,2.61-.4,3.46a7,7,0,0,1-3.67,1.28c-8.73,1.25-17.73,2.12-25.63,6-3.39,1.68-6.89,4.68-6.44,8.43,4.17-4.63,10.09-7.39,16.15-8.79s12.35-1.56,18.57-1.7a3.17,3.17,0,0,1,2.35.58c.81.81.52,2.27,1.24,3.16,1,1.27,3.09.5,4.69.86,3.21.73,3.42,5.44,6,7.51.58.47,1.28.8,1.81,1.32a4.65,4.65,0,0,1,1,4.22,27,27,0,0,1-1.56,4.24c-1.25,3.2-1.53,7.1.56,9.83a3.76,3.76,0,0,0,.25.31h47.61S245.2,92.93,237,85.24Z"/><path class="cls-2" d="M208,113.06A13.31,13.31,0,0,0,182,108c-2.54-5.23-10.42-6.82-14.78-3-5-5.32-15.28-3.63-18.31,3-7.41-3.11-16.89.61-20.9,7.57h90.16C217.35,111.38,210.58,110,208,113.06Z"/><path class="cls-3" d="M148.92,113.44c3-6.64,13.31-8.33,18.31-3,4.36-3.84,12.24-2.25,14.78,3a13.28,13.28,0,0,1,25.84,2.19h10.33c-.83-4.22-7.6-5.62-10.21-2.54A13.31,13.31,0,0,0,182,108c-2.54-5.23-10.42-6.82-14.78-3-5-5.32-15.28-3.63-18.31,3-7.41-3.11-16.89.61-20.9,7.57h5C137.68,112.4,143.8,111.29,148.92,113.44Z"/><path class="cls-4" d="M105.26,91.43a24.21,24.21,0,0,0-2.7-7c-2.56-3.92-7.13-6-10.58-9.14-3-2.79-5.21-6.45-8.26-9.24-4.1-3.76-30.57-14-28.78-1.33-1.68.47-3.47.6-5.19,1,1.44-.3,2.13,2.07,1.1,3.12s-2.7,1-4.17,1l-4.13-.23c-.93-.05-2.23.25-2.15,1.18.06.65.79,1,1.41,1.16,10.58,3.24,21.34,6.5,32.4,6.6a12.91,12.91,0,0,1,5.44.74c1.68.78,3,2.73,2.35,4.47a9,9,0,0,0-.77,1.82c-.38,2.6,4.74,4.22,3.43,6.5-.92,1.6-4,.77-4.69,2.49a8,8,0,0,1,4.81,1.59c-1,2.52-4.27,3.2-7,3.37a68.71,68.71,0,0,1-14.33-.61c-1.85-.28-4.6.16-4.36,2q12.76,1.55,25.62,2c.2,2.32-2.18,3.88-3.93,5.42a10.24,10.24,0,0,0-3.5,6,7.73,7.73,0,0,0-.07,1.27h34.55Z"/><path class="cls-4" d="M90,26.62c.35,1.24-1.11,2.2-2.35,2.58-7.69,2.34-16.36.41-23.71,3.65-.49.22-1,.87-.57,1.16a44.34,44.34,0,0,1,20.47-1.22,6.3,6.3,0,0,1,3.54,1.48c.93,1,1.2,2.36,1.72,3.59,1,2.44,3,4.3,4.42,6.54s2.11,5.35.44,7.4a5.68,5.68,0,0,1-4.64,1.79,23.06,23.06,0,0,1-5-1.05,42,42,0,0,0-10.34-1.37c-.16,1.18,1.46,1.64,2.65,1.69A51.36,51.36,0,0,1,89.37,55a4.07,4.07,0,0,1,1.92,1,1.49,1.49,0,0,1,.11,2,2.86,2.86,0,0,1,3.49,1.59,4.28,4.28,0,0,0,.69,1.55c.8.78,2.11.09,3.23,0,1.78-.11,3.25,1.52,3.71,3.24a18.92,18.92,0,0,1,.15,5.32c0,1.78.22,3.71,1.48,5,1.69,1.7,4.72,1.69,6.08,3.66.94,1.35,6.86,6.55,8.16,7.55,7.22,5.59,9.81,20.52,10.82,19.55,2.68-2.56,1.84-18.15-9.42-28.86-7.92-7.52-6.71-21-5.18-31.84A17.82,17.82,0,0,0,115,39.3a7.14,7.14,0,0,0-4.61-5.45c-1.81-.62-3.87-.51-5.53-1.46a12.33,12.33,0,0,1-2.33-2c-2-2-12.81-9.67-15.17-6.1C88.05,25,89.67,25.45,90,26.62Z"/><path class="cls-2" d="M102.1,31.12a29.54,29.54,0,0,1,16.78-8.35c1.47-.2,3.27-.52,3.74-1.92s-.89-2.88-2.29-3.52A10,10,0,0,0,109.69,19c-.62-2.3-3.86-3-5.92-1.79s-3.13,3.55-3.85,5.83a8.94,8.94,0,0,0-4.21-4.6c-2-.83-4.58-.33-5.61,1.53a2.87,2.87,0,0,1-.71,1c-1,.66-2-.53-3-1.19a3.54,3.54,0,0,0-5.28,1.6c-1.17,3.66,1.54,2.45,3.61,3C91,26.22,96.56,27.16,102.1,31.12Z"/><path class="cls-3" d="M81.27,23.84a3.58,3.58,0,0,1,5.14-1.25c.94.67,2,1.86,3,1.2a2.93,2.93,0,0,0,.72-1.06c1-1.85,3.65-2.36,5.61-1.52a8.88,8.88,0,0,1,4.21,4.59c.72-2.27,1.79-4.63,3.85-5.83s5.3-.51,5.92,1.79a10,10,0,0,1,10.64-1.62,4.91,4.91,0,0,1,1.84,1.44,2,2,0,0,0,.45-.73c.49-1.46-.89-2.88-2.29-3.52A10,10,0,0,0,109.69,19c-.62-2.3-3.86-3-5.92-1.79s-3.13,3.55-3.85,5.83a8.94,8.94,0,0,0-4.21-4.6c-2-.83-4.58-.33-5.61,1.53a2.89,2.89,0,0,1-.72,1c-.94.66-2-.53-3-1.19a3.55,3.55,0,0,0-5.29,1.6C80.67,22.81,80.81,23.49,81.27,23.84Z"/></g></g></svg>