<svg xmlns="http://www.w3.org/2000/svg" viewBox="0 0 341.3 238.15"><defs><style>.cls-1,.cls-25{fill:#a0bfe4;}.cls-1{opacity:0.1;}.cls-2{fill:#286754;}.cls-3{fill:#3c8f7c;}.cls-4{fill:#32806c;}.cls-5{fill:#52c0a6;}.cls-6{fill:#98d5c7;}.cls-7{fill:#f8a492;}.cls-8{fill:#34548a;}.cls-9{fill:#f58761;}.cls-10{fill:#13375b;}.cls-11{fill:#f8cc7f;}.cls-12{fill:#f58d80;}.cls-13{fill:#f37458;}.cls-14{fill:#194655;}.cls-15{fill:#f8a491;}.cls-16{fill:#476eb5;}.cls-17{fill:#f8a592;}.cls-18{fill:#fff;}.cls-19{fill:#dd5339;}.cls-20{fill:#e19840;}.cls-21{fill:#010101;}.cls-22{fill:#0e2e36;}.cls-23{fill:#f37559;}.cls-24{fill:#6b97cd;}</style></defs><g id="Layer_2" data-name="Layer 2"><g id="Layer_1-2" data-name="Layer 1"><path class="cls-1" d="M29.25,236.67H327.71c24.73-20.64,12-82.74-8.66-95.32-22.24-13.55,13.08-60.42-21.19-75.63-22.37-9.93-58,.9-53.16-25.67C251.34,3.2,173.77-6.24,116.62,3.69c-61.78,10.74-5.36,63.53-73.3,74.17-34.94,5.47-28.19,52.26-24.93,61.93C21.22,148.22,40,161.58,13.91,180-24.35,207,28.35,236.17,29.25,236.67Z"/><path class="cls-2" d="M294.36,79.06s-4.89,10.63-8.18,15.13-6.42,8.79-9,21.26-2.18,13.72-2.89,16.94-5.39,16.27-5.42,18.67-9.44,16-11.86,22.39-6.68,15.48-6.44,20.12l1.07-.27a49.93,49.93,0,0,1,8.32-21.74c7.44-10.93,6.38-13,14.83-18.61s13.92-21.12,13.92-21.12,8.6-16.84,8.2-25.59S298.75,89.59,294.36,79.06Z"/><path class="cls-2" d="M282.91,62.7s-.28,7-2.53,11.14-4.2,6.67-4.61,11.16-1.82,16.07-8.11,21.72-7.09,22.59-11.87,27.71-5.41,8.81-4.52,17.59,3.88,21-3.06,36.86l-1.57-3.95s5-13.08,3.76-20.74S245,145,246.55,139.42s-4.16-6.63-.73-15,2-11.31,6.68-18.57c0,0,.48-.34,1.71-6.48S265.32,82,269.88,78.12,281,68.13,282.91,62.7Z"/><path class="cls-3" d="M264.35,97.29s-5.46,9.35-5.54,15.36.58,10.91-2.18,19.14,2.72,13.45,1.14,18-1.7,9.93-1.66,14-6.25,17.59-7.21,24.43.27,6.87.27,6.87,1-9,2.49-12,5.86-13.29,6.89-17.27,3.82-6.54,6.23-13.29,5.83-12.43,5.57-22S273.94,110.84,264.35,97.29Z"/><path class="cls-3" d="M252.8,188.83s2.54-11.86,13.27-13.05,17,.94,24.62-7.72,12-22.42,14.41-24.78c0,0-3.81-2-10.14,4s-10.79,10.41-14.45,13.86-6.65,1.2-10.52,3.47c-3.24,1.91-7.44,7.41-9.28,10.29a13.06,13.06,0,0,1-2.13,2.55c-.75.69-1.63,1.53-2.2,2.15-1.14,1.24-4.41,9.31-4.41,9.31Z"/><path class="cls-3" d="M249,186.73s3.79-14.5,1.25-21.6-10.46-12.34-10.14-16.8,5.41-16.51,1.25-25.48c0,0-1.57,8-3.13,9.78s-12.23,9-10.34,18.44,12.27,11.7,14.83,14.49,6,2.78,6,4.64.7,8.6-.45,15.26Z"/><path class="cls-4" d="M253.15,177l5.31-15.31s3.12-12.31,4.93-22.57,1-41.86,1-41.86-5.46,9.35-5.54,15.36.58,10.91-2.18,19.14,2.72,13.45,1.14,18-1.71,9.93-1.66,14-6.25,17.59-7.21,24.43c-.52,3.75-.39,5.45-.17,6.22C247.88,188.47,253.15,177,253.15,177Z"/><path class="cls-4" d="M279.32,167.91c-4.74,1-9,.62-14.6,4.81a47.13,47.13,0,0,0-8.94,8.66s-2.53,4.52-3.58,6.91c-.15.36-.23.58-.23.58l.83,0s2.54-11.86,13.27-13.05,17,.94,24.62-7.72,12-22.42,14.41-24.78a120.93,120.93,0,0,0-13.05,11.82C287.07,160.66,284.06,167,279.32,167.91Z"/><path class="cls-4" d="M238.24,132.63c-1.55,1.78-12.23,9-10.34,18.44s12.27,11.7,14.83,14.49,6,2.78,6,4.64.7,8.6-.45,15.26l.31.56a84.3,84.3,0,0,0,1.59-9.56c.41-4.88-.38-6.9-2-10.86s-11.31-12-13.75-16.23,4.71-11.31,6.29-14.73.57-11.79.57-11.79S239.8,130.85,238.24,132.63Z"/><path class="cls-5" d="M263.58,179.73l1.66-4a5.7,5.7,0,0,1,7.4-3.17h0c7,3.07,10.1,11.62,6.83,19.09l-2.38,5.47a6.84,6.84,0,0,0,.73,6.88,6,6,0,0,1,.6,6.06l-1.26,2.88a11.44,11.44,0,0,1-7.15,6.38,7,7,0,0,0-4.32,3.91l-1.78,4.07a8.65,8.65,0,0,1-11.25,4.81L250.24,231a8.66,8.66,0,0,1-4.12-11.52h0c3.18-5.39,2.93-9.42,1.8-12.15a16.29,16.29,0,0,1,.16-12.74l.25-.57a16.22,16.22,0,0,1,9.9-9C260.15,184.47,262.16,183,263.58,179.73Z"/><path class="cls-6" d="M233.54,236.67c3.41-4.43,22.13-28.14,34.34-32.09,13.47-4.37.77,13,.77,13s23.9-26.14,32.68-23.78c8,2.16,0,18.36,0,18.36s9.05-9,20-9c10.69,0-7.46,31.81-8.44,33.52Z"/><path class="cls-3" d="M305.57,185.37a157.47,157.47,0,0,0-21,50.19l-.67-.18a158.61,158.61,0,0,1,20.89-49.77c2.27-3.54,4.71-7.74,8.95-9.12.09,0,.12.1,0,.13C309.93,178.08,307.69,182.06,305.57,185.37Z"/><path class="cls-3" d="M287,236.2a196.94,196.94,0,0,1,40-40.49c.16-.12.37.16.21.28a196.32,196.32,0,0,0-39.33,40.43Z"/><path class="cls-3" d="M306.46,175.91a7,7,0,0,1,1.5,2.6,5.43,5.43,0,0,1,.05,2.66,5.93,5.93,0,0,0,1.48-2.57,5.72,5.72,0,0,0-.45-4.36c-1-1.59-2.83-1.75-3.18-1S306,175.07,306.46,175.91Z"/><path class="cls-3" d="M308.8,189.53a7,7,0,0,0-2.57-1.55,5.17,5.17,0,0,0-2.65-.1,5.65,5.65,0,0,1,2.59-1.44,5.72,5.72,0,0,1,4.35.54c1.57,1.06,1.69,2.87.91,3.2S309.63,190.05,308.8,189.53Z"/><path class="cls-3" d="M305.27,195.49a6.92,6.92,0,0,0-2.57-1.55,5.44,5.44,0,0,0-2.65-.1,5.87,5.87,0,0,1,2.6-1.43A5.65,5.65,0,0,1,307,193c1.57,1.06,1.7,2.86.92,3.2S306.1,196,305.27,195.49Z"/><path class="cls-3" d="M317.85,209.33a7,7,0,0,0-2.57-1.55,5.43,5.43,0,0,0-2.65-.1,5.79,5.79,0,0,1,2.59-1.43,5.68,5.68,0,0,1,4.35.54c1.57,1.06,1.69,2.86.91,3.2S318.68,209.85,317.85,209.33Z"/><path class="cls-3" d="M324.27,203.67a6.92,6.92,0,0,0-2.57-1.55,5.44,5.44,0,0,0-2.65-.1,6,6,0,0,1,2.6-1.43,5.65,5.65,0,0,1,4.34.54c1.57,1.06,1.7,2.86.92,3.2S325.1,204.19,324.27,203.67Z"/><path class="cls-3" d="M301.53,182.66a7,7,0,0,1,1.89,2.34,5.37,5.37,0,0,1,.46,2.61,6,6,0,0,0-.07-7c-1.27-1.41-3.07-1.28-3.3-.47S300.9,181.91,301.53,182.66Z"/><path class="cls-3" d="M296.34,189.43a6,6,0,0,1,2.73,1.79,4.6,4.6,0,0,1,.92,2.72,7.69,7.69,0,0,0,1-3.55c.11-1.87-1-3.86-2-4.23-1.82-1-4.14-.11-4.33.89S295.44,188.86,296.34,189.43Z"/><path class="cls-3" d="M290.89,199.68a6,6,0,0,1,3,1.31,4.64,4.64,0,0,1,1.36,2.52,7.71,7.71,0,0,0,.43-3.67C295.46,198,294,196.2,293,196c-2-.71-4.09.58-4.11,1.61S289.9,199.27,290.89,199.68Z"/><path class="cls-3" d="M307,206.82a4.88,4.88,0,0,1,2.12,1.61,3.82,3.82,0,0,1,.6,2.26,6.43,6.43,0,0,0,1-2.82c.19-1.52-.6-3.2-1.37-3.56-1.42-.94-3.36-.33-3.57.48S306.33,206.31,307,206.82Z"/><path class="cls-3" d="M315.44,178.31a4.1,4.1,0,0,0-1.45-1,3.2,3.2,0,0,0-1.57-.17,3.52,3.52,0,0,1,4.15-.23c.88.7.88,1.77.4,1.94S315.91,178.66,315.44,178.31Z"/><path class="cls-3" d="M313.48,174a4,4,0,0,1-.07,1.77,3.11,3.11,0,0,1-.82,1.35,3.47,3.47,0,0,0,1.56-.82,3.31,3.31,0,0,0,1.15-2.33c0-1.12-.86-1.77-1.28-1.49S313.5,173.37,313.48,174Z"/><path class="cls-3" d="M328.9,197.91a4.1,4.1,0,0,0-1.45-1,3.27,3.27,0,0,0-1.57-.18,3.47,3.47,0,0,1,1.6-.73,3.37,3.37,0,0,1,2.55.51c.88.69.88,1.77.4,1.93S329.37,198.25,328.9,197.91Z"/><path class="cls-3" d="M326.54,193.51a4.15,4.15,0,0,1,.07,1.78,3.18,3.18,0,0,1-.7,1.41,3.44,3.44,0,0,0,1.48-.94,3.35,3.35,0,0,0,1-2.42c-.1-1.12-1-1.69-1.4-1.39A1.81,1.81,0,0,0,326.54,193.51Z"/><path class="cls-3" d="M324.9,221.9c-10,1.09-19.26,5.49-28.2,9.79-6,2.89-5.73,3.72-7,4.15a.25.25,0,0,1-.3-.34,6.73,6.73,0,0,1,2.57-2.11,34.84,34.84,0,0,1,3.12-1.69c2.27-1.11,4.61-2.1,6.93-3.11a101,101,0,0,1,14.5-5.29,51,51,0,0,1,8.33-1.48c.05,0,.06.07,0,.08Z"/><path class="cls-3" d="M315.91,218.81a6.54,6.54,0,0,1,.23,2.77,4.9,4.9,0,0,1-1,2.24,5.51,5.51,0,0,0,3.59-5.39c-.23-1.74-1.68-2.59-2.27-2.08S315.82,217.9,315.91,218.81Z"/><path class="cls-3" d="M307.12,222a6.4,6.4,0,0,1,.23,2.77,4.91,4.91,0,0,1-1,2.25,5.45,5.45,0,0,0,2.26-1.57,5.24,5.24,0,0,0,1.34-3.83c-.24-1.74-1.68-2.58-2.28-2.07S307,221.05,307.12,222Z"/><path class="cls-3" d="M298.2,225.93a6.44,6.44,0,0,1,.22,2.77,5.07,5.07,0,0,1-1,2.25,5.45,5.45,0,0,0,2.26-1.57,5.24,5.24,0,0,0,1.33-3.83c-.23-1.74-1.68-2.58-2.28-2.08A2.85,2.85,0,0,0,298.2,225.93Z"/><path class="cls-3" d="M318.53,227a5.85,5.85,0,0,0-1.38-2.17,4.48,4.48,0,0,0-2-1.09,4.92,4.92,0,0,1,2.54-.11,4.86,4.86,0,0,1,3.12,2.08c.8,1.41.2,2.84-.52,2.8S319,227.73,318.53,227Z"/><path class="cls-3" d="M309.39,230.25a5.93,5.93,0,0,0-1.38-2.17,4.73,4.73,0,0,0-2-1.09,5.12,5.12,0,0,1,5.66,2c.8,1.41.2,2.84-.52,2.8S309.83,231,309.39,230.25Z"/><path class="cls-3" d="M325.49,223.69a3.8,3.8,0,0,0-1.15-1.18,2.88,2.88,0,0,0-1.4-.42,3.09,3.09,0,0,1,1.58-.41,3.17,3.17,0,0,1,2.24.89c.68.79.5,1.76,0,1.83S325.86,224.08,325.49,223.69Z"/><path class="cls-3" d="M324.43,219.39a3.69,3.69,0,0,1-.36,1.61,2.94,2.94,0,0,1-1,1.09,3.26,3.26,0,0,0,1.56-.49,3.13,3.13,0,0,0,1.44-1.92c.17-1-.49-1.77-.92-1.58S324.54,218.86,324.43,219.39Z"/><path class="cls-3" d="M67.61,160.93c-11.72-10.45-17.74-25.45-20.73-36.2a107.64,107.64,0,0,1-3.73-21.07l-.63,0a107.79,107.79,0,0,0,3.74,21.22c3,10.85,9.11,26,21,36.59Z"/><path class="cls-3" d="M44.49,101A9.18,9.18,0,0,1,43.35,108a10.76,10.76,0,0,1-4-6.38,9.24,9.24,0,0,1,1.14-7.06A10.79,10.79,0,0,1,44.49,101Z"/><path class="cls-3" d="M40.89,108.61a10.74,10.74,0,0,1,3.43,6.72,9.36,9.36,0,0,1-6.67-2.68,10.74,10.74,0,0,1-3.43-6.72A9.32,9.32,0,0,1,40.89,108.61Z"/><path class="cls-3" d="M40,116.65a10.25,10.25,0,0,1,5.78,4.65A8,8,0,0,1,39,122a10.26,10.26,0,0,1-5.78-4.66A8,8,0,0,1,40,116.65Z"/><path class="cls-3" d="M43.81,126.31a7.54,7.54,0,0,1,4.48,4.26,5.72,5.72,0,0,1-5.47,1.12,7.54,7.54,0,0,1-4.48-4.26A5.72,5.72,0,0,1,43.81,126.31Z"/><path class="cls-3" d="M47.2,112.51a6.92,6.92,0,0,1,5.64-2,7.67,7.67,0,0,1-2.18,5.85,6.84,6.84,0,0,1-5.64,2A7.74,7.74,0,0,1,47.2,112.51Z"/><path class="cls-3" d="M49,119.44a6.89,6.89,0,0,1,5.64-2,7.68,7.68,0,0,1-2.19,5.85,6.83,6.83,0,0,1-5.64,2A7.71,7.71,0,0,1,49,119.44Z"/><path class="cls-5" d="M60.55,175.1c-10.82-1.58-20.08-8-25.94-13.09a72.81,72.81,0,0,1-10.25-10.82l-.39.22a74.18,74.18,0,0,0,10.32,10.9c5.92,5.15,15.28,11.63,26.23,13.23Z"/><path class="cls-5" d="M24.09,149.11a6.4,6.4,0,0,1,2.05,4.54,7.53,7.53,0,0,1-4.79-2.17,6.4,6.4,0,0,1-2.05-4.54A7.51,7.51,0,0,1,24.09,149.11Z"/><path class="cls-5" d="M24.94,154.94a7.43,7.43,0,0,1,4.57,2.59,6.48,6.48,0,0,1-4.9,1A7.49,7.49,0,0,1,20,155.94,6.51,6.51,0,0,1,24.94,154.94Z"/><path class="cls-5" d="M27.47,160a7.17,7.17,0,0,1,5.15.49,5.6,5.6,0,0,1-3.66,3,7.2,7.2,0,0,1-5.14-.49A5.58,5.58,0,0,1,27.47,160Z"/><path class="cls-5" d="M33.43,164.11a5.23,5.23,0,0,1,4.24.76,4,4,0,0,1-2.75,2.74,5.26,5.26,0,0,1-4.24-.75A4,4,0,0,1,33.43,164.11Z"/><path class="cls-5" d="M30.11,154.79a4.78,4.78,0,0,1,2.5-3.35,5.34,5.34,0,0,1,1,4.24,4.76,4.76,0,0,1-2.5,3.34A5.33,5.33,0,0,1,30.11,154.79Z"/><path class="cls-5" d="M33.82,158.12a4.81,4.81,0,0,1,2.5-3.35,5.36,5.36,0,0,1,1,4.24,4.78,4.78,0,0,1-2.5,3.35A5.43,5.43,0,0,1,33.82,158.12Z"/><path class="cls-6" d="M67.06,207.49c-12.48,4.73-26.22,2.23-35.55-.7a89.27,89.27,0,0,1-17.46-7.6l-.27.53a89.83,89.83,0,0,0,17.58,7.65c9.42,3,23.3,5.49,35.94.7Z"/><path class="cls-6" d="M12.52,196.66a9,9,0,0,1,4.92,4.6,7.85,7.85,0,0,1-6.41.19,9,9,0,0,1-4.92-4.6A7.85,7.85,0,0,1,12.52,196.66Z"/><path class="cls-6" d="M16.94,203.68a8,8,0,0,1,6.44.49,7.68,7.68,0,0,1-4.62,4.38,8,8,0,0,1-6.44-.5A7.64,7.64,0,0,1,16.94,203.68Z"/><path class="cls-6" d="M22.68,208.61A7.6,7.6,0,0,1,28.46,206a8.25,8.25,0,0,1-2.07,6.2,7.56,7.56,0,0,1-5.78,2.59A8.26,8.26,0,0,1,22.68,208.61Z"/><path class="cls-6" d="M30.72,211.16a7.55,7.55,0,0,1,5.78-2.59,8.3,8.3,0,0,1-2.08,6.2,7.55,7.55,0,0,1-5.78,2.59A8.3,8.3,0,0,1,30.72,211.16Z"/><path class="cls-6" d="M23.16,202.93A8.81,8.81,0,0,1,21.31,197a7.63,7.63,0,0,1,5.06,3.07A8.8,8.8,0,0,1,28.22,206,7.61,7.61,0,0,1,23.16,202.93Z"/><path class="cls-6" d="M31.5,205.54a8.91,8.91,0,0,1-1.94-5.92,7.63,7.63,0,0,1,5.1,3,8.86,8.86,0,0,1,2,5.91A7.62,7.62,0,0,1,31.5,205.54Z"/><path class="cls-6" d="M41.28,211.86a3.11,3.11,0,0,1,2-1.86,3.59,3.59,0,0,1,.11,2.84,3.12,3.12,0,0,1-2,1.85A3.56,3.56,0,0,1,41.28,211.86Z"/><path class="cls-3" d="M93.85,235.75s15.91-62.89,10.63-69.21c-7.29-8.74-13.3,20.24-13.89,17.78-5.57-23.24-7-53-25-56.13-10.22-1.79,2.36,22.12,1.6,28.58s-19.17-15-30.35-26.24-17-4.13-9.9,10c6.84,13.67,28.95,28.61,24.39,30.39S19.08,155,15.69,162.59c-4.15,9.25,37.36,21.85,33.45,23.93s-23.75-4.77-23.21,2.31,27.21,6.81,26.76,9.92c-.74,5-18.38-6.37-19.16.61s23.21,5.83,22.79,11.39c-.24,3.2-5.38-1.62-6.14,2.81-1.73,10.1,29.9,22.4,29.9,22.4Z"/><path class="cls-5" d="M106,236.14s-15.14-23.21-22.42-27.59c-7.76-4.67-1.85,9.31-1.85,9.31s-15.86-18.87-20.27-15-.4,8.28-.4,8.28-14.24-4.22-16.8,1c-3.93,8,19.51,14.69,19.51,14.69s-10.06-.1-8.21,5.32C58.33,240.28,106,236.14,106,236.14Z"/><path class="cls-6" d="M44.24,212.1c2.56-5.22,16.8-1,16.8-1s-4-4.44.4-8.28,17.1,7.65,17.1,7.65-1.33-9.47,8.22-1.13c6.82,5.95,19.22,26.8,19.22,26.8Z"/><path class="cls-6" d="M87.61,177.87l.68-.46C76,158.75,72.2,136.59,71.22,121.29A150.21,150.21,0,0,1,72,92.22L71.2,92a149.55,149.55,0,0,0-.83,29.25C71.36,136.66,75.15,159,87.61,177.87Z"/><path class="cls-6" d="M74.47,89.32A11.37,11.37,0,0,1,71.12,98a16.64,16.64,0,0,1-3.48-10A11.39,11.39,0,0,1,71,79.27,16.71,16.71,0,0,1,74.47,89.32Z"/><path class="cls-6" d="M67.8,97.74A16.34,16.34,0,0,1,70.42,108a14.47,14.47,0,0,1-7.89-6.35,16.34,16.34,0,0,1-2.62-10.23A14.47,14.47,0,0,1,67.8,97.74Z"/><path class="cls-6" d="M64.43,107.81a16.38,16.38,0,0,1,6.21,8.55,10.74,10.74,0,0,1-8.91-2,16.4,16.4,0,0,1-6.22-8.55A10.77,10.77,0,0,1,64.43,107.81Z"/><path class="cls-6" d="M68.37,125.39a6.82,6.82,0,0,1,2.84,3.4,4.44,4.44,0,0,1-3.77-.53,6.86,6.86,0,0,1-2.83-3.41A4.4,4.4,0,0,1,68.37,125.39Z"/><path class="cls-6" d="M69.44,131.9a6.86,6.86,0,0,1,2.84,3.4,4.38,4.38,0,0,1-3.76-.53,6.9,6.9,0,0,1-2.84-3.4A4.35,4.35,0,0,1,69.44,131.9Z"/><path class="cls-6" d="M74.89,105.54a8.54,8.54,0,0,1,7.81-.22A9.09,9.09,0,0,1,78.32,112a8.51,8.51,0,0,1-7.81.22A9.06,9.06,0,0,1,74.89,105.54Z"/><path class="cls-6" d="M75.37,115.35a8.54,8.54,0,0,1,7.81-.22,9.08,9.08,0,0,1-4.37,6.68A8.56,8.56,0,0,1,71,122,9.12,9.12,0,0,1,75.37,115.35Z"/><path class="cls-6" d="M74.89,129.39a5.55,5.55,0,0,1,5.08-.15,5.89,5.89,0,0,1-2.85,4.35,5.55,5.55,0,0,1-5.08.15A5.92,5.92,0,0,1,74.89,129.39Z"/><path class="cls-7" d="M248.76,184.73a3.28,3.28,0,0,1,1.54.49,27.59,27.59,0,0,0,2.8-1.27s7.64-3.77,8-4l5.51-6.94,4.26,2s-6.21,7.38-6.6,7.7S253,186.85,252,187.22c0,0-1,.88-1.58,1.41a6.5,6.5,0,0,1-1.65.86,6.92,6.92,0,0,1-1.69.59c-.83.19-.13-.38-.13-.38s1.47-.62,1.4-.74-.84.31-1.76.52l-.69.15c-.57.12-.81-.2-.25-.43a5.38,5.38,0,0,1,.8-.25,4.32,4.32,0,0,0,.72-.29,5.51,5.51,0,0,0,.75-.3s0-.11-.22-.07a13.28,13.28,0,0,1-1.37.39l-.8.12s-.94.1-.95,0,.57-.45.93-.44a3.39,3.39,0,0,1,.79-.2s1.1-.44,1-.6a9.27,9.27,0,0,0-1.4.08c-.75.06-1.29.06-1.33-.09s.53-.32.53-.32.53-.07.7-.11l.79-.23s2-.74,2-.89-.41-.47-.55-.46-.4.14-.54.14-.45,0-.47-.21.77-.55.77-.55A2.19,2.19,0,0,1,248.76,184.73Z"/><path class="cls-8" d="M262.82,177.32s1.38,1.25,1.95,1.66,2.8,1.46,2.8,1.46,2.31-3.53,3.31-5.31c1.23-2.15,2.08-5.34,1.79-5.43a4.27,4.27,0,0,0-3,.08C266.14,171.42,262.82,177.32,262.82,177.32Z"/><path class="cls-9" d="M250.1,186.58a1.33,1.33,0,0,1-1.51-.58C248.53,186.66,249.54,187,250.1,186.58Z"/><path class="cls-10" d="M79,161.79a12.49,12.49,0,0,0-1.14-6,5.05,5.05,0,0,0-4.52-2.59c-5.65,0-6.36,7.49-10,10.38-1.1.89-2.33,1.61-3.37,2.56-3.84,3.52-2.11,10,1.42,13.12,2.44,2.14,6.29,3.36,9.31,1.68A9.56,9.56,0,0,0,74.39,177a55.3,55.3,0,0,0,2.84-7.27A27.37,27.37,0,0,0,79,161.79Z"/><path class="cls-11" d="M80,171.76c-1.76-5.36-4.09-5.28-4.09-5.28l1.88,11.41c1.09-.3,2.51-1,3.6-1.27A46.16,46.16,0,0,0,80,171.76Z"/><path class="cls-12" d="M88.87,190l-6.45-4.93s-.65-4.59-1.52-8.66c-1.09.3-2.07,1.16-3.16,1.46L79.38,187l8.46,4.36,2.39,3.08.54-3.16Z"/><path class="cls-13" d="M147.69,182.33a11.12,11.12,0,0,1,5.51,1.45,5.94,5.94,0,0,0,.67.32,7.58,7.58,0,0,0,10.38-7.1V150.64H137.89a7.59,7.59,0,0,1-7.1-10.38c.1-.24.21-.46.32-.67a11,11,0,0,0,1.45-5.51,11.18,11.18,0,1,0-21,5.37,6.1,6.1,0,0,1,.32.68,7.72,7.72,0,0,1-7.24,10.51H78.52v60.07a25.66,25.66,0,0,0,25.66,25.66h60.07V210.09a7.64,7.64,0,0,0-10.43-7.15,5.94,5.94,0,0,0-.67.32,11.18,11.18,0,1,1-5.46-20.93Z"/><path class="cls-11" d="M204.83,167.7a11.05,11.05,0,0,1,1.71-5.43c.12-.2.24-.42.35-.65a7.6,7.6,0,0,0-6.6-10.71L174,149.68,172.72,176a7.59,7.59,0,0,1-10.7,6.6,6.54,6.54,0,0,1-.65-.35,11.18,11.18,0,1,0-1.06,19.5,6.38,6.38,0,0,1,.7-.28,7.72,7.72,0,0,1,10.16,7.72L170,235.32l60,2.8a25.65,25.65,0,0,0,26.83-24.43l2.81-60-26.25-1.23a7.64,7.64,0,0,0-7.63,10.09,6,6,0,0,0,.28.68,11.07,11.07,0,0,1,1.13,6.12,11.18,11.18,0,0,1-22.29-1.65Z"/><path class="cls-5" d="M131.45,126.24a11.11,11.11,0,0,1-1.17,5.57,4.76,4.76,0,0,0-.29.69,7.58,7.58,0,0,0,7.61,10l26.33-1.32-1.33-26.33a7.59,7.59,0,0,1,10-7.61,4.63,4.63,0,0,1,.68.29A11.18,11.18,0,1,0,172.46,88a5.19,5.19,0,0,1-.66.35,7.73,7.73,0,0,1-10.87-6.7l-1.31-26.1-60,3A25.66,25.66,0,0,0,75.29,85.5l3,60,26.24-1.32a7.64,7.64,0,0,0,6.62-10.78c-.11-.23-.23-.45-.35-.65a11,11,0,0,1-1.71-6,11.18,11.18,0,0,1,22.34-.52Z"/><path class="cls-14" d="M185.34,111.71a11.18,11.18,0,0,1-5.51-1.45,5.8,5.8,0,0,0-.66-.33,7.6,7.6,0,0,0-10.39,7.1v26.36h26.36a7.59,7.59,0,0,1,7.1,10.39,5.06,5.06,0,0,1-.32.66,11.18,11.18,0,1,0,19.53.14,5.94,5.94,0,0,1-.32-.67,7.73,7.73,0,0,1,7.24-10.52h26.14V83.32a25.65,25.65,0,0,0-25.66-25.65H168.78V83.94a7.64,7.64,0,0,0,10.43,7.15,4.15,4.15,0,0,0,.67-.32,11.18,11.18,0,1,1,5.46,20.94Z"/><path class="cls-15" d="M61.36,228s-.39,2.77-1.08,3.67a6.59,6.59,0,0,0-.93,1.22,3.62,3.62,0,0,0,.13,2.79c.16.35,0,.35.36.46a2.28,2.28,0,0,0,2.73-1.28,6.65,6.65,0,0,0,.53-2.36,8.59,8.59,0,0,1,.9-3.79Z"/><path class="cls-15" d="M73.35,229.3a26.34,26.34,0,0,1,0,4.14c-.1.54-.7,1.66-.43,2.17a1.42,1.42,0,0,0,.59.64l7.07.11c.39,0,.13-.24-.18-.47a14.22,14.22,0,0,0-2.54-1.41c-.11,0-.49-.3-.63-.38a4.73,4.73,0,0,1-1-.9c-.51-.57-.56-3.31-.56-3.31Z"/><path class="cls-8" d="M78.87,187.82s.89,5.06.31,8.38-3.39,34.12-3.39,34.12l-3.12.18s-.65-12.87-.54-14.66a28.36,28.36,0,0,1,1-4.78l-.31-10.38L76.8,187Z"/><path class="cls-16" d="M69.71,186.75a23.13,23.13,0,0,0-3,6.77c-.59,3.07.42,12.49-.7,16.51-.61,2.18-2.92,5.54-3.27,8.35S61,228.55,61,228.55l3.12.62,7.25-18.39L77,194.16l1.46-8.56Z"/><path class="cls-11" d="M71.69,165.67s-3.25-.21-4.53,1.2,2.85,12.52,3.08,14.31-1.19,6.54-1.19,6.54,7.64,1.54,9.82.1c0,0,.24-12.87,0-14.15a37.55,37.55,0,0,0-2.65-7C75.75,166.18,71.69,165.67,71.69,165.67Z"/><path class="cls-17" d="M72.78,161.31l0,.26a24,24,0,0,1-1.08,4.1c-.46.86,1.56,3.62,3.5,3.28.58-.1-.49-2.53-.44-2.79.1-.49.23-1.16.37-1.85.08-.39.16-.78.23-1.16l.38-1.91Z"/><path class="cls-13" d="M72.73,161.57l0-.26,2.91-.07-.38,1.91c-.07.37-.15.77-.23,1.15a2.62,2.62,0,0,1-1.39-.7,3.69,3.69,0,0,1-1-1.56C72.68,161.85,72.71,161.69,72.73,161.57Z"/><path class="cls-17" d="M74.73,154.69a2.62,2.62,0,0,0-2.23.95c-.85,1.12-1.78,4.56.35,6.43s4.25-.24,4.56-2.49S77.84,154.61,74.73,154.69Z"/><path class="cls-17" d="M78,159.55c-.25.49-.68.77-1,.61s-.29-.69,0-1.18.69-.78,1-.62S78.3,159.05,78,159.55Z"/><path class="cls-10" d="M74.89,154.32s-1.83,3.27-3.14,3.43-1.49,1.89-1.49,1.89.47-4,1.77-4.79A4.82,4.82,0,0,1,74.89,154.32Z"/><path class="cls-13" d="M62.78,234.34a3.5,3.5,0,0,1-3.42-1.43,3.81,3.81,0,0,0-.33,2.8c.28.61,1.1.59,1.75.61a1.67,1.67,0,0,0,1.54-.94A6.06,6.06,0,0,0,62.78,234.34Z"/><path class="cls-13" d="M77.27,234.1a6.42,6.42,0,0,1-4-.16,3.25,3.25,0,0,0-.32,1.69c.17.5.41.61.63.62,1.71,0,6.26.1,7.56.12a.21.21,0,0,0,.16-.35A32.51,32.51,0,0,0,77.27,234.1Z"/><path class="cls-17" d="M72.09,158.57c.11.58-.11,1.11-.48,1.19s-.76-.33-.86-.91.1-1.12.48-1.2S72,158,72.09,158.57Z"/><path class="cls-18" d="M74.23,160.58l1.65.08a.71.71,0,0,1-.79.61C74.2,161.26,74.23,160.58,74.23,160.58Z"/><path class="cls-19" d="M215.23,28.73c.21,0,.77.2,1.6,1.76,1,2,2.59,8,2.59,8l-4.6,1.71L214.23,39l-1-9.66S215.17,28.73,215.23,28.73Z"/><path class="cls-13" d="M209.15,27.87a28.07,28.07,0,0,1,6.08.86s1.11,9.53-1,16.78c-.47,1.62.39,6.72.39,6.72L201,52.05s1.62-12.33,1-14.32-.62-8.93-.62-8.93l3.06-.53A29.62,29.62,0,0,1,209.15,27.87Z"/><path class="cls-15" d="M207.57,69.92s.3,3.48.85,4.44,0,2.6-.06,2.83-1.16.54-3,.35-1.78-.61-1.63-1.29,1.11-1.54,1.16-2.18a16.66,16.66,0,0,0-.55-2.95Z"/><path class="cls-20" d="M213.09,49.36s9.4-.52,11.5.75-1.49,7.51-1.49,7.51-6.55-.3-19.36.44c-3,.17-3.3-7.92-2.73-8.58S213.09,49.36,213.09,49.36Z"/><path class="cls-19" d="M205.16,77.81c-1.86-.2-1.63-1.11-1.48-1.81a6.31,6.31,0,0,1,.95-1.43,3.09,3.09,0,0,0,1.25.6,4.6,4.6,0,0,0,2.72-.55,9.34,9.34,0,0,1,.25,2.41C208.82,77.26,207,78,205.16,77.81Z"/><path class="cls-11" d="M206.19,56.08c.38,2.85,2.24,17,2.24,17l-4.32.53s-5.3-18.47-5-21.29,2.26-3.07,2.26-3.07S205.2,48.56,206.19,56.08Z"/><path class="cls-15" d="M201.24,29.86c1.27-.48,1.89,11,2.07,15.72a57.47,57.47,0,0,0,7.16-.07c.46,0,1.52-.43,2-.49a4.66,4.66,0,0,1,1.13-.05,19.56,19.56,0,0,1,2.63,1.19c.25.26.93.92.81,1.2s-1.3-.79-1.3-.79l-.57-.33c.72.71,2.09,1.63,1.89,2s-1.43-.61-2.31-1.25c.75.68,1.7,1.9,1.48,2.1s-1.27-1.25-2.41-1.66c-.42-.15-.85.27-1.18.32a2.27,2.27,0,0,1-.86.05l-1.24-.35c-.42,0-.43.29-.86.38s-1.3.21-1.93.37c-3.63.88-4.84,1.29-5.95,1.29C198.42,49.46,198.23,31,201.24,29.86Z"/><path class="cls-19" d="M198.82,40.63c-.24-4.84-.2-10.8,2.51-11.82,1.07-.4,3,2,2.62,11.92A20.58,20.58,0,0,1,198.82,40.63Z"/><path class="cls-15" d="M220.19,72.89a2.34,2.34,0,0,0,.3,2c.67.8,3.47,1.58,3.84,2a1.21,1.21,0,0,1,.34.8l-7.86-.21.08-2.38.36-1.7Z"/><path class="cls-19" d="M221,75.3s-2,.82-3,.33-.95-.62-1.23-.44-.38,2.41-.38,2.41l8.84.26c.61,0,.92-.47.42-.85a6.59,6.59,0,0,0-1-.58A28.48,28.48,0,0,0,221,75.3Z"/><path class="cls-11" d="M219.89,51.59c.61-1.28,2-3,4.42-2s2.94,3.31,2.21,5.72S221,71.92,220.8,73.87l-3.84,0L217.83,60A26.1,26.1,0,0,1,219.89,51.59Z"/><path class="cls-21" d="M226.14,38.55H213.27a.84.84,0,0,0-.77.52l-4,9.69h-7.09a.36.36,0,0,0-.36.36h0a.36.36,0,0,0,.36.36h20.18a1.39,1.39,0,0,0,1.28-.83l4-8.91A.84.84,0,0,0,226.14,38.55Z"/><path class="cls-18" d="M219.21,44.19a.7.7,0,1,1-.53-.92A.75.75,0,0,1,219.21,44.19Z"/><path class="cls-22" d="M212.21,16.22a9.31,9.31,0,0,1-1.14-.45,5.5,5.5,0,0,0-1.29-.49,3.15,3.15,0,0,0-2.64.7c-.84.92-2.35.17-2,5,.35,5.45,3.38,4.85,3.45,4.76s2.71-3.49,2.71-3.49.92,2,.92,1.94S216.87,17.79,212.21,16.22Z"/><path class="cls-15" d="M209.91,26.13l.26,1.95s.59,2.81-.17,3.35S206.79,28,206.79,28l.26-4.94Z"/><path class="cls-13" d="M207,24.67a5.6,5.6,0,0,0,3.16,3.12l-.22-1.66-2.86-3.07Z"/><path class="cls-15" d="M209.75,17.69a2.6,2.6,0,0,1,3,2.63,21.4,21.4,0,0,1-.22,2.5c-.35,2.25-1.89,4.23-2.9,4.05a4.87,4.87,0,0,1-3.12-5.32A4.32,4.32,0,0,1,209.75,17.69Z"/><path class="cls-15" d="M207.21,21.93a.83.83,0,0,1-.88.77.93.93,0,1,1,.88-.77Z"/><path class="cls-22" d="M206.64,20.91s1.23.31,1.68-.48,2.09-2.5,4.16-1.79-1.83-1.72-2-1.72h-2.15a20.74,20.74,0,0,0-1.59,1.4c-.06.14-.5,1.65-.5,1.65Z"/><path class="cls-18" d="M208.89,24.21l2.23.42a1,1,0,0,1-1.2.68C208.71,25.12,208.89,24.21,208.89,24.21Z"/><path class="cls-7" d="M171.11,179.69a2.19,2.19,0,0,0,.24.59,22.44,22.44,0,0,0,2.33,3.09l1.25-2.83s-.2-.89-.56-2.16A7.27,7.27,0,0,0,171.11,179.69Z"/><path class="cls-10" d="M178.31,177.23s-7,3-7.23,3a18.61,18.61,0,0,1-2.91-8.91c0-2,2.05-4.37,4.35-3.9,1.16.24,1.14.56,2.85,3.05A28.76,28.76,0,0,1,178.31,177.23Z"/><path class="cls-15" d="M184.3,231.36l-.17,2.76a15.26,15.26,0,0,0-.3,1.53c0,1.19,5.67-1,4.4-1.54-.12-.05-.72-.41-.76-.82-.06-.62-.2-1.89-.2-1.89Z"/><path class="cls-19" d="M188.21,234.1s-1.33.36-2,.45-1.58-.67-2.06-.47-.51,2.29-.51,2.29,7.14.58,9.14,0C193.57,236.11,190.93,235,188.21,234.1Z"/><path class="cls-15" d="M172.7,231.36s-.16,2.75-.17,2.76a15.26,15.26,0,0,0-.3,1.53c0,1.19,5.67-1,4.4-1.54-.11-.05-.89-.68-.93-1.09-.06-.62,0-1.62,0-1.62Z"/><path class="cls-19" d="M176.62,234.1s-1.33.36-2,.45-1.58-.67-2.06-.47-.55,2.29-.55,2.29,7.17.68,9.19,0C182,236.08,179.34,235,176.62,234.1Z"/><path class="cls-17" d="M174.43,181.22l5-7,.13-.38c.25-.69.78-2.13,1.23-3.57v0c.14-.5.45-1.37.74-2.22a23.32,23.32,0,0,0,.74-2.31,1.84,1.84,0,0,0-.06-.18,15.33,15.33,0,0,1-.52-2.1c-.06-.31-.11-1.07.26-1.07.59,0,.31.76.58,1.23a10.71,10.71,0,0,0,.4-1.58l.1-1.49c0-.11-.1-.93.31-.93h0c.37,0,.36.9.51,2.37.05-.17.1-.37.14-.56a5.36,5.36,0,0,1,.12-.78c-.07-.41,0-1.06.41-1,.22,0,.2.94.2.94s0,1.08,0,1.27c0-.32.22-1.69.57-1.69s.3.37.3.66-.18,1.66-.19,1.83c.13-.23.29-1.53.42-1.53.56,0,.36,1.85.15,2.34a1.46,1.46,0,0,0-.06.26,4.65,4.65,0,0,1-.48,1.38c-.35.6-.83,1.54-.9,1.69-.05.3-.22,1.36-.43,2.7-.09.58-.19,1.2-.29,1.86h0c0,.15-.12.59-.52,2.28a17.81,17.81,0,0,1-.62,2.44c-.23.41-5.61,7.72-5.84,8l-.14.19Z"/><path class="cls-23" d="M183.72,164.9s-.4-1-1.13-1a.85.85,0,0,1,.75.13A1.42,1.42,0,0,1,183.72,164.9Z"/><path class="cls-15" d="M173.23,162.9l-.64,4.07s2.44,2,3.87,1.55c1.2-.35.38-1.92.38-1.92a10.06,10.06,0,0,1-.44-3.3C176.59,162.16,173.23,162.9,173.23,162.9Z"/><path class="cls-9" d="M173.69,164.13a9.8,9.8,0,0,0,2.77.78,5.25,5.25,0,0,1-.06-1.61c.09-.53-.58-.65-1.33-.64-1,.09-1.84.24-1.84.24l-.13.78A2.15,2.15,0,0,0,173.69,164.13Z"/><path class="cls-15" d="M170.14,158.21c-.1,0,1,4.54,2.62,5.32s4.12.38,4.59-.84-1.36-6-3.69-6.58S170.14,158.21,170.14,158.21Z"/><path class="cls-10" d="M172.05,154a5.15,5.15,0,0,0-2.13,2.36,3.34,3.34,0,0,0-1.73,2.64,3.73,3.73,0,0,0,2.8,4.23,2.55,2.55,0,0,1,1.93,1.59l.19-1.19a4.69,4.69,0,0,0-.93-1.55c-.56-.52.26-1.27.33-1.89s-.29-1.4-.21-2.17a5.32,5.32,0,0,1,1.84-1.76C175.7,155.71,173.75,153.06,172.05,154Z"/><path class="cls-15" d="M172.76,161c.21.52.12,1-.2,1.16s-.77-.21-1-.73-.13-1,.2-1.17S172.54,160.5,172.76,161Z"/><path class="cls-7" d="M178.92,181.33l9.63-1.57s-1.1-2.76-1.49-2.76-7.28,3-7.28,3l-.55,1.1Z"/><path class="cls-14" d="M174,187.93a31.82,31.82,0,0,0-.57,8.17c.39,3.52.42,16,.42,16l-1.5,20,3.55.07s4.2-20,4.13-19.49,1.4-14.09,1.4-14.09l-5-11.15Z"/><path class="cls-10" d="M174.93,187.71s-.63,4.18.15,6,6.72,19.83,6.8,21.3,2.05,17.68,2.05,17.68l4.12-.11.89-18-1.87-22.66-1.81-5.73Z"/><path class="cls-15" d="M172.59,167a3.74,3.74,0,0,0,2,.59,6.54,6.54,0,0,0,2.29-1l-.19-.63s-2.45-.36-2.51-.32S172.59,167,172.59,167Z"/><path class="cls-7" d="M183.42,176.86s3.64,3.44,5.29,2.85,2.32-2.59-1.69-5.52C183.43,171.56,183.42,176.86,183.42,176.86Z"/><path class="cls-8" d="M185.89,181.11c-.54-3-4.47-12.11-4.78-13.8-.15-.82-2.27-.83-4.28-.73s-4.24.39-4.24.39a6.55,6.55,0,0,0-2.72,1.08c-.83.78-1.05,2.93.14,7,1,3.21,2.11,5,2.69,7.33.12.78.22,1.56.35,2.47.21,3.5,0,8.13,0,8.13s10.25,2.13,14.09-1.1C187.14,191.89,186.44,184.12,185.89,181.11Z"/><path class="cls-16" d="M188.5,174.78s-4,3.32-4.26,3.32-5.74-4.11-7-7.49a3,3,0,0,1,2.49-4c1.19,0,1.71.31,4.06,2.3A29.92,29.92,0,0,1,188.5,174.78Z"/><path class="cls-10" d="M117.7,26.48c.66-1.59,1.33-3.18,3-4a3.84,3.84,0,0,1,4.06.52c3.49,2.63.45,5.51,4.42,10.49,1.23,1.54,2.73,2.79,3.47,4.6,1,2.53-.2,3.75-2.18,5-9.44,5.81-14.4-6.11-14.22-8.84A44.92,44.92,0,0,1,117.7,26.48Z"/><path class="cls-15" d="M107.9,57.38c.39-.06,1.36-.76,1.7-.82l1.08-.17c.3-1.12,1.82-7.2,2-9s1.55-10.29,1.55-10.29l3.54.64s-1.47,6.43-1.88,9.55c-.35,2.67-3.28,8.69-3.66,9.33v0c-.06.94-.51.63-.51.63l-.74.19s-2.62.25-2.79.31S107.5,57.44,107.9,57.38Z"/><path class="cls-24" d="M117.3,32.23c-2.5.85-3.92,7.65-3.92,7.65s3.92,1.09,4.93.52c0,0,1.14-5.06,1.55-4.88Z"/><path class="cls-15" d="M98,69.12a28.32,28.32,0,0,0-1.2,4.2c0,.11.15.66.13.78a7.11,7.11,0,0,1-5.63,2.69c1-1,2.38-1.84,2.44-2.14a35.42,35.42,0,0,0,1-5.51C95.86,69.68,96.66,69.25,98,69.12Z"/><path class="cls-2" d="M119.72,46.55l3.38,9.52-7.46,1.39c-2,.37-13.37.87-13.66,1.07s-2.55,7.73-3.6,11.91a9.88,9.88,0,0,1-4.3-.43c.58-6,2.69-15.45,3.37-16.48C98.55,51.85,119.72,46.55,119.72,46.55Z"/><path class="cls-15" d="M106.52,73.3a26.92,26.92,0,0,0-.39,4.34c0,.12.27.63.27.74a7.07,7.07,0,0,1-5,3.7c.77-1.11,2-2.25,2-2.55a38.29,38.29,0,0,0-.08-5.61C104.56,74.24,105.27,73.67,106.52,73.3Z"/><path class="cls-4" d="M123.67,47,125,49.28a6.42,6.42,0,0,1-3.22,9.22l-.06,0c-1.92.74-13,3.36-13.21,3.61s-1.07,8.07-1.31,12.37a9.89,9.89,0,0,1-4.31.39c-.54-6-.25-15.69.22-16.83C103.86,56.22,123.67,47,123.67,47Z"/><path class="cls-10" d="M106,77.71c.3-.33,1.38,1.46,1.65,1.84a.88.88,0,0,1,.18.82c-.1.18-5.79,3.53-7.18,3.77a.75.75,0,0,1-.42-.11c-.54-.48,2-4,3.08-4.5A5.37,5.37,0,0,0,106,77.71Z"/><path class="cls-10" d="M96.58,73.38c.35-.26,1.08,1.7,1.27,2.12a.88.88,0,0,1,0,.84c-.13.16-6.35,2.38-7.76,2.36a.68.68,0,0,1-.39-.19c-.44-.57,2.68-3.59,3.86-3.84A5.37,5.37,0,0,0,96.58,73.38Z"/><path class="cls-25" d="M119.68,32.21h0a1,1,0,0,1-.26-.05,4.43,4.43,0,0,0-2.27.13c-1,.41-2.45,4.19-2.36,8.08,0,.6.07,1.13.1,1.5.25,2.94,1.09,8.45,1.13,8.48,1.15.73,8.07-2.13,8.54-2.76s.76-8.26,1-8.64l.45-6.64A51.82,51.82,0,0,0,119.68,32.21Z"/><path class="cls-15" d="M122.48,29.77a17.48,17.48,0,0,0-.36,3.21c.09.91-.34,3.84-2.26,3.85s-.37-3.73-.18-4.62a34,34,0,0,0,.22-3.64Z"/><path class="cls-13" d="M119.86,30c0-.75,0-1.38,0-1.38l2.58,1.2s-.09.47-.18,1.07A2.25,2.25,0,0,1,119.86,30Z"/><path class="cls-15" d="M123.42,23.41a3.22,3.22,0,0,1,1.36,1.75c.36,1.19,0,4.28-2.62,5s-3.68-1.7-3.15-3.61S120.69,22.25,123.42,23.41Z"/><path class="cls-15" d="M118.69,25.83c0,.52.33.91.63.88s.5-.47.45-1-.33-.91-.63-.88S118.64,25.32,118.69,25.83Z"/><path class="cls-10" d="M123.12,23.26s.46,3.44,1.58,4.06.64,2.14.64,2.14,1-3.54.13-4.68A4.93,4.93,0,0,0,123.12,23.26Z"/><path class="cls-15" d="M124,27.81c-.3.45-.3,1,0,1.18s.79,0,1.09-.44.31-1,0-1.18S124.34,27.36,124,27.81Z"/><path class="cls-18" d="M120.3,28l1.81.46a.83.83,0,0,1-1,.51C120.11,28.75,120.3,28,120.3,28Z"/><path class="cls-5" d="M129.28,57.09l7.8-.39s-3.2,2.3-3.27,2.3-2.55-1-2.65-1S129.28,57.09,129.28,57.09Z"/><path class="cls-15" d="M285.42,231.47l.15,2.71a15.21,15.21,0,0,1,.28,1.51c0,1.17-5.21-1-4-1.52.1,0,.66-.4.69-.8.06-.61.19-1.86.19-1.86Z"/><path class="cls-11" d="M281.76,234.18a18.45,18.45,0,0,0,1.85.45c.62.09,1.45-.66,1.89-.46s.47,2.25.47,2.25-6.55.57-8.4,0C276.84,236.16,279.26,235,281.76,234.18Z"/><path class="cls-15" d="M294.08,231.33s.15,2.71.16,2.71c.05.35.27,1.2.27,1.51,0,1.17-5.2-1-4-1.52.11,0,.83-.67.86-1.07.06-.61,0-1.59,0-1.59Z"/><path class="cls-11" d="M290.49,234a18.45,18.45,0,0,0,1.85.45c.62.09,1.45-.67,1.89-.46s.5,2.24.5,2.24a80.6,80.6,0,0,1-8.43,0C285.54,236.12,288,234.86,290.49,234Z"/><path class="cls-8" d="M292.54,188.37a33.28,33.28,0,0,1,.52,8c-.36,3.46-.39,15.75-.39,15.75l1.66,19.66-3.54.08s-3.86-19.65-3.79-19.15-1.29-13.84-1.29-13.84l4.6-10.95Z"/><path class="cls-16" d="M291.3,185.42s4,4.21,2.51,8.81c-.59,1.84-6.16,19.48-6.23,20.92s-1.89,17.38-1.89,17.38l-3.78-.12-.82-17.71,1.08-23.87,2.3-4Z"/><path class="cls-13" d="M267.05,171.72a36,36,0,0,1,4.15-3.53,13.69,13.69,0,0,1,2.39-1.69c1-.35,2.76-1.29,5.28,2.54,1.81,2.73,13.2,16.89,15.06,17.37l-12.2,5.84c-.34-2.79-6.37-8.06-7.24-9.05C272.55,181,265.81,173.11,267.05,171.72Z"/><path class="cls-15" d="M267.62,165.79l3.8,2.23s.11,3.24-1.14,4.09c-1,.7-1.83-1-1.83-1a11.72,11.72,0,0,0-2.49-2.57C264.89,167.94,267.62,165.79,267.62,165.79Z"/><path class="cls-13" d="M268.26,167.22a8.12,8.12,0,0,1-1,2.46,6,6,0,0,0-1.31-1.13c-.5-.29-.18-.89.3-1.47.68-.71,1.36-1.29,1.36-1.29l.73.43A3.55,3.55,0,0,1,268.26,167.22Z"/><path class="cls-15" d="M265.64,160.21c.06-.08,3.19,3.82,2.8,5.64s-2.27,3.49-3.59,3-4.15-5.08-3.18-7.31S265.64,160.21,265.64,160.21Z"/><path class="cls-10" d="M262.22,159a5.9,5.9,0,0,1,5.24-.11,4.51,4.51,0,0,1,1.87,5.4,2.66,2.66,0,0,0,.09,2.57l-1.08-.63a5.31,5.31,0,0,1-.72-1.78c-.08-.79-1.23-.65-1.79-1s-1-1.17-1.68-1.64a5.63,5.63,0,0,0-2.62.27C260.05,162.9,260.26,160.07,262.22,159Z"/><path class="cls-17" d="M266.71,164.09c0,.59.27,1.06.62,1.07s.64-.46.65-1-.27-1.06-.62-1.06S266.72,163.51,266.71,164.09Z"/><path class="cls-18" d="M263.51,167.19l1.65-1.24a.92.92,0,0,1-.27,1.24C264,167.88,263.51,167.19,263.51,167.19Z"/><path class="cls-7" d="M259.35,191.8a19.27,19.27,0,0,1,1.17-2.14,4.68,4.68,0,0,1,.85-.73c2.76-1.61,9.94-5.77,10.22-6.09s5.23-8.53,5.23-8.53l-4.4-1-4.3,7.6c-.36.28-7.19,5.33-7.19,5.33s-1.36,1.06-2.1,1.56a5.87,5.87,0,0,1-1.06.47,7.36,7.36,0,0,0-1.32.65c-.18.16-.54.5-.75.71s-.47.44-.57.56a1.38,1.38,0,0,1-.39.24.26.26,0,0,0,0,.48,1.21,1.21,0,0,0,.67-.16c.49-.23,1.1-.86,1.13-.78s-.58,1.42-.64,1.58a17,17,0,0,0-.8,2.07c0,.35.17.43.33.3s1.26-2.2,1.26-2.2.15-.26.21-.11-1,2-1.07,2.36,0,.57.27.46,1.32-2.23,1.32-2.23.12-.26.21-.17-.81,1.7-.82,1.88a.23.23,0,0,0,.39.21,11,11,0,0,0,1.14-2.06s.1-.12.14,0-.64,1.51-.59,1.72a.16.16,0,0,0,.2.14C258.48,193.88,258.94,192.41,259.35,191.8Z"/><path class="cls-8" d="M275.61,178.61s-1.43-.46-2.35-.88c-.61-.28-3.3-1.62-3.3-1.62a59.9,59.9,0,0,1,1.94-6.64c2.87-6.44,6.14-2,6.58-1C279.47,170.83,275.61,178.61,275.61,178.61Z"/><path class="cls-18" d="M175.48,161.73l1.36-1a.76.76,0,0,1-.22,1C175.9,162.3,175.48,161.73,175.48,161.73Z"/><path class="cls-14" d="M335.64,236.27h-317a.84.84,0,0,0-.71.92h0a.83.83,0,0,0,.71.91h317a.83.83,0,0,0,.71-.91h0A.84.84,0,0,0,335.64,236.27Z"/><path class="cls-15" d="M137.25,56.69c0-.08-.1-.08-.17-.08-.72,0-1.43-.06-2.14-.16a2,2,0,0,1-.35-.09.86.86,0,0,0-.59,0,1.23,1.23,0,0,1-.33,0c-.36,0-1.39-.35-1.91-.44a.31.31,0,0,1-.25-.23c-.52-2.05-1.63-6.66-1.77-8.17-.19-1.94-1.53-10.67-1.53-10.67l-3.57,1s1.47,6.44,1.88,9.57c.31,2.41,2.72,7.53,3.48,9a1.49,1.49,0,0,0,1.39,1.15.48.48,0,0,1,.28.15,1.9,1.9,0,0,0,.45.4,1,1,0,0,1,.31.3c.15.22.29.46.42.69s.19.2.32.17a.28.28,0,0,0,.2-.32,1.37,1.37,0,0,0-.21-.71.38.38,0,0,1,0-.51,1.88,1.88,0,0,1,.27-.3.49.49,0,0,1,.36-.13,5.36,5.36,0,0,0,.78.15l.22,0,.12,0,.53,0,.42,0a1.84,1.84,0,0,0,.41-.07.48.48,0,0,0,.34-.13.11.11,0,0,0,.05-.13.13.13,0,0,0-.11-.09c-.09,0-.53-.07-.53-.09h.68a.63.63,0,0,0,.45-.2C137.23,56.83,137.29,56.78,137.25,56.69Z"/><path class="cls-25" d="M126.05,32.3c1.76-.32,3.22,7.58,3.22,7.58s-3.92,1.09-4.93.52c0,0-1.14-5.06-1.55-4.88Z"/><path class="cls-17" d="M83.35,174.3c.12-.34-1.51-.61-1.6-1s2.06-.36,2.14-.66c.14-.55-2.35-.11-2.3-.37s2.59-.83,2.32-1.27-2.58.87-2.65.57,2.25-1,2.21-1.68c0-.35-3.81,1.75-4.25,1.56s.47-1.84.12-2.08-1.35,3.34-1.59,3.46-5.36,3-7.18,3.5c-.22-.61-.69-1.43-.89-2-1,.73-1.78,1.09-2.83,1.76.76,1.91,1.85,4,2.38,4.25,1.62.73,7.88-4.47,9.13-5.36s2-.6,2.82-.88S83.24,174.63,83.35,174.3Z"/><path class="cls-11" d="M66.63,177.05s-1.4-6.2-1.16-8,2.38-3.47,3.86-2.85,2.15,9.26,2.15,9.26Z"/></g></g></svg>