<svg xmlns="http://www.w3.org/2000/svg" viewBox="0 0 457.47 293.72"><defs><style>.cls-1{fill:#abd19a;}.cls-2{fill:#faaf7c;}.cls-3{fill:#375da4;}.cls-4{fill:#2b488c;}.cls-5{fill:#c75548;}.cls-6{fill:#ea8e50;}.cls-7{fill:#d76927;}.cls-8{fill:#f0a350;}.cls-9{fill:#80bdcc;}.cls-10{fill:#609ba8;}.cls-11{fill:#2e3b65;}.cls-12{fill:#35498c;}.cls-13{fill:#945d2f;}.cls-14{fill:#a26e3c;}.cls-15{fill:#d3782c;}.cls-16{fill:#e79e44;}.cls-17{fill:#5074b9;}.cls-18{fill:#729ad1;}.cls-19{fill:#c4e0f4;}.cls-20{fill:#1e3e70;}.cls-21{fill:#243962;}.cls-22{fill:#2b4f97;}.cls-23{fill:#82b379;}</style></defs><g id="Layer_2" data-name="Layer 2"><g id="Layer_1-2" data-name="Layer 1"><path class="cls-1" d="M253.52,277.06c-15.41-2.48-27.05,2.92-38.24,1.37-8.92-1.24-13.58-10.27-25.57-12.83a50,50,0,0,0,7.77-5.31c3.08-3,7.52-8.92,0-9.15-5.41-.17-9.63,8.84-11.57,13.91a37.17,37.17,0,0,0-5.79,0c2.48-8,7.3-23.42,8.49-26.38,1.6-4-5.15-17.5-13.1-2.39-5.58,10.59-1.79,22.83,1,29.2a44.6,44.6,0,0,0-6.2,1.47c-6.57-15-27.48-57.75-50.15-52.44-24.71,5.8,28.23,34.54,41.58,55.85-10.91,5.06-20.49,11.2-37.06,6.71-44-11.92-47.52,14.9-47.52,14.9l196.76.07A26.64,26.64,0,0,0,253.52,277.06Z"/><path class="cls-2" d="M200,180.56c.2,1.89,2.88,1.82,5.91,1.37s2.24.34,6.5.26,5.68-1.54,5.87-2.15-1.9-.94-4.11-1.4l-.84-.17c-2.49-.55-4.19-2.35-6.36-3.89s-3.44-8.18-3.44-8.18l-6.05,0s1.9,6.07,2.89,8.18c.58,1.24,0,2.83-.24,4A7.71,7.71,0,0,0,200,180.56Z"/><path class="cls-3" d="M205.91,181.93c3-.46,2.24.34,6.5.26s5.68-1.54,5.87-2.15-1.9-.94-4.11-1.4l0,0a11.87,11.87,0,0,1-6.21,1.33c-2.86-.19-5.82-1.29-7.8-1.43a7.71,7.71,0,0,0-.13,2C200.2,182.45,202.88,182.38,205.91,181.93Z"/><path class="cls-2" d="M152.68,180.26c.13,1.9,2.81,1.93,5.85,1.59s2.23.43,6.49.51,5.73-1.33,5.94-1.93-1.86-1-4.05-1.55l-.83-.21c-2.47-.64-4.1-2.5-6.21-4.13s-.36-7.93-.36-7.93l-4.59-2.17s-.63,6.59-1,9.92a39,39,0,0,1-1.06,3.92A7.33,7.33,0,0,0,152.68,180.26Z"/><path class="cls-3" d="M158.53,181.85c3-.34,2.23.43,6.49.51s5.73-1.33,5.94-1.93-1.86-1-4.05-1.55l0,0a11.92,11.92,0,0,1-6.25,1.09c-2.86-.3-5.77-1.51-7.74-1.73a7.33,7.33,0,0,0-.21,2C152.81,182.16,155.49,182.19,158.53,181.85Z"/><path class="cls-4" d="M163,85.43s-1.28,6.16-2.55,37.4a101.51,101.51,0,0,0-4.08,12.85c-1.71,7.07-2.92,36.59-2.92,36.59a3.56,3.56,0,0,0,2.76,1.1,5.91,5.91,0,0,0,3-.64s11.92-38.65,17.72-53.65,9.19-36.44,9.19-36.44Z"/><path class="cls-4" d="M177.33,88.06s.94,6.22,10.56,36a100.2,100.2,0,0,0,.62,13.47c.84,7.23,10.58,35.69,10.58,35.69a6,6,0,0,0,3.24-.06,10.28,10.28,0,0,0,3.21-1.56s-3.73-40.68-3.48-56.77-4-37.36-4-37.36Z"/><path class="cls-5" d="M194.36,1.91A8.71,8.71,0,0,0,189.7.77a2.16,2.16,0,0,1,1-.42,7.31,7.31,0,0,0-2.64.55c-11-4.89-13.59,11.55-13.55,15.4s-.15,8.27-5.92,11.43C157.24,34,166,46.24,166,46.24c-2,5.87,5.52,13.06,5.52,13.06-.13-3.12,14.18-23,21.89-27.5,1.95-2.58,2.83-7.28,2.9-7.65a20.53,20.53,0,0,1-1.88,7C201,25.61,198.36,4.45,194.36,1.91Z"/><path class="cls-2" d="M192,29.68s-3.61,1.91-6.35,1.16c-2.59-.71-4.27-4.05-4.24-4.06,1.1-.22,1.41-1.72,1.39-8.17l.49.09,8,1.59.3.06s-.19,2.61-.2,5.08c0,.52,0,1,0,1.51C191.45,28.37,191.61,29.51,192,29.68Z"/><path class="cls-6" d="M191.37,25.43c0,.52,0,1,0,1.51-4.66-.19-7.34-5.51-8.36-7.85l8.23,1.2.3.06S191.38,23,191.37,25.43Z"/><path class="cls-5" d="M182.4,17.8a24.61,24.61,0,0,1-3-7.14c-.41-2.35.78-11.06,9.54-9.8a11.91,11.91,0,0,1,4.93,1.86c1.9,1.28,4.64,4,1.57,11.65l-.79,2.57Z"/><path class="cls-2" d="M192.06,24.22s-10.9-1.44-9.9-8.22.27-11.53,7.27-10.89,8,3.42,8.19,5.76S194.92,24.42,192.06,24.22Z"/><path class="cls-5" d="M194.41,5.68s-4.16,7.51-8.91,8-6.54-1-6.54-1a13.07,13.07,0,0,0,5.37-7S192.73,1.56,194.41,5.68Z"/><path class="cls-5" d="M193.58,6.22s2,2.1,2.24,3.91,0,5.39,1.05,5.43c0,0,3-5.07,1-8.51C195.67,3.42,193.58,6.22,193.58,6.22Z"/><path class="cls-7" d="M266,98.29c-2.29-4.85-8.65-8.86-14-8.86A15.91,15.91,0,0,0,241.84,93a2.68,2.68,0,0,1-4.3-1.52l-4.69-21.79a5.87,5.87,0,0,0-7-4.51L150,81.49a5.75,5.75,0,0,0-4.41,6.83l16.32,75.81a5.94,5.94,0,0,0,4,4.43l-1,.28h3a5.89,5.89,0,0,0,1.09-.13l1.65-.36h0l19.48-4.19a3.67,3.67,0,0,0,2-6A15.78,15.78,0,1,1,218.54,154a2.51,2.51,0,0,0,.74,3l-1.13.56h2.63a2.6,2.6,0,0,0,.61,0l23.25-5a5.88,5.88,0,0,0,4.52-7l-4.66-21.66a2.76,2.76,0,0,1,3.38-3.25A15.8,15.8,0,0,0,266,98.29Z"/><path class="cls-8" d="M249.3,89.43A15.91,15.91,0,0,0,239.16,93a2.68,2.68,0,0,1-4.3-1.52l-4.69-21.79a5.87,5.87,0,0,0-7-4.51L147.29,81.49a5.75,5.75,0,0,0-4.41,6.83l16.32,75.81a6,6,0,0,0,7.09,4.58l21.13-4.55a3.67,3.67,0,0,0,2-6A15.78,15.78,0,1,1,215.86,154a2.53,2.53,0,0,0,2.85,3.46l23.25-5a5.88,5.88,0,0,0,4.52-7l-4.66-21.66a2.76,2.76,0,0,1,3.38-3.25,15.8,15.8,0,0,0,18.11-22.23C261,93.44,254.66,89.43,249.3,89.43Z"/><path class="cls-2" d="M221.54,60.61s4.73.78,6,3.86-.49,5.16-1.16,5.15a3,3,0,0,1-2.54-2.09C223.21,65.93,221.54,60.61,221.54,60.61Z"/><path class="cls-2" d="M156.37,74.35s5.32,0,7.23,3.13.39,5.73-.34,5.85a3.31,3.31,0,0,1-3.16-1.84C159.16,79.86,156.37,74.35,156.37,74.35Z"/><path class="cls-9" d="M221.67,64.19c-.47-.11-2.53-.35-5.15-.76-4.82-.76-11.55-2.09-13.81-4.17-.61-.57-2-3.68-3.51-7.24A67.75,67.75,0,0,0,198,70.57l-32.6,7c2.79-5.65,7.12-12.66,6.31-18.33-.3-2.1-1.45-5-1.89-8.23l-.09-.84c-4.57,3.76-9.85,7.92-10,8.75-.21,1.39,3.35,16.81,3.35,16.81-.88,2-4.72,1.6-4.72,1.6-3.6-2.57-8.89-17.13-8.47-20.35s13.54-21.61,16.72-26,14.59-4.23,14.87-4.23h0c9.11,5.47,9.93.92,9.93.92s8.22,1.57,9.63,4,7.6,20.84,8,21.49c.92,1.35,15.89,6.78,16.16,8.35S223,64.47,221.67,64.19Z"/><path class="cls-10" d="M176.78,75.16l-11.37,2.43C168.24,72,172,64.93,171.15,59.3c-.31-2.11-1-4.6-1.32-7.85,0-.32-.09-1.26-.09-1.26s8,6.34,8.2,13.19A69.24,69.24,0,0,1,176.78,75.16Z"/><path class="cls-10" d="M216.82,63.47c-4.88-.76-11.69-2.09-14-4.17-.62-.57-2.07-3.68-3.56-7.25,0,0-.53-5.74,1-5.52s3.71,10.39,5.28,11C207,58.14,214.75,61.13,216.82,63.47Z"/><g id="man"><path class="cls-11" d="M457.38,282.07c-.69,2.32-3.87,3.86-4.3,6.7A6.08,6.08,0,0,1,451.7,292h-9.89c.1-.54.53-1.13,1.82-1.41,2.74-.6,3.78-3.93,3.61-7a39.23,39.23,0,0,1,0-4.06c.08-1.77.23-3.16.23-3.16l5.84-1.37.61.79.59.75S458.06,279.75,457.38,282.07Z"/><path class="cls-11" d="M411.31,292h-20a4,4,0,0,1,2.52-1.25c3.08-.5,8.42-2.29,9.61-6.23,0-.12.07-.25.1-.38.94-4.21,7.82,1.28,7.82,1.28s0,.17.05.46A21.44,21.44,0,0,1,411.31,292Z"/><path class="cls-12" d="M394.63,180.45s1,13,2.27,28.68c1.67,21.26,3.67,47.37,3.87,52.32.34,8.59,1.72,22.34,1.72,22.34s3.26,3.26,9.79,1.88a224.47,224.47,0,0,0,7.48-40.37c0-.34.05-.68.08-1,1.55-21.13,4-65.62,4-65.62Z"/><path class="cls-11" d="M394.63,180.45s1,13,2.27,28.68l22.86,36.17c0-.34.05-.68.08-1,1.55-21.13,4-65.62,4-65.62Z"/><path class="cls-12" d="M399.4,182s18.81,47.16,31.18,69.32,16.23,28.34,16.23,28.34,7.09-2.83,7.73-4.76c0,0-4.73-42.79-13-53.22-4.68-5.89-10.18-23.58-10.44-29.76s-1.67-18.42-1.67-18.42Z"/><path class="cls-13" d="M409,109.21a56.26,56.26,0,0,1-.86-7.87l9.55-7.69c-.36,10.58,6.42,15.66,6.42,15.66s-12.72,6.26-20.07,3.94A17.61,17.61,0,0,1,409,109.21Z"/><path class="cls-14" d="M405.93,101.17s12.15,2,13.29-5.57,3.47-12.42-4.23-14-9.65,1.06-10.65,3.49S402.8,100.45,405.93,101.17Z"/><path class="cls-14" d="M363.29,116.8l-2.59-1.61a6.53,6.53,0,0,0-8.72-1.8s-2.18,1.39-.72,2.56,1.07.5,3.1,2.19,4.65,2.29,6.34,1.36l2.17-.21Z"/><path class="cls-15" d="M360.22,117.29c.67-2.08,1-2.26,1-2.26s20.91,2.47,22.88,2.61,29.34-5.49,29.34-5.49l12.92,15.69s-38.1,1.44-43.09,1c-8.24-.77-23.18-8.44-23.18-8.44A6.14,6.14,0,0,1,360.22,117.29Z"/><path class="cls-16" d="M430.85,175.91c0,.8-1.63,1.69-2.36,2a50.5,50.5,0,0,1-16.28,4.7c-6.81.7-14.86-.83-17.62-.8a1.2,1.2,0,0,1-.77-.29c-.18-.15-.33-8.47-.18-19,0-.4,0-.85,0-1.25v-.15c0-1.09,0-2.2.05-3.32.07-3.07.19-6.22.32-9.34.2-4.61.47-9.15.85-13.16a76.73,76.73,0,0,1,1.54-10.4,25.35,25.35,0,0,1,7.95-12.7l2.54-2.25a12.05,12.05,0,0,0,7.92-1c2.91-1.44,6.07-3,6.59-2.62,3.92,2.94,6.56,9.6,7.92,18.06a93.24,93.24,0,0,1,1.06,14.93c0,2-.07,4.1-.19,6.18a203.11,203.11,0,0,0,.41,26.5C430.74,173.73,430.83,175,430.85,175.91Z"/><path class="cls-17" d="M366.3,72.57,289.52,60.38a6,6,0,0,0-6.85,5l-3.4,21.4a25,25,0,0,0,.09,3.78l2.77.41a2.65,2.65,0,0,0,.48.07h0a3.62,3.62,0,0,0,1.54-.21A15.83,15.83,0,1,1,278.49,117a2.45,2.45,0,0,0-1.5-.71h0l-2.89-.44L270.49,142a5.91,5.91,0,0,0,4.91,6.76l21.93,3.48a2.77,2.77,0,0,1,1.82,4.34,15.68,15.68,0,0,0-2.75,6.72,15.84,15.84,0,0,0,17,18.26c5.35-.38,11.41-4.87,13.35-9.88a16,16,0,0,0,.35-10.78,2.68,2.68,0,0,1,3-3.46l22.07,3.5a5.89,5.89,0,0,0,6.75-4.9l12.21-76.87A5.77,5.77,0,0,0,366.3,72.57Z"/><path class="cls-15" d="M421.71,124.27s-5.89,27.47-28,33.59c.07-3.07.19-6.22.32-9.34.2-4.61.47-9.15.85-13.16a8.13,8.13,0,0,1,1.11-.47C403.5,132.41,421.71,124.27,421.71,124.27Z"/><path class="cls-18" d="M323.89,171.25a16,16,0,0,0,.36-10.78,2.67,2.67,0,0,1,3-3.46l22.07,3.51a5.92,5.92,0,0,0,6.76-4.91l12.2-76.87a5.77,5.77,0,0,0-4.79-6.6L286.68,60a6,6,0,0,0-6.85,5l-3.4,21.4a3.68,3.68,0,0,0,4.88,4.05,15.83,15.83,0,1,1-5.66,26.24,2.53,2.53,0,0,0-4.26,1.41l-3.74,23.55a5.91,5.91,0,0,0,4.91,6.76l21.93,3.48a2.77,2.77,0,0,1,1.82,4.34,15.68,15.68,0,0,0-2.75,6.72,15.85,15.85,0,0,0,17,18.27C315.9,180.75,322,176.26,323.89,171.25Z"/><path class="cls-14" d="M363.38,134.5l-3.16-.52a7.79,7.79,0,0,0-9.87-2.28s-2.49,1.39-.84,2.69,1.2.58,3.48,2.47,5.25,2.63,7.17,1.71l2.47-.13Z"/><path class="cls-16" d="M361,136.11c.11-2.32,1.34-2.57,1.34-2.57s23.92-1.58,26-2,21.11-16.19,21.11-16.19,7.37-6.62,12.53-4.38c4.49,1.94,5.89,5.77,6.12,9.29a10.25,10.25,0,0,1-5.91,9.9c-8.56,4-25.67,11.84-29.56,12.52-8.67,1.5-31-3.32-31-3.32A7.31,7.31,0,0,1,361,136.11Z"/><path class="cls-11" d="M404.34,85.06a7.07,7.07,0,0,1-1.71-9.33,18.68,18.68,0,0,0,9.38,0c5.51-1.28,10.44.54,11.08,2.47,0,0,2.14.85,2.36,4.07s-6.23,13.33-6.23,13.33-1.38-1.71-1-2.89,1.56-3.8.11-3.8-1.93,2.14-2.52,1.28.49-4.44-1.23-5S406.27,86.15,404.34,85.06Z"/></g><path class="cls-19" d="M236.84,289.23l-21.7-98.56h6a2.58,2.58,0,0,0,2.58-2.57v-3.33a2.58,2.58,0,0,0-2.58-2.57H145.32a2.58,2.58,0,0,0-2.58,2.57v3.33a2.58,2.58,0,0,0,2.58,2.57H153L131.3,289.23a2.46,2.46,0,1,0,4.81,1.06l21.94-99.62h52L232,290.29a2.46,2.46,0,0,0,2.93,1.88h0A2.47,2.47,0,0,0,236.84,289.23Z"/><path class="cls-1" d="M380.78,228.87c-8-7.71-36.95,41-36.95,41S388.82,236.59,380.78,228.87Z"/><path class="cls-1" d="M379.82,251.37c-7.11-2.84-29.84,21.12-35,26.65a112.62,112.62,0,0,0-12.92-.94c-36-.64-52.32,15.66-52.32,15.66l100.4.34s-8.89-11.29-34.12-14.92c6.16-2.91,24.4-11.39,31-13C385,263.17,387.85,254.58,379.82,251.37Z"/><path class="cls-7" d="M351.5,204.22H329.83a3.68,3.68,0,0,0-3.23,5.46c1.31,2.37-3.3,22.91-13,23.44A15.83,15.83,0,0,1,299.8,208.2a2.52,2.52,0,0,0-2.06-4H273.89a5.9,5.9,0,0,0-5.9,5.9s-2.17,25.6-4,24.69a15.56,15.56,0,0,0-6.23-1.64h0c-.27,0-.54,0-.81,0l-4.19-.07-.6,31.64,3.41,0c3.24-.09,6.06-.4,8.56-1.67a2.68,2.68,0,0,1,3.89,2.39v22.35a5.9,5.9,0,0,0,5.9,5.9h77.83a5.77,5.77,0,0,0,5.77-5.77V210.21A6,6,0,0,0,351.5,204.22Z"/><path class="cls-8" d="M249.21,264.35A16,16,0,0,0,259.9,263a2.68,2.68,0,0,1,3.89,2.39v22.35a5.9,5.9,0,0,0,5.9,5.9h77.83a5.76,5.76,0,0,0,5.77-5.76V210.14a6,6,0,0,0-6-6H325.63a3.68,3.68,0,0,0-3.23,5.46,15.83,15.83,0,1,1-26.8-1.47,2.53,2.53,0,0,0-2.06-4H269.69a5.91,5.91,0,0,0-5.9,5.91v22.21a2.76,2.76,0,0,1-4,2.47,15.84,15.84,0,0,0-22.44,18C238.57,257.94,244,263.22,249.21,264.35Z"/><path class="cls-1" d="M23.84,292.4l14,.1s-.49-3.38-9.9-4.26h0c-3.65-10.14-14.38-37.42-23.69-36.13s12.58,26.3,21.44,36a22.46,22.46,0,0,0-3.5.28c-2.13-4.25-6.37-10.26-13.16-10-7.22.29,2.62,6.89,9.4,10.94a16.72,16.72,0,0,0-5.29,2.94l10.55.08.2.1Z"/><path class="cls-6" d="M73.82,179.36,75.89,181s5.67-2,6.94,4.69c0,0,.34,2.87-1.47,2.88s-1.07-.32-3.64-.24S73,187.09,72.64,185l-1.23-1.77Z"/><path class="cls-20" d="M73.59,183c1.65-1.72,1.52-3,1.52-3S56,164.31,54.05,163c-1.32-.87-15.41-13.35-22-21-3.27-3.78-7.31-2.31-11.94-1l-3.81,1.09c-4.6,1.32-5.8,7.76-2,10.88,10.63,8.81,28.32,18.72,31.63,20.8,8.22,5.17,24.3,11.31,24.3,11.31A10.28,10.28,0,0,0,73.59,183Z"/><path class="cls-21" d="M96,279a14.44,14.44,0,0,0,11.75,1.64s5.73-1.31,7,1.55c0,0-8.79,4.47-11,5.69a26.63,26.63,0,0,0-4.66,3.5,2.32,2.32,0,0,1-3.34-.26c-.39-.48-.83-1-1.32-1.7-1.35-1.84-4.51-7.77-4.51-7.77Z"/><path class="cls-4" d="M98.14,277.38s-2.83,6.52-9.35,5.32c0,0-13.31-11-22.44-22.41a50.76,50.76,0,0,1-7-10.9c-6-14-22.39-34.92-32.78-45.52l26-9.4S60.91,211.22,72,231.79C80,246.61,89.38,263.42,98.14,277.38Z"/><path class="cls-21" d="M72,231.79l-5.64,28.5a50.76,50.76,0,0,1-7-10.9c-6-14-22.39-34.92-32.78-45.52l26-9.4S60.91,211.22,72,231.79Z"/><path class="cls-21" d="M50.67,282.68s-.28,5.2,6,5.9c0,0,3.6,0,3.61,3.32L42,292a14.25,14.25,0,0,1-.66-4.19c-.1-2.2,2.13-7.94,2.13-7.94Z"/><path class="cls-4" d="M44.06,194.47S55.64,207.19,63,230.12c4,12.47-7.33,43.83-9.54,54.72,0,0-7.6.65-12.8-1.36,0,0-.39-22.51,2.65-39.85,1.7-9.71-15.25-20.76-22.66-38.3-5-11.93,1.09-11.73,8.63-12Z"/><path class="cls-2" d="M30.69,137.7c-6.44,3.64-19.63.28-19.63.28s5.35-6.12,2.92-16L19,124.57l5.43,2.76a46,46,0,0,1,.6,4.87c.06.8.12,1.7.15,2.68A17,17,0,0,1,30.69,137.7Z"/><path class="cls-22" d="M54.31,193.81c0,1.13-1.3,1.68-1.58,1.73-2.6.48-9.85,3.3-16.39,3.94a52.56,52.56,0,0,1-16.23-1.09c-.74-.15-2.48-.62-2.61-1.34s-21.65-43.82-4.94-62.31c.39-.44,3.69.34,6.71,1.06a12.41,12.41,0,0,0,7.62-.62l2.83,1.49c3.48,1.93,10.05,8.81,10.82,14.21.39,2.74,2,4.78,2.42,7.19.16.89.34,1.77.51,2.62.34,1.66.7,3.25,1.06,4.76,1,4.08,2,7.6,3,10.63,1.08,3.22,2.15,5.91,3.1,8.15,1.23,2.91,2.27,5.08,2.92,6.74A8.38,8.38,0,0,1,54.31,193.81Z"/><path class="cls-20" d="M53.59,191c-30.35-14.29-40.86-41.75-40.86-41.75s24.66,9.1,30.74,11.47c.34,1.66.7,3.25,1.06,4.76,1,4.08,2,7.6,3,10.63,1.08,3.22,2.15,5.91,3.1,8.15C51.9,187.14,52.94,189.31,53.59,191Z"/><path class="cls-17" d="M139.31,160.57,132.81,140a3.68,3.68,0,0,0-4.51-2.44h0l-.28.09-2.28.76s-3.57,3.68-6.13,4.42c-7.87,2.28-15.35-1.92-18.22-9.6-3.19-8.53.51-17.91,9.1-20.62,2.93-.92,8.71.8,8.71.8l2.32-.77a2.52,2.52,0,0,0,1.68-3.17L116,86.75a5.88,5.88,0,0,0-7.38-3.85L87.52,89.56A2.75,2.75,0,0,1,84,86.5a15.8,15.8,0,0,0-23.83-16c-4.61,2.73-8,9.44-7.51,14.78a15.94,15.94,0,0,0,4.48,9.77A2.66,2.66,0,0,1,56,99.5l-21.26,6.71a5.88,5.88,0,0,0-3.84,7.38l23.35,74a5.75,5.75,0,0,0,7.21,3.76l73.95-23.32A6,6,0,0,0,139.31,160.57Z"/><path class="cls-18" d="M50.38,86.07a15.94,15.94,0,0,0,4.48,9.77,2.66,2.66,0,0,1-1.11,4.41L32.49,107a5.88,5.88,0,0,0-3.84,7.38l23.35,74a5.75,5.75,0,0,0,7.21,3.76l73.95-23.32a6,6,0,0,0,3.9-7.49l-6.5-20.62a3.67,3.67,0,0,0-6.16-1.43,15.79,15.79,0,1,1-6.64-25.93,2.53,2.53,0,0,0,3.18-3.16l-7.16-22.69a5.88,5.88,0,0,0-7.38-3.84L85.27,90.31a2.75,2.75,0,0,1-3.55-3.06,15.8,15.8,0,0,0-23.83-16C53.28,74,49.88,80.73,50.38,86.07Z"/><path class="cls-2" d="M71.35,182.69l2.62,1s5.25-3.71,8.52,2.33c0,0,1.18,2.63-.69,3.21s-1.19,0-3.82.91-5.23.24-6.22-1.64L70,187.16Z"/><path class="cls-22" d="M73.5,186.4c1-2.53,1.42-3.68,1.42-3.68S55.1,166.57,53.08,165.18C51.71,164.24,38,154,31.33,146a14,14,0,0,0-13.59-4.71l-4.16.88a6.18,6.18,0,0,0-2.75,10.75c11,9.41,29.48,20.32,32.93,22.59,8.57,5.63,27.51,13.53,27.51,13.53A4.92,4.92,0,0,0,73.5,186.4Z"/><path class="cls-6" d="M25.07,132.2c-6.34.35-10.46-4.88-10.46-4.88A51.38,51.38,0,0,0,19,124.57l5.43,2.76A46,46,0,0,1,25.07,132.2Z"/><path class="cls-2" d="M27.77,125.69s-9.6,6.89-13.8.85-8.27-9.23-2.31-13.88,8.75-3.19,10.65-1.51S30.16,123.74,27.77,125.69Z"/><path class="cls-21" d="M23.32,105.69a15.31,15.31,0,0,0-1.12-4s-.6,2.5-5.16,2.15-11.79.45-14.2,5.65c-.15.33-.29.67-.41,1a11.78,11.78,0,0,1-.54-2.88,8.85,8.85,0,0,0,0,5h0a2,2,0,0,0,0,.24c-1,.85-1.85,3.5-1.85,3.5a3.14,3.14,0,0,1,1.71-1.52c0,4,1.61,8,4.49,9.17,4.21,1.73,4.18.41,8.41,3.22,0,0,1.14-1.41.36-2.35s-3.7-2.33-2.06-3.71,2.23.18,2.84-.77-2.41-3.7,1.46-6.28S23.66,108,23.32,105.69Z"/><path class="cls-23" d="M270.44,292s-4.85-7.18-12.45-6.6c-2.31.18-6.06.74-10.42,1.34C244.28,275.27,235.22,248,223,246.47c-12.48-1.57,11.95,28.75,21.93,40.62-1.82.24-3.71.48-5.62.69-5.29-5.65-14.5-14-22.19-13.37s6.72,8.62,17.15,13.83c-6.4.48-12.46.43-16.17-1C209,283.73,200.69,292,200.69,292Z"/></g></g></svg>