<svg xmlns="http://www.w3.org/2000/svg" viewBox="0 0 134.36 186.75"><defs><style>.cls-1{fill:#c53e39;}.cls-2{fill:#6e6262;}.cls-19,.cls-3{fill:#521211;}.cls-3{opacity:0.5;}.cls-4{fill:#771415;}.cls-5{fill:#b49f9b;}.cls-6{fill:#dba863;}.cls-7{fill:#47373b;}.cls-8{fill:#ad9f64;}.cls-9{fill:#c3c270;}.cls-10{fill:#646942;}.cls-11{fill:#010101;opacity:0.36;}.cls-12{fill:#a97d49;}.cls-13{fill:#f6d8a5;}.cls-14{fill:#e2d6c5;}.cls-15{fill:#771213;}.cls-16{fill:#595758;}.cls-17{fill:#af9b8a;}.cls-18{fill:#a58e84;}.cls-19,.cls-24{opacity:0.83;}.cls-20{fill:#f8f5eb;}.cls-21{fill:#3d1317;}.cls-22{fill:#b5bca7;}.cls-23{fill:#3e5657;}.cls-25{fill:#1d1d1b;}.cls-26{fill:#745e28;}.cls-27{fill:#d3b740;}.cls-28{fill:#b99f34;}.cls-29{fill:#dbc156;}</style></defs><g id="Layer_2" data-name="Layer 2"><g id="Layer_1-2" data-name="Layer 1"><path class="cls-1" d="M80.05,20.65l0,.2,0,.23c0,.07,0,.13,0,.2l-.06.22a1.17,1.17,0,0,1-.06.2l-.07.22-.08.2-.09.23-.09.19-.12.23a1.74,1.74,0,0,0-.1.19l-.17.27-.1.16-.22.29a1.13,1.13,0,0,1-.1.13,5.58,5.58,0,0,1-.39.46l-.11.12-.35.34-.17.16-.21.19-.21.17-.24.19-.23.17-.26.18-.24.17-.28.17-.35.22c-.23.13-.46.26-.7.38l-.21.1-.56.26-.19.09-.77.31-.13.05-.66.23-.28.09-.37.11-.31.1-.38.1-.32.08-.39.09-.32.07-.4.07-.31.06-.86.14-.12,0-.76.09-.29,0-.49,0-.31,0-.51,0-.29,0H64.2l-.44,0h-.3l-.47,0-.26,0-.56-.05-.18,0-.72-.09-.1,0-.64-.1-.25,0-.48-.09-.24-.05-.51-.12-.28-.07-.47-.12L58,28l-.72-.23-.12,0c-.28-.09-.55-.19-.81-.29l-.32-.13-.26-.11L55.46,27l-.23-.11-.38-.19-.19-.09-.54-.3a10.48,10.48,0,0,1-3.38-2.94,5.79,5.79,0,0,1-1.12-3.34l0,109.25c0,2.27,1.49,4.55,4.49,6.28l.55.3.19.1.38.18.23.11.35.16.26.1.24.1.08,0,.8.3.13,0,.72.22.12,0,.14,0,.46.12.28.07.52.12.19,0h.05l.47.09.26,0,.63.1h.1L62,138l.17,0,.56.05h0l.25,0,.47,0,.3,0H66l.52,0,.3,0,.5,0h.17l.11,0,.77-.09.12,0c.29,0,.57-.08.86-.13h.08l.22,0,.4-.08.32-.07.39-.09.32-.08.38-.1.32-.09.37-.11.16-.05.11,0c.23-.07.45-.15.66-.23l.14-.05.76-.31.2-.09.56-.27.21-.1.7-.38.18-.11.17-.1.28-.18.24-.16a2.4,2.4,0,0,1,.26-.18l.22-.18.24-.18.21-.17.22-.2.09-.08.08-.07.34-.35a.57.57,0,0,0,.11-.11c.14-.15.28-.31.4-.46v0l.08-.11.22-.3.11-.16c.06-.09.11-.18.16-.27l.05-.07,0-.11c0-.08.08-.16.12-.23a1.63,1.63,0,0,0,.09-.19c0-.08.07-.16.1-.23s0-.07,0-.11,0-.06,0-.09l.07-.22.06-.2c0-.08,0-.15,0-.23s0-.08,0-.12a.19.19,0,0,0,0-.08,1.7,1.7,0,0,0,0-.22,1.5,1.5,0,0,0,0-.2,2,2,0,0,0,0-.23c0-.05,0-.1,0-.14v-.13l0-109.26a2.45,2.45,0,0,1,0,.27A1.77,1.77,0,0,1,80.05,20.65Z"/><path class="cls-2" d="M75.58,13.87c-6-3.44-15.61-3.44-21.54,0s-5.89,9,.08,12.48,15.6,3.44,21.53,0S81.55,17.32,75.58,13.87Z"/><path class="cls-3" d="M64,138.15h-.52A1,1,0,0,0,64,138.15Z"/><path class="cls-3" d="M66.52,28.88s6,107.57-2.57,109.27c2.62,0,14.6-.37,16.06-8.24l0-109.49S80,27.28,66.52,28.88Z"/><path class="cls-4" d="M76,26.13s.15,79.67,4,60.05l0-65.45C80,21.42,79.48,23.3,76,26.13Z"/><path class="cls-4" d="M80.06,20.42v.31A1.23,1.23,0,0,0,80.06,20.42Z"/><path class="cls-5" d="M80.35,18.06c-8.56-4.94-22.44-4.94-31,0s-8.56,13,0,17.9,22.44,4.94,31,0S88.91,23,80.35,18.06Z"/><polygon class="cls-5" points="44.78 21.91 84.92 21.91 64.85 0 44.78 21.91"/><path class="cls-6" d="M81.29,115.52a1.13,1.13,0,0,0-1.32.91c-1.41,7.61-15.37,7.71-15.44,7.71-14.43-.85-14.83-7.67-14.84-8A1.13,1.13,0,0,0,48.56,115h0a1.14,1.14,0,0,0-1.13,1.14c0,.38.25,9.24,17,10.23h0c.7,0,16-.12,17.73-9.57A1.13,1.13,0,0,0,81.29,115.52Z"/><path class="cls-6" d="M81.29,100.75a1.13,1.13,0,0,0-1.32.91c-1.41,7.61-15.37,7.7-15.44,7.71-14.43-.85-14.83-7.67-14.84-8a1.12,1.12,0,0,0-1.13-1.11h0a1.14,1.14,0,0,0-1.13,1.14c0,.37.25,9.24,17,10.22h0c.7,0,16-.11,17.73-9.56A1.13,1.13,0,0,0,81.29,100.75Z"/><path class="cls-6" d="M81.31,84.78a1.13,1.13,0,0,0-1.32.9c-1.41,7.62-15.37,7.71-15.44,7.71-14.43-.84-14.83-7.65-14.84-8a1.13,1.13,0,0,0-1.13-1.12h0a1.15,1.15,0,0,0-1.13,1.15c0,.37.24,9.24,17,10.22h0c.71,0,16-.12,17.74-9.56A1.13,1.13,0,0,0,81.31,84.78Z"/><path class="cls-6" d="M81.31,70a1.14,1.14,0,0,0-1.32.91c-1.41,7.61-15.37,7.71-15.44,7.71-14.43-.84-14.83-7.65-14.84-8a1.13,1.13,0,0,0-1.13-1.12h0a1.14,1.14,0,0,0-1.13,1.14c0,.38.24,9.25,17,10.23h0c.71,0,16-.12,17.74-9.56A1.14,1.14,0,0,0,81.31,70Z"/><path class="cls-6" d="M81.29,54a1.13,1.13,0,0,0-1.32.91c-1.41,7.61-15.37,7.71-15.44,7.71-14.43-.85-14.83-7.66-14.84-8a1.13,1.13,0,0,0-1.13-1.12h0a1.14,1.14,0,0,0-1.13,1.14c0,.38.25,9.25,17,10.23h0c.7,0,16-.12,17.73-9.56A1.14,1.14,0,0,0,81.29,54Z"/><path class="cls-6" d="M81.29,39.19A1.13,1.13,0,0,0,80,40.1c-1.41,7.61-15.37,7.71-15.44,7.71-14.43-.85-14.83-7.67-14.84-8a1.13,1.13,0,0,0-1.13-1.12h0a1.14,1.14,0,0,0-1.13,1.14c0,.38.25,9.24,17,10.23h0c.7,0,16-.12,17.73-9.57A1.13,1.13,0,0,0,81.29,39.19Z"/><path class="cls-7" d="M55.61,49.47C52.78,47.84,52.9,52,52.9,52v4.66l2.71,1.56,2.71,1.57V55.13S58.44,51.11,55.61,49.47Z"/><path class="cls-7" d="M55.61,49.47C52.78,47.84,52.9,52,52.9,52v4.66l2.71,1.56,2.71,1.57V55.13S58.44,51.11,55.61,49.47Z"/><path class="cls-7" d="M55.61,65.23c-2.83-1.64-2.71,2.53-2.71,2.53v4.66L55.61,74l2.71,1.56V70.89S58.44,66.86,55.61,65.23Z"/><path class="cls-7" d="M55.61,65.23c-2.83-1.64-2.71,2.53-2.71,2.53v4.66L55.61,74l2.71,1.56V70.89S58.44,66.86,55.61,65.23Z"/><path class="cls-7" d="M55.35,80.21c-2.83-1.64-2.71,2.53-2.71,2.53V87.4L55.35,89l2.71,1.56V85.87S58.18,81.84,55.35,80.21Z"/><path class="cls-7" d="M55.35,80.21c-2.83-1.64-2.71,2.53-2.71,2.53V87.4L55.35,89l2.71,1.56V85.87S58.18,81.84,55.35,80.21Z"/><path class="cls-2" d="M64.85,0,84,33.19c5.72-6.13.94-11.28.94-11.28Z"/><polygon class="cls-8" points="0.13 151.86 60.57 186.75 134.33 144.16 73.89 109.27 0.13 151.86"/><polygon class="cls-8" points="0.13 151.86 2.77 153.38 2.77 151.04 0.13 149.51 0.13 151.86"/><polygon class="cls-9" points="0.13 149.51 60.57 184.41 134.33 141.82 73.89 106.93 0.13 149.51"/><polygon class="cls-10" points="60.57 186.75 134.33 144.16 134.33 141.82 60.57 184.41 60.57 186.75"/><path class="cls-11" d="M61,170.92s.44,1.1,5.88,0,50.82-19,67.47-29.1L115,130.67Z"/><polygon class="cls-12" points="15.93 136.22 25.19 130.87 25.19 129.74 15.93 135.09 15.93 136.22"/><polygon class="cls-6" points="15.63 136.05 15.93 136.22 15.93 135.09 15.63 134.92 15.63 136.05"/><polygon class="cls-13" points="15.63 134.92 15.93 135.09 25.19 129.74 24.9 129.57 15.63 134.92"/><polygon class="cls-12" points="15.93 139.59 25.19 134.23 25.19 133.1 15.93 138.45 15.93 139.59"/><polygon class="cls-6" points="15.63 139.42 15.93 139.59 15.93 138.45 15.63 138.29 15.63 139.42"/><polygon class="cls-13" points="15.63 138.29 15.93 138.45 25.19 133.1 24.9 132.94 15.63 138.29"/><polygon class="cls-12" points="24.05 128.97 24.05 136.14 25.19 135.48 25.19 128.31 24.62 127.33 24.05 128.97"/><polygon class="cls-13" points="23.75 128.8 24.05 128.97 24.62 127.33 24.33 127.16 23.75 128.8"/><polygon class="cls-6" points="23.75 135.97 24.05 136.14 24.05 128.97 23.75 128.8 23.75 135.97"/><polygon class="cls-12" points="22.09 130.1 22.09 137.27 23.24 136.61 23.24 129.44 22.67 128.45 22.09 130.1"/><polygon class="cls-13" points="21.8 129.93 22.09 130.1 22.67 128.45 22.37 128.28 21.8 129.93"/><polygon class="cls-6" points="21.8 137.1 22.09 137.27 22.09 130.1 21.8 129.93 21.8 137.1"/><polygon class="cls-12" points="20.14 131.23 20.14 138.4 21.29 137.74 21.29 130.57 20.71 129.58 20.14 131.23"/><polygon class="cls-13" points="19.85 131.06 20.14 131.23 20.71 129.58 20.42 129.41 19.85 131.06"/><polygon class="cls-6" points="19.85 138.23 20.14 138.4 20.14 131.23 19.85 131.06 19.85 138.23"/><polygon class="cls-12" points="18.18 132.36 18.18 139.53 19.33 138.86 19.33 131.69 18.76 130.71 18.18 132.36"/><polygon class="cls-13" points="17.89 132.19 18.18 132.36 18.76 130.71 18.46 130.54 17.89 132.19"/><polygon class="cls-6" points="17.89 139.36 18.18 139.53 18.18 132.36 17.89 132.19 17.89 139.36"/><polygon class="cls-12" points="16.23 133.49 16.23 140.65 17.38 139.99 17.38 132.82 16.8 131.84 16.23 133.49"/><polygon class="cls-13" points="15.94 133.32 16.23 133.49 16.8 131.84 16.51 131.67 15.94 133.32"/><polygon class="cls-6" points="15.94 140.49 16.23 140.65 16.23 133.49 15.94 133.32 15.94 140.49"/><polygon class="cls-12" points="8.11 140.71 17.38 135.36 17.38 134.23 8.11 139.58 8.11 140.71"/><polygon class="cls-6" points="7.82 140.54 8.11 140.71 8.11 139.58 7.82 139.41 7.82 140.54"/><polygon class="cls-13" points="7.82 139.41 8.11 139.58 17.38 134.23 17.08 134.06 7.82 139.41"/><polygon class="cls-12" points="8.11 144.08 17.38 138.73 17.38 137.6 8.11 142.95 8.11 144.08"/><polygon class="cls-6" points="7.82 143.91 8.11 144.08 8.11 142.95 7.82 142.78 7.82 143.91"/><polygon class="cls-13" points="7.82 142.78 8.11 142.95 17.38 137.6 17.08 137.43 7.82 142.78"/><polygon class="cls-12" points="16.23 133.47 16.23 140.63 17.38 139.97 17.38 132.8 16.8 131.82 16.23 133.47"/><polygon class="cls-13" points="15.94 133.3 16.23 133.47 16.8 131.82 16.51 131.65 15.94 133.3"/><polygon class="cls-6" points="15.94 140.47 16.23 140.63 16.23 133.47 15.94 133.3 15.94 140.47"/><polygon class="cls-12" points="14.27 134.59 14.27 141.76 15.42 141.1 15.42 133.93 14.85 132.94 14.27 134.59"/><polygon class="cls-13" points="13.98 134.43 14.27 134.59 14.85 132.94 14.56 132.78 13.98 134.43"/><polygon class="cls-6" points="13.98 141.59 14.27 141.76 14.27 134.59 13.98 134.43 13.98 141.59"/><polygon class="cls-12" points="12.32 135.72 12.32 142.89 13.47 142.23 13.47 135.06 12.89 134.07 12.32 135.72"/><polygon class="cls-13" points="12.03 135.55 12.32 135.72 12.89 134.07 12.6 133.91 12.03 135.55"/><polygon class="cls-6" points="12.03 142.72 12.32 142.89 12.32 135.72 12.03 135.55 12.03 142.72"/><polygon class="cls-12" points="10.37 136.85 10.37 144.02 11.51 143.36 11.51 136.19 10.94 135.2 10.37 136.85"/><polygon class="cls-13" points="10.07 136.68 10.37 136.85 10.94 135.2 10.65 135.03 10.07 136.68"/><polygon class="cls-6" points="10.07 143.85 10.37 144.02 10.37 136.85 10.07 136.68 10.07 143.85"/><polygon class="cls-12" points="8.41 137.98 8.41 145.15 9.56 144.48 9.56 137.31 8.98 136.33 8.41 137.98"/><polygon class="cls-13" points="8.12 137.81 8.41 137.98 8.98 136.33 8.69 136.16 8.12 137.81"/><polygon class="cls-6" points="8.12 144.98 8.41 145.15 8.41 137.98 8.12 137.81 8.12 144.98"/><polygon class="cls-12" points="0.29 145.26 9.56 139.91 9.56 138.78 0.29 144.13 0.29 145.26"/><polygon class="cls-6" points="0 145.09 0.29 145.26 0.29 144.13 0 143.96 0 145.09"/><polygon class="cls-13" points="0 143.96 0.29 144.13 9.56 138.78 9.27 138.61 0 143.96"/><polygon class="cls-12" points="0.29 148.63 9.56 143.28 9.56 142.15 0.29 147.5 0.29 148.63"/><polygon class="cls-6" points="0 148.46 0.29 148.63 0.29 147.5 0 147.33 0 148.46"/><polygon class="cls-13" points="0 147.33 0.29 147.5 9.56 142.15 9.27 141.98 0 147.33"/><polygon class="cls-12" points="8.41 138.01 8.41 145.18 9.56 144.52 9.56 137.35 8.98 136.37 8.41 138.01"/><polygon class="cls-13" points="8.12 137.84 8.41 138.01 8.98 136.37 8.69 136.2 8.12 137.84"/><polygon class="cls-6" points="8.12 145.01 8.41 145.18 8.41 138.01 8.12 137.84 8.12 145.01"/><polygon class="cls-12" points="6.46 139.14 6.46 146.31 7.6 145.65 7.6 138.48 7.03 137.49 6.46 139.14"/><polygon class="cls-13" points="6.16 138.97 6.46 139.14 7.03 137.49 6.74 137.33 6.16 138.97"/><polygon class="cls-6" points="6.16 146.14 6.46 146.31 6.46 139.14 6.16 138.97 6.16 146.14"/><polygon class="cls-12" points="4.5 140.27 4.5 147.44 5.65 146.78 5.65 139.61 5.08 138.62 4.5 140.27"/><polygon class="cls-13" points="4.21 140.1 4.5 140.27 5.08 138.62 4.78 138.45 4.21 140.1"/><polygon class="cls-6" points="4.21 147.27 4.5 147.44 4.5 140.27 4.21 140.1 4.21 147.27"/><polygon class="cls-12" points="2.55 141.4 2.55 148.57 3.69 147.9 3.69 140.74 3.12 139.75 2.55 141.4"/><polygon class="cls-13" points="2.26 141.23 2.55 141.4 3.12 139.75 2.83 139.58 2.26 141.23"/><polygon class="cls-6" points="2.26 148.4 2.55 148.57 2.55 141.4 2.26 141.23 2.26 148.4"/><polygon class="cls-12" points="0.59 142.53 0.59 149.69 1.74 149.03 1.74 141.86 1.17 140.88 0.59 142.53"/><polygon class="cls-13" points="0.3 142.36 0.59 142.53 1.17 140.88 0.88 140.71 0.3 142.36"/><polygon class="cls-6" points="0.3 149.53 0.59 149.69 0.59 142.53 0.3 142.36 0.3 149.53"/><polygon class="cls-6" points="109.16 123.37 118.43 128.72 118.43 127.59 109.16 122.24 109.16 123.37"/><polygon class="cls-12" points="118.43 128.72 118.72 128.55 118.72 127.42 118.43 127.59 118.43 128.72"/><polygon class="cls-13" points="109.16 122.24 118.43 127.59 118.72 127.42 109.45 122.07 109.16 122.24"/><polygon class="cls-6" points="109.16 126.74 118.43 132.09 118.43 130.96 109.16 125.61 109.16 126.74"/><polygon class="cls-12" points="118.43 132.09 118.72 131.92 118.72 130.79 118.43 130.96 118.43 132.09"/><polygon class="cls-13" points="109.16 125.61 118.43 130.96 118.72 130.79 109.45 125.44 109.16 125.61"/><polygon class="cls-6" points="109.16 120.81 109.16 127.98 110.31 128.64 110.31 121.47 109.74 119.83 109.16 120.81"/><polygon class="cls-13" points="109.74 119.83 110.31 121.47 110.6 121.31 110.03 119.66 109.74 119.83"/><polygon class="cls-12" points="110.31 128.64 110.6 128.47 110.6 121.31 110.31 121.47 110.31 128.64"/><polygon class="cls-6" points="111.12 121.94 111.12 129.11 112.27 129.77 112.27 122.6 111.69 120.95 111.12 121.94"/><polygon class="cls-13" points="111.69 120.95 112.27 122.6 112.56 122.44 111.98 120.79 111.69 120.95"/><polygon class="cls-12" points="112.27 129.77 112.56 129.6 112.56 122.44 112.27 122.6 112.27 129.77"/><polygon class="cls-6" points="113.07 123.07 113.07 130.24 114.22 130.9 114.22 123.73 113.64 122.08 113.07 123.07"/><polygon class="cls-13" points="113.64 122.08 114.22 123.73 114.51 123.56 113.94 121.92 113.64 122.08"/><polygon class="cls-12" points="114.22 130.9 114.51 130.73 114.51 123.56 114.22 123.73 114.22 130.9"/><polygon class="cls-6" points="115.03 124.2 115.03 131.37 116.17 132.03 116.17 124.86 115.6 123.21 115.03 124.2"/><polygon class="cls-13" points="115.6 123.21 116.17 124.86 116.47 124.69 115.89 123.04 115.6 123.21"/><polygon class="cls-12" points="116.17 132.03 116.47 131.86 116.47 124.69 116.17 124.86 116.17 132.03"/><polygon class="cls-6" points="116.98 125.33 116.98 132.49 118.13 133.16 118.13 125.99 117.55 124.34 116.98 125.33"/><polygon class="cls-13" points="117.55 124.34 118.13 125.99 118.42 125.82 117.85 124.17 117.55 124.34"/><polygon class="cls-12" points="118.13 133.16 118.42 132.99 118.42 125.82 118.13 125.99 118.13 133.16"/><polygon class="cls-6" points="116.98 127.86 126.25 133.22 126.25 132.08 116.98 126.73 116.98 127.86"/><polygon class="cls-12" points="126.25 133.22 126.54 133.05 126.54 131.92 126.25 132.08 126.25 133.22"/><polygon class="cls-13" points="116.98 126.73 126.25 132.08 126.54 131.92 117.27 126.56 116.98 126.73"/><polygon class="cls-6" points="116.98 131.23 126.25 136.58 126.25 135.45 116.98 130.1 116.98 131.23"/><polygon class="cls-12" points="126.25 136.58 126.54 136.41 126.54 135.28 126.25 135.45 126.25 136.58"/><polygon class="cls-13" points="116.98 130.1 126.25 135.45 126.54 135.28 117.27 129.93 116.98 130.1"/><polygon class="cls-6" points="116.98 125.31 116.98 132.47 118.13 133.13 118.13 125.97 117.55 124.32 116.98 125.31"/><polygon class="cls-13" points="117.55 124.32 118.13 125.97 118.42 125.8 117.85 124.15 117.55 124.32"/><polygon class="cls-12" points="118.13 133.13 118.42 132.97 118.42 125.8 118.13 125.97 118.13 133.13"/><polygon class="cls-6" points="118.94 126.43 118.94 133.6 120.08 134.26 120.08 127.09 119.51 125.45 118.94 126.43"/><polygon class="cls-13" points="119.51 125.45 120.08 127.09 120.37 126.93 119.8 125.28 119.51 125.45"/><polygon class="cls-12" points="120.08 134.26 120.37 134.09 120.37 126.93 120.08 127.09 120.08 134.26"/><polygon class="cls-6" points="120.89 127.56 120.89 134.73 122.04 135.39 122.04 128.22 121.46 126.58 120.89 127.56"/><polygon class="cls-13" points="121.46 126.58 122.04 128.22 122.33 128.06 121.75 126.41 121.46 126.58"/><polygon class="cls-12" points="122.04 135.39 122.33 135.22 122.33 128.06 122.04 128.22 122.04 135.39"/><polygon class="cls-6" points="122.84 128.69 122.84 135.86 123.99 136.52 123.99 129.35 123.42 127.7 122.84 128.69"/><polygon class="cls-13" points="123.42 127.7 123.99 129.35 124.28 129.18 123.71 127.54 123.42 127.7"/><polygon class="cls-12" points="123.99 136.52 124.28 136.35 124.28 129.18 123.99 129.35 123.99 136.52"/><polygon class="cls-6" points="124.8 129.82 124.8 136.99 125.94 137.65 125.94 130.48 125.37 128.83 124.8 129.82"/><polygon class="cls-13" points="125.37 128.83 125.94 130.48 126.24 130.31 125.66 128.66 125.37 128.83"/><polygon class="cls-12" points="125.94 137.65 126.24 137.48 126.24 130.31 125.94 130.48 125.94 137.65"/><polygon class="cls-6" points="124.8 132.36 134.06 137.71 134.06 136.58 124.8 131.23 124.8 132.36"/><polygon class="cls-12" points="134.06 137.71 134.36 137.54 134.36 136.41 134.06 136.58 134.06 137.71"/><polygon class="cls-13" points="124.8 131.23 134.06 136.58 134.36 136.41 125.09 131.06 124.8 131.23"/><polygon class="cls-6" points="124.8 135.72 134.06 141.07 134.06 139.94 124.8 134.59 124.8 135.72"/><polygon class="cls-12" points="134.06 141.07 134.36 140.9 134.36 139.77 134.06 139.94 134.06 141.07"/><polygon class="cls-13" points="124.8 134.59 134.06 139.94 134.36 139.77 125.09 134.42 124.8 134.59"/><polygon class="cls-6" points="124.8 129.8 124.8 136.97 125.94 137.63 125.94 130.46 125.37 128.81 124.8 129.8"/><polygon class="cls-13" points="125.37 128.81 125.94 130.46 126.24 130.29 125.66 128.64 125.37 128.81"/><polygon class="cls-12" points="125.94 137.63 126.24 137.46 126.24 130.29 125.94 130.46 125.94 137.63"/><polygon class="cls-6" points="126.75 130.93 126.75 138.09 127.9 138.76 127.9 131.59 127.33 129.94 126.75 130.93"/><polygon class="cls-13" points="127.33 129.94 127.9 131.59 128.19 131.42 127.62 129.77 127.33 129.94"/><polygon class="cls-12" points="127.9 138.76 128.19 138.59 128.19 131.42 127.9 131.59 127.9 138.76"/><polygon class="cls-6" points="128.71 132.05 128.71 139.22 129.85 139.88 129.85 132.72 129.28 131.07 128.71 132.05"/><polygon class="cls-13" points="129.28 131.07 129.85 132.72 130.15 132.55 129.57 130.9 129.28 131.07"/><polygon class="cls-12" points="129.85 139.88 130.15 139.72 130.15 132.55 129.85 132.72 129.85 139.88"/><polygon class="cls-6" points="130.66 133.18 130.66 140.35 131.81 141.01 131.81 133.84 131.23 132.2 130.66 133.18"/><polygon class="cls-13" points="131.23 132.2 131.81 133.84 132.1 133.68 131.53 132.03 131.23 132.2"/><polygon class="cls-12" points="131.81 141.01 132.1 140.84 132.1 133.68 131.81 133.84 131.81 141.01"/><polygon class="cls-6" points="132.62 134.31 132.62 141.48 133.76 142.14 133.76 134.97 133.19 133.32 132.62 134.31"/><polygon class="cls-13" points="133.19 133.32 133.76 134.97 134.06 134.8 133.48 133.16 133.19 133.32"/><polygon class="cls-12" points="133.76 142.14 134.06 141.97 134.06 134.8 133.76 134.97 133.76 142.14"/><polygon class="cls-12" points="124.5 142.86 133.76 137.51 133.76 136.38 124.5 141.73 124.5 142.86"/><polygon class="cls-6" points="124.2 142.69 124.5 142.86 124.5 141.73 124.2 141.56 124.2 142.69"/><polygon class="cls-13" points="124.2 141.56 124.5 141.73 133.76 136.38 133.47 136.21 124.2 141.56"/><polygon class="cls-12" points="124.5 146.23 133.76 140.88 133.76 139.75 124.5 145.09 124.5 146.23"/><polygon class="cls-6" points="124.2 146.06 124.5 146.23 124.5 145.09 124.2 144.93 124.2 146.06"/><polygon class="cls-13" points="124.2 144.93 124.5 145.09 133.76 139.75 133.47 139.58 124.2 144.93"/><polygon class="cls-12" points="132.62 135.61 132.62 142.78 133.76 142.12 133.76 134.95 133.19 133.97 132.62 135.61"/><polygon class="cls-13" points="132.32 135.44 132.62 135.61 133.19 133.97 132.9 133.8 132.32 135.44"/><polygon class="cls-6" points="132.32 142.61 132.62 142.78 132.62 135.61 132.32 135.44 132.32 142.61"/><polygon class="cls-12" points="130.66 136.74 130.66 143.91 131.81 143.25 131.81 136.08 131.23 135.09 130.66 136.74"/><polygon class="cls-13" points="130.37 136.57 130.66 136.74 131.23 135.09 130.94 134.93 130.37 136.57"/><polygon class="cls-6" points="130.37 143.74 130.66 143.91 130.66 136.74 130.37 136.57 130.37 143.74"/><polygon class="cls-12" points="128.71 137.87 128.71 145.04 129.85 144.38 129.85 137.21 129.28 136.22 128.71 137.87"/><polygon class="cls-13" points="128.41 137.7 128.71 137.87 129.28 136.22 128.99 136.05 128.41 137.7"/><polygon class="cls-6" points="128.41 144.87 128.71 145.04 128.71 137.87 128.41 137.7 128.41 144.87"/><polygon class="cls-12" points="126.75 139 126.75 146.17 127.9 145.5 127.9 138.34 127.33 137.35 126.75 139"/><polygon class="cls-13" points="126.46 138.83 126.75 139 127.33 137.35 127.03 137.18 126.46 138.83"/><polygon class="cls-6" points="126.46 146 126.75 146.17 126.75 139 126.46 138.83 126.46 146"/><polygon class="cls-12" points="124.8 140.13 124.8 147.29 125.94 146.63 125.94 139.46 125.37 138.48 124.8 140.13"/><polygon class="cls-13" points="124.51 139.96 124.8 140.13 125.37 138.48 125.08 138.31 124.51 139.96"/><polygon class="cls-6" points="124.51 147.13 124.8 147.29 124.8 140.13 124.51 139.96 124.51 147.13"/><polygon class="cls-12" points="116.68 147.35 125.94 142 125.94 140.87 116.68 146.22 116.68 147.35"/><polygon class="cls-6" points="116.39 147.19 116.68 147.35 116.68 146.22 116.39 146.05 116.39 147.19"/><polygon class="cls-13" points="116.39 146.05 116.68 146.22 125.94 140.87 125.65 140.7 116.39 146.05"/><polygon class="cls-12" points="116.68 150.72 125.94 145.37 125.94 144.24 116.68 149.59 116.68 150.72"/><polygon class="cls-6" points="116.39 150.55 116.68 150.72 116.68 149.59 116.39 149.42 116.39 150.55"/><polygon class="cls-13" points="116.39 149.42 116.68 149.59 125.94 144.24 125.65 144.07 116.39 149.42"/><polygon class="cls-12" points="124.8 140.11 124.8 147.27 125.94 146.61 125.94 139.44 125.37 138.46 124.8 140.11"/><polygon class="cls-13" points="124.51 139.94 124.8 140.11 125.37 138.46 125.08 138.29 124.51 139.94"/><polygon class="cls-6" points="124.51 147.1 124.8 147.27 124.8 140.11 124.51 139.94 124.51 147.1"/><polygon class="cls-12" points="122.84 141.23 122.84 148.4 123.99 147.74 123.99 140.57 123.42 139.59 122.84 141.23"/><polygon class="cls-13" points="122.55 141.06 122.84 141.23 123.42 139.59 123.13 139.42 122.55 141.06"/><polygon class="cls-6" points="122.55 148.23 122.84 148.4 122.84 141.23 122.55 141.06 122.55 148.23"/><polygon class="cls-12" points="120.89 142.36 120.89 149.53 122.04 148.87 122.04 141.7 121.46 140.72 120.89 142.36"/><polygon class="cls-13" points="120.6 142.19 120.89 142.36 121.46 140.72 121.17 140.55 120.6 142.19"/><polygon class="cls-6" points="120.6 149.36 120.89 149.53 120.89 142.36 120.6 142.19 120.6 149.36"/><polygon class="cls-12" points="118.94 143.49 118.94 150.66 120.08 150 120.08 142.83 119.51 141.84 118.94 143.49"/><polygon class="cls-13" points="118.64 143.32 118.94 143.49 119.51 141.84 119.22 141.67 118.64 143.32"/><polygon class="cls-6" points="118.64 150.49 118.94 150.66 118.94 143.49 118.64 143.32 118.64 150.49"/><polygon class="cls-12" points="116.98 144.62 116.98 151.79 118.13 151.13 118.13 143.96 117.55 142.97 116.98 144.62"/><polygon class="cls-13" points="116.69 144.45 116.98 144.62 117.55 142.97 117.26 142.8 116.69 144.45"/><polygon class="cls-6" points="116.69 151.62 116.98 151.79 116.98 144.62 116.69 144.45 116.69 151.62"/><polygon class="cls-12" points="108.86 151.9 118.13 146.55 118.13 145.42 108.86 150.77 108.86 151.9"/><polygon class="cls-6" points="108.57 151.73 108.86 151.9 108.86 150.77 108.57 150.6 108.57 151.73"/><polygon class="cls-13" points="108.57 150.6 108.86 150.77 118.13 145.42 117.83 145.25 108.57 150.6"/><polygon class="cls-12" points="108.86 155.27 118.13 149.92 118.13 148.79 108.86 154.14 108.86 155.27"/><polygon class="cls-6" points="108.57 155.1 108.86 155.27 108.86 154.14 108.57 153.97 108.57 155.1"/><polygon class="cls-13" points="108.57 153.97 108.86 154.14 118.13 148.79 117.83 148.62 108.57 153.97"/><polygon class="cls-12" points="116.98 144.65 116.98 151.82 118.13 151.16 118.13 143.99 117.55 143.01 116.98 144.65"/><polygon class="cls-13" points="116.69 144.49 116.98 144.65 117.55 143.01 117.26 142.84 116.69 144.49"/><polygon class="cls-6" points="116.69 151.65 116.98 151.82 116.98 144.65 116.69 144.49 116.69 151.65"/><polygon class="cls-12" points="115.03 145.78 115.03 152.95 116.17 152.29 116.17 145.12 115.6 144.13 115.03 145.78"/><polygon class="cls-13" points="114.73 145.61 115.03 145.78 115.6 144.13 115.31 143.97 114.73 145.61"/><polygon class="cls-6" points="114.73 152.78 115.03 152.95 115.03 145.78 114.73 145.61 114.73 152.78"/><polygon class="cls-12" points="113.07 146.91 113.07 154.08 114.22 153.42 114.22 146.25 113.64 145.26 113.07 146.91"/><polygon class="cls-13" points="112.78 146.74 113.07 146.91 113.64 145.26 113.35 145.09 112.78 146.74"/><polygon class="cls-6" points="112.78 153.91 113.07 154.08 113.07 146.91 112.78 146.74 112.78 153.91"/><polygon class="cls-12" points="111.12 148.04 111.12 155.21 112.27 154.54 112.27 147.38 111.69 146.39 111.12 148.04"/><polygon class="cls-13" points="110.83 147.87 111.12 148.04 111.69 146.39 111.4 146.22 110.83 147.87"/><polygon class="cls-6" points="110.83 155.04 111.12 155.21 111.12 148.04 110.83 147.87 110.83 155.04"/><polygon class="cls-12" points="109.16 149.17 109.16 156.34 110.31 155.67 110.31 148.5 109.74 147.52 109.16 149.17"/><polygon class="cls-13" points="108.87 149 109.16 149.17 109.74 147.52 109.44 147.35 108.87 149"/><polygon class="cls-6" points="108.87 156.17 109.16 156.34 109.16 149.17 108.87 149 108.87 156.17"/><polygon class="cls-12" points="104.95 154.13 114.22 148.78 114.22 147.65 104.95 153 104.95 154.13"/><polygon class="cls-6" points="104.66 153.96 104.95 154.13 104.95 153 104.66 152.83 104.66 153.96"/><polygon class="cls-13" points="104.66 152.83 104.95 153 114.22 147.65 113.93 147.48 104.66 152.83"/><polygon class="cls-12" points="104.95 157.5 114.22 152.15 114.22 151.01 104.95 156.36 104.95 157.5"/><polygon class="cls-6" points="104.66 157.33 104.95 157.5 104.95 156.36 104.66 156.2 104.66 157.33"/><polygon class="cls-13" points="104.66 156.2 104.95 156.36 114.22 151.01 113.93 150.85 104.66 156.2"/><polygon class="cls-12" points="113.07 146.88 113.07 154.05 114.22 153.39 114.22 146.22 113.64 145.24 113.07 146.88"/><polygon class="cls-13" points="112.78 146.71 113.07 146.88 113.64 145.24 113.35 145.07 112.78 146.71"/><polygon class="cls-6" points="112.78 153.88 113.07 154.05 113.07 146.88 112.78 146.71 112.78 153.88"/><polygon class="cls-12" points="111.12 148.01 111.12 155.18 112.27 154.52 112.27 147.35 111.69 146.36 111.12 148.01"/><polygon class="cls-13" points="110.83 147.84 111.12 148.01 111.69 146.36 111.4 146.19 110.83 147.84"/><polygon class="cls-6" points="110.83 155.01 111.12 155.18 111.12 148.01 110.83 147.84 110.83 155.01"/><polygon class="cls-12" points="109.16 149.14 109.16 156.31 110.31 155.65 110.31 148.48 109.74 147.49 109.16 149.14"/><polygon class="cls-13" points="108.87 148.97 109.16 149.14 109.74 147.49 109.44 147.32 108.87 148.97"/><polygon class="cls-6" points="108.87 156.14 109.16 156.31 109.16 149.14 108.87 148.97 108.87 156.14"/><polygon class="cls-12" points="107.21 150.27 107.21 157.44 108.36 156.77 108.36 149.61 107.78 148.62 107.21 150.27"/><polygon class="cls-13" points="106.92 150.1 107.21 150.27 107.78 148.62 107.49 148.45 106.92 150.1"/><polygon class="cls-6" points="106.92 157.27 107.21 157.44 107.21 150.27 106.92 150.1 106.92 157.27"/><polygon class="cls-12" points="105.25 151.4 105.25 158.56 106.4 157.9 106.4 150.73 105.83 149.75 105.25 151.4"/><polygon class="cls-13" points="104.96 151.23 105.25 151.4 105.83 149.75 105.53 149.58 104.96 151.23"/><polygon class="cls-6" points="104.96 158.4 105.25 158.56 105.25 151.4 104.96 151.23 104.96 158.4"/><polygon class="cls-12" points="97.14 158.62 106.4 153.27 106.4 152.14 97.14 157.49 97.14 158.62"/><polygon class="cls-6" points="96.84 158.45 97.14 158.62 97.14 157.49 96.84 157.32 96.84 158.45"/><polygon class="cls-13" points="96.84 157.32 97.14 157.49 106.4 152.14 106.11 151.97 96.84 157.32"/><polygon class="cls-12" points="97.14 161.99 106.4 156.64 106.4 155.51 97.14 160.86 97.14 161.99"/><polygon class="cls-6" points="96.84 161.82 97.14 161.99 97.14 160.86 96.84 160.69 96.84 161.82"/><polygon class="cls-13" points="96.84 160.69 97.14 160.86 106.4 155.51 106.11 155.34 96.84 160.69"/><polygon class="cls-12" points="105.25 151.38 105.25 158.54 106.4 157.88 106.4 150.71 105.83 149.73 105.25 151.38"/><polygon class="cls-13" points="104.96 151.21 105.25 151.38 105.83 149.73 105.53 149.56 104.96 151.21"/><polygon class="cls-6" points="104.96 158.38 105.25 158.54 105.25 151.38 104.96 151.21 104.96 158.38"/><polygon class="cls-12" points="103.3 152.5 103.3 159.67 104.45 159.01 104.45 151.84 103.87 150.86 103.3 152.5"/><polygon class="cls-13" points="103.01 152.34 103.3 152.5 103.87 150.86 103.58 150.69 103.01 152.34"/><polygon class="cls-6" points="103.01 159.5 103.3 159.67 103.3 152.5 103.01 152.34 103.01 159.5"/><polygon class="cls-12" points="101.34 153.63 101.34 160.8 102.49 160.14 102.49 152.97 101.92 151.98 101.34 153.63"/><polygon class="cls-13" points="101.05 153.46 101.34 153.63 101.92 151.98 101.63 151.81 101.05 153.46"/><polygon class="cls-6" points="101.05 160.63 101.34 160.8 101.34 153.63 101.05 153.46 101.05 160.63"/><polygon class="cls-12" points="99.39 154.76 99.39 161.93 100.54 161.27 100.54 154.1 99.96 153.11 99.39 154.76"/><polygon class="cls-13" points="99.1 154.59 99.39 154.76 99.96 153.11 99.67 152.94 99.1 154.59"/><polygon class="cls-6" points="99.1 161.76 99.39 161.93 99.39 154.76 99.1 154.59 99.1 161.76"/><polygon class="cls-12" points="97.44 155.89 97.44 163.06 98.58 162.4 98.58 155.23 98.01 154.24 97.44 155.89"/><polygon class="cls-13" points="97.14 155.72 97.44 155.89 98.01 154.24 97.72 154.07 97.14 155.72"/><polygon class="cls-6" points="97.14 162.89 97.44 163.06 97.44 155.89 97.14 155.72 97.14 162.89"/><polygon class="cls-12" points="89.32 163.17 98.58 157.82 98.58 156.69 89.32 162.04 89.32 163.17"/><polygon class="cls-6" points="89.03 163 89.32 163.17 89.32 162.04 89.03 161.87 89.03 163"/><polygon class="cls-13" points="89.03 161.87 89.32 162.04 98.58 156.69 98.29 156.52 89.03 161.87"/><polygon class="cls-12" points="89.32 166.54 98.58 161.19 98.58 160.06 89.32 165.41 89.32 166.54"/><polygon class="cls-6" points="89.03 166.37 89.32 166.54 89.32 165.41 89.03 165.24 89.03 166.37"/><polygon class="cls-13" points="89.03 165.24 89.32 165.41 98.58 160.06 98.29 159.89 89.03 165.24"/><polygon class="cls-12" points="97.44 155.92 97.44 163.09 98.58 162.43 98.58 155.26 98.01 154.28 97.44 155.92"/><polygon class="cls-13" points="97.14 155.75 97.44 155.92 98.01 154.28 97.72 154.11 97.14 155.75"/><polygon class="cls-6" points="97.14 162.92 97.44 163.09 97.44 155.92 97.14 155.75 97.14 162.92"/><polygon class="cls-12" points="95.48 157.05 95.48 164.22 96.63 163.56 96.63 156.39 96.06 155.4 95.48 157.05"/><polygon class="cls-13" points="95.19 156.88 95.48 157.05 96.06 155.4 95.76 155.24 95.19 156.88"/><polygon class="cls-6" points="95.19 164.05 95.48 164.22 95.48 157.05 95.19 156.88 95.19 164.05"/><polygon class="cls-12" points="93.53 158.18 93.53 165.35 94.67 164.69 94.67 157.52 94.1 156.53 93.53 158.18"/><polygon class="cls-13" points="93.23 158.01 93.53 158.18 94.1 156.53 93.81 156.36 93.23 158.01"/><polygon class="cls-6" points="93.23 165.18 93.53 165.35 93.53 158.18 93.23 158.01 93.23 165.18"/><polygon class="cls-12" points="91.57 159.31 91.57 166.48 92.72 165.81 92.72 158.65 92.15 157.66 91.57 159.31"/><polygon class="cls-13" points="91.28 159.14 91.57 159.31 92.15 157.66 91.85 157.49 91.28 159.14"/><polygon class="cls-6" points="91.28 166.31 91.57 166.48 91.57 159.31 91.28 159.14 91.28 166.31"/><polygon class="cls-12" points="89.62 160.44 89.62 167.61 90.77 166.94 90.77 159.77 90.19 158.79 89.62 160.44"/><polygon class="cls-13" points="89.33 160.27 89.62 160.44 90.19 158.79 89.9 158.62 89.33 160.27"/><polygon class="cls-6" points="89.33 167.44 89.62 167.61 89.62 160.44 89.33 160.27 89.33 167.44"/><polygon class="cls-1" points="41.21 109.02 25.56 118.17 21.44 131.35 21.44 148.09 41.21 159.5 60.98 170.91 60.98 154.17 56.86 136.24 41.21 109.02"/><polygon class="cls-4" points="60.98 154.17 60.98 170.91 118.34 137.8 118.34 121.05 60.98 154.17"/><polygon class="cls-14" points="39.6 105.38 22.42 115.43 18.04 129.43 19.77 131.04 24.02 117.46 39.6 108.35 55.18 135.45 59.41 153.88 61.38 155.14 56.78 135.27 39.6 105.38"/><polygon class="cls-2" points="98.44 72.2 39.6 105.38 56.78 135.27 61.38 155.14 120.22 121.96 115.63 102.09 98.44 72.2"/><polygon class="cls-15" points="24.02 117.46 19.77 131.04 21.44 131.35 25.56 118.17 40.3 109.56 39.6 108.35 24.02 117.46"/><polygon class="cls-14" points="58.97 151.95 58.97 169.76 60.98 170.91 60.98 154.88 58.97 151.95"/><polygon class="cls-14" points="21.44 131.35 21.44 148.07 23.45 149.23 23.45 124.71 21.44 131.35"/><polygon class="cls-15" points="55.18 135.45 39.6 108.35 39.08 108.65 54.51 135.65 58.97 153.88 58.97 155.59 60.98 156.79 60.98 154.88 59.41 153.88 55.18 135.45"/><polygon class="cls-16" points="22.42 115.43 98.44 72.2 39.6 105.38 22.42 115.43"/><polygon class="cls-17" points="39.71 105.6 56.78 135.27 115.63 102.09 98.44 72.2 39.71 105.6"/><polygon class="cls-18" points="60.98 168.73 60.98 170.91 118.34 137.8 118.34 135.27 60.98 168.73"/><polygon class="cls-18" points="116.93 138.61 118.34 137.8 118.34 123.02 116.93 123.82 116.93 138.61"/><polygon class="cls-18" points="60.98 170.19 62.39 169.37 62.39 154.59 60.98 155.39 60.98 170.19"/><polygon class="cls-19" points="60.98 154.88 60.98 156.79 118.34 124.77 118.34 123.02 61.38 155.14 60.98 154.88"/><polygon class="cls-14" points="21.44 148.09 60.98 170.91 60.98 168.73 21.44 145.98 21.44 148.09"/><polygon class="cls-20" points="48.27 142.25 52.35 144.6 53.11 144.16 49.04 141.81 48.27 142.25"/><polygon class="cls-20" points="48.27 142.25 52.35 144.6 53.11 144.16 49.04 141.81 48.27 142.25"/><polygon class="cls-18" points="48.27 135.35 48.27 142.25 49.04 141.81 49.04 134.91 48.27 135.35"/><polygon class="cls-18" points="48.27 135.35 48.27 142.25 49.04 141.81 49.04 134.91 48.27 135.35"/><path class="cls-14" d="M47.58,142.65l5.47,3.15v-8.51l-5.47-3.16Zm.7-7.31,4.07,2.35v6.91l-4.07-2.35Z"/><path class="cls-14" d="M47.58,142.65l5.47,3.15v-8.51l-5.47-3.16Zm.7-7.31,4.07,2.35v6.91l-4.07-2.35Z"/><polygon class="cls-21" points="49.04 141.81 52.35 143.72 52.35 137.69 49.04 135.78 49.04 141.81"/><polygon class="cls-20" points="26.14 129.79 30.21 132.14 30.98 131.7 26.9 129.35 26.14 129.79"/><polygon class="cls-20" points="26.14 129.79 30.21 132.14 30.98 131.7 26.9 129.35 26.14 129.79"/><polygon class="cls-18" points="26.14 122.9 26.14 129.79 26.9 129.35 26.9 122.46 26.14 122.9"/><polygon class="cls-18" points="26.14 122.9 26.14 129.79 26.9 129.35 26.9 122.46 26.14 122.9"/><path class="cls-14" d="M25.44,130.19l5.47,3.16v-8.52l-5.47-3.15Zm.7-7.31,4.07,2.36v6.9l-4.07-2.35Z"/><path class="cls-14" d="M25.44,130.19l5.47,3.16v-8.52l-5.47-3.15Zm.7-7.31,4.07,2.36v6.9l-4.07-2.35Z"/><polygon class="cls-21" points="26.9 129.35 30.21 131.26 30.21 125.24 26.9 123.32 26.9 129.35"/><polygon class="cls-22" points="28.94 152.57 48.22 163.7 48.22 150.91 28.94 139.78 28.94 152.57"/><polygon class="cls-23" points="28.94 140.94 48.22 152.07 48.22 150.9 28.94 139.76 28.94 140.94"/><polygon class="cls-23" points="38.48 158.07 38.68 158.19 38.68 145.38 38.48 145.26 38.48 158.07"/><polygon class="cls-18" points="47.82 151.11 47.82 163.89 48.22 163.66 48.22 150.88 47.82 151.11"/><polygon class="cls-18" points="47.82 151.11 47.82 163.89 48.22 163.66 48.22 150.88 47.82 151.11"/><polygon class="cls-14" points="47.03 163.44 47.81 163.89 47.81 151.11 47.03 150.65 47.03 163.44"/><polygon class="cls-14" points="47.03 163.44 47.81 163.89 47.81 151.11 47.03 150.65 47.03 163.44"/><polygon class="cls-18" points="28.54 140.02 28.54 152.8 28.94 152.57 28.94 139.78 28.54 140.02"/><polygon class="cls-18" points="28.54 140.02 28.54 152.8 28.94 152.57 28.94 139.78 28.54 140.02"/><polygon class="cls-14" points="27.75 152.35 28.54 152.8 28.54 140.02 27.75 139.56 27.75 152.35"/><polygon class="cls-14" points="27.75 152.35 28.54 152.8 28.54 140.02 27.75 139.56 27.75 152.35"/><polygon class="cls-14" points="25.98 138.6 50.57 152.8 50.57 150.94 25.98 136.75 25.98 138.6"/><polygon class="cls-14" points="25.98 138.6 50.57 152.8 50.57 150.94 25.98 136.75 25.98 138.6"/><polygon class="cls-20" points="25.98 136.75 50.57 150.94 51.38 150.48 26.78 136.28 25.98 136.75"/><polygon class="cls-20" points="25.98 136.75 50.57 150.94 51.38 150.48 26.78 136.28 25.98 136.75"/><polygon class="cls-18" points="50.57 150.95 50.57 152.8 51.38 152.34 51.38 150.48 50.57 150.95"/><polygon class="cls-18" points="50.57 150.95 50.57 152.8 51.38 152.34 51.38 150.48 50.57 150.95"/><g class="cls-24"><path class="cls-25" d="M39.75,138.22l6,3.45V131.59l-6-3.46Zm.78-8.74L45,132v8.3l-4.42-2.55Z"/><path class="cls-25" d="M33.24,134.46l6,3.45V127.82l-6-3.45Zm.77-8.74,4.43,2.55v8.3L34,134Z"/><path class="cls-25" d="M39.75,127.49l6,3.45v-4.76l-6-10.45Zm.78-9.13L45,126.1v3.49L40.53,127Z"/><polygon class="cls-25" points="42.35 128.54 43.13 128.99 43.13 121.82 42.35 121.37 42.35 128.54"/><polygon class="cls-25" points="39.81 137.57 40.46 138.43 45.66 132.24 45.02 131.38 39.81 137.57"/><polygon class="cls-25" points="39.81 128.86 45.02 141.06 45.66 140.94 40.46 128.75 39.81 128.86"/><path class="cls-25" d="M33.24,123.73l6,3.45V115.42l-6,3.55Zm.77-3.94,4.43-2.63v8.67L34,123.28Z"/><polygon class="cls-25" points="35.84 124.78 36.61 125.23 36.61 118.06 35.84 117.61 35.84 124.78"/><polygon class="cls-25" points="33.3 125.1 38.5 137.3 39.15 137.19 33.95 124.99 33.3 125.1"/><polygon class="cls-25" points="33.3 133.81 33.95 134.67 39.15 128.48 38.5 127.61 33.3 133.81"/></g><path class="cls-14" d="M39.15,137.88l6,3.45V131.24l-6-3.45Zm.78-8.74,4.42,2.55V140l-4.42-2.56Z"/><path class="cls-14" d="M32.63,134.12l6,3.45V127.48l-6-3.45Zm.78-8.74,4.43,2.55v8.3l-4.43-2.56Z"/><path class="cls-14" d="M39.15,127.15l6,3.45v-4.76l-6-10.46Zm.78-9.13,4.42,7.74v3.49l-4.42-2.55Z"/><polygon class="cls-14" points="41.75 128.2 42.53 128.65 42.53 121.48 41.75 121.03 41.75 128.2"/><polygon class="cls-14" points="39.21 137.22 39.86 138.09 45.06 131.9 44.41 131.03 39.21 137.22"/><polygon class="cls-14" points="39.21 128.52 44.41 140.72 45.06 140.6 39.86 128.41 39.21 128.52"/><path class="cls-14" d="M32.63,123.38l6,3.46V115.07l-6,3.56Zm.78-3.94,4.43-2.63v8.68l-4.43-2.55Z"/><polygon class="cls-14" points="35.24 124.44 36.01 124.89 36.01 117.72 35.24 117.27 35.24 124.44"/><polygon class="cls-14" points="32.7 124.76 37.9 136.96 38.55 136.84 33.35 124.65 32.7 124.76"/><polygon class="cls-14" points="32.7 133.46 33.35 134.33 38.55 128.14 37.9 127.27 32.7 133.46"/><path class="cls-10" d="M120.21,135.23a13.91,13.91,0,0,0-.27-2.61,8.13,8.13,0,0,0-1.78,1c-.55.49-6.2,3.57-7.94,4.58s-1.51,1.41-1.51,1.41-.12,4.31,0,4.74,4.49-2.59,5-2.86,4.57-2.69,5.54-3.2,1-1.17,1-1.17A13.37,13.37,0,0,1,120.21,135.23Z"/><path class="cls-10" d="M120.21,135.23a13.91,13.91,0,0,0-.27-2.61,8.13,8.13,0,0,0-1.78,1c-.55.49-6.2,3.57-7.94,4.58s-1.51,1.41-1.51,1.41-.12,4.31,0,4.74,4.49-2.59,5-2.86,4.57-2.69,5.54-3.2,1-1.17,1-1.17A13.37,13.37,0,0,1,120.21,135.23Z"/><path class="cls-8" d="M108.78,140c0-.8-.12-.76-.12-.76a11,11,0,0,0-1.06-.58,15.56,15.56,0,0,0,0,2.27c0,.21,0,2.09,0,2.53s.13.54.13.54a1.84,1.84,0,0,1,.43.23,2.2,2.2,0,0,0,.62.21,5.13,5.13,0,0,0,0-.81C108.74,143.34,108.78,140.78,108.78,140Z"/><path class="cls-8" d="M108.78,140c0-.8-.12-.76-.12-.76a11,11,0,0,0-1.06-.58,15.56,15.56,0,0,0,0,2.27c0,.21,0,2.09,0,2.53s.13.54.13.54a1.84,1.84,0,0,1,.43.23,2.2,2.2,0,0,0,.62.21,5.13,5.13,0,0,0,0-.81C108.74,143.34,108.78,140.78,108.78,140Z"/><path class="cls-9" d="M119.9,132.62s-.74-.63-1-.62-4.49,2.59-5,2.86l-5.54,3.2c-1,.55-.89.66-.89.66s.36.1.44.24.89.2.89.2,1.28-.69,1.79-1,6.19-3.57,7.93-4.58S119.9,132.62,119.9,132.62Z"/><path class="cls-9" d="M119.9,132.62s-.74-.63-1-.62-4.49,2.59-5,2.86l-5.54,3.2c-1,.55-.89.66-.89.66s.36.1.44.24a3.55,3.55,0,0,0,.76.46l1.92-1.29c.5-.33,6.19-3.57,7.93-4.58S119.9,132.62,119.9,132.62Z"/><path class="cls-10" d="M108.64,141.88a14,14,0,0,0-.27-2.62,8.59,8.59,0,0,0-1.78,1c-.54.5-6.19,3.58-7.94,4.59s-1.51,1.41-1.51,1.41-.11,4.31,0,4.74,4.49-2.6,5-2.86,4.57-2.69,5.54-3.2,1-1.17,1-1.17A14.4,14.4,0,0,1,108.64,141.88Z"/><path class="cls-10" d="M108.64,141.88a14,14,0,0,0-.27-2.62,8.59,8.59,0,0,0-1.78,1c-.54.5-6.19,3.58-7.94,4.59s-1.51,1.41-1.51,1.41-.11,4.31,0,4.74,4.49-2.6,5-2.86,4.57-2.69,5.54-3.2,1-1.17,1-1.17A14.4,14.4,0,0,1,108.64,141.88Z"/><path class="cls-8" d="M97.21,146.63c0-.8-.12-.76-.12-.76s-1-.57-1-.58a14.25,14.25,0,0,0,0,2.27c0,.21,0,2.09,0,2.53s.13.53.13.53a2.44,2.44,0,0,1,.42.23,2,2,0,0,0,.62.22,5.27,5.27,0,0,0,0-.82C97.17,150,97.21,147.42,97.21,146.63Z"/><path class="cls-8" d="M97.21,146.63c0-.8-.12-.76-.12-.76s-1-.57-1-.58a14.25,14.25,0,0,0,0,2.27c0,.21,0,2.09,0,2.53s.13.53.13.53a2.44,2.44,0,0,1,.42.23,2,2,0,0,0,.62.22,5.27,5.27,0,0,0,0-.82C97.17,150,97.21,147.42,97.21,146.63Z"/><path class="cls-9" d="M108.34,139.26s-.74-.62-1-.62-4.49,2.6-5,2.87l-5.53,3.19c-1,.56-.89.67-.89.67s.36.1.44.24.89.2.89.2,1.28-.69,1.78-1,6.2-3.58,7.94-4.58S108.34,139.26,108.34,139.26Z"/><path class="cls-9" d="M108.34,139.26s-.74-.62-1-.62-4.49,2.6-5,2.87l-5.53,3.19c-1,.56-.89.67-.89.67s.36.1.44.24a3.59,3.59,0,0,0,.75.45l1.92-1.28c.5-.34,6.2-3.58,7.94-4.58S108.34,139.26,108.34,139.26Z"/><path class="cls-10" d="M97.08,148.69a14,14,0,0,0-.27-2.62,8.59,8.59,0,0,0-1.78,1c-.55.49-6.2,3.58-7.94,4.58s-1.51,1.41-1.51,1.41-.12,4.32,0,4.74,4.49-2.59,5-2.86,4.56-2.68,5.53-3.2,1-1.17,1-1.17A13.21,13.21,0,0,1,97.08,148.69Z"/><path class="cls-10" d="M97.08,148.69a14,14,0,0,0-.27-2.62,8.59,8.59,0,0,0-1.78,1c-.55.49-6.2,3.58-7.94,4.58s-1.51,1.41-1.51,1.41-.12,4.32,0,4.74,4.49-2.59,5-2.86,4.56-2.68,5.53-3.2,1-1.17,1-1.17A13.21,13.21,0,0,1,97.08,148.69Z"/><path class="cls-8" d="M85.65,153.43c0-.8-.12-.75-.12-.75a9.19,9.19,0,0,0-1.06-.58,15.42,15.42,0,0,0,0,2.26c0,.21,0,2.1,0,2.53s.13.54.13.54a2.38,2.38,0,0,1,.43.23,2.32,2.32,0,0,0,.62.22,5.27,5.27,0,0,0,0-.82C85.61,156.79,85.65,154.23,85.65,153.43Z"/><path class="cls-8" d="M85.65,153.43c0-.8-.12-.75-.12-.75a9.19,9.19,0,0,0-1.06-.58,15.42,15.42,0,0,0,0,2.26c0,.21,0,2.1,0,2.53s.13.54.13.54a2.38,2.38,0,0,1,.43.23,2.32,2.32,0,0,0,.62.22,5.27,5.27,0,0,0,0-.82C85.61,156.79,85.65,154.23,85.65,153.43Z"/><path class="cls-9" d="M96.78,146.07s-.75-.62-1-.62-4.5,2.59-5,2.86-4.56,2.65-5.54,3.2-.89.66-.89.66.36.11.44.24.89.2.89.2,1.28-.69,1.79-1S93.73,148,95.47,147,96.78,146.07,96.78,146.07Z"/><path class="cls-9" d="M96.78,146.07s-.75-.62-1-.62-4.5,2.59-5,2.86-4.56,2.65-5.54,3.2-.89.66-.89.66.36.11.44.24a3.55,3.55,0,0,0,.76.46s1.41-1,1.92-1.28S93.73,148,95.47,147,96.78,146.07,96.78,146.07Z"/><path class="cls-10" d="M85.51,155.46a14,14,0,0,0-.27-2.62,8.59,8.59,0,0,0-1.78,1c-.54.49-6.19,3.58-7.94,4.58S74,159.86,74,159.86s-.11,4.32,0,4.74,4.5-2.59,5-2.86,4.57-2.68,5.54-3.2,1-1.17,1-1.17A14.23,14.23,0,0,1,85.51,155.46Z"/><path class="cls-10" d="M85.51,155.46a14,14,0,0,0-.27-2.62,8.59,8.59,0,0,0-1.78,1c-.54.49-6.19,3.58-7.94,4.58S74,159.86,74,159.86s-.11,4.32,0,4.74,4.5-2.59,5-2.86,4.57-2.68,5.54-3.2,1-1.17,1-1.17A14.23,14.23,0,0,1,85.51,155.46Z"/><path class="cls-8" d="M74.08,160.2c0-.8-.12-.75-.12-.75a9,9,0,0,0-1-.58,15.42,15.42,0,0,0,0,2.26c0,.21,0,2.1,0,2.53s.13.54.13.54a2.38,2.38,0,0,1,.43.23,2.06,2.06,0,0,0,.61.21,5.13,5.13,0,0,0,0-.81C74,163.56,74.08,161,74.08,160.2Z"/><path class="cls-8" d="M74.08,160.2c0-.8-.12-.75-.12-.75a9,9,0,0,0-1-.58,15.42,15.42,0,0,0,0,2.26c0,.21,0,2.1,0,2.53s.13.54.13.54a2.38,2.38,0,0,1,.43.23,2.06,2.06,0,0,0,.61.21,5.13,5.13,0,0,0,0-.81C74,163.56,74.08,161,74.08,160.2Z"/><path class="cls-9" d="M85.21,152.84s-.74-.62-1-.62-4.49,2.59-5,2.86-4.55,2.65-5.53,3.2-.89.66-.89.66.36.11.44.24.89.2.89.2,1.28-.69,1.78-1,6.2-3.58,7.94-4.59S85.21,152.84,85.21,152.84Z"/><path class="cls-9" d="M85.21,152.84s-.74-.62-1-.62-4.49,2.59-5,2.86-4.55,2.65-5.53,3.2-.89.66-.89.66.36.11.44.24a3.3,3.3,0,0,0,.75.46L76,158.36c.5-.34,6.2-3.58,7.94-4.59S85.21,152.84,85.21,152.84Z"/><path class="cls-10" d="M74.09,162.1a14,14,0,0,0-.27-2.62,8.59,8.59,0,0,0-1.78,1c-.54.49-6.2,3.58-7.94,4.58s-1.51,1.41-1.51,1.41-.12,4.32,0,4.75,4.49-2.6,5-2.87,4.57-2.68,5.53-3.2,1-1.17,1-1.17A13.21,13.21,0,0,1,74.09,162.1Z"/><path class="cls-10" d="M74.09,162.1a14,14,0,0,0-.27-2.62,8.59,8.59,0,0,0-1.78,1c-.54.49-6.2,3.58-7.94,4.58s-1.51,1.41-1.51,1.41-.12,4.32,0,4.75,4.49-2.6,5-2.87,4.57-2.68,5.53-3.2,1-1.17,1-1.17A13.21,13.21,0,0,1,74.09,162.1Z"/><path class="cls-8" d="M62.66,166.84c0-.79-.12-.75-.12-.75a9.19,9.19,0,0,0-1.06-.58,15.42,15.42,0,0,0,0,2.26c0,.22,0,2.1,0,2.53s.13.54.13.54a2.38,2.38,0,0,1,.43.23,2.32,2.32,0,0,0,.62.22,5.27,5.27,0,0,0,0-.82C62.62,170.2,62.66,167.64,62.66,166.84Z"/><path class="cls-8" d="M62.66,166.84c0-.79-.12-.75-.12-.75a9.19,9.19,0,0,0-1.06-.58,15.42,15.42,0,0,0,0,2.26c0,.22,0,2.1,0,2.53s.13.54.13.54a2.38,2.38,0,0,1,.43.23,2.32,2.32,0,0,0,.62.22,5.27,5.27,0,0,0,0-.82C62.62,170.2,62.66,167.64,62.66,166.84Z"/><path class="cls-9" d="M73.79,159.48s-.75-.62-1-.62-4.49,2.6-5,2.86-4.56,2.65-5.54,3.2-.88.66-.88.66a1.14,1.14,0,0,1,.44.24c.08.14.89.21.89.21s1.28-.7,1.78-1,6.19-3.58,7.94-4.59S73.79,159.48,73.79,159.48Z"/><path class="cls-9" d="M73.79,159.48s-.75-.62-1-.62-4.49,2.6-5,2.86-4.56,2.65-5.54,3.2-.88.66-.88.66a1.14,1.14,0,0,1,.44.24,3.3,3.3,0,0,0,.75.46L64.55,165c.5-.34,6.19-3.58,7.94-4.59S73.79,159.48,73.79,159.48Z"/><path class="cls-26" d="M15.26,132.74a.35.35,0,0,0-.42.31v2.34h.81v-2.25A.39.39,0,0,0,15.26,132.74Z"/><path class="cls-27" d="M15.26,134.58V153.2a11,11,0,0,0,3.78-.66c3.05-1.18,3-3.1,3-3.1a22.74,22.74,0,0,0-1.17-8C18.82,135.56,15.26,134.58,15.26,134.58Z"/><path class="cls-27" d="M9.64,141.43a23,23,0,0,0-1.17,8s0,1.92,3,3.1a11,11,0,0,0,3.78.66V134.58S11.71,135.56,9.64,141.43Z"/><path class="cls-28" d="M19.32,138.2a42.34,42.34,0,0,1-.94,6.75,12.24,12.24,0,0,1-3.14,6.36v1.89a11,11,0,0,0,3.78-.66c3.06-1.18,3-3.1,3-3.1a23,23,0,0,0-1.17-8A15.47,15.47,0,0,0,19.32,138.2Z"/><path class="cls-28" d="M12.57,152.88a11.58,11.58,0,0,0,2.67.32v-1.89a6.13,6.13,0,0,1-1.87,1.27C13.1,152.69,12.84,152.79,12.57,152.88Z"/><path class="cls-29" d="M13.79,136.06l-.7.53A14.52,14.52,0,0,0,9.7,143c-1.17,4.31,1.53,3.92,1.53,3.92a1.58,1.58,0,0,0,1.43-1.7c0-1.62-.2-5.58,1.13-7.57S13.79,136.06,13.79,136.06Z"/><polygon class="cls-6" points="0.57 145.09 9.84 150.44 9.84 149.31 0.57 143.96 0.57 145.09"/><polygon class="cls-12" points="9.84 150.44 10.13 150.27 10.13 149.14 9.84 149.31 9.84 150.44"/><polygon class="cls-13" points="0.57 143.96 9.84 149.31 10.13 149.14 0.87 143.79 0.57 143.96"/><polygon class="cls-6" points="0.57 148.45 9.84 153.8 9.84 152.67 0.57 147.32 0.57 148.45"/><polygon class="cls-12" points="9.84 153.8 10.13 153.63 10.13 152.5 9.84 152.67 9.84 153.8"/><polygon class="cls-13" points="0.57 147.32 9.84 152.67 10.13 152.5 0.87 147.15 0.57 147.32"/><polygon class="cls-6" points="0.57 142.53 0.57 149.69 1.72 150.36 1.72 143.19 1.15 141.54 0.57 142.53"/><polygon class="cls-13" points="1.15 141.54 1.72 143.19 2.01 143.02 1.44 141.37 1.15 141.54"/><polygon class="cls-12" points="1.72 150.36 2.01 150.19 2.01 143.02 1.72 143.19 1.72 150.36"/><polygon class="cls-6" points="2.53 143.65 2.53 150.82 3.68 151.48 3.68 144.32 3.1 142.67 2.53 143.65"/><polygon class="cls-13" points="3.1 142.67 3.68 144.32 3.97 144.15 3.39 142.5 3.1 142.67"/><polygon class="cls-12" points="3.68 151.48 3.97 151.32 3.97 144.15 3.68 144.32 3.68 151.48"/><polygon class="cls-6" points="4.48 144.78 4.48 151.95 5.63 152.61 5.63 145.44 5.06 143.8 4.48 144.78"/><polygon class="cls-13" points="5.06 143.8 5.63 145.44 5.92 145.28 5.35 143.63 5.06 143.8"/><polygon class="cls-12" points="5.63 152.61 5.92 152.44 5.92 145.28 5.63 145.44 5.63 152.61"/><polygon class="cls-6" points="6.44 145.91 6.44 153.08 7.58 153.74 7.58 146.57 7.01 144.93 6.44 145.91"/><polygon class="cls-13" points="7.01 144.93 7.58 146.57 7.88 146.4 7.3 144.76 7.01 144.93"/><polygon class="cls-12" points="7.58 153.74 7.88 153.57 7.88 146.4 7.58 146.57 7.58 153.74"/><polygon class="cls-6" points="8.39 147.04 8.39 154.21 9.54 154.87 9.54 147.7 8.96 146.05 8.39 147.04"/><polygon class="cls-13" points="8.96 146.05 9.54 147.7 9.83 147.53 9.26 145.89 8.96 146.05"/><polygon class="cls-12" points="9.54 154.87 9.83 154.7 9.83 147.53 9.54 147.7 9.54 154.87"/><polygon class="cls-6" points="8.39 149.58 17.66 154.93 17.66 153.8 8.39 148.45 8.39 149.58"/><polygon class="cls-12" points="17.66 154.93 17.95 154.76 17.95 153.63 17.66 153.8 17.66 154.93"/><polygon class="cls-13" points="8.39 148.45 17.66 153.8 17.95 153.63 8.68 148.28 8.39 148.45"/><polygon class="cls-6" points="8.39 152.94 17.66 158.29 17.66 157.16 8.39 151.81 8.39 152.94"/><polygon class="cls-12" points="17.66 158.29 17.95 158.12 17.95 156.99 17.66 157.16 17.66 158.29"/><polygon class="cls-13" points="8.39 151.81 17.66 157.16 17.95 156.99 8.68 151.64 8.39 151.81"/><polygon class="cls-6" points="8.39 147.02 8.39 154.19 9.54 154.85 9.54 147.68 8.96 146.03 8.39 147.02"/><polygon class="cls-13" points="8.96 146.03 9.54 147.68 9.83 147.51 9.26 145.86 8.96 146.03"/><polygon class="cls-12" points="9.54 154.85 9.83 154.68 9.83 147.51 9.54 147.68 9.54 154.85"/><polygon class="cls-6" points="10.35 148.15 10.35 155.31 11.49 155.98 11.49 148.81 10.92 147.16 10.35 148.15"/><polygon class="cls-13" points="10.92 147.16 11.49 148.81 11.79 148.64 11.21 146.99 10.92 147.16"/><polygon class="cls-12" points="11.49 155.98 11.79 155.81 11.79 148.64 11.49 148.81 11.49 155.98"/><polygon class="cls-6" points="12.3 149.27 12.3 156.44 13.45 157.11 13.45 149.94 12.87 148.29 12.3 149.27"/><polygon class="cls-13" points="12.87 148.29 13.45 149.94 13.74 149.77 13.17 148.12 12.87 148.29"/><polygon class="cls-12" points="13.45 157.11 13.74 156.94 13.74 149.77 13.45 149.94 13.45 157.11"/><polygon class="cls-6" points="14.26 150.4 14.26 157.57 15.4 158.23 15.4 151.06 14.83 149.42 14.26 150.4"/><polygon class="cls-13" points="14.83 149.42 15.4 151.06 15.69 150.9 15.12 149.25 14.83 149.42"/><polygon class="cls-12" points="15.4 158.23 15.69 158.06 15.69 150.9 15.4 151.06 15.4 158.23"/><polygon class="cls-6" points="16.21 151.53 16.21 158.7 17.36 159.36 17.36 152.19 16.78 150.55 16.21 151.53"/><polygon class="cls-13" points="16.78 150.55 17.36 152.19 17.65 152.03 17.07 150.38 16.78 150.55"/><polygon class="cls-12" points="17.36 159.36 17.65 159.19 17.65 152.03 17.36 152.19 17.36 159.36"/><polygon class="cls-6" points="16.21 154.07 25.48 159.42 25.48 158.29 16.21 152.94 16.21 154.07"/><polygon class="cls-12" points="25.48 159.42 25.77 159.25 25.77 158.12 25.48 158.29 25.48 159.42"/><polygon class="cls-13" points="16.21 152.94 25.48 158.29 25.77 158.12 16.5 152.77 16.21 152.94"/><polygon class="cls-6" points="16.21 157.44 25.48 162.78 25.48 161.65 16.21 156.3 16.21 157.44"/><polygon class="cls-12" points="25.48 162.78 25.77 162.62 25.77 161.49 25.48 161.65 25.48 162.78"/><polygon class="cls-13" points="16.21 156.3 25.48 161.65 25.77 161.49 16.5 156.14 16.21 156.3"/><polygon class="cls-6" points="16.21 151.51 16.21 158.68 17.36 159.34 17.36 152.17 16.78 150.52 16.21 151.51"/><polygon class="cls-13" points="16.78 150.52 17.36 152.17 17.65 152 17.07 150.36 16.78 150.52"/><polygon class="cls-12" points="17.36 159.34 17.65 159.17 17.65 152 17.36 152.17 17.36 159.34"/><polygon class="cls-6" points="18.16 152.64 18.16 159.81 19.31 160.47 19.31 153.3 18.74 151.65 18.16 152.64"/><polygon class="cls-13" points="18.74 151.65 19.31 153.3 19.6 153.13 19.03 151.48 18.74 151.65"/><polygon class="cls-12" points="19.31 160.47 19.6 160.3 19.6 153.13 19.31 153.3 19.31 160.47"/><polygon class="cls-6" points="20.12 153.77 20.12 160.94 21.27 161.6 21.27 154.43 20.69 152.78 20.12 153.77"/><polygon class="cls-13" points="20.69 152.78 21.27 154.43 21.56 154.26 20.98 152.61 20.69 152.78"/><polygon class="cls-12" points="21.27 161.6 21.56 161.43 21.56 154.26 21.27 154.43 21.27 161.6"/><polygon class="cls-6" points="22.07 154.9 22.07 162.06 23.22 162.73 23.22 155.56 22.64 153.91 22.07 154.9"/><polygon class="cls-13" points="22.64 153.91 23.22 155.56 23.51 155.39 22.94 153.74 22.64 153.91"/><polygon class="cls-12" points="23.22 162.73 23.51 162.56 23.51 155.39 23.22 155.56 23.22 162.73"/><polygon class="cls-6" points="24.03 156.02 24.03 163.19 25.18 163.85 25.18 156.69 24.6 155.04 24.03 156.02"/><polygon class="cls-13" points="24.6 155.04 25.18 156.69 25.47 156.52 24.89 154.87 24.6 155.04"/><polygon class="cls-12" points="25.18 163.85 25.47 163.69 25.47 156.52 25.18 156.69 25.18 163.85"/><path class="cls-2" d="M55.87,127.71c-.69-1.24-1.46-2.7-2.35-4.24s-1.84-3.17-2.8-4.79-2-3.24-2.9-4.74-1.86-2.88-2.63-4.08-1.45-2.15-1.91-2.84L42.53,106l.58,1.17c.39.73.91,1.79,1.6,3s1.47,2.7,2.35,4.24,1.84,3.17,2.8,4.8,2,3.24,2.9,4.74,1.86,2.88,2.63,4.07,1.46,2.16,1.92,2.85l.75,1.07-.59-1.17C57.08,130,56.56,129,55.87,127.71Z"/><path class="cls-17" d="M62.85,150.09c-.28-1.65-.73-3.83-1.26-6s-1.15-4.31-1.67-5.9c-.26-.8-.51-1.45-.67-1.92s-.28-.72-.28-.72,0,.28.09.77.15,1.18.3,2c.28,1.65.73,3.84,1.26,6s1.15,4.31,1.67,5.9c.25.8.51,1.45.67,1.92s.27.72.27.72,0-.28-.09-.77S63,150.92,62.85,150.09Z"/><path class="cls-2" d="M64.67,122.48c-.69-1.24-1.46-2.71-2.35-4.24s-1.83-3.17-2.8-4.8-2-3.24-2.9-4.74-1.86-2.88-2.62-4.07-1.46-2.16-1.92-2.85l-.75-1.07.58,1.17c.39.73.92,1.79,1.61,3s1.46,2.71,2.35,4.24,1.83,3.17,2.8,4.8,1.95,3.24,2.9,4.74,1.86,2.88,2.62,4.08,1.46,2.15,1.92,2.84l.75,1.07-.58-1.17C65.89,124.78,65.36,123.72,64.67,122.48Z"/><path class="cls-17" d="M71.65,144.86c-.28-1.66-.73-3.84-1.26-6s-1.15-4.3-1.67-5.9c-.26-.79-.51-1.45-.67-1.91s-.28-.72-.28-.72,0,.28.09.76.16,1.18.3,2c.28,1.65.73,3.84,1.26,6s1.15,4.31,1.67,5.9c.26.8.51,1.46.67,1.92s.28.72.28.72,0-.28-.09-.77S71.79,145.68,71.65,144.86Z"/><path class="cls-2" d="M73.73,117.29c-.69-1.24-1.47-2.7-2.35-4.24s-1.84-3.17-2.8-4.79-2-3.24-2.91-4.74-1.85-2.88-2.62-4.08-1.46-2.15-1.92-2.84l-.75-1.07s.22.42.59,1.17.91,1.79,1.6,3,1.47,2.7,2.35,4.24,1.84,3.17,2.8,4.8,2,3.24,2.9,4.74,1.86,2.88,2.63,4.07,1.45,2.16,1.91,2.85l.75,1.07-.58-1.17C74.94,119.6,74.42,118.53,73.73,117.29Z"/><path class="cls-17" d="M80.7,139.67c-.27-1.65-.72-3.83-1.25-6s-1.15-4.31-1.68-5.9c-.25-.8-.51-1.45-.66-1.92s-.28-.72-.28-.72,0,.28.09.77.15,1.18.3,2c.28,1.65.73,3.84,1.26,6s1.14,4.31,1.67,5.9c.25.8.51,1.45.66,1.92s.28.72.28.72,0-.28-.09-.77S80.85,140.5,80.7,139.67Z"/><path class="cls-2" d="M83.07,112c-.69-1.24-1.47-2.7-2.35-4.24s-1.84-3.17-2.8-4.8S76,99.73,75,98.23s-1.85-2.89-2.62-4.08S70.93,92,70.47,91.3l-.75-1.06s.22.42.59,1.16.91,1.8,1.6,3,1.47,2.7,2.35,4.24,1.84,3.17,2.8,4.8,2,3.23,2.9,4.73,1.86,2.88,2.63,4.08,1.45,2.16,1.91,2.85l.75,1.06L84.67,115C84.28,114.31,83.76,113.24,83.07,112Z"/><path class="cls-17" d="M90,134.38c-.27-1.65-.72-3.84-1.25-6s-1.15-4.31-1.68-5.9c-.25-.8-.51-1.46-.66-1.92s-.28-.72-.28-.72,0,.28.09.77.15,1.18.3,2c.27,1.66.73,3.84,1.26,6s1.14,4.3,1.67,5.9c.25.8.51,1.45.66,1.91s.28.73.28.73,0-.29-.09-.77S90.19,135.21,90,134.38Z"/><path class="cls-2" d="M92.65,106.82c-.69-1.24-1.47-2.7-2.35-4.24s-1.84-3.17-2.8-4.8-2-3.24-2.9-4.74S82.74,90.16,82,89s-1.45-2.16-1.91-2.85l-.75-1.07.58,1.17c.39.73.91,1.8,1.6,3S83,92,83.84,93.5s1.84,3.17,2.8,4.79,2,3.24,2.9,4.74,1.86,2.88,2.63,4.08,1.46,2.15,1.91,2.84l.76,1.07s-.22-.42-.59-1.17S93.34,108.06,92.65,106.82Z"/><path class="cls-17" d="M99.63,129.2c-.28-1.66-.73-3.84-1.26-6s-1.15-4.31-1.67-5.91c-.26-.79-.51-1.45-.67-1.91s-.28-.72-.28-.72,0,.28.09.76.16,1.19.3,2c.28,1.66.73,3.84,1.26,6s1.15,4.31,1.67,5.91c.25.79.51,1.45.67,1.91s.27.72.27.72,0-.28-.09-.76S99.77,130,99.63,129.2Z"/><path class="cls-2" d="M104,100.89c-.69-1.24-1.46-2.7-2.35-4.24s-1.83-3.17-2.8-4.8-2-3.23-2.9-4.73S94.13,84.23,93.37,83s-1.46-2.16-1.92-2.85l-.75-1.06.58,1.16c.39.73.92,1.8,1.61,3s1.46,2.7,2.35,4.24,1.83,3.17,2.8,4.79,1.95,3.24,2.9,4.74,1.86,2.88,2.62,4.08,1.46,2.16,1.92,2.84l.75,1.07-.58-1.17C105.26,103.19,104.73,102.13,104,100.89Z"/><path class="cls-17" d="M111,123.27c-.28-1.65-.73-3.84-1.26-6s-1.15-4.31-1.67-5.9c-.26-.8-.51-1.46-.67-1.92s-.28-.72-.28-.72,0,.28.09.77.16,1.18.3,2c.28,1.66.73,3.84,1.26,6s1.15,4.31,1.67,5.91c.26.79.51,1.45.67,1.91s.28.72.28.72,0-.28-.09-.76S111.17,124.09,111,123.27Z"/></g></g></svg>