<svg xmlns="http://www.w3.org/2000/svg" xmlns:xlink="http://www.w3.org/1999/xlink" viewBox="0 0 281.78 298.69"><defs><style>.cls-1{fill:#999;}.cls-2{fill:#4f8383;}.cls-3{fill:#010101;}.cls-3,.cls-50{opacity:0.15;}.cls-4{fill:#5c5754;}.cls-5{fill:#fbaf58;}.cls-6{fill:#fed29e;}.cls-7{fill:#b0b0b1;}.cls-8{fill:url(#linear-gradient);}.cls-9{fill:url(#linear-gradient-2);}.cls-10{fill:url(#linear-gradient-3);}.cls-11{fill:url(#linear-gradient-4);}.cls-12{fill:#ededed;}.cls-13{fill:#68adad;}.cls-14{fill:#fbaf59;}.cls-15{fill:#de8c48;}.cls-16{fill:#3b6161;}.cls-17{fill:#dbdada;}.cls-18{fill:#c7c6c5;}.cls-19{fill:#def2f6;}.cls-20{fill:#9dc4c4;}.cls-21{fill:url(#linear-gradient-5);}.cls-22{fill:url(#linear-gradient-6);}.cls-23{fill:url(#linear-gradient-7);}.cls-24{fill:url(#linear-gradient-8);}.cls-25{fill:url(#linear-gradient-9);}.cls-26{fill:url(#linear-gradient-10);}.cls-27{fill:url(#linear-gradient-11);}.cls-28{fill:url(#linear-gradient-12);}.cls-29{fill:url(#linear-gradient-13);}.cls-30{fill:url(#linear-gradient-14);}.cls-31{fill:url(#linear-gradient-15);}.cls-32{fill:url(#linear-gradient-16);}.cls-33{fill:url(#linear-gradient-17);}.cls-34{fill:url(#linear-gradient-18);}.cls-35{fill:url(#linear-gradient-19);}.cls-36{fill:url(#linear-gradient-20);}.cls-37{fill:url(#linear-gradient-21);}.cls-38{fill:url(#linear-gradient-22);}.cls-39{fill:url(#linear-gradient-23);}.cls-40{fill:url(#linear-gradient-24);}.cls-41{fill:url(#linear-gradient-25);}.cls-42{fill:url(#linear-gradient-26);}.cls-43{fill:url(#linear-gradient-27);}.cls-44{fill:url(#linear-gradient-28);}.cls-45{fill:#a4cdce;}.cls-46{fill:#825f4f;}.cls-47{fill:#e86145;}.cls-48{fill:#cf492c;}.cls-49{fill:#9e3322;}.cls-50{fill:#1d1d1b;}.cls-51{fill:#fff;}.cls-52{fill:url(#linear-gradient-29);}.cls-53{fill:url(#linear-gradient-30);}.cls-54{fill:url(#linear-gradient-31);}.cls-55{fill:url(#linear-gradient-32);}.cls-56{fill:url(#linear-gradient-33);}.cls-57{fill:url(#linear-gradient-34);}.cls-58{fill:url(#linear-gradient-35);}.cls-59{fill:url(#linear-gradient-36);}.cls-60{fill:url(#linear-gradient-37);}.cls-61{fill:url(#linear-gradient-38);}.cls-62{fill:url(#linear-gradient-39);}.cls-63{fill:url(#linear-gradient-40);}.cls-64{fill:url(#linear-gradient-41);}.cls-65{fill:url(#linear-gradient-42);}.cls-66{fill:url(#linear-gradient-43);}.cls-67{fill:url(#linear-gradient-44);}.cls-68{fill:url(#linear-gradient-45);}.cls-69{fill:url(#linear-gradient-46);}.cls-70{fill:url(#linear-gradient-47);}.cls-71{fill:url(#linear-gradient-48);}.cls-72{fill:url(#linear-gradient-49);}.cls-73{fill:url(#linear-gradient-50);}.cls-74{fill:url(#linear-gradient-51);}.cls-75{fill:url(#linear-gradient-52);}.cls-76{fill:url(#linear-gradient-53);}.cls-77{fill:url(#linear-gradient-54);}.cls-78{fill:url(#linear-gradient-55);}.cls-79{fill:url(#linear-gradient-56);}.cls-80{fill:url(#linear-gradient-57);}.cls-81{fill:url(#linear-gradient-58);}.cls-82{fill:url(#linear-gradient-59);}.cls-83{fill:url(#linear-gradient-60);}.cls-84{fill:url(#linear-gradient-61);}.cls-85{fill:url(#linear-gradient-62);}.cls-86{fill:url(#linear-gradient-63);}.cls-87{fill:url(#linear-gradient-64);}.cls-88{fill:url(#linear-gradient-65);}.cls-89{fill:url(#linear-gradient-66);}.cls-90{fill:url(#linear-gradient-67);}.cls-91{fill:url(#linear-gradient-68);}</style><linearGradient id="linear-gradient" x1="142.36" y1="134.26" x2="145.32" y2="134.26" gradientUnits="userSpaceOnUse"><stop offset="0.01" stop-color="#fff"/><stop offset="1" stop-color="#fff" stop-opacity="0"/></linearGradient><linearGradient id="linear-gradient-2" x1="139.75" y1="136.83" x2="145.32" y2="136.83" xlink:href="#linear-gradient"/><linearGradient id="linear-gradient-3" x1="159.97" y1="124.09" x2="162.93" y2="124.09" xlink:href="#linear-gradient"/><linearGradient id="linear-gradient-4" x1="157.36" y1="126.66" x2="162.93" y2="126.66" xlink:href="#linear-gradient"/><linearGradient id="linear-gradient-5" x1="80.51" y1="86.47" x2="84.19" y2="86.47" xlink:href="#linear-gradient"/><linearGradient id="linear-gradient-6" x1="78.67" y1="88.05" x2="84.18" y2="88.05" xlink:href="#linear-gradient"/><linearGradient id="linear-gradient-7" x1="68.26" y1="93.54" x2="71.94" y2="93.54" xlink:href="#linear-gradient"/><linearGradient id="linear-gradient-8" x1="66.43" y1="95.12" x2="71.93" y2="95.12" xlink:href="#linear-gradient"/><linearGradient id="linear-gradient-9" x1="56.02" y1="100.61" x2="59.7" y2="100.61" xlink:href="#linear-gradient"/><linearGradient id="linear-gradient-10" x1="54.19" y1="102.19" x2="59.69" y2="102.19" xlink:href="#linear-gradient"/><linearGradient id="linear-gradient-11" x1="80.51" y1="105.32" x2="84.19" y2="105.32" xlink:href="#linear-gradient"/><linearGradient id="linear-gradient-12" x1="78.67" y1="106.9" x2="84.18" y2="106.9" xlink:href="#linear-gradient"/><linearGradient id="linear-gradient-13" x1="68.26" y1="112.39" x2="71.94" y2="112.39" xlink:href="#linear-gradient"/><linearGradient id="linear-gradient-14" x1="66.43" y1="113.97" x2="71.93" y2="113.97" xlink:href="#linear-gradient"/><linearGradient id="linear-gradient-15" x1="56.02" y1="119.46" x2="59.7" y2="119.46" xlink:href="#linear-gradient"/><linearGradient id="linear-gradient-16" x1="54.18" y1="121.04" x2="59.69" y2="121.04" xlink:href="#linear-gradient"/><linearGradient id="linear-gradient-17" x1="80.51" y1="133.6" x2="84.19" y2="133.6" xlink:href="#linear-gradient"/><linearGradient id="linear-gradient-18" x1="78.67" y1="135.18" x2="84.17" y2="135.18" xlink:href="#linear-gradient"/><linearGradient id="linear-gradient-19" x1="68.26" y1="140.67" x2="71.94" y2="140.67" xlink:href="#linear-gradient"/><linearGradient id="linear-gradient-20" x1="66.43" y1="142.25" x2="71.93" y2="142.25" xlink:href="#linear-gradient"/><linearGradient id="linear-gradient-21" x1="56.02" y1="147.73" x2="59.7" y2="147.73" xlink:href="#linear-gradient"/><linearGradient id="linear-gradient-22" x1="54.18" y1="149.32" x2="59.69" y2="149.32" xlink:href="#linear-gradient"/><linearGradient id="linear-gradient-23" x1="80.51" y1="152.45" x2="84.19" y2="152.45" xlink:href="#linear-gradient"/><linearGradient id="linear-gradient-24" x1="78.67" y1="154.03" x2="84.17" y2="154.03" xlink:href="#linear-gradient"/><linearGradient id="linear-gradient-25" x1="68.26" y1="159.52" x2="71.94" y2="159.52" xlink:href="#linear-gradient"/><linearGradient id="linear-gradient-26" x1="66.43" y1="161.1" x2="71.93" y2="161.1" xlink:href="#linear-gradient"/><linearGradient id="linear-gradient-27" x1="56.02" y1="166.59" x2="59.7" y2="166.59" xlink:href="#linear-gradient"/><linearGradient id="linear-gradient-28" x1="54.18" y1="168.17" x2="59.68" y2="168.17" xlink:href="#linear-gradient"/><linearGradient id="linear-gradient-29" x1="229.48" y1="50.61" x2="233.63" y2="50.61" xlink:href="#linear-gradient"/><linearGradient id="linear-gradient-30" x1="226" y1="53.62" x2="233.63" y2="53.62" xlink:href="#linear-gradient"/><linearGradient id="linear-gradient-31" x1="252.96" y1="37.05" x2="257.11" y2="37.05" xlink:href="#linear-gradient"/><linearGradient id="linear-gradient-32" x1="249.48" y1="40.06" x2="257.11" y2="40.06" xlink:href="#linear-gradient"/><linearGradient id="linear-gradient-33" x1="229.48" y1="70.94" x2="233.63" y2="70.94" xlink:href="#linear-gradient"/><linearGradient id="linear-gradient-34" x1="226" y1="73.96" x2="233.63" y2="73.96" xlink:href="#linear-gradient"/><linearGradient id="linear-gradient-35" x1="252.96" y1="57.39" x2="257.11" y2="57.39" xlink:href="#linear-gradient"/><linearGradient id="linear-gradient-36" x1="249.48" y1="60.4" x2="257.11" y2="60.4" xlink:href="#linear-gradient"/><linearGradient id="linear-gradient-37" x1="229.48" y1="91.28" x2="233.63" y2="91.28" xlink:href="#linear-gradient"/><linearGradient id="linear-gradient-38" x1="226" y1="94.29" x2="233.63" y2="94.29" xlink:href="#linear-gradient"/><linearGradient id="linear-gradient-39" x1="252.96" y1="77.72" x2="257.11" y2="77.72" xlink:href="#linear-gradient"/><linearGradient id="linear-gradient-40" x1="249.48" y1="80.73" x2="257.11" y2="80.73" xlink:href="#linear-gradient"/><linearGradient id="linear-gradient-41" x1="229.48" y1="111.61" x2="233.63" y2="111.61" xlink:href="#linear-gradient"/><linearGradient id="linear-gradient-42" x1="226" y1="114.63" x2="233.63" y2="114.63" xlink:href="#linear-gradient"/><linearGradient id="linear-gradient-43" x1="252.96" y1="98.06" x2="257.11" y2="98.06" xlink:href="#linear-gradient"/><linearGradient id="linear-gradient-44" x1="249.48" y1="101.07" x2="257.11" y2="101.07" xlink:href="#linear-gradient"/><linearGradient id="linear-gradient-45" x1="235.01" y1="142.36" x2="239.35" y2="142.36" xlink:href="#linear-gradient"/><linearGradient id="linear-gradient-46" x1="231.53" y1="145.37" x2="239.35" y2="145.37" xlink:href="#linear-gradient"/><linearGradient id="linear-gradient-47" x1="264.36" y1="125.41" x2="268.7" y2="125.41" xlink:href="#linear-gradient"/><linearGradient id="linear-gradient-48" x1="260.88" y1="128.43" x2="268.7" y2="128.43" xlink:href="#linear-gradient"/><linearGradient id="linear-gradient-49" x1="235.01" y1="162.69" x2="239.35" y2="162.69" xlink:href="#linear-gradient"/><linearGradient id="linear-gradient-50" x1="231.53" y1="165.71" x2="239.35" y2="165.71" xlink:href="#linear-gradient"/><linearGradient id="linear-gradient-51" x1="264.36" y1="145.75" x2="268.7" y2="145.75" xlink:href="#linear-gradient"/><linearGradient id="linear-gradient-52" x1="260.88" y1="148.76" x2="268.7" y2="148.76" xlink:href="#linear-gradient"/><linearGradient id="linear-gradient-53" x1="235.01" y1="183.03" x2="239.35" y2="183.03" xlink:href="#linear-gradient"/><linearGradient id="linear-gradient-54" x1="231.53" y1="186.04" x2="239.35" y2="186.04" xlink:href="#linear-gradient"/><linearGradient id="linear-gradient-55" x1="264.36" y1="166.08" x2="268.7" y2="166.08" xlink:href="#linear-gradient"/><linearGradient id="linear-gradient-56" x1="260.88" y1="169.1" x2="268.7" y2="169.1" xlink:href="#linear-gradient"/><linearGradient id="linear-gradient-57" x1="235.01" y1="203.36" x2="239.35" y2="203.36" xlink:href="#linear-gradient"/><linearGradient id="linear-gradient-58" x1="231.53" y1="206.38" x2="239.35" y2="206.38" xlink:href="#linear-gradient"/><linearGradient id="linear-gradient-59" x1="264.36" y1="186.42" x2="268.7" y2="186.42" xlink:href="#linear-gradient"/><linearGradient id="linear-gradient-60" x1="260.88" y1="189.43" x2="268.7" y2="189.43" xlink:href="#linear-gradient"/><linearGradient id="linear-gradient-61" x1="164.4" y1="245.39" x2="166.27" y2="245.39" xlink:href="#linear-gradient"/><linearGradient id="linear-gradient-62" x1="162.07" y1="247.41" x2="166.27" y2="247.41" xlink:href="#linear-gradient"/><linearGradient id="linear-gradient-63" x1="153.67" y1="239.2" x2="155.55" y2="239.2" xlink:href="#linear-gradient"/><linearGradient id="linear-gradient-64" x1="151.34" y1="241.22" x2="155.55" y2="241.22" xlink:href="#linear-gradient"/><linearGradient id="linear-gradient-65" x1="185.84" y1="233.01" x2="187.72" y2="233.01" xlink:href="#linear-gradient"/><linearGradient id="linear-gradient-66" x1="183.51" y1="235.03" x2="187.72" y2="235.03" xlink:href="#linear-gradient"/><linearGradient id="linear-gradient-67" x1="175.12" y1="226.82" x2="176.99" y2="226.82" xlink:href="#linear-gradient"/><linearGradient id="linear-gradient-68" x1="172.79" y1="228.83" x2="176.99" y2="228.83" xlink:href="#linear-gradient"/></defs><g id="Layer_2" data-name="Layer 2"><g id="Layer_1-2" data-name="Layer 1"><polygon class="cls-1" points="281.78 197.02 211.7 237.48 192.14 248.77 140.89 278.36 83.44 245.19 63.88 233.9 0 197.02 51.25 167.43 70.81 156.14 140.89 115.68 204.77 152.56 224.33 163.85 281.78 197.02"/><polygon class="cls-2" points="0 197.02 0 217.35 140.89 298.69 281.78 217.35 281.78 197.02 140.89 278.36 0 197.02"/><polygon class="cls-3" points="140.89 278.36 140.89 298.69 0 217.35 0 197.02 140.89 278.36"/><polygon class="cls-4" points="154.26 204.31 211.7 237.48 192.14 248.77 134.69 215.6 83.44 245.19 63.88 233.9 115.14 204.31 51.25 167.43 70.81 156.14 134.69 193.01 204.77 152.56 224.33 163.85 154.26 204.31"/><polygon class="cls-5" points="75.42 98.28 75.42 152.51 134.13 186.41 134.13 132.17 75.42 98.28"/><polygon class="cls-6" points="169.34 111.84 134.13 132.17 134.13 186.41 169.34 166.07 169.34 111.84"/><polygon class="cls-2" points="139.75 135.45 145.62 132.06 145.62 152.39 139.75 155.78 139.75 135.45"/><polygon class="cls-7" points="145.32 132.23 145.32 152.15 139.75 155.37 139.75 135.45 141.24 134.59 142.36 133.94 144.2 132.88 145.32 132.23"/><polygon class="cls-8" points="145.32 133.52 145.32 135.65 142.36 133.94 144.2 132.88 145.32 133.52"/><polygon class="cls-9" points="145.32 136.95 145.32 139.08 139.75 135.86 139.75 135.45 141.24 134.59 145.32 136.95"/><polygon class="cls-2" points="157.36 125.28 163.23 121.89 163.23 142.22 157.36 145.61 157.36 125.28"/><polygon class="cls-7" points="162.94 122.06 162.94 141.98 157.36 145.2 157.36 125.28 158.85 124.42 159.97 123.77 161.81 122.71 162.94 122.06"/><polygon class="cls-10" points="162.94 123.35 162.94 125.48 159.97 123.77 161.81 122.71 162.94 123.35"/><polygon class="cls-11" points="162.94 126.78 162.94 128.91 157.36 125.69 157.36 125.28 158.85 124.42 162.94 126.78"/><polygon class="cls-2" points="116.26 128.19 122.14 131.57 122.14 151.91 116.26 148.52 116.26 128.19"/><polygon class="cls-12" points="116.56 128.35 122.14 131.57 122.14 151.41 116.56 148.19 116.56 128.35"/><polygon class="cls-2" points="98.65 118.02 104.52 121.41 104.52 141.74 98.65 138.35 98.65 118.02"/><polygon class="cls-12" points="98.95 118.18 104.52 121.41 104.52 141.24 98.95 138.02 98.95 118.18"/><polygon class="cls-2" points="81.04 107.85 86.91 111.24 86.91 131.57 81.04 128.19 81.04 107.85"/><polygon class="cls-13" points="81.34 108.02 86.91 111.24 86.91 131.07 81.34 127.85 81.34 108.02"/><polygon class="cls-2" points="116.26 155.3 122.14 158.69 122.14 179.02 116.26 175.63 116.26 155.3"/><polygon class="cls-12" points="116.56 155.47 122.14 158.69 122.14 178.52 116.56 175.3 116.56 155.47"/><polygon class="cls-2" points="98.65 145.13 104.52 148.52 104.52 168.85 98.65 165.47 98.65 145.13"/><polygon class="cls-12" points="98.95 145.3 104.52 148.52 104.52 168.35 98.95 165.13 98.95 145.3"/><polygon class="cls-2" points="81.04 134.96 86.91 138.35 86.91 158.69 81.04 155.3 81.04 134.96"/><polygon class="cls-13" points="81.34 135.13 86.91 138.35 86.91 158.19 81.34 154.97 81.34 135.13"/><polyline class="cls-14" points="134.12 159.29 169.34 138.96 169.34 132.18 134.12 152.51"/><polyline class="cls-15" points="134.12 152.51 75.42 118.62 75.42 125.4 134.12 159.29"/><polyline class="cls-14" points="134.13 186.41 169.34 166.07 169.34 159.29 134.13 179.63"/><polyline class="cls-15" points="134.13 179.63 75.42 145.73 75.42 152.51 134.13 186.41"/><path class="cls-2" d="M145.62,165.67v13.84l11.74-6.78V159.45a4.07,4.07,0,0,0-6.11-3.53h0A11.25,11.25,0,0,0,145.62,165.67Z"/><path class="cls-4" d="M145.62,165.46V178.6l11.15-6.44V159.54a3.87,3.87,0,0,0-5.8-3.35h0A10.7,10.7,0,0,0,145.62,165.46Z"/><path class="cls-2" d="M152.29,166.11c.47-.82.49-1.68.05-1.94s-1.19.2-1.66,1-.49,1.68,0,1.93S151.82,166.92,152.29,166.11Z"/><polygon class="cls-12" points="169.34 111.84 110.64 77.95 75.42 98.28 134.13 132.17 169.34 111.84"/><polygon class="cls-16" points="110.64 84.73 87.16 98.28 134.12 125.4 157.61 111.84 110.64 84.73"/><polygon class="cls-17" points="101.58 207.19 95.71 203.8 95.71 197.02 101.58 193.63 107.45 197.02 107.45 203.8 101.58 207.19"/><polygon class="cls-18" points="95.71 197.02 101.58 200.41 107.45 197.02 101.58 193.63 95.71 197.02"/><polygon class="cls-18" points="95.71 197.02 101.58 200.41 101.58 207.19 95.71 203.8 95.71 197.02"/><polygon class="cls-16" points="96.3 197.02 101.58 200.07 106.86 197.02 101.58 193.97 96.3 197.02"/><polygon class="cls-19" points="7.21 66.85 7.21 194.1 48.02 217.66 88.83 194.1 88.83 66.86 48 90.47 7.21 66.85"/><polygon class="cls-20" points="7.21 66.85 7.21 194.1 48.02 217.66 48.02 90.42 7.21 66.85"/><polyline class="cls-15" points="48.02 99.84 7.21 76.28 7.21 71.57 48.02 95.13"/><polyline class="cls-5" points="48.02 95.13 88.83 71.57 88.83 76.28 48.02 99.84"/><polyline class="cls-15" points="48.02 146.97 7.21 123.41 7.21 118.7 48.02 142.26"/><polyline class="cls-5" points="48.02 142.26 88.83 118.69 88.83 123.41 48.02 146.97"/><polygon class="cls-2" points="19.45 88.06 11.28 83.35 11.28 97.49 19.45 102.2 19.45 88.06"/><polygon class="cls-12" points="19.45 88.06 19.45 101.49 11.89 97.13 11.86 90.03 11.86 88.48 11.86 88.47 11.85 87.92 11.84 86.36 11.83 83.66 14.18 85.02 15.52 85.8 16.01 86.08 16.01 86.08 17.36 86.85 19.45 88.06"/><polygon class="cls-2" points="31.69 95.13 23.53 90.42 23.53 104.56 31.69 109.27 31.69 95.13"/><polygon class="cls-12" points="31.69 95.13 31.69 108.56 24.14 104.2 24.11 97.1 24.1 95.55 24.1 95.54 24.1 94.99 24.09 93.44 24.08 90.73 26.42 92.09 27.77 92.86 28.25 93.14 28.26 93.14 29.6 93.92 31.69 95.13"/><polygon class="cls-2" points="43.93 102.2 35.77 97.49 35.77 111.63 43.93 116.34 43.93 102.2"/><polygon class="cls-12" points="43.94 102.2 43.94 115.63 36.38 111.27 36.35 104.17 36.34 102.62 36.34 102.61 36.34 102.06 36.33 100.5 36.32 97.8 38.67 99.16 40.01 99.93 40.5 100.21 40.5 100.21 41.85 100.99 43.94 102.2"/><polygon class="cls-2" points="19.45 106.91 11.28 102.2 11.28 116.34 19.45 121.05 19.45 106.91"/><polygon class="cls-12" points="19.45 106.91 19.45 120.34 11.89 115.98 11.86 108.88 11.86 107.33 11.86 107.33 11.85 106.77 11.84 105.22 11.83 102.52 14.18 103.87 15.52 104.65 16.01 104.93 16.01 104.93 17.36 105.71 19.45 106.91"/><polygon class="cls-2" points="31.69 113.98 23.53 109.27 23.53 123.41 31.69 128.12 31.69 113.98"/><polygon class="cls-12" points="31.69 113.98 31.69 127.42 24.14 123.05 24.11 115.95 24.1 114.4 24.1 114.4 24.1 113.84 24.09 112.29 24.08 109.58 26.42 110.94 27.77 111.72 28.25 112 28.26 112 29.6 112.78 31.69 113.98"/><polygon class="cls-2" points="43.94 121.05 35.77 116.34 35.77 130.48 43.94 135.19 43.94 121.05"/><polygon class="cls-12" points="43.94 121.05 43.94 134.48 36.38 130.12 36.35 123.02 36.35 121.47 36.35 121.47 36.34 120.91 36.33 119.36 36.32 116.66 38.67 118.01 40.01 118.78 40.5 119.07 40.5 119.07 41.85 119.84 43.94 121.05"/><polygon class="cls-2" points="76.59 88.06 84.75 83.35 84.75 97.49 76.59 102.2 76.59 88.06"/><polygon class="cls-7" points="76.59 88.06 76.59 101.49 84.14 97.13 84.17 90.03 84.18 88.48 84.18 88.47 84.18 87.92 84.19 86.37 84.2 83.67 81.86 85.02 80.51 85.8 80.02 86.08 80.02 86.08 78.67 86.85 76.59 88.06"/><polygon class="cls-21" points="80.51 85.8 84.18 87.92 84.19 86.37 81.86 85.02 80.51 85.8"/><polygon class="cls-22" points="78.67 86.85 84.17 90.03 84.18 88.48 84.18 88.47 80.02 86.08 80.02 86.08 78.67 86.85"/><polygon class="cls-2" points="64.34 95.13 72.5 90.42 72.5 104.56 64.34 109.27 64.34 95.13"/><polygon class="cls-7" points="64.34 95.13 64.34 108.56 71.89 104.2 71.92 97.1 71.93 95.55 71.93 95.55 71.93 94.99 71.94 93.44 71.95 90.73 69.61 92.09 68.26 92.86 67.78 93.15 67.78 93.15 66.43 93.92 64.34 95.13"/><polygon class="cls-23" points="68.26 92.86 71.93 94.99 71.94 93.44 69.61 92.09 68.26 92.86"/><polygon class="cls-24" points="66.43 93.92 71.92 97.1 71.93 95.55 71.93 95.55 67.78 93.15 67.78 93.15 66.43 93.92"/><polygon class="cls-2" points="52.1 102.2 60.26 97.49 60.26 111.63 52.1 116.34 52.1 102.2"/><polygon class="cls-7" points="52.1 102.2 52.1 115.63 59.65 111.27 59.68 104.17 59.69 102.62 59.69 102.61 59.69 102.06 59.7 100.5 59.71 97.8 57.37 99.16 56.02 99.93 55.53 100.22 55.53 100.22 54.19 100.99 52.1 102.2"/><polygon class="cls-25" points="56.02 99.93 59.69 102.06 59.7 100.5 57.37 99.16 56.02 99.93"/><polygon class="cls-26" points="54.19 100.99 59.68 104.17 59.69 102.62 59.69 102.61 55.53 100.22 55.53 100.22 54.19 100.99"/><polygon class="cls-2" points="76.59 106.91 84.75 102.2 84.75 116.34 76.59 121.05 76.59 106.91"/><polygon class="cls-7" points="76.59 106.91 76.59 120.34 84.14 115.98 84.17 108.88 84.17 107.33 84.17 107.33 84.18 106.77 84.19 105.22 84.2 102.52 81.86 103.87 80.51 104.65 80.02 104.93 80.02 104.93 78.67 105.71 76.59 106.91"/><polygon class="cls-27" points="80.51 104.65 84.18 106.77 84.19 105.22 81.86 103.87 80.51 104.65"/><polygon class="cls-28" points="78.67 105.71 84.17 108.88 84.17 107.33 84.17 107.33 80.02 104.93 80.02 104.93 78.67 105.71"/><polygon class="cls-2" points="64.34 113.98 72.5 109.27 72.5 123.41 64.34 128.12 64.34 113.98"/><polygon class="cls-7" points="64.34 113.98 64.34 127.42 71.89 123.05 71.92 115.95 71.93 114.4 71.93 114.4 71.93 113.84 71.94 112.29 71.95 109.59 69.61 110.94 68.26 111.72 67.78 112 67.78 112 66.43 112.78 64.34 113.98"/><polygon class="cls-29" points="68.26 111.72 71.93 113.84 71.94 112.29 69.61 110.94 68.26 111.72"/><polygon class="cls-30" points="66.43 112.78 71.92 115.95 71.93 114.4 71.93 114.4 67.78 112 67.78 112 66.43 112.78"/><polygon class="cls-2" points="52.1 121.05 60.26 116.34 60.26 130.48 52.1 135.19 52.1 121.05"/><polygon class="cls-7" points="52.1 121.05 52.1 134.48 59.65 130.12 59.68 123.02 59.69 121.47 59.69 121.47 59.69 120.91 59.7 119.36 59.71 116.66 57.37 118.01 56.02 118.78 55.53 119.07 55.53 119.07 54.19 119.84 52.1 121.05"/><polygon class="cls-31" points="56.02 118.78 59.69 120.91 59.7 119.36 57.37 118.01 56.02 118.78"/><polygon class="cls-32" points="54.19 119.84 59.68 123.02 59.69 121.47 59.69 121.47 55.53 119.07 55.53 119.07 54.19 119.84"/><polygon class="cls-2" points="76.59 135.19 84.75 130.48 84.75 144.61 76.59 149.33 76.59 135.19"/><polygon class="cls-7" points="76.58 135.19 76.58 148.62 84.14 144.26 84.17 137.15 84.17 135.61 84.17 135.6 84.18 135.04 84.19 133.49 84.2 130.79 81.85 132.15 80.51 132.92 80.02 133.2 80.02 133.2 78.67 133.98 76.58 135.19"/><polygon class="cls-33" points="80.51 132.92 84.18 135.04 84.19 133.49 81.85 132.15 80.51 132.92"/><polygon class="cls-34" points="78.67 133.98 84.17 137.15 84.17 135.61 84.17 135.6 80.02 133.2 80.02 133.2 78.67 133.98"/><polygon class="cls-2" points="64.34 142.26 72.5 137.54 72.5 151.68 64.34 156.4 64.34 142.26"/><polygon class="cls-7" points="64.34 142.26 64.34 155.69 71.89 151.33 71.92 144.22 71.93 142.68 71.93 142.67 71.93 142.11 71.94 140.56 71.95 137.86 69.61 139.22 68.26 139.99 67.78 140.27 67.77 140.27 66.43 141.05 64.34 142.26"/><polygon class="cls-35" points="68.26 139.99 71.93 142.11 71.94 140.56 69.61 139.22 68.26 139.99"/><polygon class="cls-36" points="66.43 141.05 71.92 144.22 71.93 142.68 71.93 142.67 67.78 140.27 67.77 140.27 66.43 141.05"/><polygon class="cls-2" points="52.1 149.33 60.26 144.62 60.26 158.75 52.1 163.47 52.1 149.33"/><polygon class="cls-7" points="52.1 149.33 52.1 162.76 59.65 158.4 59.68 151.29 59.69 149.74 59.69 149.74 59.69 149.18 59.7 147.63 59.71 144.93 57.37 146.29 56.02 147.06 55.53 147.34 55.53 147.34 54.18 148.12 52.1 149.33"/><polygon class="cls-37" points="56.02 147.06 59.69 149.18 59.7 147.63 57.37 146.29 56.02 147.06"/><polygon class="cls-38" points="54.18 148.12 59.68 151.29 59.69 149.74 59.69 149.74 55.53 147.34 55.53 147.34 54.18 148.12"/><polygon class="cls-2" points="76.58 154.04 84.75 149.33 84.75 163.47 76.58 168.18 76.58 154.04"/><polygon class="cls-7" points="76.58 154.04 76.58 167.47 84.14 163.11 84.17 156 84.17 154.46 84.17 154.45 84.18 153.9 84.19 152.34 84.2 149.64 81.85 151 80.51 151.77 80.02 152.06 80.02 152.06 78.67 152.83 76.58 154.04"/><polygon class="cls-39" points="80.51 151.77 84.18 153.9 84.19 152.34 81.85 151 80.51 151.77"/><polygon class="cls-40" points="78.67 152.83 84.17 156 84.17 154.46 84.17 154.45 80.02 152.06 80.02 152.06 78.67 152.83"/><polygon class="cls-2" points="64.34 161.11 72.5 156.4 72.5 170.53 64.34 175.25 64.34 161.11"/><polygon class="cls-7" points="64.34 161.11 64.34 174.54 71.89 170.18 71.92 163.07 71.93 161.53 71.93 161.52 71.93 160.97 71.94 159.41 71.95 156.71 69.61 158.07 68.26 158.84 67.78 159.12 67.77 159.12 66.43 159.9 64.34 161.11"/><polygon class="cls-41" points="68.26 158.84 71.93 160.97 71.94 159.41 69.61 158.07 68.26 158.84"/><polygon class="cls-42" points="66.43 159.9 71.92 163.07 71.93 161.53 71.93 161.52 67.78 159.12 67.77 159.12 66.43 159.9"/><polygon class="cls-2" points="52.1 168.18 60.26 163.47 60.26 177.6 52.1 182.32 52.1 168.18"/><polygon class="cls-7" points="52.09 168.18 52.09 181.61 59.65 177.25 59.68 170.14 59.69 168.6 59.69 168.59 59.69 168.03 59.7 166.48 59.71 163.78 57.36 165.14 56.02 165.91 55.53 166.19 55.53 166.19 54.18 166.97 52.09 168.18"/><polygon class="cls-43" points="56.02 165.91 59.69 168.03 59.7 166.48 57.36 165.14 56.02 165.91"/><polygon class="cls-44" points="54.18 166.97 59.68 170.14 59.69 168.6 59.69 168.59 55.53 166.19 55.53 166.19 54.18 166.97"/><polygon class="cls-2" points="19.45 135.19 11.28 130.48 11.28 144.61 19.45 149.33 19.45 135.19"/><polygon class="cls-12" points="19.45 135.19 19.45 148.62 11.89 144.26 11.86 137.15 11.86 135.6 11.86 135.6 11.85 135.04 11.84 133.49 11.83 130.79 14.18 132.15 15.52 132.92 16.01 133.2 16.01 133.2 17.36 133.98 19.45 135.19"/><polygon class="cls-2" points="31.69 142.26 23.53 137.54 23.53 151.68 31.69 156.4 31.69 142.26"/><polygon class="cls-12" points="31.69 142.26 31.69 155.69 24.14 151.33 24.11 144.22 24.1 142.68 24.1 142.67 24.1 142.11 24.09 140.56 24.08 137.86 26.42 139.22 27.77 139.99 28.25 140.27 28.26 140.27 29.6 141.05 31.69 142.26"/><polygon class="cls-2" points="43.93 149.33 35.77 144.61 35.77 158.75 43.93 163.47 43.93 149.33"/><polygon class="cls-12" points="43.94 149.33 43.94 162.76 36.38 158.4 36.35 151.29 36.34 149.74 36.34 149.74 36.34 149.18 36.33 147.63 36.32 144.93 38.67 146.29 40.01 147.06 40.5 147.34 40.5 147.34 41.85 148.12 43.94 149.33"/><polygon class="cls-2" points="19.45 154.04 11.28 149.33 11.28 163.47 19.45 168.18 19.45 154.04"/><polygon class="cls-12" points="19.45 154.04 19.45 167.47 11.89 163.11 11.86 156 11.86 154.46 11.86 154.45 11.85 153.9 11.84 152.34 11.83 149.64 14.18 151 15.52 151.77 16.01 152.06 16.01 152.06 17.36 152.83 19.45 154.04"/><polygon class="cls-2" points="31.69 161.11 23.53 156.4 23.53 170.53 31.69 175.25 31.69 161.11"/><polygon class="cls-12" points="31.69 161.11 31.69 174.54 24.14 170.18 24.11 163.07 24.1 161.53 24.1 161.52 24.1 160.97 24.09 159.41 24.08 156.71 26.42 158.07 27.77 158.84 28.25 159.12 28.26 159.12 29.6 159.9 31.69 161.11"/><polygon class="cls-2" points="43.94 168.18 35.77 163.47 35.77 177.6 43.94 182.32 43.94 168.18"/><polygon class="cls-12" points="43.94 168.18 43.94 181.61 36.38 177.25 36.35 170.14 36.35 168.6 36.35 168.59 36.34 168.03 36.33 166.48 36.32 163.78 38.67 165.14 40.01 165.91 40.5 166.19 40.5 166.19 41.85 166.97 43.94 168.18"/><polygon class="cls-5" points="7.21 66.85 48.02 90.42 88.83 66.85 48.02 43.29 7.21 66.85"/><polygon class="cls-4" points="15.37 66.85 48.02 48 80.67 66.85 48.02 85.7 15.37 66.85"/><path class="cls-45" d="M60.26,210.59l16.33-9.42V187.52a3,3,0,0,0-4.51-2.6l-7.87,4.54a7.91,7.91,0,0,0-3.95,6.84Z"/><path class="cls-46" d="M68.42,196.46l-4.08-2.34a2.73,2.73,0,0,0-4.08,2.36v14.14l8.17-4.74Z"/><polygon class="cls-47" points="56.18 189.39 72.51 179.96 92.91 191.74 76.59 201.17 56.18 189.39"/><polygon class="cls-17" points="74.22 203.51 76.59 201.17 78.96 203.51 78.96 223.36 76.59 224.73 74.22 223.36 74.22 203.51"/><polygon class="cls-17" points="88.17 195.45 90.54 193.11 92.91 195.45 92.91 215.31 90.54 216.68 88.17 215.31 88.17 195.45"/><polyline class="cls-48" points="76.59 205.88 92.91 196.43 92.91 191.72 76.59 201.17"/><polyline class="cls-49" points="76.59 201.17 56.18 189.39 56.18 194.1 76.59 205.88"/><polygon class="cls-15" points="11.27 168.17 11.29 192.13 43.94 210.59 43.93 187.03 11.27 168.17"/><path class="cls-16" d="M33.26,186.12c3.09,5.35,3.06,11.15-.07,12.95S25,198,22,192.65s-3.07-11.15.06-13S30.17,180.77,33.26,186.12Z"/><path class="cls-12" d="M31,187.43c1.85,3.2,1.83,6.66,0,7.74s-4.87-.64-6.72-3.84-1.83-6.66,0-7.74S29.14,184.23,31,187.43Z"/><polygon class="cls-50" points="25.48 77.41 48.02 90.42 7.21 66.85 25.48 77.41"/><polygon class="cls-6" points="275.01 199.96 275.01 111.84 222.18 81.34 163.47 115.23 163.47 203.35 216.31 233.86 275.01 199.96"/><polygon class="cls-15" points="163.47 115.23 216.31 145.74 216.31 233.86 163.47 203.35 163.47 115.23"/><polygon class="cls-51" points="163.47 115.23 216.31 145.74 275.01 111.84 222.18 81.34 163.47 115.23"/><polygon class="cls-6" points="263.27 111.84 263.27 23.73 222.18 0 175.22 27.11 175.22 115.23 216.31 138.96 263.27 111.84"/><polygon class="cls-15" points="175.22 27.11 216.31 50.84 216.31 138.96 175.22 115.23 175.22 27.11"/><polygon class="cls-2" points="222.18 54.23 222.18 67.78 233.92 61.01 233.92 47.45 222.18 54.23"/><polygon class="cls-7" points="233.63 47.62 233.63 60.84 222.18 67.38 222.18 54.23 226 52.02 228.1 50.81 229.48 50.02 231.57 48.8 233.63 47.62"/><polygon class="cls-52" points="233.63 49.99 233.63 52.41 229.48 50.02 231.57 48.8 233.63 49.99"/><polygon class="cls-53" points="233.63 54.01 233.63 56.43 226 52.02 228.1 50.81 233.63 54.01"/><polygon class="cls-2" points="245.66 40.67 245.66 54.23 257.4 47.45 257.4 33.89 245.66 40.67"/><polygon class="cls-7" points="257.11 34.06 257.11 47.28 245.66 53.83 245.66 40.67 249.48 38.46 251.58 37.26 252.96 36.46 255.05 35.25 257.11 34.06"/><polygon class="cls-54" points="257.11 36.44 257.11 38.85 252.96 36.46 255.05 35.25 257.11 36.44"/><polygon class="cls-55" points="257.11 40.45 257.11 42.87 249.48 38.46 251.58 37.26 257.11 40.45"/><polygon class="cls-2" points="222.18 74.56 222.18 88.12 233.92 81.34 233.92 67.78 222.18 74.56"/><polygon class="cls-7" points="233.63 67.95 233.63 81.17 222.18 87.72 222.18 74.56 226 72.36 228.1 71.15 229.48 70.35 231.57 69.14 233.63 67.95"/><polygon class="cls-56" points="233.63 70.33 233.63 72.75 229.48 70.35 231.57 69.14 233.63 70.33"/><polygon class="cls-57" points="233.63 74.34 233.63 76.76 226 72.36 228.1 71.15 233.63 74.34"/><polygon class="cls-2" points="245.66 61.01 245.66 74.56 257.4 67.78 257.4 54.23 245.66 61.01"/><polygon class="cls-7" points="257.11 54.4 257.11 67.61 245.66 74.16 245.66 61.01 249.48 58.8 251.58 57.59 252.96 56.79 255.05 55.58 257.11 54.4"/><polygon class="cls-58" points="257.11 56.77 257.11 59.19 252.96 56.79 255.05 55.58 257.11 56.77"/><polygon class="cls-59" points="257.11 60.78 257.11 63.2 249.48 58.8 251.58 57.59 257.11 60.78"/><polygon class="cls-2" points="222.18 94.9 222.18 108.45 233.92 101.68 233.92 88.12 222.18 94.9"/><polygon class="cls-7" points="233.63 88.29 233.63 101.51 222.18 108.05 222.18 94.9 226 92.69 228.1 91.48 229.48 90.69 231.57 89.48 233.63 88.29"/><polygon class="cls-60" points="233.63 90.67 233.63 93.08 229.48 90.69 231.57 89.48 233.63 90.67"/><polygon class="cls-61" points="233.63 94.67 233.63 97.1 226 92.69 228.1 91.48 233.63 94.67"/><polygon class="cls-2" points="245.66 81.34 245.66 94.9 257.4 88.12 257.4 74.56 245.66 81.34"/><polygon class="cls-7" points="257.11 74.73 257.11 87.95 245.66 94.5 245.66 81.34 249.48 79.14 251.58 77.93 252.96 77.13 255.05 75.92 257.11 74.73"/><polygon class="cls-62" points="257.11 77.11 257.11 79.53 252.96 77.13 255.05 75.92 257.11 77.11"/><polygon class="cls-63" points="257.11 81.12 257.11 83.54 249.48 79.14 251.58 77.93 257.11 81.12"/><polygon class="cls-2" points="222.18 115.23 222.18 128.79 233.92 122.01 233.92 108.45 222.18 115.23"/><polygon class="cls-7" points="233.63 108.63 233.63 121.84 222.18 128.39 222.18 115.23 226 113.03 228.1 111.82 229.48 111.02 231.57 109.81 233.63 108.63"/><polygon class="cls-64" points="233.63 111 233.63 113.42 229.48 111.02 231.57 109.81 233.63 111"/><polygon class="cls-65" points="233.63 115.01 233.63 117.43 226 113.03 228.1 111.82 233.63 115.01"/><polygon class="cls-2" points="245.66 101.68 245.66 115.23 257.4 108.45 257.4 94.9 245.66 101.68"/><polygon class="cls-7" points="257.11 95.07 257.11 108.29 245.66 114.83 245.66 101.67 249.48 99.47 251.58 98.26 252.96 97.47 255.05 96.25 257.11 95.07"/><polygon class="cls-66" points="257.11 97.44 257.11 99.86 252.96 97.47 255.05 96.25 257.11 97.44"/><polygon class="cls-67" points="257.11 101.45 257.11 103.88 249.48 99.47 251.58 98.26 257.11 101.45"/><polygon class="cls-2" points="222.18 149.13 239.79 138.96 239.79 152.51 222.18 162.68 222.18 149.13"/><polygon class="cls-7" points="239.35 139.21 239.35 152.43 222.18 162.34 222.18 149.13 231.53 143.73 233.66 142.5 235.01 141.72 237.14 140.49 239.35 139.21"/><polygon class="cls-68" points="239.35 141.76 239.35 144.22 235.01 141.72 237.14 140.49 239.35 141.76"/><polygon class="cls-69" points="239.35 145.78 239.35 148.25 231.53 143.73 233.66 142.5 239.35 145.78"/><polygon class="cls-2" points="251.53 132.18 269.14 122.01 269.14 135.57 251.53 145.74 251.53 132.18"/><polygon class="cls-7" points="268.7 122.27 268.7 135.48 251.53 145.4 251.53 132.18 260.88 126.78 263.01 125.55 264.36 124.77 266.49 123.54 268.7 122.27"/><polygon class="cls-70" points="268.7 124.81 268.7 127.28 264.36 124.77 266.49 123.54 268.7 124.81"/><polygon class="cls-71" points="268.7 128.83 268.7 131.3 260.88 126.78 263.01 125.55 268.7 128.83"/><polygon class="cls-2" points="222.18 169.46 239.79 159.29 239.79 172.85 222.18 183.02 222.18 169.46"/><polygon class="cls-7" points="239.35 159.55 239.35 172.76 222.18 182.68 222.18 169.46 231.53 164.07 233.66 162.83 235.01 162.05 237.14 160.82 239.35 159.55"/><polygon class="cls-72" points="239.35 162.09 239.35 164.56 235.01 162.05 237.14 160.82 239.35 162.09"/><polygon class="cls-73" points="239.35 166.12 239.35 168.58 231.53 164.07 233.66 162.83 239.35 166.12"/><polygon class="cls-2" points="251.53 152.51 269.14 142.35 269.14 155.9 251.53 166.07 251.53 152.51"/><polygon class="cls-7" points="268.7 142.6 268.7 155.82 251.53 165.73 251.53 152.51 260.88 147.12 263.01 145.89 264.36 145.11 266.49 143.88 268.7 142.6"/><polygon class="cls-74" points="268.7 145.15 268.7 147.62 264.36 145.11 266.49 143.88 268.7 145.15"/><polygon class="cls-75" points="268.7 149.17 268.7 151.63 260.88 147.12 263.01 145.89 268.7 149.17"/><polygon class="cls-2" points="222.18 189.8 239.79 179.63 239.79 193.19 222.18 203.35 222.18 189.8"/><polygon class="cls-7" points="239.35 179.88 239.35 193.1 222.18 203.01 222.18 189.8 231.53 184.4 233.66 183.17 235.01 182.39 237.14 181.16 239.35 179.88"/><polygon class="cls-76" points="239.35 182.43 239.35 184.9 235.01 182.39 237.14 181.16 239.35 182.43"/><polygon class="cls-77" points="239.35 186.45 239.35 188.91 231.53 184.4 233.66 183.17 239.35 186.45"/><polygon class="cls-2" points="251.53 172.85 269.14 162.68 269.14 176.24 251.53 186.41 251.53 172.85"/><polygon class="cls-7" points="268.7 162.94 268.7 176.15 251.53 186.07 251.53 172.85 260.88 167.46 263.01 166.22 264.36 165.44 266.49 164.21 268.7 162.94"/><polygon class="cls-78" points="268.7 165.49 268.7 167.95 264.36 165.44 266.49 164.21 268.7 165.49"/><polygon class="cls-79" points="268.7 169.5 268.7 171.97 260.88 167.46 263.01 166.22 268.7 169.5"/><polygon class="cls-2" points="222.18 210.13 239.79 199.96 239.79 213.52 222.18 223.69 222.18 210.13"/><polygon class="cls-7" points="239.35 200.22 239.35 213.44 222.18 223.35 222.18 210.13 231.53 204.74 233.66 203.5 235.01 202.72 237.14 201.49 239.35 200.22"/><polygon class="cls-80" points="239.35 202.77 239.35 205.23 235.01 202.72 237.14 201.49 239.35 202.77"/><polygon class="cls-81" points="239.35 206.78 239.35 209.25 231.53 204.74 233.66 203.5 239.35 206.78"/><polygon class="cls-2" points="251.53 193.19 269.14 183.02 269.14 196.57 251.53 206.74 251.53 193.19"/><polygon class="cls-7" points="268.7 183.27 268.7 196.49 251.53 206.4 251.53 193.19 260.88 187.79 263.01 186.56 264.36 185.78 266.49 184.55 268.7 183.27"/><polygon class="cls-82" points="268.7 185.82 268.7 188.28 264.36 185.78 266.49 184.55 268.7 185.82"/><polygon class="cls-83" points="268.7 189.84 268.7 192.31 260.88 187.79 263.01 186.56 268.7 189.84"/><polygon class="cls-2" points="181.09 37.3 181.09 50.86 210.44 67.8 210.44 54.25 181.09 37.3"/><polygon class="cls-12" points="181.41 37.48 181.38 50.69 210.44 67.46 210.44 54.25 181.41 37.48"/><polygon class="cls-2" points="181.09 57.62 181.09 71.17 210.44 88.12 210.44 74.56 181.09 57.62"/><polygon class="cls-12" points="181.4 57.8 181.38 71 210.44 87.78 210.44 74.56 181.4 57.8"/><polygon class="cls-2" points="181.09 77.95 181.09 91.51 210.44 108.46 210.44 94.9 181.09 77.95"/><polygon class="cls-12" points="181.4 78.14 181.38 91.34 210.44 108.12 210.44 94.9 181.4 78.14"/><polygon class="cls-2" points="181.09 98.29 181.09 111.84 210.44 128.79 210.44 115.23 181.09 98.29"/><polygon class="cls-12" points="181.4 98.47 181.38 111.67 210.44 128.45 210.44 115.23 181.4 98.47"/><polygon class="cls-51" points="175.22 27.11 222.18 0 263.27 23.73 216.31 50.84 175.22 27.11"/><polygon class="cls-4" points="186.96 27.11 216.31 44.06 251.53 23.73 222.18 6.78 186.96 27.11"/><path class="cls-2" d="M181.09,213.52l11.74,6.78V206.73A11.75,11.75,0,0,0,187,196.58l-.11-.06a3.85,3.85,0,0,0-5.77,3.33Z"/><path class="cls-16" d="M187,196.58c-2.44-1.41-5.59.87-5.59,3.69v13l11.45,6.61V206.73A11.71,11.71,0,0,0,187,196.58Z"/><path class="cls-2" d="M187.91,202.81c.52.9.52,1.89,0,2.19s-1.38-.19-1.9-1.1-.53-1.89,0-2.19S187.38,201.9,187.91,202.81Z"/><polygon class="cls-2" points="169.34 179.63 210.44 203.35 210.44 189.8 169.34 166.07 169.34 179.63"/><polygon class="cls-12" points="169.93 179.29 210.45 202.68 210.45 189.8 169.93 166.41 169.93 179.29"/><polygon class="cls-2" points="169.35 159.28 210.44 183.01 210.44 169.45 169.35 145.73 169.35 159.28"/><polygon class="cls-12" points="169.93 158.95 210.45 182.34 210.45 169.46 169.93 146.07 169.93 158.95"/><polygon class="cls-2" points="169.34 138.95 210.43 162.68 210.43 149.12 169.34 125.39 169.34 138.95"/><polygon class="cls-12" points="169.92 138.61 210.44 162 210.44 149.13 169.92 125.73 169.92 138.61"/><polygon class="cls-4" points="177.18 190.3 171.31 193.69 194.82 207.24 200.66 203.85 177.18 190.3"/><polygon class="cls-18" points="171.31 193.69 171.31 195.22 194.79 208.77 200.66 205.35 200.66 203.85 194.82 207.24 171.31 193.69"/><polygon class="cls-20" points="140 277.92 91.74 250.06 91.74 212.91 140 240.77 140 277.92"/><polygon class="cls-12" points="188.25 212.91 140 185.05 91.74 212.91 140 240.77 188.25 212.91"/><polygon class="cls-4" points="102.46 212.77 140 234.42 177.53 212.77 139.99 191.1 102.46 212.77"/><polygon class="cls-19" points="140 277.92 188.25 250.06 188.25 212.91 140 240.77 140 277.92"/><polygon class="cls-51" points="91.73 231.5 140 259.35 188.25 231.5 188.25 237.69 140 265.54 91.73 237.69 91.73 231.5"/><polygon class="cls-2" points="156.09 250.06 166.81 243.87 166.81 256.25 156.09 262.44 156.09 250.06"/><polygon class="cls-20" points="166.27 244.17 166.27 255.94 156.09 261.83 156.09 250.06 162.07 246.6 163.49 245.78 164.4 245.26 165.82 244.44 166.27 244.17"/><polygon class="cls-84" points="166.27 244.7 166.27 246.34 164.4 245.26 165.82 244.44 166.27 244.7"/><polygon class="cls-85" points="166.27 247.39 166.27 249.03 162.07 246.6 163.49 245.78 166.27 247.39"/><polygon class="cls-2" points="145.36 243.87 156.09 237.67 156.09 250.06 145.36 256.25 145.36 243.87"/><polygon class="cls-20" points="155.55 237.97 155.55 249.74 145.36 255.63 145.36 243.87 151.34 240.4 152.76 239.58 153.67 239.06 155.09 238.24 155.55 237.97"/><polygon class="cls-86" points="155.55 238.51 155.55 240.15 153.68 239.07 155.09 238.25 155.55 238.51"/><polygon class="cls-87" points="155.55 241.2 155.55 242.84 151.34 240.41 152.77 239.59 155.55 241.2"/><polygon class="cls-2" points="177.53 237.67 188.25 231.48 188.25 243.87 177.53 250.06 177.53 237.67"/><polygon class="cls-20" points="187.72 231.79 187.72 243.55 177.53 249.44 177.53 237.67 183.51 234.22 184.94 233.4 185.84 232.88 187.26 232.06 187.72 231.79"/><polygon class="cls-88" points="187.72 232.32 187.72 233.96 185.84 232.88 187.26 232.06 187.72 232.32"/><polygon class="cls-89" points="187.72 235.01 187.72 236.65 183.51 234.22 184.94 233.4 187.72 235.01"/><polygon class="cls-2" points="166.81 231.48 177.53 225.29 177.53 237.67 166.81 243.87 166.81 231.48"/><polygon class="cls-20" points="176.99 225.59 176.99 237.35 166.8 243.25 166.81 231.48 172.79 228.02 174.21 227.2 175.12 226.68 176.54 225.86 176.99 225.59"/><polygon class="cls-90" points="176.99 226.13 176.99 227.77 175.12 226.69 176.54 225.86 176.99 226.13"/><polygon class="cls-91" points="176.99 228.81 176.99 230.46 172.79 228.03 174.21 227.21 176.99 228.81"/><polygon class="cls-2" points="118.55 246.96 129.27 253.15 129.27 271.73 118.55 265.53 118.55 246.96"/><polygon class="cls-4" points="119.08 247.27 129.27 253.15 129.27 271.26 119.08 265.37 119.08 247.27"/><path class="cls-2" d="M124.31,259.67c.22.38.22.79,0,.92s-.57-.08-.79-.46-.22-.78,0-.91S124.09,259.29,124.31,259.67Z"/><path class="cls-2" d="M117.73,239.34c-1.09.63-2.84-.37-3.91-2.23a6,6,0,0,1-.59-1.33,4.32,4.32,0,0,1-.17-1.88,1.56,1.56,0,0,1,2.29-1.32,4.07,4.07,0,0,1,1.53,1.09,5.84,5.84,0,0,1,.87,1.17C118.82,236.7,118.81,238.72,117.73,239.34Z"/><path class="cls-2" d="M133.81,248.63c-1.08.63-2.84-.37-3.91-2.23a6.4,6.4,0,0,1-.58-1.33,4.35,4.35,0,0,1-.18-1.88,1.77,1.77,0,0,1,.78-1.3,1.75,1.75,0,0,1,1.52,0A4.15,4.15,0,0,1,133,243a6.24,6.24,0,0,1,.87,1.17C134.91,246,134.9,248,133.81,248.63Z"/><path class="cls-2" d="M101.64,230c-1.09.62-2.84-.37-3.91-2.23a6,6,0,0,1-.58-1.34,4.15,4.15,0,0,1-.18-1.87,1.74,1.74,0,0,1,.78-1.3,1.76,1.76,0,0,1,1.51,0,4.42,4.42,0,0,1,1.54,1.09,6.55,6.55,0,0,1,.86,1.17C102.73,227.37,102.72,229.39,101.64,230Z"/></g></g></svg>