<svg xmlns="http://www.w3.org/2000/svg" viewBox="0 0 177.14 151.82"><defs><style>.cls-1{fill:#898c54;}.cls-2{fill:#c3c270;}.cls-3{fill:#646942;}.cls-4{fill:#010101;opacity:0.36;}.cls-5{fill:#a58e84;}.cls-6{fill:#435161;}.cls-7{fill:#e2d6c5;}.cls-8{fill:#595758;}.cls-9{fill:#c9afa6;}.cls-10{fill:#ad9f64;}.cls-11{fill:#dba863;}.cls-12{fill:#a97d49;}.cls-13{fill:#f6d8a5;}.cls-14{fill:#af9b8a;}.cls-15,.cls-22{fill:#3e5657;}.cls-16{fill:#b5bca7;}.cls-17{fill:#6e6262;}.cls-18{fill:#3d1317;}.cls-19{fill:#f8f5eb;}.cls-20{fill:#b5978b;}.cls-21{fill:#2d1216;}.cls-22{opacity:0.85;}.cls-23{fill:#c6b366;}.cls-24{fill:#b4965d;}</style></defs><g id="Layer_2" data-name="Layer 2"><g id="Layer_1-2" data-name="Layer 1"><polygon class="cls-1" points="0 96.62 41.69 120.69 83.38 96.62 41.69 72.55 0 96.62"/><polygon class="cls-1" points="0 96.62 2.01 97.78 2.01 95.94 0 94.78 0 96.62"/><polygon class="cls-2" points="0 94.78 41.69 118.85 83.38 94.78 41.69 70.71 0 94.78"/><polygon class="cls-3" points="41.69 120.69 83.38 96.62 83.38 94.78 41.69 118.85 41.69 120.69"/><path class="cls-4" d="M39.68,79.46,14.45,94.64l27.24,15.64S70,102.65,83.37,94.78L40.46,69.67Z"/><polygon class="cls-5" points="20.39 81.26 20.21 83.27 40.65 79.27 40.28 77.37 20.39 81.26"/><polygon class="cls-5" points="16.54 90.25 16.23 93.14 40.17 71.65 38.88 70.21 16.54 90.25"/><path class="cls-5" d="M41.54,79V32.52L14.45,94.65Zm-2.09-.73L16.54,91.5,39.45,40.92Z"/><polygon class="cls-5" points="34.61 51.86 42.9 47.08 42.9 45.14 34.61 49.92 34.61 51.86"/><polygon class="cls-5" points="27.07 67.85 42.15 59.14 42.15 57.21 27.07 65.91 27.07 67.85"/><polygon class="cls-5" points="19.9 81.54 19.9 83.48 40.96 71.32 40.96 69.38 19.9 81.54"/><path class="cls-6" d="M41.69,79,68.78,94.65,41.69,32.52Zm25,12.49L43.78,78.28V40.92Z"/><polygon class="cls-6" points="40.33 47.08 48.62 51.86 48.62 49.92 40.33 45.14 40.33 47.08"/><polygon class="cls-6" points="41.07 59.14 56.16 67.85 56.16 65.91 41.07 57.21 41.07 59.14"/><polygon class="cls-6" points="42.27 71.32 63.33 83.48 63.33 81.54 42.27 69.38 42.27 71.32"/><rect class="cls-6" x="51.52" y="70.33" width="1.94" height="20.83" transform="translate(-36.83 116.76) rotate(-78.94)"/><rect class="cls-6" x="54.21" y="66.02" width="1.94" height="32.17" transform="translate(-42.78 68.35) rotate(-48.1)"/><path class="cls-7" d="M41.54,110.28V32.52L14.45,94.64Zm-2.09-3.15L16.54,93.91,39.45,42.43Z"/><polygon class="cls-7" points="31.39 59.92 39.68 64.71 39.68 62.77 31.39 57.98 31.39 59.92"/><polygon class="cls-7" points="24.6 74.78 39.68 83.48 39.68 81.54 24.6 72.84 24.6 74.78"/><polygon class="cls-7" points="19.27 87.39 40.33 99.55 40.33 97.61 19.27 85.45 19.27 87.39"/><path class="cls-5" d="M41.69,110.28,68.78,94.64,41.69,32.52Zm2.09-67.85,22.9,51.48-22.9,13.22Z"/><polygon class="cls-5" points="43.55 64.71 51.84 59.92 51.84 57.98 43.55 62.77 43.55 64.71"/><polygon class="cls-5" points="43.55 83.48 58.63 74.78 58.63 72.84 43.55 81.54 43.55 83.48"/><polygon class="cls-5" points="42.9 99.55 63.96 87.39 63.96 85.45 42.9 97.61 42.9 99.55"/><rect class="cls-5" x="38.39" y="96.35" width="30.37" height="1.94" transform="translate(-53.3 67) rotate(-45.33)"/><rect class="cls-5" x="42.66" y="95.55" width="25.12" height="1.94" transform="translate(-17.54 12.43) rotate(-11.09)"/><rect class="cls-7" x="28.62" y="82.14" width="1.94" height="30.37" transform="translate(-59.9 48.96) rotate(-44.7)"/><rect class="cls-7" x="26.98" y="83.96" width="1.94" height="25.12" transform="translate(-72.15 105.33) rotate(-78.88)"/><path class="cls-8" d="M39.38,39.17l31.38-3.23,5.89-13.15C62,30,42.1,33.09,42.1,33.09Z"/><path class="cls-5" d="M27.85,16c-5.41,12.08-3.5,30.62,4.25,41.34S50.56,67,56,54.89s3.5-30.62-4.25-41.34S33.26,3.93,27.85,16ZM55.19,53.81C50.08,65.21,40,66.25,32.65,56.13s-9.13-27.65-4-39.05S43.85,4.63,51.17,14.76,60.3,42.4,55.19,53.81Z"/><polygon class="cls-9" points="41.1 36.1 41.57 36.76 55.77 11.67 50.25 10.78 41.1 36.1"/><polygon class="cls-9" points="41.6 35.58 41.26 36.33 57.72 63.7 57.59 54.3 41.6 35.58"/><polygon class="cls-9" points="27.3 60.88 32.83 61.77 41.98 36.45 41.5 35.79 27.3 60.88"/><polygon class="cls-9" points="25.48 18.25 41.48 36.97 41.81 36.23 25.36 8.86 25.48 18.25"/><polygon class="cls-9" points="36.38 6.02 41.22 37.15 41.8 37.09 40.2 0 36.38 6.02"/><polygon class="cls-9" points="41.32 36.14 41.42 37.13 63.1 38.74 59.1 31.47 41.32 36.14"/><polygon class="cls-9" points="41.35 36.42 42.95 73.52 46.77 67.5 41.92 36.36 41.35 36.42"/><polygon class="cls-9" points="20.05 34.77 24.04 42.04 41.83 37.38 41.73 36.38 20.05 34.77"/><path class="cls-5" d="M39,32.86a8.55,8.55,0,0,0,.79,7.72c1.45,2,3.44,1.8,4.45-.46a8.58,8.58,0,0,0-.79-7.72C42,30.4,40,30.61,39,32.86Z"/><path class="cls-7" d="M38.28,33.12a8.56,8.56,0,0,0,.79,7.71c1.45,2,3.45,1.8,4.46-.46a8.56,8.56,0,0,0-.8-7.71C41.29,30.65,39.29,30.86,38.28,33.12Z"/><polygon class="cls-10" points="43.89 122.19 95.2 151.82 177.14 104.52 125.82 74.89 43.89 122.19"/><polygon class="cls-10" points="43.89 122.19 46.34 123.62 46.34 121.35 43.89 119.94 43.89 122.19"/><polygon class="cls-2" points="43.89 119.94 95.2 149.56 177.14 102.26 125.82 72.63 43.89 119.94"/><polygon class="cls-3" points="95.2 151.82 177.14 104.52 177.14 102.26 95.2 149.56 95.2 151.82"/><path class="cls-4" d="M98.81,131.38s43.88-8.29,78.33-29.12l-39-22.58Z"/><polygon class="cls-11" points="138.63 76.75 146.27 81.16 146.27 80.23 138.63 75.81 138.63 76.75"/><polygon class="cls-12" points="146.27 81.16 146.51 81.02 146.51 80.09 146.27 80.23 146.27 81.16"/><polygon class="cls-13" points="138.63 75.81 146.27 80.23 146.51 80.09 138.87 75.67 138.63 75.81"/><polygon class="cls-11" points="138.63 79.52 146.27 83.93 146.27 83 138.63 78.59 138.63 79.52"/><polygon class="cls-12" points="146.27 83.93 146.51 83.8 146.51 82.86 146.27 83 146.27 83.93"/><polygon class="cls-13" points="138.63 78.59 146.27 83 146.51 82.86 138.87 78.45 138.63 78.59"/><polygon class="cls-11" points="138.63 74.64 138.63 80.55 139.57 81.09 139.57 75.18 139.1 73.82 138.63 74.64"/><polygon class="cls-13" points="139.1 73.82 139.57 75.18 139.81 75.04 139.34 73.68 139.1 73.82"/><polygon class="cls-12" points="139.57 81.09 139.81 80.95 139.81 75.04 139.57 75.18 139.57 81.09"/><polygon class="cls-11" points="140.24 75.57 140.24 81.48 141.18 82.02 141.18 76.11 140.71 74.75 140.24 75.57"/><polygon class="cls-13" points="140.71 74.75 141.18 76.11 141.43 75.97 140.95 74.61 140.71 74.75"/><polygon class="cls-12" points="141.18 82.02 141.43 81.89 141.43 75.97 141.18 76.11 141.18 82.02"/><polygon class="cls-11" points="141.85 76.5 141.85 82.41 142.8 82.95 142.8 77.04 142.32 75.68 141.85 76.5"/><polygon class="cls-13" points="142.32 75.68 142.8 77.04 143.04 76.9 142.56 75.55 142.32 75.68"/><polygon class="cls-12" points="142.8 82.95 143.04 82.82 143.04 76.9 142.8 77.04 142.8 82.95"/><polygon class="cls-11" points="143.46 77.43 143.46 83.34 144.41 83.89 144.41 77.97 143.93 76.61 143.46 77.43"/><polygon class="cls-13" points="143.93 76.61 144.41 77.97 144.65 77.83 144.18 76.48 143.93 76.61"/><polygon class="cls-12" points="144.41 83.89 144.65 83.75 144.65 77.83 144.41 77.97 144.41 83.89"/><polygon class="cls-11" points="145.07 78.36 145.07 84.27 146.02 84.82 146.02 78.9 145.55 77.55 145.07 78.36"/><polygon class="cls-13" points="145.55 77.55 146.02 78.9 146.26 78.77 145.79 77.41 145.55 77.55"/><polygon class="cls-12" points="146.02 84.82 146.26 84.68 146.26 78.77 146.02 78.9 146.02 84.82"/><polygon class="cls-11" points="145.07 80.45 152.72 84.86 152.72 83.93 145.07 79.52 145.07 80.45"/><polygon class="cls-12" points="152.72 84.86 152.96 84.72 152.96 83.79 152.72 83.93 152.72 84.86"/><polygon class="cls-13" points="145.07 79.52 152.72 83.93 152.96 83.79 145.31 79.38 145.07 79.52"/><polygon class="cls-11" points="145.07 83.23 152.72 87.64 152.72 86.71 145.07 82.29 145.07 83.23"/><polygon class="cls-12" points="152.72 87.64 152.96 87.5 152.96 86.57 152.72 86.71 152.72 87.64"/><polygon class="cls-13" points="145.07 82.29 152.72 86.71 152.96 86.57 145.31 82.16 145.07 82.29"/><polygon class="cls-11" points="145.07 78.34 145.07 84.25 146.02 84.8 146.02 78.89 145.55 77.53 145.07 78.34"/><polygon class="cls-13" points="145.55 77.53 146.02 78.89 146.26 78.75 145.79 77.39 145.55 77.53"/><polygon class="cls-12" points="146.02 84.8 146.26 84.66 146.26 78.75 146.02 78.89 146.02 84.8"/><polygon class="cls-11" points="146.69 79.27 146.69 85.18 147.63 85.73 147.63 79.82 147.16 78.46 146.69 79.27"/><polygon class="cls-13" points="147.16 78.46 147.63 79.82 147.87 79.68 147.4 78.32 147.16 78.46"/><polygon class="cls-12" points="147.63 85.73 147.87 85.59 147.87 79.68 147.63 79.82 147.63 85.73"/><polygon class="cls-11" points="148.3 80.2 148.3 86.11 149.24 86.66 149.24 80.75 148.77 79.39 148.3 80.2"/><polygon class="cls-13" points="148.77 79.39 149.24 80.75 149.48 80.61 149.01 79.25 148.77 79.39"/><polygon class="cls-12" points="149.24 86.66 149.48 86.52 149.48 80.61 149.24 80.75 149.24 86.66"/><polygon class="cls-11" points="149.91 81.13 149.91 87.04 150.85 87.59 150.85 81.68 150.38 80.32 149.91 81.13"/><polygon class="cls-13" points="150.38 80.32 150.85 81.68 151.1 81.54 150.62 80.18 150.38 80.32"/><polygon class="cls-12" points="150.85 87.59 151.1 87.45 151.1 81.54 150.85 81.68 150.85 87.59"/><polygon class="cls-11" points="151.52 82.06 151.52 87.97 152.47 88.52 152.47 82.61 151.99 81.25 151.52 82.06"/><polygon class="cls-13" points="151.99 81.25 152.47 82.61 152.71 82.47 152.24 81.11 151.99 81.25"/><polygon class="cls-12" points="152.47 88.52 152.71 88.38 152.71 82.47 152.47 82.61 152.47 88.52"/><polygon class="cls-11" points="151.52 84.16 159.16 88.57 159.16 87.64 151.52 83.22 151.52 84.16"/><polygon class="cls-12" points="159.16 88.57 159.4 88.43 159.4 87.5 159.16 87.64 159.16 88.57"/><polygon class="cls-13" points="151.52 83.22 159.16 87.64 159.4 87.5 151.76 83.08 151.52 83.22"/><polygon class="cls-11" points="151.52 86.93 159.16 91.34 159.16 90.41 151.52 86 151.52 86.93"/><polygon class="cls-12" points="159.16 91.34 159.4 91.2 159.4 90.27 159.16 90.41 159.16 91.34"/><polygon class="cls-13" points="151.52 86 159.16 90.41 159.4 90.27 151.76 85.86 151.52 86"/><polygon class="cls-11" points="151.52 82.05 151.52 87.96 152.47 88.5 152.47 82.59 151.99 81.23 151.52 82.05"/><polygon class="cls-13" points="151.99 81.23 152.47 82.59 152.71 82.45 152.24 81.09 151.99 81.23"/><polygon class="cls-12" points="152.47 88.5 152.71 88.36 152.71 82.45 152.47 82.59 152.47 88.5"/><polygon class="cls-11" points="153.13 82.97 153.13 88.89 154.08 89.43 154.08 83.52 153.6 82.16 153.13 82.97"/><polygon class="cls-13" points="153.6 82.16 154.08 83.52 154.32 83.38 153.85 82.02 153.6 82.16"/><polygon class="cls-12" points="154.08 89.43 154.32 89.29 154.32 83.38 154.08 83.52 154.08 89.43"/><polygon class="cls-11" points="154.74 83.91 154.74 89.82 155.69 90.36 155.69 84.45 155.22 83.09 154.74 83.91"/><polygon class="cls-13" points="155.22 83.09 155.69 84.45 155.93 84.31 155.46 82.95 155.22 83.09"/><polygon class="cls-12" points="155.69 90.36 155.93 90.22 155.93 84.31 155.69 84.45 155.69 90.36"/><polygon class="cls-11" points="156.36 84.84 156.36 90.75 157.3 91.3 157.3 85.38 156.83 84.02 156.36 84.84"/><polygon class="cls-13" points="156.83 84.02 157.3 85.38 157.54 85.24 157.07 83.89 156.83 84.02"/><polygon class="cls-12" points="157.3 91.3 157.54 91.16 157.54 85.24 157.3 85.38 157.3 91.3"/><polygon class="cls-11" points="157.97 85.77 157.97 91.68 158.91 92.22 158.91 86.31 158.44 84.95 157.97 85.77"/><polygon class="cls-13" points="158.44 84.95 158.91 86.31 159.16 86.17 158.68 84.82 158.44 84.95"/><polygon class="cls-12" points="158.91 92.22 159.16 92.09 159.16 86.17 158.91 86.31 158.91 92.22"/><polygon class="cls-11" points="156.36 86.95 164 91.36 164 90.43 156.36 86.02 156.36 86.95"/><polygon class="cls-12" points="164 91.36 164.24 91.22 164.24 90.29 164 90.43 164 91.36"/><polygon class="cls-13" points="156.36 86.02 164 90.43 164.24 90.29 156.6 85.88 156.36 86.02"/><polygon class="cls-11" points="156.36 89.72 164 94.14 164 93.2 156.36 88.79 156.36 89.72"/><polygon class="cls-12" points="164 94.14 164.24 94 164.24 93.06 164 93.2 164 94.14"/><polygon class="cls-13" points="156.36 88.79 164 93.2 164.24 93.06 156.6 88.65 156.36 88.79"/><polygon class="cls-11" points="156.36 84.84 156.36 90.75 157.3 91.3 157.3 85.38 156.83 84.02 156.36 84.84"/><polygon class="cls-13" points="156.83 84.02 157.3 85.38 157.54 85.24 157.07 83.89 156.83 84.02"/><polygon class="cls-12" points="157.3 91.3 157.54 91.16 157.54 85.24 157.3 85.38 157.3 91.3"/><polygon class="cls-11" points="157.97 85.77 157.97 91.68 158.92 92.22 158.92 86.31 158.44 84.95 157.97 85.77"/><polygon class="cls-13" points="158.44 84.95 158.92 86.31 159.16 86.17 158.68 84.82 158.44 84.95"/><polygon class="cls-12" points="158.92 92.22 159.16 92.09 159.16 86.17 158.92 86.31 158.92 92.22"/><polygon class="cls-11" points="159.58 86.7 159.58 92.61 160.53 93.16 160.53 87.24 160.06 85.89 159.58 86.7"/><polygon class="cls-13" points="160.06 85.89 160.53 87.24 160.77 87.11 160.3 85.75 160.06 85.89"/><polygon class="cls-12" points="160.53 93.16 160.77 93.02 160.77 87.11 160.53 87.24 160.53 93.16"/><polygon class="cls-11" points="161.19 87.63 161.19 93.54 162.14 94.09 162.14 88.17 161.67 86.82 161.19 87.63"/><polygon class="cls-13" points="161.67 86.82 162.14 88.17 162.38 88.04 161.91 86.68 161.67 86.82"/><polygon class="cls-12" points="162.14 94.09 162.38 93.95 162.38 88.04 162.14 88.17 162.14 94.09"/><polygon class="cls-11" points="162.81 88.56 162.81 94.47 163.75 95.02 163.75 89.11 163.28 87.75 162.81 88.56"/><polygon class="cls-13" points="163.28 87.75 163.75 89.11 163.99 88.97 163.52 87.61 163.28 87.75"/><polygon class="cls-12" points="163.75 95.02 163.99 94.88 163.99 88.97 163.75 89.11 163.75 95.02"/><polygon class="cls-11" points="162.81 90.65 170.45 95.06 170.45 94.13 162.81 89.72 162.81 90.65"/><polygon class="cls-12" points="170.45 95.06 170.69 94.93 170.69 93.99 170.45 94.13 170.45 95.06"/><polygon class="cls-13" points="162.81 89.72 170.45 94.13 170.69 93.99 163.05 89.58 162.81 89.72"/><polygon class="cls-11" points="162.81 93.43 170.45 97.84 170.45 96.91 162.81 92.5 162.81 93.43"/><polygon class="cls-12" points="170.45 97.84 170.69 97.7 170.69 96.77 170.45 96.91 170.45 97.84"/><polygon class="cls-13" points="162.81 92.5 170.45 96.91 170.69 96.77 163.05 92.36 162.81 92.5"/><polygon class="cls-11" points="162.81 88.54 162.81 94.45 163.75 95 163.75 89.09 163.28 87.73 162.81 88.54"/><polygon class="cls-13" points="163.28 87.73 163.75 89.09 163.99 88.95 163.52 87.59 163.28 87.73"/><polygon class="cls-12" points="163.75 95 163.99 94.86 163.99 88.95 163.75 89.09 163.75 95"/><polygon class="cls-11" points="164.42 89.47 164.42 95.38 165.36 95.93 165.36 90.02 164.89 88.66 164.42 89.47"/><polygon class="cls-13" points="164.89 88.66 165.36 90.02 165.6 89.88 165.13 88.52 164.89 88.66"/><polygon class="cls-12" points="165.36 95.93 165.6 95.79 165.6 89.88 165.36 90.02 165.36 95.93"/><polygon class="cls-11" points="166.03 90.4 166.03 96.31 166.97 96.86 166.97 90.95 166.5 89.59 166.03 90.4"/><polygon class="cls-13" points="166.5 89.59 166.97 90.95 167.22 90.81 166.74 89.45 166.5 89.59"/><polygon class="cls-12" points="166.97 96.86 167.22 96.72 167.22 90.81 166.97 90.95 166.97 96.86"/><polygon class="cls-11" points="167.64 91.33 167.64 97.25 168.59 97.79 168.59 91.88 168.11 90.52 167.64 91.33"/><polygon class="cls-13" points="168.11 90.52 168.59 91.88 168.83 91.74 168.35 90.38 168.11 90.52"/><polygon class="cls-12" points="168.59 97.79 168.83 97.65 168.83 91.74 168.59 91.88 168.59 97.79"/><polygon class="cls-11" points="169.25 92.26 169.25 98.17 170.2 98.72 170.2 92.81 169.72 91.45 169.25 92.26"/><polygon class="cls-13" points="169.72 91.45 170.2 92.81 170.44 92.67 169.97 91.31 169.72 91.45"/><polygon class="cls-12" points="170.2 98.72 170.44 98.58 170.44 92.67 170.2 92.81 170.2 98.72"/><polygon class="cls-11" points="169.25 94.36 176.89 98.77 176.89 97.84 169.25 93.42 169.25 94.36"/><polygon class="cls-12" points="176.89 98.77 177.14 98.63 177.14 97.7 176.89 97.84 176.89 98.77"/><polygon class="cls-13" points="169.25 93.42 176.89 97.84 177.14 97.7 169.49 93.29 169.25 93.42"/><polygon class="cls-11" points="169.25 97.13 176.89 101.54 176.89 100.61 169.25 96.2 169.25 97.13"/><polygon class="cls-12" points="176.89 101.54 177.14 101.41 177.14 100.47 176.89 100.61 176.89 101.54"/><polygon class="cls-13" points="169.25 96.2 176.89 100.61 177.14 100.47 169.49 96.06 169.25 96.2"/><polygon class="cls-11" points="169.25 92.25 169.25 98.16 170.2 98.7 170.2 92.79 169.72 91.43 169.25 92.25"/><polygon class="cls-13" points="169.72 91.43 170.2 92.79 170.44 92.65 169.97 91.3 169.72 91.43"/><polygon class="cls-12" points="170.2 98.7 170.44 98.56 170.44 92.65 170.2 92.79 170.2 98.7"/><polygon class="cls-11" points="170.86 93.18 170.86 99.09 171.81 99.64 171.81 93.72 171.34 92.36 170.86 93.18"/><polygon class="cls-13" points="171.34 92.36 171.81 93.72 172.05 93.58 171.58 92.22 171.34 92.36"/><polygon class="cls-12" points="171.81 99.64 172.05 99.5 172.05 93.58 171.81 93.72 171.81 99.64"/><polygon class="cls-11" points="172.47 94.11 172.48 100.02 173.42 100.56 173.42 94.65 172.95 93.3 172.47 94.11"/><polygon class="cls-13" points="172.95 93.3 173.42 94.65 173.66 94.52 173.19 93.16 172.95 93.3"/><polygon class="cls-12" points="173.42 100.56 173.66 100.43 173.66 94.52 173.42 94.65 173.42 100.56"/><polygon class="cls-11" points="174.09 95.04 174.09 100.95 175.03 101.5 175.03 95.58 174.56 94.22 174.09 95.04"/><polygon class="cls-13" points="174.56 94.22 175.03 95.58 175.28 95.44 174.8 94.09 174.56 94.22"/><polygon class="cls-12" points="175.03 101.5 175.28 101.36 175.28 95.44 175.03 95.58 175.03 101.5"/><polygon class="cls-11" points="175.7 95.97 175.7 101.88 176.65 102.43 176.65 96.52 176.17 95.16 175.7 95.97"/><polygon class="cls-13" points="176.17 95.16 176.65 96.52 176.89 96.38 176.41 95.02 176.17 95.16"/><polygon class="cls-12" points="176.65 102.43 176.89 102.29 176.89 96.38 176.65 96.52 176.65 102.43"/><polygon class="cls-12" points="64.96 104.28 72.61 99.87 72.61 98.94 64.96 103.35 64.96 104.28"/><polygon class="cls-11" points="64.72 104.15 64.96 104.28 64.96 103.35 64.72 103.21 64.72 104.15"/><polygon class="cls-13" points="64.72 103.21 64.96 103.35 72.61 98.94 72.36 98.8 64.72 103.21"/><polygon class="cls-12" points="64.96 107.06 72.61 102.65 72.61 101.72 64.96 106.13 64.96 107.06"/><polygon class="cls-11" points="64.72 106.92 64.96 107.06 64.96 106.13 64.72 105.99 64.72 106.92"/><polygon class="cls-13" points="64.72 105.99 64.96 106.13 72.61 101.72 72.36 101.58 64.72 105.99"/><polygon class="cls-12" points="71.66 98.31 71.66 104.22 72.61 103.67 72.61 97.76 72.13 96.95 71.66 98.31"/><polygon class="cls-13" points="71.42 98.17 71.66 98.31 72.13 96.95 71.89 96.81 71.42 98.17"/><polygon class="cls-11" points="71.42 104.08 71.66 104.22 71.66 98.31 71.42 98.17 71.42 104.08"/><polygon class="cls-12" points="70.05 99.24 70.05 105.15 70.99 104.6 70.99 98.69 70.52 97.88 70.05 99.24"/><polygon class="cls-13" points="69.81 99.1 70.05 99.24 70.52 97.88 70.28 97.74 69.81 99.1"/><polygon class="cls-11" points="69.81 105.01 70.05 105.15 70.05 99.24 69.81 99.1 69.81 105.01"/><polygon class="cls-12" points="68.43 100.17 68.43 106.08 69.38 105.53 69.38 99.62 68.91 98.81 68.43 100.17"/><polygon class="cls-13" points="68.19 100.03 68.43 100.17 68.91 98.81 68.67 98.67 68.19 100.03"/><polygon class="cls-11" points="68.19 105.94 68.43 106.08 68.43 100.17 68.19 100.03 68.19 105.94"/><polygon class="cls-12" points="66.82 101.1 66.82 107.01 67.77 106.46 67.77 100.55 67.3 99.74 66.82 101.1"/><polygon class="cls-13" points="66.58 100.96 66.82 101.1 67.3 99.74 67.06 99.6 66.58 100.96"/><polygon class="cls-11" points="66.58 106.87 66.82 107.01 66.82 101.1 66.58 100.96 66.58 106.87"/><polygon class="cls-12" points="65.21 102.03 65.21 107.94 66.16 107.39 66.16 101.48 65.68 100.67 65.21 102.03"/><polygon class="cls-13" points="64.97 101.89 65.21 102.03 65.68 100.67 65.44 100.53 64.97 101.89"/><polygon class="cls-11" points="64.97 107.8 65.21 107.94 65.21 102.03 64.97 101.89 64.97 107.8"/><polygon class="cls-12" points="58.52 107.99 66.16 103.58 66.16 102.64 58.52 107.06 58.52 107.99"/><polygon class="cls-11" points="58.27 107.85 58.52 107.99 58.52 107.06 58.27 106.92 58.27 107.85"/><polygon class="cls-13" points="58.27 106.92 58.52 107.06 66.16 102.64 65.92 102.51 58.27 106.92"/><polygon class="cls-12" points="58.52 110.76 66.16 106.35 66.16 105.42 58.52 109.83 58.52 110.76"/><polygon class="cls-11" points="58.27 110.63 58.52 110.76 58.52 109.83 58.27 109.69 58.27 110.63"/><polygon class="cls-13" points="58.27 109.69 58.52 109.83 66.16 105.42 65.92 105.28 58.27 109.69"/><polygon class="cls-12" points="65.21 102.01 65.21 107.92 66.16 107.38 66.16 101.47 65.68 100.65 65.21 102.01"/><polygon class="cls-13" points="64.97 101.87 65.21 102.01 65.68 100.65 65.44 100.51 64.97 101.87"/><polygon class="cls-11" points="64.97 107.78 65.21 107.92 65.21 102.01 64.97 101.87 64.97 107.78"/><polygon class="cls-12" points="63.6 102.94 63.6 108.85 64.55 108.31 64.55 102.4 64.07 101.58 63.6 102.94"/><polygon class="cls-13" points="63.36 102.8 63.6 102.94 64.07 101.58 63.83 101.44 63.36 102.8"/><polygon class="cls-11" points="63.36 108.72 63.6 108.85 63.6 102.94 63.36 102.8 63.36 108.72"/><polygon class="cls-12" points="61.99 103.87 61.99 109.78 62.93 109.24 62.93 103.33 62.46 102.52 61.99 103.87"/><polygon class="cls-13" points="61.75 103.73 61.99 103.87 62.46 102.52 62.22 102.38 61.75 103.73"/><polygon class="cls-11" points="61.75 109.65 61.99 109.78 61.99 103.87 61.75 103.73 61.75 109.65"/><polygon class="cls-12" points="60.38 104.8 60.38 110.72 61.32 110.17 61.32 104.26 60.85 103.44 60.38 104.8"/><polygon class="cls-13" points="60.13 104.67 60.38 104.8 60.85 103.44 60.61 103.31 60.13 104.67"/><polygon class="cls-11" points="60.13 110.58 60.38 110.72 60.38 104.8 60.13 104.67 60.13 110.58"/><polygon class="cls-12" points="58.76 105.73 58.76 111.65 59.71 111.1 59.71 105.19 59.24 104.38 58.76 105.73"/><polygon class="cls-13" points="58.52 105.59 58.76 105.73 59.24 104.38 59 104.24 58.52 105.59"/><polygon class="cls-11" points="58.52 111.51 58.76 111.65 58.76 105.73 58.52 105.59 58.52 111.51"/><polygon class="cls-12" points="52.07 111.74 59.71 107.33 59.71 106.4 52.07 110.81 52.07 111.74"/><polygon class="cls-11" points="51.83 111.6 52.07 111.74 52.07 110.81 51.83 110.67 51.83 111.6"/><polygon class="cls-13" points="51.83 110.67 52.07 110.81 59.71 106.4 59.47 106.26 51.83 110.67"/><polygon class="cls-12" points="52.07 114.52 59.71 110.1 59.71 109.17 52.07 113.58 52.07 114.52"/><polygon class="cls-11" points="51.83 114.38 52.07 114.52 52.07 113.58 51.83 113.44 51.83 114.38"/><polygon class="cls-13" points="51.83 113.44 52.07 113.58 59.71 109.17 59.47 109.03 51.83 113.44"/><polygon class="cls-12" points="58.77 105.76 58.77 111.67 59.71 111.13 59.71 105.22 59.24 104.41 58.77 105.76"/><polygon class="cls-13" points="58.52 105.63 58.77 105.76 59.24 104.41 59 104.27 58.52 105.63"/><polygon class="cls-11" points="58.52 111.54 58.77 111.67 58.77 105.76 58.52 105.63 58.52 111.54"/><polygon class="cls-12" points="57.15 106.69 57.15 112.61 58.1 112.06 58.1 106.15 57.63 105.34 57.15 106.69"/><polygon class="cls-13" points="56.91 106.56 57.15 106.69 57.63 105.34 57.38 105.2 56.91 106.56"/><polygon class="cls-11" points="56.91 112.47 57.15 112.61 57.15 106.69 56.91 106.56 56.91 112.47"/><polygon class="cls-12" points="55.54 107.63 55.54 113.54 56.49 112.99 56.49 107.08 56.01 106.27 55.54 107.63"/><polygon class="cls-13" points="55.3 107.49 55.54 107.63 56.01 106.27 55.77 106.13 55.3 107.49"/><polygon class="cls-11" points="55.3 113.4 55.54 113.54 55.54 107.63 55.3 107.49 55.3 113.4"/><polygon class="cls-12" points="53.93 108.56 53.93 114.47 54.88 113.92 54.88 108.01 54.4 107.2 53.93 108.56"/><polygon class="cls-13" points="53.69 108.42 53.93 108.56 54.4 107.2 54.16 107.06 53.69 108.42"/><polygon class="cls-11" points="53.69 114.33 53.93 114.47 53.93 108.56 53.69 108.42 53.69 114.33"/><polygon class="cls-12" points="52.32 109.49 52.32 115.4 53.26 114.85 53.26 108.94 52.79 108.13 52.32 109.49"/><polygon class="cls-13" points="52.08 109.35 52.32 109.49 52.79 108.13 52.55 107.99 52.08 109.35"/><polygon class="cls-11" points="52.08 115.26 52.32 115.4 52.32 109.49 52.08 109.35 52.08 115.26"/><polygon class="cls-12" points="56.92 108.99 64.56 104.58 64.56 103.64 56.92 108.06 56.92 108.99"/><polygon class="cls-11" points="56.68 108.85 56.92 108.99 56.92 108.06 56.68 107.92 56.68 108.85"/><polygon class="cls-13" points="56.68 107.92 56.92 108.06 64.56 103.64 64.32 103.51 56.68 107.92"/><polygon class="cls-12" points="56.92 111.76 64.56 107.35 64.56 106.42 56.92 110.83 56.92 111.76"/><polygon class="cls-11" points="56.68 111.63 56.92 111.76 56.92 110.83 56.68 110.69 56.68 111.63"/><polygon class="cls-13" points="56.68 110.69 56.92 110.83 64.56 106.42 64.32 106.28 56.68 110.69"/><polygon class="cls-12" points="63.61 103.01 63.61 108.92 64.56 108.38 64.56 102.47 64.09 101.65 63.61 103.01"/><polygon class="cls-13" points="63.37 102.87 63.61 103.01 64.09 101.65 63.85 101.52 63.37 102.87"/><polygon class="cls-11" points="63.37 108.78 63.61 108.92 63.61 103.01 63.37 102.87 63.37 108.78"/><polygon class="cls-12" points="62 103.94 62 109.86 62.95 109.31 62.95 103.4 62.47 102.58 62 103.94"/><polygon class="cls-13" points="61.76 103.8 62 103.94 62.47 102.58 62.23 102.44 61.76 103.8"/><polygon class="cls-11" points="61.76 109.72 62 109.86 62 103.94 61.76 103.8 61.76 109.72"/><polygon class="cls-12" points="60.39 104.87 60.39 110.78 61.34 110.24 61.34 104.33 60.86 103.52 60.39 104.87"/><polygon class="cls-13" points="60.15 104.73 60.39 104.87 60.86 103.52 60.62 103.38 60.15 104.73"/><polygon class="cls-11" points="60.15 110.65 60.39 110.78 60.39 104.87 60.15 104.73 60.15 110.65"/><polygon class="cls-12" points="58.78 105.8 58.78 111.72 59.72 111.17 59.72 105.26 59.25 104.44 58.78 105.8"/><polygon class="cls-13" points="58.54 105.67 58.78 105.8 59.25 104.44 59.01 104.31 58.54 105.67"/><polygon class="cls-11" points="58.54 111.58 58.78 111.72 58.78 105.8 58.54 105.67 58.54 111.58"/><polygon class="cls-12" points="57.17 106.73 57.17 112.65 58.11 112.1 58.11 106.19 57.64 105.38 57.17 106.73"/><polygon class="cls-13" points="56.92 106.6 57.17 106.73 57.64 105.38 57.4 105.24 56.92 106.6"/><polygon class="cls-11" points="56.92 112.51 57.17 112.65 57.17 106.73 56.92 106.6 56.92 112.51"/><polygon class="cls-12" points="50.47 112.69 58.11 108.28 58.11 107.35 50.47 111.76 50.47 112.69"/><polygon class="cls-11" points="50.23 112.56 50.47 112.69 50.47 111.76 50.23 111.62 50.23 112.56"/><polygon class="cls-13" points="50.23 111.62 50.47 111.76 58.11 107.35 57.87 107.21 50.23 111.62"/><polygon class="cls-12" points="50.47 115.47 58.11 111.06 58.11 110.13 50.47 114.54 50.47 115.47"/><polygon class="cls-11" points="50.23 115.33 50.47 115.47 50.47 114.54 50.23 114.4 50.23 115.33"/><polygon class="cls-13" points="50.23 114.4 50.47 114.54 58.11 110.13 57.87 109.99 50.23 114.4"/><polygon class="cls-12" points="57.17 106.72 57.17 112.63 58.11 112.08 58.11 106.17 57.64 105.36 57.17 106.72"/><polygon class="cls-13" points="56.92 106.58 57.17 106.72 57.64 105.36 57.4 105.22 56.92 106.58"/><polygon class="cls-11" points="56.92 112.49 57.17 112.63 57.17 106.72 56.92 106.58 56.92 112.49"/><polygon class="cls-12" points="55.55 107.65 55.55 113.56 56.5 113.01 56.5 107.1 56.03 106.29 55.55 107.65"/><polygon class="cls-13" points="55.31 107.51 55.55 107.65 56.03 106.29 55.79 106.15 55.31 107.51"/><polygon class="cls-11" points="55.31 113.42 55.55 113.56 55.55 107.65 55.31 107.51 55.31 113.42"/><polygon class="cls-12" points="53.94 108.58 53.94 114.49 54.89 113.94 54.89 108.03 54.42 107.22 53.94 108.58"/><polygon class="cls-13" points="53.7 108.44 53.94 108.58 54.42 107.22 54.17 107.08 53.7 108.44"/><polygon class="cls-11" points="53.7 114.35 53.94 114.49 53.94 108.58 53.7 108.44 53.7 114.35"/><polygon class="cls-12" points="52.33 109.51 52.33 115.42 53.28 114.87 53.28 108.96 52.8 108.15 52.33 109.51"/><polygon class="cls-13" points="52.09 109.37 52.33 109.51 52.8 108.15 52.56 108.01 52.09 109.37"/><polygon class="cls-11" points="52.09 115.28 52.33 115.42 52.33 109.51 52.09 109.37 52.09 115.28"/><polygon class="cls-12" points="50.72 110.44 50.72 116.35 51.66 115.81 51.66 109.89 51.19 109.08 50.72 110.44"/><polygon class="cls-13" points="50.48 110.3 50.72 110.44 51.19 109.08 50.95 108.94 50.48 110.3"/><polygon class="cls-11" points="50.48 116.21 50.72 116.35 50.72 110.44 50.48 110.3 50.48 116.21"/><polygon class="cls-12" points="44.02 116.45 51.66 112.03 51.66 111.1 44.02 115.51 44.02 116.45"/><polygon class="cls-11" points="43.78 116.31 44.02 116.45 44.02 115.51 43.78 115.38 43.78 116.31"/><polygon class="cls-13" points="43.78 115.38 44.02 115.51 51.66 111.1 51.42 110.96 43.78 115.38"/><polygon class="cls-12" points="44.02 119.22 51.66 114.81 51.66 113.88 44.02 118.29 44.02 119.22"/><polygon class="cls-11" points="43.78 119.08 44.02 119.22 44.02 118.29 43.78 118.15 43.78 119.08"/><polygon class="cls-13" points="43.78 118.15 44.02 118.29 51.66 113.88 51.42 113.74 43.78 118.15"/><polygon class="cls-12" points="50.72 110.47 50.72 116.38 51.66 115.83 51.66 109.92 51.19 109.11 50.72 110.47"/><polygon class="cls-13" points="50.48 110.33 50.72 110.47 51.19 109.11 50.95 108.97 50.48 110.33"/><polygon class="cls-11" points="50.48 116.24 50.72 116.38 50.72 110.47 50.48 110.33 50.48 116.24"/><polygon class="cls-12" points="49.11 111.4 49.11 117.31 50.05 116.77 50.05 110.85 49.58 110.04 49.11 111.4"/><polygon class="cls-13" points="48.87 111.26 49.11 111.4 49.58 110.04 49.34 109.9 48.87 111.26"/><polygon class="cls-11" points="48.87 117.17 49.11 117.31 49.11 111.4 48.87 111.26 48.87 117.17"/><polygon class="cls-12" points="47.49 112.33 47.49 118.24 48.44 117.69 48.44 111.78 47.97 110.97 47.49 112.33"/><polygon class="cls-13" points="47.25 112.19 47.49 112.33 47.97 110.97 47.73 110.83 47.25 112.19"/><polygon class="cls-11" points="47.25 118.1 47.49 118.24 47.49 112.33 47.25 112.19 47.25 118.1"/><polygon class="cls-12" points="45.88 113.26 45.88 119.17 46.83 118.63 46.83 112.71 46.36 111.9 45.88 113.26"/><polygon class="cls-13" points="45.64 113.12 45.88 113.26 46.36 111.9 46.12 111.76 45.64 113.12"/><polygon class="cls-11" points="45.64 119.03 45.88 119.17 45.88 113.26 45.64 113.12 45.64 119.03"/><polygon class="cls-12" points="44.27 114.19 44.27 120.1 45.22 119.56 45.22 113.64 44.74 112.83 44.27 114.19"/><polygon class="cls-13" points="44.03 114.05 44.27 114.19 44.74 112.83 44.5 112.69 44.03 114.05"/><polygon class="cls-11" points="44.03 119.96 44.27 120.1 44.27 114.19 44.03 114.05 44.03 119.96"/><polygon class="cls-12" points="169 103.04 176.65 98.62 176.65 97.69 169 102.1 169 103.04"/><polygon class="cls-11" points="168.76 102.9 169 103.04 169 102.1 168.76 101.97 168.76 102.9"/><polygon class="cls-13" points="168.76 101.97 169 102.1 176.65 97.69 176.41 97.55 168.76 101.97"/><polygon class="cls-12" points="169 105.81 176.65 101.4 176.65 100.47 169 104.88 169 105.81"/><polygon class="cls-11" points="168.76 105.67 169 105.81 169 104.88 168.76 104.74 168.76 105.67"/><polygon class="cls-13" points="168.76 104.74 169 104.88 176.65 100.47 176.41 100.33 168.76 104.74"/><polygon class="cls-12" points="175.7 97.06 175.7 102.97 176.65 102.42 176.65 96.51 176.17 95.7 175.7 97.06"/><polygon class="cls-13" points="175.46 96.92 175.7 97.06 176.17 95.7 175.93 95.56 175.46 96.92"/><polygon class="cls-11" points="175.46 102.83 175.7 102.97 175.7 97.06 175.46 96.92 175.46 102.83"/><polygon class="cls-12" points="174.09 97.99 174.09 103.9 175.03 103.36 175.03 97.44 174.56 96.63 174.09 97.99"/><polygon class="cls-13" points="173.85 97.85 174.09 97.99 174.56 96.63 174.32 96.49 173.85 97.85"/><polygon class="cls-11" points="173.85 103.76 174.09 103.9 174.09 97.99 173.85 97.85 173.85 103.76"/><polygon class="cls-12" points="172.48 98.92 172.48 104.83 173.42 104.28 173.42 98.37 172.95 97.56 172.48 98.92"/><polygon class="cls-13" points="172.24 98.78 172.48 98.92 172.95 97.56 172.71 97.42 172.24 98.78"/><polygon class="cls-11" points="172.24 104.69 172.48 104.83 172.48 98.92 172.24 98.78 172.24 104.69"/><polygon class="cls-12" points="170.87 99.85 170.87 105.76 171.81 105.22 171.81 99.3 171.34 98.49 170.87 99.85"/><polygon class="cls-13" points="170.62 99.71 170.87 99.85 171.34 98.49 171.1 98.35 170.62 99.71"/><polygon class="cls-11" points="170.62 105.62 170.87 105.76 170.87 99.85 170.62 99.71 170.62 105.62"/><polygon class="cls-12" points="169.25 100.78 169.25 106.69 170.2 106.15 170.2 100.23 169.73 99.42 169.25 100.78"/><polygon class="cls-13" points="169.01 100.64 169.25 100.78 169.73 99.42 169.49 99.28 169.01 100.64"/><polygon class="cls-11" points="169.01 106.55 169.25 106.69 169.25 100.78 169.01 100.64 169.01 106.55"/><polygon class="cls-12" points="162.56 106.74 170.2 102.33 170.2 101.4 162.56 105.81 162.56 106.74"/><polygon class="cls-11" points="162.32 106.6 162.56 106.74 162.56 105.81 162.32 105.67 162.32 106.6"/><polygon class="cls-13" points="162.32 105.67 162.56 105.81 170.2 101.4 169.96 101.26 162.32 105.67"/><polygon class="cls-12" points="162.56 109.52 170.2 105.1 170.2 104.17 162.56 108.58 162.56 109.52"/><polygon class="cls-11" points="162.32 109.38 162.56 109.52 162.56 108.58 162.32 108.44 162.32 109.38"/><polygon class="cls-13" points="162.32 108.44 162.56 108.58 170.2 104.17 169.96 104.03 162.32 108.44"/><polygon class="cls-12" points="169.25 100.76 169.25 106.67 170.2 106.13 170.2 100.22 169.73 99.41 169.25 100.76"/><polygon class="cls-13" points="169.01 100.62 169.25 100.76 169.73 99.41 169.49 99.27 169.01 100.62"/><polygon class="cls-11" points="169.01 106.54 169.25 106.67 169.25 100.76 169.01 100.62 169.01 106.54"/><polygon class="cls-12" points="167.64 101.69 167.64 107.61 168.59 107.06 168.59 101.15 168.11 100.33 167.64 101.69"/><polygon class="cls-13" points="167.4 101.56 167.64 101.69 168.11 100.33 167.87 100.2 167.4 101.56"/><polygon class="cls-11" points="167.4 107.47 167.64 107.61 167.64 101.69 167.4 101.56 167.4 107.47"/><polygon class="cls-12" points="166.03 102.63 166.03 108.54 166.97 107.99 166.97 102.08 166.5 101.27 166.03 102.63"/><polygon class="cls-13" points="165.79 102.48 166.03 102.63 166.5 101.27 166.26 101.13 165.79 102.48"/><polygon class="cls-11" points="165.79 108.4 166.03 108.54 166.03 102.63 165.79 102.48 165.79 108.4"/><polygon class="cls-12" points="164.42 103.56 164.42 109.47 165.36 108.92 165.36 103.01 164.89 102.2 164.42 103.56"/><polygon class="cls-13" points="164.18 103.42 164.42 103.56 164.89 102.2 164.65 102.06 164.18 103.42"/><polygon class="cls-11" points="164.18 109.33 164.42 109.47 164.42 103.56 164.18 103.42 164.18 109.33"/><polygon class="cls-12" points="162.81 104.48 162.81 110.4 163.75 109.85 163.75 103.94 163.28 103.13 162.81 104.48"/><polygon class="cls-13" points="162.56 104.35 162.81 104.48 163.28 103.13 163.04 102.99 162.56 104.35"/><polygon class="cls-11" points="162.56 110.26 162.81 110.4 162.81 104.48 162.56 104.35 162.56 110.26"/><polygon class="cls-12" points="156.11 110.49 163.75 106.08 163.75 105.15 156.11 109.56 156.11 110.49"/><polygon class="cls-11" points="155.87 110.35 156.11 110.49 156.11 109.56 155.87 109.42 155.87 110.35"/><polygon class="cls-13" points="155.87 109.42 156.11 109.56 163.75 105.15 163.51 105.01 155.87 109.42"/><polygon class="cls-12" points="156.11 113.27 163.75 108.86 163.75 107.92 156.11 112.33 156.11 113.27"/><polygon class="cls-11" points="155.87 113.13 156.11 113.27 156.11 112.33 155.87 112.19 155.87 113.13"/><polygon class="cls-13" points="155.87 112.19 156.11 112.33 163.75 107.92 163.51 107.78 155.87 112.19"/><polygon class="cls-12" points="162.81 104.52 162.81 110.43 163.75 109.88 163.75 103.97 163.28 103.16 162.81 104.52"/><polygon class="cls-13" points="162.56 104.38 162.81 104.52 163.28 103.16 163.04 103.02 162.56 104.38"/><polygon class="cls-11" points="162.56 110.29 162.81 110.43 162.81 104.52 162.56 104.38 162.56 110.29"/><polygon class="cls-12" points="161.19 105.44 161.19 111.36 162.14 110.81 162.14 104.9 161.67 104.09 161.19 105.44"/><polygon class="cls-13" points="160.95 105.31 161.19 105.44 161.67 104.09 161.43 103.95 160.95 105.31"/><polygon class="cls-11" points="160.95 111.22 161.19 111.36 161.19 105.44 160.95 105.31 160.95 111.22"/><polygon class="cls-12" points="159.58 106.38 159.58 112.29 160.53 111.74 160.53 105.83 160.06 105.02 159.58 106.38"/><polygon class="cls-13" points="159.34 106.24 159.58 106.38 160.06 105.02 159.81 104.88 159.34 106.24"/><polygon class="cls-11" points="159.34 112.15 159.58 112.29 159.58 106.38 159.34 106.24 159.34 112.15"/><polygon class="cls-12" points="157.97 107.31 157.97 113.22 158.92 112.67 158.92 106.76 158.44 105.95 157.97 107.31"/><polygon class="cls-13" points="157.73 107.17 157.97 107.31 158.44 105.95 158.2 105.81 157.73 107.17"/><polygon class="cls-11" points="157.73 113.08 157.97 113.22 157.97 107.31 157.73 107.17 157.73 113.08"/><polygon class="cls-12" points="156.36 108.24 156.36 114.15 157.31 113.6 157.31 107.69 156.83 106.88 156.36 108.24"/><polygon class="cls-13" points="156.12 108.1 156.36 108.24 156.83 106.88 156.59 106.74 156.12 108.1"/><polygon class="cls-11" points="156.12 114.01 156.36 114.15 156.36 108.24 156.12 108.1 156.12 114.01"/><polygon class="cls-12" points="149.66 114.21 157.31 109.8 157.31 108.86 149.66 113.28 149.66 114.21"/><polygon class="cls-11" points="149.42 114.07 149.66 114.21 149.66 113.28 149.42 113.14 149.42 114.07"/><polygon class="cls-13" points="149.42 113.14 149.66 113.28 157.31 108.86 157.06 108.73 149.42 113.14"/><polygon class="cls-12" points="149.66 116.98 157.31 112.57 157.31 111.64 149.66 116.05 149.66 116.98"/><polygon class="cls-11" points="149.42 116.84 149.66 116.98 149.66 116.05 149.42 115.91 149.42 116.84"/><polygon class="cls-13" points="149.42 115.91 149.66 116.05 157.31 111.64 157.06 111.5 149.42 115.91"/><polygon class="cls-12" points="156.36 108.23 156.36 114.14 157.31 113.6 157.31 107.69 156.83 106.87 156.36 108.23"/><polygon class="cls-13" points="156.12 108.09 156.36 108.23 156.83 106.87 156.59 106.73 156.12 108.09"/><polygon class="cls-11" points="156.12 114 156.36 114.14 156.36 108.23 156.12 108.09 156.12 114"/><polygon class="cls-12" points="154.75 109.16 154.75 115.08 155.69 114.53 155.69 108.62 155.22 107.8 154.75 109.16"/><polygon class="cls-13" points="154.51 109.02 154.75 109.16 155.22 107.8 154.98 107.67 154.51 109.02"/><polygon class="cls-11" points="154.51 114.94 154.75 115.08 154.75 109.16 154.51 109.02 154.51 114.94"/><polygon class="cls-12" points="153.13 110.09 153.13 116 154.08 115.46 154.08 109.55 153.61 108.73 153.13 110.09"/><polygon class="cls-13" points="152.89 109.95 153.13 110.09 153.61 108.73 153.37 108.6 152.89 109.95"/><polygon class="cls-11" points="152.89 115.87 153.13 116 153.13 110.09 152.89 109.95 152.89 115.87"/><polygon class="cls-12" points="151.52 111.02 151.52 116.94 152.47 116.39 152.47 110.48 152 109.67 151.52 111.02"/><polygon class="cls-13" points="151.28 110.89 151.52 111.02 152 109.67 151.76 109.53 151.28 110.89"/><polygon class="cls-11" points="151.28 116.8 151.52 116.94 151.52 111.02 151.28 110.89 151.28 116.8"/><polygon class="cls-12" points="149.91 111.95 149.91 117.87 150.86 117.32 150.86 111.41 150.38 110.6 149.91 111.95"/><polygon class="cls-13" points="149.67 111.82 149.91 111.95 150.38 110.6 150.14 110.46 149.67 111.82"/><polygon class="cls-11" points="149.67 117.73 149.91 117.87 149.91 111.95 149.67 111.82 149.67 117.73"/><polygon class="cls-12" points="143.22 117.92 150.86 113.5 150.86 112.57 143.22 116.98 143.22 117.92"/><polygon class="cls-11" points="142.97 117.78 143.22 117.92 143.22 116.98 142.97 116.84 142.97 117.78"/><polygon class="cls-13" points="142.97 116.84 143.22 116.98 150.86 112.57 150.62 112.43 142.97 116.84"/><polygon class="cls-12" points="143.22 120.69 150.86 116.28 150.86 115.34 143.22 119.76 143.22 120.69"/><polygon class="cls-11" points="142.97 120.55 143.22 120.69 143.22 119.76 142.97 119.62 142.97 120.55"/><polygon class="cls-13" points="142.97 119.62 143.22 119.76 150.86 115.34 150.62 115.21 142.97 119.62"/><polygon class="cls-12" points="149.91 111.94 149.91 117.85 150.86 117.3 150.86 111.39 150.38 110.58 149.91 111.94"/><polygon class="cls-13" points="149.67 111.8 149.91 111.94 150.38 110.58 150.14 110.44 149.67 111.8"/><polygon class="cls-11" points="149.67 117.71 149.91 117.85 149.91 111.94 149.67 111.8 149.67 117.71"/><polygon class="cls-12" points="148.3 112.87 148.3 118.78 149.25 118.23 149.25 112.32 148.77 111.51 148.3 112.87"/><polygon class="cls-13" points="148.06 112.73 148.3 112.87 148.77 111.51 148.53 111.37 148.06 112.73"/><polygon class="cls-11" points="148.06 118.64 148.3 118.78 148.3 112.87 148.06 112.73 148.06 118.64"/><polygon class="cls-12" points="146.69 113.8 146.69 119.71 147.63 119.16 147.63 113.25 147.16 112.44 146.69 113.8"/><polygon class="cls-13" points="146.45 113.66 146.69 113.8 147.16 112.44 146.92 112.3 146.45 113.66"/><polygon class="cls-11" points="146.45 119.57 146.69 119.71 146.69 113.8 146.45 113.66 146.45 119.57"/><polygon class="cls-12" points="145.08 114.73 145.08 120.64 146.02 120.09 146.02 114.18 145.55 113.37 145.08 114.73"/><polygon class="cls-13" points="144.84 114.59 145.08 114.73 145.55 113.37 145.31 113.23 144.84 114.59"/><polygon class="cls-11" points="144.84 120.5 145.08 120.64 145.08 114.73 144.84 114.59 144.84 120.5"/><polygon class="cls-12" points="143.46 115.66 143.46 121.57 144.41 121.03 144.41 115.11 143.94 114.3 143.46 115.66"/><polygon class="cls-13" points="143.22 115.52 143.46 115.66 143.94 114.3 143.7 114.16 143.22 115.52"/><polygon class="cls-11" points="143.22 121.43 143.46 121.57 143.46 115.66 143.22 115.52 143.22 121.43"/><polygon class="cls-12" points="136.77 121.67 144.41 117.25 144.41 116.32 136.77 120.73 136.77 121.67"/><polygon class="cls-11" points="136.53 121.53 136.77 121.67 136.77 120.73 136.53 120.59 136.53 121.53"/><polygon class="cls-13" points="136.53 120.59 136.77 120.73 144.41 116.32 144.17 116.18 136.53 120.59"/><polygon class="cls-12" points="136.77 124.44 144.41 120.03 144.41 119.1 136.77 123.51 136.77 124.44"/><polygon class="cls-11" points="136.53 124.3 136.77 124.44 136.77 123.51 136.53 123.37 136.53 124.3"/><polygon class="cls-13" points="136.53 123.37 136.77 123.51 144.41 119.1 144.17 118.96 136.53 123.37"/><polygon class="cls-12" points="143.46 115.69 143.46 121.6 144.41 121.05 144.41 115.14 143.94 114.33 143.46 115.69"/><polygon class="cls-13" points="143.22 115.55 143.46 115.69 143.94 114.33 143.7 114.19 143.22 115.55"/><polygon class="cls-11" points="143.22 121.46 143.46 121.6 143.46 115.69 143.22 115.55 143.22 121.46"/><polygon class="cls-12" points="141.85 116.62 141.85 122.53 142.8 121.98 142.8 116.07 142.32 115.26 141.85 116.62"/><polygon class="cls-13" points="141.61 116.48 141.85 116.62 142.32 115.26 142.09 115.12 141.61 116.48"/><polygon class="cls-11" points="141.61 122.39 141.85 122.53 141.85 116.62 141.61 116.48 141.61 122.39"/><polygon class="cls-12" points="140.24 117.55 140.24 123.46 141.19 122.92 141.19 117 140.71 116.19 140.24 117.55"/><polygon class="cls-13" points="140 117.41 140.24 117.55 140.71 116.19 140.47 116.05 140 117.41"/><polygon class="cls-11" points="140 123.32 140.24 123.46 140.24 117.55 140 117.41 140 123.32"/><polygon class="cls-12" points="138.63 118.48 138.63 124.39 139.57 123.85 139.57 117.93 139.1 117.12 138.63 118.48"/><polygon class="cls-13" points="138.39 118.34 138.63 118.48 139.1 117.12 138.86 116.98 138.39 118.34"/><polygon class="cls-11" points="138.39 124.25 138.63 124.39 138.63 118.48 138.39 118.34 138.39 124.25"/><polygon class="cls-12" points="137.02 119.41 137.02 125.32 137.96 124.78 137.96 118.86 137.49 118.05 137.02 119.41"/><polygon class="cls-13" points="136.78 119.27 137.02 119.41 137.49 118.05 137.25 117.91 136.78 119.27"/><polygon class="cls-11" points="136.78 125.18 137.02 125.32 137.02 119.41 136.78 119.27 136.78 125.18"/><polygon class="cls-11" points="44.26 116.34 51.9 120.75 51.9 119.82 44.26 115.41 44.26 116.34"/><polygon class="cls-12" points="51.9 120.75 52.14 120.61 52.14 119.68 51.9 119.82 51.9 120.75"/><polygon class="cls-13" points="44.26 115.41 51.9 119.82 52.14 119.68 44.5 115.27 44.26 115.41"/><polygon class="cls-11" points="44.26 119.11 51.9 123.53 51.9 122.59 44.26 118.18 44.26 119.11"/><polygon class="cls-12" points="51.9 123.53 52.14 123.39 52.14 122.46 51.9 122.59 51.9 123.53"/><polygon class="cls-13" points="44.26 118.18 51.9 122.59 52.14 122.46 44.5 118.04 44.26 118.18"/><polygon class="cls-11" points="44.26 114.23 44.26 120.14 45.2 120.69 45.2 114.78 44.73 113.42 44.26 114.23"/><polygon class="cls-13" points="44.73 113.42 45.2 114.78 45.44 114.64 44.97 113.28 44.73 113.42"/><polygon class="cls-12" points="45.2 120.69 45.44 120.55 45.44 114.64 45.2 114.78 45.2 120.69"/><polygon class="cls-11" points="45.87 115.16 45.87 121.07 46.81 121.62 46.81 115.71 46.34 114.35 45.87 115.16"/><polygon class="cls-13" points="46.34 114.35 46.81 115.71 47.05 115.57 46.58 114.21 46.34 114.35"/><polygon class="cls-12" points="46.81 121.62 47.05 121.48 47.05 115.57 46.81 115.71 46.81 121.62"/><polygon class="cls-11" points="47.48 116.09 47.48 122 48.43 122.55 48.43 116.64 47.95 115.28 47.48 116.09"/><polygon class="cls-13" points="47.95 115.28 48.43 116.64 48.67 116.5 48.19 115.14 47.95 115.28"/><polygon class="cls-12" points="48.43 122.55 48.67 122.41 48.67 116.5 48.43 116.64 48.43 122.55"/><polygon class="cls-11" points="49.09 117.02 49.09 122.93 50.04 123.48 50.04 117.57 49.56 116.21 49.09 117.02"/><polygon class="cls-13" points="49.56 116.21 50.04 117.57 50.28 117.43 49.8 116.07 49.56 116.21"/><polygon class="cls-12" points="50.04 123.48 50.28 123.34 50.28 117.43 50.04 117.57 50.04 123.48"/><polygon class="cls-11" points="50.7 117.95 50.7 123.86 51.65 124.41 51.65 118.5 51.18 117.14 50.7 117.95"/><polygon class="cls-13" points="51.18 117.14 51.65 118.5 51.89 118.36 51.42 117 51.18 117.14"/><polygon class="cls-12" points="51.65 124.41 51.89 124.27 51.89 118.36 51.65 118.5 51.65 124.41"/><polygon class="cls-11" points="50.7 120.05 58.34 124.46 58.34 123.53 50.7 119.11 50.7 120.05"/><polygon class="cls-12" points="58.34 124.46 58.59 124.32 58.59 123.39 58.34 123.53 58.34 124.46"/><polygon class="cls-13" points="50.7 119.11 58.34 123.53 58.59 123.39 50.94 118.97 50.7 119.11"/><polygon class="cls-11" points="50.7 122.82 58.34 127.23 58.34 126.3 50.7 121.89 50.7 122.82"/><polygon class="cls-12" points="58.34 127.23 58.59 127.09 58.59 126.16 58.34 126.3 58.34 127.23"/><polygon class="cls-13" points="50.7 121.89 58.34 126.3 58.59 126.16 50.94 121.75 50.7 121.89"/><polygon class="cls-11" points="50.7 117.93 50.7 123.84 51.65 124.39 51.65 118.48 51.18 117.12 50.7 117.93"/><polygon class="cls-13" points="51.18 117.12 51.65 118.48 51.89 118.34 51.42 116.98 51.18 117.12"/><polygon class="cls-12" points="51.65 124.39 51.89 124.25 51.89 118.34 51.65 118.48 51.65 124.39"/><polygon class="cls-11" points="52.31 118.86 52.31 124.78 53.26 125.32 53.26 119.41 52.79 118.05 52.31 118.86"/><polygon class="cls-13" points="52.79 118.05 53.26 119.41 53.5 119.27 53.03 117.91 52.79 118.05"/><polygon class="cls-12" points="53.26 125.32 53.5 125.18 53.5 119.27 53.26 119.41 53.26 125.32"/><polygon class="cls-11" points="53.93 119.8 53.93 125.71 54.87 126.25 54.87 120.34 54.4 118.98 53.93 119.8"/><polygon class="cls-13" points="54.4 118.98 54.87 120.34 55.11 120.2 54.64 118.84 54.4 118.98"/><polygon class="cls-12" points="54.87 126.25 55.11 126.11 55.11 120.2 54.87 120.34 54.87 126.25"/><polygon class="cls-11" points="55.54 120.72 55.54 126.64 56.48 127.18 56.48 121.27 56.01 119.91 55.54 120.72"/><polygon class="cls-13" points="56.01 119.91 56.48 121.27 56.73 121.13 56.25 119.77 56.01 119.91"/><polygon class="cls-12" points="56.48 127.18 56.73 127.05 56.73 121.13 56.48 121.27 56.48 127.18"/><polygon class="cls-11" points="57.15 121.66 57.15 127.57 58.1 128.11 58.1 122.2 57.62 120.84 57.15 121.66"/><polygon class="cls-13" points="57.62 120.84 58.1 122.2 58.34 122.06 57.86 120.7 57.62 120.84"/><polygon class="cls-12" points="58.1 128.11 58.34 127.97 58.34 122.06 58.1 122.2 58.1 128.11"/><polygon class="cls-11" points="57.15 123.75 64.79 128.16 64.79 127.23 57.15 122.82 57.15 123.75"/><polygon class="cls-12" points="64.79 128.16 65.03 128.02 65.03 127.09 64.79 127.23 64.79 128.16"/><polygon class="cls-13" points="57.15 122.82 64.79 127.23 65.03 127.09 57.39 122.68 57.15 122.82"/><polygon class="cls-11" points="57.15 126.53 64.79 130.94 64.79 130 57.15 125.59 57.15 126.53"/><polygon class="cls-12" points="64.79 130.94 65.03 130.8 65.03 129.87 64.79 130 64.79 130.94"/><polygon class="cls-13" points="57.15 125.59 64.79 130 65.03 129.87 57.39 125.45 57.15 125.59"/><polygon class="cls-11" points="57.15 121.64 57.15 127.55 58.1 128.1 58.1 122.19 57.62 120.83 57.15 121.64"/><polygon class="cls-13" points="57.62 120.83 58.1 122.19 58.34 122.05 57.86 120.69 57.62 120.83"/><polygon class="cls-12" points="58.1 128.1 58.34 127.96 58.34 122.05 58.1 122.19 58.1 128.1"/><polygon class="cls-11" points="58.76 122.57 58.76 128.48 59.71 129.03 59.71 123.11 59.23 121.76 58.76 122.57"/><polygon class="cls-13" points="59.23 121.76 59.71 123.11 59.95 122.98 59.48 121.62 59.23 121.76"/><polygon class="cls-12" points="59.71 129.03 59.95 128.89 59.95 122.98 59.71 123.11 59.71 129.03"/><polygon class="cls-11" points="60.37 123.5 60.37 129.41 61.32 129.96 61.32 124.05 60.85 122.69 60.37 123.5"/><polygon class="cls-13" points="60.85 122.69 61.32 124.05 61.56 123.91 61.09 122.55 60.85 122.69"/><polygon class="cls-12" points="61.32 129.96 61.56 129.82 61.56 123.91 61.32 124.05 61.32 129.96"/><polygon class="cls-11" points="61.98 124.43 61.98 130.34 62.93 130.89 62.93 124.98 62.46 123.62 61.98 124.43"/><polygon class="cls-13" points="62.46 123.62 62.93 124.98 63.17 124.84 62.7 123.48 62.46 123.62"/><polygon class="cls-12" points="62.93 130.89 63.17 130.75 63.17 124.84 62.93 124.98 62.93 130.89"/><polygon class="cls-11" points="63.6 125.36 63.6 131.27 64.54 131.82 64.54 125.91 64.07 124.55 63.6 125.36"/><polygon class="cls-13" points="64.07 124.55 64.54 125.91 64.78 125.77 64.31 124.41 64.07 124.55"/><polygon class="cls-12" points="64.54 131.82 64.78 131.68 64.78 125.77 64.54 125.91 64.54 131.82"/><polygon class="cls-14" points="132.45 53.42 132.51 53.49 132.57 53.49 132.45 53.42"/><polygon class="cls-14" points="118.13 54.82 118.13 85.11 132.57 93.44 132.45 93.38 146.89 101.71 146.89 71.42 132.51 53.49 118.13 54.82"/><polygon class="cls-15" points="97.25 100.06 97.25 130.55 146.87 101.91 146.87 71.41 97.25 100.06"/><polygon class="cls-16" points="68.49 83.66 68.49 113.95 82.93 122.28 82.81 122.22 97.25 130.55 97.25 100.26 82.88 82.33 68.49 83.66"/><polygon class="cls-16" points="82.81 82.26 82.88 82.33 82.93 82.33 82.81 82.26"/><polygon class="cls-17" points="79.51 83.71 95.64 103.92 151.56 71.41 135.44 51.21 79.51 83.71"/><polygon class="cls-14" points="64.56 83.53 79.51 83.71 135.44 51.21 123.16 51.21 64.56 83.53"/><polygon class="cls-7" points="95.64 127.42 70.13 112.65 70.13 83.59 68.49 83.57 68.49 113.95 97.25 130.55 97.25 102.98 95.64 103.92 95.64 127.42"/><polygon class="cls-5" points="145.1 75.24 145.1 100.98 98.63 127.48 98.63 102.34 98.65 102.17 97.25 102.98 97.25 130.55 146.87 101.91 146.87 74.13 145.1 75.24"/><path class="cls-18" d="M77.89,116l4.51,2.6V111l-4.51-2.6Zm.59-6.59,3.33,1.92v6.26l-3.33-1.93Z"/><path class="cls-18" d="M73,113.15l4.51,2.6v-7.61L73,105.54Zm.59-6.6,3.33,1.93v6.25l-3.33-1.92Z"/><polygon class="cls-18" points="77.94 115.48 78.43 116.14 82.35 111.47 81.86 110.82 77.94 115.48"/><polygon class="cls-18" points="77.94 108.92 81.86 118.12 82.35 118.03 78.43 108.84 77.94 108.92"/><polygon class="cls-18" points="73.03 106.09 76.95 115.28 77.44 115.2 73.52 106 73.03 106.09"/><polygon class="cls-18" points="73.03 112.65 73.52 113.3 77.44 108.64 76.95 107.98 73.03 112.65"/><path class="cls-18" d="M87.78,121.72l4.51,2.6v-7.61l-4.51-2.6Zm.59-6.6,3.33,1.93v6.25l-3.33-1.92Z"/><path class="cls-18" d="M82.87,118.88l4.51,2.6v-7.6l-4.51-2.6Zm.59-6.59,3.33,1.92v6.26l-3.33-1.93Z"/><polygon class="cls-18" points="87.83 121.22 88.32 121.87 92.24 117.21 91.75 116.55 87.83 121.22"/><polygon class="cls-18" points="87.83 114.66 91.75 123.85 92.24 123.77 88.32 114.57 87.83 114.66"/><polygon class="cls-18" points="82.92 111.83 86.84 121.02 87.33 120.93 83.41 111.74 82.92 111.83"/><polygon class="cls-18" points="82.92 118.39 83.41 119.04 87.33 114.37 86.84 113.72 82.92 118.39"/><path class="cls-7" d="M77.44,115.72l4.5,2.6v-7.6l-4.5-2.6Zm.58-6.59,3.34,1.93v6.25L78,115.38Z"/><path class="cls-7" d="M72.53,112.89l4.5,2.6v-7.61l-4.5-2.6Zm.58-6.59,3.34,1.92v6.26l-3.34-1.93Z"/><polygon class="cls-7" points="77.48 115.23 77.97 115.88 81.9 111.21 81.41 110.56 77.48 115.23"/><polygon class="cls-7" points="77.48 108.67 81.41 117.86 81.9 117.77 77.97 108.58 77.48 108.67"/><polygon class="cls-7" points="72.58 105.83 76.5 115.03 76.98 114.94 73.06 105.75 72.58 105.83"/><polygon class="cls-7" points="72.58 112.39 73.06 113.05 76.98 108.38 76.5 107.73 72.58 112.39"/><path class="cls-7" d="M87.33,121.46l4.51,2.6v-7.61l-4.51-2.6Zm.58-6.59,3.34,1.92v6.26l-3.34-1.93Z"/><path class="cls-7" d="M82.42,118.62l4.51,2.6v-7.6L82.42,111ZM83,112,86.34,114v6.25L83,118.29Z"/><polygon class="cls-7" points="87.38 120.96 87.87 121.61 91.79 116.95 91.3 116.3 87.38 120.96"/><polygon class="cls-7" points="87.38 114.4 91.3 123.59 91.79 123.51 87.87 114.32 87.38 114.4"/><polygon class="cls-7" points="82.47 111.57 86.39 120.76 86.88 120.67 82.96 111.48 82.47 111.57"/><polygon class="cls-7" points="82.47 118.13 82.96 118.78 86.88 114.11 86.39 113.46 82.47 118.13"/><polygon class="cls-19" points="79.53 100.81 84.18 103.5 85.05 103 80.4 100.31 79.53 100.81"/><polygon class="cls-19" points="79.53 100.81 84.18 103.5 85.05 103 80.4 100.31 79.53 100.81"/><polygon class="cls-5" points="79.53 92.95 79.53 100.81 80.4 100.31 80.4 92.45 79.53 92.95"/><polygon class="cls-5" points="79.53 92.95 79.53 100.81 80.4 100.31 80.4 92.45 79.53 92.95"/><path class="cls-7" d="M78.74,101.27l6.24,3.6V95.16l-6.24-3.6Zm.79-8.34,4.65,2.69v7.88l-4.65-2.69Z"/><path class="cls-7" d="M78.74,101.27l6.24,3.6V95.16l-6.24-3.6Zm.79-8.34,4.65,2.69v7.88l-4.65-2.69Z"/><polygon class="cls-18" points="80.4 100.31 84.18 102.5 84.18 95.62 80.4 93.44 80.4 100.31"/><polygon class="cls-20" points="105.86 111.69 106.72 112.19 111.38 109.51 110.51 109.01 105.86 111.69"/><polygon class="cls-20" points="105.86 111.69 106.72 112.19 111.38 109.51 110.51 109.01 105.86 111.69"/><polygon class="cls-7" points="110.51 109 111.38 109.51 111.38 101.64 110.51 101.14 110.51 109"/><polygon class="cls-7" points="110.51 109 111.38 109.51 111.38 101.64 110.51 101.14 110.51 109"/><path class="cls-5" d="M105.93,103.85v9.72l6.24-3.6v-9.72Zm.79,8.34v-7.88l4.65-2.68v7.88Z"/><path class="cls-5" d="M105.93,103.85v9.72l6.24-3.6v-9.72Zm.79,8.34v-7.88l4.65-2.68v7.88Z"/><polygon class="cls-21" points="106.72 111.19 110.51 109 110.51 102.13 106.72 104.31 106.72 111.19"/><polygon class="cls-20" points="118.99 103.99 119.86 104.5 124.51 101.81 123.64 101.31 118.99 103.99"/><polygon class="cls-20" points="118.99 103.99 119.86 104.5 124.51 101.81 123.64 101.31 118.99 103.99"/><polygon class="cls-7" points="123.64 101.31 124.51 101.81 124.51 93.95 123.64 93.44 123.64 101.31"/><polygon class="cls-7" points="123.64 101.31 124.51 101.81 124.51 93.95 123.64 93.44 123.64 101.31"/><path class="cls-5" d="M119.06,96.16v9.71l6.24-3.6V92.56Zm.8,8.34V96.62l4.65-2.69v7.88Z"/><path class="cls-5" d="M119.06,96.16v9.71l6.24-3.6V92.56Zm.8,8.34V96.62l4.65-2.69v7.88Z"/><polygon class="cls-21" points="119.86 103.49 123.64 101.31 123.64 94.43 119.86 96.62 119.86 103.49"/><polygon class="cls-20" points="132.36 96.31 133.23 96.81 137.88 94.13 137.01 93.63 132.36 96.31"/><polygon class="cls-20" points="132.36 96.31 133.23 96.81 137.88 94.13 137.01 93.63 132.36 96.31"/><polygon class="cls-7" points="137.01 93.63 137.88 94.13 137.88 86.26 137.01 85.76 137.01 93.63"/><polygon class="cls-7" points="137.01 93.63 137.88 94.13 137.88 86.26 137.01 85.76 137.01 93.63"/><path class="cls-5" d="M132.43,88.47v9.72l6.24-3.6V84.87Zm.8,8.34V88.93l4.65-2.68v7.88Z"/><path class="cls-5" d="M132.43,88.47v9.72l6.24-3.6V84.87Zm.8,8.34V88.93l4.65-2.68v7.88Z"/><polygon class="cls-21" points="133.23 95.81 137.01 93.63 137.01 86.75 133.23 88.93 133.23 95.81"/><polygon class="cls-22" points="68.49 83.57 68.49 85.8 81.18 85.8 79.51 83.71 68.49 83.57"/><polygon class="cls-22" points="80.14 85.8 95.64 105.38 95.64 103.92 81.18 85.8 80.14 85.8"/><polygon class="cls-22" points="95.64 103.92 95.64 105.38 97.25 107.41 97.25 102.98 95.64 103.92"/><polygon class="cls-22" points="97.25 102.98 97.25 107.41 146.89 78.55 146.87 74.13 97.25 102.98"/><path class="cls-23" d="M109,106.78c-1.32-1.06-1.39-1.82-2.27-1.42v5.83l3.5-2A3,3,0,0,0,109,106.78Z"/><path class="cls-24" d="M107.3,106a1.94,1.94,0,0,1,1,1.47C108.28,108.4,109.06,106.53,107.3,106Z"/><path class="cls-24" d="M108.55,106.86a1.94,1.94,0,0,1,1,1.48C109.52,109.26,110.31,107.39,108.55,106.86Z"/><path class="cls-24" d="M108,108a1.94,1.94,0,0,1,1,1.48C109,110.35,109.74,108.48,108,108Z"/><path class="cls-24" d="M106.7,106v.08a.49.49,0,0,1,0,.12,1.52,1.52,0,0,1,.41,1C107.1,108,107.69,106.72,106.7,106Z"/><path class="cls-24" d="M106.7,107.83v.08a1.72,1.72,0,0,1,.71,1.29C107.41,110.08,108.12,108.45,106.7,107.83Z"/><path class="cls-24" d="M108.14,109.18a2.33,2.33,0,0,1,.4,1,.81.81,0,0,1,.18-.1A1.66,1.66,0,0,0,108.14,109.18Z"/><path class="cls-24" d="M106.7,110a.37.37,0,0,1,0,.11v.09a1.56,1.56,0,0,1,.39.78l.18-.09A1.29,1.29,0,0,0,106.7,110Z"/><path class="cls-23" d="M122.12,99.07c-1.32-1-1.38-1.82-2.27-1.42v5.84l3.5-2A3,3,0,0,0,122.12,99.07Z"/><path class="cls-24" d="M120.45,98.3a1.94,1.94,0,0,1,1,1.47C121.43,100.7,122.22,98.83,120.45,98.3Z"/><path class="cls-24" d="M121.7,99.16a1.94,1.94,0,0,1,1,1.48C122.68,101.56,123.46,99.69,121.7,99.16Z"/><path class="cls-24" d="M121.12,100.25a1.94,1.94,0,0,1,1,1.47C122.1,102.65,122.89,100.78,121.12,100.25Z"/><path class="cls-24" d="M119.85,98.31v.21a1.55,1.55,0,0,1,.41,1C120.26,100.32,120.85,99,119.85,98.31Z"/><path class="cls-24" d="M119.86,100.12s0,.06,0,.09a1.73,1.73,0,0,1,.72,1.29C120.57,102.37,121.27,100.75,119.86,100.12Z"/><path class="cls-24" d="M121.29,101.48a2.43,2.43,0,0,1,.41,1,.52.52,0,0,1,.18-.1A1.71,1.71,0,0,0,121.29,101.48Z"/><path class="cls-24" d="M119.86,102.29s0,.07,0,.11v.09a1.61,1.61,0,0,1,.4.78.77.77,0,0,1,.18-.1A1.37,1.37,0,0,0,119.86,102.29Z"/><path class="cls-23" d="M135.51,91.39c-1.32-1.06-1.39-1.82-2.27-1.42v5.84l3.5-2A3,3,0,0,0,135.51,91.39Z"/><path class="cls-24" d="M133.83,90.62a1.92,1.92,0,0,1,1,1.47C134.81,93,135.6,91.15,133.83,90.62Z"/><path class="cls-24" d="M135.08,91.48a1.94,1.94,0,0,1,1,1.47C136.06,93.88,136.85,92,135.08,91.48Z"/><path class="cls-24" d="M134.51,92.57a1.94,1.94,0,0,1,1,1.47C135.48,95,136.27,93.1,134.51,92.57Z"/><path class="cls-24" d="M133.23,90.63v.21a1.49,1.49,0,0,1,.41,1C133.64,92.64,134.23,91.34,133.23,90.63Z"/><path class="cls-24" d="M133.24,92.44v.09a1.72,1.72,0,0,1,.71,1.29C134,94.69,134.66,93.07,133.24,92.44Z"/><path class="cls-24" d="M134.67,93.8a2.28,2.28,0,0,1,.41,1,.78.78,0,0,1,.18-.11A1.67,1.67,0,0,0,134.67,93.8Z"/><path class="cls-24" d="M133.24,94.6s0,.08,0,.12v.08a1.59,1.59,0,0,1,.39.79.77.77,0,0,1,.18-.1A1.31,1.31,0,0,0,133.24,94.6Z"/><path class="cls-18" d="M109.67,112.65v7.61l4.51-2.6v-7.61Zm.59,6.59V113l3.34-1.92v6.25Z"/><path class="cls-18" d="M114.58,109.82v7.6l4.51-2.6v-7.6Zm.59,6.59v-6.25l3.34-1.93v6.25Z"/><polygon class="cls-18" points="109.72 113.15 113.64 117.81 114.13 117.16 110.21 112.5 109.72 113.15"/><polygon class="cls-18" points="109.72 119.71 110.21 119.8 114.13 110.6 113.64 110.52 109.72 119.71"/><polygon class="cls-18" points="114.63 116.87 115.12 116.96 119.04 107.77 118.55 107.68 114.63 116.87"/><polygon class="cls-18" points="114.63 110.31 118.55 114.98 119.04 114.33 115.12 109.66 114.63 110.31"/><path class="cls-18" d="M99.78,118.39V126l4.51-2.6v-7.6Zm.59,6.59v-6.25l3.33-1.93v6.25Z"/><path class="cls-18" d="M104.69,115.55v7.61l4.51-2.6V113Zm.59,6.6v-6.26l3.33-1.92v6.25Z"/><polygon class="cls-18" points="99.83 118.88 103.75 123.55 104.24 122.9 100.32 118.23 99.83 118.88"/><polygon class="cls-18" points="99.83 125.44 100.32 125.53 104.24 116.34 103.75 116.25 99.83 125.44"/><polygon class="cls-18" points="104.74 122.61 105.23 122.69 109.15 113.5 108.66 113.42 104.74 122.61"/><polygon class="cls-18" points="104.74 116.05 108.66 120.71 109.15 120.06 105.23 115.4 104.74 116.05"/><path class="cls-7" d="M110.2,112.3v7.6l4.5-2.6v-7.6Zm.58,6.59v-6.25l3.34-1.93V117Z"/><path class="cls-7" d="M115.11,109.46v7.61l4.51-2.6v-7.61Zm.58,6.6V109.8l3.34-1.92v6.25Z"/><polygon class="cls-7" points="110.25 112.79 114.17 117.46 114.66 116.81 110.74 112.14 110.25 112.79"/><polygon class="cls-7" points="110.25 119.35 110.74 119.44 114.66 110.25 114.17 110.16 110.25 119.35"/><polygon class="cls-7" points="115.16 116.52 115.65 116.61 119.57 107.41 119.08 107.33 115.16 116.52"/><polygon class="cls-7" points="115.16 109.96 119.08 114.63 119.57 113.97 115.65 109.31 115.16 109.96"/><path class="cls-7" d="M100.31,118v7.61l4.5-2.6v-7.61Zm.58,6.6v-6.26l3.34-1.92v6.25Z"/><path class="cls-7" d="M105.22,115.2v7.6l4.5-2.6v-7.6Zm.58,6.59v-6.25l3.34-1.93v6.25Z"/><polygon class="cls-7" points="100.35 118.53 104.27 123.19 104.77 122.54 100.84 117.88 100.35 118.53"/><polygon class="cls-7" points="100.35 125.09 100.84 125.17 104.77 115.98 104.27 115.9 100.35 125.09"/><polygon class="cls-7" points="105.27 122.25 105.75 122.34 109.67 113.15 109.18 113.06 105.27 122.25"/><polygon class="cls-7" points="105.27 115.69 109.19 120.36 109.67 119.71 105.75 115.04 105.27 115.69"/><path class="cls-18" d="M133.66,98.72v7.61l4.5-2.61v-7.6Zm.58,6.59V99.06l3.34-1.93v6.26Z"/><path class="cls-18" d="M138.57,95.89v7.6l4.5-2.6V93.28Zm.58,6.59V96.22l3.34-1.92v6.25Z"/><polygon class="cls-18" points="133.71 99.22 137.63 103.88 138.12 103.23 134.19 98.56 133.71 99.22"/><polygon class="cls-18" points="133.71 105.78 134.19 105.86 138.12 96.67 137.63 96.58 133.71 105.78"/><polygon class="cls-18" points="138.62 102.94 139.1 103.03 143.03 93.83 142.54 93.75 138.62 102.94"/><polygon class="cls-18" points="138.62 96.38 142.54 101.05 143.03 100.39 139.1 95.73 138.62 96.38"/><path class="cls-18" d="M123.77,104.46v7.6l4.5-2.6v-7.61Zm.58,6.59v-6.26l3.34-1.92v6.25Z"/><path class="cls-18" d="M128.68,101.62v7.61l4.5-2.61V99Zm.58,6.59V102L132.6,100v6.26Z"/><polygon class="cls-18" points="123.81 104.95 127.73 109.62 128.22 108.96 124.3 104.3 123.81 104.95"/><polygon class="cls-18" points="123.81 111.51 124.3 111.6 128.22 102.4 127.73 102.32 123.81 111.51"/><polygon class="cls-18" points="128.72 108.67 129.21 108.76 133.13 99.57 132.64 99.48 128.72 108.67"/><polygon class="cls-18" points="128.72 102.12 132.64 106.78 133.13 106.13 129.21 101.46 128.72 102.12"/><path class="cls-7" d="M134.18,98.37V106l4.51-2.6V95.76Zm.59,6.59V98.7l3.33-1.92V103Z"/><path class="cls-7" d="M139.09,95.53v7.61l4.51-2.61v-7.6Zm.59,6.59V95.87L143,93.94v6.26Z"/><polygon class="cls-7" points="134.23 98.86 138.15 103.53 138.64 102.88 134.72 98.21 134.23 98.86"/><polygon class="cls-7" points="134.23 105.42 134.72 105.51 138.64 96.31 138.15 96.23 134.23 105.42"/><polygon class="cls-7" points="139.14 102.59 139.63 102.67 143.55 93.48 143.06 93.39 139.14 102.59"/><polygon class="cls-7" points="139.14 96.03 143.06 100.69 143.55 100.04 139.63 95.37 139.14 96.03"/><path class="cls-7" d="M124.29,104.1v7.61l4.5-2.61v-7.6Zm.58,6.59v-6.25l3.34-1.93v6.26Z"/><path class="cls-7" d="M129.2,101.27v7.6l4.5-2.6V98.66Zm.58,6.59V101.6l3.34-1.92v6.25Z"/><polygon class="cls-7" points="124.34 104.6 128.26 109.26 128.75 108.61 124.83 103.94 124.34 104.6"/><polygon class="cls-7" points="124.34 111.16 124.83 111.24 128.75 102.05 128.26 101.96 124.34 111.16"/><polygon class="cls-7" points="129.25 108.32 129.74 108.41 133.66 99.21 133.17 99.13 129.25 108.32"/><polygon class="cls-7" points="129.25 101.76 133.17 106.43 133.66 105.78 129.74 101.11 129.25 101.76"/><path class="cls-10" d="M79.2,114.58c-2.15-1.24-9.12-5-9.79-5.65a10.9,10.9,0,0,0-2.2-1.27,17.24,17.24,0,0,0-.33,3.23,18,18,0,0,1,0,2.36s.06.81,1.25,1.44,6.25,3.62,6.83,4,6,4,6.11,3.52,0-5.84,0-5.84S81.34,115.82,79.2,114.58Z"/><path class="cls-10" d="M79.2,114.58c-2.15-1.24-9.12-5-9.79-5.65a10.9,10.9,0,0,0-2.2-1.27,17.24,17.24,0,0,0-.33,3.23,18,18,0,0,1,0,2.36s.06.81,1.25,1.44,6.25,3.62,6.83,4,6,4,6.11,3.52,0-5.84,0-5.84S81.34,115.82,79.2,114.58Z"/><path class="cls-3" d="M81.12,115.81s-.15,0-.15.93,0,4.14,0,4.47a6.4,6.4,0,0,0,0,1,2.68,2.68,0,0,0,.76-.27,2.77,2.77,0,0,1,.53-.28s.17-.13.16-.66,0-2.86,0-3.12a18.59,18.59,0,0,0,0-2.8A13.53,13.53,0,0,0,81.12,115.81Z"/><path class="cls-3" d="M81.12,115.81s-.15,0-.15.93,0,4.14,0,4.47a6.4,6.4,0,0,0,0,1,2.68,2.68,0,0,0,.76-.27,2.77,2.77,0,0,1,.53-.28s.17-.13.16-.66,0-2.86,0-3.12a18.59,18.59,0,0,0,0-2.8A13.53,13.53,0,0,0,81.12,115.81Z"/><path class="cls-2" d="M81.39,114.37c-1.21-.68-6.26-3.61-6.83-3.94s-5.83-3.53-6.11-3.53-1.2.76-1.2.76-.54-.09,1.61,1.15,9.16,5.24,9.78,5.65,2.2,1.27,2.2,1.27,1-.08,1.1-.25.54-.29.54-.29S82.59,115.05,81.39,114.37Z"/><path class="cls-2" d="M81.39,114.37c-1.21-.68-6.26-3.61-6.83-3.94s-5.83-3.53-6.11-3.53-1.2.76-1.2.76-.54-.09,1.61,1.15,9.16,5.24,9.78,5.65L81,116a4.14,4.14,0,0,0,.93-.56c.1-.17.54-.29.54-.29S82.59,115.05,81.39,114.37Z"/><path class="cls-10" d="M93.73,123.38c-2.14-1.24-9.11-5-9.78-5.65a10.41,10.41,0,0,0-2.2-1.27,17.24,17.24,0,0,0-.33,3.23,17.34,17.34,0,0,1,0,2.36s.07.81,1.26,1.44,6.25,3.62,6.83,3.94,6,4.06,6.11,3.53,0-5.84,0-5.84S95.88,124.62,93.73,123.38Z"/><path class="cls-10" d="M93.73,123.38c-2.14-1.24-9.11-5-9.78-5.65a10.41,10.41,0,0,0-2.2-1.27,17.24,17.24,0,0,0-.33,3.23,17.34,17.34,0,0,1,0,2.36s.07.81,1.26,1.44,6.25,3.62,6.83,3.94,6,4.06,6.11,3.53,0-5.84,0-5.84S95.88,124.62,93.73,123.38Z"/><path class="cls-3" d="M95.66,124.6s-.15,0-.15.94,0,4.14,0,4.47a6.27,6.27,0,0,0,0,1,2.66,2.66,0,0,0,.76-.26,3.1,3.1,0,0,1,.53-.29s.17-.12.16-.66,0-2.86,0-3.12a18.46,18.46,0,0,0,0-2.79A13.62,13.62,0,0,0,95.66,124.6Z"/><path class="cls-3" d="M95.66,124.6s-.15,0-.15.94,0,4.14,0,4.47a6.27,6.27,0,0,0,0,1,2.66,2.66,0,0,0,.76-.26,3.1,3.1,0,0,1,.53-.29s.17-.12.16-.66,0-2.86,0-3.12a18.46,18.46,0,0,0,0-2.79A13.62,13.62,0,0,0,95.66,124.6Z"/><path class="cls-2" d="M95.92,123.17l-6.82-4c-.57-.33-5.83-3.52-6.11-3.52s-1.2.76-1.2.76-.54-.09,1.61,1.15,9.16,5.24,9.78,5.65,2.2,1.27,2.2,1.27,1-.08,1.1-.25.54-.3.54-.3S97.13,123.85,95.92,123.17Z"/><path class="cls-2" d="M95.92,123.17l-6.82-4c-.57-.33-5.83-3.52-6.11-3.52s-1.2.76-1.2.76-.54-.09,1.61,1.15,9.16,5.24,9.78,5.65l2.37,1.58a4.37,4.37,0,0,0,.93-.56c.1-.17.54-.3.54-.3S97.13,123.85,95.92,123.17Z"/><path class="cls-3" d="M147.72,99.47a17.9,17.9,0,0,0-.34-3.23,10.18,10.18,0,0,0-2.19,1.27c-.67.61-7.64,4.41-9.79,5.65s-1.86,1.74-1.86,1.74-.15,5.32,0,5.84,5.54-3.2,6.11-3.52,5.63-3.31,6.82-4,1.26-1.44,1.26-1.44A16.29,16.29,0,0,1,147.72,99.47Z"/><path class="cls-3" d="M147.72,99.47a17.9,17.9,0,0,0-.34-3.23,10.18,10.18,0,0,0-2.19,1.27c-.67.61-7.64,4.41-9.79,5.65s-1.86,1.74-1.86,1.74-.15,5.32,0,5.84,5.54-3.2,6.11-3.52,5.63-3.31,6.82-4,1.26-1.44,1.26-1.44A16.29,16.29,0,0,1,147.72,99.47Z"/><path class="cls-10" d="M133.63,105.32c0-1-.15-.93-.15-.93a12.65,12.65,0,0,0-1.31-.72,19.88,19.88,0,0,0,0,2.79c0,.27,0,2.59,0,3.12s.16.67.16.67a2.5,2.5,0,0,1,.53.28,2.7,2.7,0,0,0,.77.26,6.27,6.27,0,0,0,0-1C133.58,109.46,133.63,106.3,133.63,105.32Z"/><path class="cls-10" d="M133.63,105.32c0-1-.15-.93-.15-.93a12.65,12.65,0,0,0-1.31-.72,19.88,19.88,0,0,0,0,2.79c0,.27,0,2.59,0,3.12s.16.67.16.67a2.5,2.5,0,0,1,.53.28,2.7,2.7,0,0,0,.77.26,6.27,6.27,0,0,0,0-1C133.58,109.46,133.63,106.3,133.63,105.32Z"/><path class="cls-2" d="M147.34,96.24s-.92-.77-1.19-.76S140.61,98.67,140,99s-5.62,3.26-6.83,3.94-1.09.81-1.09.81.44.13.54.3,1.1.25,1.1.25,1.57-.85,2.19-1.27,7.64-4.41,9.79-5.65S147.34,96.24,147.34,96.24Z"/><path class="cls-2" d="M147.34,96.24s-.92-.77-1.19-.76S140.61,98.67,140,99s-5.62,3.26-6.83,3.94-1.09.81-1.09.81.44.13.54.3a4.11,4.11,0,0,0,.92.56L136,103c.62-.41,7.64-4.41,9.79-5.65S147.34,96.24,147.34,96.24Z"/><path class="cls-3" d="M131.15,109.64a17.9,17.9,0,0,0-.34-3.23,10.42,10.42,0,0,0-2.19,1.27c-.67.61-7.64,4.41-9.79,5.65s-1.86,1.74-1.86,1.74-.14,5.31,0,5.84,5.54-3.2,6.11-3.53,5.63-3.31,6.83-3.94,1.25-1.44,1.25-1.44A16.33,16.33,0,0,1,131.15,109.64Z"/><path class="cls-3" d="M131.15,109.64a17.9,17.9,0,0,0-.34-3.23,10.42,10.42,0,0,0-2.19,1.27c-.67.61-7.64,4.41-9.79,5.65s-1.86,1.74-1.86,1.74-.14,5.31,0,5.84,5.54-3.2,6.11-3.53,5.63-3.31,6.83-3.94,1.25-1.44,1.25-1.44A16.33,16.33,0,0,1,131.15,109.64Z"/><path class="cls-10" d="M117.06,115.48c0-1-.15-.93-.15-.93a12.74,12.74,0,0,0-1.31-.71,19.88,19.88,0,0,0,0,2.79c0,.26,0,2.58,0,3.12s.16.66.16.66a2.76,2.76,0,0,1,.53.29,2.7,2.7,0,0,0,.77.26,6.27,6.27,0,0,0,0-1C117,119.63,117.06,116.47,117.06,115.48Z"/><path class="cls-10" d="M117.06,115.48c0-1-.15-.93-.15-.93a12.74,12.74,0,0,0-1.31-.71,19.88,19.88,0,0,0,0,2.79c0,.26,0,2.58,0,3.12s.16.66.16.66a2.76,2.76,0,0,1,.53.29,2.7,2.7,0,0,0,.77.26,6.27,6.27,0,0,0,0-1C117,119.63,117.06,116.47,117.06,115.48Z"/><path class="cls-2" d="M130.77,106.41s-.91-.77-1.19-.77-5.54,3.2-6.11,3.53-5.62,3.26-6.83,3.94-1.09.82-1.09.82.44.13.54.3,1.1.25,1.1.25,1.57-.86,2.19-1.27,7.64-4.41,9.79-5.65S130.77,106.41,130.77,106.41Z"/><path class="cls-2" d="M130.77,106.41s-.91-.77-1.19-.77-5.54,3.2-6.11,3.53-5.62,3.26-6.83,3.94-1.09.82-1.09.82.44.13.54.3a4.14,4.14,0,0,0,.93.56l2.36-1.58c.62-.42,7.64-4.41,9.79-5.65S130.77,106.41,130.77,106.41Z"/><path class="cls-3" d="M112.9,120.05a17.87,17.87,0,0,0-.34-3.22,10.18,10.18,0,0,0-2.19,1.27c-.67.6-7.64,4.41-9.79,5.65s-1.86,1.73-1.86,1.73-.14,5.32,0,5.85,5.54-3.2,6.11-3.53,5.63-3.31,6.83-3.94,1.25-1.44,1.25-1.44A16.44,16.44,0,0,1,112.9,120.05Z"/><path class="cls-3" d="M112.9,120.05a17.87,17.87,0,0,0-.34-3.22,10.18,10.18,0,0,0-2.19,1.27c-.67.6-7.64,4.41-9.79,5.65s-1.86,1.73-1.86,1.73-.14,5.32,0,5.85,5.54-3.2,6.11-3.53,5.63-3.31,6.83-3.94,1.25-1.44,1.25-1.44A16.44,16.44,0,0,1,112.9,120.05Z"/><path class="cls-10" d="M98.81,125.9c0-1-.15-.93-.15-.93a11.06,11.06,0,0,0-1.31-.71,19.88,19.88,0,0,0,0,2.79c0,.26,0,2.58,0,3.12s.16.66.16.66a2.5,2.5,0,0,1,.53.28,2.51,2.51,0,0,0,.77.27,6.27,6.27,0,0,0,0-1C98.76,130,98.81,126.88,98.81,125.9Z"/><path class="cls-10" d="M98.81,125.9c0-1-.15-.93-.15-.93a11.06,11.06,0,0,0-1.31-.71,19.88,19.88,0,0,0,0,2.79c0,.26,0,2.58,0,3.12s.16.66.16.66a2.5,2.5,0,0,1,.53.28,2.51,2.51,0,0,0,.77.27,6.27,6.27,0,0,0,0-1C98.76,130,98.81,126.88,98.81,125.9Z"/><path class="cls-2" d="M112.52,116.83s-.91-.77-1.19-.77-5.54,3.2-6.11,3.53-5.62,3.26-6.83,3.94-1.09.82-1.09.82.44.13.54.3,1.1.24,1.1.24,1.57-.85,2.19-1.26,7.64-4.41,9.79-5.65S112.52,116.83,112.52,116.83Z"/><path class="cls-2" d="M112.52,116.83s-.91-.77-1.19-.77-5.54,3.2-6.11,3.53-5.62,3.26-6.83,3.94-1.09.82-1.09.82.44.13.54.3a4.14,4.14,0,0,0,.93.56l2.36-1.58c.62-.42,7.64-4.41,9.79-5.65S112.52,116.83,112.52,116.83Z"/><path class="cls-14" d="M92.31,95.19c-.77-1-1.6-2.06-2.44-3.12S88.18,90,87.37,89s-1.6-1.86-2.25-2.63c-1.34-1.52-2.27-2.5-2.27-2.5s.75,1.13,1.94,2.77c.6.81,1.29,1.77,2.06,2.77s1.6,2.07,2.44,3.12,1.69,2.1,2.5,3.07,1.59,1.86,2.25,2.63c1.33,1.52,2.27,2.5,2.27,2.5S95.56,99.6,94.37,98C93.77,97.15,93.08,96.19,92.31,95.19Z"/><path class="cls-17" d="M74.21,81.83c-1.48,0-3,0-4.08.12s-1.85.2-1.85.2.74.12,1.85.23,2.59.18,4.07.2,3,0,4.09-.12,1.85-.2,1.85-.2-.74-.12-1.85-.23S75.7,81.85,74.21,81.83Z"/><path class="cls-14" d="M97.39,92.18c-.76-1-1.6-2.06-2.43-3.12S93.26,87,92.45,86s-1.59-1.86-2.25-2.63c-1.33-1.52-2.27-2.5-2.27-2.5s.75,1.13,1.94,2.77c.61.81,1.29,1.77,2.06,2.77s1.61,2.07,2.44,3.12,1.69,2.1,2.51,3.07,1.59,1.86,2.25,2.63c1.33,1.52,2.27,2.5,2.27,2.5s-.75-1.13-1.94-2.77C98.85,94.14,98.16,93.18,97.39,92.18Z"/><path class="cls-17" d="M79.3,78.82c-1.49,0-3,0-4.08.12s-1.86.2-1.86.2.74.12,1.85.23,2.6.18,4.08.2,3,0,4.08-.12,1.86-.2,1.86-.2-.74-.12-1.86-.23S80.78,78.84,79.3,78.82Z"/><path class="cls-14" d="M103.78,89.21c-.76-1-1.6-2.07-2.43-3.12S99.65,84,98.84,83s-1.59-1.86-2.25-2.63c-1.33-1.52-2.27-2.5-2.27-2.5s.75,1.13,1.94,2.76c.61.82,1.29,1.78,2.07,2.78s1.6,2.06,2.43,3.12,1.69,2.1,2.51,3.07,1.59,1.86,2.25,2.63c1.33,1.52,2.27,2.5,2.27,2.5S107,93.62,105.85,92C105.24,91.17,104.56,90.21,103.78,89.21Z"/><path class="cls-17" d="M85.69,75.85c-1.49,0-3,0-4.08.12s-1.86.2-1.86.2.74.12,1.85.23,2.6.18,4.08.2,3,0,4.08-.12,1.86-.2,1.86-.2-.74-.12-1.86-.23S87.17,75.86,85.69,75.85Z"/><path class="cls-14" d="M108.87,86.2c-.77-1-1.6-2.07-2.44-3.13S104.74,81,103.92,80s-1.59-1.86-2.25-2.63c-1.33-1.52-2.26-2.5-2.26-2.5s.75,1.13,1.94,2.76c.6.81,1.29,1.78,2.06,2.78s1.6,2.06,2.44,3.12,1.69,2.1,2.5,3.07,1.6,1.86,2.25,2.63c1.33,1.52,2.27,2.5,2.27,2.5s-.75-1.13-1.94-2.77C110.33,88.16,109.64,87.2,108.87,86.2Z"/><path class="cls-17" d="M90.77,72.84c-1.48,0-3,0-4.08.12s-1.86.2-1.86.2.75.12,1.86.23,2.59.18,4.07.2,3,0,4.08-.13,1.86-.19,1.86-.19S96,73.15,94.85,73,92.25,72.85,90.77,72.84Z"/><path class="cls-14" d="M114.45,83c-.76-1-1.6-2.06-2.44-3.12s-1.69-2.1-2.5-3.07-1.6-1.85-2.25-2.62c-1.34-1.53-2.27-2.51-2.27-2.51s.75,1.13,1.94,2.77c.6.81,1.29,1.77,2.06,2.77s1.6,2.07,2.44,3.13,1.69,2.1,2.5,3.06,1.6,1.86,2.25,2.63c1.34,1.52,2.27,2.5,2.27,2.5s-.75-1.13-1.94-2.76C115.91,85,115.22,84,114.45,83Z"/><path class="cls-17" d="M96.35,69.62c-1.48,0-3,0-4.08.12s-1.85.2-1.85.2.74.12,1.85.23,2.59.19,4.08.2,3,0,4.08-.12,1.85-.2,1.85-.2-.74-.12-1.85-.23S97.84,69.64,96.35,69.62Z"/><path class="cls-14" d="M119.54,80c-.77-1-1.61-2.06-2.44-3.12s-1.7-2.1-2.51-3.07-1.59-1.86-2.25-2.62c-1.33-1.53-2.27-2.51-2.27-2.51s.75,1.13,1.94,2.77c.61.81,1.3,1.77,2.07,2.77s1.6,2.07,2.43,3.13,1.69,2.1,2.51,3.06,1.59,1.86,2.25,2.63c1.33,1.52,2.27,2.5,2.27,2.5s-.75-1.13-1.94-2.76C121,81.94,120.31,81,119.54,80Z"/><path class="cls-17" d="M101.44,66.61c-1.49,0-3,0-4.08.12s-1.86.2-1.86.2.74.12,1.85.23,2.6.18,4.08.2,3,0,4.08-.12,1.86-.2,1.86-.2-.74-.12-1.85-.23S102.92,66.63,101.44,66.61Z"/><path class="cls-14" d="M124.83,77.08c-.76-1-1.6-2.07-2.43-3.12s-1.7-2.1-2.51-3.07-1.59-1.86-2.25-2.63c-1.33-1.52-2.27-2.5-2.27-2.5s.75,1.13,1.94,2.77c.61.81,1.3,1.77,2.07,2.77s1.6,2.06,2.43,3.12,1.69,2.1,2.51,3.07,1.59,1.86,2.25,2.63c1.33,1.52,2.27,2.5,2.27,2.5s-.75-1.13-1.94-2.77C126.29,79,125.61,78.08,124.83,77.08Z"/><path class="cls-17" d="M106.74,63.72c-1.49,0-3,0-4.08.12s-1.86.2-1.86.2.74.12,1.85.23,2.6.18,4.08.2,3,0,4.08-.12,1.86-.2,1.86-.2-.74-.12-1.85-.23S108.22,63.74,106.74,63.72Z"/><path class="cls-14" d="M129.92,74.07c-.76-1-1.6-2.07-2.44-3.13s-1.69-2.09-2.5-3.06-1.6-1.86-2.25-2.63c-1.34-1.52-2.27-2.5-2.27-2.5s.75,1.13,1.94,2.76c.6.82,1.29,1.78,2.06,2.78s1.6,2.06,2.44,3.12,1.69,2.1,2.5,3.07,1.6,1.86,2.25,2.63c1.34,1.52,2.27,2.5,2.27,2.5s-.75-1.13-1.94-2.77C131.38,76,130.69,75.07,129.92,74.07Z"/><path class="cls-17" d="M111.82,60.71c-1.48,0-3,0-4.08.12s-1.85.2-1.85.2.74.12,1.85.23,2.59.18,4.08.2,3,0,4.08-.12,1.85-.2,1.85-.2-.74-.12-1.85-.23S113.31,60.72,111.82,60.71Z"/><path class="cls-14" d="M135.16,71.18c-.76-1-1.6-2.07-2.44-3.13S131,66,130.22,65s-1.6-1.85-2.25-2.62c-1.34-1.52-2.27-2.5-2.27-2.5s.75,1.12,1.94,2.76c.6.81,1.29,1.77,2.06,2.78s1.6,2.06,2.44,3.12,1.69,2.1,2.5,3.07,1.6,1.85,2.25,2.62c1.34,1.53,2.27,2.51,2.27,2.51s-.75-1.13-1.94-2.77C136.62,73.14,135.93,72.18,135.16,71.18Z"/><path class="cls-17" d="M117.06,57.82c-1.48,0-3,0-4.08.12s-1.85.19-1.85.19.74.13,1.85.24,2.59.18,4.08.19,3,0,4.08-.12,1.85-.19,1.85-.19-.74-.13-1.85-.24S118.55,57.83,117.06,57.82Z"/><path class="cls-14" d="M140.24,68.16c-.76-1-1.6-2.06-2.43-3.12s-1.7-2.1-2.51-3.07-1.59-1.85-2.25-2.62c-1.33-1.53-2.27-2.5-2.27-2.5s.75,1.12,1.94,2.76c.61.81,1.29,1.77,2.07,2.78s1.6,2.06,2.43,3.12,1.69,2.1,2.51,3.07,1.59,1.85,2.25,2.62c1.33,1.53,2.27,2.51,2.27,2.51s-.75-1.13-1.94-2.77C141.7,70.13,141,69.17,140.24,68.16Z"/><path class="cls-17" d="M122.15,54.8c-1.49,0-3,0-4.08.13s-1.86.19-1.86.19.74.13,1.85.24,2.6.18,4.08.19,3,0,4.08-.12,1.86-.19,1.86-.19-.74-.13-1.86-.24S123.63,54.82,122.15,54.8Z"/><path class="cls-14" d="M145.46,65.37c-.77-1-1.6-2.07-2.44-3.12s-1.69-2.1-2.51-3.07-1.59-1.86-2.24-2.63c-1.34-1.52-2.27-2.5-2.27-2.5s.75,1.13,1.94,2.77c.6.81,1.29,1.77,2.06,2.77s1.6,2.07,2.44,3.12,1.69,2.1,2.5,3.07,1.6,1.86,2.25,2.63c1.33,1.52,2.27,2.5,2.27,2.5s-.75-1.13-1.94-2.77C146.92,67.33,146.23,66.37,145.46,65.37Z"/><path class="cls-17" d="M127.36,52c-1.48,0-3,0-4.08.12s-1.85.2-1.85.2.74.12,1.85.23,2.59.18,4.07.2,3,0,4.08-.12,1.86-.2,1.86-.2-.74-.12-1.85-.23S128.84,52,127.36,52Z"/></g></g></svg>