<svg xmlns="http://www.w3.org/2000/svg" viewBox="0 0 43.11 82"><defs><style>.cls-1{isolation:isolate;}.cls-2{fill:#259d64;}.cls-3{fill:#218d59;}.cls-4{fill:#19633e;}.cls-5{fill:#664224;}.cls-6{fill:#5b3c20;}.cls-7{fill:#402a16;}</style></defs><g id="Layer_2" data-name="Layer 2"><g id="Layer_1-2" data-name="Layer 1"><g class="cls-1"><polygon class="cls-2" points="32.99 67.58 21.61 74.21 10.12 67.58 21.53 60.94 32.99 67.58"/><polygon class="cls-3" points="32.99 67.58 32.99 75.37 21.61 82 21.61 74.21 32.99 67.58"/><polygon class="cls-4" points="21.61 74.21 21.61 82 10.12 75.37 10.12 67.58 21.61 74.21"/></g><g class="cls-1"><polygon class="cls-5" points="25.22 53.27 21.58 55.38 17.92 53.27 21.56 51.15 25.22 53.27"/><polygon class="cls-6" points="25.22 53.27 25.19 68 21.55 70.12 21.58 55.38 25.22 53.27"/><polygon class="cls-7" points="21.58 55.38 21.55 70.12 17.89 68 17.92 53.27 21.58 55.38"/></g><g class="cls-1"><polygon class="cls-2" points="43.11 35.75 21.65 48.25 0 35.75 21.51 23.25 43.11 35.75"/><polygon class="cls-3" points="43.11 35.75 43.11 49.54 21.65 62.03 21.65 48.25 43.11 35.75"/><polygon class="cls-4" points="21.65 48.25 21.65 62.03 0 49.54 0 35.75 21.65 48.25"/></g><g class="cls-1"><polygon class="cls-2" points="43.11 17.97 21.65 30.47 0 17.97 21.51 5.47 43.11 17.97"/><polygon class="cls-3" points="43.11 17.97 43.11 31.75 21.65 44.25 21.65 30.47 43.11 17.97"/><polygon class="cls-4" points="21.65 30.47 21.65 44.25 0 31.75 0 17.97 21.65 30.47"/></g><g class="cls-1"><polygon class="cls-2" points="36.27 8.53 21.62 17.06 6.84 8.53 21.52 0 36.27 8.53"/><polygon class="cls-3" points="36.27 8.53 36.27 17.94 21.62 26.47 21.62 17.06 36.27 8.53"/><polygon class="cls-4" points="21.62 17.06 21.62 26.47 6.84 17.94 6.84 8.53 21.62 17.06"/></g></g></g></svg>